<?xml version="1.0" encoding="utf-8"?>
<!-- Generator: Adobe Illustrator 26.5.0, SVG Export Plug-In . SVG Version: 6.00 Build 0)  -->
<svg version="1.1" xmlns="http://www.w3.org/2000/svg" xmlns:xlink="http://www.w3.org/1999/xlink" x="0px" y="0px"
	 viewBox="0 0 64.63 93.54" style="enable-background:new 0 0 64.63 93.54;" xml:space="preserve">
<style type="text/css">
	.st0{fill:#F1F1F2;}
	.st1{fill:none;stroke:#404041;stroke-width:0.35;stroke-linecap:round;stroke-linejoin:round;}
	.st2{font-family:'Inter18pt-Medium';}
	.st3{font-size:10px;}
</style>
<g id="Default">
</g>
<g id="_x30_3_x5F_LINEA_FINA">
	<g id="XMLID_00000057869002617389631920000001189798705421920176_">
		<g>
			<path class="st0" d="M64.63,91.85c0,0.06,0,0.12,0,0.18c0,0.05,0,0.09-0.01,0.13c-0.01,0.02-0.01,0.04-0.02,0.07
				c0.01,0.01,0,0.03-0.01,0.04c-0.01,0.02-0.01,0.04-0.03,0.07c0,0.01,0,0.02-0.01,0.03c-0.01,0.02-0.02,0.03-0.03,0.05
				c-0.01,0.03-0.03,0.05-0.05,0.07c-0.02,0.03-0.04,0.06-0.07,0.09c-0.03,0.03-0.07,0.06-0.11,0.09c-0.05,0.04-0.1,0.07-0.15,0.1
				c-0.03,0.02-0.07,0.03-0.1,0.04c-0.01,0-0.01,0.01-0.02,0.01h-0.01c-0.08,0.04-0.16,0.06-0.25,0.07
				c-0.08,0.02-0.15,0.02-0.23,0.03c-0.01,0-0.02,0-0.03,0c-0.04,0-0.08,0-0.12,0.01c-0.03,0-0.06,0-0.1,0
				c-0.07,0-0.13,0.01-0.2,0.01c-0.14,0.01-0.28,0.02-0.42,0.02c-0.27,0.02-0.53,0.03-0.8,0.05c-1.08,0.06-2.16,0.12-3.25,0.17
				c-1,0.05-2.01,0.09-3.02,0.13c-0.32,0.02-0.64,0.03-0.96,0.04c-1.2,0.04-2.4,0.07-3.6,0.11h-0.01c-0.11,0-0.21,0.01-0.32,0.01
				c-0.32,0.01-0.63,0.01-0.95,0.02c-1.16,0.02-2.31,0.04-3.47,0.05l-13.74,0.01c-1.21-0.01-2.42-0.03-3.64-0.05
				c-0.15-0.01-0.31-0.01-0.47-0.01c-0.07,0-0.15-0.01-0.23-0.01c-0.07,0-0.14,0-0.2,0c-0.03,0-0.07,0-0.1,0
				c-0.76-0.02-1.5-0.04-2.25-0.07c-0.52-0.01-1.03-0.02-1.55-0.05c-0.03,0-0.07,0-0.1,0c-0.34-0.01-0.67-0.02-1.01-0.03
				c-1.04-0.04-2.08-0.09-3.12-0.14c-1.12-0.05-2.24-0.11-3.36-0.17c-0.59-0.04-1.17-0.07-1.76-0.1h-0.01
				c-0.1-0.01-0.21-0.02-0.32-0.04c-0.02,0-0.05,0-0.07-0.01c-0.04-0.02-0.08-0.03-0.12-0.04c-0.02-0.01-0.04-0.01-0.05-0.02
				c-0.01-0.01-0.01-0.01-0.01-0.01c-0.02-0.01-0.04-0.02-0.06-0.03c-0.04-0.02-0.08-0.04-0.12-0.07c-0.01,0-0.01,0-0.01-0.01
				c-0.05-0.03-0.1-0.08-0.15-0.12c0-0.01-0.01-0.01-0.01-0.01c-0.04-0.05-0.08-0.1-0.11-0.16c-0.02-0.04-0.04-0.07-0.05-0.11
				c-0.04-0.09-0.05-0.18-0.05-0.27c0-0.04,0-0.08,0-0.12c0-0.08,0-0.15,0-0.22v-0.01c0-0.18,0-0.36,0-0.54c0-1.68,0-3.36,0-5.04
				c0-8.46,0-16.91,0-25.36v-0.01c0-0.33,0-0.67,0-1c0-0.47,0-0.95,0-1.42c0-13.13,0-26.25,0-39.38c0-0.74,0.25-1.48,0.74-2.05
				c0.49-0.57,1.17-0.94,1.93-0.99h1.59c0.01,0.52,0.05,1.05,0.14,1.57c0.15,0.81,0.44,1.66,0.78,2.4c0.18,0.4,0.39,0.78,0.62,1.15
				c0.06,0.1,0.12,0.18,0.18,0.27c0,0.01,0.01,0.02,0.02,0.04c0.07,0.1,0.13,0.18,0.2,0.27c0.06,0.08,0.13,0.16,0.21,0.23
				c0.01,0.01,0.01,0.01,0.01,0.01c0.07,0.07,0.15,0.14,0.24,0.2l0.01,0.01c0.08,0.06,0.18,0.12,0.28,0.17c0,0,0.01,0,0.01,0.01
				c0.1,0.05,0.2,0.1,0.3,0.13c0,0,0.01,0,0.01,0.01c0.1,0.04,0.2,0.08,0.31,0.11c0.03,0.01,0.06,0.01,0.08,0.02
				c0.19,0.06,0.39,0.11,0.58,0.16c0.02,0.01,0.04,0.01,0.06,0.02c0.04,0.01,0.08,0.02,0.12,0.03c0.16,0.04,0.32,0.07,0.48,0.11
				c3.06,0.65,6.95,0.74,10.03,0.73h13.74c0.74,0,1.54-0.01,2.36-0.03c0.83-0.02,1.68-0.05,2.52-0.11c0.42-0.03,0.84-0.06,1.26-0.1
				c0.84-0.08,1.67-0.19,2.45-0.32c0.39-0.07,0.77-0.14,1.14-0.23c0.07-0.02,0.15-0.04,0.22-0.06c0.03,0,0.07-0.01,0.1-0.02
				c0.02-0.01,0.04-0.01,0.06-0.01c0.13-0.04,0.26-0.07,0.39-0.11c0.13-0.04,0.27-0.08,0.4-0.12c0.19-0.07,0.36-0.14,0.52-0.24
				c0.05-0.02,0.1-0.05,0.15-0.08c0.11-0.06,0.2-0.14,0.29-0.22c0.1-0.08,0.19-0.17,0.27-0.27V21.6c0.08-0.1,0.16-0.2,0.24-0.32
				c0.11-0.16,0.21-0.32,0.31-0.49c0.21-0.35,0.39-0.7,0.55-1.07c0.32-0.71,0.59-1.54,0.73-2.32c0.09-0.5,0.12-1.01,0.12-1.52h0.02
				c1.16,0,1.25,0,1.34,0c0.08,0,0.16,0,0.25,0c0.08,0,0.16,0,0.25,0c0.08,0,0.17,0,0.25,0c0.04,0,0.08,0,0.13,0
				c0.04,0,0.08,0,0.12,0c0.05,0,0.09,0,0.13,0s0.09,0,0.13,0c0.02,0,0.04,0,0.06,0c0.03,0,0.05,0,0.07,0c0.01,0,0.02,0,0.03,0
				c0.01,0,0.02,0,0.03,0s0.02,0,0.03,0c0.01,0,0.02,0,0.02,0h0.01h0.01c0.01,0,0.01,0,0.01,0c0.01,0,0.01,0,0.02,0
				c0.01,0,0.02,0,0.03-0.01c0.02,0,0.04,0,0.06,0s0.04,0,0.06-0.01c0.03,0,0.05,0,0.07-0.01c0.04-0.01,0.08-0.02,0.13-0.03
				c0.04-0.01,0.08-0.03,0.13-0.04c0.04-0.02,0.08-0.04,0.12-0.06c0.04-0.02,0.09-0.05,0.13-0.07c0.08-0.06,0.15-0.12,0.22-0.19
				c0.07-0.07,0.13-0.14,0.18-0.23c0.03-0.04,0.05-0.08,0.07-0.12c0.03-0.04,0.05-0.09,0.06-0.13c0.02-0.04,0.04-0.09,0.05-0.13
				c0-0.02,0.01-0.05,0.02-0.07c0-0.02,0-0.04,0.01-0.06c0-0.02,0.01-0.05,0.01-0.07c0-0.02,0-0.04,0.01-0.06
				c0,7.42,0,14.85,0,22.27c0,4.11,0,8.22,0,12.33c0,4.12,0,8.23,0,12.34c0,8.22,0,16.45,0,24.67c0,1.63,0,3.25,0,4.88v0.01
				c0,0.18,0,0.36,0,0.54c0,0.07,0,0.13,0,0.21V91.85z"/>
			<path class="st0" d="M64.63,12.19c0,0.8,0,1.6,0,2.4c-0.01,0.02-0.01,0.04-0.01,0.06c0,0.02-0.01,0.05-0.01,0.07
				c-0.01,0.02-0.01,0.04-0.01,0.06c-0.01,0.02-0.02,0.05-0.02,0.07c-0.01,0.04-0.03,0.09-0.05,0.13c-0.01,0.04-0.03,0.09-0.06,0.13
				c-0.02,0.04-0.04,0.08-0.07,0.12c-0.05,0.09-0.11,0.16-0.18,0.23c-0.07,0.07-0.14,0.13-0.22,0.19c-0.04,0.02-0.09,0.05-0.13,0.07
				c-0.04,0.02-0.08,0.04-0.12,0.06c-0.05,0.01-0.09,0.03-0.13,0.04c-0.05,0.01-0.09,0.02-0.13,0.03c-0.02,0.01-0.04,0.01-0.07,0.01
				c-0.02,0.01-0.04,0.01-0.06,0.01s-0.04,0-0.06,0c-0.01,0.01-0.02,0.01-0.03,0.01c-0.01,0-0.01,0-0.02,0c0,0,0,0-0.01,0h-0.01
				h-0.01c0,0-0.01,0-0.02,0c-0.01,0-0.02,0-0.03,0s-0.02,0-0.03,0c-0.01,0-0.02,0-0.03,0c-0.02,0-0.04,0-0.07,0
				c-0.02,0-0.04,0-0.06,0c-0.04,0-0.09,0-0.13,0s-0.08,0-0.13,0c-0.04,0-0.08,0-0.12,0c-0.05,0-0.09,0-0.13,0
				c-0.08,0-0.17,0-0.25,0c-0.09,0-0.17,0-0.25,0c-0.09,0-0.17,0-0.25,0c-0.09,0-0.18,0-1.34,0h-0.02c0.02-0.3,0.02-0.61,0.02-0.92
				c0-1.45,0-2.89,0-4.34c0-0.06,0-0.12,0-0.19c0-0.12-0.01-0.24-0.02-0.36c-0.02-0.2-0.07-0.36-0.16-0.51
				c-0.04-0.05-0.08-0.1-0.12-0.15c-0.06-0.06-0.12-0.12-0.19-0.17c-0.07-0.05-0.14-0.09-0.21-0.12c-0.11-0.06-0.23-0.1-0.35-0.14
				c0-0.68,0-1.35,0-2.03c0-0.3-0.11-0.58-0.31-0.79c-0.19-0.21-0.46-0.34-0.78-0.34c-3.98,0-7.97,0-11.96,0H32.54
				c-4.18,0-8.36,0-12.54,0c-0.31,0-0.58,0.13-0.78,0.34c-0.19,0.21-0.31,0.49-0.31,0.79c0,0.68,0,1.35,0,2.03
				c-0.22,0.07-0.44,0.17-0.62,0.31c-0.22,0.17-0.33,0.37-0.38,0.63c-0.03,0.15-0.04,0.29-0.05,0.43c0,0.08,0,0.16,0,0.23
				c0,1.46,0,2.92,0,4.38c0,0.31,0,0.61,0.01,0.92h-1.59c-0.76,0.05-1.44,0.42-1.93,0.99c-0.49,0.57-0.74,1.31-0.74,2.05
				c0-2.97,0-5.93,0-8.9c0-0.02,0-0.04,0-0.06c0-0.01,0-0.02,0-0.03s0-0.02,0-0.03c0-0.25,0-0.49,0-0.73c0-0.24,0-0.49,0-0.73
				s0-0.48,0-0.73c0-0.24,0-0.48,0-0.73c0-0.47,0-0.95,0-1.43c0-0.24,0-0.48,0-0.71c0-0.24,0-0.48,0-0.72s0-0.48,0-0.72
				s0-0.48,0-0.72c0-0.12,0-0.24,0-0.36c0-0.12,0-0.24,0-0.36c0-0.06,0-0.12,0-0.18c0-0.06,0-0.12,0-0.18c0-0.03,0-0.06,0-0.09
				s0-0.06,0-0.09c0-0.03,0-0.06,0-0.09c0-0.01,0-0.03,0-0.04c0-0.02,0-0.03,0-0.04s0-0.01,0-0.01V1.23V1.22c0-0.01,0-0.02,0-0.03
				c0-0.02,0-0.04,0-0.06c0-0.03,0-0.07,0.01-0.11c0-0.04,0-0.08,0-0.12c0.01-0.04,0.01-0.07,0.01-0.11
				c0.01-0.08,0.02-0.15,0.04-0.22c0-0.04,0.01-0.07,0.02-0.11c0.01-0.03,0.02-0.06,0.02-0.09c0.01-0.03,0.02-0.06,0.03-0.09
				s0.02-0.05,0.03-0.07c0.01-0.03,0.02-0.05,0.03-0.07c0.01-0.01,0.01-0.02,0.02-0.03c0,0,0.01-0.01,0.02-0.02
				c0-0.01,0.01-0.01,0.01-0.02c0.01-0.01,0.01-0.01,0.02-0.02c0-0.01,0.01-0.01,0.02-0.01c0-0.01,0.01-0.01,0.01-0.02h0.01
				c0,0,0.01,0,0.01-0.01c0,0,0,0,0.01,0c0.01,0,0.01,0,0.01,0C13.94,0,13.95,0,13.95,0c0.08,0,0.17,0,0.25,0c0.02,0,0.03,0,0.05,0
				c0.02,0,0.04,0,0.06,0c0.04,0,0.08,0,0.11,0c0.04,0,0.08,0,0.12,0s0.08,0,0.11,0c0.08,0,0.16,0,0.23,0c0.08,0,0.15,0,0.23,0
				c0.07,0,0.15,0,0.23,0c0.07,0,0.15,0,0.22,0c0.08,0,0.15,0,0.23,0c0.15,0,0.3,0,0.45,0s0.3,0,0.45,0c0.15,0,0.29,0,0.44,0
				c0.15,0,0.3,0,0.45,0c0.29,0,0.59,0,0.88,0c0.29,0,0.58,0,0.87,0s0.58,0,0.87,0c0.28,0,0.57,0,0.85,0c0.28,0,0.56,0,0.84,0
				c0.28,0,0.56,0,0.84,0c0.55,0,1.1,0,1.64,0c0.54,0,1.07,0,1.6,0c0.53,0,1.05,0,1.57,0c0.51,0,1.02,0,1.53,0c0.25,0,0.5,0,0.74,0
				c0.11,0,0.22,0,0.33,0c0.1,0,0.2,0,0.29,0c0.18,0,0.33,0,0.45,0c0.11,0,0.21,0,0.29,0c0.07,0,0.13,0,0.19,0c0.05,0,0.09,0,0.14,0
				c0.27,0,0.56,0,0.83,0c0.07,0,0.14,0,0.21,0h13.74c0.16,0,0.31,0,0.47,0c0.04,0,0.08,0,0.14,0c0.05,0,0.11,0,0.19,0
				c0.07,0,0.17,0,0.29,0c0.12,0,0.26,0,0.44,0C47.9,0,48,0,48.1,0c0.11,0,0.22,0,0.34,0c0.23,0,0.48,0,0.73,0c0.51,0,1.02,0,1.53,0
				c0.52,0,1.04,0,1.57,0c0.53,0,1.06,0,1.6,0s1.09,0,1.64,0c0.28,0,0.56,0,0.84,0s0.56,0,0.84,0c0.29,0,0.57,0,0.86,0
				c0.28,0,0.57,0,0.86,0c0.29,0,0.58,0,0.87,0s0.59,0,0.88,0c0.15,0,0.3,0,0.45,0c0.15,0,0.3,0,0.44,0c0.15,0,0.3,0,0.45,0
				c0.15,0,0.3,0,0.45,0c0.08,0,0.15,0,0.23,0c0.07,0,0.15,0,0.23,0c0.07,0,0.15,0,0.22,0c0.08,0,0.15,0,0.23,0
				c0.08,0,0.15,0,0.23,0c0.04,0,0.07,0,0.11,0c0.04,0,0.08,0,0.12,0c0.03,0,0.07,0,0.11,0c0.02,0,0.04,0,0.06,0
				c0.02,0,0.04,0,0.06,0c0.01,0,0.03,0,0.05,0c0.02,0,0.04,0,0.06,0c0.01,0,0.02,0,0.03,0c0.01,0,0.02,0,0.03,0
				c0.01,0,0.02,0,0.03,0c0.01,0,0.02,0,0.02,0h0.01c0.01,0,0.01,0,0.01,0c0.01,0,0.01,0,0.01,0.01h0.01c0,0,0,0,0.01,0
				c0.01,0.01,0.01,0.01,0.01,0.01h0.01c0.01,0.01,0.01,0.01,0.02,0.02c0,0,0.01,0,0.01,0.01c0.01,0.01,0.01,0.01,0.02,0.02
				s0.01,0.01,0.02,0.02c0,0.01,0.01,0.02,0.01,0.02c0.01,0.01,0.01,0.02,0.02,0.03c0.01,0.02,0.02,0.04,0.03,0.07
				c0.01,0.02,0.02,0.04,0.03,0.07c0.01,0.03,0.02,0.06,0.03,0.09s0.01,0.06,0.02,0.09c0.01,0.04,0.02,0.07,0.02,0.11
				c0.02,0.07,0.03,0.14,0.04,0.22c0,0.04,0.01,0.07,0.01,0.11c0,0.04,0,0.08,0.01,0.12c0,0.04,0,0.08,0,0.11c0,0.02,0,0.04,0,0.06
				c0,0.01,0,0.02,0,0.03v0.01v0.01c0,0,0,0,0,0.01s0,0.02,0,0.04c0,0.01,0,0.03,0,0.04c0,0.03,0,0.06,0,0.09c0,0.03,0,0.06,0,0.09
				s0,0.06,0,0.09c0,0.06,0,0.12,0,0.18c0,0.06,0,0.12,0,0.18c0,0.12,0,0.24,0,0.36c0,0.12,0,0.24,0,0.36c0,0.24,0,0.48,0,0.72
				s0,0.48,0,0.72s0,0.48,0,0.72c0,0.23,0,0.47,0,0.71c0,0.48,0,0.96,0,1.43c0,0.25,0,0.49,0,0.73c0,0.25,0,0.49,0,0.73
				s0,0.49,0,0.73c0,0.24,0,0.48,0,0.73c0,0.01,0,0.02,0,0.03s0,0.02,0,0.03c0,0.02,0,0.04,0,0.06c0,0.04,0,0.08,0,0.12
				c0,0.21,0,0.41,0,0.62c0,0.2,0,0.41,0,0.62c0,0.2,0,0.41,0,0.61C64.63,12.06,64.63,12.12,64.63,12.19z"/>
			<path class="st0" d="M64.59,92.27c0,0.01,0,0.01,0,0.02c-0.01,0.02-0.01,0.04-0.03,0.05C64.58,92.31,64.58,92.29,64.59,92.27z"/>
			<path class="st0" d="M64.4,92.58c0.03-0.03,0.05-0.06,0.07-0.09C64.45,92.52,64.43,92.55,64.4,92.58z"/>
			<path class="st0" d="M64.29,92.67c0.04-0.03,0.08-0.06,0.11-0.09C64.36,92.62,64.33,92.65,64.29,92.67z"/>
			<path class="st0" d="M64.14,92.77c0.05-0.03,0.1-0.06,0.15-0.1C64.24,92.71,64.19,92.74,64.14,92.77z"/>
			<path class="st0" d="M64.01,92.82c-0.02,0.02-0.05,0.02-0.07,0.03c-0.06,0.02-0.12,0.03-0.18,0.04
				C63.85,92.88,63.93,92.86,64.01,92.82z"/>
			<path class="st0" d="M60.38,10.62c0,1.45,0,2.89,0,4.34c0,0.31,0,0.62-0.02,0.92c0,0.51-0.03,1.02-0.12,1.52
				c-0.14,0.78-0.41,1.61-0.73,2.32c-0.16,0.37-0.34,0.72-0.55,1.07c-0.1,0.17-0.2,0.33-0.31,0.49c-0.08,0.12-0.16,0.22-0.24,0.32
				v0.01c-0.08,0.1-0.17,0.19-0.27,0.27c-0.09,0.08-0.19,0.16-0.29,0.22c-0.05,0.03-0.1,0.06-0.15,0.08
				c-0.16,0.1-0.33,0.17-0.52,0.24c-0.13,0.04-0.27,0.08-0.4,0.12c-0.13,0.04-0.26,0.07-0.39,0.11c-0.02,0-0.04,0-0.06,0.01
				c-0.03,0.01-0.07,0.02-0.1,0.02c-0.07,0.02-0.15,0.04-0.22,0.06c-0.37,0.09-0.75,0.16-1.14,0.23c-0.78,0.13-1.61,0.24-2.45,0.32
				c-0.42,0.04-0.84,0.07-1.26,0.1c-0.85,0.05-1.7,0.09-2.52,0.11s-1.62,0.03-2.36,0.03H32.54c-3.08,0.01-6.97-0.08-10.03-0.73
				c-0.16-0.04-0.32-0.07-0.48-0.11c-0.04-0.01-0.08-0.02-0.12-0.03c-0.02-0.01-0.04-0.01-0.06-0.02c-0.19-0.05-0.38-0.1-0.58-0.16
				c-0.02-0.01-0.05-0.01-0.08-0.02c-0.11-0.03-0.21-0.07-0.31-0.11c0-0.01-0.01-0.01-0.01-0.01c-0.1-0.03-0.2-0.08-0.3-0.13
				c0-0.01-0.01-0.01-0.01-0.01c-0.1-0.05-0.2-0.11-0.28-0.17l-0.01-0.01c-0.09-0.06-0.17-0.13-0.24-0.2c0,0,0,0-0.01-0.01
				c-0.08-0.07-0.15-0.15-0.21-0.23c-0.07-0.09-0.13-0.17-0.2-0.27c-0.01-0.02-0.02-0.03-0.02-0.04c-0.06-0.09-0.12-0.17-0.18-0.27
				c-0.23-0.37-0.44-0.75-0.62-1.15c-0.34-0.74-0.63-1.59-0.78-2.4c-0.09-0.52-0.13-1.05-0.14-1.57c-0.01-0.31-0.01-0.61-0.01-0.92
				c0-1.46,0-2.92,0-4.38c0-0.07,0-0.15,0-0.23c0.01-0.14,0.02-0.28,0.05-0.43c0.05-0.26,0.16-0.46,0.38-0.63
				c0.18-0.14,0.4-0.24,0.62-0.31c0.1-0.03,0.21-0.06,0.31-0.08c0.05-0.01,0.09-0.02,0.13-0.03c0.64-0.13,1.33-0.16,1.99-0.16
				c0.37-0.01,0.75-0.01,1.13-0.01c3.36,0,6.71,0,10.07,0h13.74c3.26,0,6.52,0,9.78,0c0.49,0,0.98,0,1.47,0.02
				c0.48,0.03,1,0.06,1.49,0.18c0.02,0,0.04,0.01,0.06,0.02c0.05,0,0.09,0.02,0.14,0.03c0.04,0.01,0.07,0.02,0.11,0.03
				c0.12,0.04,0.24,0.08,0.35,0.14c0.07,0.03,0.14,0.07,0.21,0.12c0.07,0.05,0.13,0.11,0.19,0.17c0.04,0.05,0.08,0.1,0.12,0.15
				c0.09,0.15,0.14,0.31,0.16,0.51c0.01,0.12,0.02,0.24,0.02,0.36C60.38,10.5,60.38,10.56,60.38,10.62z"/>
			<path class="st0" d="M59.33,6.95c0,0.68,0,1.35,0,2.03c-0.04-0.01-0.07-0.02-0.11-0.03c-0.05-0.01-0.09-0.03-0.14-0.03
				c-0.02-0.01-0.04-0.02-0.06-0.02V6.16C59.22,6.37,59.33,6.65,59.33,6.95z"/>
			<path class="st0" d="M59.02,6.16V8.9c-0.49-0.12-1.01-0.15-1.49-0.18C57.04,8.7,56.55,8.7,56.06,8.7c-3.26,0-6.52,0-9.78,0H32.54
				c-3.36,0-6.71,0-10.07,0c-0.38,0-0.76,0-1.13,0.01c-0.66,0-1.35,0.03-1.99,0.16c-0.04,0.01-0.08,0.02-0.13,0.03V6.16
				c0.2-0.21,0.47-0.34,0.78-0.34c4.18,0,8.36,0,12.54,0h13.74c3.99,0,7.98,0,11.96,0C58.56,5.82,58.83,5.95,59.02,6.16z"/>
			<path class="st0" d="M57.85,22.1c0.1-0.06,0.2-0.14,0.29-0.22C58.05,21.96,57.96,22.04,57.85,22.1z"/>
			<path class="st0" d="M54.87,22.97c0.39-0.07,0.77-0.14,1.14-0.23C55.64,22.83,55.26,22.9,54.87,22.97z"/>
			<path class="st0" d="M48.64,23.5c0.82-0.02,1.67-0.06,2.52-0.11C50.32,23.45,49.47,23.48,48.64,23.5z"/>
			<path class="st0" d="M27.9,93.48c-0.7-0.02-1.4-0.04-2.1-0.06c-0.05,0-0.1,0-0.15-0.01C26.4,93.44,27.14,93.46,27.9,93.48z"/>
			<path class="st0" d="M21.27,22.48c0.2,0.06,0.39,0.11,0.58,0.16C21.66,22.59,21.46,22.54,21.27,22.48z"/>
			<path class="st0" d="M19.22,6.16V8.9c-0.1,0.02-0.21,0.05-0.31,0.08c0-0.68,0-1.35,0-2.03C18.91,6.65,19.03,6.37,19.22,6.16z"/>
			<path class="st0" d="M14.74,92.92c-0.11-0.01-0.21-0.01-0.32-0.04C14.53,92.9,14.64,92.91,14.74,92.92z"/>
			<path class="st0" d="M13.95,0c0,0-0.01,0-0.01,0.01c0,0,0,0-0.01,0c-0.01,0-0.01,0-0.01,0c0,0.01-0.01,0.01-0.01,0.01H13.9
				c0,0.01-0.01,0.01-0.01,0.02c-0.01,0-0.02,0-0.02,0.01c-0.01,0.01-0.01,0.01-0.02,0.02c0,0.01-0.01,0.01-0.01,0.02
				c-0.01,0.01-0.02,0.02-0.02,0.02c-0.01,0.01-0.01,0.02-0.02,0.03c-0.01,0.02-0.02,0.04-0.03,0.07c-0.01,0.02-0.02,0.04-0.03,0.07
				s-0.02,0.06-0.03,0.09c0,0.03-0.01,0.06-0.02,0.09c-0.01,0.04-0.02,0.07-0.02,0.11c-0.02,0.07-0.03,0.14-0.04,0.22
				c0,0.04,0,0.07-0.01,0.11c0,0.04,0,0.08,0,0.12c-0.01,0.04-0.01,0.08-0.01,0.11c0,0.02,0,0.04,0,0.06c0,0.01,0,0.02,0,0.03v0.01
				v0.01c0,0,0,0,0,0.01s0,0.02,0,0.04c0,0.01,0,0.03,0,0.04c0,0.03,0,0.06,0,0.09c0,0.03,0,0.06,0,0.09s0,0.06,0,0.09
				c0,0.06,0,0.12,0,0.18c0,0.06,0,0.12,0,0.18c0,0.12,0,0.24,0,0.36c0,0.12,0,0.24,0,0.36c0,0.24,0,0.48,0,0.72s0,0.48,0,0.72
				s0,0.48,0,0.72c0,0.23,0,0.47,0,0.71c0,0.48,0,0.96,0,1.43c0,0.25,0,0.49,0,0.73c0,0.25,0,0.49,0,0.73s0,0.49,0,0.73
				c0,0.24,0,0.48,0,0.73c0,0.01,0,0.02,0,0.03s0,0.02,0,0.03c0,0.02,0,0.04,0,0.06c0,2.97,0,5.93,0,8.9c0,13.13,0,26.25,0,39.38
				c0,0.79-0.63,1.42-1.42,1.42c-1.7,0-3.4,0-5.1,0c-1.95,0-3.73-0.79-5.01-2.07C0.8,56.36,0,54.59,0,52.63C0,37.45,0,22.27,0,7.09
				C0,3.18,3.18,0,7.09,0C9.38,0,11.66,0,13.95,0z"/>
			<path class="st0" d="M13.61,58.3c0,0.47,0,0.95,0,1.42h-1.42C12.98,59.72,13.61,59.09,13.61,58.3z"/>
		</g>
		<g>
			<line class="st1" x1="32.54" y1="23.53" x2="46.28" y2="23.53"/>
			<line class="st1" x1="32.54" y1="8.7" x2="46.28" y2="8.7"/>
			<line class="st1" x1="32.54" y1="5.82" x2="46.28" y2="5.82"/>
			<line class="st1" x1="32.54" y1="0" x2="46.28" y2="0"/>
			<line class="st1" x1="13.61" y1="59.72" x2="12.19" y2="59.72"/>
			<path class="st1" d="M19.29,9.47c-0.01,0-0.01,0.01-0.02,0.01c-0.02,0.02-0.05,0.04-0.07,0.07c-0.03,0.02-0.05,0.04-0.07,0.07
				c-0.03,0.03-0.05,0.05-0.07,0.08C19.04,9.73,19.02,9.76,19,9.8c-0.03,0.03-0.05,0.07-0.07,0.11s-0.05,0.09-0.07,0.13
				c-0.02,0.05-0.04,0.1-0.06,0.15c-0.01,0.03-0.02,0.06-0.03,0.08c-0.02,0.06-0.03,0.11-0.05,0.17c-0.02,0.06-0.03,0.12-0.05,0.19
				c-0.01,0.06-0.03,0.13-0.04,0.19c-0.02,0.1-0.03,0.2-0.04,0.29c-0.01,0.1-0.02,0.19-0.03,0.29c-0.01,0.1-0.02,0.19-0.02,0.29
				c-0.01,0.05-0.01,0.09-0.01,0.14c-0.01,0.05-0.01,0.1-0.01,0.14c0,0.07-0.01,0.14-0.01,0.21s-0.01,0.14-0.01,0.21
				c-0.01,0.09-0.01,0.18-0.02,0.27c0,0.09-0.01,0.18-0.01,0.26c-0.01,0.11-0.02,0.22-0.02,0.33c-0.02,0.27-0.04,0.52-0.05,0.77
				c-0.01,0.17-0.02,0.34-0.02,0.51"/>
			<line class="st1" x1="19.22" y1="8.9" x2="19.22" y2="6.16"/>
			<path class="st1" d="M13.61,18.92c0-0.74,0.25-1.48,0.74-2.05c0.49-0.57,1.17-0.94,1.93-0.99h1.59"/>
			<path class="st1" d="M32.54,23.53c-3.08,0.01-6.97-0.08-10.03-0.73c-0.16-0.04-0.32-0.07-0.48-0.11
				c-0.04-0.01-0.08-0.02-0.12-0.03c-0.02-0.01-0.04-0.01-0.06-0.02c-0.19-0.05-0.39-0.1-0.58-0.16"/>
			<path class="st1" d="M21.27,22.48c0.2,0.06,0.39,0.11,0.58,0.16"/>
			<path class="st1" d="M21.27,22.48c-0.02-0.01-0.05-0.01-0.08-0.02c-0.11-0.03-0.21-0.07-0.31-0.11c0-0.01-0.01-0.01-0.01-0.01
				c-0.1-0.03-0.2-0.08-0.3-0.13c0-0.01-0.01-0.01-0.01-0.01c-0.1-0.05-0.2-0.11-0.28-0.17l-0.01-0.01
				c-0.09-0.06-0.17-0.13-0.24-0.2c0,0,0,0-0.01-0.01c-0.08-0.07-0.15-0.15-0.21-0.23c-0.07-0.09-0.13-0.17-0.2-0.27
				c-0.01-0.02-0.02-0.03-0.02-0.04c-0.06-0.09-0.12-0.17-0.18-0.27c-0.23-0.37-0.44-0.75-0.62-1.15c-0.34-0.74-0.63-1.59-0.78-2.4
				c-0.09-0.52-0.13-1.05-0.14-1.57"/>
			<path class="st1" d="M17.87,15.88c-0.01-0.31-0.01-0.61-0.01-0.92c0-1.46,0-2.92,0-4.38c0-0.07,0-0.15,0-0.23
				c0.01-0.14,0.02-0.28,0.05-0.43c0.05-0.26,0.16-0.46,0.38-0.63c0.18-0.14,0.4-0.24,0.62-0.31"/>
			<path class="st1" d="M18.91,8.98c0.1-0.03,0.21-0.06,0.31-0.08"/>
			<path class="st1" d="M19.22,8.9c0.05-0.01,0.09-0.02,0.13-0.03c0.64-0.13,1.33-0.16,1.99-0.16c0.37-0.01,0.75-0.01,1.13-0.01
				c3.36,0,6.71,0,10.07,0"/>
			<path class="st1" d="M32.54,5.82c-4.18,0-8.36,0-12.54,0c-0.31,0-0.58,0.13-0.78,0.34"/>
			<path class="st1" d="M18.91,8.98c0-0.68,0-1.35,0-2.03c0-0.3,0.12-0.58,0.31-0.79"/>
			<path class="st1" d="M59.86,14.53c0-0.17-0.01-0.34-0.02-0.51c-0.01-0.25-0.03-0.5-0.05-0.77c0-0.11-0.01-0.22-0.02-0.33
				c0-0.08-0.01-0.17-0.01-0.26c-0.01-0.09-0.01-0.18-0.02-0.27c0-0.07,0-0.14-0.01-0.21c0-0.07,0-0.14-0.01-0.21
				c0-0.04,0-0.09-0.01-0.14c0-0.05,0-0.09,0-0.14c-0.01-0.1-0.02-0.19-0.03-0.29c0-0.1-0.01-0.19-0.03-0.29
				c-0.01-0.09-0.02-0.19-0.04-0.29c-0.01-0.06-0.02-0.13-0.04-0.19c-0.01-0.07-0.03-0.13-0.05-0.19c-0.01-0.06-0.03-0.11-0.05-0.17
				c-0.01-0.02-0.02-0.05-0.03-0.08c-0.02-0.05-0.04-0.1-0.06-0.15c-0.02-0.04-0.04-0.09-0.07-0.13c-0.02-0.04-0.04-0.08-0.06-0.11
				c-0.02-0.04-0.05-0.07-0.07-0.1c-0.02-0.03-0.04-0.05-0.07-0.08c-0.02-0.03-0.04-0.05-0.07-0.07C59.02,9.52,59,9.5,58.97,9.48
				c-0.01,0-0.01-0.01-0.02-0.01"/>
			<line class="st1" x1="59.02" y1="8.9" x2="59.02" y2="6.16"/>
			<path class="st1" d="M60.38,15.88c1.16,0,1.25,0,1.34,0c0.08,0,0.16,0,0.25,0c0.08,0,0.16,0,0.25,0c0.08,0,0.17,0,0.25,0
				c0.04,0,0.08,0,0.13,0c0.04,0,0.08,0,0.12,0c0.05,0,0.09,0,0.13,0s0.09,0,0.13,0c0.02,0,0.04,0,0.06,0c0.03,0,0.05,0,0.07,0
				c0.01,0,0.02,0,0.03,0c0.01,0,0.02,0,0.03,0s0.02,0,0.03,0c0.01,0,0.02,0,0.02,0h0.01h0.01c0.01,0,0.01,0,0.01,0
				c0.01,0,0.01,0,0.02,0c0.01,0,0.02,0,0.03-0.01c0.02,0,0.04,0,0.06,0s0.04,0,0.06-0.01c0.03,0,0.05,0,0.07-0.01
				c0.04-0.01,0.08-0.02,0.13-0.03c0.04-0.01,0.08-0.03,0.13-0.04c0.04-0.02,0.08-0.04,0.12-0.06c0.04-0.02,0.09-0.05,0.13-0.07
				c0.08-0.06,0.15-0.12,0.22-0.19c0.07-0.07,0.13-0.14,0.18-0.23c0.03-0.04,0.05-0.08,0.07-0.12c0.03-0.04,0.05-0.09,0.06-0.13
				c0.02-0.04,0.04-0.09,0.05-0.13c0-0.02,0.01-0.05,0.02-0.07c0-0.02,0-0.04,0.01-0.06c0-0.02,0.01-0.05,0.01-0.07
				c0-0.02,0-0.04,0.01-0.06"/>
			<path class="st1" d="M57.85,22.1c0.1-0.06,0.2-0.14,0.29-0.22"/>
			<path class="st1" d="M54.87,22.97c0.39-0.07,0.77-0.14,1.14-0.23"/>
			<path class="st1" d="M46.28,23.53c0.74,0,1.54-0.01,2.36-0.03c0.83-0.02,1.68-0.05,2.52-0.11"/>
			<path class="st1" d="M51.16,23.39c-0.85,0.05-1.7,0.09-2.52,0.11"/>
			<path class="st1" d="M51.16,23.39c0.42-0.03,0.84-0.06,1.26-0.1c0.84-0.08,1.67-0.19,2.45-0.32"/>
			<path class="st1" d="M56.01,22.74c-0.37,0.09-0.75,0.16-1.14,0.23"/>
			<path class="st1" d="M56.01,22.74c0.07-0.02,0.15-0.04,0.22-0.06c0.03,0,0.07-0.01,0.1-0.02c0.02-0.01,0.04-0.01,0.06-0.01
				c0.13-0.04,0.26-0.07,0.39-0.11c0.13-0.04,0.27-0.08,0.4-0.12c0.19-0.07,0.36-0.14,0.52-0.24c0.05-0.02,0.1-0.05,0.15-0.08"/>
			<path class="st1" d="M58.14,21.88c-0.09,0.08-0.18,0.16-0.29,0.22"/>
			<path class="st1" d="M58.14,21.88c0.1-0.08,0.19-0.17,0.27-0.27V21.6c0.08-0.1,0.16-0.2,0.24-0.32c0.11-0.16,0.21-0.32,0.31-0.49
				c0.21-0.35,0.39-0.7,0.55-1.07c0.32-0.71,0.59-1.54,0.73-2.32c0.09-0.5,0.12-1.01,0.12-1.52"/>
			<path class="st1" d="M60.36,15.88c0.02-0.3,0.02-0.61,0.02-0.92c0-1.45,0-2.89,0-4.34c0-0.06,0-0.12,0-0.19
				c0-0.12-0.01-0.24-0.02-0.36c-0.02-0.2-0.07-0.36-0.16-0.51c-0.04-0.05-0.08-0.1-0.12-0.15c-0.06-0.06-0.12-0.12-0.19-0.17
				c-0.07-0.05-0.14-0.09-0.21-0.12c-0.11-0.06-0.23-0.1-0.35-0.14"/>
			<path class="st1" d="M59.33,8.98c-0.04-0.01-0.07-0.02-0.11-0.03c-0.05-0.01-0.09-0.03-0.14-0.03c-0.02-0.01-0.04-0.02-0.06-0.02
				"/>
			<path class="st1" d="M59.02,8.9c-0.49-0.12-1.01-0.15-1.49-0.18C57.04,8.7,56.55,8.7,56.06,8.7c-3.26,0-6.52,0-9.78,0"/>
			<path class="st1" d="M46.28,5.82c3.99,0,7.98,0,11.96,0c0.32,0,0.59,0.13,0.78,0.34c0.2,0.21,0.31,0.49,0.31,0.79
				c0,0.68,0,1.35,0,2.03"/>
			<path class="st1" d="M13.61,58.3c0,0.79-0.63,1.42-1.42,1.42"/>
			<path class="st1" d="M32.54,0c-0.07,0-0.14,0-0.21,0c-0.27,0-0.56,0-0.83,0c-0.05,0-0.09,0-0.14,0c-0.06,0-0.12,0-0.19,0
				c-0.08,0-0.18,0-0.29,0c-0.12,0-0.27,0-0.45,0c-0.09,0-0.19,0-0.29,0c-0.11,0-0.22,0-0.33,0c-0.24,0-0.49,0-0.74,0
				c-0.51,0-1.02,0-1.53,0c-0.52,0-1.04,0-1.57,0c-0.53,0-1.06,0-1.6,0c-0.54,0-1.09,0-1.64,0c-0.28,0-0.56,0-0.84,0
				c-0.28,0-0.56,0-0.84,0c-0.28,0-0.57,0-0.85,0c-0.29,0-0.58,0-0.87,0s-0.58,0-0.87,0c-0.29,0-0.59,0-0.88,0c-0.15,0-0.3,0-0.45,0
				c-0.15,0-0.29,0-0.44,0c-0.15,0-0.3,0-0.45,0s-0.3,0-0.45,0c-0.08,0-0.15,0-0.23,0c-0.07,0-0.15,0-0.22,0c-0.08,0-0.16,0-0.23,0
				c-0.08,0-0.15,0-0.23,0c-0.07,0-0.15,0-0.23,0c-0.03,0-0.07,0-0.11,0s-0.08,0-0.12,0c-0.03,0-0.07,0-0.11,0
				c-0.02,0-0.04,0-0.06,0c-0.02,0-0.03,0-0.05,0c-0.08,0-0.17,0-0.25,0c-2.29,0-4.57,0-6.86,0C3.18,0,0,3.18,0,7.09
				c0,15.18,0,30.36,0,45.54c0,1.96,0.8,3.73,2.08,5.02c1.28,1.28,3.06,2.07,5.01,2.07c1.7,0,3.4,0,5.1,0"/>
			<path class="st1" d="M25.65,93.41c0.05,0.01,0.1,0.01,0.15,0.01c0.7,0.02,1.4,0.04,2.1,0.06c0.03,0,0.07,0,0.1,0
				c0.06,0,0.13,0,0.2,0c0.08,0,0.16,0.01,0.23,0.01c0.16,0,0.32,0,0.47,0.01c1.22,0.02,2.43,0.04,3.64,0.05"/>
			<path class="st1" d="M14.42,92.88c0.11,0.03,0.21,0.03,0.32,0.04"/>
			<path class="st1" d="M13.95,0c0,0-0.01,0-0.01,0.01c0,0,0,0-0.01,0c-0.01,0-0.01,0-0.01,0c0,0.01-0.01,0.01-0.01,0.01H13.9
				c0,0.01-0.01,0.01-0.01,0.02c-0.01,0-0.02,0-0.02,0.01c-0.01,0.01-0.01,0.01-0.02,0.02c0,0.01-0.01,0.01-0.01,0.02
				c-0.01,0.01-0.02,0.02-0.02,0.02c-0.01,0.01-0.01,0.02-0.02,0.03c-0.01,0.02-0.02,0.04-0.03,0.07c-0.01,0.02-0.02,0.04-0.03,0.07
				s-0.02,0.06-0.03,0.09c0,0.03-0.01,0.06-0.02,0.09c-0.01,0.04-0.02,0.07-0.02,0.11c-0.02,0.07-0.03,0.14-0.04,0.22
				c0,0.04,0,0.07-0.01,0.11c0,0.04,0,0.08,0,0.12c-0.01,0.04-0.01,0.08-0.01,0.11c0,0.02,0,0.04,0,0.06c0,0.01,0,0.02,0,0.03v0.01
				v0.01c0,0,0,0,0,0.01s0,0.02,0,0.04c0,0.01,0,0.03,0,0.04c0,0.03,0,0.06,0,0.09c0,0.03,0,0.06,0,0.09s0,0.06,0,0.09
				c0,0.06,0,0.12,0,0.18c0,0.06,0,0.12,0,0.18c0,0.12,0,0.24,0,0.36c0,0.12,0,0.24,0,0.36c0,0.24,0,0.48,0,0.72s0,0.48,0,0.72
				s0,0.48,0,0.72c0,0.23,0,0.47,0,0.71c0,0.48,0,0.96,0,1.43c0,0.25,0,0.49,0,0.73c0,0.25,0,0.49,0,0.73s0,0.49,0,0.73
				c0,0.24,0,0.48,0,0.73c0,0.01,0,0.02,0,0.03s0,0.02,0,0.03c0,0.02,0,0.04,0,0.06c0,2.97,0,5.93,0,8.9"/>
			<path class="st1" d="M13.61,18.92c0,13.13,0,26.25,0,39.38"/>
			<path class="st1" d="M13.61,58.3c0,0.47,0,0.95,0,1.42"/>
			<path class="st1" d="M13.61,59.72c0,0.33,0,0.67,0,1v0.01c0,8.45,0,16.9,0,25.36c0,1.68,0,3.36,0,5.04c0,0.18,0,0.36,0,0.54v0.01
				c0,0.07,0,0.14,0,0.22c0,0.04,0,0.08,0,0.12c0,0.09,0.01,0.18,0.05,0.27c0.01,0.04,0.03,0.07,0.05,0.11
				c0.03,0.06,0.07,0.11,0.11,0.16c0,0,0.01,0,0.01,0.01c0.05,0.04,0.1,0.09,0.15,0.12c0,0.01,0,0.01,0.01,0.01
				c0.04,0.03,0.08,0.05,0.12,0.07c0.02,0.01,0.04,0.02,0.06,0.03c0,0,0,0,0.01,0.01c0.01,0.01,0.03,0.01,0.05,0.02
				c0.04,0.01,0.08,0.02,0.12,0.04c0.02,0.01,0.05,0.01,0.07,0.01"/>
			<path class="st1" d="M14.74,92.92c-0.1-0.01-0.21-0.02-0.32-0.04"/>
			<path class="st1" d="M14.74,92.92h0.01c0.59,0.03,1.17,0.06,1.76,0.1c1.12,0.06,2.24,0.12,3.36,0.17
				c1.04,0.05,2.08,0.1,3.12,0.14c0.34,0.01,0.67,0.02,1.01,0.03c0.03,0,0.07,0,0.1,0c0.52,0.03,1.03,0.04,1.55,0.05"/>
			<path class="st1" d="M27.9,93.48c-0.76-0.02-1.5-0.04-2.25-0.07"/>
			<line class="st1" x1="32.54" y1="93.55" x2="46.28" y2="93.54"/>
			<path class="st1" d="M64.01,92.82c-0.08,0.04-0.16,0.06-0.25,0.07c-0.08,0.02-0.15,0.02-0.23,0.03c-0.01,0-0.02,0-0.03,0
				c-0.04,0-0.08,0-0.12,0.01c-0.03,0-0.06,0-0.1,0c-0.07,0-0.13,0.01-0.2,0.01c-0.14,0.01-0.28,0.02-0.42,0.02
				c-0.27,0.02-0.53,0.03-0.8,0.05c-1.08,0.06-2.16,0.12-3.25,0.17c-1,0.05-2.01,0.09-3.02,0.13c-0.32,0.02-0.64,0.03-0.96,0.04
				c-1.2,0.04-2.4,0.07-3.6,0.11h-0.01c-0.11,0-0.21,0.01-0.32,0.01c-0.32,0.01-0.63,0.01-0.95,0.02c-1.16,0.02-2.31,0.04-3.47,0.05
				"/>
			<path class="st1" d="M64.47,92.49c-0.02,0.03-0.04,0.06-0.07,0.09c-0.04,0.04-0.07,0.07-0.11,0.09c-0.05,0.04-0.1,0.07-0.15,0.1"
				/>
			<path class="st1" d="M64.59,92.27c0,0.01,0,0.01,0,0.02c-0.01,0.02-0.01,0.04-0.03,0.05"/>
			<path class="st1" d="M64.63,14.59c0-0.8,0-1.6,0-2.4c0-0.07,0-0.13,0-0.2c0-0.2,0-0.41,0-0.61c0-0.21,0-0.42,0-0.62
				c0-0.21,0-0.41,0-0.62c0-0.04,0-0.08,0-0.12c0-0.02,0-0.04,0-0.06c0-0.01,0-0.02,0-0.03s0-0.02,0-0.03c0-0.25,0-0.49,0-0.73
				c0-0.24,0-0.49,0-0.73s0-0.48,0-0.73c0-0.24,0-0.48,0-0.73c0-0.47,0-0.95,0-1.43c0-0.24,0-0.48,0-0.71c0-0.24,0-0.48,0-0.72
				s0-0.48,0-0.72s0-0.48,0-0.72c0-0.12,0-0.24,0-0.36c0-0.12,0-0.24,0-0.36c0-0.06,0-0.12,0-0.18c0-0.06,0-0.12,0-0.18
				c0-0.03,0-0.06,0-0.09s0-0.06,0-0.09c0-0.03,0-0.06,0-0.09c0-0.01,0-0.03,0-0.04c0-0.02,0-0.03,0-0.04s0-0.01,0-0.01V1.23V1.22
				c0-0.01,0-0.02,0-0.03c0-0.02,0-0.04,0-0.06c0-0.03,0-0.07,0-0.11c-0.01-0.04-0.01-0.08-0.01-0.12c0-0.04-0.01-0.07-0.01-0.11
				c-0.01-0.08-0.02-0.15-0.04-0.22c0-0.04-0.01-0.07-0.02-0.11c-0.01-0.03-0.01-0.06-0.02-0.09s-0.02-0.06-0.03-0.09
				c-0.01-0.03-0.02-0.05-0.03-0.07c-0.01-0.03-0.02-0.05-0.03-0.07c-0.01-0.01-0.01-0.02-0.02-0.03c0,0-0.01-0.01-0.01-0.02
				c-0.01-0.01-0.01-0.01-0.02-0.02s-0.01-0.01-0.02-0.02c0-0.01-0.01-0.01-0.01-0.01c-0.01-0.01-0.01-0.01-0.02-0.02h-0.01
				c0,0,0,0-0.01-0.01c-0.01,0-0.01,0-0.01,0H64.3C64.3,0,64.3,0,64.29,0c0,0,0,0-0.01,0h-0.01c0,0-0.01,0-0.02,0
				c-0.01,0-0.02,0-0.03,0c-0.01,0-0.02,0-0.03,0c-0.01,0-0.02,0-0.03,0c-0.02,0-0.04,0-0.06,0c-0.02,0-0.04,0-0.05,0
				c-0.02,0-0.04,0-0.06,0c-0.02,0-0.04,0-0.06,0c-0.04,0-0.08,0-0.11,0c-0.04,0-0.08,0-0.12,0c-0.04,0-0.07,0-0.11,0
				c-0.08,0-0.15,0-0.23,0c-0.08,0-0.15,0-0.23,0c-0.07,0-0.15,0-0.22,0c-0.08,0-0.16,0-0.23,0c-0.08,0-0.15,0-0.23,0
				C62.3,0,62.15,0,62,0c-0.15,0-0.3,0-0.45,0c-0.14,0-0.29,0-0.44,0c-0.15,0-0.3,0-0.45,0c-0.29,0-0.59,0-0.88,0s-0.58,0-0.87,0
				c-0.29,0-0.58,0-0.86,0c-0.29,0-0.57,0-0.86,0c-0.28,0-0.56,0-0.84,0s-0.56,0-0.84,0c-0.55,0-1.1,0-1.64,0s-1.07,0-1.6,0
				c-0.53,0-1.05,0-1.57,0c-0.51,0-1.02,0-1.53,0c-0.25,0-0.5,0-0.73,0c-0.12,0-0.23,0-0.34,0c-0.1,0-0.2,0-0.29,0
				c-0.18,0-0.32,0-0.44,0c-0.12,0-0.22,0-0.29,0C47,0,46.94,0,46.89,0c-0.06,0-0.1,0-0.14,0c-0.16,0-0.31,0-0.47,0"/>
			<path class="st1" d="M64.63,14.59c0,7.42,0,14.85,0,22.27c0,4.11,0,8.22,0,12.33c0,4.12,0,8.23,0,12.34c0,8.22,0,16.45,0,24.67
				c0,1.63,0,3.25,0,4.88v0.01c0,0.18,0,0.36,0,0.54c0,0.07,0,0.13,0,0.21v0.01c0,0.06,0,0.12,0,0.18c0,0.05,0,0.09-0.01,0.13
				c-0.01,0.02-0.01,0.04-0.02,0.07c0.01,0.01,0,0.03-0.01,0.04"/>
			<path class="st1" d="M64.56,92.34c0.02-0.03,0.02-0.05,0.03-0.07"/>
			<path class="st1" d="M64.56,92.34c0,0.01,0,0.02-0.01,0.03c-0.01,0.02-0.02,0.03-0.03,0.05c-0.01,0.03-0.03,0.05-0.05,0.07"/>
			<path class="st1" d="M64.14,92.77c0.05-0.03,0.1-0.06,0.15-0.1c0.04-0.03,0.08-0.06,0.11-0.09c0.03-0.03,0.05-0.06,0.07-0.09"/>
			<path class="st1" d="M64.14,92.77c-0.03,0.02-0.07,0.03-0.1,0.04c-0.01,0-0.01,0.01-0.02,0.01h-0.01"/>
			<path class="st1" d="M63.76,92.89c0.06-0.01,0.12-0.02,0.18-0.04c0.02-0.01,0.05-0.01,0.07-0.03"/>
		</g>
	</g>
	<text transform="matrix(1 0 0 1 33.0562 42.1147)" class="st2 st3">90</text>
</g>
</svg>
