<?xml version="1.0" encoding="utf-8"?>
<!-- Generator: Adobe Illustrator 26.5.0, SVG Export Plug-In . SVG Version: 6.00 Build 0)  -->
<svg version="1.1" xmlns="http://www.w3.org/2000/svg" xmlns:xlink="http://www.w3.org/1999/xlink" x="0px" y="0px"
	 viewBox="0 0 70.3 93.54" style="enable-background:new 0 0 70.3 93.54;" xml:space="preserve">
<style type="text/css">
	.st0{fill:#F1F1F2;}
	.st1{fill:none;stroke:#404041;stroke-width:0.35;stroke-linecap:round;stroke-linejoin:round;}
	.st2{font-family:'Inter18pt-Medium';}
	.st3{font-size:10px;}
</style>
<g id="Default">
</g>
<g id="_x30_3_x5F_LINEA_FINA">
	<g>
		<g id="XMLID_00000080168074906645647530000006312237595126161335_">
			<g>
				<path class="st0" d="M70.3,91.84c0,0.05,0,0.1,0,0.16s0,0.11-0.02,0.17c-0.08,0.37-0.44,0.6-0.77,0.68
					c-0.15,0.03-0.3,0.04-0.46,0.04c-0.18,0.01-0.37,0.02-0.56,0.03c-0.37,0.02-0.74,0.05-1.11,0.07c-0.74,0.04-1.48,0.08-2.23,0.12
					c-2.38,0.12-4.75,0.21-7.13,0.28c-1.2,0.03-2.4,0.07-3.59,0.09c-0.48,0-0.96,0.01-1.44,0.02c-0.93,0.01-1.86,0.02-2.79,0.03
					c-1.8,0.01-3.61,0.01-5.41,0.01c-1.7,0-3.39,0-5.09,0c-0.19,0-0.39,0-0.58,0c-0.19,0-0.38,0-0.57,0c-1.61,0-3.22,0-4.84-0.01
					c-0.93-0.01-1.86-0.02-2.79-0.03c-0.48-0.01-0.96-0.02-1.43-0.02c-1.29-0.03-2.57-0.06-3.86-0.1c-2.37-0.06-4.74-0.16-7.11-0.29
					c-0.78-0.04-1.57-0.08-2.35-0.12c-0.39-0.03-0.79-0.05-1.18-0.07c-0.05,0-0.11-0.01-0.16-0.01c-0.03,0-0.06,0-0.09,0
					c-0.33-0.02-0.61-0.08-0.87-0.31c-0.18-0.18-0.26-0.35-0.26-0.61c0-0.1,0-0.21,0-0.31c0-0.22,0-0.44,0-0.67c0-9,0-18,0-27
					c0-1.42,0-2.84,0-4.27c0-0.47,0-0.94,0-1.42c0-2.6,0-5.2,0-7.8c0-2.24,0-4.48,0-6.72c0-2.26,0-4.52,0-6.78
					c0-6.02,0-12.05,0-18.08c0-0.75,0.26-1.48,0.74-2.06c0.49-0.57,1.17-0.94,1.93-0.99c0.53,0,1.06,0,1.59,0
					c0,0.3,0.02,0.61,0.05,0.92c0.04,0.41,0.11,0.81,0.22,1.22c0.26,1.06,0.72,2.12,1.31,3.04c0.04,0.08,0.09,0.15,0.14,0.22
					c0.01,0.01,0.01,0.02,0.02,0.03c0.16,0.23,0.33,0.45,0.55,0.63c0.36,0.3,0.76,0.44,1.19,0.57c0.18,0.05,0.36,0.1,0.54,0.15
					c0.04,0.01,0.07,0.02,0.1,0.02c0.13,0.04,0.26,0.07,0.39,0.1c0.29,0.06,0.58,0.12,0.87,0.17c0.66,0.11,1.31,0.2,1.98,0.28
					c2.13,0.23,4.26,0.29,6.4,0.3c0.16,0,0.33,0,0.5,0c1.97,0.01,3.94,0,5.91,0c2.61,0,5.22,0,7.83,0c1.97,0,3.95,0.01,5.92,0
					c0.16,0,0.33,0,0.5,0c2.13-0.01,4.26-0.07,6.4-0.3c0.66-0.08,1.32-0.17,1.97-0.28c0.29-0.05,0.58-0.11,0.87-0.17
					c0.13-0.03,0.26-0.06,0.39-0.1c0.03,0,0.07-0.01,0.1-0.02c0.1-0.03,0.21-0.06,0.31-0.08c0.42-0.12,0.82-0.24,1.19-0.47
					c0.33-0.21,0.57-0.48,0.78-0.8c0.01-0.01,0.01-0.02,0.02-0.03c0.05-0.07,0.1-0.14,0.14-0.22c0.59-0.92,1.05-1.98,1.32-3.04
					c0.1-0.4,0.17-0.81,0.21-1.22c0.03-0.31,0.04-0.62,0.05-0.92h0.01c1.16,0,1.25,0,1.34,0c0.08,0,0.16,0,0.25,0
					c0.08,0,0.16,0,0.25,0c0.08,0,0.17,0,0.25,0c0.04,0,0.09,0,0.13,0s0.08,0,0.12,0c0.05,0,0.09,0,0.13,0c0.05,0,0.09,0,0.13,0
					c0.02,0,0.04,0,0.06,0c0.03,0,0.05,0,0.07,0c0.01,0,0.02,0,0.03,0c0.01,0,0.02,0,0.03,0c0.01,0,0.02,0,0.04,0h0.01h0.01
					c0.01,0,0.01,0,0.01,0s0,0,0.01,0c0.01,0,0.01,0,0.02,0s0.02,0,0.03,0c0.02,0,0.04,0,0.06,0c0.02-0.01,0.04-0.01,0.06-0.01
					c0.03-0.01,0.05-0.01,0.07-0.01c0.04-0.01,0.08-0.02,0.13-0.03c0.04-0.02,0.08-0.03,0.13-0.05c0.04-0.02,0.08-0.04,0.12-0.06
					c0.05-0.02,0.09-0.04,0.13-0.07c0.08-0.05,0.15-0.12,0.22-0.18c0.07-0.07,0.13-0.15,0.18-0.23c0.03-0.04,0.05-0.08,0.08-0.13
					c0.02-0.04,0.04-0.08,0.05-0.12c0.02-0.05,0.04-0.09,0.05-0.14c0.01-0.02,0.01-0.04,0.02-0.06c0-0.02,0.01-0.05,0.01-0.07
					c0-0.02,0.01-0.04,0.01-0.06c0-0.03,0.01-0.05,0.01-0.07c0,3.61,0,7.23,0,10.84c0,4.4,0,8.81,0,13.22c0,8.81,0,17.63,0,26.44
					c0,8.82,0,17.64,0,26.46C70.3,91.64,70.3,91.74,70.3,91.84z"/>
				<path class="st0" d="M70.3,12.19c0,0.8,0,1.59,0,2.39c0,0.02-0.01,0.04-0.01,0.07c0,0.02-0.01,0.04-0.01,0.06
					c0,0.02-0.01,0.05-0.01,0.07c-0.01,0.02-0.01,0.04-0.02,0.06c-0.01,0.05-0.03,0.09-0.05,0.14c-0.01,0.04-0.03,0.08-0.05,0.12
					c-0.03,0.05-0.05,0.09-0.08,0.13c-0.05,0.08-0.11,0.16-0.18,0.23c-0.07,0.06-0.14,0.13-0.22,0.18
					c-0.04,0.03-0.08,0.05-0.13,0.07c-0.04,0.02-0.08,0.04-0.12,0.06c-0.05,0.02-0.09,0.03-0.13,0.05
					c-0.05,0.01-0.09,0.02-0.13,0.03c-0.02,0-0.04,0-0.07,0.01c-0.02,0-0.04,0-0.06,0.01c-0.02,0-0.04,0-0.06,0
					c-0.01,0-0.02,0-0.03,0s-0.01,0-0.02,0c-0.01,0-0.01,0-0.01,0s0,0-0.01,0h-0.01h-0.01c-0.02,0-0.03,0-0.04,0
					c-0.01,0-0.02,0-0.03,0c-0.01,0-0.02,0-0.03,0c-0.02,0-0.04,0-0.07,0c-0.02,0-0.04,0-0.06,0c-0.04,0-0.08,0-0.13,0
					c-0.04,0-0.08,0-0.13,0c-0.04,0-0.08,0-0.12,0s-0.09,0-0.13,0c-0.08,0-0.17,0-0.25,0c-0.09,0-0.17,0-0.25,0
					c-0.09,0-0.17,0-0.25,0c-0.09,0-0.18,0-1.34,0h-0.01c0.01-0.31,0.01-0.62,0.01-0.92c0-1.47,0.01-2.95,0-4.42
					c0-0.1,0-0.19,0-0.28c-0.01-0.17-0.03-0.34-0.09-0.5c-0.15-0.42-0.5-0.62-0.88-0.75C65.05,8.99,65.03,8.98,65,8.98V8.97
					c0-0.67,0-1.35,0-2.03c0-0.3-0.11-0.58-0.31-0.79c-0.19-0.21-0.46-0.34-0.77-0.34c-14.64,0-29.28,0-43.92,0
					c-0.31,0-0.58,0.13-0.78,0.34c-0.19,0.21-0.31,0.49-0.31,0.79c0,0.68,0,1.36,0,2.03v0.01c-0.03,0-0.05,0.01-0.08,0.02
					c-0.37,0.13-0.72,0.33-0.87,0.75c-0.06,0.16-0.08,0.33-0.09,0.5c-0.01,0.09-0.01,0.18-0.01,0.28c0,1.47,0,2.95,0,4.42
					c0,0.3,0,0.61,0.01,0.92c-0.53,0-1.06,0-1.59,0c-0.76,0.05-1.44,0.42-1.93,0.99c-0.48,0.58-0.74,1.31-0.74,2.06
					c0-2.97,0-5.94,0-8.91c0-0.02,0-0.04,0-0.06c0-0.01,0-0.02,0-0.03s0-0.02,0-0.03c0-0.24,0-0.48,0-0.73c0-0.24,0-0.48,0-0.72
					c0-0.25,0-0.49,0-0.73c0-0.25,0-0.49,0-0.73c0-0.48,0-0.96,0-1.43c0-0.24,0-0.48,0-0.72c0-0.24,0-0.48,0-0.72s0-0.47,0-0.71
					s0-0.48,0-0.72c0-0.12,0-0.24,0-0.36c0-0.12,0-0.24,0-0.36c0-0.06,0-0.12,0-0.18c0-0.06,0-0.12,0-0.18c0-0.03,0-0.06,0-0.09
					s0-0.06,0-0.09c0-0.03,0-0.06,0-0.09c0-0.02,0-0.03,0-0.05c0-0.01,0-0.03,0-0.04s0-0.01,0-0.01c0-0.01,0-0.01,0-0.02
					s0-0.02,0-0.03c0-0.01,0-0.03,0-0.05c0-0.04,0-0.08,0.01-0.12c0-0.03,0-0.07,0-0.11c0.01-0.04,0.01-0.08,0.02-0.12
					c0-0.07,0.02-0.15,0.03-0.22c0.01-0.04,0.01-0.07,0.02-0.1c0.01-0.04,0.02-0.07,0.03-0.1c0-0.03,0.01-0.06,0.02-0.09
					c0.01-0.02,0.02-0.05,0.03-0.07c0.01-0.02,0.02-0.04,0.03-0.06c0.01-0.01,0.01-0.02,0.02-0.03c0.01-0.01,0.01-0.02,0.02-0.03
					c0,0,0.01-0.01,0.01-0.02c0.01,0,0.01-0.01,0.02-0.02c0.01,0,0.01-0.01,0.02-0.01l0.01-0.01c0.01,0,0.01-0.01,0.01-0.01h0.01
					c0,0,0.01,0,0.01-0.01c0,0,0,0,0.01,0c0.01,0,0.01,0,0.01,0s0,0,0.01,0c0,0,0,0,0.01,0S13.99,0,14,0s0.02,0,0.03,0
					c0.01,0,0.01,0,0.02,0s0.02,0,0.03,0c0.02,0,0.04,0,0.06,0c0.02,0,0.04,0,0.06,0c0.02,0,0.04,0,0.05,0c0.02,0,0.04,0,0.06,0
					c0.04,0,0.08,0,0.12,0c0.03,0,0.07,0,0.11,0s0.08,0,0.11,0c0.08,0,0.16,0,0.23,0c0.08,0,0.15,0,0.23,0s0.15,0,0.23,0
					c0.07,0,0.15,0,0.22,0c0.08,0,0.15,0,0.23,0c0.15,0,0.3,0,0.45,0s0.3,0,0.45,0s0.3,0,0.44,0c0.15,0,0.3,0,0.45,0
					c0.29,0,0.59,0,0.88,0c0.29,0,0.58,0,0.87,0c0.29,0,0.58,0,0.87,0c0.28,0,0.57,0,0.85,0c0.28,0,0.56,0,0.84,0
					c0.28,0,0.56,0,0.84,0c0.55,0,1.1,0,1.64,0c0.54,0,1.07,0,1.6,0c0.53,0,1.05,0,1.57,0c0.51,0,1.03,0,1.53,0c0.25,0,0.5,0,0.74,0
					c0.11,0,0.22,0,0.33,0c0.1,0,0.2,0,0.29,0c0.18,0,0.33,0,0.45,0c0.12,0,0.21,0,0.29,0c0.07,0,0.13,0,0.19,0
					c0.05,0,0.09,0,0.14,0c0.28,0,0.56,0,0.83,0c0.26,0,0.51,0,0.78,0c0.94,0,2.22,0,4.93,0c1.89,0,3.78,0,5.67,0
					c1.66,0,2.18,0,2.67,0c0.49,0,0.94,0,1.35,0c1.17,0,2.06,0,2.8,0c0.37,0,0.7,0,1.01,0c0.31,0,0.6,0,0.88,0c0.04,0,0.09,0,0.14,0
					s0.11,0,0.19,0c0.07,0,0.17,0,0.29,0c0.12,0,0.26,0,0.44,0c0.09,0,0.19,0,0.29,0c0.11,0,0.22,0,0.34,0c0.23,0,0.48,0,0.73,0
					c0.51,0,1.02,0,1.54,0c0.51,0,1.03,0,1.56,0s1.06,0,1.6,0c0.54,0,1.09,0,1.64,0c0.28,0,0.56,0,0.84,0c0.28,0,0.56,0,0.84,0
					c0.29,0,0.57,0,0.86,0c0.28,0,0.57,0,0.86,0s0.58,0,0.87,0c0.3,0,0.59,0,0.88,0c0.15,0,0.3,0,0.45,0c0.15,0,0.3,0,0.45,0
					c0.14,0,0.29,0,0.44,0c0.15,0,0.3,0,0.45,0c0.08,0,0.15,0,0.23,0c0.08,0,0.15,0,0.23,0c0.07,0,0.15,0,0.22,0
					c0.08,0,0.16,0,0.23,0c0.08,0,0.15,0,0.23,0c0.04,0,0.08,0,0.11,0c0.04,0,0.08,0,0.12,0c0.04,0,0.07,0,0.11,0
					c0.02,0,0.04,0,0.06,0c0.02,0,0.04,0,0.06,0c0.02,0,0.03,0,0.05,0c0.02,0,0.04,0,0.06,0c0.01,0,0.02,0,0.03,0s0.02,0,0.03,0
					c0.01,0,0.02,0,0.03,0c0.01,0,0.02,0,0.02,0c0.01,0,0.01,0,0.01,0s0,0,0.01,0c0,0,0,0,0.01,0s0.01,0,0.01,0s0,0,0.01,0
					c0,0.01,0,0.01,0,0.01c0.01,0,0.01,0,0.01,0c0.01,0,0.01,0.01,0.01,0.01c0.01,0,0.01,0.01,0.02,0.01l0.01,0.01
					c0.01,0.01,0.02,0.02,0.02,0.02c0.01,0.01,0.01,0.02,0.02,0.02c0,0.01,0.01,0.02,0.01,0.03c0.01,0.01,0.01,0.02,0.02,0.03
					c0.01,0.02,0.02,0.04,0.03,0.06c0.01,0.02,0.02,0.05,0.03,0.07c0.01,0.03,0.02,0.06,0.03,0.09c0.01,0.03,0.02,0.06,0.02,0.1
					c0.01,0.03,0.02,0.06,0.03,0.1c0.01,0.07,0.02,0.15,0.03,0.22c0,0.04,0.01,0.08,0.01,0.12c0,0.04,0.01,0.08,0.01,0.11
					c0,0.04,0,0.08,0,0.12c0,0.02,0,0.04,0,0.05c0,0.01,0,0.02,0,0.03s0,0.01,0,0.02c0,0,0,0,0,0.01s0,0.03,0,0.04
					c0,0.02,0,0.03,0,0.05c0,0.03,0,0.06,0,0.09c0,0.03,0,0.06,0,0.09s0,0.06,0,0.09c0,0.06,0,0.12,0,0.18c0,0.06,0,0.12,0,0.18
					c0,0.12,0,0.24,0,0.36c0,0.12,0,0.24,0,0.36c0,0.24,0,0.48,0,0.72s0,0.47,0,0.71c0,0.16,0,0.31,0,0.47c0,0.08,0,0.17,0,0.25
					c0,0.24,0,0.48,0,0.72c0,0.47,0,0.95,0,1.43c0,0.24,0,0.48,0,0.73c0,0.24,0,0.48,0,0.73c0,0.24,0,0.48,0,0.72
					c0,0.25,0,0.49,0,0.73c0,0.01,0,0.02,0,0.03s0,0.02,0,0.03c0,0.02,0,0.04,0,0.06c0,0.04,0,0.09,0,0.13c0,0.2,0,0.41,0,0.61
					c0,0.21,0,0.41,0,0.62s0,0.41,0,0.62C70.3,12.06,70.3,12.12,70.3,12.19z"/>
				<path class="st0" d="M66.05,10.53c0.01,1.47,0,2.95,0,4.42c0,0.3,0,0.61-0.01,0.92c-0.01,0.3-0.02,0.61-0.05,0.92
					c-0.04,0.41-0.11,0.82-0.21,1.22c-0.27,1.06-0.73,2.12-1.32,3.04c-0.04,0.08-0.09,0.15-0.14,0.22
					c-0.01,0.01-0.01,0.02-0.02,0.03c-0.21,0.32-0.45,0.59-0.78,0.8c-0.37,0.23-0.77,0.35-1.19,0.47c-0.1,0.02-0.21,0.05-0.31,0.08
					c-0.03,0.01-0.07,0.02-0.1,0.02c-0.13,0.04-0.26,0.07-0.39,0.1c-0.29,0.06-0.58,0.12-0.87,0.17c-0.65,0.11-1.31,0.2-1.97,0.28
					c-2.14,0.23-4.27,0.29-6.4,0.3c-0.17,0-0.34,0-0.5,0c-1.97,0.01-3.95,0-5.92,0c-2.61,0-5.22,0-7.83,0c-1.97,0-3.94,0.01-5.91,0
					c-0.17,0-0.34,0-0.5,0c-2.14-0.01-4.27-0.07-6.4-0.3c-0.67-0.08-1.32-0.17-1.98-0.28c-0.29-0.05-0.58-0.11-0.87-0.17
					c-0.13-0.03-0.26-0.06-0.39-0.1c-0.03,0-0.06-0.01-0.1-0.02c-0.18-0.05-0.36-0.1-0.54-0.15c-0.43-0.13-0.83-0.27-1.19-0.57
					c-0.22-0.18-0.39-0.4-0.55-0.63c-0.01-0.01-0.01-0.02-0.02-0.03c-0.05-0.07-0.1-0.14-0.14-0.22c-0.59-0.92-1.05-1.98-1.31-3.04
					c-0.11-0.41-0.18-0.81-0.22-1.22c-0.03-0.31-0.05-0.62-0.05-0.92c-0.01-0.31-0.01-0.62-0.01-0.92c0-1.47,0-2.95,0-4.42
					c0-0.1,0-0.19,0.01-0.28c0.01-0.17,0.03-0.34,0.09-0.5c0.15-0.42,0.5-0.62,0.87-0.75c0.03-0.01,0.05-0.02,0.08-0.02
					c0.1-0.04,0.21-0.07,0.31-0.08c0.2-0.05,0.4-0.09,0.6-0.11c0.47-0.06,0.94-0.08,1.42-0.09c0.51-0.01,1.03,0,1.54,0
					c0.81,0,1.63,0,2.44,0c2.13,0,4.27,0,6.41,0s4.27,0,6.41,0c2.61,0,5.22,0,7.83,0c2.14,0,4.28,0,6.42,0c2.13,0,4.27,0,6.41,0
					c0.81,0,1.62,0,2.43,0c0.52,0,1.03-0.01,1.54,0c0.48,0.01,0.96,0.03,1.43,0.09c0.2,0.02,0.4,0.06,0.59,0.11
					C64.8,8.91,64.9,8.94,65,8.98c0.03,0,0.05,0.01,0.08,0.02c0.38,0.13,0.73,0.33,0.88,0.75c0.06,0.16,0.08,0.33,0.09,0.5
					C66.05,10.34,66.05,10.43,66.05,10.53z"/>
				<path class="st0" d="M65,8.97v0.01c-0.1-0.04-0.2-0.07-0.31-0.08V8.89V6.15C64.89,6.36,65,6.64,65,6.94C65,7.62,65,8.3,65,8.97z
					"/>
				<path class="st0" d="M64.69,8.89V8.9C64.5,8.85,64.3,8.81,64.1,8.79c-0.47-0.06-0.95-0.08-1.43-0.09c-0.51-0.01-1.02,0-1.54,0
					c-0.81,0-1.62,0-2.43,0c-2.14,0-4.28,0-6.41,0c-2.14,0-4.28,0-6.42,0c-2.61,0-5.22,0-7.83,0c-2.14,0-4.27,0-6.41,0
					s-4.28,0-6.41,0c-0.81,0-1.63,0-2.44,0c-0.51,0-1.03-0.01-1.54,0c-0.48,0.01-0.95,0.03-1.42,0.09c-0.2,0.02-0.4,0.06-0.6,0.11
					V8.89V6.15c0.2-0.21,0.47-0.34,0.78-0.34c14.64,0,29.28,0,43.92,0c0.31,0,0.58,0.13,0.77,0.34V8.89z"/>
				<path class="st0" d="M19.22,8.89V8.9c-0.1,0.01-0.21,0.04-0.31,0.08V8.97c0-0.67,0-1.35,0-2.03c0-0.3,0.12-0.58,0.31-0.79V8.89z
					"/>
				<path class="st0" d="M13.93,0c0,0.01-0.01,0.01-0.01,0.01h-0.01c0,0,0,0.01-0.01,0.01l-0.01,0.01c-0.01,0-0.01,0.01-0.02,0.01
					c-0.01,0.01-0.01,0.02-0.02,0.02c0,0.01-0.01,0.02-0.01,0.02c-0.01,0.01-0.01,0.02-0.02,0.03c-0.01,0.01-0.01,0.02-0.02,0.03
					c-0.01,0.02-0.02,0.04-0.03,0.06c-0.01,0.02-0.02,0.05-0.03,0.07c-0.01,0.03-0.02,0.06-0.02,0.09c-0.01,0.03-0.02,0.06-0.03,0.1
					c-0.01,0.03-0.01,0.06-0.02,0.1c-0.01,0.07-0.03,0.15-0.03,0.22c-0.01,0.04-0.01,0.08-0.02,0.12c0,0.04,0,0.08,0,0.11
					c-0.01,0.04-0.01,0.08-0.01,0.12c0,0.02,0,0.04,0,0.05c0,0.01,0,0.02,0,0.03s0,0.01,0,0.02c0,0,0,0,0,0.01s0,0.03,0,0.04
					c0,0.02,0,0.03,0,0.05c0,0.03,0,0.06,0,0.09c0,0.03,0,0.06,0,0.09s0,0.06,0,0.09c0,0.06,0,0.12,0,0.18c0,0.06,0,0.12,0,0.18
					c0,0.12,0,0.24,0,0.36c0,0.12,0,0.24,0,0.36c0,0.24,0,0.48,0,0.72s0,0.47,0,0.71s0,0.48,0,0.72c0,0.24,0,0.48,0,0.72
					c0,0.47,0,0.95,0,1.43c0,0.24,0,0.48,0,0.73c0,0.24,0,0.48,0,0.73c0,0.24,0,0.48,0,0.72c0,0.25,0,0.49,0,0.73
					c0,0.01,0,0.02,0,0.03s0,0.02,0,0.03c0,0.02,0,0.04,0,0.06c0,2.97,0,5.94,0,8.91c0,6.03,0,12.06,0,18.08c0,2.26,0,4.52,0,6.78
					c0,2.24,0,4.48,0,6.72c0,2.6,0,5.2,0,7.8c0,0.78-0.63,1.42-1.42,1.42c-1.7,0-3.4,0-5.1,0c-3.91,0-7.08-3.18-7.08-7.09
					C0,37.45,0,22.27,0,7.08C0,3.17,3.18,0,7.09,0C9.37,0,11.65,0,13.93,0z"/>
				<path class="st0" d="M13.61,58.3c0,0.48,0,0.95,0,1.42h-1.42C12.98,59.72,13.61,59.08,13.61,58.3z"/>
			</g>
			<g>
				<path class="st1" d="M17.87,15.87c-0.53,0-1.06,0-1.59,0c-0.76,0.05-1.44,0.42-1.93,0.99c-0.48,0.58-0.74,1.31-0.74,2.06"/>
				<path class="st1" d="M13.61,58.3c0,0.78-0.63,1.42-1.42,1.42c-1.7,0-3.4,0-5.1,0c-3.91,0-7.08-3.18-7.08-7.09
					C0,37.45,0,22.27,0,7.08C0,3.17,3.18,0,7.09,0c2.28,0,4.56,0,6.84,0"/>
				<path class="st1" d="M66.04,15.87c-0.01,0.3-0.02,0.61-0.05,0.92c-0.04,0.41-0.11,0.82-0.21,1.22
					c-0.27,1.06-0.73,2.12-1.32,3.04c-0.04,0.08-0.09,0.15-0.14,0.22c-0.01,0.01-0.01,0.02-0.02,0.03c-0.21,0.32-0.45,0.59-0.78,0.8
					c-0.37,0.23-0.77,0.35-1.19,0.47c-0.1,0.02-0.21,0.05-0.31,0.08c-0.03,0.01-0.07,0.02-0.1,0.02c-0.13,0.04-0.26,0.07-0.39,0.1
					c-0.29,0.06-0.58,0.12-0.87,0.17c-0.65,0.11-1.31,0.2-1.97,0.28c-2.14,0.23-4.27,0.29-6.4,0.3c-0.17,0-0.34,0-0.5,0
					c-1.97,0.01-3.95,0-5.92,0c-2.61,0-5.22,0-7.83,0c-1.97,0-3.94,0.01-5.91,0c-0.17,0-0.34,0-0.5,0c-2.14-0.01-4.27-0.07-6.4-0.3
					c-0.67-0.08-1.32-0.17-1.98-0.28c-0.29-0.05-0.58-0.11-0.87-0.17c-0.13-0.03-0.26-0.06-0.39-0.1c-0.03,0-0.06-0.01-0.1-0.02
					c-0.18-0.05-0.36-0.1-0.54-0.15c-0.43-0.13-0.83-0.27-1.19-0.57c-0.22-0.18-0.39-0.4-0.55-0.63c-0.01-0.01-0.01-0.02-0.02-0.03
					c-0.05-0.07-0.1-0.14-0.14-0.22c-0.59-0.92-1.05-1.98-1.31-3.04c-0.11-0.41-0.18-0.81-0.22-1.22c-0.03-0.31-0.05-0.62-0.05-0.92
					c-0.01-0.31-0.01-0.62-0.01-0.92c0-1.47,0-2.95,0-4.42c0-0.1,0-0.19,0.01-0.28c0.01-0.17,0.03-0.34,0.09-0.5
					c0.15-0.42,0.5-0.62,0.87-0.75c0.03-0.01,0.05-0.02,0.08-0.02c0.1-0.04,0.21-0.07,0.31-0.08c0.2-0.05,0.4-0.09,0.6-0.11
					c0.47-0.06,0.94-0.08,1.42-0.09c0.51-0.01,1.03,0,1.54,0c0.81,0,1.63,0,2.44,0c2.13,0,4.27,0,6.41,0s4.27,0,6.41,0
					c2.61,0,5.22,0,7.83,0c2.14,0,4.28,0,6.42,0c2.13,0,4.27,0,6.41,0c0.81,0,1.62,0,2.43,0c0.52,0,1.03-0.01,1.54,0
					c0.48,0.01,0.96,0.03,1.43,0.09c0.2,0.02,0.4,0.06,0.59,0.11C64.8,8.91,64.9,8.94,65,8.98c0.03,0,0.05,0.01,0.08,0.02
					c0.38,0.13,0.73,0.33,0.88,0.75c0.06,0.16,0.08,0.33,0.09,0.5c0,0.09,0,0.18,0,0.28c0.01,1.47,0,2.95,0,4.42
					C66.05,15.25,66.05,15.56,66.04,15.87z"/>
				<path class="st1" d="M70.3,14.58c0,0.02-0.01,0.04-0.01,0.07c0,0.02-0.01,0.04-0.01,0.06c0,0.02-0.01,0.05-0.01,0.07
					c-0.01,0.02-0.01,0.04-0.02,0.06c-0.01,0.05-0.03,0.09-0.05,0.14c-0.01,0.04-0.03,0.08-0.05,0.12
					c-0.03,0.05-0.05,0.09-0.08,0.13c-0.05,0.08-0.11,0.16-0.18,0.23c-0.07,0.06-0.14,0.13-0.22,0.18
					c-0.04,0.03-0.08,0.05-0.13,0.07c-0.04,0.02-0.08,0.04-0.12,0.06c-0.05,0.02-0.09,0.03-0.13,0.05
					c-0.05,0.01-0.09,0.02-0.13,0.03c-0.02,0-0.04,0-0.07,0.01c-0.02,0-0.04,0-0.06,0.01c-0.02,0-0.04,0-0.06,0
					c-0.01,0-0.02,0-0.03,0s-0.01,0-0.02,0c-0.01,0-0.01,0-0.01,0s0,0-0.01,0h-0.01h-0.01c-0.02,0-0.03,0-0.04,0
					c-0.01,0-0.02,0-0.03,0c-0.01,0-0.02,0-0.03,0c-0.02,0-0.04,0-0.07,0c-0.02,0-0.04,0-0.06,0c-0.04,0-0.08,0-0.13,0
					c-0.04,0-0.08,0-0.13,0c-0.04,0-0.08,0-0.12,0s-0.09,0-0.13,0c-0.08,0-0.17,0-0.25,0c-0.09,0-0.17,0-0.25,0
					c-0.09,0-0.17,0-0.25,0c-0.09,0-0.18,0-1.34,0"/>
				<path class="st1" d="M70.3,10.01c0,0.04,0,0.09,0,0.13c0,0.2,0,0.41,0,0.61c0,0.21,0,0.41,0,0.62s0,0.41,0,0.62
					c0,0.07,0,0.13,0,0.2"/>
				<line class="st1" x1="64.69" y1="6.15" x2="64.69" y2="8.89"/>
				<line class="st1" x1="19.22" y1="6.15" x2="19.22" y2="8.89"/>
				<path class="st1" d="M65,8.97c0-0.67,0-1.35,0-2.03c0-0.3-0.11-0.58-0.31-0.79c-0.19-0.21-0.46-0.34-0.77-0.34
					c-14.64,0-29.28,0-43.92,0c-0.31,0-0.58,0.13-0.78,0.34c-0.19,0.21-0.31,0.49-0.31,0.79c0,0.68,0,1.36,0,2.03"/>
				<path class="st1" d="M19.29,9.46c0,0.01-0.01,0.01-0.02,0.02c-0.02,0.02-0.05,0.04-0.07,0.06c-0.02,0.02-0.05,0.05-0.07,0.07
					c-0.02,0.03-0.05,0.06-0.07,0.09C19.04,9.73,19.02,9.76,19,9.79c-0.03,0.04-0.05,0.07-0.07,0.11c-0.02,0.05-0.04,0.09-0.07,0.14
					c-0.02,0.05-0.04,0.1-0.06,0.15c-0.01,0.02-0.02,0.05-0.03,0.08c-0.02,0.05-0.03,0.11-0.05,0.16c-0.02,0.07-0.03,0.13-0.05,0.19
					c-0.01,0.07-0.03,0.13-0.04,0.2c-0.02,0.1-0.03,0.19-0.04,0.29c-0.01,0.09-0.02,0.19-0.03,0.28c-0.01,0.1-0.02,0.2-0.02,0.29
					c-0.01,0.05-0.01,0.1-0.01,0.14c0,0.05-0.01,0.1-0.01,0.15c0,0.07-0.01,0.13-0.01,0.2s-0.01,0.14-0.01,0.21
					c0,0.09-0.01,0.18-0.01,0.27c-0.01,0.09-0.02,0.18-0.02,0.27c-0.01,0.11-0.01,0.22-0.02,0.32c-0.02,0.27-0.03,0.53-0.05,0.78
					c-0.01,0.17-0.01,0.34-0.02,0.5"/>
				<path class="st1" d="M64.62,9.46c0.01,0.01,0.01,0.01,0.02,0.02c0.03,0.02,0.05,0.04,0.07,0.06c0.03,0.02,0.05,0.05,0.07,0.07
					c0.03,0.03,0.05,0.06,0.07,0.09c0.02,0.03,0.05,0.06,0.07,0.09c0.02,0.04,0.04,0.07,0.06,0.11c0.03,0.05,0.05,0.09,0.07,0.14
					c0.02,0.05,0.04,0.1,0.06,0.15c0.01,0.02,0.02,0.05,0.03,0.08c0.02,0.05,0.04,0.11,0.05,0.16c0.02,0.07,0.04,0.13,0.05,0.19
					c0.02,0.07,0.03,0.13,0.04,0.2c0.02,0.1,0.03,0.19,0.04,0.29c0.02,0.09,0.03,0.19,0.04,0.28c0,0.1,0.01,0.2,0.02,0.29
					c0,0.05,0,0.1,0.01,0.14c0,0.05,0,0.1,0,0.15c0.01,0.07,0.01,0.13,0.01,0.2c0.01,0.07,0.01,0.14,0.01,0.21
					c0.01,0.09,0.01,0.18,0.02,0.27c0,0.09,0.01,0.18,0.01,0.27c0.01,0.11,0.02,0.22,0.03,0.32c0.01,0.27,0.03,0.53,0.04,0.78
					c0.01,0.17,0.02,0.34,0.02,0.5"/>
				<line class="st1" x1="12.19" y1="59.72" x2="13.61" y2="59.72"/>
				<path class="st1" d="M39.12,93.54c-0.19,0-0.38,0-0.57,0c-1.61,0-3.22,0-4.84-0.01c-0.93-0.01-1.86-0.02-2.79-0.03
					c-0.48-0.01-0.96-0.02-1.43-0.02c-1.29-0.03-2.57-0.06-3.86-0.1c-2.37-0.06-4.74-0.16-7.11-0.29c-0.78-0.04-1.57-0.08-2.35-0.12
					c-0.39-0.03-0.79-0.05-1.18-0.07c-0.05,0-0.11-0.01-0.16-0.01c-0.03,0-0.06,0-0.09,0c-0.33-0.02-0.61-0.08-0.87-0.31
					c-0.18-0.18-0.26-0.35-0.26-0.61c0-0.1,0-0.21,0-0.31c0-0.22,0-0.44,0-0.67c0-9,0-18,0-27c0-1.42,0-2.84,0-4.27
					c0-0.47,0-0.94,0-1.42c0-2.6,0-5.2,0-7.8c0-2.24,0-4.48,0-6.72c0-2.26,0-4.52,0-6.78c0-6.02,0-12.05,0-18.08
					c0-2.97,0-5.94,0-8.91c0-0.02,0-0.04,0-0.06c0-0.01,0-0.02,0-0.03s0-0.02,0-0.03c0-0.24,0-0.48,0-0.73c0-0.24,0-0.48,0-0.72
					c0-0.25,0-0.49,0-0.73c0-0.25,0-0.49,0-0.73c0-0.48,0-0.96,0-1.43c0-0.24,0-0.48,0-0.72c0-0.24,0-0.48,0-0.72s0-0.47,0-0.71
					s0-0.48,0-0.72c0-0.12,0-0.24,0-0.36c0-0.12,0-0.24,0-0.36c0-0.06,0-0.12,0-0.18c0-0.06,0-0.12,0-0.18c0-0.03,0-0.06,0-0.09
					s0-0.06,0-0.09c0-0.03,0-0.06,0-0.09c0-0.02,0-0.03,0-0.05c0-0.01,0-0.03,0-0.04s0-0.01,0-0.01c0-0.01,0-0.01,0-0.02
					s0-0.02,0-0.03c0-0.01,0-0.03,0-0.05c0-0.04,0-0.08,0.01-0.12c0-0.03,0-0.07,0-0.11c0.01-0.04,0.01-0.08,0.02-0.12
					c0-0.07,0.02-0.15,0.03-0.22c0.01-0.04,0.01-0.07,0.02-0.1c0.01-0.04,0.02-0.07,0.03-0.1c0-0.03,0.01-0.06,0.02-0.09
					c0.01-0.02,0.02-0.05,0.03-0.07c0.01-0.02,0.02-0.04,0.03-0.06c0.01-0.01,0.01-0.02,0.02-0.03c0.01-0.01,0.01-0.02,0.02-0.03
					c0,0,0.01-0.01,0.01-0.02c0.01,0,0.01-0.01,0.02-0.02c0.01,0,0.01-0.01,0.02-0.01l0.01-0.01c0.01,0,0.01-0.01,0.01-0.01h0.01
					c0,0,0.01,0,0.01-0.01c0,0,0,0,0.01,0c0.01,0,0.01,0,0.01,0s0,0,0.01,0c0,0,0,0,0.01,0S13.99,0,14,0s0.02,0,0.03,0
					c0.01,0,0.01,0,0.02,0s0.02,0,0.03,0c0.02,0,0.04,0,0.06,0c0.02,0,0.04,0,0.06,0c0.02,0,0.04,0,0.05,0c0.02,0,0.04,0,0.06,0
					c0.04,0,0.08,0,0.12,0c0.03,0,0.07,0,0.11,0s0.08,0,0.11,0c0.08,0,0.16,0,0.23,0c0.08,0,0.15,0,0.23,0s0.15,0,0.23,0
					c0.07,0,0.15,0,0.22,0c0.08,0,0.15,0,0.23,0c0.15,0,0.3,0,0.45,0s0.3,0,0.45,0s0.3,0,0.44,0c0.15,0,0.3,0,0.45,0
					c0.29,0,0.59,0,0.88,0c0.29,0,0.58,0,0.87,0c0.29,0,0.58,0,0.87,0c0.28,0,0.57,0,0.85,0c0.28,0,0.56,0,0.84,0
					c0.28,0,0.56,0,0.84,0c0.55,0,1.1,0,1.64,0c0.54,0,1.07,0,1.6,0c0.53,0,1.05,0,1.57,0c0.51,0,1.03,0,1.53,0c0.25,0,0.5,0,0.74,0
					c0.11,0,0.22,0,0.33,0c0.1,0,0.2,0,0.29,0c0.18,0,0.33,0,0.45,0c0.12,0,0.21,0,0.29,0c0.07,0,0.13,0,0.19,0
					c0.05,0,0.09,0,0.14,0c0.28,0,0.56,0,0.83,0c0.26,0,0.51,0,0.78,0c0.94,0,2.22,0,4.93,0c1.89,0,3.78,0,5.67,0
					c1.66,0,2.18,0,2.67,0c0.49,0,0.94,0,1.35,0c1.17,0,2.06,0,2.8,0c0.37,0,0.7,0,1.01,0c0.31,0,0.6,0,0.88,0c0.04,0,0.09,0,0.14,0
					s0.11,0,0.19,0c0.07,0,0.17,0,0.29,0c0.12,0,0.26,0,0.44,0c0.09,0,0.19,0,0.29,0c0.11,0,0.22,0,0.34,0c0.23,0,0.48,0,0.73,0
					c0.51,0,1.02,0,1.54,0c0.51,0,1.03,0,1.56,0s1.06,0,1.6,0c0.54,0,1.09,0,1.64,0c0.28,0,0.56,0,0.84,0c0.28,0,0.56,0,0.84,0
					c0.29,0,0.57,0,0.86,0c0.28,0,0.57,0,0.86,0s0.58,0,0.87,0c0.3,0,0.59,0,0.88,0c0.15,0,0.3,0,0.45,0c0.15,0,0.3,0,0.45,0
					c0.14,0,0.29,0,0.44,0c0.15,0,0.3,0,0.45,0c0.08,0,0.15,0,0.23,0c0.08,0,0.15,0,0.23,0c0.07,0,0.15,0,0.22,0
					c0.08,0,0.16,0,0.23,0c0.08,0,0.15,0,0.23,0c0.04,0,0.08,0,0.11,0c0.04,0,0.08,0,0.12,0c0.04,0,0.07,0,0.11,0
					c0.02,0,0.04,0,0.06,0c0.02,0,0.04,0,0.06,0c0.02,0,0.03,0,0.05,0c0.02,0,0.04,0,0.06,0c0.01,0,0.02,0,0.03,0s0.02,0,0.03,0
					c0.01,0,0.02,0,0.03,0c0.01,0,0.02,0,0.02,0c0.01,0,0.01,0,0.01,0s0,0,0.01,0c0,0,0,0,0.01,0s0.01,0,0.01,0s0,0,0.01,0
					c0,0.01,0,0.01,0,0.01c0.01,0,0.01,0,0.01,0c0.01,0,0.01,0.01,0.01,0.01c0.01,0,0.01,0.01,0.02,0.01l0.01,0.01
					c0.01,0.01,0.02,0.02,0.02,0.02c0.01,0.01,0.01,0.02,0.02,0.02c0,0.01,0.01,0.02,0.01,0.03c0.01,0.01,0.01,0.02,0.02,0.03
					c0.01,0.02,0.02,0.04,0.03,0.06c0.01,0.02,0.02,0.05,0.03,0.07c0.01,0.03,0.02,0.06,0.03,0.09c0.01,0.03,0.02,0.06,0.02,0.1
					c0.01,0.03,0.02,0.06,0.03,0.1c0.01,0.07,0.02,0.15,0.03,0.22c0,0.04,0.01,0.08,0.01,0.12c0,0.04,0.01,0.08,0.01,0.11
					c0,0.04,0,0.08,0,0.12c0,0.02,0,0.04,0,0.05c0,0.01,0,0.02,0,0.03s0,0.01,0,0.02c0,0,0,0,0,0.01s0,0.03,0,0.04
					c0,0.02,0,0.03,0,0.05c0,0.03,0,0.06,0,0.09c0,0.03,0,0.06,0,0.09s0,0.06,0,0.09c0,0.06,0,0.12,0,0.18c0,0.06,0,0.12,0,0.18
					c0,0.12,0,0.24,0,0.36c0,0.12,0,0.24,0,0.36c0,0.24,0,0.48,0,0.72s0,0.47,0,0.71c0,0.16,0,0.31,0,0.47c0,0.08,0,0.17,0,0.25
					c0,0.24,0,0.48,0,0.72c0,0.47,0,0.95,0,1.43c0,0.24,0,0.48,0,0.73c0,0.24,0,0.48,0,0.73c0,0.24,0,0.48,0,0.72
					c0,0.25,0,0.49,0,0.73c0,0.01,0,0.02,0,0.03s0,0.02,0,0.03c0,0.02,0,0.04,0,0.06"/>
				<path class="st1" d="M39.12,93.54c0.19,0,0.39,0,0.58,0c1.7,0,3.39,0,5.09,0c1.8,0,3.61,0,5.41-0.01
					c0.93-0.01,1.86-0.02,2.79-0.03c0.48-0.01,0.96-0.02,1.44-0.02c1.19-0.02,2.39-0.06,3.59-0.09c2.38-0.07,4.75-0.16,7.13-0.28
					c0.75-0.04,1.49-0.08,2.23-0.12c0.37-0.02,0.74-0.05,1.11-0.07c0.19-0.01,0.38-0.02,0.56-0.03c0.16,0,0.31-0.01,0.46-0.04
					c0.33-0.08,0.69-0.31,0.77-0.68c0.02-0.06,0.02-0.11,0.02-0.17s0-0.11,0-0.16c0-0.1,0-0.2,0-0.3c0-8.82,0-17.64,0-26.46
					c0-8.81,0-17.63,0-26.44c0-4.41,0-8.82,0-13.22c0-3.61,0-7.23,0-10.84c0-0.8,0-1.59,0-2.39"/>
			</g>
		</g>
	</g>
	<text transform="matrix(1 0 0 1 33.8228 42.1147)" class="st2 st3">100</text>
</g>
</svg>
