<?xml version="1.0" encoding="utf-8"?>
<!-- Generator: Adobe Illustrator 26.5.0, SVG Export Plug-In . SVG Version: 6.00 Build 0)  -->
<svg version="1.1" xmlns="http://www.w3.org/2000/svg" xmlns:xlink="http://www.w3.org/1999/xlink" x="0px" y="0px"
	 viewBox="0 0 75.97 93.54" style="enable-background:new 0 0 75.97 93.54;" xml:space="preserve">
<style type="text/css">
	.st0{fill:#F1F1F2;}
	.st1{fill:none;stroke:#404041;stroke-width:0.35;stroke-linecap:round;stroke-linejoin:round;}
	.st2{font-family:'Inter18pt-Medium';}
	.st3{font-size:10px;}
</style>
<g id="Default">
</g>
<g id="_x30_3_x5F_LINEA_FINA">
	<g id="XMLID_00000183945324899269083860000000561483311145343926_">
		<g>
			<path class="st0" d="M0,91.85c0,0.05,0,0.1,0,0.15c0,0.06,0.01,0.12,0.02,0.18c0.09,0.36,0.45,0.6,0.78,0.67
				c0.15,0.04,0.3,0.04,0.45,0.05c0.19,0.01,0.38,0.02,0.57,0.03c0.37,0.02,0.74,0.04,1.11,0.06c0.74,0.04,1.48,0.08,2.23,0.12
				c2.37,0.12,4.75,0.22,7.13,0.28c1.2,0.04,2.4,0.07,3.59,0.09c0.48,0.01,0.96,0.02,1.44,0.02c0.93,0.02,1.86,0.03,2.79,0.03
				c1.8,0.01,3.6,0.02,5.41,0.02c0.84,0,1.69,0,2.54,0c1.89,0,3.78,0,5.67,0c0.85,0,1.7,0,2.55,0c0.19,0,0.38,0,0.57,0
				c0.2,0,0.39,0,0.58,0c1.62,0,3.22-0.01,4.83-0.02c0.93,0,1.87-0.01,2.8-0.03c0.48,0,0.95-0.01,1.43-0.02
				c1.29-0.02,2.57-0.06,3.85-0.09c2.38-0.07,4.75-0.17,7.12-0.29c0.78-0.04,1.57-0.09,2.35-0.13c0.39-0.02,0.78-0.04,1.18-0.06
				c0.05-0.01,0.1-0.01,0.15-0.01c0.04,0,0.07-0.01,0.1-0.01c0.33-0.01,0.6-0.07,0.86-0.31c0.19-0.17,0.27-0.35,0.27-0.6
				c0-0.11,0-0.21,0-0.32c0-0.22,0-0.44,0-0.66c0-4.5,0-9,0-13.5s0-8.99,0-13.49c0-1.43,0-2.86,0-4.29c0-0.47,0-0.94,0-1.42
				c0-2.6,0-5.2,0-7.8c0-4.49,0-8.99,0-13.49c0-6.1,0-12.19-0.01-18.28c0.01-0.03,0.01-0.06,0-0.09c-0.06-0.64-0.31-1.27-0.73-1.77
				c-0.49-0.57-1.18-0.94-1.93-0.99c-0.53,0-1.06,0-1.59,0H58.1c0,0.3-0.01,0.61-0.04,0.91c-0.05,0.41-0.12,0.82-0.22,1.22
				c-0.27,1.06-0.72,2.13-1.31,3.05c-0.05,0.07-0.1,0.14-0.14,0.22c-0.01,0.01-0.02,0.02-0.02,0.02c-0.16,0.24-0.33,0.46-0.56,0.64
				c-0.36,0.29-0.75,0.44-1.18,0.56c-0.18,0.06-0.36,0.11-0.55,0.15c-0.03,0.01-0.06,0.02-0.09,0.03c-0.13,0.03-0.27,0.06-0.4,0.09
				c-0.28,0.07-0.57,0.12-0.86,0.17c-0.66,0.12-1.32,0.21-1.98,0.28c-2.13,0.24-4.26,0.29-6.4,0.31c-0.17,0-0.33,0-0.5,0
				c-1.97,0-3.94,0-5.91,0c-1.31,0-2.61,0-3.92,0c-1.89,0-3.78,0-5.67,0c-1.31,0-2.61,0-3.92,0c-1.97,0-3.94,0-5.91,0
				c-0.16,0-0.33,0-0.5,0c-2.14-0.02-4.27-0.07-6.4-0.31c-0.66-0.07-1.32-0.16-1.98-0.28c-0.29-0.05-0.57-0.1-0.86-0.17
				c-0.13-0.03-0.26-0.06-0.4-0.09c-0.03-0.01-0.06-0.02-0.09-0.02c-0.11-0.03-0.21-0.06-0.32-0.09c-0.41-0.11-0.81-0.23-1.18-0.47
				c-0.33-0.21-0.57-0.48-0.78-0.79C6,21.3,5.99,21.29,5.99,21.28c-0.05-0.07-0.1-0.15-0.15-0.22c-0.58-0.92-1.04-1.99-1.31-3.05
				c-0.1-0.4-0.17-0.8-0.21-1.22c-0.03-0.3-0.05-0.61-0.05-0.91H4.26c-1.17,0-1.25,0-1.34,0c-0.08,0-0.17,0-0.25,0
				c-0.08,0-0.17,0-0.25,0c-0.08,0-0.17,0-0.25,0c-0.05,0-0.09,0-0.13,0s-0.09,0-0.13,0s-0.08,0-0.13,0c-0.04,0-0.08,0-0.12,0
				c-0.02,0-0.05,0-0.07,0c-0.02,0-0.04,0-0.06,0c-0.01,0-0.02,0-0.03,0s-0.03,0-0.04,0s-0.02,0-0.03,0H1.42c-0.01,0-0.01,0-0.01,0
				H1.4c-0.01,0-0.01,0-0.01,0s0,0-0.01,0H1.37c-0.01,0-0.02,0-0.03-0.01c-0.02,0-0.04,0-0.06,0s-0.05,0-0.07-0.01
				c-0.02,0-0.04,0-0.06-0.01c-0.04-0.01-0.09-0.02-0.13-0.03c-0.04-0.01-0.09-0.03-0.13-0.04c-0.04-0.02-0.08-0.04-0.13-0.06
				c-0.04-0.02-0.08-0.05-0.12-0.07c-0.08-0.06-0.15-0.12-0.22-0.19c-0.07-0.07-0.13-0.14-0.19-0.23c-0.02-0.04-0.05-0.08-0.07-0.12
				s-0.04-0.09-0.06-0.13c-0.01-0.04-0.03-0.09-0.04-0.13c-0.01-0.02-0.01-0.05-0.02-0.07c0-0.02-0.01-0.04-0.01-0.06
				c-0.01-0.02-0.01-0.05-0.01-0.07c-0.01-0.02-0.01-0.04-0.01-0.06c0-0.01,0-0.03,0-0.04s0-0.02,0-0.03c0,0,0-0.01-0.01-0.01
				c0,3.64,0,7.27,0,10.91c0,4.41,0,8.82,0,13.22c0,8.82,0,17.64,0,26.45c0,4.41,0,8.82,0,13.23c0,4.41,0,8.82,0,13.23
				C0,91.65,0,91.75,0,91.85z"/>
			<path class="st0" d="M0,9.96c0,0.06,0,0.12,0,0.18c0,0.21,0,0.41,0,0.62c0,0.2,0,0.41,0,0.62c0,0.2,0,0.41,0,0.61
				c0,0.07,0,0.13,0,0.2c0,0.77,0,1.55,0,2.32c0.01,0,0.01,0.01,0.01,0.01c0,0.01,0,0.02,0,0.03s0,0.03,0,0.04
				c0,0.02,0,0.04,0.01,0.06c0,0.02,0,0.05,0.01,0.07c0,0.02,0.01,0.04,0.01,0.06c0.01,0.02,0.01,0.05,0.02,0.07
				c0.01,0.04,0.03,0.09,0.04,0.13c0.02,0.04,0.04,0.09,0.06,0.13s0.05,0.08,0.07,0.12c0.06,0.09,0.12,0.16,0.19,0.23
				c0.07,0.07,0.14,0.13,0.22,0.19c0.04,0.02,0.08,0.05,0.12,0.07c0.05,0.02,0.09,0.04,0.13,0.06c0.04,0.01,0.09,0.03,0.13,0.04
				c0.04,0.01,0.09,0.02,0.13,0.03c0.02,0.01,0.04,0.01,0.06,0.01c0.02,0.01,0.05,0.01,0.07,0.01s0.04,0,0.06,0
				c0.01,0.01,0.02,0.01,0.03,0.01h0.01c0.01,0,0.01,0,0.01,0s0,0,0.01,0h0.01c0,0,0,0,0.01,0h0.01c0.01,0,0.02,0,0.03,0
				s0.03,0,0.04,0s0.02,0,0.03,0c0.02,0,0.04,0,0.06,0c0.02,0,0.05,0,0.07,0c0.04,0,0.08,0,0.12,0c0.05,0,0.09,0,0.13,0
				s0.09,0,0.13,0s0.08,0,0.13,0c0.08,0,0.17,0,0.25,0c0.08,0,0.17,0,0.25,0c0.08,0,0.17,0,0.25,0c0.09,0,0.17,0,1.34,0h0.01
				c-0.01-0.31-0.01-0.61-0.01-0.92c0-1.48-0.01-2.95,0-4.43c0-0.09,0-0.18,0-0.28c0.01-0.17,0.03-0.33,0.09-0.5
				c0.15-0.41,0.5-0.61,0.88-0.74C5.26,9,5.28,8.99,5.31,8.98c0-0.68,0-1.35,0-2.03c0-0.3,0.12-0.58,0.31-0.79s0.46-0.34,0.77-0.34
				c7.32,0,14.64,0,21.96,0c1.89,0,3.78,0,5.67,0c7.32,0,14.64,0,21.96,0c0.31,0,0.58,0.13,0.77,0.34c0.2,0.21,0.31,0.49,0.31,0.79
				c0,0.68,0,1.35,0,2.03c0.03,0,0.05,0.01,0.08,0.02c0.38,0.14,0.73,0.34,0.88,0.75c0.06,0.17,0.08,0.33,0.09,0.5
				c0,0.1,0,0.19,0,0.28c0.01,1.48,0,2.95,0,4.43c0,0.31,0,0.61-0.01,0.92h0.01c0.53,0,1.06,0,1.59,0c0.75,0.05,1.44,0.42,1.93,0.99
				c0.42,0.5,0.67,1.13,0.73,1.77c0.01-2.88,0-5.75,0-8.62c0.01-0.02,0.01-0.04,0.01-0.06c0-0.01,0-0.02,0-0.03s0-0.02,0-0.03
				c0-0.25,0-0.49,0-0.73c0-0.24,0-0.49,0-0.73s0-0.48,0-0.73c0-0.24,0-0.48,0-0.73c0-0.47,0-0.95,0-1.43c0-0.24,0-0.48,0-0.71
				c0-0.24,0-0.48,0-0.72s0-0.48,0-0.72s0-0.48,0-0.72c0-0.12,0-0.24,0-0.36c0-0.12,0-0.24,0-0.36c0-0.06,0-0.12,0-0.18
				c0-0.06,0-0.12,0-0.18c0-0.03,0-0.06,0-0.09s0-0.06,0-0.09c0-0.03,0-0.06,0-0.09c0-0.01,0-0.03,0-0.04c0-0.02,0-0.03,0-0.04
				s0-0.01,0-0.01V1.23V1.22c0-0.01,0-0.02,0-0.03c0-0.02,0-0.04-0.01-0.06c0-0.03,0-0.07,0-0.11c0-0.04,0-0.08-0.01-0.12
				c0-0.04,0-0.07-0.01-0.11c-0.01-0.08-0.02-0.15-0.03-0.22c-0.01-0.04-0.02-0.07-0.02-0.11c-0.01-0.03-0.02-0.06-0.03-0.09
				c-0.01-0.03-0.02-0.06-0.03-0.09c-0.01-0.03-0.02-0.05-0.03-0.07c-0.01-0.03-0.02-0.05-0.03-0.07c0-0.01-0.01-0.02-0.01-0.03
				c-0.01,0-0.01-0.01-0.02-0.02c-0.01-0.01-0.01-0.01-0.02-0.02c0-0.01-0.01-0.01-0.01-0.02c-0.01-0.01-0.01-0.01-0.02-0.01
				c-0.01-0.01-0.01-0.01-0.02-0.02c-0.01,0-0.01,0-0.01-0.01c-0.01,0-0.01,0-0.01,0h-0.01h-0.01c0-0.01,0-0.01,0-0.01s0,0-0.01,0
				c0,0,0,0-0.01,0C62,0,61.99,0,61.98,0c-0.01,0-0.02,0-0.03,0c-0.01,0-0.02,0-0.03,0c-0.01,0-0.02,0-0.03,0c-0.02,0-0.03,0-0.05,0
				c-0.02,0-0.04,0-0.06,0s-0.04,0-0.06,0s-0.04,0-0.06,0c-0.03,0-0.07,0-0.11,0c-0.04,0-0.08,0-0.11,0c-0.04,0-0.08,0-0.12,0
				c-0.07,0-0.15,0-0.23,0c-0.07,0-0.15,0-0.22,0c-0.08,0-0.15,0-0.23,0c-0.08,0-0.15,0-0.23,0c-0.07,0-0.15,0-0.22,0
				c-0.15,0-0.3,0-0.45,0s-0.3,0-0.45,0c-0.15,0-0.3,0-0.45,0c-0.15,0-0.29,0-0.44,0c-0.3,0-0.59,0-0.88,0c-0.3,0-0.59,0-0.88,0
				c-0.29,0-0.57,0-0.86,0s-0.57,0-0.85,0c-0.29,0-0.57,0-0.85,0s-0.56,0-0.83,0c-0.56,0-1.1,0-1.64,0C51.07,0,50.53,0,50,0
				c-0.52,0-1.05,0-1.56,0c-0.52,0-1.03,0-1.53,0c-0.26,0-0.51,0-0.74,0c-0.12,0-0.23,0-0.33,0c-0.11,0-0.21,0-0.3,0
				c-0.18,0-0.32,0-0.44,0s-0.21,0-0.29,0c-0.08,0-0.14,0-0.19,0s-0.1,0-0.14,0c-0.28,0-0.57,0-0.83,0c-0.27,0-0.51,0-0.79,0
				c-0.93,0-2.22,0-4.92,0c-1.31,0-2.61,0-3.92,0c-1.89,0-3.78,0-5.67,0c-0.58,0-1.17,0-1.75,0c-1.66,0-2.19,0-2.67,0
				c-0.49,0-0.94,0-1.35,0c-1.17,0-2.07,0-2.81,0c-0.37,0-0.7,0-1.01,0c-0.3,0-0.59,0-0.87,0c-0.04,0-0.09,0-0.14,0
				c-0.05,0-0.11,0-0.19,0s-0.17,0-0.29,0c-0.12,0-0.26,0-0.44,0c-0.09,0-0.19,0-0.3,0c-0.1,0-0.21,0-0.33,0c-0.23,0-0.48,0-0.74,0
				c-0.5,0-1.01,0-1.53,0c-0.51,0-1.04,0-1.56,0c-0.53,0-1.07,0-1.61,0c-0.54,0-1.08,0-1.64,0C8.85,0,8.57,0,8.29,0
				C8.01,0,7.73,0,7.44,0C7.16,0,6.88,0,6.59,0S6.02,0,5.73,0S5.15,0,4.85,0C4.56,0,4.27,0,3.97,0C3.82,0,3.68,0,3.53,0
				s-0.3,0-0.45,0c-0.15,0-0.3,0-0.45,0c-0.15,0-0.3,0-0.45,0C2.11,0,2.03,0,1.96,0C1.88,0,1.81,0,1.73,0C1.66,0,1.58,0,1.5,0
				C1.43,0,1.35,0,1.28,0C1.2,0,1.12,0,1.05,0C1.01,0,0.97,0,0.93,0C0.9,0,0.86,0,0.82,0C0.78,0,0.74,0,0.71,0C0.69,0,0.67,0,0.65,0
				C0.63,0,0.61,0,0.59,0S0.55,0,0.53,0S0.5,0,0.48,0C0.47,0,0.46,0,0.45,0C0.44,0,0.43,0,0.42,0C0.41,0,0.4,0,0.39,0
				C0.38,0,0.37,0,0.36,0H0.35C0.34,0,0.34,0,0.34,0s0,0,0,0.01c0,0,0,0-0.01,0H0.32c0,0,0,0-0.01,0c0,0.01,0,0.01,0,0.01
				c-0.01,0-0.01,0-0.01,0C0.29,0.03,0.29,0.03,0.28,0.04c-0.01,0-0.01,0-0.02,0.01c0,0.01-0.01,0.01-0.01,0.02
				C0.24,0.08,0.24,0.08,0.23,0.09C0.22,0.1,0.22,0.11,0.21,0.11c0,0.01-0.01,0.02-0.01,0.03C0.19,0.16,0.18,0.18,0.17,0.21
				C0.16,0.23,0.15,0.25,0.14,0.28C0.13,0.31,0.12,0.34,0.11,0.37S0.09,0.43,0.08,0.46c0,0.04-0.01,0.07-0.02,0.11
				C0.05,0.64,0.04,0.71,0.03,0.79C0.02,0.83,0.02,0.86,0.02,0.9C0.01,0.94,0.01,0.98,0.01,1.02c0,0.04,0,0.08,0,0.11
				C0.01,1.15,0,1.17,0,1.19C0,1.2,0,1.21,0,1.22v0.01v0.01c0,0,0,0,0,0.01s0,0.02,0,0.04C0,1.3,0,1.32,0,1.33c0,0.03,0,0.06,0,0.09
				c0,0.03,0,0.06,0,0.09S0,1.57,0,1.6c0,0.06,0,0.12,0,0.18C0,1.84,0,1.9,0,1.96C0,2.08,0,2.2,0,2.32c0,0.12,0,0.24,0,0.36
				C0,2.92,0,3.16,0,3.4s0,0.48,0,0.72c0,0.16,0,0.31,0,0.47c0,0.08,0,0.17,0,0.25c0,0.23,0,0.47,0,0.71c0,0.48,0,0.96,0,1.43
				c0,0.25,0,0.49,0,0.73C0,7.96,0,8.2,0,8.44s0,0.49,0,0.73C0,9.41,0,9.65,0,9.9c0,0.01,0,0.02,0,0.03S0,9.95,0,9.96z"/>
			<path class="st0" d="M56.75,8.89c-0.19-0.04-0.39-0.07-0.59-0.1c-0.47-0.06-0.95-0.08-1.42-0.08C54.22,8.7,53.71,8.7,53.2,8.7
				c-0.82,0-1.63,0-2.44,0c-2.14,0-4.28,0-6.41,0c-2.14,0-4.28,0-6.41,0c-1.31,0-2.61,0-3.92,0c-1.89,0-3.78,0-5.67,0
				c-1.31,0-2.61,0-3.92,0c-2.13,0-4.27,0-6.41,0c-2.13,0-4.27,0-6.41,0c-0.81,0-1.62,0-2.44,0c-0.51,0-1.02,0-1.54,0.01
				c-0.47,0-0.95,0.02-1.42,0.08c-0.2,0.03-0.4,0.06-0.59,0.1c-0.1,0.03-0.21,0.06-0.31,0.09C5.28,8.99,5.26,9,5.23,9.01
				C4.85,9.14,4.5,9.34,4.35,9.75c-0.06,0.17-0.08,0.33-0.09,0.5c0,0.1,0,0.19,0,0.28c-0.01,1.48,0,2.95,0,4.43
				c0,0.31,0,0.61,0.01,0.92c0,0.3,0.02,0.61,0.05,0.91c0.04,0.42,0.11,0.82,0.21,1.22c0.27,1.06,0.73,2.13,1.31,3.05
				c0.05,0.07,0.1,0.15,0.15,0.22c0,0.01,0.01,0.02,0.02,0.03c0.21,0.31,0.45,0.58,0.78,0.79c0.37,0.24,0.77,0.36,1.18,0.47
				c0.11,0.03,0.21,0.06,0.32,0.09c0.03,0,0.06,0.01,0.09,0.02c0.14,0.03,0.27,0.06,0.4,0.09c0.29,0.07,0.57,0.12,0.86,0.17
				c0.66,0.12,1.32,0.21,1.98,0.28c2.13,0.24,4.26,0.29,6.4,0.31c0.17,0,0.34,0,0.5,0c1.97,0,3.94,0,5.91,0c1.31,0,2.61,0,3.92,0
				c1.89,0,3.78,0,5.67,0c1.31,0,2.61,0,3.92,0c1.97,0,3.94,0,5.91,0c0.17,0,0.33,0,0.5,0c2.14-0.02,4.27-0.07,6.4-0.31
				c0.66-0.07,1.32-0.16,1.98-0.28c0.29-0.05,0.58-0.1,0.86-0.17c0.13-0.03,0.27-0.06,0.4-0.09c0.03-0.01,0.06-0.02,0.09-0.03
				c0.19-0.04,0.37-0.09,0.55-0.15c0.43-0.12,0.82-0.27,1.18-0.56c0.23-0.18,0.4-0.4,0.56-0.64c0,0,0.01-0.01,0.02-0.02
				c0.04-0.08,0.09-0.15,0.14-0.22c0.59-0.92,1.04-1.99,1.31-3.05c0.1-0.4,0.17-0.81,0.22-1.22c0.03-0.3,0.04-0.61,0.04-0.91
				c0.01-0.31,0.01-0.61,0.01-0.92c0-1.48,0.01-2.95,0-4.43c0-0.09,0-0.18,0-0.28c-0.01-0.17-0.03-0.33-0.09-0.5
				c-0.15-0.41-0.5-0.61-0.88-0.75c-0.03-0.01-0.05-0.02-0.08-0.02C56.96,8.94,56.85,8.91,56.75,8.89z"/>
			<path class="st0" d="M5.31,6.95c0,0.68,0,1.35,0,2.03c0.1-0.03,0.21-0.06,0.31-0.09V6.16C5.43,6.37,5.31,6.65,5.31,6.95z"/>
			<path class="st0" d="M5.62,6.16v2.73c0.19-0.04,0.39-0.07,0.59-0.1c0.47-0.06,0.95-0.08,1.42-0.08C8.15,8.7,8.66,8.7,9.17,8.7
				c0.82,0,1.63,0,2.44,0c2.14,0,4.28,0,6.41,0c2.14,0,4.28,0,6.41,0c1.31,0,2.61,0,3.92,0c1.89,0,3.78,0,5.67,0
				c1.31,0,2.61,0,3.92,0c2.13,0,4.27,0,6.41,0c2.13,0,4.27,0,6.41,0c0.81,0,1.62,0,2.44,0c0.51,0,1.02,0,1.54,0.01
				c0.47,0,0.95,0.02,1.42,0.08c0.2,0.03,0.4,0.06,0.59,0.1V6.16c-0.19-0.21-0.46-0.34-0.77-0.34c-7.32,0-14.64,0-21.96,0
				c-1.89,0-3.78,0-5.67,0c-7.32,0-14.64,0-21.96,0C6.08,5.82,5.81,5.95,5.62,6.16z"/>
			<path class="st0" d="M56.75,6.16v2.73c0.1,0.02,0.21,0.05,0.31,0.09c0-0.68,0-1.35,0-2.03C57.06,6.65,56.95,6.37,56.75,6.16z"/>
			<path class="st0" d="M62.36,18.73c0.01,6.09,0.01,12.18,0.01,18.28c0,4.5,0,9,0,13.49c0,2.6,0,5.2,0,7.8
				c0,0.79,0.63,1.42,1.41,1.42c1.7,0,3.4,0,5.11,0c3.91,0,7.08-3.17,7.08-7.09c0-15.18,0-30.36,0-45.54C75.97,3.18,72.8,0,68.89,0
				c-2.29,0-4.57,0-6.86,0c0,0,0,0,0,0.01h0.01h0.01c0,0,0,0,0.01,0c0,0.01,0,0.01,0.01,0.01c0.01,0.01,0.01,0.01,0.02,0.02
				c0.01,0,0.01,0,0.02,0.01c0,0.01,0.01,0.01,0.01,0.02c0.01,0.01,0.01,0.01,0.02,0.02c0.01,0.01,0.01,0.02,0.02,0.02
				c0,0.01,0.01,0.02,0.01,0.03c0.01,0.02,0.02,0.04,0.03,0.07c0.01,0.02,0.02,0.04,0.03,0.07c0.01,0.03,0.02,0.06,0.03,0.09
				c0.01,0.03,0.02,0.06,0.03,0.09c0,0.04,0.01,0.07,0.02,0.11c0.01,0.07,0.02,0.14,0.03,0.22c0.01,0.04,0.01,0.07,0.01,0.11
				c0.01,0.04,0.01,0.08,0.01,0.12c0,0.04,0,0.08,0,0.11c0.01,0.02,0.01,0.04,0.01,0.06c0,0.01,0,0.02,0,0.03v0.01v0.01
				c0,0,0,0,0,0.01s0,0.02,0,0.04c0,0.01,0,0.03,0,0.04c0,0.03,0,0.06,0,0.09c0,0.03,0,0.06,0,0.09s0,0.06,0,0.09
				c0,0.06,0,0.12,0,0.18c0,0.06,0,0.12,0,0.18c0,0.12,0,0.24,0,0.36c0,0.12,0,0.24,0,0.36c0,0.24,0,0.48,0,0.72s0,0.48,0,0.72
				s0,0.48,0,0.72c0,0.23,0,0.47,0,0.71c0,0.48,0,0.96,0,1.43c0,0.25,0,0.49,0,0.73c0,0.25,0,0.49,0,0.73s0,0.49,0,0.73
				c0,0.24,0,0.48,0,0.73c0,0.01,0,0.02,0,0.03s0,0.02,0,0.03c0,0.02,0,0.04-0.01,0.06c0,2.87,0.01,5.74,0,8.62
				C62.37,18.67,62.37,18.7,62.36,18.73z"/>
			<path class="st0" d="M62.37,58.3c0,0.48,0,0.95,0,1.42h1.41C63,59.72,62.37,59.09,62.37,58.3z"/>
		</g>
		<g>
			<path class="st1" d="M62.36,18.73c0.01,0.06,0.01,0.13,0.01,0.19"/>
			<path class="st1" d="M58.11,15.88c0.53,0,1.06,0,1.59,0c0.75,0.05,1.44,0.42,1.93,0.99c0.42,0.5,0.67,1.13,0.73,1.77"/>
			<path class="st1" d="M5.31,8.98c0-0.68,0-1.35,0-2.03c0-0.3,0.12-0.58,0.31-0.79s0.46-0.34,0.77-0.34c7.32,0,14.64,0,21.96,0
				c1.89,0,3.78,0,5.67,0c7.32,0,14.64,0,21.96,0c0.31,0,0.58,0.13,0.77,0.34c0.2,0.21,0.31,0.49,0.31,0.79c0,0.68,0,1.35,0,2.03"/>
			<path class="st1" d="M62.37,58.3c0,0.79,0.63,1.42,1.41,1.42c1.7,0,3.4,0,5.11,0c3.91,0,7.08-3.17,7.08-7.09
				c0-15.18,0-30.36,0-45.54C75.97,3.18,72.8,0,68.89,0c-2.29,0-4.57,0-6.86,0"/>
			<path class="st1" d="M4.27,15.88c0,0.3,0.02,0.61,0.05,0.91c0.04,0.42,0.11,0.82,0.21,1.22c0.27,1.06,0.73,2.13,1.31,3.05
				c0.05,0.07,0.1,0.15,0.15,0.22c0,0.01,0.01,0.02,0.02,0.03c0.21,0.31,0.45,0.58,0.78,0.79c0.37,0.24,0.77,0.36,1.18,0.47
				c0.11,0.03,0.21,0.06,0.32,0.09c0.03,0,0.06,0.01,0.09,0.02c0.14,0.03,0.27,0.06,0.4,0.09c0.29,0.07,0.57,0.12,0.86,0.17
				c0.66,0.12,1.32,0.21,1.98,0.28c2.13,0.24,4.26,0.29,6.4,0.31c0.17,0,0.34,0,0.5,0c1.97,0,3.94,0,5.91,0c1.31,0,2.61,0,3.92,0
				c1.89,0,3.78,0,5.67,0c1.31,0,2.61,0,3.92,0c1.97,0,3.94,0,5.91,0c0.17,0,0.33,0,0.5,0c2.14-0.02,4.27-0.07,6.4-0.31
				c0.66-0.07,1.32-0.16,1.98-0.28c0.29-0.05,0.58-0.1,0.86-0.17c0.13-0.03,0.27-0.06,0.4-0.09c0.03-0.01,0.06-0.02,0.09-0.03
				c0.19-0.04,0.37-0.09,0.55-0.15c0.43-0.12,0.82-0.27,1.18-0.56c0.23-0.18,0.4-0.4,0.56-0.64c0,0,0.01-0.01,0.02-0.02
				c0.04-0.08,0.09-0.15,0.14-0.22c0.59-0.92,1.04-1.99,1.31-3.05c0.1-0.4,0.17-0.81,0.22-1.22c0.03-0.3,0.04-0.61,0.04-0.91
				c0.01-0.31,0.01-0.61,0.01-0.92c0-1.48,0.01-2.95,0-4.43c0-0.09,0-0.18,0-0.28c-0.01-0.17-0.03-0.33-0.09-0.5
				c-0.15-0.41-0.5-0.61-0.88-0.75c-0.03-0.01-0.05-0.02-0.08-0.02c-0.1-0.04-0.21-0.07-0.31-0.09c-0.19-0.04-0.39-0.07-0.59-0.1
				c-0.47-0.06-0.95-0.08-1.42-0.08C54.22,8.7,53.71,8.7,53.2,8.7c-0.82,0-1.63,0-2.44,0c-2.14,0-4.28,0-6.41,0
				c-2.14,0-4.28,0-6.41,0c-1.31,0-2.61,0-3.92,0c-1.89,0-3.78,0-5.67,0c-1.31,0-2.61,0-3.92,0c-2.13,0-4.27,0-6.41,0
				c-2.13,0-4.27,0-6.41,0c-0.81,0-1.62,0-2.44,0c-0.51,0-1.02,0-1.54,0.01c-0.47,0-0.95,0.02-1.42,0.08
				c-0.2,0.03-0.4,0.06-0.59,0.1c-0.1,0.03-0.21,0.06-0.31,0.09C5.28,8.99,5.26,9,5.23,9.01C4.85,9.14,4.5,9.34,4.35,9.75
				c-0.06,0.17-0.08,0.33-0.09,0.5c0,0.1,0,0.19,0,0.28c-0.01,1.48,0,2.95,0,4.43C4.26,15.27,4.26,15.57,4.27,15.88z"/>
			<polyline class="st1" points="56.75,6.16 56.75,8.89 56.75,8.9 			"/>
			<path class="st1" d="M56.68,9.47c0.01,0,0.02,0.01,0.02,0.01c0.03,0.02,0.05,0.04,0.08,0.07c0.02,0.02,0.04,0.04,0.07,0.07
				c0.02,0.03,0.04,0.05,0.06,0.08c0.03,0.03,0.05,0.06,0.07,0.1c0.02,0.03,0.04,0.07,0.07,0.11c0.02,0.04,0.04,0.09,0.06,0.13
				c0.02,0.05,0.05,0.1,0.06,0.15c0.01,0.03,0.02,0.06,0.03,0.08c0.02,0.06,0.04,0.11,0.06,0.17c0.01,0.06,0.03,0.12,0.04,0.19
				c0.02,0.06,0.03,0.13,0.04,0.19c0.02,0.1,0.04,0.2,0.05,0.29c0.01,0.1,0.02,0.19,0.03,0.29c0.01,0.1,0.01,0.19,0.02,0.29
				c0,0.05,0.01,0.09,0.01,0.14c0,0.05,0,0.1,0.01,0.14c0,0.07,0,0.14,0.01,0.21c0,0.07,0,0.14,0.01,0.21
				c0,0.09,0.01,0.18,0.01,0.27c0.01,0.09,0.01,0.18,0.02,0.26c0,0.11,0.01,0.22,0.02,0.33c0.02,0.27,0.03,0.52,0.04,0.77
				c0.01,0.17,0.02,0.34,0.03,0.51"/>
			<line class="st1" x1="63.78" y1="59.72" x2="62.37" y2="59.72"/>
			<path class="st1" d="M0,14.51c0.01,0,0.01,0.01,0.01,0.01c0,0.01,0,0.02,0,0.03s0,0.03,0,0.04c0,0.02,0,0.04,0.01,0.06
				c0,0.02,0,0.05,0.01,0.07c0,0.02,0.01,0.04,0.01,0.06c0.01,0.02,0.01,0.05,0.02,0.07c0.01,0.04,0.03,0.09,0.04,0.13
				c0.02,0.04,0.04,0.09,0.06,0.13s0.05,0.08,0.07,0.12c0.06,0.09,0.12,0.16,0.19,0.23c0.07,0.07,0.14,0.13,0.22,0.19
				c0.04,0.02,0.08,0.05,0.12,0.07c0.05,0.02,0.09,0.04,0.13,0.06c0.04,0.01,0.09,0.03,0.13,0.04c0.04,0.01,0.09,0.02,0.13,0.03
				c0.02,0.01,0.04,0.01,0.06,0.01c0.02,0.01,0.05,0.01,0.07,0.01s0.04,0,0.06,0c0.01,0.01,0.02,0.01,0.03,0.01h0.01
				c0.01,0,0.01,0,0.01,0s0,0,0.01,0h0.01c0,0,0,0,0.01,0h0.01c0.01,0,0.02,0,0.03,0s0.03,0,0.04,0s0.02,0,0.03,0
				c0.02,0,0.04,0,0.06,0c0.02,0,0.05,0,0.07,0c0.04,0,0.08,0,0.12,0c0.05,0,0.09,0,0.13,0s0.09,0,0.13,0s0.08,0,0.13,0
				c0.08,0,0.17,0,0.25,0c0.08,0,0.17,0,0.25,0c0.08,0,0.17,0,0.25,0c0.09,0,0.17,0,1.34,0"/>
			<path class="st1" d="M0,9.96c0,0.06,0,0.12,0,0.18c0,0.21,0,0.41,0,0.62c0,0.2,0,0.41,0,0.62c0,0.2,0,0.41,0,0.61
				c0,0.07,0,0.13,0,0.2"/>
			<polyline class="st1" points="5.62,6.16 5.62,8.89 5.62,8.9 			"/>
			<path class="st1" d="M5.69,9.47c-0.01,0-0.02,0.01-0.02,0.01C5.64,9.5,5.62,9.52,5.59,9.55C5.57,9.57,5.55,9.59,5.52,9.62
				C5.5,9.65,5.48,9.67,5.46,9.7C5.43,9.73,5.41,9.76,5.39,9.8C5.37,9.83,5.35,9.87,5.32,9.91C5.3,9.95,5.28,10,5.26,10.04
				c-0.02,0.05-0.04,0.1-0.06,0.15c-0.01,0.03-0.02,0.06-0.03,0.08c-0.02,0.06-0.04,0.11-0.05,0.17c-0.02,0.06-0.04,0.12-0.05,0.19
				c-0.02,0.06-0.03,0.13-0.04,0.19c-0.02,0.1-0.04,0.2-0.05,0.29c-0.01,0.1-0.02,0.19-0.03,0.29c-0.01,0.1-0.01,0.19-0.02,0.29
				c0,0.05-0.01,0.09-0.01,0.14c0,0.05,0,0.1-0.01,0.14c0,0.07,0,0.14-0.01,0.21c0,0.07,0,0.14-0.01,0.21
				c0,0.09-0.01,0.18-0.01,0.27c-0.01,0.09-0.01,0.18-0.02,0.26c0,0.11-0.01,0.22-0.02,0.33c-0.02,0.27-0.03,0.52-0.04,0.77
				c-0.01,0.17-0.02,0.34-0.03,0.51"/>
			<path class="st1" d="M36.85,93.55c-0.19,0-0.38,0-0.57,0c-0.85,0-1.7,0-2.55,0c-1.89,0-3.78,0-5.67,0c-0.85,0-1.7,0-2.54,0
				c-1.81,0-3.61-0.01-5.41-0.02c-0.93,0-1.86-0.01-2.79-0.03c-0.48,0-0.96-0.01-1.44-0.02c-1.19-0.02-2.39-0.05-3.59-0.09
				c-2.38-0.06-4.76-0.16-7.13-0.28c-0.75-0.04-1.49-0.08-2.23-0.12c-0.37-0.02-0.74-0.04-1.11-0.06c-0.19-0.01-0.38-0.02-0.57-0.03
				c-0.15-0.01-0.3-0.01-0.45-0.05c-0.33-0.07-0.69-0.31-0.78-0.67C0.01,92.12,0,92.06,0,92c0-0.05,0-0.1,0-0.15c0-0.1,0-0.2,0-0.3
				c0-4.41,0-8.82,0-13.23c0-4.41,0-8.82,0-13.23c0-8.81,0-17.63,0-26.45c0-4.4,0-8.81,0-13.22c0-3.64,0-7.27,0-10.91
				c0-0.77,0-1.55,0-2.32"/>
			<path class="st1" d="M36.85,93.55c0.2,0,0.39,0,0.58,0c1.62,0,3.22-0.01,4.83-0.02c0.93,0,1.87-0.01,2.8-0.03
				c0.48,0,0.95-0.01,1.43-0.02c1.29-0.02,2.57-0.06,3.85-0.09c2.38-0.07,4.75-0.17,7.12-0.29c0.78-0.04,1.57-0.09,2.35-0.13
				c0.39-0.02,0.78-0.04,1.18-0.06c0.05-0.01,0.1-0.01,0.15-0.01c0.04,0,0.07-0.01,0.1-0.01c0.33-0.01,0.6-0.07,0.86-0.31
				c0.19-0.17,0.27-0.35,0.27-0.6c0-0.11,0-0.21,0-0.32c0-0.22,0-0.44,0-0.66c0-4.5,0-9,0-13.5s0-8.99,0-13.49c0-1.43,0-2.86,0-4.29
				c0-0.47,0-0.94,0-1.42c0-2.6,0-5.2,0-7.8c0-4.49,0-8.99,0-13.49c0-6.1,0-12.19-0.01-18.28c0.01-0.03,0.01-0.06,0-0.09
				c0.01-2.88,0-5.75,0-8.62c0.01-0.02,0.01-0.04,0.01-0.06c0-0.01,0-0.02,0-0.03s0-0.02,0-0.03c0-0.25,0-0.49,0-0.73
				c0-0.24,0-0.49,0-0.73s0-0.48,0-0.73c0-0.24,0-0.48,0-0.73c0-0.47,0-0.95,0-1.43c0-0.24,0-0.48,0-0.71c0-0.24,0-0.48,0-0.72
				s0-0.48,0-0.72s0-0.48,0-0.72c0-0.12,0-0.24,0-0.36c0-0.12,0-0.24,0-0.36c0-0.06,0-0.12,0-0.18c0-0.06,0-0.12,0-0.18
				c0-0.03,0-0.06,0-0.09s0-0.06,0-0.09c0-0.03,0-0.06,0-0.09c0-0.01,0-0.03,0-0.04c0-0.02,0-0.03,0-0.04s0-0.01,0-0.01V1.23V1.22
				c0-0.01,0-0.02,0-0.03c0-0.02,0-0.04-0.01-0.06c0-0.03,0-0.07,0-0.11c0-0.04,0-0.08-0.01-0.12c0-0.04,0-0.07-0.01-0.11
				c-0.01-0.08-0.02-0.15-0.03-0.22c-0.01-0.04-0.02-0.07-0.02-0.11c-0.01-0.03-0.02-0.06-0.03-0.09c-0.01-0.03-0.02-0.06-0.03-0.09
				c-0.01-0.03-0.02-0.05-0.03-0.07c-0.01-0.03-0.02-0.05-0.03-0.07c0-0.01-0.01-0.02-0.01-0.03c-0.01,0-0.01-0.01-0.02-0.02
				c-0.01-0.01-0.01-0.01-0.02-0.02c0-0.01-0.01-0.01-0.01-0.02c-0.01-0.01-0.01-0.01-0.02-0.01c-0.01-0.01-0.01-0.01-0.02-0.02
				c-0.01,0-0.01,0-0.01-0.01c-0.01,0-0.01,0-0.01,0h-0.01h-0.01c0-0.01,0-0.01,0-0.01s0,0-0.01,0c0,0,0,0-0.01,0
				C62,0,61.99,0,61.98,0c-0.01,0-0.02,0-0.03,0c-0.01,0-0.02,0-0.03,0c-0.01,0-0.02,0-0.03,0c-0.02,0-0.03,0-0.05,0
				c-0.02,0-0.04,0-0.06,0s-0.04,0-0.06,0s-0.04,0-0.06,0c-0.03,0-0.07,0-0.11,0c-0.04,0-0.08,0-0.11,0c-0.04,0-0.08,0-0.12,0
				c-0.07,0-0.15,0-0.23,0c-0.07,0-0.15,0-0.22,0c-0.08,0-0.15,0-0.23,0c-0.08,0-0.15,0-0.23,0c-0.07,0-0.15,0-0.22,0
				c-0.15,0-0.3,0-0.45,0s-0.3,0-0.45,0c-0.15,0-0.3,0-0.45,0c-0.15,0-0.29,0-0.44,0c-0.3,0-0.59,0-0.88,0c-0.3,0-0.59,0-0.88,0
				c-0.29,0-0.57,0-0.86,0s-0.57,0-0.85,0c-0.29,0-0.57,0-0.85,0s-0.56,0-0.83,0c-0.56,0-1.1,0-1.64,0C51.07,0,50.53,0,50,0
				c-0.52,0-1.05,0-1.56,0c-0.52,0-1.03,0-1.53,0c-0.26,0-0.51,0-0.74,0c-0.12,0-0.23,0-0.33,0c-0.11,0-0.21,0-0.3,0
				c-0.18,0-0.32,0-0.44,0s-0.21,0-0.29,0c-0.08,0-0.14,0-0.19,0s-0.1,0-0.14,0c-0.28,0-0.57,0-0.83,0c-0.27,0-0.51,0-0.79,0
				c-0.93,0-2.22,0-4.92,0c-1.31,0-2.61,0-3.92,0c-1.89,0-3.78,0-5.67,0c-0.58,0-1.17,0-1.75,0c-1.66,0-2.19,0-2.67,0
				c-0.49,0-0.94,0-1.35,0c-1.17,0-2.07,0-2.81,0c-0.37,0-0.7,0-1.01,0c-0.3,0-0.59,0-0.87,0c-0.04,0-0.09,0-0.14,0
				c-0.05,0-0.11,0-0.19,0s-0.17,0-0.29,0c-0.12,0-0.26,0-0.44,0c-0.09,0-0.19,0-0.3,0c-0.1,0-0.21,0-0.33,0c-0.23,0-0.48,0-0.74,0
				c-0.5,0-1.01,0-1.53,0c-0.51,0-1.04,0-1.56,0c-0.53,0-1.07,0-1.61,0c-0.54,0-1.08,0-1.64,0C8.85,0,8.57,0,8.29,0
				C8.01,0,7.73,0,7.44,0C7.16,0,6.88,0,6.59,0S6.02,0,5.73,0S5.15,0,4.85,0C4.56,0,4.27,0,3.97,0C3.82,0,3.68,0,3.53,0
				s-0.3,0-0.45,0c-0.15,0-0.3,0-0.45,0c-0.15,0-0.3,0-0.45,0C2.11,0,2.03,0,1.96,0C1.88,0,1.81,0,1.73,0C1.66,0,1.58,0,1.5,0
				C1.43,0,1.35,0,1.28,0C1.2,0,1.12,0,1.05,0C1.01,0,0.97,0,0.93,0C0.9,0,0.86,0,0.82,0C0.78,0,0.74,0,0.71,0C0.69,0,0.67,0,0.65,0
				C0.63,0,0.61,0,0.59,0S0.55,0,0.53,0S0.5,0,0.48,0C0.47,0,0.46,0,0.45,0C0.44,0,0.43,0,0.42,0C0.41,0,0.4,0,0.39,0
				C0.38,0,0.37,0,0.36,0H0.35C0.34,0,0.34,0,0.34,0s0,0,0,0.01c0,0,0,0-0.01,0H0.32c0,0,0,0-0.01,0c0,0.01,0,0.01,0,0.01
				c-0.01,0-0.01,0-0.01,0C0.29,0.03,0.29,0.03,0.28,0.04c-0.01,0-0.01,0-0.02,0.01c0,0.01-0.01,0.01-0.01,0.02
				C0.24,0.08,0.24,0.08,0.23,0.09C0.22,0.1,0.22,0.11,0.21,0.11c0,0.01-0.01,0.02-0.01,0.03C0.19,0.16,0.18,0.18,0.17,0.21
				C0.16,0.23,0.15,0.25,0.14,0.28C0.13,0.31,0.12,0.34,0.11,0.37S0.09,0.43,0.08,0.46c0,0.04-0.01,0.07-0.02,0.11
				C0.05,0.64,0.04,0.71,0.03,0.79C0.02,0.83,0.02,0.86,0.02,0.9C0.01,0.94,0.01,0.98,0.01,1.02c0,0.04,0,0.08,0,0.11
				C0.01,1.15,0,1.17,0,1.19C0,1.2,0,1.21,0,1.22v0.01v0.01c0,0,0,0,0,0.01s0,0.02,0,0.04C0,1.3,0,1.32,0,1.33c0,0.03,0,0.06,0,0.09
				c0,0.03,0,0.06,0,0.09S0,1.57,0,1.6c0,0.06,0,0.12,0,0.18C0,1.84,0,1.9,0,1.96C0,2.08,0,2.2,0,2.32c0,0.12,0,0.24,0,0.36
				C0,2.92,0,3.16,0,3.4s0,0.48,0,0.72c0,0.16,0,0.31,0,0.47c0,0.08,0,0.17,0,0.25c0,0.23,0,0.47,0,0.71c0,0.48,0,0.96,0,1.43
				c0,0.25,0,0.49,0,0.73C0,7.96,0,8.2,0,8.44s0,0.49,0,0.73C0,9.41,0,9.65,0,9.9c0,0.01,0,0.02,0,0.03s0,0.02,0,0.03
				C0,9.98,0.01,10,0.01,10.02"/>
		</g>
	</g>
	<text transform="matrix(1 0 0 1 24.1399 42.1147)" class="st2 st3">110</text>
</g>
</svg>
