<?xml version="1.0" encoding="utf-8"?>
<!-- Generator: Adobe Illustrator 26.5.0, SVG Export Plug-In . SVG Version: 6.00 Build 0)  -->
<svg version="1.1" xmlns="http://www.w3.org/2000/svg" xmlns:xlink="http://www.w3.org/1999/xlink" x="0px" y="0px"
	 viewBox="0 0 64.63 93.54" style="enable-background:new 0 0 64.63 93.54;" xml:space="preserve">
<style type="text/css">
	.st0{fill:#F1F1F2;}
	.st1{fill:none;stroke:#404041;stroke-width:0.35;stroke-linecap:round;stroke-linejoin:round;}
	.st2{font-family:'Inter18pt-Medium';}
	.st3{font-size:10px;}
</style>
<g id="Default">
</g>
<g id="_x30_3_x5F_LINEA_FINA">
	<g id="XMLID_00000011730705185825409700000013694134670393202319_">
		<g>
			<path class="st0" d="M0,91.85c0,0.06,0,0.12,0,0.18c0,0.05,0,0.09,0.01,0.13c0.01,0.02,0.01,0.04,0.02,0.07
				c-0.01,0.01,0,0.03,0.01,0.04c0.01,0.02,0.01,0.04,0.03,0.07c0,0.01,0,0.02,0.01,0.03c0.01,0.02,0.02,0.03,0.03,0.05
				c0.01,0.03,0.03,0.05,0.05,0.07c0.02,0.03,0.04,0.06,0.07,0.09c0.03,0.03,0.07,0.06,0.11,0.09c0.05,0.04,0.1,0.07,0.15,0.1
				c0.03,0.02,0.07,0.03,0.1,0.04c0.01,0,0.01,0.01,0.02,0.01h0.01c0.08,0.04,0.16,0.06,0.25,0.07c0.08,0.02,0.15,0.02,0.23,0.03
				c0.01,0,0.02,0,0.03,0c0.04,0,0.08,0,0.12,0.01c0.03,0,0.06,0,0.1,0c0.07,0,0.13,0.01,0.2,0.01c0.14,0.01,0.28,0.02,0.42,0.02
				c0.27,0.02,0.53,0.03,0.8,0.05c1.08,0.06,2.16,0.12,3.25,0.17c1,0.05,2.01,0.09,3.02,0.13c0.32,0.02,0.64,0.03,0.96,0.04
				c1.2,0.04,2.4,0.07,3.6,0.11h0.01c0.11,0,0.21,0.01,0.32,0.01c0.32,0.01,0.63,0.01,0.95,0.02c1.16,0.02,2.31,0.04,3.47,0.05
				l13.74,0.01c1.21-0.01,2.42-0.03,3.64-0.05c0.15-0.01,0.31-0.01,0.47-0.01c0.07,0,0.15-0.01,0.23-0.01c0.07,0,0.14,0,0.2,0
				c0.03,0,0.07,0,0.1,0c0.76-0.02,1.5-0.04,2.25-0.07c0.52-0.01,1.03-0.02,1.55-0.05c0.03,0,0.07,0,0.1,0
				c0.34-0.01,0.67-0.02,1.01-0.03c1.04-0.04,2.08-0.09,3.12-0.14c1.12-0.05,2.24-0.11,3.36-0.17c0.59-0.04,1.17-0.07,1.76-0.1h0.01
				c0.1-0.01,0.21-0.02,0.32-0.04c0.02,0,0.05,0,0.07-0.01c0.04-0.02,0.08-0.03,0.12-0.04c0.02-0.01,0.04-0.01,0.05-0.02
				c0.01-0.01,0.01-0.01,0.01-0.01c0.02-0.01,0.04-0.02,0.06-0.03c0.04-0.02,0.08-0.04,0.12-0.07c0.01,0,0.01,0,0.01-0.01
				c0.05-0.03,0.1-0.08,0.15-0.12c0-0.01,0.01-0.01,0.01-0.01c0.04-0.05,0.08-0.1,0.11-0.16c0.02-0.04,0.04-0.07,0.05-0.11
				c0.04-0.09,0.05-0.18,0.05-0.27c0-0.04,0-0.08,0-0.12c0-0.08,0-0.15,0-0.22v-0.01c0-0.18,0-0.36,0-0.54c0-1.68,0-3.36,0-5.04
				c0-8.46,0-16.91,0-25.36v-0.01c0-0.33,0-0.67,0-1c0-0.47,0-0.95,0-1.42c0-13.13,0-26.25,0-39.38c0-0.74-0.25-1.48-0.74-2.05
				c-0.49-0.57-1.17-0.94-1.93-0.99h-1.59c-0.01,0.52-0.05,1.05-0.14,1.57c-0.15,0.81-0.44,1.66-0.78,2.4
				c-0.18,0.4-0.39,0.78-0.62,1.15c-0.06,0.1-0.12,0.18-0.18,0.27c0,0.01-0.01,0.02-0.02,0.04c-0.07,0.1-0.13,0.18-0.2,0.27
				c-0.06,0.08-0.13,0.16-0.21,0.23c-0.01,0.01-0.01,0.01-0.01,0.01c-0.07,0.07-0.15,0.14-0.24,0.2l-0.01,0.01
				c-0.08,0.06-0.18,0.12-0.28,0.17c0,0-0.01,0-0.01,0.01c-0.1,0.05-0.2,0.1-0.3,0.13c0,0-0.01,0-0.01,0.01
				c-0.1,0.04-0.2,0.08-0.31,0.11c-0.03,0.01-0.06,0.01-0.08,0.02c-0.19,0.06-0.39,0.11-0.58,0.16c-0.02,0.01-0.04,0.01-0.06,0.02
				c-0.04,0.01-0.08,0.02-0.12,0.03c-0.16,0.04-0.32,0.07-0.48,0.11c-3.06,0.65-6.95,0.74-10.03,0.73H18.35
				c-0.74,0-1.54-0.01-2.36-0.03c-0.83-0.02-1.68-0.05-2.52-0.11c-0.42-0.03-0.84-0.06-1.26-0.1c-0.84-0.08-1.67-0.19-2.45-0.32
				c-0.39-0.07-0.77-0.14-1.14-0.23c-0.07-0.02-0.15-0.04-0.22-0.06c-0.03,0-0.07-0.01-0.1-0.02c-0.02-0.01-0.04-0.01-0.06-0.01
				c-0.13-0.04-0.26-0.07-0.39-0.11c-0.13-0.04-0.27-0.08-0.4-0.12c-0.19-0.07-0.36-0.14-0.52-0.24c-0.05-0.02-0.1-0.05-0.15-0.08
				c-0.11-0.06-0.2-0.14-0.29-0.22c-0.1-0.08-0.19-0.17-0.27-0.27V21.6c-0.08-0.1-0.16-0.2-0.24-0.32
				c-0.11-0.16-0.21-0.32-0.31-0.49c-0.21-0.35-0.39-0.7-0.55-1.07c-0.32-0.71-0.59-1.54-0.73-2.32c-0.09-0.5-0.12-1.01-0.12-1.52
				H4.25c-1.16,0-1.25,0-1.34,0c-0.08,0-0.16,0-0.25,0c-0.08,0-0.16,0-0.25,0c-0.08,0-0.17,0-0.25,0c-0.04,0-0.08,0-0.13,0
				c-0.04,0-0.08,0-0.12,0c-0.05,0-0.09,0-0.13,0s-0.09,0-0.13,0c-0.02,0-0.04,0-0.06,0c-0.03,0-0.05,0-0.07,0
				c-0.01,0-0.02,0-0.03,0s-0.02,0-0.03,0c-0.01,0-0.02,0-0.03,0s-0.02,0-0.02,0H1.4H1.39c-0.01,0-0.01,0-0.01,0
				c-0.01,0-0.01,0-0.02,0s-0.02,0-0.03-0.01c-0.02,0-0.04,0-0.06,0s-0.04,0-0.06-0.01c-0.03,0-0.05,0-0.07-0.01
				c-0.04-0.01-0.08-0.02-0.13-0.03c-0.04-0.01-0.08-0.03-0.13-0.04c-0.04-0.02-0.08-0.04-0.12-0.06c-0.04-0.02-0.09-0.05-0.13-0.07
				c-0.08-0.06-0.15-0.12-0.22-0.19c-0.07-0.07-0.13-0.14-0.18-0.23c-0.03-0.04-0.05-0.08-0.07-0.12c-0.03-0.04-0.05-0.09-0.06-0.13
				c-0.02-0.04-0.04-0.09-0.05-0.13c0-0.02-0.01-0.05-0.02-0.07c0-0.02,0-0.04-0.01-0.06c0-0.02-0.01-0.05-0.01-0.07
				c0-0.02,0-0.04-0.01-0.06c0,7.42,0,14.85,0,22.27c0,4.11,0,8.22,0,12.33c0,4.12,0,8.23,0,12.34c0,8.22,0,16.45,0,24.67
				c0,1.63,0,3.25,0,4.88v0.01c0,0.18,0,0.36,0,0.54c0,0.07,0,0.13,0,0.21V91.85z"/>
			<path class="st0" d="M0,12.19c0,0.8,0,1.6,0,2.4c0.01,0.02,0.01,0.04,0.01,0.06c0,0.02,0.01,0.05,0.01,0.07
				c0.01,0.02,0.01,0.04,0.01,0.06c0.01,0.02,0.02,0.05,0.02,0.07c0.01,0.04,0.03,0.09,0.05,0.13c0.01,0.04,0.03,0.09,0.06,0.13
				c0.02,0.04,0.04,0.08,0.07,0.12c0.05,0.09,0.11,0.16,0.18,0.23c0.07,0.07,0.14,0.13,0.22,0.19c0.04,0.02,0.09,0.05,0.13,0.07
				c0.04,0.02,0.08,0.04,0.12,0.06c0.05,0.01,0.09,0.03,0.13,0.04c0.05,0.01,0.09,0.02,0.13,0.03c0.02,0.01,0.04,0.01,0.07,0.01
				c0.02,0.01,0.04,0.01,0.06,0.01s0.04,0,0.06,0c0.01,0.01,0.02,0.01,0.03,0.01s0.01,0,0.02,0c0,0,0,0,0.01,0H1.4h0.01
				c0,0,0.01,0,0.02,0s0.02,0,0.03,0c0.01,0,0.02,0,0.03,0s0.02,0,0.03,0c0.02,0,0.04,0,0.07,0c0.02,0,0.04,0,0.06,0
				c0.04,0,0.09,0,0.13,0s0.08,0,0.13,0c0.04,0,0.08,0,0.12,0c0.05,0,0.09,0,0.13,0c0.08,0,0.17,0,0.25,0c0.09,0,0.17,0,0.25,0
				c0.09,0,0.17,0,0.25,0c0.09,0,0.18,0,1.34,0h0.02c-0.02-0.3-0.02-0.61-0.02-0.92c0-1.45,0-2.89,0-4.34c0-0.06,0-0.12,0-0.19
				c0-0.12,0.01-0.24,0.02-0.36c0.02-0.2,0.07-0.36,0.16-0.51c0.04-0.05,0.08-0.1,0.12-0.15c0.06-0.06,0.12-0.12,0.19-0.17
				c0.07-0.05,0.14-0.09,0.21-0.12c0.11-0.06,0.23-0.1,0.35-0.14c0-0.68,0-1.35,0-2.03c0-0.3,0.11-0.58,0.31-0.79
				C5.8,5.95,6.07,5.82,6.39,5.82c3.98,0,7.97,0,11.96,0h13.74c4.18,0,8.36,0,12.54,0c0.31,0,0.58,0.13,0.78,0.34
				c0.19,0.21,0.31,0.49,0.31,0.79c0,0.68,0,1.35,0,2.03c0.22,0.07,0.44,0.17,0.62,0.31c0.22,0.17,0.33,0.37,0.38,0.63
				c0.03,0.15,0.04,0.29,0.05,0.43c0,0.08,0,0.16,0,0.23c0,1.46,0,2.92,0,4.38c0,0.31,0,0.61-0.01,0.92h1.59
				c0.76,0.05,1.44,0.42,1.93,0.99c0.49,0.57,0.74,1.31,0.74,2.05c0-2.97,0-5.93,0-8.9c0-0.02,0-0.04,0-0.06c0-0.01,0-0.02,0-0.03
				s0-0.02,0-0.03c0-0.25,0-0.49,0-0.73c0-0.24,0-0.49,0-0.73s0-0.48,0-0.73c0-0.24,0-0.48,0-0.73c0-0.47,0-0.95,0-1.43
				c0-0.24,0-0.48,0-0.71c0-0.24,0-0.48,0-0.72s0-0.48,0-0.72s0-0.48,0-0.72c0-0.12,0-0.24,0-0.36c0-0.12,0-0.24,0-0.36
				c0-0.06,0-0.12,0-0.18c0-0.06,0-0.12,0-0.18c0-0.03,0-0.06,0-0.09s0-0.06,0-0.09c0-0.03,0-0.06,0-0.09c0-0.01,0-0.03,0-0.04
				c0-0.02,0-0.03,0-0.04s0-0.01,0-0.01V1.23V1.22c0-0.01,0-0.02,0-0.03c0-0.02,0-0.04,0-0.06c0-0.03,0-0.07-0.01-0.11
				c0-0.04,0-0.08,0-0.12C51,0.86,51,0.83,51,0.79c-0.01-0.08-0.02-0.15-0.04-0.22c0-0.04-0.01-0.07-0.02-0.11
				c-0.01-0.03-0.02-0.06-0.02-0.09c-0.01-0.03-0.02-0.06-0.03-0.09c-0.01-0.03-0.02-0.05-0.03-0.07c-0.01-0.03-0.02-0.05-0.03-0.07
				c-0.01-0.01-0.01-0.02-0.02-0.03c0,0-0.01-0.01-0.02-0.02c0-0.01-0.01-0.01-0.01-0.02c-0.01-0.01-0.01-0.01-0.02-0.02
				c0-0.01-0.01-0.01-0.02-0.01c0-0.01-0.01-0.01-0.01-0.02h-0.01c0,0-0.01,0-0.01-0.01c0,0,0,0-0.01,0c-0.01,0-0.01,0-0.01,0
				C50.69,0,50.68,0,50.68,0c-0.08,0-0.17,0-0.25,0c-0.02,0-0.03,0-0.05,0s-0.04,0-0.06,0c-0.04,0-0.08,0-0.11,0
				c-0.04,0-0.08,0-0.12,0c-0.04,0-0.08,0-0.11,0c-0.08,0-0.16,0-0.23,0c-0.08,0-0.15,0-0.23,0c-0.07,0-0.15,0-0.23,0
				c-0.07,0-0.15,0-0.22,0c-0.08,0-0.15,0-0.23,0c-0.15,0-0.3,0-0.45,0c-0.15,0-0.3,0-0.45,0c-0.15,0-0.29,0-0.44,0
				c-0.15,0-0.3,0-0.45,0c-0.29,0-0.59,0-0.88,0s-0.58,0-0.87,0c-0.29,0-0.58,0-0.87,0c-0.28,0-0.57,0-0.85,0s-0.56,0-0.84,0
				s-0.56,0-0.84,0c-0.55,0-1.1,0-1.64,0s-1.07,0-1.6,0c-0.53,0-1.05,0-1.57,0c-0.51,0-1.02,0-1.53,0c-0.25,0-0.5,0-0.74,0
				c-0.11,0-0.22,0-0.33,0c-0.1,0-0.2,0-0.29,0c-0.18,0-0.33,0-0.45,0c-0.11,0-0.21,0-0.29,0c-0.07,0-0.13,0-0.19,0
				c-0.05,0-0.09,0-0.14,0c-0.27,0-0.56,0-0.83,0c-0.07,0-0.14,0-0.21,0H18.35c-0.16,0-0.31,0-0.47,0c-0.04,0-0.08,0-0.14,0
				c-0.05,0-0.11,0-0.19,0c-0.07,0-0.17,0-0.29,0C17.14,0,17,0,16.82,0c-0.09,0-0.19,0-0.29,0c-0.11,0-0.22,0-0.34,0
				c-0.23,0-0.48,0-0.73,0c-0.51,0-1.02,0-1.53,0c-0.52,0-1.04,0-1.57,0c-0.53,0-1.06,0-1.6,0S9.67,0,9.12,0C8.84,0,8.56,0,8.28,0
				C8,0,7.72,0,7.44,0C7.15,0,6.87,0,6.58,0C6.3,0,6.01,0,5.72,0S5.14,0,4.85,0S4.26,0,3.97,0c-0.15,0-0.3,0-0.45,0s-0.3,0-0.44,0
				c-0.15,0-0.3,0-0.45,0c-0.15,0-0.3,0-0.45,0C2.1,0,2.03,0,1.95,0C1.88,0,1.8,0,1.72,0C1.65,0,1.57,0,1.5,0C1.42,0,1.35,0,1.27,0
				S1.12,0,1.04,0C1,0,0.97,0,0.93,0C0.89,0,0.85,0,0.81,0C0.78,0,0.74,0,0.7,0C0.68,0,0.66,0,0.64,0C0.62,0,0.6,0,0.58,0
				C0.57,0,0.55,0,0.53,0S0.49,0,0.47,0C0.46,0,0.45,0,0.44,0S0.42,0,0.41,0S0.39,0,0.38,0C0.37,0,0.36,0,0.36,0H0.35
				C0.34,0,0.34,0,0.34,0C0.33,0,0.33,0,0.33,0.01H0.32c0,0,0,0-0.01,0C0.3,0.02,0.3,0.02,0.3,0.02H0.29
				C0.28,0.03,0.28,0.03,0.27,0.04c0,0-0.01,0-0.01,0.01C0.25,0.06,0.25,0.06,0.24,0.07C0.23,0.08,0.23,0.08,0.22,0.09
				c0,0.01-0.01,0.02-0.01,0.02C0.2,0.12,0.2,0.13,0.19,0.14C0.18,0.16,0.17,0.18,0.16,0.21C0.15,0.23,0.14,0.25,0.13,0.28
				S0.11,0.34,0.1,0.37S0.09,0.43,0.08,0.46C0.07,0.5,0.06,0.53,0.06,0.57C0.04,0.64,0.03,0.71,0.02,0.79
				c0,0.04-0.01,0.07-0.01,0.11c0,0.04,0,0.08-0.01,0.12C0,1.06,0,1.1,0,1.13c0,0.02,0,0.04,0,0.06C0,1.2,0,1.21,0,1.22v0.01v0.01
				c0,0,0,0,0,0.01s0,0.02,0,0.04C0,1.3,0,1.32,0,1.33c0,0.03,0,0.06,0,0.09c0,0.03,0,0.06,0,0.09S0,1.57,0,1.6
				c0,0.06,0,0.12,0,0.18C0,1.84,0,1.9,0,1.96C0,2.08,0,2.2,0,2.32c0,0.12,0,0.24,0,0.36C0,2.92,0,3.16,0,3.4s0,0.48,0,0.72
				S0,4.6,0,4.84c0,0.23,0,0.47,0,0.71c0,0.48,0,0.96,0,1.43c0,0.25,0,0.49,0,0.73C0,7.96,0,8.2,0,8.44s0,0.49,0,0.73
				C0,9.41,0,9.65,0,9.9c0,0.01,0,0.02,0,0.03s0,0.02,0,0.03C0,9.98,0,10,0,10.02c0,0.04,0,0.08,0,0.12c0,0.21,0,0.41,0,0.62
				c0,0.2,0,0.41,0,0.62c0,0.2,0,0.41,0,0.61C0,12.06,0,12.12,0,12.19z"/>
			<path class="st0" d="M0.04,92.27c0,0.01,0,0.01,0,0.02c0.01,0.02,0.01,0.04,0.03,0.05C0.05,92.31,0.05,92.29,0.04,92.27z"/>
			<path class="st0" d="M0.23,92.58c-0.03-0.03-0.05-0.06-0.07-0.09C0.18,92.52,0.2,92.55,0.23,92.58z"/>
			<path class="st0" d="M0.34,92.67c-0.04-0.03-0.08-0.06-0.11-0.09C0.27,92.62,0.3,92.65,0.34,92.67z"/>
			<path class="st0" d="M0.49,92.77c-0.05-0.03-0.1-0.06-0.15-0.1C0.39,92.71,0.44,92.74,0.49,92.77z"/>
			<path class="st0" d="M0.62,92.82c0.02,0.02,0.05,0.02,0.07,0.03c0.06,0.02,0.12,0.03,0.18,0.04C0.78,92.88,0.7,92.86,0.62,92.82z
				"/>
			<path class="st0" d="M4.25,10.62c0,1.45,0,2.89,0,4.34c0,0.31,0,0.62,0.02,0.92c0,0.51,0.03,1.02,0.12,1.52
				c0.14,0.78,0.41,1.61,0.73,2.32c0.16,0.37,0.34,0.72,0.55,1.07c0.1,0.17,0.2,0.33,0.31,0.49c0.08,0.12,0.16,0.22,0.24,0.32v0.01
				c0.08,0.1,0.17,0.19,0.27,0.27c0.09,0.08,0.19,0.16,0.29,0.22c0.05,0.03,0.1,0.06,0.15,0.08c0.16,0.1,0.33,0.17,0.52,0.24
				c0.13,0.04,0.27,0.08,0.4,0.12c0.13,0.04,0.26,0.07,0.39,0.11c0.02,0,0.04,0,0.06,0.01c0.03,0.01,0.07,0.02,0.1,0.02
				c0.07,0.02,0.15,0.04,0.22,0.06c0.37,0.09,0.75,0.16,1.14,0.23c0.78,0.13,1.61,0.24,2.45,0.32c0.42,0.04,0.84,0.07,1.26,0.1
				c0.85,0.05,1.7,0.09,2.52,0.11s1.62,0.03,2.36,0.03h13.74c3.08,0.01,6.97-0.08,10.03-0.73c0.16-0.04,0.32-0.07,0.48-0.11
				c0.04-0.01,0.08-0.02,0.12-0.03c0.02-0.01,0.04-0.01,0.06-0.02c0.19-0.05,0.38-0.1,0.58-0.16c0.02-0.01,0.05-0.01,0.08-0.02
				c0.11-0.03,0.21-0.07,0.31-0.11c0-0.01,0.01-0.01,0.01-0.01c0.1-0.03,0.2-0.08,0.3-0.13c0-0.01,0.01-0.01,0.01-0.01
				c0.1-0.05,0.2-0.11,0.28-0.17l0.01-0.01c0.09-0.06,0.17-0.13,0.24-0.2c0,0,0,0,0.01-0.01c0.08-0.07,0.15-0.15,0.21-0.23
				c0.07-0.09,0.13-0.17,0.2-0.27c0.01-0.02,0.02-0.03,0.02-0.04c0.06-0.09,0.12-0.17,0.18-0.27c0.23-0.37,0.44-0.75,0.62-1.15
				c0.34-0.74,0.63-1.59,0.78-2.4c0.09-0.52,0.13-1.05,0.14-1.57c0.01-0.31,0.01-0.61,0.01-0.92c0-1.46,0-2.92,0-4.38
				c0-0.07,0-0.15,0-0.23c-0.01-0.14-0.02-0.28-0.05-0.43c-0.05-0.26-0.16-0.46-0.38-0.63c-0.18-0.14-0.4-0.24-0.62-0.31
				c-0.1-0.03-0.21-0.06-0.31-0.08c-0.05-0.01-0.09-0.02-0.13-0.03c-0.64-0.13-1.33-0.16-1.99-0.16C42.92,8.7,42.54,8.7,42.16,8.7
				c-3.36,0-6.71,0-10.07,0H18.35c-3.26,0-6.52,0-9.78,0c-0.49,0-0.98,0-1.47,0.02c-0.48,0.03-1,0.06-1.49,0.18
				c-0.02,0-0.04,0.01-0.06,0.02c-0.05,0-0.09,0.02-0.14,0.03C5.37,8.96,5.34,8.97,5.3,8.98C5.18,9.02,5.06,9.06,4.95,9.12
				C4.88,9.15,4.81,9.19,4.74,9.24C4.67,9.29,4.61,9.35,4.55,9.41c-0.04,0.05-0.08,0.1-0.12,0.15c-0.09,0.15-0.14,0.31-0.16,0.51
				c-0.01,0.12-0.02,0.24-0.02,0.36C4.25,10.5,4.25,10.56,4.25,10.62z"/>
			<path class="st0" d="M5.3,6.95c0,0.68,0,1.35,0,2.03c0.04-0.01,0.07-0.02,0.11-0.03C5.46,8.94,5.5,8.92,5.55,8.92
				C5.57,8.91,5.59,8.9,5.61,8.9V6.16C5.41,6.37,5.3,6.65,5.3,6.95z"/>
			<path class="st0" d="M5.61,6.16V8.9C6.1,8.78,6.62,8.75,7.1,8.72C7.59,8.7,8.08,8.7,8.57,8.7c3.26,0,6.52,0,9.78,0h13.74
				c3.36,0,6.71,0,10.07,0c0.38,0,0.76,0,1.13,0.01c0.66,0,1.35,0.03,1.99,0.16c0.04,0.01,0.08,0.02,0.13,0.03V6.16
				c-0.2-0.21-0.47-0.34-0.78-0.34c-4.18,0-8.36,0-12.54,0H18.35c-3.99,0-7.98,0-11.96,0C6.07,5.82,5.8,5.95,5.61,6.16z"/>
			<path class="st0" d="M6.78,22.1c-0.1-0.06-0.2-0.14-0.29-0.22C6.58,21.96,6.67,22.04,6.78,22.1z"/>
			<path class="st0" d="M9.76,22.97c-0.39-0.07-0.77-0.14-1.14-0.23C8.99,22.83,9.37,22.9,9.76,22.97z"/>
			<path class="st0" d="M15.99,23.5c-0.82-0.02-1.67-0.06-2.52-0.11C14.31,23.45,15.16,23.48,15.99,23.5z"/>
			<path class="st0" d="M36.73,93.48c0.7-0.02,1.4-0.04,2.1-0.06c0.05,0,0.1,0,0.15-0.01C38.23,93.44,37.49,93.46,36.73,93.48z"/>
			<path class="st0" d="M43.36,22.48c-0.2,0.06-0.39,0.11-0.58,0.16C42.97,22.59,43.17,22.54,43.36,22.48z"/>
			<path class="st0" d="M45.41,6.16V8.9c0.1,0.02,0.21,0.05,0.31,0.08c0-0.68,0-1.35,0-2.03C45.72,6.65,45.6,6.37,45.41,6.16z"/>
			<path class="st0" d="M49.89,92.92c0.11-0.01,0.21-0.01,0.32-0.04C50.1,92.9,49.99,92.91,49.89,92.92z"/>
			<path class="st0" d="M50.68,0c0,0,0.01,0,0.01,0.01c0,0,0,0,0.01,0c0.01,0,0.01,0,0.01,0c0,0.01,0.01,0.01,0.01,0.01h0.01
				c0,0.01,0.01,0.01,0.01,0.02c0.01,0,0.02,0,0.02,0.01c0.01,0.01,0.01,0.01,0.02,0.02c0,0.01,0.01,0.01,0.01,0.02
				c0.01,0.01,0.02,0.02,0.02,0.02c0.01,0.01,0.01,0.02,0.02,0.03c0.01,0.02,0.02,0.04,0.03,0.07c0.01,0.02,0.02,0.04,0.03,0.07
				c0.01,0.03,0.02,0.06,0.03,0.09c0,0.03,0.01,0.06,0.02,0.09c0.01,0.04,0.02,0.07,0.02,0.11c0.02,0.07,0.03,0.14,0.04,0.22
				c0,0.04,0,0.07,0.01,0.11c0,0.04,0,0.08,0,0.12c0.01,0.04,0.01,0.08,0.01,0.11c0,0.02,0,0.04,0,0.06c0,0.01,0,0.02,0,0.03v0.01
				v0.01c0,0,0,0,0,0.01s0,0.02,0,0.04c0,0.01,0,0.03,0,0.04c0,0.03,0,0.06,0,0.09c0,0.03,0,0.06,0,0.09s0,0.06,0,0.09
				c0,0.06,0,0.12,0,0.18c0,0.06,0,0.12,0,0.18c0,0.12,0,0.24,0,0.36c0,0.12,0,0.24,0,0.36c0,0.24,0,0.48,0,0.72s0,0.48,0,0.72
				s0,0.48,0,0.72c0,0.23,0,0.47,0,0.71c0,0.48,0,0.96,0,1.43c0,0.25,0,0.49,0,0.73c0,0.25,0,0.49,0,0.73s0,0.49,0,0.73
				c0,0.24,0,0.48,0,0.73c0,0.01,0,0.02,0,0.03s0,0.02,0,0.03c0,0.02,0,0.04,0,0.06c0,2.97,0,5.93,0,8.9c0,13.13,0,26.25,0,39.38
				c0,0.79,0.63,1.42,1.42,1.42c1.7,0,3.4,0,5.1,0c1.95,0,3.73-0.79,5.01-2.07c1.28-1.29,2.08-3.06,2.08-5.02
				c0-15.18,0-30.36,0-45.54c0-3.91-3.18-7.09-7.09-7.09C55.25,0,52.97,0,50.68,0z"/>
			<path class="st0" d="M51.02,58.3c0,0.47,0,0.95,0,1.42h1.42C51.65,59.72,51.02,59.09,51.02,58.3z"/>
		</g>
		<g>
			<line class="st1" x1="32.09" y1="23.53" x2="18.35" y2="23.53"/>
			<line class="st1" x1="32.09" y1="8.7" x2="18.35" y2="8.7"/>
			<line class="st1" x1="32.09" y1="5.82" x2="18.35" y2="5.82"/>
			<line class="st1" x1="32.09" y1="0" x2="18.35" y2="0"/>
			<line class="st1" x1="51.02" y1="59.72" x2="52.44" y2="59.72"/>
			<path class="st1" d="M45.34,9.47c0.01,0,0.01,0.01,0.02,0.01c0.02,0.02,0.05,0.04,0.07,0.07c0.03,0.02,0.05,0.04,0.07,0.07
				c0.03,0.03,0.05,0.05,0.07,0.08c0.02,0.03,0.04,0.06,0.06,0.1c0.03,0.03,0.05,0.07,0.07,0.11s0.05,0.09,0.07,0.13
				c0.02,0.05,0.04,0.1,0.06,0.15c0.01,0.03,0.02,0.06,0.03,0.08c0.02,0.06,0.03,0.11,0.05,0.17c0.02,0.06,0.03,0.12,0.05,0.19
				c0.01,0.06,0.03,0.13,0.04,0.19c0.02,0.1,0.03,0.2,0.04,0.29c0.01,0.1,0.02,0.19,0.03,0.29c0.01,0.1,0.02,0.19,0.02,0.29
				c0.01,0.05,0.01,0.09,0.01,0.14c0.01,0.05,0.01,0.1,0.01,0.14c0,0.07,0.01,0.14,0.01,0.21s0.01,0.14,0.01,0.21
				c0.01,0.09,0.01,0.18,0.02,0.27c0,0.09,0.01,0.18,0.01,0.26c0.01,0.11,0.02,0.22,0.02,0.33c0.02,0.27,0.04,0.52,0.05,0.77
				c0.01,0.17,0.02,0.34,0.02,0.51"/>
			<line class="st1" x1="45.41" y1="8.9" x2="45.41" y2="6.16"/>
			<path class="st1" d="M51.02,18.92c0-0.74-0.25-1.48-0.74-2.05c-0.49-0.57-1.17-0.94-1.93-0.99h-1.59"/>
			<path class="st1" d="M32.09,23.53c3.08,0.01,6.97-0.08,10.03-0.73c0.16-0.04,0.32-0.07,0.48-0.11c0.04-0.01,0.08-0.02,0.12-0.03
				c0.02-0.01,0.04-0.01,0.06-0.02c0.19-0.05,0.39-0.1,0.58-0.16"/>
			<path class="st1" d="M43.36,22.48c-0.2,0.06-0.39,0.11-0.58,0.16"/>
			<path class="st1" d="M43.36,22.48c0.02-0.01,0.05-0.01,0.08-0.02c0.11-0.03,0.21-0.07,0.31-0.11c0-0.01,0.01-0.01,0.01-0.01
				c0.1-0.03,0.2-0.08,0.3-0.13c0-0.01,0.01-0.01,0.01-0.01c0.1-0.05,0.2-0.11,0.28-0.17l0.01-0.01c0.09-0.06,0.17-0.13,0.24-0.2
				c0,0,0,0,0.01-0.01c0.08-0.07,0.15-0.15,0.21-0.23c0.07-0.09,0.13-0.17,0.2-0.27c0.01-0.02,0.02-0.03,0.02-0.04
				c0.06-0.09,0.12-0.17,0.18-0.27c0.23-0.37,0.44-0.75,0.62-1.15c0.34-0.74,0.63-1.59,0.78-2.4c0.09-0.52,0.13-1.05,0.14-1.57"/>
			<path class="st1" d="M46.76,15.88c0.01-0.31,0.01-0.61,0.01-0.92c0-1.46,0-2.92,0-4.38c0-0.07,0-0.15,0-0.23
				c-0.01-0.14-0.02-0.28-0.05-0.43c-0.05-0.26-0.16-0.46-0.38-0.63c-0.18-0.14-0.4-0.24-0.62-0.31"/>
			<path class="st1" d="M45.72,8.98c-0.1-0.03-0.21-0.06-0.31-0.08"/>
			<path class="st1" d="M45.41,8.9c-0.05-0.01-0.09-0.02-0.13-0.03c-0.64-0.13-1.33-0.16-1.99-0.16C42.92,8.7,42.54,8.7,42.16,8.7
				c-3.36,0-6.71,0-10.07,0"/>
			<path class="st1" d="M32.09,5.82c4.18,0,8.36,0,12.54,0c0.31,0,0.58,0.13,0.78,0.34"/>
			<path class="st1" d="M45.72,8.98c0-0.68,0-1.35,0-2.03c0-0.3-0.12-0.58-0.31-0.79"/>
			<path class="st1" d="M4.77,14.53c0-0.17,0.01-0.34,0.02-0.51c0.01-0.25,0.03-0.5,0.05-0.77c0-0.11,0.01-0.22,0.02-0.33
				c0-0.08,0.01-0.17,0.01-0.26c0.01-0.09,0.01-0.18,0.02-0.27c0-0.07,0-0.14,0.01-0.21c0-0.07,0-0.14,0.01-0.21
				c0-0.04,0-0.09,0.01-0.14c0-0.05,0-0.09,0-0.14c0.01-0.1,0.02-0.19,0.03-0.29c0-0.1,0.01-0.19,0.03-0.29
				c0.01-0.09,0.02-0.19,0.04-0.29c0.01-0.06,0.02-0.13,0.04-0.19c0.01-0.07,0.03-0.13,0.05-0.19c0.01-0.06,0.03-0.11,0.05-0.17
				c0.01-0.02,0.02-0.05,0.03-0.08c0.02-0.05,0.04-0.1,0.06-0.15C5.27,10,5.29,9.95,5.32,9.91C5.34,9.87,5.36,9.83,5.38,9.8
				C5.4,9.76,5.43,9.73,5.45,9.7c0.02-0.03,0.04-0.05,0.07-0.08c0.02-0.03,0.04-0.05,0.07-0.07C5.61,9.52,5.63,9.5,5.66,9.48
				c0.01,0,0.01-0.01,0.02-0.01"/>
			<line class="st1" x1="5.61" y1="8.9" x2="5.61" y2="6.16"/>
			<path class="st1" d="M4.25,15.88c-1.16,0-1.25,0-1.34,0c-0.08,0-0.16,0-0.25,0c-0.08,0-0.16,0-0.25,0c-0.08,0-0.17,0-0.25,0
				c-0.04,0-0.08,0-0.13,0c-0.04,0-0.08,0-0.12,0c-0.05,0-0.09,0-0.13,0s-0.09,0-0.13,0c-0.02,0-0.04,0-0.06,0
				c-0.03,0-0.05,0-0.07,0c-0.01,0-0.02,0-0.03,0s-0.02,0-0.03,0c-0.01,0-0.02,0-0.03,0s-0.02,0-0.02,0H1.4H1.39
				c-0.01,0-0.01,0-0.01,0c-0.01,0-0.01,0-0.02,0s-0.02,0-0.03-0.01c-0.02,0-0.04,0-0.06,0s-0.04,0-0.06-0.01
				c-0.03,0-0.05,0-0.07-0.01c-0.04-0.01-0.08-0.02-0.13-0.03c-0.04-0.01-0.08-0.03-0.13-0.04c-0.04-0.02-0.08-0.04-0.12-0.06
				c-0.04-0.02-0.09-0.05-0.13-0.07c-0.08-0.06-0.15-0.12-0.22-0.19c-0.07-0.07-0.13-0.14-0.18-0.23c-0.03-0.04-0.05-0.08-0.07-0.12
				c-0.03-0.04-0.05-0.09-0.06-0.13c-0.02-0.04-0.04-0.09-0.05-0.13c0-0.02-0.01-0.05-0.02-0.07c0-0.02,0-0.04-0.01-0.06
				c0-0.02-0.01-0.05-0.01-0.07c0-0.02,0-0.04-0.01-0.06"/>
			<path class="st1" d="M6.78,22.1c-0.1-0.06-0.2-0.14-0.29-0.22"/>
			<path class="st1" d="M9.76,22.97c-0.39-0.07-0.77-0.14-1.14-0.23"/>
			<path class="st1" d="M18.35,23.53c-0.74,0-1.54-0.01-2.36-0.03c-0.83-0.02-1.68-0.05-2.52-0.11"/>
			<path class="st1" d="M13.47,23.39c0.85,0.05,1.7,0.09,2.52,0.11"/>
			<path class="st1" d="M13.47,23.39c-0.42-0.03-0.84-0.06-1.26-0.1c-0.84-0.08-1.67-0.19-2.45-0.32"/>
			<path class="st1" d="M8.62,22.74c0.37,0.09,0.75,0.16,1.14,0.23"/>
			<path class="st1" d="M8.62,22.74c-0.07-0.02-0.15-0.04-0.22-0.06c-0.03,0-0.07-0.01-0.1-0.02c-0.02-0.01-0.04-0.01-0.06-0.01
				c-0.13-0.04-0.26-0.07-0.39-0.11c-0.13-0.04-0.27-0.08-0.4-0.12c-0.19-0.07-0.36-0.14-0.52-0.24c-0.05-0.02-0.1-0.05-0.15-0.08"
				/>
			<path class="st1" d="M6.49,21.88c0.09,0.08,0.18,0.16,0.29,0.22"/>
			<path class="st1" d="M6.49,21.88c-0.1-0.08-0.19-0.17-0.27-0.27V21.6c-0.08-0.1-0.16-0.2-0.24-0.32
				c-0.11-0.16-0.21-0.32-0.31-0.49c-0.21-0.35-0.39-0.7-0.55-1.07c-0.32-0.71-0.59-1.54-0.73-2.32c-0.09-0.5-0.12-1.01-0.12-1.52"
				/>
			<path class="st1" d="M4.27,15.88c-0.02-0.3-0.02-0.61-0.02-0.92c0-1.45,0-2.89,0-4.34c0-0.06,0-0.12,0-0.19
				c0-0.12,0.01-0.24,0.02-0.36c0.02-0.2,0.07-0.36,0.16-0.51c0.04-0.05,0.08-0.1,0.12-0.15c0.06-0.06,0.12-0.12,0.19-0.17
				c0.07-0.05,0.14-0.09,0.21-0.12c0.11-0.06,0.23-0.1,0.35-0.14"/>
			<path class="st1" d="M5.3,8.98c0.04-0.01,0.07-0.02,0.11-0.03C5.46,8.94,5.5,8.92,5.55,8.92C5.57,8.91,5.59,8.9,5.61,8.9"/>
			<path class="st1" d="M5.61,8.9C6.1,8.78,6.62,8.75,7.1,8.72C7.59,8.7,8.08,8.7,8.57,8.7c3.26,0,6.52,0,9.78,0"/>
			<path class="st1" d="M18.35,5.82c-3.99,0-7.98,0-11.96,0c-0.32,0-0.59,0.13-0.78,0.34C5.41,6.37,5.3,6.65,5.3,6.95
				c0,0.68,0,1.35,0,2.03"/>
			<path class="st1" d="M51.02,58.3c0,0.79,0.63,1.42,1.42,1.42"/>
			<path class="st1" d="M32.09,0c0.07,0,0.14,0,0.21,0c0.27,0,0.56,0,0.83,0c0.05,0,0.09,0,0.14,0c0.06,0,0.12,0,0.19,0
				c0.08,0,0.18,0,0.29,0c0.12,0,0.27,0,0.45,0c0.09,0,0.19,0,0.29,0c0.11,0,0.22,0,0.33,0c0.24,0,0.49,0,0.74,0
				c0.51,0,1.02,0,1.53,0c0.52,0,1.04,0,1.57,0c0.53,0,1.06,0,1.6,0s1.09,0,1.64,0c0.28,0,0.56,0,0.84,0s0.56,0,0.84,0
				s0.57,0,0.85,0c0.29,0,0.58,0,0.87,0c0.29,0,0.58,0,0.87,0s0.59,0,0.88,0c0.15,0,0.3,0,0.45,0c0.15,0,0.29,0,0.44,0
				c0.15,0,0.3,0,0.45,0c0.15,0,0.3,0,0.45,0c0.08,0,0.15,0,0.23,0c0.07,0,0.15,0,0.22,0c0.08,0,0.16,0,0.23,0c0.08,0,0.15,0,0.23,0
				c0.07,0,0.15,0,0.23,0c0.03,0,0.07,0,0.11,0c0.04,0,0.08,0,0.12,0c0.03,0,0.07,0,0.11,0c0.02,0,0.04,0,0.06,0s0.03,0,0.05,0
				c0.08,0,0.17,0,0.25,0c2.29,0,4.57,0,6.86,0c3.91,0,7.09,3.18,7.09,7.09c0,15.18,0,30.36,0,45.54c0,1.96-0.8,3.73-2.08,5.02
				c-1.28,1.28-3.06,2.07-5.01,2.07c-1.7,0-3.4,0-5.1,0"/>
			<path class="st1" d="M38.98,93.41c-0.05,0.01-0.1,0.01-0.15,0.01c-0.7,0.02-1.4,0.04-2.1,0.06c-0.03,0-0.07,0-0.1,0
				c-0.06,0-0.13,0-0.2,0c-0.08,0-0.16,0.01-0.23,0.01c-0.16,0-0.32,0-0.47,0.01c-1.22,0.02-2.43,0.04-3.64,0.05"/>
			<path class="st1" d="M50.21,92.88c-0.11,0.03-0.21,0.03-0.32,0.04"/>
			<path class="st1" d="M50.68,0c0,0,0.01,0,0.01,0.01c0,0,0,0,0.01,0c0.01,0,0.01,0,0.01,0c0,0.01,0.01,0.01,0.01,0.01h0.01
				c0,0.01,0.01,0.01,0.01,0.02c0.01,0,0.02,0,0.02,0.01c0.01,0.01,0.01,0.01,0.02,0.02c0,0.01,0.01,0.01,0.01,0.02
				c0.01,0.01,0.02,0.02,0.02,0.02c0.01,0.01,0.01,0.02,0.02,0.03c0.01,0.02,0.02,0.04,0.03,0.07c0.01,0.02,0.02,0.04,0.03,0.07
				c0.01,0.03,0.02,0.06,0.03,0.09c0,0.03,0.01,0.06,0.02,0.09c0.01,0.04,0.02,0.07,0.02,0.11c0.02,0.07,0.03,0.14,0.04,0.22
				c0,0.04,0,0.07,0.01,0.11c0,0.04,0,0.08,0,0.12c0.01,0.04,0.01,0.08,0.01,0.11c0,0.02,0,0.04,0,0.06c0,0.01,0,0.02,0,0.03v0.01
				v0.01c0,0,0,0,0,0.01s0,0.02,0,0.04c0,0.01,0,0.03,0,0.04c0,0.03,0,0.06,0,0.09c0,0.03,0,0.06,0,0.09s0,0.06,0,0.09
				c0,0.06,0,0.12,0,0.18c0,0.06,0,0.12,0,0.18c0,0.12,0,0.24,0,0.36c0,0.12,0,0.24,0,0.36c0,0.24,0,0.48,0,0.72s0,0.48,0,0.72
				s0,0.48,0,0.72c0,0.23,0,0.47,0,0.71c0,0.48,0,0.96,0,1.43c0,0.25,0,0.49,0,0.73c0,0.25,0,0.49,0,0.73s0,0.49,0,0.73
				c0,0.24,0,0.48,0,0.73c0,0.01,0,0.02,0,0.03s0,0.02,0,0.03c0,0.02,0,0.04,0,0.06c0,2.97,0,5.93,0,8.9"/>
			<path class="st1" d="M51.02,18.92c0,13.13,0,26.25,0,39.38"/>
			<path class="st1" d="M51.02,58.3c0,0.47,0,0.95,0,1.42"/>
			<path class="st1" d="M51.02,59.72c0,0.33,0,0.67,0,1v0.01c0,8.45,0,16.9,0,25.36c0,1.68,0,3.36,0,5.04c0,0.18,0,0.36,0,0.54v0.01
				c0,0.07,0,0.14,0,0.22c0,0.04,0,0.08,0,0.12c0,0.09-0.01,0.18-0.05,0.27c-0.01,0.04-0.03,0.07-0.05,0.11
				c-0.03,0.06-0.07,0.11-0.11,0.16c0,0-0.01,0-0.01,0.01c-0.05,0.04-0.1,0.09-0.15,0.12c0,0.01,0,0.01-0.01,0.01
				c-0.04,0.03-0.08,0.05-0.12,0.07c-0.02,0.01-0.04,0.02-0.06,0.03c0,0,0,0-0.01,0.01c-0.01,0.01-0.03,0.01-0.05,0.02
				c-0.04,0.01-0.08,0.02-0.12,0.04c-0.02,0.01-0.05,0.01-0.07,0.01"/>
			<path class="st1" d="M49.89,92.92c0.1-0.01,0.21-0.02,0.32-0.04"/>
			<path class="st1" d="M49.89,92.92h-0.01c-0.59,0.03-1.17,0.06-1.76,0.1c-1.12,0.06-2.24,0.12-3.36,0.17
				c-1.04,0.05-2.08,0.1-3.12,0.14c-0.34,0.01-0.67,0.02-1.01,0.03c-0.03,0-0.07,0-0.1,0c-0.52,0.03-1.03,0.04-1.55,0.05"/>
			<path class="st1" d="M36.73,93.48c0.76-0.02,1.5-0.04,2.25-0.07"/>
			<line class="st1" x1="32.09" y1="93.55" x2="18.35" y2="93.54"/>
			<path class="st1" d="M0.62,92.82c0.08,0.04,0.16,0.06,0.25,0.07c0.08,0.02,0.15,0.02,0.23,0.03c0.01,0,0.02,0,0.03,0
				c0.04,0,0.08,0,0.12,0.01c0.03,0,0.06,0,0.1,0c0.07,0,0.13,0.01,0.2,0.01c0.14,0.01,0.28,0.02,0.42,0.02
				c0.27,0.02,0.53,0.03,0.8,0.05c1.08,0.06,2.16,0.12,3.25,0.17c1,0.05,2.01,0.09,3.02,0.13c0.32,0.02,0.64,0.03,0.96,0.04
				c1.2,0.04,2.4,0.07,3.6,0.11h0.01c0.11,0,0.21,0.01,0.32,0.01c0.32,0.01,0.63,0.01,0.95,0.02c1.16,0.02,2.31,0.04,3.47,0.05"/>
			<path class="st1" d="M0.16,92.49c0.02,0.03,0.04,0.06,0.07,0.09c0.04,0.04,0.07,0.07,0.11,0.09c0.05,0.04,0.1,0.07,0.15,0.1"/>
			<path class="st1" d="M0.04,92.27c0,0.01,0,0.01,0,0.02c0.01,0.02,0.01,0.04,0.03,0.05"/>
			<path class="st1" d="M0,14.59c0-0.8,0-1.6,0-2.4c0-0.07,0-0.13,0-0.2c0-0.2,0-0.41,0-0.61c0-0.21,0-0.42,0-0.62
				c0-0.21,0-0.41,0-0.62c0-0.04,0-0.08,0-0.12C0,10,0,9.98,0,9.96c0-0.01,0-0.02,0-0.03S0,9.91,0,9.9c0-0.25,0-0.49,0-0.73
				c0-0.24,0-0.49,0-0.73s0-0.48,0-0.73c0-0.24,0-0.48,0-0.73c0-0.47,0-0.95,0-1.43c0-0.24,0-0.48,0-0.71C0,4.6,0,4.36,0,4.12
				S0,3.64,0,3.4s0-0.48,0-0.72c0-0.12,0-0.24,0-0.36C0,2.2,0,2.08,0,1.96C0,1.9,0,1.84,0,1.78C0,1.72,0,1.66,0,1.6
				c0-0.03,0-0.06,0-0.09s0-0.06,0-0.09c0-0.03,0-0.06,0-0.09C0,1.32,0,1.3,0,1.29c0-0.02,0-0.03,0-0.04s0-0.01,0-0.01V1.23V1.22
				C0,1.21,0,1.2,0,1.19c0-0.02,0-0.04,0-0.06C0,1.1,0,1.06,0,1.02C0.01,0.98,0.01,0.94,0.01,0.9c0-0.04,0.01-0.07,0.01-0.11
				c0.01-0.08,0.02-0.15,0.04-0.22c0-0.04,0.01-0.07,0.02-0.11C0.09,0.43,0.09,0.4,0.1,0.37s0.02-0.06,0.03-0.09
				s0.02-0.05,0.03-0.07c0.01-0.03,0.02-0.05,0.03-0.07C0.2,0.13,0.2,0.12,0.21,0.11c0,0,0.01-0.01,0.01-0.02
				c0.01-0.01,0.01-0.01,0.02-0.02c0.01-0.01,0.01-0.01,0.02-0.02c0-0.01,0.01-0.01,0.01-0.01c0.01-0.01,0.01-0.01,0.02-0.02H0.3
				c0,0,0,0,0.01-0.01c0.01,0,0.01,0,0.01,0h0.01C0.33,0,0.33,0,0.34,0c0,0,0,0,0.01,0h0.01c0,0,0.01,0,0.02,0C0.39,0,0.4,0,0.41,0
				s0.02,0,0.03,0s0.02,0,0.03,0c0.02,0,0.04,0,0.06,0s0.04,0,0.05,0C0.6,0,0.62,0,0.64,0C0.66,0,0.68,0,0.7,0c0.04,0,0.08,0,0.11,0
				c0.04,0,0.08,0,0.12,0C0.97,0,1,0,1.04,0c0.08,0,0.15,0,0.23,0S1.42,0,1.5,0c0.07,0,0.15,0,0.22,0C1.8,0,1.88,0,1.95,0
				C2.03,0,2.1,0,2.18,0c0.15,0,0.3,0,0.45,0c0.15,0,0.3,0,0.45,0c0.14,0,0.29,0,0.44,0s0.3,0,0.45,0c0.29,0,0.59,0,0.88,0
				s0.58,0,0.87,0S6.3,0,6.58,0c0.29,0,0.57,0,0.86,0C7.72,0,8,0,8.28,0c0.28,0,0.56,0,0.84,0c0.55,0,1.1,0,1.64,0s1.07,0,1.6,0
				c0.53,0,1.05,0,1.57,0c0.51,0,1.02,0,1.53,0c0.25,0,0.5,0,0.73,0c0.12,0,0.23,0,0.34,0c0.1,0,0.2,0,0.29,0c0.18,0,0.32,0,0.44,0
				c0.12,0,0.22,0,0.29,0c0.08,0,0.14,0,0.19,0c0.06,0,0.1,0,0.14,0c0.16,0,0.31,0,0.47,0"/>
			<path class="st1" d="M0,14.59c0,7.42,0,14.85,0,22.27c0,4.11,0,8.22,0,12.33c0,4.12,0,8.23,0,12.34c0,8.22,0,16.45,0,24.67
				c0,1.63,0,3.25,0,4.88v0.01c0,0.18,0,0.36,0,0.54c0,0.07,0,0.13,0,0.21v0.01c0,0.06,0,0.12,0,0.18c0,0.05,0,0.09,0.01,0.13
				c0.01,0.02,0.01,0.04,0.02,0.07c-0.01,0.01,0,0.03,0.01,0.04"/>
			<path class="st1" d="M0.07,92.34c-0.02-0.03-0.02-0.05-0.03-0.07"/>
			<path class="st1" d="M0.07,92.34c0,0.01,0,0.02,0.01,0.03c0.01,0.02,0.02,0.03,0.03,0.05c0.01,0.03,0.03,0.05,0.05,0.07"/>
			<path class="st1" d="M0.49,92.77c-0.05-0.03-0.1-0.06-0.15-0.1c-0.04-0.03-0.08-0.06-0.11-0.09c-0.03-0.03-0.05-0.06-0.07-0.09"
				/>
			<path class="st1" d="M0.49,92.77c0.03,0.02,0.07,0.03,0.1,0.04c0.01,0,0.01,0.01,0.02,0.01h0.01"/>
			<path class="st1" d="M0.87,92.89c-0.06-0.01-0.12-0.02-0.18-0.04c-0.02-0.01-0.05-0.01-0.07-0.03"/>
		</g>
	</g>
	<text transform="matrix(1 0 0 1 19.4493 42.1147)" class="st2 st3">90</text>
</g>
</svg>
