<?xml version="1.0" encoding="utf-8"?>
<!-- Generator: Adobe Illustrator 26.5.0, SVG Export Plug-In . SVG Version: 6.00 Build 0)  -->
<svg version="1.1" xmlns="http://www.w3.org/2000/svg" xmlns:xlink="http://www.w3.org/1999/xlink" x="0px" y="0px"
	 viewBox="0 0 58.96 93.54" style="enable-background:new 0 0 58.96 93.54;" xml:space="preserve">
<style type="text/css">
	.st0{fill:#F1F1F2;}
	.st1{fill:none;stroke:#404041;stroke-width:0.35;stroke-linecap:round;stroke-linejoin:round;}
	.st2{font-family:'Inter18pt-Medium';}
	.st3{font-size:10px;}
</style>
<g id="Default">
</g>
<g id="_x30_3_x5F_LINEA_FINA">
	<g id="XMLID_00000109715969045034044730000003904021300375346321_">
		<g>
			<path class="st0" d="M0,91.95c0,0.03,0,0.07,0,0.1c0,0.07,0.01,0.13,0.03,0.19c0,0.01,0,0.02,0.01,0.03
				c0.01,0.05,0.03,0.09,0.06,0.14c0,0.01,0.01,0.01,0.01,0.02c0.02,0.04,0.05,0.07,0.08,0.1c0.04,0.04,0.08,0.09,0.13,0.12
				c0.02,0.02,0.04,0.04,0.07,0.06c0.04,0.02,0.09,0.05,0.13,0.07c0.04,0.02,0.08,0.04,0.12,0.05c0.02,0.01,0.03,0.01,0.05,0.02
				c0.05,0.02,0.09,0.03,0.14,0.03c0.12,0.03,0.24,0.03,0.36,0.04c0.13,0.01,0.27,0.02,0.4,0.02c0.49,0.03,0.99,0.06,1.48,0.09
				c0.98,0.05,1.96,0.1,2.95,0.15c1,0.05,2.01,0.09,3.02,0.13c0.32,0.02,0.64,0.03,0.96,0.04c1.2,0.04,2.4,0.07,3.6,0.11h0.01
				c0.11,0,0.21,0.01,0.32,0.01c0.32,0.01,0.64,0.01,0.95,0.02c1.16,0.02,2.32,0.04,3.47,0.05l8.07,0.01
				c1.21-0.01,2.43-0.03,3.64-0.05c0.15-0.01,0.31-0.01,0.47-0.01c0.07,0,0.15-0.01,0.23-0.01c0.07,0,0.14,0,0.2,0
				c0.04,0,0.07,0,0.11,0c0.75-0.02,1.5-0.04,2.25-0.07c0.52-0.01,1.03-0.02,1.54-0.05c0.03,0,0.07,0,0.1,0
				c0.34-0.01,0.68-0.02,1.01-0.03c1.04-0.04,2.08-0.09,3.12-0.14c1.02-0.05,2.04-0.1,3.07-0.16c0.51-0.03,1.03-0.05,1.54-0.08
				c0.13-0.01,0.26-0.02,0.39-0.02c0.03-0.01,0.06-0.01,0.09-0.01c0.03,0,0.06,0,0.09,0c0.11-0.01,0.22-0.02,0.33-0.05
				c0.09-0.03,0.19-0.06,0.28-0.12c0.02,0,0.03-0.01,0.05-0.02c0-0.01,0.01-0.01,0.01-0.01c0.05-0.03,0.1-0.06,0.14-0.1
				c0-0.01,0-0.01,0.01-0.01l0.01-0.01c0.08-0.08,0.15-0.18,0.2-0.29c0.02-0.05,0.03-0.1,0.04-0.16c0.01-0.04,0.01-0.08,0.01-0.11
				c0-0.02,0-0.04,0-0.06c0-0.06,0-0.13,0-0.2c0-1.9,0-3.79,0-5.69c0-8.45,0-16.91,0-25.36v-0.01c0-0.33,0-0.67,0-1
				c0-0.47,0-0.95,0-1.42c0-13.13,0.01-26.26,0-39.38c0-0.74-0.25-1.48-0.74-2.05c-0.48-0.57-1.17-0.94-1.93-0.99H41.1h-0.01
				c-0.01,0.52-0.05,1.05-0.14,1.57c-0.15,0.81-0.44,1.66-0.78,2.4c-0.18,0.4-0.39,0.78-0.62,1.15c-0.06,0.1-0.12,0.18-0.18,0.27
				c0,0.01-0.01,0.03-0.02,0.04c-0.06,0.1-0.13,0.18-0.2,0.27c-0.07,0.08-0.14,0.16-0.22,0.23c-0.06,0.07-0.15,0.14-0.24,0.21
				l-0.01,0.01c-0.08,0.06-0.18,0.12-0.28,0.17c0,0-0.01,0-0.01,0.01c-0.1,0.05-0.2,0.1-0.3,0.13c0,0-0.01,0-0.01,0.01
				c-0.1,0.04-0.2,0.08-0.31,0.11c-0.03,0.01-0.06,0.01-0.08,0.02c-0.19,0.06-0.39,0.11-0.58,0.16c-0.02,0.01-0.04,0.01-0.06,0.02
				c-0.04,0.01-0.07,0.02-0.11,0.03c-0.16,0.04-0.33,0.07-0.49,0.11c-3.06,0.65-6.95,0.74-10.03,0.73c-2.69,0-5.38,0-8.07,0
				c-2.97-0.01-6.78-0.11-9.73-0.79c-0.07-0.02-0.14-0.04-0.22-0.06c-0.03,0-0.07-0.01-0.1-0.02c-0.02-0.01-0.04-0.01-0.05-0.01
				c-0.2-0.05-0.39-0.1-0.58-0.17c-0.07-0.01-0.14-0.03-0.2-0.06c-0.01,0-0.01,0-0.02,0c-0.12-0.04-0.23-0.09-0.34-0.14
				c-0.06-0.03-0.13-0.06-0.18-0.1C6.77,22.1,6.62,22,6.49,21.88c-0.1-0.08-0.18-0.17-0.27-0.28c-0.09-0.1-0.16-0.21-0.24-0.32
				c-0.11-0.16-0.21-0.32-0.31-0.49c-0.2-0.35-0.39-0.7-0.55-1.07c-0.32-0.71-0.59-1.54-0.73-2.32c-0.09-0.5-0.12-1.01-0.13-1.52
				c-1.17,0-1.26,0-1.34,0c-0.09,0-0.17,0-0.25,0c-0.09,0-0.17,0-0.26,0c-0.08,0-0.16,0-0.25,0c-0.04,0-0.08,0-0.13,0
				c-0.04,0-0.08,0-0.12,0c-0.05,0-0.09,0-0.13,0c-0.04,0-0.09,0-0.13,0c-0.02,0-0.04,0-0.06,0s-0.05,0-0.07,0
				c-0.01,0-0.02,0-0.03,0s-0.02,0-0.03,0s-0.02,0-0.03,0c-0.01,0-0.01,0-0.02,0H1.4c0,0,0,0-0.01,0s-0.01,0-0.01,0
				c-0.01,0-0.01,0-0.02,0s-0.02,0-0.03-0.01c-0.02,0-0.04,0-0.06,0s-0.04,0-0.06-0.01c-0.02,0-0.05,0-0.07-0.01
				c-0.04-0.01-0.08-0.02-0.13-0.03c-0.04-0.01-0.08-0.03-0.12-0.04c-0.05-0.02-0.09-0.04-0.13-0.06c-0.04-0.02-0.08-0.05-0.12-0.07
				c-0.08-0.06-0.16-0.12-0.23-0.19c-0.07-0.07-0.13-0.14-0.18-0.23c-0.03-0.04-0.05-0.08-0.07-0.12c-0.03-0.04-0.04-0.09-0.06-0.13
				s-0.03-0.09-0.05-0.13c0-0.02-0.01-0.05-0.01-0.07c-0.01-0.02-0.01-0.04-0.02-0.06c0-0.02-0.01-0.05-0.01-0.07
				c0-0.02,0-0.04-0.01-0.06c0,7.42,0,14.85,0,22.27c0,4.11,0,8.22,0,12.33s0,8.22,0,12.33v0.01c0,8.22,0,16.45,0,24.67
				c0,1.85,0,3.7,0,5.55c0,0.07,0,0.12,0,0.19V91.95z"/>
			<path class="st0" d="M0,12.19c0,0.8,0,1.6,0,2.4c0.01,0.02,0.01,0.04,0.01,0.06c0,0.02,0.01,0.05,0.01,0.07
				c0.01,0.02,0.01,0.04,0.02,0.06c0,0.02,0.01,0.05,0.01,0.07c0.02,0.04,0.03,0.09,0.05,0.13s0.03,0.09,0.06,0.13
				c0.02,0.04,0.04,0.08,0.07,0.12c0.05,0.09,0.11,0.16,0.18,0.23c0.07,0.07,0.15,0.13,0.23,0.19c0.04,0.02,0.08,0.05,0.12,0.07
				c0.04,0.02,0.08,0.04,0.13,0.06c0.04,0.01,0.08,0.03,0.12,0.04c0.05,0.01,0.09,0.02,0.13,0.03c0.02,0.01,0.05,0.01,0.07,0.01
				c0.02,0.01,0.04,0.01,0.06,0.01s0.04,0,0.06,0c0.01,0.01,0.02,0.01,0.03,0.01s0.01,0,0.02,0c0,0,0,0,0.01,0s0.01,0,0.01,0h0.01
				c0.01,0,0.01,0,0.02,0c0.01,0,0.02,0,0.03,0s0.02,0,0.03,0s0.02,0,0.03,0c0.02,0,0.05,0,0.07,0s0.04,0,0.06,0
				c0.04,0,0.09,0,0.13,0c0.04,0,0.08,0,0.13,0c0.04,0,0.08,0,0.12,0c0.05,0,0.09,0,0.13,0c0.09,0,0.17,0,0.25,0
				c0.09,0,0.17,0,0.26,0c0.08,0,0.16,0,0.25,0c0.08,0,0.17,0,1.34,0c-0.01-0.3-0.01-0.61-0.01-0.92c0-1.45,0-2.89,0-4.34
				c0-0.06,0-0.12,0-0.19c0-0.12,0.01-0.24,0.02-0.36c0.02-0.2,0.07-0.36,0.16-0.51c0.04-0.05,0.08-0.1,0.12-0.15
				c0.2-0.22,0.47-0.35,0.75-0.43c0-0.68,0-1.35,0-2.03c0-0.3,0.12-0.58,0.31-0.79c0.2-0.21,0.47-0.34,0.78-0.34
				c3.99,0,7.97,0,11.96,0h8.07c4.18,0,8.36,0,12.54,0c0.31,0,0.59,0.13,0.78,0.34s0.31,0.49,0.31,0.79c0,0.68,0,1.35,0,2.03
				c0.22,0.07,0.44,0.17,0.62,0.31c0.22,0.17,0.33,0.37,0.38,0.63c0.03,0.15,0.04,0.29,0.05,0.43c0,0.08,0,0.16,0,0.23
				c0,1.46,0,2.92,0,4.38c0,0.31,0,0.61-0.01,0.92h0.01h1.58c0.76,0.05,1.45,0.42,1.93,0.99c0.49,0.57,0.74,1.31,0.74,2.05
				c0-2.97,0-5.94,0-8.9c0-0.02,0-0.04,0-0.06c0-0.01,0-0.02,0-0.03s0-0.02,0-0.03c0-0.25,0-0.49,0-0.73c0-0.24,0-0.49,0-0.73
				s0-0.48,0-0.73c0-0.24,0-0.48,0-0.73c0-0.47,0-0.95,0-1.43c0-0.24,0-0.48,0-0.71c0-0.24,0-0.48,0-0.72s0-0.48,0-0.72
				s0-0.48,0-0.72c0-0.12,0-0.24,0-0.36c0-0.12,0-0.24,0-0.36c0-0.06,0-0.12,0-0.18c0-0.06,0-0.12,0-0.18c0-0.03,0-0.06,0-0.09
				s0-0.06,0-0.09c0-0.03,0-0.06,0-0.09c0-0.01,0-0.03,0-0.04c0-0.02,0-0.03,0-0.04s0-0.01,0-0.01V1.23V1.22c0-0.01,0-0.02,0-0.03
				c0-0.02,0-0.04,0-0.06c0-0.03,0-0.07,0-0.11c-0.01-0.04-0.01-0.08-0.01-0.12c0-0.04-0.01-0.07-0.01-0.11
				c-0.01-0.08-0.02-0.15-0.04-0.22c0-0.04-0.01-0.07-0.02-0.11c0-0.03-0.01-0.06-0.02-0.09c-0.01-0.03-0.02-0.06-0.03-0.09
				c-0.01-0.03-0.02-0.05-0.03-0.07c-0.01-0.03-0.02-0.05-0.03-0.07c-0.01-0.01-0.01-0.02-0.02-0.03c0,0-0.01-0.01-0.01-0.02
				c-0.01-0.01-0.01-0.01-0.02-0.02c-0.01-0.01-0.01-0.01-0.02-0.02c0-0.01-0.01-0.01-0.01-0.01c-0.01-0.01-0.01-0.01-0.02-0.02
				h-0.01c0,0,0,0-0.01-0.01c-0.01,0-0.01,0-0.01,0h-0.01c0-0.01,0-0.01,0-0.01c-0.01,0-0.01,0-0.01,0C45,0,45,0,45,0h-0.01
				c0,0-0.01,0-0.02,0c-0.01,0-0.02,0-0.03,0c-0.01,0-0.02,0-0.03,0c-0.01,0-0.02,0-0.03,0c-0.02,0-0.04,0-0.06,0s-0.04,0-0.05,0
				c-0.02,0-0.04,0-0.06,0s-0.04,0-0.06,0c-0.04,0-0.07,0-0.11,0c-0.04,0-0.08,0-0.12,0s-0.07,0-0.11,0c-0.08,0-0.15,0-0.23,0
				C44,0,43.93,0,43.85,0c-0.07,0-0.15,0-0.22,0c-0.08,0-0.15,0-0.23,0c-0.08,0-0.15,0-0.23,0c-0.15,0-0.3,0-0.45,0
				c-0.15,0-0.3,0-0.45,0c-0.14,0-0.29,0-0.44,0s-0.3,0-0.45,0c-0.29,0-0.58,0-0.88,0c-0.29,0-0.58,0-0.87,0c-0.29,0-0.58,0-0.86,0
				c-0.29,0-0.57,0-0.86,0c-0.28,0-0.56,0-0.84,0c-0.28,0-0.56,0-0.84,0c-0.55,0-1.1,0-1.64,0c-0.54,0-1.07,0-1.6,0s-1.05,0-1.57,0
				c-0.51,0-1.02,0-1.53,0c-0.25,0-0.5,0-0.73,0c-0.12,0-0.23,0-0.34,0c-0.1,0-0.2,0-0.29,0c-0.18,0-0.32,0-0.44,0s-0.22,0-0.29,0
				c-0.08,0-0.14,0-0.19,0c-0.06,0-0.1,0-0.14,0c-0.28,0-0.57,0-0.83,0c-0.08,0-0.15,0-0.22,0h-8.07c-0.16,0-0.31,0-0.47,0
				c-0.04,0-0.08,0-0.14,0c-0.05,0-0.11,0-0.19,0c-0.07,0-0.17,0-0.29,0C17.15,0,17,0,16.82,0c-0.09,0-0.19,0-0.29,0
				c-0.11,0-0.22,0-0.34,0c-0.23,0-0.48,0-0.73,0c-0.51,0-1.02,0-1.53,0c-0.52,0-1.04,0-1.57,0c-0.53,0-1.06,0-1.6,0S9.67,0,9.12,0
				C8.84,0,8.56,0,8.28,0C8,0,7.72,0,7.44,0C7.16,0,6.87,0,6.58,0C6.3,0,6.01,0,5.72,0S5.14,0,4.85,0S4.26,0,3.97,0
				c-0.15,0-0.3,0-0.45,0C3.37,0,3.23,0,3.08,0c-0.15,0-0.3,0-0.45,0c-0.15,0-0.3,0-0.45,0C2.1,0,2.03,0,1.95,0C1.88,0,1.8,0,1.73,0
				C1.65,0,1.57,0,1.5,0C1.42,0,1.35,0,1.27,0C1.19,0,1.12,0,1.04,0C1,0,0.97,0,0.93,0C0.89,0,0.85,0,0.81,0C0.78,0,0.74,0,0.7,0
				C0.68,0,0.66,0,0.64,0C0.62,0,0.6,0,0.59,0C0.57,0,0.55,0,0.53,0C0.51,0,0.49,0,0.47,0C0.46,0,0.45,0,0.44,0
				C0.43,0,0.42,0,0.41,0C0.4,0,0.39,0,0.39,0C0.38,0,0.37,0,0.36,0c0,0,0,0-0.01,0c0,0,0,0-0.01,0c0,0-0.01,0-0.01,0.01
				c0,0,0,0-0.01,0c-0.01,0-0.01,0-0.01,0c0,0.01-0.01,0.01-0.01,0.01H0.29c0,0.01-0.01,0.01-0.02,0.02c0,0-0.01,0-0.01,0.01
				C0.25,0.06,0.25,0.06,0.24,0.07c0,0.01-0.01,0.01-0.02,0.02c0,0.01-0.01,0.02-0.01,0.02C0.2,0.12,0.2,0.13,0.19,0.14
				C0.18,0.16,0.17,0.18,0.16,0.21C0.15,0.23,0.14,0.25,0.13,0.28S0.11,0.34,0.1,0.37S0.09,0.43,0.08,0.46
				C0.07,0.5,0.06,0.53,0.06,0.57C0.04,0.64,0.03,0.71,0.02,0.79c0,0.04,0,0.07-0.01,0.11c0,0.04,0,0.08-0.01,0.12
				C0,1.06,0,1.1,0,1.13c0,0.02,0,0.04,0,0.06C0,1.2,0,1.21,0,1.22v0.01v0.01c0,0,0,0,0,0.01s0,0.02,0,0.04C0,1.3,0,1.32,0,1.33
				c0,0.03,0,0.06,0,0.09c0,0.03,0,0.06,0,0.09S0,1.57,0,1.6c0,0.06,0,0.12,0,0.18C0,1.84,0,1.9,0,1.96C0,2.08,0,2.2,0,2.32
				c0,0.12,0,0.24,0,0.36C0,2.92,0,3.16,0,3.4s0,0.48,0,0.72c0,0.16,0,0.31,0,0.47C0,5,0,5.41,0,5.82c0,0.42,0,0.83,0,1.24
				s0,0.82,0,1.23C0,8.7,0,9.11,0,9.52c0,0.21,0,0.42,0,0.62c0,0.21,0,0.41,0,0.62c0,0.2,0,0.41,0,0.62c0,0.2,0,0.41,0,0.61
				C0,12.06,0,12.12,0,12.19z"/>
			<path class="st0" d="M0.04,92.27c0.01,0.04,0.02,0.07,0.04,0.11c0.01,0.01,0.01,0.02,0.02,0.03C0.07,92.36,0.05,92.32,0.04,92.27
				z"/>
			<path class="st0" d="M0.32,92.65c-0.05-0.03-0.09-0.08-0.13-0.12C0.23,92.58,0.27,92.62,0.32,92.65z"/>
			<path class="st0" d="M0.52,92.78c-0.04-0.02-0.09-0.05-0.13-0.07C0.43,92.73,0.47,92.76,0.52,92.78z"/>
			<path class="st0" d="M4.25,10.62c0,1.45,0,2.89,0,4.34c0,0.31,0,0.62,0.01,0.92c0.01,0.51,0.04,1.02,0.13,1.52
				c0.14,0.78,0.41,1.61,0.73,2.32c0.16,0.37,0.35,0.72,0.55,1.07c0.1,0.17,0.2,0.33,0.31,0.49c0.08,0.11,0.15,0.22,0.24,0.32
				c0.09,0.11,0.17,0.2,0.27,0.28c0.13,0.12,0.28,0.22,0.44,0.3c0.05,0.04,0.12,0.07,0.18,0.1c0.12,0.05,0.24,0.1,0.36,0.14
				c0.06,0.03,0.13,0.05,0.2,0.06c0.19,0.07,0.38,0.12,0.58,0.17c0.01,0,0.03,0,0.05,0.01c0.03,0.01,0.07,0.02,0.1,0.02
				c0.08,0.02,0.15,0.04,0.22,0.06c2.95,0.68,6.76,0.78,9.73,0.79c2.69,0,5.38,0,8.07,0c3.08,0.01,6.97-0.08,10.03-0.73
				c0.16-0.04,0.33-0.07,0.49-0.11c0.04-0.01,0.07-0.02,0.11-0.03c0.02-0.01,0.04-0.01,0.06-0.02c0.19-0.05,0.38-0.1,0.58-0.16
				c0.02-0.01,0.05-0.01,0.08-0.02c0.11-0.03,0.21-0.07,0.31-0.11c0-0.01,0.01-0.01,0.01-0.01c0.1-0.03,0.2-0.08,0.3-0.13
				c0-0.01,0.01-0.01,0.01-0.01c0.1-0.05,0.2-0.11,0.28-0.17l0.01-0.01c0.09-0.06,0.17-0.13,0.24-0.21
				c0.08-0.07,0.15-0.15,0.22-0.23c0.07-0.09,0.14-0.17,0.2-0.27c0.01-0.01,0.02-0.03,0.02-0.04c0.06-0.09,0.12-0.17,0.18-0.27
				c0.23-0.37,0.44-0.75,0.62-1.15c0.34-0.74,0.63-1.59,0.78-2.4c0.09-0.52,0.13-1.05,0.14-1.57c0.01-0.31,0.01-0.61,0.01-0.92
				c0-1.46,0-2.92,0-4.38c0-0.07,0-0.15,0-0.23c-0.01-0.14-0.02-0.28-0.05-0.43C41,9.66,40.89,9.46,40.67,9.29
				c-0.18-0.14-0.4-0.24-0.62-0.31c-0.1-0.03-0.21-0.06-0.31-0.08c-0.05-0.01-0.09-0.02-0.13-0.03c-0.64-0.13-1.33-0.16-1.98-0.16
				C37.25,8.7,36.87,8.7,36.49,8.7c-3.35,0-6.71,0-10.07,0h-8.07c-3.26,0-6.52,0-9.78,0c-0.49,0-0.98,0-1.47,0.02
				c-0.48,0.03-1,0.06-1.49,0.18c-0.02,0-0.04,0.01-0.06,0.02c-0.05,0-0.09,0.02-0.14,0.03C5.37,8.96,5.34,8.97,5.3,8.98
				C5.02,9.06,4.75,9.19,4.55,9.41c-0.04,0.05-0.08,0.1-0.12,0.15c-0.09,0.15-0.14,0.31-0.16,0.51c-0.01,0.12-0.02,0.24-0.02,0.36
				C4.25,10.5,4.25,10.56,4.25,10.62z"/>
			<path class="st0" d="M5.3,6.95c0,0.68,0,1.35,0,2.03c0.04-0.01,0.07-0.02,0.11-0.03C5.46,8.94,5.5,8.92,5.55,8.92
				C5.57,8.91,5.59,8.9,5.61,8.9V6.16C5.42,6.37,5.3,6.65,5.3,6.95z"/>
			<path class="st0" d="M5.61,6.16V8.9C6.1,8.78,6.62,8.75,7.1,8.72C7.59,8.7,8.08,8.7,8.57,8.7c3.26,0,6.52,0,9.78,0h8.07
				c3.36,0,6.72,0,10.07,0c0.38,0,0.76,0,1.14,0.01c0.65,0,1.34,0.03,1.98,0.16c0.04,0.01,0.08,0.02,0.13,0.03V6.16
				c-0.19-0.21-0.47-0.34-0.78-0.34c-4.18,0-8.36,0-12.54,0h-8.07c-3.99,0-7.97,0-11.96,0C6.08,5.82,5.81,5.95,5.61,6.16z"/>
			<path class="st0" d="M7.11,22.28c0.11,0.05,0.22,0.1,0.34,0.14c0.01,0,0.01,0,0.02,0C7.35,22.38,7.23,22.33,7.11,22.28z"/>
			<path class="st0" d="M31.07,93.48c0.7-0.02,1.4-0.04,2.09-0.06c0.05,0,0.11,0,0.16-0.01C32.57,93.44,31.82,93.46,31.07,93.48z"/>
			<path class="st0" d="M37.69,22.48c-0.2,0.06-0.39,0.11-0.58,0.16C37.3,22.59,37.5,22.54,37.69,22.48z"/>
			<path class="st0" d="M38.93,21.81c-0.07,0.08-0.15,0.15-0.24,0.21C38.78,21.95,38.87,21.88,38.93,21.81z"/>
			<path class="st0" d="M39.74,6.16V8.9c0.1,0.02,0.21,0.05,0.31,0.08c0-0.68,0-1.35,0-2.03C40.05,6.65,39.93,6.37,39.74,6.16z"/>
			<path class="st0" d="M44.88,92.75c-0.09,0.06-0.19,0.09-0.28,0.12C44.69,92.85,44.79,92.81,44.88,92.75z"/>
			<path class="st0" d="M45.02,0c0,0,0,0,0,0.01h0.01c0,0,0,0,0.01,0c0.01,0.01,0.01,0.01,0.01,0.01h0.01
				c0.01,0.01,0.01,0.01,0.02,0.02c0,0,0.01,0,0.01,0.01c0.01,0.01,0.01,0.01,0.02,0.02c0.01,0.01,0.01,0.01,0.02,0.02
				c0,0.01,0.01,0.02,0.01,0.02c0.01,0.01,0.01,0.02,0.02,0.03c0.01,0.02,0.02,0.04,0.03,0.07c0.01,0.02,0.02,0.04,0.03,0.07
				c0.01,0.03,0.02,0.06,0.03,0.09c0.01,0.03,0.02,0.06,0.02,0.09c0.01,0.04,0.02,0.07,0.02,0.11c0.02,0.07,0.03,0.14,0.04,0.22
				c0,0.04,0.01,0.07,0.01,0.11c0,0.04,0,0.08,0.01,0.12c0,0.04,0,0.08,0,0.11c0,0.02,0,0.04,0,0.06c0,0.01,0,0.02,0,0.03v0.01v0.01
				c0,0,0,0,0,0.01s0,0.02,0,0.04c0,0.01,0,0.03,0,0.04c0,0.03,0,0.06,0,0.09c0,0.03,0,0.06,0,0.09s0,0.06,0,0.09
				c0,0.06,0,0.12,0,0.18c0,0.06,0,0.12,0,0.18c0,0.12,0,0.24,0,0.36c0,0.12,0,0.24,0,0.36c0,0.24,0,0.48,0,0.72s0,0.48,0,0.72
				s0,0.48,0,0.72c0,0.23,0,0.47,0,0.71c0,0.48,0,0.96,0,1.43c0,0.25,0,0.49,0,0.73c0,0.25,0,0.49,0,0.73s0,0.49,0,0.73
				c0,0.24,0,0.48,0,0.73c0,0.01,0,0.02,0,0.03s0,0.02,0,0.03c0,0.02,0,0.04,0,0.06c0,2.96,0,5.93,0,8.9c0.01,13.12,0,26.25,0,39.38
				c0,0.79,0.64,1.42,1.42,1.42c1.7,0,3.4,0,5.1,0c1.96,0,3.73-0.79,5.02-2.07c1.28-1.29,2.07-3.06,2.07-5.02
				c0-15.18,0-30.36,0-45.54c0-3.91-3.17-7.09-7.09-7.09C49.59,0,47.3,0,45.02,0z"/>
			<path class="st0" d="M45.35,92.04c0,0.03,0,0.07-0.01,0.11c0.01-0.01,0.01-0.01,0.01-0.02C45.35,92.1,45.35,92.07,45.35,92.04z"
				/>
			<path class="st0" d="M45.35,58.3c0,0.47,0,0.95,0,1.42h1.42C45.99,59.72,45.35,59.09,45.35,58.3z"/>
		</g>
		<g>
			<path class="st1" d="M39.67,9.47c0.01,0,0.01,0.01,0.02,0.01c0.03,0.02,0.05,0.04,0.07,0.07c0.03,0.02,0.05,0.04,0.07,0.07
				c0.03,0.03,0.05,0.05,0.07,0.08c0.02,0.03,0.05,0.06,0.07,0.1c0.02,0.03,0.04,0.07,0.06,0.11c0.03,0.04,0.05,0.09,0.07,0.13
				c0.02,0.05,0.04,0.1,0.06,0.15c0.01,0.03,0.02,0.06,0.03,0.08c0.02,0.06,0.04,0.11,0.05,0.17c0.02,0.06,0.04,0.12,0.05,0.19
				c0.02,0.06,0.03,0.13,0.04,0.19c0.02,0.1,0.03,0.2,0.04,0.29c0.02,0.1,0.03,0.19,0.03,0.29c0.01,0.1,0.02,0.19,0.03,0.29
				c0,0.05,0,0.09,0.01,0.14c0,0.05,0,0.1,0,0.14c0.01,0.07,0.01,0.14,0.01,0.21c0.01,0.07,0.01,0.14,0.01,0.21
				c0.01,0.09,0.01,0.18,0.02,0.27c0,0.09,0.01,0.18,0.01,0.26c0.01,0.11,0.02,0.22,0.03,0.33c0.01,0.27,0.03,0.52,0.04,0.77
				c0.01,0.17,0.02,0.34,0.02,0.51"/>
			<path class="st1" d="M26.42,23.53c-2.69,0-5.38,0-8.07,0"/>
			<path class="st1" d="M37.69,22.48c-0.2,0.06-0.39,0.11-0.58,0.16"/>
			<path class="st1" d="M38.93,21.81c-0.07,0.08-0.15,0.15-0.24,0.21"/>
			<path class="st1" d="M26.42,8.7c3.36,0,6.72,0,10.07,0c0.38,0,0.76,0,1.14,0.01c0.65,0,1.34,0.03,1.98,0.16
				c0.04,0.01,0.08,0.02,0.13,0.03"/>
			<path class="st1" d="M39.74,8.9c0.1,0.02,0.21,0.05,0.31,0.08"/>
			<path class="st1" d="M40.05,8.98c0.22,0.07,0.44,0.17,0.62,0.31c0.22,0.17,0.33,0.37,0.38,0.63c0.03,0.15,0.04,0.29,0.05,0.43
				c0,0.08,0,0.16,0,0.23c0,1.46,0,2.92,0,4.38c0,0.31,0,0.61-0.01,0.92"/>
			<path class="st1" d="M41.09,15.88c-0.01,0.52-0.05,1.05-0.14,1.57c-0.15,0.81-0.44,1.66-0.78,2.4c-0.18,0.4-0.39,0.78-0.62,1.15
				c-0.06,0.1-0.12,0.18-0.18,0.27c0,0.01-0.01,0.03-0.02,0.04c-0.06,0.1-0.13,0.18-0.2,0.27c-0.07,0.08-0.14,0.16-0.22,0.23"/>
			<path class="st1" d="M38.69,22.02c0.09-0.07,0.18-0.14,0.24-0.21"/>
			<path class="st1" d="M38.69,22.02l-0.01,0.01c-0.08,0.06-0.18,0.12-0.28,0.17c0,0-0.01,0-0.01,0.01c-0.1,0.05-0.2,0.1-0.3,0.13
				c0,0-0.01,0-0.01,0.01c-0.1,0.04-0.2,0.08-0.31,0.11c-0.03,0.01-0.06,0.01-0.08,0.02"/>
			<path class="st1" d="M37.11,22.64c0.19-0.05,0.39-0.1,0.58-0.16"/>
			<path class="st1" d="M37.11,22.64c-0.02,0.01-0.04,0.01-0.06,0.02c-0.04,0.01-0.07,0.02-0.11,0.03
				c-0.16,0.04-0.33,0.07-0.49,0.11c-3.06,0.65-6.95,0.74-10.03,0.73"/>
			<path class="st1" d="M5.3,8.98c0-0.68,0-1.35,0-2.03c0-0.3,0.12-0.58,0.31-0.79"/>
			<path class="st1" d="M18.35,5.82c-3.99,0-7.97,0-11.96,0c-0.31,0-0.58,0.13-0.78,0.34"/>
			<path class="st1" d="M18.35,23.53c-2.97-0.01-6.78-0.11-9.73-0.79c-0.07-0.02-0.14-0.04-0.22-0.06c-0.03,0-0.07-0.01-0.1-0.02
				c-0.02-0.01-0.04-0.01-0.05-0.01c-0.2-0.05-0.39-0.1-0.58-0.17c-0.07-0.01-0.14-0.03-0.2-0.06c-0.01,0-0.01,0-0.02,0
				c-0.12-0.04-0.23-0.09-0.34-0.14"/>
			<path class="st1" d="M7.11,22.28c0.12,0.05,0.24,0.1,0.36,0.14"/>
			<path class="st1" d="M7.11,22.28c-0.06-0.03-0.13-0.06-0.18-0.1C6.77,22.1,6.62,22,6.49,21.88c-0.1-0.08-0.18-0.17-0.27-0.28
				c-0.09-0.1-0.16-0.21-0.24-0.32c-0.11-0.16-0.21-0.32-0.31-0.49c-0.2-0.35-0.39-0.7-0.55-1.07c-0.32-0.71-0.59-1.54-0.73-2.32
				c-0.09-0.5-0.12-1.01-0.13-1.52"/>
			<path class="st1" d="M4.26,15.88c-0.01-0.3-0.01-0.61-0.01-0.92c0-1.45,0-2.89,0-4.34c0-0.06,0-0.12,0-0.19
				c0-0.12,0.01-0.24,0.02-0.36c0.02-0.2,0.07-0.36,0.16-0.51c0.04-0.05,0.08-0.1,0.12-0.15c0.2-0.22,0.47-0.35,0.75-0.43"/>
			<path class="st1" d="M5.3,8.98c0.04-0.01,0.07-0.02,0.11-0.03C5.46,8.94,5.5,8.92,5.55,8.92C5.57,8.91,5.59,8.9,5.61,8.9"/>
			<path class="st1" d="M5.61,8.9C6.1,8.78,6.62,8.75,7.1,8.72C7.59,8.7,8.08,8.7,8.57,8.7c3.26,0,6.52,0,9.78,0"/>
			<path class="st1" d="M4.26,15.88c-1.17,0-1.26,0-1.34,0c-0.09,0-0.17,0-0.25,0c-0.09,0-0.17,0-0.26,0c-0.08,0-0.16,0-0.25,0
				c-0.04,0-0.08,0-0.13,0c-0.04,0-0.08,0-0.12,0c-0.05,0-0.09,0-0.13,0c-0.04,0-0.09,0-0.13,0c-0.02,0-0.04,0-0.06,0
				s-0.05,0-0.07,0c-0.01,0-0.02,0-0.03,0s-0.02,0-0.03,0s-0.02,0-0.03,0c-0.01,0-0.01,0-0.02,0H1.4c0,0,0,0-0.01,0s-0.01,0-0.01,0
				c-0.01,0-0.01,0-0.02,0s-0.02,0-0.03-0.01c-0.02,0-0.04,0-0.06,0s-0.04,0-0.06-0.01c-0.02,0-0.05,0-0.07-0.01
				c-0.04-0.01-0.08-0.02-0.13-0.03c-0.04-0.01-0.08-0.03-0.12-0.04c-0.05-0.02-0.09-0.04-0.13-0.06c-0.04-0.02-0.08-0.05-0.12-0.07
				c-0.08-0.06-0.16-0.12-0.23-0.19c-0.07-0.07-0.13-0.14-0.18-0.23c-0.03-0.04-0.05-0.08-0.07-0.12c-0.03-0.04-0.04-0.09-0.06-0.13
				s-0.03-0.09-0.05-0.13c0-0.02-0.01-0.05-0.01-0.07c-0.01-0.02-0.01-0.04-0.02-0.06c0-0.02-0.01-0.05-0.01-0.07
				c0-0.02,0-0.04-0.01-0.06"/>
			<line class="st1" x1="5.61" y1="8.9" x2="5.61" y2="6.16"/>
			<path class="st1" d="M4.77,14.53c0-0.17,0.01-0.34,0.02-0.51c0.01-0.25,0.03-0.5,0.05-0.77c0-0.11,0.01-0.22,0.02-0.33
				c0-0.08,0.01-0.17,0.01-0.26c0.01-0.09,0.01-0.18,0.02-0.27c0-0.07,0.01-0.14,0.01-0.21s0.01-0.14,0.01-0.21
				c0-0.04,0-0.09,0.01-0.14c0-0.05,0-0.09,0.01-0.14c0-0.1,0.01-0.19,0.02-0.29c0-0.1,0.01-0.19,0.03-0.29
				c0.01-0.09,0.02-0.19,0.04-0.29c0.01-0.06,0.03-0.13,0.04-0.19c0.02-0.07,0.03-0.13,0.05-0.19c0.02-0.06,0.03-0.11,0.05-0.17
				c0.01-0.02,0.02-0.05,0.03-0.08c0.02-0.05,0.04-0.1,0.06-0.15C5.27,10,5.3,9.95,5.32,9.91S5.36,9.83,5.38,9.8
				c0.03-0.04,0.05-0.07,0.07-0.1c0.02-0.03,0.04-0.05,0.07-0.08c0.02-0.03,0.04-0.05,0.07-0.07C5.61,9.52,5.64,9.5,5.66,9.48
				c0.01,0,0.01-0.01,0.02-0.01"/>
			<path class="st1" d="M40.05,8.98c0-0.68,0-1.35,0-2.03c0-0.3-0.12-0.58-0.31-0.79s-0.47-0.34-0.78-0.34c-4.18,0-8.36,0-12.54,0"
				/>
			<path class="st1" d="M26.42,0c0.07,0,0.14,0,0.22,0c0.26,0,0.55,0,0.83,0c0.04,0,0.08,0,0.14,0c0.05,0,0.11,0,0.19,0
				c0.07,0,0.17,0,0.29,0s0.26,0,0.44,0c0.09,0,0.19,0,0.29,0c0.11,0,0.22,0,0.34,0c0.23,0,0.48,0,0.73,0c0.51,0,1.02,0,1.53,0
				c0.52,0,1.04,0,1.57,0s1.06,0,1.6,0c0.54,0,1.09,0,1.64,0c0.28,0,0.56,0,0.84,0c0.28,0,0.56,0,0.84,0c0.29,0,0.57,0,0.86,0
				c0.28,0,0.57,0,0.86,0c0.29,0,0.58,0,0.87,0c0.3,0,0.59,0,0.88,0c0.15,0,0.3,0,0.45,0s0.3,0,0.44,0c0.15,0,0.3,0,0.45,0
				c0.15,0,0.3,0,0.45,0c0.08,0,0.15,0,0.23,0c0.08,0,0.15,0,0.23,0c0.07,0,0.15,0,0.22,0c0.08,0,0.15,0,0.23,0
				c0.08,0,0.15,0,0.23,0c0.04,0,0.07,0,0.11,0s0.08,0,0.12,0c0.04,0,0.07,0,0.11,0c0.02,0,0.04,0,0.06,0s0.04,0,0.06,0
				c0.01,0,0.03,0,0.05,0s0.04,0,0.06,0c0.01,0,0.02,0,0.03,0c0.01,0,0.02,0,0.03,0c0.01,0,0.02,0,0.03,0c0.01,0,0.02,0,0.02,0H45
				c0,0,0,0,0.01,0c0,0,0,0,0.01,0"/>
			<path class="st1" d="M41.1,15.88h1.58c0.76,0.05,1.45,0.42,1.93,0.99c0.49,0.57,0.74,1.31,0.74,2.05"/>
			<line class="st1" x1="39.74" y1="8.9" x2="39.74" y2="6.16"/>
			<path class="st1" d="M45.02,0c2.28,0,4.57,0,6.85,0c3.92,0,7.09,3.18,7.09,7.09c0,15.18,0,30.36,0,45.54
				c0,1.96-0.79,3.73-2.07,5.02c-1.29,1.28-3.06,2.07-5.02,2.07c-1.7,0-3.4,0-5.1,0"/>
			<path class="st1" d="M45.35,58.3c0,0.79,0.64,1.42,1.42,1.42"/>
			<line class="st1" x1="45.35" y1="59.72" x2="46.77" y2="59.72"/>
			<line class="st1" x1="26.42" y1="0" x2="18.35" y2="0"/>
			<line class="st1" x1="26.42" y1="5.82" x2="18.35" y2="5.82"/>
			<line class="st1" x1="26.42" y1="8.7" x2="18.35" y2="8.7"/>
			<path class="st1" d="M0.39,92.71c0.04,0.02,0.08,0.05,0.13,0.07c0.04,0.02,0.08,0.04,0.12,0.05c0.02,0.01,0.03,0.01,0.05,0.02
				c0.05,0.02,0.09,0.03,0.14,0.03c0.12,0.03,0.24,0.03,0.36,0.04c0.13,0.01,0.27,0.02,0.4,0.02c0.49,0.03,0.99,0.06,1.48,0.09
				c0.98,0.05,1.96,0.1,2.95,0.15c1,0.05,2.01,0.09,3.02,0.13c0.32,0.02,0.64,0.03,0.96,0.04c1.2,0.04,2.4,0.07,3.6,0.11h0.01
				c0.11,0,0.21,0.01,0.32,0.01c0.32,0.01,0.64,0.01,0.95,0.02c1.16,0.02,2.32,0.04,3.47,0.05"/>
			<path class="st1" d="M0.19,92.53c0.04,0.04,0.08,0.09,0.13,0.12"/>
			<path class="st1" d="M0.04,92.27c0.01,0.04,0.02,0.07,0.04,0.11c0.01,0.01,0.01,0.02,0.02,0.03"/>
			<path class="st1" d="M0,14.59c0-0.8,0-1.6,0-2.4c0-0.07,0-0.13,0-0.2c0-0.2,0-0.41,0-0.61c0-0.21,0-0.42,0-0.62
				c0-0.21,0-0.41,0-0.62c0-0.2,0-0.41,0-0.62C0,9.11,0,8.7,0,8.29c0-0.41,0-0.82,0-1.23s0-0.82,0-1.24C0,5.41,0,5,0,4.59
				c0-0.16,0-0.31,0-0.47C0,3.88,0,3.64,0,3.4s0-0.48,0-0.72c0-0.12,0-0.24,0-0.36C0,2.2,0,2.08,0,1.96C0,1.9,0,1.84,0,1.78
				C0,1.72,0,1.66,0,1.6c0-0.03,0-0.06,0-0.09s0-0.06,0-0.09c0-0.03,0-0.06,0-0.09C0,1.32,0,1.3,0,1.29c0-0.02,0-0.03,0-0.04
				s0-0.01,0-0.01V1.23V1.22C0,1.21,0,1.2,0,1.19c0-0.02,0-0.04,0-0.06C0,1.1,0,1.06,0,1.02C0.01,0.98,0.01,0.94,0.01,0.9
				c0.01-0.04,0.01-0.07,0.01-0.11c0.01-0.08,0.02-0.15,0.04-0.22c0-0.04,0.01-0.07,0.02-0.11C0.09,0.43,0.09,0.4,0.1,0.37
				s0.02-0.06,0.03-0.09s0.02-0.05,0.03-0.07c0.01-0.03,0.02-0.05,0.03-0.07C0.2,0.13,0.2,0.12,0.21,0.11c0,0,0.01-0.01,0.01-0.02
				c0.01-0.01,0.02-0.01,0.02-0.02c0.01-0.01,0.01-0.01,0.02-0.02c0-0.01,0.01-0.01,0.01-0.01c0.01-0.01,0.02-0.01,0.02-0.02H0.3
				c0,0,0.01,0,0.01-0.01c0,0,0,0,0.01,0c0.01,0,0.01,0,0.01,0C0.33,0,0.34,0,0.34,0c0.01,0,0.01,0,0.01,0c0.01,0,0.01,0,0.01,0
				c0.01,0,0.02,0,0.03,0c0,0,0.01,0,0.02,0c0.01,0,0.02,0,0.03,0c0.01,0,0.02,0,0.03,0c0.02,0,0.04,0,0.06,0c0.02,0,0.04,0,0.06,0
				C0.6,0,0.62,0,0.64,0C0.66,0,0.68,0,0.7,0c0.04,0,0.08,0,0.11,0c0.04,0,0.08,0,0.12,0C0.97,0,1,0,1.04,0c0.08,0,0.15,0,0.23,0
				C1.35,0,1.42,0,1.5,0c0.07,0,0.15,0,0.23,0C1.8,0,1.88,0,1.95,0C2.03,0,2.1,0,2.18,0c0.15,0,0.3,0,0.45,0c0.15,0,0.3,0,0.45,0
				c0.15,0,0.29,0,0.44,0c0.15,0,0.3,0,0.45,0c0.29,0,0.59,0,0.88,0s0.58,0,0.87,0S6.3,0,6.58,0c0.29,0,0.58,0,0.86,0
				C7.72,0,8,0,8.28,0c0.28,0,0.56,0,0.84,0c0.55,0,1.1,0,1.64,0s1.07,0,1.6,0c0.53,0,1.05,0,1.57,0c0.51,0,1.02,0,1.53,0
				c0.25,0,0.5,0,0.73,0c0.12,0,0.23,0,0.34,0c0.1,0,0.2,0,0.29,0c0.18,0,0.33,0,0.44,0c0.12,0,0.22,0,0.29,0c0.08,0,0.14,0,0.19,0
				c0.06,0,0.1,0,0.14,0c0.16,0,0.31,0,0.47,0"/>
			<path class="st1" d="M0,14.59c0,7.42,0,14.85,0,22.27c0,4.11,0,8.22,0,12.33s0,8.22,0,12.33v0.01c0,8.22,0,16.45,0,24.67
				c0,1.85,0,3.7,0,5.55c0,0.07,0,0.12,0,0.19v0.01c0,0.03,0,0.07,0,0.1c0,0.07,0.01,0.13,0.03,0.19c0,0.01,0,0.02,0.01,0.03"/>
			<path class="st1" d="M0.1,92.41c-0.03-0.05-0.05-0.09-0.06-0.14"/>
			<path class="st1" d="M0.1,92.41c0,0.01,0.01,0.01,0.01,0.02c0.02,0.04,0.05,0.07,0.08,0.1"/>
			<path class="st1" d="M0.32,92.65c-0.05-0.03-0.09-0.07-0.13-0.12"/>
			<path class="st1" d="M0.32,92.65c0.02,0.02,0.04,0.04,0.07,0.06"/>
			<path class="st1" d="M0.52,92.78c-0.04-0.02-0.09-0.05-0.13-0.07"/>
			<line class="st1" x1="26.42" y1="93.55" x2="18.35" y2="93.54"/>
			<path class="st1" d="M33.32,93.41c-0.05,0.01-0.11,0.01-0.16,0.01c-0.69,0.02-1.39,0.04-2.09,0.06c-0.04,0-0.07,0-0.11,0
				c-0.06,0-0.13,0-0.2,0c-0.08,0-0.16,0.01-0.23,0.01c-0.16,0-0.32,0-0.47,0.01c-1.21,0.02-2.43,0.04-3.64,0.05"/>
			<path class="st1" d="M44.88,92.75c-0.09,0.06-0.19,0.09-0.28,0.12"/>
			<path class="st1" d="M45.35,92.04c0,0.03,0,0.07-0.01,0.11"/>
			<path class="st1" d="M45.02,0c0,0,0,0,0,0.01h0.01c0,0,0,0,0.01,0c0.01,0.01,0.01,0.01,0.01,0.01h0.01
				c0.01,0.01,0.01,0.01,0.02,0.02c0,0,0.01,0,0.01,0.01c0.01,0.01,0.01,0.01,0.02,0.02c0.01,0.01,0.01,0.01,0.02,0.02
				c0,0.01,0.01,0.02,0.01,0.02c0.01,0.01,0.01,0.02,0.02,0.03c0.01,0.02,0.02,0.04,0.03,0.07c0.01,0.02,0.02,0.04,0.03,0.07
				c0.01,0.03,0.02,0.06,0.03,0.09c0.01,0.03,0.02,0.06,0.02,0.09c0.01,0.04,0.02,0.07,0.02,0.11c0.02,0.07,0.03,0.14,0.04,0.22
				c0,0.04,0.01,0.07,0.01,0.11c0,0.04,0,0.08,0.01,0.12c0,0.04,0,0.08,0,0.11c0,0.02,0,0.04,0,0.06c0,0.01,0,0.02,0,0.03v0.01v0.01
				c0,0,0,0,0,0.01s0,0.02,0,0.04c0,0.01,0,0.03,0,0.04c0,0.03,0,0.06,0,0.09c0,0.03,0,0.06,0,0.09s0,0.06,0,0.09
				c0,0.06,0,0.12,0,0.18c0,0.06,0,0.12,0,0.18c0,0.12,0,0.24,0,0.36c0,0.12,0,0.24,0,0.36c0,0.24,0,0.48,0,0.72s0,0.48,0,0.72
				s0,0.48,0,0.72c0,0.23,0,0.47,0,0.71c0,0.48,0,0.96,0,1.43c0,0.25,0,0.49,0,0.73c0,0.25,0,0.49,0,0.73s0,0.49,0,0.73
				c0,0.24,0,0.48,0,0.73c0,0.01,0,0.02,0,0.03s0,0.02,0,0.03c0,0.02,0,0.04,0,0.06c0,2.96,0,5.93,0,8.9"/>
			<path class="st1" d="M45.35,18.92c0.01,13.12,0,26.25,0,39.38"/>
			<path class="st1" d="M45.35,58.3c0,0.47,0,0.95,0,1.42"/>
			<path class="st1" d="M45.35,59.72c0,0.33,0,0.67,0,1v0.01c0,8.45,0,16.91,0,25.36c0,1.9,0,3.79,0,5.69c0,0.07,0,0.14,0,0.2
				c0,0.02,0,0.04,0,0.06"/>
			<path class="st1" d="M45.34,92.15c0.01-0.01,0.01-0.01,0.01-0.02c0-0.03,0-0.06,0-0.09"/>
			<path class="st1" d="M45.34,92.15c-0.01,0.06-0.02,0.11-0.04,0.16c-0.05,0.11-0.12,0.21-0.2,0.29l-0.01,0.01
				c-0.01,0-0.01,0-0.01,0.01c-0.04,0.04-0.09,0.07-0.14,0.1c0,0-0.01,0-0.01,0.01c-0.02,0.01-0.03,0.02-0.05,0.02"/>
			<path class="st1" d="M44.6,92.87c0.09-0.02,0.19-0.06,0.28-0.12"/>
			<path class="st1" d="M44.6,92.87c-0.11,0.03-0.22,0.04-0.33,0.05c-0.03,0-0.06,0-0.09,0c-0.03,0-0.06,0-0.09,0.01
				c-0.13,0-0.26,0.01-0.39,0.02c-0.51,0.03-1.03,0.05-1.54,0.08c-1.03,0.06-2.05,0.11-3.07,0.16c-1.04,0.05-2.08,0.1-3.12,0.14
				c-0.33,0.01-0.67,0.02-1.01,0.03c-0.03,0-0.07,0-0.1,0c-0.51,0.03-1.02,0.04-1.54,0.05"/>
			<path class="st1" d="M31.07,93.48c0.75-0.02,1.5-0.04,2.25-0.07"/>
		</g>
	</g>
	<text transform="matrix(1 0 0 1 16.7071 42.1147)" class="st2 st3">80</text>
</g>
</svg>
