<?xml version="1.0" encoding="utf-8"?>
<!-- Generator: Adobe Illustrator 26.5.0, SVG Export Plug-In . SVG Version: 6.00 Build 0)  -->
<svg version="1.1" xmlns="http://www.w3.org/2000/svg" xmlns:xlink="http://www.w3.org/1999/xlink" x="0px" y="0px"
	 viewBox="0 0 58.96 93.54" style="enable-background:new 0 0 58.96 93.54;" xml:space="preserve">
<style type="text/css">
	.st0{fill:#F1F1F2;}
	.st1{fill:none;stroke:#404041;stroke-width:0.35;stroke-linecap:round;stroke-linejoin:round;}
	.st2{font-family:'Inter18pt-Medium';}
	.st3{font-size:10px;}
</style>
<g id="Default">
</g>
<g id="_x30_3_x5F_LINEA_FINA">
	<g id="XMLID_00000010992139588329053450000002512988150457442982_">
		<g>
			<path class="st0" d="M58.96,91.95c0,0.03,0,0.07,0,0.1c0,0.07-0.01,0.13-0.03,0.19c0,0.01,0,0.02-0.01,0.03
				c-0.01,0.05-0.03,0.09-0.06,0.14c0,0.01-0.01,0.01-0.01,0.02c-0.02,0.04-0.05,0.07-0.08,0.1c-0.04,0.04-0.08,0.09-0.13,0.12
				c-0.02,0.02-0.04,0.04-0.07,0.06c-0.04,0.02-0.09,0.05-0.13,0.07s-0.08,0.04-0.12,0.05c-0.02,0.01-0.03,0.01-0.05,0.02
				c-0.05,0.02-0.09,0.03-0.14,0.03c-0.12,0.03-0.24,0.03-0.36,0.04c-0.13,0.01-0.27,0.02-0.4,0.02c-0.49,0.03-0.99,0.06-1.48,0.09
				c-0.98,0.05-1.96,0.1-2.95,0.15c-1,0.05-2.01,0.09-3.02,0.13c-0.32,0.02-0.64,0.03-0.96,0.04c-1.2,0.04-2.4,0.07-3.6,0.11h-0.01
				c-0.11,0-0.21,0.01-0.32,0.01c-0.32,0.01-0.64,0.01-0.95,0.02c-1.16,0.02-2.32,0.04-3.47,0.05l-8.07,0.01
				c-1.21-0.01-2.43-0.03-3.64-0.05c-0.15-0.01-0.31-0.01-0.47-0.01c-0.07,0-0.15-0.01-0.23-0.01c-0.07,0-0.14,0-0.2,0
				c-0.04,0-0.07,0-0.11,0c-0.75-0.02-1.5-0.04-2.25-0.07c-0.52-0.01-1.03-0.02-1.54-0.05c-0.03,0-0.07,0-0.1,0
				c-0.34-0.01-0.68-0.02-1.01-0.03c-1.04-0.04-2.08-0.09-3.12-0.14c-1.02-0.05-2.04-0.1-3.07-0.16c-0.51-0.03-1.03-0.05-1.54-0.08
				c-0.13-0.01-0.26-0.02-0.39-0.02c-0.03-0.01-0.06-0.01-0.09-0.01s-0.06,0-0.09,0c-0.11-0.01-0.22-0.02-0.33-0.05
				c-0.09-0.03-0.19-0.06-0.28-0.12c-0.02,0-0.03-0.01-0.05-0.02c0-0.01-0.01-0.01-0.01-0.01c-0.05-0.03-0.1-0.06-0.14-0.1
				c0-0.01,0-0.01-0.01-0.01l-0.01-0.01c-0.08-0.08-0.15-0.18-0.2-0.29c-0.02-0.05-0.03-0.1-0.04-0.16
				c-0.01-0.04-0.01-0.08-0.01-0.11c0-0.02,0-0.04,0-0.06c0-0.06,0-0.13,0-0.2c0-1.9,0-3.79,0-5.69c0-8.45,0-16.91,0-25.36v-0.01
				c0-0.33,0-0.67,0-1c0-0.47,0-0.95,0-1.42c0-13.13-0.01-26.26,0-39.38c0-0.74,0.25-1.48,0.74-2.05c0.48-0.57,1.17-0.94,1.93-0.99
				h1.58h0.01c0.01,0.52,0.05,1.05,0.14,1.57c0.15,0.81,0.44,1.66,0.78,2.4c0.18,0.4,0.39,0.78,0.62,1.15
				c0.06,0.1,0.12,0.18,0.18,0.27c0,0.01,0.01,0.03,0.02,0.04c0.06,0.1,0.13,0.18,0.2,0.27c0.07,0.08,0.14,0.16,0.22,0.23
				c0.06,0.07,0.15,0.14,0.24,0.21l0.01,0.01c0.08,0.06,0.18,0.12,0.28,0.17c0,0,0.01,0,0.01,0.01c0.1,0.05,0.2,0.1,0.3,0.13
				c0,0,0.01,0,0.01,0.01c0.1,0.04,0.2,0.08,0.31,0.11c0.03,0.01,0.06,0.01,0.08,0.02c0.19,0.06,0.39,0.11,0.58,0.16
				c0.02,0.01,0.04,0.01,0.06,0.02c0.04,0.01,0.07,0.02,0.11,0.03c0.16,0.04,0.33,0.07,0.49,0.11c3.06,0.65,6.95,0.74,10.03,0.73
				c2.69,0,5.38,0,8.07,0c2.97-0.01,6.78-0.11,9.73-0.79c0.07-0.02,0.14-0.04,0.22-0.06c0.03,0,0.07-0.01,0.1-0.02
				c0.02-0.01,0.04-0.01,0.05-0.01c0.2-0.05,0.39-0.1,0.58-0.17c0.07-0.01,0.14-0.03,0.2-0.06c0.01,0,0.01,0,0.02,0
				c0.12-0.04,0.23-0.09,0.34-0.14c0.06-0.03,0.13-0.06,0.18-0.1c0.16-0.08,0.31-0.18,0.44-0.3c0.1-0.08,0.18-0.17,0.27-0.28
				c0.09-0.1,0.16-0.21,0.24-0.32c0.11-0.16,0.21-0.32,0.31-0.49c0.2-0.35,0.39-0.7,0.55-1.07c0.32-0.71,0.59-1.54,0.73-2.32
				c0.09-0.5,0.12-1.01,0.13-1.52c1.17,0,1.26,0,1.34,0c0.09,0,0.17,0,0.25,0c0.09,0,0.17,0,0.26,0c0.08,0,0.16,0,0.25,0
				c0.04,0,0.08,0,0.13,0c0.04,0,0.08,0,0.12,0c0.05,0,0.09,0,0.13,0c0.04,0,0.09,0,0.13,0c0.02,0,0.04,0,0.06,0s0.05,0,0.07,0
				c0.01,0,0.02,0,0.03,0c0.01,0,0.02,0,0.03,0c0.01,0,0.02,0,0.03,0c0.01,0,0.01,0,0.02,0h0.01c0,0,0,0,0.01,0
				c0.01,0,0.01,0,0.01,0c0.01,0,0.01,0,0.02,0c0.01,0,0.02,0,0.03-0.01c0.02,0,0.04,0,0.06,0s0.04,0,0.06-0.01
				c0.02,0,0.05,0,0.07-0.01c0.04-0.01,0.08-0.02,0.13-0.03c0.04-0.01,0.08-0.03,0.12-0.04c0.05-0.02,0.09-0.04,0.13-0.06
				c0.04-0.02,0.08-0.05,0.12-0.07c0.08-0.06,0.16-0.12,0.23-0.19c0.07-0.07,0.13-0.14,0.18-0.23c0.03-0.04,0.05-0.08,0.07-0.12
				c0.03-0.04,0.04-0.09,0.06-0.13s0.03-0.09,0.05-0.13c0-0.02,0.01-0.05,0.01-0.07c0.01-0.02,0.01-0.04,0.02-0.06
				c0-0.02,0.01-0.05,0.01-0.07c0-0.02,0-0.04,0.01-0.06c0,7.42,0,14.85,0,22.27c0,4.11,0,8.22,0,12.33s0,8.22,0,12.33v0.01
				c0,8.22,0,16.45,0,24.67c0,1.85,0,3.7,0,5.55c0,0.07,0,0.12,0,0.19V91.95z"/>
			<path class="st0" d="M58.96,12.19c0,0.8,0,1.6,0,2.4c-0.01,0.02-0.01,0.04-0.01,0.06c0,0.02-0.01,0.05-0.01,0.07
				c-0.01,0.02-0.01,0.04-0.02,0.06c0,0.02-0.01,0.05-0.01,0.07c-0.02,0.04-0.03,0.09-0.05,0.13s-0.03,0.09-0.06,0.13
				c-0.02,0.04-0.04,0.08-0.07,0.12c-0.05,0.09-0.11,0.16-0.18,0.23c-0.07,0.07-0.15,0.13-0.23,0.19c-0.04,0.02-0.08,0.05-0.12,0.07
				c-0.04,0.02-0.08,0.04-0.13,0.06c-0.04,0.01-0.08,0.03-0.12,0.04c-0.05,0.01-0.09,0.02-0.13,0.03c-0.02,0.01-0.05,0.01-0.07,0.01
				c-0.02,0.01-0.04,0.01-0.06,0.01s-0.04,0-0.06,0c-0.01,0.01-0.02,0.01-0.03,0.01c-0.01,0-0.01,0-0.02,0c0,0,0,0-0.01,0
				c-0.01,0-0.01,0-0.01,0h-0.01c-0.01,0-0.01,0-0.02,0c-0.01,0-0.02,0-0.03,0c-0.01,0-0.02,0-0.03,0c-0.01,0-0.02,0-0.03,0
				c-0.02,0-0.05,0-0.07,0s-0.04,0-0.06,0c-0.04,0-0.09,0-0.13,0c-0.04,0-0.08,0-0.13,0c-0.04,0-0.08,0-0.12,0
				c-0.05,0-0.09,0-0.13,0c-0.09,0-0.17,0-0.25,0c-0.09,0-0.17,0-0.26,0c-0.08,0-0.16,0-0.25,0c-0.08,0-0.17,0-1.34,0
				c0.01-0.3,0.01-0.61,0.01-0.92c0-1.45,0-2.89,0-4.34c0-0.06,0-0.12,0-0.19c0-0.12-0.01-0.24-0.02-0.36
				c-0.02-0.2-0.07-0.36-0.16-0.51c-0.04-0.05-0.08-0.1-0.12-0.15c-0.2-0.22-0.47-0.35-0.75-0.43c0-0.68,0-1.35,0-2.03
				c0-0.3-0.12-0.58-0.31-0.79c-0.2-0.21-0.47-0.34-0.78-0.34c-3.99,0-7.97,0-11.96,0h-8.07c-4.18,0-8.36,0-12.54,0
				c-0.31,0-0.59,0.13-0.78,0.34c-0.19,0.21-0.31,0.49-0.31,0.79c0,0.68,0,1.35,0,2.03c-0.22,0.07-0.44,0.17-0.62,0.31
				c-0.22,0.17-0.33,0.37-0.38,0.63c-0.03,0.15-0.04,0.29-0.05,0.43c0,0.08,0,0.16,0,0.23c0,1.46,0,2.92,0,4.38
				c0,0.31,0,0.61,0.01,0.92h-0.01h-1.58c-0.76,0.05-1.45,0.42-1.93,0.99c-0.49,0.57-0.74,1.31-0.74,2.05c0-2.97,0-5.94,0-8.9
				c0-0.02,0-0.04,0-0.06c0-0.01,0-0.02,0-0.03s0-0.02,0-0.03c0-0.25,0-0.49,0-0.73c0-0.24,0-0.49,0-0.73s0-0.48,0-0.73
				c0-0.24,0-0.48,0-0.73c0-0.47,0-0.95,0-1.43c0-0.24,0-0.48,0-0.71c0-0.24,0-0.48,0-0.72s0-0.48,0-0.72s0-0.48,0-0.72
				c0-0.12,0-0.24,0-0.36c0-0.12,0-0.24,0-0.36c0-0.06,0-0.12,0-0.18c0-0.06,0-0.12,0-0.18c0-0.03,0-0.06,0-0.09s0-0.06,0-0.09
				c0-0.03,0-0.06,0-0.09c0-0.01,0-0.03,0-0.04c0-0.02,0-0.03,0-0.04s0-0.01,0-0.01V1.23V1.22c0-0.01,0-0.02,0-0.03
				c0-0.02,0-0.04,0-0.06c0-0.03,0-0.07,0-0.11c0.01-0.04,0.01-0.08,0.01-0.12c0-0.04,0.01-0.07,0.01-0.11
				c0.01-0.08,0.02-0.15,0.04-0.22c0-0.04,0.01-0.07,0.02-0.11c0-0.03,0.01-0.06,0.02-0.09c0.01-0.03,0.02-0.06,0.03-0.09
				s0.02-0.05,0.03-0.07c0.01-0.03,0.02-0.05,0.03-0.07c0.01-0.01,0.01-0.02,0.02-0.03c0,0,0.01-0.01,0.01-0.02
				c0.01-0.01,0.01-0.01,0.02-0.02c0.01-0.01,0.01-0.01,0.02-0.02c0-0.01,0.01-0.01,0.01-0.01c0.01-0.01,0.01-0.01,0.02-0.02h0.01
				c0,0,0,0,0.01-0.01c0.01,0,0.01,0,0.01,0h0.01c0-0.01,0-0.01,0-0.01c0.01,0,0.01,0,0.01,0c0.01,0,0.01,0,0.01,0h0.01
				c0,0,0.01,0,0.02,0s0.02,0,0.03,0s0.02,0,0.03,0c0.01,0,0.02,0,0.03,0c0.02,0,0.04,0,0.06,0c0.02,0,0.04,0,0.05,0
				c0.02,0,0.04,0,0.06,0c0.02,0,0.04,0,0.06,0c0.04,0,0.07,0,0.11,0s0.08,0,0.12,0s0.07,0,0.11,0c0.08,0,0.15,0,0.23,0
				s0.15,0,0.23,0c0.07,0,0.15,0,0.22,0c0.08,0,0.15,0,0.23,0s0.15,0,0.23,0c0.15,0,0.3,0,0.45,0s0.3,0,0.45,0c0.14,0,0.29,0,0.44,0
				c0.15,0,0.3,0,0.45,0c0.29,0,0.58,0,0.88,0c0.29,0,0.58,0,0.87,0c0.29,0,0.58,0,0.86,0c0.29,0,0.57,0,0.86,0
				c0.28,0,0.56,0,0.84,0c0.28,0,0.56,0,0.84,0c0.55,0,1.1,0,1.64,0c0.54,0,1.07,0,1.6,0c0.53,0,1.05,0,1.57,0c0.51,0,1.02,0,1.53,0
				c0.25,0,0.5,0,0.73,0c0.12,0,0.23,0,0.34,0c0.1,0,0.2,0,0.29,0c0.18,0,0.32,0,0.44,0c0.12,0,0.22,0,0.29,0c0.08,0,0.14,0,0.19,0
				c0.06,0,0.1,0,0.14,0c0.28,0,0.57,0,0.83,0c0.08,0,0.15,0,0.22,0h8.07c0.16,0,0.31,0,0.47,0c0.04,0,0.08,0,0.14,0
				c0.05,0,0.11,0,0.19,0c0.07,0,0.17,0,0.29,0c0.11,0,0.26,0,0.44,0c0.09,0,0.19,0,0.29,0c0.11,0,0.22,0,0.34,0
				C43,0,43.25,0,43.5,0c0.51,0,1.02,0,1.53,0c0.52,0,1.04,0,1.57,0s1.06,0,1.6,0s1.09,0,1.64,0c0.28,0,0.56,0,0.84,0
				c0.28,0,0.56,0,0.84,0c0.28,0,0.57,0,0.86,0c0.28,0,0.57,0,0.86,0s0.58,0,0.87,0c0.29,0,0.59,0,0.88,0c0.15,0,0.3,0,0.45,0
				c0.15,0,0.29,0,0.44,0c0.15,0,0.3,0,0.45,0s0.3,0,0.45,0c0.08,0,0.15,0,0.23,0c0.07,0,0.15,0,0.22,0c0.08,0,0.16,0,0.23,0
				c0.08,0,0.15,0,0.23,0c0.08,0,0.15,0,0.23,0c0.04,0,0.07,0,0.11,0s0.08,0,0.12,0c0.03,0,0.07,0,0.11,0c0.02,0,0.04,0,0.06,0
				c0.02,0,0.04,0,0.05,0c0.02,0,0.04,0,0.06,0s0.04,0,0.06,0c0.01,0,0.02,0,0.03,0c0.01,0,0.02,0,0.03,0c0.01,0,0.02,0,0.02,0
				c0.01,0,0.02,0,0.03,0c0,0,0,0,0.01,0c0,0,0,0,0.01,0c0,0,0.01,0,0.01,0.01c0,0,0,0,0.01,0c0.01,0,0.01,0,0.01,0
				c0,0.01,0.01,0.01,0.01,0.01h0.01c0,0.01,0.01,0.01,0.02,0.02c0,0,0.01,0,0.01,0.01c0.01,0.01,0.01,0.01,0.02,0.02
				c0,0.01,0.01,0.01,0.02,0.02c0,0.01,0.01,0.02,0.01,0.02c0.01,0.01,0.01,0.02,0.02,0.03c0.01,0.02,0.02,0.04,0.03,0.07
				c0.01,0.02,0.02,0.04,0.03,0.07s0.02,0.06,0.03,0.09c0.01,0.03,0.01,0.06,0.02,0.09c0.01,0.04,0.02,0.07,0.02,0.11
				c0.02,0.07,0.03,0.14,0.04,0.22c0,0.04,0,0.07,0.01,0.11c0,0.04,0,0.08,0.01,0.12c0,0.04,0,0.08,0,0.11c0,0.02,0,0.04,0,0.06
				c0,0.01,0,0.02,0,0.03v0.01v0.01c0,0,0,0,0,0.01s0,0.02,0,0.04c0,0.01,0,0.03,0,0.04c0,0.03,0,0.06,0,0.09c0,0.03,0,0.06,0,0.09
				s0,0.06,0,0.09c0,0.06,0,0.12,0,0.18c0,0.06,0,0.12,0,0.18c0,0.12,0,0.24,0,0.36c0,0.12,0,0.24,0,0.36c0,0.24,0,0.48,0,0.72
				s0,0.48,0,0.72c0,0.16,0,0.31,0,0.47c0,0.41,0,0.82,0,1.23c0,0.42,0,0.83,0,1.24s0,0.82,0,1.23c0,0.41,0,0.82,0,1.23
				c0,0.21,0,0.42,0,0.62c0,0.21,0,0.41,0,0.62c0,0.2,0,0.41,0,0.62c0,0.2,0,0.41,0,0.61C58.96,12.06,58.96,12.12,58.96,12.19z"/>
			<path class="st0" d="M58.92,92.27c-0.01,0.04-0.02,0.07-0.04,0.11c-0.01,0.01-0.01,0.02-0.02,0.03
				C58.89,92.36,58.91,92.32,58.92,92.27z"/>
			<path class="st0" d="M58.64,92.65c0.05-0.03,0.09-0.08,0.13-0.12C58.73,92.58,58.69,92.62,58.64,92.65z"/>
			<path class="st0" d="M58.44,92.78c0.04-0.02,0.09-0.05,0.13-0.07C58.53,92.73,58.49,92.76,58.44,92.78z"/>
			<path class="st0" d="M54.71,10.62c0,1.45,0,2.89,0,4.34c0,0.31,0,0.62-0.01,0.92c-0.01,0.51-0.04,1.02-0.13,1.52
				c-0.14,0.78-0.41,1.61-0.73,2.32c-0.16,0.37-0.35,0.72-0.55,1.07c-0.1,0.17-0.2,0.33-0.31,0.49c-0.08,0.11-0.15,0.22-0.24,0.32
				c-0.09,0.11-0.17,0.2-0.27,0.28c-0.13,0.12-0.28,0.22-0.44,0.3c-0.05,0.04-0.12,0.07-0.18,0.1c-0.12,0.05-0.24,0.1-0.36,0.14
				c-0.06,0.03-0.13,0.05-0.2,0.06c-0.19,0.07-0.38,0.12-0.58,0.17c-0.01,0-0.03,0-0.05,0.01c-0.03,0.01-0.07,0.02-0.1,0.02
				c-0.08,0.02-0.15,0.04-0.22,0.06c-2.95,0.68-6.76,0.78-9.73,0.79c-2.69,0-5.38,0-8.07,0c-3.08,0.01-6.97-0.08-10.03-0.73
				c-0.16-0.04-0.33-0.07-0.49-0.11c-0.04-0.01-0.07-0.02-0.11-0.03c-0.02-0.01-0.04-0.01-0.06-0.02c-0.19-0.05-0.38-0.1-0.58-0.16
				c-0.02-0.01-0.05-0.01-0.08-0.02c-0.11-0.03-0.21-0.07-0.31-0.11c0-0.01-0.01-0.01-0.01-0.01c-0.1-0.03-0.2-0.08-0.3-0.13
				c0-0.01-0.01-0.01-0.01-0.01c-0.1-0.05-0.2-0.11-0.28-0.17l-0.01-0.01c-0.09-0.06-0.17-0.13-0.24-0.21
				c-0.08-0.07-0.15-0.15-0.22-0.23c-0.07-0.09-0.14-0.17-0.2-0.27c-0.01-0.01-0.02-0.03-0.02-0.04c-0.06-0.09-0.12-0.17-0.18-0.27
				c-0.23-0.37-0.44-0.75-0.62-1.15c-0.34-0.74-0.63-1.59-0.78-2.4c-0.09-0.52-0.13-1.05-0.14-1.57c-0.01-0.31-0.01-0.61-0.01-0.92
				c0-1.46,0-2.92,0-4.38c0-0.07,0-0.15,0-0.23c0.01-0.14,0.02-0.28,0.05-0.43c0.05-0.26,0.16-0.46,0.38-0.63
				c0.18-0.14,0.4-0.24,0.62-0.31c0.1-0.03,0.21-0.06,0.31-0.08c0.05-0.01,0.09-0.02,0.13-0.03c0.64-0.13,1.33-0.16,1.98-0.16
				c0.38-0.01,0.76-0.01,1.14-0.01c3.35,0,6.71,0,10.07,0h8.07c3.26,0,6.52,0,9.78,0c0.49,0,0.98,0,1.47,0.02
				c0.48,0.03,1,0.06,1.49,0.18c0.02,0,0.04,0.01,0.06,0.02c0.05,0,0.09,0.02,0.14,0.03c0.04,0.01,0.07,0.02,0.11,0.03
				c0.28,0.08,0.55,0.21,0.75,0.43c0.04,0.05,0.08,0.1,0.12,0.15c0.09,0.15,0.14,0.31,0.16,0.51c0.01,0.12,0.02,0.24,0.02,0.36
				C54.71,10.5,54.71,10.56,54.71,10.62z"/>
			<path class="st0" d="M53.66,6.95c0,0.68,0,1.35,0,2.03c-0.04-0.01-0.07-0.02-0.11-0.03c-0.05-0.01-0.09-0.03-0.14-0.03
				c-0.02-0.01-0.04-0.02-0.06-0.02V6.16C53.54,6.37,53.66,6.65,53.66,6.95z"/>
			<path class="st0" d="M53.35,6.16V8.9c-0.49-0.12-1.01-0.15-1.49-0.18C51.37,8.7,50.88,8.7,50.39,8.7c-3.26,0-6.52,0-9.78,0h-8.07
				c-3.36,0-6.72,0-10.07,0c-0.38,0-0.76,0-1.14,0.01c-0.65,0-1.34,0.03-1.98,0.16c-0.04,0.01-0.08,0.02-0.13,0.03V6.16
				c0.19-0.21,0.47-0.34,0.78-0.34c4.18,0,8.36,0,12.54,0h8.07c3.99,0,7.97,0,11.96,0C52.88,5.82,53.15,5.95,53.35,6.16z"/>
			<path class="st0" d="M51.85,22.28c-0.11,0.05-0.22,0.1-0.34,0.14c-0.01,0-0.01,0-0.02,0C51.61,22.38,51.73,22.33,51.85,22.28z"/>
			<path class="st0" d="M27.89,93.48c-0.7-0.02-1.4-0.04-2.09-0.06c-0.05,0-0.11,0-0.16-0.01C26.39,93.44,27.14,93.46,27.89,93.48z"
				/>
			<path class="st0" d="M21.27,22.48c0.2,0.06,0.39,0.11,0.58,0.16C21.66,22.59,21.46,22.54,21.27,22.48z"/>
			<path class="st0" d="M20.03,21.81c0.07,0.08,0.15,0.15,0.24,0.21C20.18,21.95,20.09,21.88,20.03,21.81z"/>
			<path class="st0" d="M19.22,6.16V8.9c-0.1,0.02-0.21,0.05-0.31,0.08c0-0.68,0-1.35,0-2.03C18.91,6.65,19.03,6.37,19.22,6.16z"/>
			<path class="st0" d="M14.08,92.75c0.09,0.06,0.19,0.09,0.28,0.12C14.27,92.85,14.17,92.81,14.08,92.75z"/>
			<path class="st0" d="M13.94,0c0,0,0,0,0,0.01h-0.01c0,0,0,0-0.01,0c-0.01,0.01-0.01,0.01-0.01,0.01H13.9
				c-0.01,0.01-0.01,0.01-0.02,0.02c0,0-0.01,0-0.01,0.01c-0.01,0.01-0.01,0.01-0.02,0.02c-0.01,0.01-0.01,0.01-0.02,0.02
				c0,0.01-0.01,0.02-0.01,0.02c-0.01,0.01-0.01,0.02-0.02,0.03c-0.01,0.02-0.02,0.04-0.03,0.07c-0.01,0.02-0.02,0.04-0.03,0.07
				s-0.02,0.06-0.03,0.09c-0.01,0.03-0.02,0.06-0.02,0.09c-0.01,0.04-0.02,0.07-0.02,0.11c-0.02,0.07-0.03,0.14-0.04,0.22
				c0,0.04-0.01,0.07-0.01,0.11c0,0.04,0,0.08-0.01,0.12c0,0.04,0,0.08,0,0.11c0,0.02,0,0.04,0,0.06c0,0.01,0,0.02,0,0.03v0.01v0.01
				c0,0,0,0,0,0.01s0,0.02,0,0.04c0,0.01,0,0.03,0,0.04c0,0.03,0,0.06,0,0.09c0,0.03,0,0.06,0,0.09s0,0.06,0,0.09
				c0,0.06,0,0.12,0,0.18c0,0.06,0,0.12,0,0.18c0,0.12,0,0.24,0,0.36c0,0.12,0,0.24,0,0.36c0,0.24,0,0.48,0,0.72s0,0.48,0,0.72
				s0,0.48,0,0.72c0,0.23,0,0.47,0,0.71c0,0.48,0,0.96,0,1.43c0,0.25,0,0.49,0,0.73c0,0.25,0,0.49,0,0.73s0,0.49,0,0.73
				c0,0.24,0,0.48,0,0.73c0,0.01,0,0.02,0,0.03s0,0.02,0,0.03c0,0.02,0,0.04,0,0.06c0,2.96,0,5.93,0,8.9
				c-0.01,13.12,0,26.25,0,39.38c0,0.79-0.64,1.42-1.42,1.42c-1.7,0-3.4,0-5.1,0c-1.96,0-3.73-0.79-5.02-2.07
				C0.79,56.36,0,54.59,0,52.63C0,37.45,0,22.27,0,7.09C0,3.18,3.17,0,7.09,0C9.37,0,11.66,0,13.94,0z"/>
			<path class="st0" d="M13.61,92.04c0,0.03,0,0.07,0.01,0.11c-0.01-0.01-0.01-0.01-0.01-0.02C13.61,92.1,13.61,92.07,13.61,92.04z"
				/>
			<path class="st0" d="M13.61,58.3c0,0.47,0,0.95,0,1.42h-1.42C12.97,59.72,13.61,59.09,13.61,58.3z"/>
		</g>
		<g>
			<path class="st1" d="M19.29,9.47c-0.01,0-0.01,0.01-0.02,0.01c-0.03,0.02-0.05,0.04-0.07,0.07c-0.03,0.02-0.05,0.04-0.07,0.07
				c-0.03,0.03-0.05,0.05-0.07,0.08c-0.02,0.03-0.05,0.06-0.07,0.1c-0.02,0.03-0.04,0.07-0.06,0.11c-0.03,0.04-0.05,0.09-0.07,0.13
				c-0.02,0.05-0.04,0.1-0.06,0.15c-0.01,0.03-0.02,0.06-0.03,0.08c-0.02,0.06-0.04,0.11-0.05,0.17c-0.02,0.06-0.04,0.12-0.05,0.19
				c-0.02,0.06-0.03,0.13-0.04,0.19c-0.02,0.1-0.03,0.2-0.04,0.29c-0.02,0.1-0.03,0.19-0.03,0.29c-0.01,0.1-0.02,0.19-0.03,0.29
				c0,0.05,0,0.09-0.01,0.14c0,0.05,0,0.1,0,0.14c-0.01,0.07-0.01,0.14-0.01,0.21c-0.01,0.07-0.01,0.14-0.01,0.21
				c-0.01,0.09-0.01,0.18-0.02,0.27c0,0.09-0.01,0.18-0.01,0.26c-0.01,0.11-0.02,0.22-0.03,0.33c-0.01,0.27-0.03,0.52-0.04,0.77
				c-0.01,0.17-0.02,0.34-0.02,0.51"/>
			<path class="st1" d="M32.54,23.53c2.69,0,5.38,0,8.07,0"/>
			<path class="st1" d="M21.27,22.48c0.2,0.06,0.39,0.11,0.58,0.16"/>
			<path class="st1" d="M20.03,21.81c0.07,0.08,0.15,0.15,0.24,0.21"/>
			<path class="st1" d="M32.54,8.7c-3.36,0-6.72,0-10.07,0c-0.38,0-0.76,0-1.14,0.01c-0.65,0-1.34,0.03-1.98,0.16
				c-0.04,0.01-0.08,0.02-0.13,0.03"/>
			<path class="st1" d="M19.22,8.9c-0.1,0.02-0.21,0.05-0.31,0.08"/>
			<path class="st1" d="M18.91,8.98c-0.22,0.07-0.44,0.17-0.62,0.31c-0.22,0.17-0.33,0.37-0.38,0.63c-0.03,0.15-0.04,0.29-0.05,0.43
				c0,0.08,0,0.16,0,0.23c0,1.46,0,2.92,0,4.38c0,0.31,0,0.61,0.01,0.92"/>
			<path class="st1" d="M17.87,15.88c0.01,0.52,0.05,1.05,0.14,1.57c0.15,0.81,0.44,1.66,0.78,2.4c0.18,0.4,0.39,0.78,0.62,1.15
				c0.06,0.1,0.12,0.18,0.18,0.27c0,0.01,0.01,0.03,0.02,0.04c0.06,0.1,0.13,0.18,0.2,0.27c0.07,0.08,0.14,0.16,0.22,0.23"/>
			<path class="st1" d="M20.27,22.02c-0.09-0.07-0.18-0.14-0.24-0.21"/>
			<path class="st1" d="M20.27,22.02l0.01,0.01c0.08,0.06,0.18,0.12,0.28,0.17c0,0,0.01,0,0.01,0.01c0.1,0.05,0.2,0.1,0.3,0.13
				c0,0,0.01,0,0.01,0.01c0.1,0.04,0.2,0.08,0.31,0.11c0.03,0.01,0.06,0.01,0.08,0.02"/>
			<path class="st1" d="M21.85,22.64c-0.19-0.05-0.39-0.1-0.58-0.16"/>
			<path class="st1" d="M21.85,22.64c0.02,0.01,0.04,0.01,0.06,0.02c0.04,0.01,0.07,0.02,0.11,0.03c0.16,0.04,0.33,0.07,0.49,0.11
				c3.06,0.65,6.95,0.74,10.03,0.73"/>
			<path class="st1" d="M53.66,8.98c0-0.68,0-1.35,0-2.03c0-0.3-0.12-0.58-0.31-0.79"/>
			<path class="st1" d="M40.61,5.82c3.99,0,7.97,0,11.96,0c0.31,0,0.58,0.13,0.78,0.34"/>
			<path class="st1" d="M40.61,23.53c2.97-0.01,6.78-0.11,9.73-0.79c0.07-0.02,0.14-0.04,0.22-0.06c0.03,0,0.07-0.01,0.1-0.02
				c0.02-0.01,0.04-0.01,0.05-0.01c0.2-0.05,0.39-0.1,0.58-0.17c0.07-0.01,0.14-0.03,0.2-0.06c0.01,0,0.01,0,0.02,0
				c0.12-0.04,0.23-0.09,0.34-0.14"/>
			<path class="st1" d="M51.85,22.28c-0.12,0.05-0.24,0.1-0.36,0.14"/>
			<path class="st1" d="M51.85,22.28c0.06-0.03,0.13-0.06,0.18-0.1c0.16-0.08,0.31-0.18,0.44-0.3c0.1-0.08,0.18-0.17,0.27-0.28
				c0.09-0.1,0.16-0.21,0.24-0.32c0.11-0.16,0.21-0.32,0.31-0.49c0.2-0.35,0.39-0.7,0.55-1.07c0.32-0.71,0.59-1.54,0.73-2.32
				c0.09-0.5,0.12-1.01,0.13-1.52"/>
			<path class="st1" d="M54.7,15.88c0.01-0.3,0.01-0.61,0.01-0.92c0-1.45,0-2.89,0-4.34c0-0.06,0-0.12,0-0.19
				c0-0.12-0.01-0.24-0.02-0.36c-0.02-0.2-0.07-0.36-0.16-0.51c-0.04-0.05-0.08-0.1-0.12-0.15c-0.2-0.22-0.47-0.35-0.75-0.43"/>
			<path class="st1" d="M53.66,8.98c-0.04-0.01-0.07-0.02-0.11-0.03c-0.05-0.01-0.09-0.03-0.14-0.03c-0.02-0.01-0.04-0.02-0.06-0.02
				"/>
			<path class="st1" d="M53.35,8.9c-0.49-0.12-1.01-0.15-1.49-0.18C51.37,8.7,50.88,8.7,50.39,8.7c-3.26,0-6.52,0-9.78,0"/>
			<path class="st1" d="M54.7,15.88c1.17,0,1.26,0,1.34,0c0.09,0,0.17,0,0.25,0c0.09,0,0.17,0,0.26,0c0.08,0,0.16,0,0.25,0
				c0.04,0,0.08,0,0.13,0c0.04,0,0.08,0,0.12,0c0.05,0,0.09,0,0.13,0c0.04,0,0.09,0,0.13,0c0.02,0,0.04,0,0.06,0s0.05,0,0.07,0
				c0.01,0,0.02,0,0.03,0c0.01,0,0.02,0,0.03,0c0.01,0,0.02,0,0.03,0c0.01,0,0.01,0,0.02,0h0.01c0,0,0,0,0.01,0
				c0.01,0,0.01,0,0.01,0c0.01,0,0.01,0,0.02,0c0.01,0,0.02,0,0.03-0.01c0.02,0,0.04,0,0.06,0s0.04,0,0.06-0.01
				c0.02,0,0.05,0,0.07-0.01c0.04-0.01,0.08-0.02,0.13-0.03c0.04-0.01,0.08-0.03,0.12-0.04c0.05-0.02,0.09-0.04,0.13-0.06
				c0.04-0.02,0.08-0.05,0.12-0.07c0.08-0.06,0.16-0.12,0.23-0.19c0.07-0.07,0.13-0.14,0.18-0.23c0.03-0.04,0.05-0.08,0.07-0.12
				c0.03-0.04,0.04-0.09,0.06-0.13s0.03-0.09,0.05-0.13c0-0.02,0.01-0.05,0.01-0.07c0.01-0.02,0.01-0.04,0.02-0.06
				c0-0.02,0.01-0.05,0.01-0.07c0-0.02,0-0.04,0.01-0.06"/>
			<line class="st1" x1="53.35" y1="8.9" x2="53.35" y2="6.16"/>
			<path class="st1" d="M54.19,14.53c0-0.17-0.01-0.34-0.02-0.51c-0.01-0.25-0.03-0.5-0.05-0.77c0-0.11-0.01-0.22-0.02-0.33
				c0-0.08-0.01-0.17-0.01-0.26c-0.01-0.09-0.01-0.18-0.02-0.27c0-0.07-0.01-0.14-0.01-0.21s-0.01-0.14-0.01-0.21
				c0-0.04,0-0.09-0.01-0.14c0-0.05,0-0.09-0.01-0.14c0-0.1-0.01-0.19-0.02-0.29c0-0.1-0.01-0.19-0.03-0.29
				c-0.01-0.09-0.02-0.19-0.04-0.29c-0.01-0.06-0.03-0.13-0.04-0.19c-0.02-0.07-0.03-0.13-0.05-0.19c-0.02-0.06-0.03-0.11-0.05-0.17
				c-0.01-0.02-0.02-0.05-0.03-0.08c-0.02-0.05-0.04-0.1-0.06-0.15c-0.02-0.04-0.05-0.09-0.07-0.13c-0.02-0.04-0.04-0.08-0.06-0.11
				c-0.03-0.04-0.05-0.07-0.07-0.1c-0.02-0.03-0.04-0.05-0.07-0.08c-0.02-0.03-0.04-0.05-0.07-0.07c-0.02-0.03-0.05-0.05-0.07-0.07
				c-0.01,0-0.01-0.01-0.02-0.01"/>
			<path class="st1" d="M18.91,8.98c0-0.68,0-1.35,0-2.03c0-0.3,0.12-0.58,0.31-0.79c0.19-0.21,0.47-0.34,0.78-0.34
				c4.18,0,8.36,0,12.54,0"/>
			<path class="st1" d="M32.54,0c-0.07,0-0.14,0-0.22,0c-0.26,0-0.55,0-0.83,0c-0.04,0-0.08,0-0.14,0c-0.05,0-0.11,0-0.19,0
				c-0.07,0-0.17,0-0.29,0c-0.12,0-0.26,0-0.44,0c-0.09,0-0.19,0-0.29,0c-0.11,0-0.22,0-0.34,0c-0.23,0-0.48,0-0.73,0
				c-0.51,0-1.02,0-1.53,0c-0.52,0-1.04,0-1.57,0c-0.53,0-1.06,0-1.6,0c-0.54,0-1.09,0-1.64,0c-0.28,0-0.56,0-0.84,0
				c-0.28,0-0.56,0-0.84,0c-0.29,0-0.57,0-0.86,0c-0.28,0-0.57,0-0.86,0c-0.29,0-0.58,0-0.87,0c-0.3,0-0.59,0-0.88,0
				c-0.15,0-0.3,0-0.45,0c-0.15,0-0.3,0-0.44,0c-0.15,0-0.3,0-0.45,0s-0.3,0-0.45,0c-0.08,0-0.15,0-0.23,0s-0.15,0-0.23,0
				c-0.07,0-0.15,0-0.22,0c-0.08,0-0.15,0-0.23,0s-0.15,0-0.23,0c-0.04,0-0.07,0-0.11,0s-0.08,0-0.12,0s-0.07,0-0.11,0
				c-0.02,0-0.04,0-0.06,0c-0.02,0-0.04,0-0.06,0c-0.01,0-0.03,0-0.05,0c-0.02,0-0.04,0-0.06,0c-0.01,0-0.02,0-0.03,0
				c-0.01,0-0.02,0-0.03,0S14,0,13.99,0s-0.02,0-0.02,0h-0.01c0,0,0,0-0.01,0c0,0,0,0-0.01,0"/>
			<path class="st1" d="M17.86,15.88h-1.58c-0.76,0.05-1.45,0.42-1.93,0.99c-0.49,0.57-0.74,1.31-0.74,2.05"/>
			<line class="st1" x1="19.22" y1="8.9" x2="19.22" y2="6.16"/>
			<path class="st1" d="M13.94,0c-2.28,0-4.57,0-6.85,0C3.17,0,0,3.18,0,7.09c0,15.18,0,30.36,0,45.54c0,1.96,0.79,3.73,2.07,5.02
				c1.29,1.28,3.06,2.07,5.02,2.07c1.7,0,3.4,0,5.1,0"/>
			<path class="st1" d="M13.61,58.3c0,0.79-0.64,1.42-1.42,1.42"/>
			<line class="st1" x1="13.61" y1="59.72" x2="12.19" y2="59.72"/>
			<line class="st1" x1="32.54" y1="0" x2="40.61" y2="0"/>
			<line class="st1" x1="32.54" y1="5.82" x2="40.61" y2="5.82"/>
			<line class="st1" x1="32.54" y1="8.7" x2="40.61" y2="8.7"/>
			<path class="st1" d="M58.57,92.71c-0.04,0.02-0.08,0.05-0.13,0.07c-0.04,0.02-0.08,0.04-0.12,0.05
				c-0.02,0.01-0.03,0.01-0.05,0.02c-0.05,0.02-0.09,0.03-0.14,0.03c-0.12,0.03-0.24,0.03-0.36,0.04c-0.13,0.01-0.27,0.02-0.4,0.02
				c-0.49,0.03-0.99,0.06-1.48,0.09c-0.98,0.05-1.96,0.1-2.95,0.15c-1,0.05-2.01,0.09-3.02,0.13c-0.32,0.02-0.64,0.03-0.96,0.04
				c-1.2,0.04-2.4,0.07-3.6,0.11h-0.01c-0.11,0-0.21,0.01-0.32,0.01c-0.32,0.01-0.64,0.01-0.95,0.02c-1.16,0.02-2.32,0.04-3.47,0.05
				"/>
			<path class="st1" d="M58.77,92.53c-0.04,0.04-0.08,0.09-0.13,0.12"/>
			<path class="st1" d="M58.92,92.27c-0.01,0.04-0.02,0.07-0.04,0.11c-0.01,0.01-0.01,0.02-0.02,0.03"/>
			<path class="st1" d="M58.96,14.59c0-0.8,0-1.6,0-2.4c0-0.07,0-0.13,0-0.2c0-0.2,0-0.41,0-0.61c0-0.21,0-0.42,0-0.62
				c0-0.21,0-0.41,0-0.62c0-0.2,0-0.41,0-0.62c0-0.41,0-0.82,0-1.23c0-0.41,0-0.82,0-1.23s0-0.82,0-1.24c0-0.41,0-0.82,0-1.23
				c0-0.16,0-0.31,0-0.47c0-0.24,0-0.48,0-0.72s0-0.48,0-0.72c0-0.12,0-0.24,0-0.36c0-0.12,0-0.24,0-0.36c0-0.06,0-0.12,0-0.18
				c0-0.06,0-0.12,0-0.18c0-0.03,0-0.06,0-0.09s0-0.06,0-0.09c0-0.03,0-0.06,0-0.09c0-0.01,0-0.03,0-0.04c0-0.02,0-0.03,0-0.04
				s0-0.01,0-0.01V1.23V1.22c0-0.01,0-0.02,0-0.03c0-0.02,0-0.04,0-0.06c0-0.03,0-0.07,0-0.11c-0.01-0.04-0.01-0.08-0.01-0.12
				c-0.01-0.04-0.01-0.07-0.01-0.11c-0.01-0.08-0.02-0.15-0.04-0.22c0-0.04-0.01-0.07-0.02-0.11c-0.01-0.03-0.01-0.06-0.02-0.09
				c-0.01-0.03-0.02-0.06-0.03-0.09s-0.02-0.05-0.03-0.07c-0.01-0.03-0.02-0.05-0.03-0.07c-0.01-0.01-0.01-0.02-0.02-0.03
				c0,0-0.01-0.01-0.01-0.02c-0.01-0.01-0.02-0.01-0.02-0.02c-0.01-0.01-0.01-0.01-0.02-0.02c0-0.01-0.01-0.01-0.01-0.01
				c-0.01-0.01-0.02-0.01-0.02-0.02h-0.01c0,0-0.01,0-0.01-0.01c0,0,0,0-0.01,0c-0.01,0-0.01,0-0.01,0C58.63,0,58.62,0,58.62,0
				c-0.01,0-0.01,0-0.01,0C58.6,0,58.6,0,58.6,0c-0.01,0-0.02,0-0.03,0c0,0-0.01,0-0.02,0c-0.01,0-0.02,0-0.03,0
				c-0.01,0-0.02,0-0.03,0c-0.02,0-0.04,0-0.06,0s-0.04,0-0.06,0c-0.01,0-0.03,0-0.05,0c-0.02,0-0.04,0-0.06,0
				c-0.04,0-0.08,0-0.11,0c-0.04,0-0.08,0-0.12,0s-0.07,0-0.11,0c-0.08,0-0.15,0-0.23,0c-0.08,0-0.15,0-0.23,0
				c-0.07,0-0.15,0-0.23,0c-0.07,0-0.15,0-0.22,0c-0.08,0-0.15,0-0.23,0c-0.15,0-0.3,0-0.45,0s-0.3,0-0.45,0c-0.15,0-0.29,0-0.44,0
				c-0.15,0-0.3,0-0.45,0c-0.29,0-0.59,0-0.88,0c-0.29,0-0.58,0-0.87,0s-0.58,0-0.86,0c-0.29,0-0.58,0-0.86,0c-0.28,0-0.56,0-0.84,0
				c-0.28,0-0.56,0-0.84,0c-0.55,0-1.1,0-1.64,0s-1.07,0-1.6,0s-1.05,0-1.57,0c-0.51,0-1.02,0-1.53,0c-0.25,0-0.5,0-0.73,0
				c-0.12,0-0.23,0-0.34,0c-0.1,0-0.2,0-0.29,0c-0.18,0-0.33,0-0.44,0c-0.12,0-0.22,0-0.29,0c-0.08,0-0.14,0-0.19,0
				c-0.06,0-0.1,0-0.14,0c-0.16,0-0.31,0-0.47,0"/>
			<path class="st1" d="M58.96,14.59c0,7.42,0,14.85,0,22.27c0,4.11,0,8.22,0,12.33s0,8.22,0,12.33v0.01c0,8.22,0,16.45,0,24.67
				c0,1.85,0,3.7,0,5.55c0,0.07,0,0.12,0,0.19v0.01c0,0.03,0,0.07,0,0.1c0,0.07-0.01,0.13-0.03,0.19c0,0.01,0,0.02-0.01,0.03"/>
			<path class="st1" d="M58.86,92.41c0.03-0.05,0.05-0.09,0.06-0.14"/>
			<path class="st1" d="M58.86,92.41c0,0.01-0.01,0.01-0.01,0.02c-0.02,0.04-0.05,0.07-0.08,0.1"/>
			<path class="st1" d="M58.64,92.65c0.05-0.03,0.09-0.07,0.13-0.12"/>
			<path class="st1" d="M58.64,92.65c-0.02,0.02-0.04,0.04-0.07,0.06"/>
			<path class="st1" d="M58.44,92.78c0.04-0.02,0.09-0.05,0.13-0.07"/>
			<line class="st1" x1="32.54" y1="93.55" x2="40.61" y2="93.54"/>
			<path class="st1" d="M25.64,93.41c0.05,0.01,0.11,0.01,0.16,0.01c0.69,0.02,1.39,0.04,2.09,0.06c0.04,0,0.07,0,0.11,0
				c0.06,0,0.13,0,0.2,0c0.08,0,0.16,0.01,0.23,0.01c0.16,0,0.32,0,0.47,0.01c1.21,0.02,2.43,0.04,3.64,0.05"/>
			<path class="st1" d="M14.08,92.75c0.09,0.06,0.19,0.09,0.28,0.12"/>
			<path class="st1" d="M13.61,92.04c0,0.03,0,0.07,0.01,0.11"/>
			<path class="st1" d="M13.94,0c0,0,0,0,0,0.01h-0.01c0,0,0,0-0.01,0c-0.01,0.01-0.01,0.01-0.01,0.01H13.9
				c-0.01,0.01-0.01,0.01-0.02,0.02c0,0-0.01,0-0.01,0.01c-0.01,0.01-0.01,0.01-0.02,0.02c-0.01,0.01-0.01,0.01-0.02,0.02
				c0,0.01-0.01,0.02-0.01,0.02c-0.01,0.01-0.01,0.02-0.02,0.03c-0.01,0.02-0.02,0.04-0.03,0.07c-0.01,0.02-0.02,0.04-0.03,0.07
				s-0.02,0.06-0.03,0.09c-0.01,0.03-0.02,0.06-0.02,0.09c-0.01,0.04-0.02,0.07-0.02,0.11c-0.02,0.07-0.03,0.14-0.04,0.22
				c0,0.04-0.01,0.07-0.01,0.11c0,0.04,0,0.08-0.01,0.12c0,0.04,0,0.08,0,0.11c0,0.02,0,0.04,0,0.06c0,0.01,0,0.02,0,0.03v0.01v0.01
				c0,0,0,0,0,0.01s0,0.02,0,0.04c0,0.01,0,0.03,0,0.04c0,0.03,0,0.06,0,0.09c0,0.03,0,0.06,0,0.09s0,0.06,0,0.09
				c0,0.06,0,0.12,0,0.18c0,0.06,0,0.12,0,0.18c0,0.12,0,0.24,0,0.36c0,0.12,0,0.24,0,0.36c0,0.24,0,0.48,0,0.72s0,0.48,0,0.72
				s0,0.48,0,0.72c0,0.23,0,0.47,0,0.71c0,0.48,0,0.96,0,1.43c0,0.25,0,0.49,0,0.73c0,0.25,0,0.49,0,0.73s0,0.49,0,0.73
				c0,0.24,0,0.48,0,0.73c0,0.01,0,0.02,0,0.03s0,0.02,0,0.03c0,0.02,0,0.04,0,0.06c0,2.96,0,5.93,0,8.9"/>
			<path class="st1" d="M13.61,18.92c-0.01,13.12,0,26.25,0,39.38"/>
			<path class="st1" d="M13.61,58.3c0,0.47,0,0.95,0,1.42"/>
			<path class="st1" d="M13.61,59.72c0,0.33,0,0.67,0,1v0.01c0,8.45,0,16.91,0,25.36c0,1.9,0,3.79,0,5.69c0,0.07,0,0.14,0,0.2
				c0,0.02,0,0.04,0,0.06"/>
			<path class="st1" d="M13.62,92.15c-0.01-0.01-0.01-0.01-0.01-0.02c0-0.03,0-0.06,0-0.09"/>
			<path class="st1" d="M13.62,92.15c0.01,0.06,0.02,0.11,0.04,0.16c0.05,0.11,0.12,0.21,0.2,0.29l0.01,0.01
				c0.01,0,0.01,0,0.01,0.01c0.04,0.04,0.09,0.07,0.14,0.1c0,0,0.01,0,0.01,0.01c0.02,0.01,0.03,0.02,0.05,0.02"/>
			<path class="st1" d="M14.36,92.87c-0.09-0.02-0.19-0.06-0.28-0.12"/>
			<path class="st1" d="M14.36,92.87c0.11,0.03,0.22,0.04,0.33,0.05c0.03,0,0.06,0,0.09,0s0.06,0,0.09,0.01
				c0.13,0,0.26,0.01,0.39,0.02c0.51,0.03,1.03,0.05,1.54,0.08c1.03,0.06,2.05,0.11,3.07,0.16c1.04,0.05,2.08,0.1,3.12,0.14
				c0.33,0.01,0.67,0.02,1.01,0.03c0.03,0,0.07,0,0.1,0c0.51,0.03,1.02,0.04,1.54,0.05"/>
			<path class="st1" d="M27.89,93.48c-0.75-0.02-1.5-0.04-2.25-0.07"/>
		</g>
	</g>
	<text transform="matrix(1 0 0 1 30.3102 42.1147)" class="st2 st3">80</text>
</g>
</svg>
