<?xml version="1.0" encoding="utf-8"?>
<!-- Generator: Adobe Illustrator 26.5.0, SVG Export Plug-In . SVG Version: 6.00 Build 0)  -->
<svg version="1.1" xmlns="http://www.w3.org/2000/svg" xmlns:xlink="http://www.w3.org/1999/xlink" x="0px" y="0px"
	 viewBox="0 0 70.3 93.54" style="enable-background:new 0 0 70.3 93.54;" xml:space="preserve">
<style type="text/css">
	.st0{fill:#F1F1F2;}
	.st1{fill:none;stroke:#404041;stroke-width:0.35;stroke-linecap:round;stroke-linejoin:round;}
	.st2{font-family:'Inter18pt-Medium';}
	.st3{font-size:10px;}
</style>
<g id="Default">
</g>
<g id="_x30_3_x5F_LINEA_FINA">
	<g>
		<g id="XMLID_00000047024468369722429980000008893880567555125932_">
			<g>
				<path class="st0" d="M0,91.84c0,0.05,0,0.1,0,0.16s0,0.11,0.02,0.17c0.08,0.37,0.44,0.6,0.77,0.68c0.15,0.03,0.3,0.04,0.46,0.04
					c0.18,0.01,0.37,0.02,0.56,0.03c0.37,0.02,0.74,0.05,1.11,0.07c0.74,0.04,1.48,0.08,2.23,0.12c2.38,0.12,4.75,0.21,7.13,0.28
					c1.2,0.03,2.4,0.07,3.59,0.09c0.48,0,0.96,0.01,1.44,0.02c0.93,0.01,1.86,0.02,2.79,0.03c1.8,0.01,3.61,0.01,5.41,0.01
					c1.7,0,3.39,0,5.09,0c0.19,0,0.39,0,0.58,0s0.38,0,0.57,0c1.61,0,3.22,0,4.84-0.01c0.93-0.01,1.86-0.02,2.79-0.03
					c0.48-0.01,0.96-0.02,1.43-0.02c1.29-0.03,2.57-0.06,3.86-0.1c2.37-0.06,4.74-0.16,7.11-0.29c0.78-0.04,1.57-0.08,2.35-0.12
					c0.39-0.03,0.79-0.05,1.18-0.07c0.05,0,0.11-0.01,0.16-0.01c0.03,0,0.06,0,0.09,0c0.33-0.02,0.61-0.08,0.87-0.31
					c0.18-0.18,0.26-0.35,0.26-0.61c0-0.1,0-0.21,0-0.31c0-0.22,0-0.44,0-0.67c0-9,0-18,0-27c0-1.42,0-2.84,0-4.27
					c0-0.47,0-0.94,0-1.42c0-2.6,0-5.2,0-7.8c0-2.24,0-4.48,0-6.72c0-2.26,0-4.52,0-6.78c0-6.02,0-12.05,0-18.08
					c0-0.75-0.26-1.48-0.74-2.06c-0.49-0.57-1.17-0.94-1.93-0.99c-0.53,0-1.06,0-1.59,0c0,0.3-0.02,0.61-0.05,0.92
					c-0.04,0.41-0.11,0.81-0.22,1.22c-0.26,1.06-0.72,2.12-1.31,3.04c-0.04,0.08-0.09,0.15-0.14,0.22
					c-0.01,0.01-0.01,0.02-0.02,0.03c-0.16,0.23-0.33,0.45-0.55,0.63c-0.36,0.3-0.76,0.44-1.19,0.57c-0.18,0.05-0.36,0.1-0.54,0.15
					c-0.04,0.01-0.07,0.02-0.1,0.02c-0.13,0.04-0.26,0.07-0.39,0.1c-0.29,0.06-0.58,0.12-0.87,0.17c-0.66,0.11-1.31,0.2-1.98,0.28
					c-2.13,0.23-4.26,0.29-6.4,0.3c-0.16,0-0.33,0-0.5,0c-1.97,0.01-3.94,0-5.91,0c-2.61,0-5.22,0-7.83,0c-1.97,0-3.95,0.01-5.92,0
					c-0.16,0-0.33,0-0.5,0c-2.13-0.01-4.26-0.07-6.4-0.3c-0.66-0.08-1.32-0.17-1.97-0.28c-0.29-0.05-0.58-0.11-0.87-0.17
					c-0.13-0.03-0.26-0.06-0.39-0.1c-0.03,0-0.07-0.01-0.1-0.02c-0.1-0.03-0.21-0.06-0.31-0.08c-0.42-0.12-0.82-0.24-1.19-0.47
					C6.45,21.89,6.21,21.62,6,21.3c-0.01-0.01-0.01-0.02-0.02-0.03c-0.05-0.07-0.1-0.14-0.14-0.22c-0.59-0.92-1.05-1.98-1.32-3.04
					c-0.1-0.4-0.17-0.81-0.21-1.22c-0.03-0.31-0.04-0.62-0.05-0.92H4.25c-1.16,0-1.25,0-1.34,0c-0.08,0-0.16,0-0.25,0
					c-0.08,0-0.16,0-0.25,0c-0.08,0-0.17,0-0.25,0c-0.04,0-0.09,0-0.13,0c-0.04,0-0.08,0-0.12,0c-0.05,0-0.09,0-0.13,0
					c-0.05,0-0.09,0-0.13,0c-0.02,0-0.04,0-0.06,0c-0.03,0-0.05,0-0.07,0c-0.01,0-0.02,0-0.03,0c-0.01,0-0.02,0-0.03,0
					s-0.02,0-0.04,0H1.41H1.4c-0.01,0-0.01,0-0.01,0s0,0-0.01,0s-0.01,0-0.02,0c-0.01,0-0.02,0-0.03,0c-0.02,0-0.04,0-0.06,0
					c-0.02-0.01-0.04-0.01-0.06-0.01c-0.03-0.01-0.05-0.01-0.07-0.01c-0.04-0.01-0.08-0.02-0.13-0.03
					c-0.04-0.02-0.08-0.03-0.13-0.05c-0.04-0.02-0.08-0.04-0.12-0.06c-0.05-0.02-0.09-0.04-0.13-0.07
					c-0.08-0.05-0.15-0.12-0.22-0.18c-0.07-0.07-0.13-0.15-0.18-0.23c-0.03-0.04-0.05-0.08-0.08-0.13
					c-0.02-0.04-0.04-0.08-0.05-0.12c-0.02-0.05-0.04-0.09-0.05-0.14c-0.01-0.02-0.01-0.04-0.02-0.06c0-0.02-0.01-0.05-0.01-0.07
					c0-0.02-0.01-0.04-0.01-0.06C0.01,14.62,0,14.6,0,14.58c0,3.61,0,7.23,0,10.84c0,4.4,0,8.81,0,13.22c0,8.81,0,17.63,0,26.44
					c0,8.82,0,17.64,0,26.46C0,91.64,0,91.74,0,91.84z"/>
				<path class="st0" d="M0,12.19c0,0.8,0,1.59,0,2.39c0,0.02,0.01,0.04,0.01,0.07c0,0.02,0.01,0.04,0.01,0.06
					c0,0.02,0.01,0.05,0.01,0.07c0.01,0.02,0.01,0.04,0.02,0.06c0.01,0.05,0.03,0.09,0.05,0.14c0.01,0.04,0.03,0.08,0.05,0.12
					c0.03,0.05,0.05,0.09,0.08,0.13c0.05,0.08,0.11,0.16,0.18,0.23c0.07,0.06,0.14,0.13,0.22,0.18c0.04,0.03,0.08,0.05,0.13,0.07
					c0.04,0.02,0.08,0.04,0.12,0.06c0.05,0.02,0.09,0.03,0.13,0.05c0.05,0.01,0.09,0.02,0.13,0.03c0.02,0,0.04,0,0.07,0.01
					c0.02,0,0.04,0,0.06,0.01c0.02,0,0.04,0,0.06,0c0.01,0,0.02,0,0.03,0c0.01,0,0.01,0,0.02,0s0.01,0,0.01,0s0,0,0.01,0h0.01h0.01
					c0.02,0,0.03,0,0.04,0s0.02,0,0.03,0c0.01,0,0.02,0,0.03,0c0.02,0,0.04,0,0.07,0c0.02,0,0.04,0,0.06,0c0.04,0,0.08,0,0.13,0
					c0.04,0,0.08,0,0.13,0c0.04,0,0.08,0,0.12,0c0.04,0,0.09,0,0.13,0c0.08,0,0.17,0,0.25,0c0.09,0,0.17,0,0.25,0
					c0.09,0,0.17,0,0.25,0c0.09,0,0.18,0,1.34,0h0.01c-0.01-0.31-0.01-0.62-0.01-0.92c0-1.47-0.01-2.95,0-4.42c0-0.1,0-0.19,0-0.28
					c0.01-0.17,0.03-0.34,0.09-0.5C4.49,9.33,4.84,9.13,5.22,9C5.25,8.99,5.27,8.98,5.3,8.98V8.97c0-0.67,0-1.35,0-2.03
					c0-0.3,0.11-0.58,0.31-0.79C5.8,5.94,6.07,5.81,6.38,5.81c14.64,0,29.28,0,43.92,0c0.31,0,0.58,0.13,0.78,0.34
					c0.19,0.21,0.31,0.49,0.31,0.79c0,0.68,0,1.36,0,2.03v0.01c0.03,0,0.05,0.01,0.08,0.02c0.37,0.13,0.72,0.33,0.87,0.75
					c0.06,0.16,0.08,0.33,0.09,0.5c0.01,0.09,0.01,0.18,0.01,0.28c0,1.47,0,2.95,0,4.42c0,0.3,0,0.61-0.01,0.92
					c0.53,0,1.06,0,1.59,0c0.76,0.05,1.44,0.42,1.93,0.99c0.48,0.58,0.74,1.31,0.74,2.06c0-2.97,0-5.94,0-8.91c0-0.02,0-0.04,0-0.06
					c0-0.01,0-0.02,0-0.03s0-0.02,0-0.03c0-0.24,0-0.48,0-0.73c0-0.24,0-0.48,0-0.72c0-0.25,0-0.49,0-0.73c0-0.25,0-0.49,0-0.73
					c0-0.48,0-0.96,0-1.43c0-0.24,0-0.48,0-0.72c0-0.24,0-0.48,0-0.72s0-0.47,0-0.71s0-0.48,0-0.72c0-0.12,0-0.24,0-0.36
					c0-0.12,0-0.24,0-0.36c0-0.06,0-0.12,0-0.18c0-0.06,0-0.12,0-0.18c0-0.03,0-0.06,0-0.09s0-0.06,0-0.09c0-0.03,0-0.06,0-0.09
					c0-0.02,0-0.03,0-0.05c0-0.01,0-0.03,0-0.04s0-0.01,0-0.01c0-0.01,0-0.01,0-0.02s0-0.02,0-0.03c0-0.01,0-0.03,0-0.05
					c0-0.04,0-0.08-0.01-0.12c0-0.03,0-0.07,0-0.11c-0.01-0.04-0.01-0.08-0.02-0.12c0-0.07-0.02-0.15-0.03-0.22
					c-0.01-0.04-0.01-0.07-0.02-0.1c-0.01-0.04-0.02-0.07-0.03-0.1c0-0.03-0.01-0.06-0.02-0.09c-0.01-0.02-0.02-0.05-0.03-0.07
					s-0.02-0.04-0.03-0.06c-0.01-0.01-0.01-0.02-0.02-0.03c-0.01-0.01-0.01-0.02-0.02-0.03c0,0-0.01-0.01-0.01-0.02
					c-0.01,0-0.01-0.01-0.02-0.02c-0.01,0-0.01-0.01-0.02-0.01L56.4,0.02c-0.01,0-0.01-0.01-0.01-0.01h-0.01c0,0-0.01,0-0.01-0.01
					c0,0,0,0-0.01,0c-0.01,0-0.01,0-0.01,0s0,0-0.01,0c0,0,0,0-0.01,0c-0.01,0-0.02,0-0.03,0c-0.01,0-0.02,0-0.03,0
					c-0.01,0-0.01,0-0.02,0c-0.01,0-0.02,0-0.03,0c-0.02,0-0.04,0-0.06,0s-0.04,0-0.06,0s-0.04,0-0.05,0c-0.02,0-0.04,0-0.06,0
					c-0.04,0-0.08,0-0.12,0c-0.03,0-0.07,0-0.11,0s-0.08,0-0.11,0c-0.08,0-0.16,0-0.23,0c-0.08,0-0.15,0-0.23,0s-0.15,0-0.23,0
					c-0.07,0-0.15,0-0.22,0c-0.08,0-0.15,0-0.23,0c-0.15,0-0.3,0-0.45,0c-0.15,0-0.3,0-0.45,0c-0.15,0-0.3,0-0.44,0
					c-0.15,0-0.3,0-0.45,0c-0.29,0-0.59,0-0.88,0c-0.29,0-0.58,0-0.87,0c-0.29,0-0.58,0-0.87,0c-0.28,0-0.57,0-0.85,0
					c-0.28,0-0.56,0-0.84,0c-0.28,0-0.56,0-0.84,0c-0.55,0-1.1,0-1.64,0c-0.54,0-1.07,0-1.6,0s-1.05,0-1.57,0c-0.51,0-1.03,0-1.53,0
					c-0.25,0-0.5,0-0.74,0c-0.11,0-0.22,0-0.33,0c-0.1,0-0.2,0-0.29,0c-0.18,0-0.33,0-0.45,0s-0.21,0-0.29,0C39.06,0,39,0,38.94,0
					c-0.05,0-0.09,0-0.14,0c-0.28,0-0.56,0-0.83,0c-0.26,0-0.51,0-0.78,0c-0.94,0-2.22,0-4.93,0c-1.89,0-3.78,0-5.67,0
					c-1.66,0-2.18,0-2.67,0s-0.94,0-1.35,0c-1.17,0-2.06,0-2.8,0c-0.37,0-0.7,0-1.01,0s-0.6,0-0.88,0c-0.04,0-0.09,0-0.14,0
					c-0.05,0-0.11,0-0.19,0c-0.07,0-0.17,0-0.29,0C17.14,0,17,0,16.82,0c-0.09,0-0.19,0-0.29,0c-0.11,0-0.22,0-0.34,0
					c-0.23,0-0.48,0-0.73,0c-0.51,0-1.02,0-1.54,0c-0.51,0-1.03,0-1.56,0s-1.06,0-1.6,0S9.67,0,9.12,0C8.84,0,8.56,0,8.28,0
					S7.72,0,7.44,0C7.15,0,6.87,0,6.58,0C6.3,0,6.01,0,5.72,0S5.14,0,4.85,0c-0.3,0-0.59,0-0.88,0c-0.15,0-0.3,0-0.45,0
					c-0.15,0-0.3,0-0.45,0C2.93,0,2.78,0,2.63,0c-0.15,0-0.3,0-0.45,0C2.1,0,2.03,0,1.95,0S1.8,0,1.72,0C1.65,0,1.57,0,1.5,0
					C1.42,0,1.34,0,1.27,0C1.19,0,1.12,0,1.04,0C1,0,0.96,0,0.93,0C0.89,0,0.85,0,0.81,0C0.77,0,0.74,0,0.7,0C0.68,0,0.66,0,0.64,0
					C0.62,0,0.6,0,0.58,0C0.56,0,0.55,0,0.53,0C0.51,0,0.49,0,0.47,0C0.46,0,0.45,0,0.44,0C0.43,0,0.42,0,0.41,0
					C0.4,0,0.39,0,0.38,0C0.37,0,0.36,0,0.36,0C0.35,0,0.35,0,0.35,0s0,0-0.01,0c0,0,0,0-0.01,0S0.32,0,0.32,0s0,0-0.01,0
					c0,0.01,0,0.01,0,0.01c-0.01,0-0.01,0-0.01,0c-0.01,0-0.01,0.01-0.01,0.01c-0.01,0-0.01,0.01-0.02,0.01L0.26,0.04
					C0.25,0.05,0.24,0.06,0.24,0.06C0.23,0.07,0.23,0.08,0.22,0.08c0,0.01-0.01,0.02-0.01,0.03C0.2,0.12,0.2,0.13,0.19,0.14
					C0.18,0.16,0.17,0.18,0.16,0.2C0.15,0.22,0.14,0.25,0.13,0.27C0.12,0.3,0.11,0.33,0.1,0.36s-0.02,0.06-0.02,0.1
					c-0.01,0.03-0.02,0.06-0.03,0.1C0.04,0.63,0.03,0.71,0.02,0.78c0,0.04-0.01,0.08-0.01,0.12C0.01,0.94,0,0.98,0,1.01
					c0,0.04,0,0.08,0,0.12c0,0.02,0,0.04,0,0.05C0,1.19,0,1.2,0,1.21s0,0.01,0,0.02c0,0,0,0,0,0.01s0,0.03,0,0.04
					C0,1.3,0,1.31,0,1.33c0,0.03,0,0.06,0,0.09c0,0.03,0,0.06,0,0.09S0,1.57,0,1.6c0,0.06,0,0.12,0,0.18C0,1.84,0,1.9,0,1.96
					C0,2.08,0,2.2,0,2.32c0,0.12,0,0.24,0,0.36C0,2.92,0,3.16,0,3.4s0,0.47,0,0.71c0,0.16,0,0.31,0,0.47c0,0.08,0,0.17,0,0.25
					c0,0.24,0,0.48,0,0.72C0,6.02,0,6.5,0,6.98c0,0.24,0,0.48,0,0.73c0,0.24,0,0.48,0,0.73c0,0.24,0,0.48,0,0.72
					c0,0.25,0,0.49,0,0.73C0,9.9,0,9.91,0,9.92s0,0.02,0,0.03c0,0.02,0,0.04,0,0.06c0,0.04,0,0.09,0,0.13c0,0.2,0,0.41,0,0.61
					c0,0.21,0,0.41,0,0.62s0,0.41,0,0.62C0,12.06,0,12.12,0,12.19z"/>
				<path class="st0" d="M4.25,10.53c-0.01,1.47,0,2.95,0,4.42c0,0.3,0,0.61,0.01,0.92c0.01,0.3,0.02,0.61,0.05,0.92
					c0.04,0.41,0.11,0.82,0.21,1.22c0.27,1.06,0.73,2.12,1.32,3.04c0.04,0.08,0.09,0.15,0.14,0.22C5.99,21.28,5.99,21.29,6,21.3
					c0.21,0.32,0.45,0.59,0.78,0.8c0.37,0.23,0.77,0.35,1.19,0.47c0.1,0.02,0.21,0.05,0.31,0.08c0.03,0.01,0.07,0.02,0.1,0.02
					c0.13,0.04,0.26,0.07,0.39,0.1c0.29,0.06,0.58,0.12,0.87,0.17c0.65,0.11,1.31,0.2,1.97,0.28c2.14,0.23,4.27,0.29,6.4,0.3
					c0.17,0,0.34,0,0.5,0c1.97,0.01,3.95,0,5.92,0c2.61,0,5.22,0,7.83,0c1.97,0,3.94,0.01,5.91,0c0.17,0,0.34,0,0.5,0
					c2.14-0.01,4.27-0.07,6.4-0.3c0.67-0.08,1.32-0.17,1.98-0.28c0.29-0.05,0.58-0.11,0.87-0.17c0.13-0.03,0.26-0.06,0.39-0.1
					c0.03,0,0.06-0.01,0.1-0.02c0.18-0.05,0.36-0.1,0.54-0.15c0.43-0.13,0.83-0.27,1.19-0.57c0.22-0.18,0.39-0.4,0.55-0.63
					c0.01-0.01,0.01-0.02,0.02-0.03c0.05-0.07,0.1-0.14,0.14-0.22c0.59-0.92,1.05-1.98,1.31-3.04c0.11-0.41,0.18-0.81,0.22-1.22
					c0.03-0.31,0.05-0.62,0.05-0.92c0.01-0.31,0.01-0.62,0.01-0.92c0-1.47,0-2.95,0-4.42c0-0.1,0-0.19-0.01-0.28
					c-0.01-0.17-0.03-0.34-0.09-0.5c-0.15-0.42-0.5-0.62-0.87-0.75c-0.03-0.01-0.05-0.02-0.08-0.02c-0.1-0.04-0.21-0.07-0.31-0.08
					c-0.2-0.05-0.4-0.09-0.6-0.11c-0.47-0.06-0.94-0.08-1.42-0.09c-0.51-0.01-1.03,0-1.54,0c-0.81,0-1.63,0-2.44,0
					c-2.13,0-4.27,0-6.41,0s-4.27,0-6.41,0c-2.61,0-5.22,0-7.83,0c-2.14,0-4.28,0-6.42,0c-2.13,0-4.27,0-6.41,0
					c-0.81,0-1.62,0-2.43,0c-0.52,0-1.03-0.01-1.54,0C7.15,8.71,6.67,8.73,6.2,8.79C6,8.81,5.8,8.85,5.61,8.9
					C5.5,8.91,5.4,8.94,5.3,8.98C5.27,8.98,5.25,8.99,5.22,9C4.84,9.13,4.49,9.33,4.34,9.75c-0.06,0.16-0.08,0.33-0.09,0.5
					C4.25,10.34,4.25,10.43,4.25,10.53z"/>
				<path class="st0" d="M5.3,8.97v0.01C5.4,8.94,5.5,8.91,5.61,8.9V8.89V6.15C5.41,6.36,5.3,6.64,5.3,6.94
					C5.3,7.62,5.3,8.3,5.3,8.97z"/>
				<path class="st0" d="M5.61,8.89V8.9C5.8,8.85,6,8.81,6.2,8.79C6.67,8.73,7.15,8.71,7.63,8.7c0.51-0.01,1.02,0,1.54,0
					c0.81,0,1.62,0,2.43,0c2.14,0,4.28,0,6.41,0c2.14,0,4.28,0,6.42,0c2.61,0,5.22,0,7.83,0c2.14,0,4.27,0,6.41,0s4.28,0,6.41,0
					c0.81,0,1.63,0,2.44,0c0.51,0,1.03-0.01,1.54,0c0.48,0.01,0.95,0.03,1.42,0.09c0.2,0.02,0.4,0.06,0.6,0.11V8.89V6.15
					c-0.2-0.21-0.47-0.34-0.78-0.34c-14.64,0-29.28,0-43.92,0c-0.31,0-0.58,0.13-0.77,0.34V8.89z"/>
				<path class="st0" d="M51.08,8.89V8.9c0.1,0.01,0.21,0.04,0.31,0.08V8.97c0-0.67,0-1.35,0-2.03c0-0.3-0.12-0.58-0.31-0.79V8.89z"
					/>
				<path class="st0" d="M56.37,0c0,0.01,0.01,0.01,0.01,0.01h0.01c0,0,0,0.01,0.01,0.01l0.01,0.01c0.01,0,0.01,0.01,0.02,0.01
					c0.01,0.01,0.01,0.02,0.02,0.02c0,0.01,0.01,0.02,0.01,0.02c0.01,0.01,0.01,0.02,0.02,0.03c0.01,0.01,0.01,0.02,0.02,0.03
					c0.01,0.02,0.02,0.04,0.03,0.06s0.02,0.05,0.03,0.07c0.01,0.03,0.02,0.06,0.02,0.09c0.01,0.03,0.02,0.06,0.03,0.1
					c0.01,0.03,0.01,0.06,0.02,0.1c0.01,0.07,0.03,0.15,0.03,0.22c0.01,0.04,0.01,0.08,0.02,0.12c0,0.04,0,0.08,0,0.11
					c0.01,0.04,0.01,0.08,0.01,0.12c0,0.02,0,0.04,0,0.05c0,0.01,0,0.02,0,0.03s0,0.01,0,0.02c0,0,0,0,0,0.01s0,0.03,0,0.04
					c0,0.02,0,0.03,0,0.05c0,0.03,0,0.06,0,0.09c0,0.03,0,0.06,0,0.09s0,0.06,0,0.09c0,0.06,0,0.12,0,0.18c0,0.06,0,0.12,0,0.18
					c0,0.12,0,0.24,0,0.36c0,0.12,0,0.24,0,0.36c0,0.24,0,0.48,0,0.72s0,0.47,0,0.71s0,0.48,0,0.72c0,0.24,0,0.48,0,0.72
					c0,0.47,0,0.95,0,1.43c0,0.24,0,0.48,0,0.73c0,0.24,0,0.48,0,0.73c0,0.24,0,0.48,0,0.72c0,0.25,0,0.49,0,0.73
					c0,0.01,0,0.02,0,0.03s0,0.02,0,0.03c0,0.02,0,0.04,0,0.06c0,2.97,0,5.94,0,8.91c0,6.03,0,12.06,0,18.08c0,2.26,0,4.52,0,6.78
					c0,2.24,0,4.48,0,6.72c0,2.6,0,5.2,0,7.8c0,0.78,0.63,1.42,1.42,1.42c1.7,0,3.4,0,5.1,0c3.91,0,7.08-3.18,7.08-7.09
					C70.3,37.45,70.3,22.27,70.3,7.08C70.3,3.17,67.12,0,63.21,0C60.93,0,58.65,0,56.37,0z"/>
				<path class="st0" d="M56.69,58.3c0,0.48,0,0.95,0,1.42h1.42C57.32,59.72,56.69,59.08,56.69,58.3z"/>
			</g>
			<g>
				<path class="st1" d="M52.43,15.87c0.53,0,1.06,0,1.59,0c0.76,0.05,1.44,0.42,1.93,0.99c0.48,0.58,0.74,1.31,0.74,2.06"/>
				<path class="st1" d="M56.69,58.3c0,0.78,0.63,1.42,1.42,1.42c1.7,0,3.4,0,5.1,0c3.91,0,7.08-3.18,7.08-7.09
					C70.3,37.45,70.3,22.27,70.3,7.08C70.3,3.17,67.12,0,63.21,0c-2.28,0-4.56,0-6.84,0"/>
				<path class="st1" d="M4.26,15.87c0.01,0.3,0.02,0.61,0.05,0.92c0.04,0.41,0.11,0.82,0.21,1.22c0.27,1.06,0.73,2.12,1.32,3.04
					c0.04,0.08,0.09,0.15,0.14,0.22C5.99,21.28,5.99,21.29,6,21.3c0.21,0.32,0.45,0.59,0.78,0.8c0.37,0.23,0.77,0.35,1.19,0.47
					c0.1,0.02,0.21,0.05,0.31,0.08c0.03,0.01,0.07,0.02,0.1,0.02c0.13,0.04,0.26,0.07,0.39,0.1c0.29,0.06,0.58,0.12,0.87,0.17
					c0.65,0.11,1.31,0.2,1.97,0.28c2.14,0.23,4.27,0.29,6.4,0.3c0.17,0,0.34,0,0.5,0c1.97,0.01,3.95,0,5.92,0c2.61,0,5.22,0,7.83,0
					c1.97,0,3.94,0.01,5.91,0c0.17,0,0.34,0,0.5,0c2.14-0.01,4.27-0.07,6.4-0.3c0.67-0.08,1.32-0.17,1.98-0.28
					c0.29-0.05,0.58-0.11,0.87-0.17c0.13-0.03,0.26-0.06,0.39-0.1c0.03,0,0.06-0.01,0.1-0.02c0.18-0.05,0.36-0.1,0.54-0.15
					c0.43-0.13,0.83-0.27,1.19-0.57c0.22-0.18,0.39-0.4,0.55-0.63c0.01-0.01,0.01-0.02,0.02-0.03c0.05-0.07,0.1-0.14,0.14-0.22
					c0.59-0.92,1.05-1.98,1.31-3.04c0.11-0.41,0.18-0.81,0.22-1.22c0.03-0.31,0.05-0.62,0.05-0.92c0.01-0.31,0.01-0.62,0.01-0.92
					c0-1.47,0-2.95,0-4.42c0-0.1,0-0.19-0.01-0.28c-0.01-0.17-0.03-0.34-0.09-0.5c-0.15-0.42-0.5-0.62-0.87-0.75
					c-0.03-0.01-0.05-0.02-0.08-0.02c-0.1-0.04-0.21-0.07-0.31-0.08c-0.2-0.05-0.4-0.09-0.6-0.11c-0.47-0.06-0.94-0.08-1.42-0.09
					c-0.51-0.01-1.03,0-1.54,0c-0.81,0-1.63,0-2.44,0c-2.13,0-4.27,0-6.41,0s-4.27,0-6.41,0c-2.61,0-5.22,0-7.83,0
					c-2.14,0-4.28,0-6.42,0c-2.13,0-4.27,0-6.41,0c-0.81,0-1.62,0-2.43,0c-0.52,0-1.03-0.01-1.54,0C7.15,8.71,6.67,8.73,6.2,8.79
					C6,8.81,5.8,8.85,5.61,8.9C5.5,8.91,5.4,8.94,5.3,8.98C5.27,8.98,5.25,8.99,5.22,9C4.84,9.13,4.49,9.33,4.34,9.75
					c-0.06,0.16-0.08,0.33-0.09,0.5c0,0.09,0,0.18,0,0.28c-0.01,1.47,0,2.95,0,4.42C4.25,15.25,4.25,15.56,4.26,15.87z"/>
				<path class="st1" d="M0,14.58c0,0.02,0.01,0.04,0.01,0.07c0,0.02,0.01,0.04,0.01,0.06c0,0.02,0.01,0.05,0.01,0.07
					c0.01,0.02,0.01,0.04,0.02,0.06c0.01,0.05,0.03,0.09,0.05,0.14c0.01,0.04,0.03,0.08,0.05,0.12c0.03,0.05,0.05,0.09,0.08,0.13
					c0.05,0.08,0.11,0.16,0.18,0.23c0.07,0.06,0.14,0.13,0.22,0.18c0.04,0.03,0.08,0.05,0.13,0.07c0.04,0.02,0.08,0.04,0.12,0.06
					c0.05,0.02,0.09,0.03,0.13,0.05c0.05,0.01,0.09,0.02,0.13,0.03c0.02,0,0.04,0,0.07,0.01c0.02,0,0.04,0,0.06,0.01
					c0.02,0,0.04,0,0.06,0c0.01,0,0.02,0,0.03,0c0.01,0,0.01,0,0.02,0s0.01,0,0.01,0s0,0,0.01,0h0.01h0.01c0.02,0,0.03,0,0.04,0
					s0.02,0,0.03,0c0.01,0,0.02,0,0.03,0c0.02,0,0.04,0,0.07,0c0.02,0,0.04,0,0.06,0c0.04,0,0.08,0,0.13,0c0.04,0,0.08,0,0.13,0
					c0.04,0,0.08,0,0.12,0c0.04,0,0.09,0,0.13,0c0.08,0,0.17,0,0.25,0c0.09,0,0.17,0,0.25,0c0.09,0,0.17,0,0.25,0
					c0.09,0,0.18,0,1.34,0"/>
				<path class="st1" d="M0,10.01c0,0.04,0,0.09,0,0.13c0,0.2,0,0.41,0,0.61c0,0.21,0,0.41,0,0.62s0,0.41,0,0.62
					c0,0.07,0,0.13,0,0.2"/>
				<line class="st1" x1="5.61" y1="6.15" x2="5.61" y2="8.89"/>
				<line class="st1" x1="51.08" y1="6.15" x2="51.08" y2="8.89"/>
				<path class="st1" d="M5.3,8.97c0-0.67,0-1.35,0-2.03c0-0.3,0.11-0.58,0.31-0.79C5.8,5.94,6.07,5.81,6.38,5.81
					c14.64,0,29.28,0,43.92,0c0.31,0,0.58,0.13,0.78,0.34c0.19,0.21,0.31,0.49,0.31,0.79c0,0.68,0,1.36,0,2.03"/>
				<path class="st1" d="M51.01,9.46c0,0.01,0.01,0.01,0.02,0.02c0.02,0.02,0.05,0.04,0.07,0.06c0.02,0.02,0.05,0.05,0.07,0.07
					c0.02,0.03,0.05,0.06,0.07,0.09c0.02,0.03,0.04,0.06,0.06,0.09c0.03,0.04,0.05,0.07,0.07,0.11c0.02,0.05,0.04,0.09,0.07,0.14
					c0.02,0.05,0.04,0.1,0.06,0.15c0.01,0.02,0.02,0.05,0.03,0.08c0.02,0.05,0.03,0.11,0.05,0.16c0.02,0.07,0.03,0.13,0.05,0.19
					c0.01,0.07,0.03,0.13,0.04,0.2c0.02,0.1,0.03,0.19,0.04,0.29c0.01,0.09,0.02,0.19,0.03,0.28c0.01,0.1,0.02,0.2,0.02,0.29
					c0.01,0.05,0.01,0.1,0.01,0.14c0,0.05,0.01,0.1,0.01,0.15c0,0.07,0.01,0.13,0.01,0.2s0.01,0.14,0.01,0.21
					c0,0.09,0.01,0.18,0.01,0.27c0.01,0.09,0.02,0.18,0.02,0.27c0.01,0.11,0.01,0.22,0.02,0.32c0.02,0.27,0.03,0.53,0.05,0.78
					c0.01,0.17,0.01,0.34,0.02,0.5"/>
				<path class="st1" d="M5.68,9.46C5.67,9.47,5.67,9.47,5.66,9.48C5.63,9.5,5.61,9.52,5.59,9.54C5.56,9.56,5.54,9.59,5.52,9.61
					C5.49,9.64,5.47,9.67,5.45,9.7C5.43,9.73,5.4,9.76,5.38,9.79C5.36,9.83,5.34,9.86,5.32,9.9c-0.03,0.05-0.05,0.09-0.07,0.14
					s-0.04,0.1-0.06,0.15c-0.01,0.02-0.02,0.05-0.03,0.08c-0.02,0.05-0.04,0.11-0.05,0.16c-0.02,0.07-0.04,0.13-0.05,0.19
					c-0.02,0.07-0.03,0.13-0.04,0.2c-0.02,0.1-0.03,0.19-0.04,0.29c-0.02,0.09-0.03,0.19-0.04,0.28c0,0.1-0.01,0.2-0.02,0.29
					c0,0.05,0,0.1-0.01,0.14c0,0.05,0,0.1,0,0.15C4.9,12.04,4.9,12.1,4.9,12.17c-0.01,0.07-0.01,0.14-0.01,0.21
					c-0.01,0.09-0.01,0.18-0.02,0.27c0,0.09-0.01,0.18-0.01,0.27c-0.01,0.11-0.02,0.22-0.03,0.32c-0.01,0.27-0.03,0.53-0.04,0.78
					c-0.01,0.17-0.02,0.34-0.02,0.5"/>
				<line class="st1" x1="58.11" y1="59.72" x2="56.69" y2="59.72"/>
				<path class="st1" d="M31.18,93.54c0.19,0,0.38,0,0.57,0c1.61,0,3.22,0,4.84-0.01c0.93-0.01,1.86-0.02,2.79-0.03
					c0.48-0.01,0.96-0.02,1.43-0.02c1.29-0.03,2.57-0.06,3.86-0.1c2.37-0.06,4.74-0.16,7.11-0.29c0.78-0.04,1.57-0.08,2.35-0.12
					c0.39-0.03,0.79-0.05,1.18-0.07c0.05,0,0.11-0.01,0.16-0.01c0.03,0,0.06,0,0.09,0c0.33-0.02,0.61-0.08,0.87-0.31
					c0.18-0.18,0.26-0.35,0.26-0.61c0-0.1,0-0.21,0-0.31c0-0.22,0-0.44,0-0.67c0-9,0-18,0-27c0-1.42,0-2.84,0-4.27
					c0-0.47,0-0.94,0-1.42c0-2.6,0-5.2,0-7.8c0-2.24,0-4.48,0-6.72c0-2.26,0-4.52,0-6.78c0-6.02,0-12.05,0-18.08
					c0-2.97,0-5.94,0-8.91c0-0.02,0-0.04,0-0.06c0-0.01,0-0.02,0-0.03s0-0.02,0-0.03c0-0.24,0-0.48,0-0.73c0-0.24,0-0.48,0-0.72
					c0-0.25,0-0.49,0-0.73c0-0.25,0-0.49,0-0.73c0-0.48,0-0.96,0-1.43c0-0.24,0-0.48,0-0.72c0-0.24,0-0.48,0-0.72s0-0.47,0-0.71
					s0-0.48,0-0.72c0-0.12,0-0.24,0-0.36c0-0.12,0-0.24,0-0.36c0-0.06,0-0.12,0-0.18c0-0.06,0-0.12,0-0.18c0-0.03,0-0.06,0-0.09
					s0-0.06,0-0.09c0-0.03,0-0.06,0-0.09c0-0.02,0-0.03,0-0.05c0-0.01,0-0.03,0-0.04s0-0.01,0-0.01c0-0.01,0-0.01,0-0.02
					s0-0.02,0-0.03c0-0.01,0-0.03,0-0.05c0-0.04,0-0.08-0.01-0.12c0-0.03,0-0.07,0-0.11c-0.01-0.04-0.01-0.08-0.02-0.12
					c0-0.07-0.02-0.15-0.03-0.22c-0.01-0.04-0.01-0.07-0.02-0.1c-0.01-0.04-0.02-0.07-0.03-0.1c0-0.03-0.01-0.06-0.02-0.09
					c-0.01-0.02-0.02-0.05-0.03-0.07s-0.02-0.04-0.03-0.06c-0.01-0.01-0.01-0.02-0.02-0.03c-0.01-0.01-0.01-0.02-0.02-0.03
					c0,0-0.01-0.01-0.01-0.02c-0.01,0-0.01-0.01-0.02-0.02c-0.01,0-0.01-0.01-0.02-0.01L56.4,0.02c-0.01,0-0.01-0.01-0.01-0.01
					h-0.01c0,0-0.01,0-0.01-0.01c0,0,0,0-0.01,0c-0.01,0-0.01,0-0.01,0s0,0-0.01,0c0,0,0,0-0.01,0c-0.01,0-0.02,0-0.03,0
					c-0.01,0-0.02,0-0.03,0c-0.01,0-0.01,0-0.02,0c-0.01,0-0.02,0-0.03,0c-0.02,0-0.04,0-0.06,0s-0.04,0-0.06,0s-0.04,0-0.05,0
					c-0.02,0-0.04,0-0.06,0c-0.04,0-0.08,0-0.12,0c-0.03,0-0.07,0-0.11,0s-0.08,0-0.11,0c-0.08,0-0.16,0-0.23,0
					c-0.08,0-0.15,0-0.23,0s-0.15,0-0.23,0c-0.07,0-0.15,0-0.22,0c-0.08,0-0.15,0-0.23,0c-0.15,0-0.3,0-0.45,0c-0.15,0-0.3,0-0.45,0
					c-0.15,0-0.3,0-0.44,0c-0.15,0-0.3,0-0.45,0c-0.29,0-0.59,0-0.88,0c-0.29,0-0.58,0-0.87,0c-0.29,0-0.58,0-0.87,0
					c-0.28,0-0.57,0-0.85,0c-0.28,0-0.56,0-0.84,0c-0.28,0-0.56,0-0.84,0c-0.55,0-1.1,0-1.64,0c-0.54,0-1.07,0-1.6,0s-1.05,0-1.57,0
					c-0.51,0-1.03,0-1.53,0c-0.25,0-0.5,0-0.74,0c-0.11,0-0.22,0-0.33,0c-0.1,0-0.2,0-0.29,0c-0.18,0-0.33,0-0.45,0s-0.21,0-0.29,0
					C39.06,0,39,0,38.94,0c-0.05,0-0.09,0-0.14,0c-0.28,0-0.56,0-0.83,0c-0.26,0-0.51,0-0.78,0c-0.94,0-2.22,0-4.93,0
					c-1.89,0-3.78,0-5.67,0c-1.66,0-2.18,0-2.67,0s-0.94,0-1.35,0c-1.17,0-2.06,0-2.8,0c-0.37,0-0.7,0-1.01,0s-0.6,0-0.88,0
					c-0.04,0-0.09,0-0.14,0c-0.05,0-0.11,0-0.19,0c-0.07,0-0.17,0-0.29,0C17.14,0,17,0,16.82,0c-0.09,0-0.19,0-0.29,0
					c-0.11,0-0.22,0-0.34,0c-0.23,0-0.48,0-0.73,0c-0.51,0-1.02,0-1.54,0c-0.51,0-1.03,0-1.56,0s-1.06,0-1.6,0S9.67,0,9.12,0
					C8.84,0,8.56,0,8.28,0S7.72,0,7.44,0C7.15,0,6.87,0,6.58,0C6.3,0,6.01,0,5.72,0S5.14,0,4.85,0c-0.3,0-0.59,0-0.88,0
					c-0.15,0-0.3,0-0.45,0c-0.15,0-0.3,0-0.45,0C2.93,0,2.78,0,2.63,0c-0.15,0-0.3,0-0.45,0C2.1,0,2.03,0,1.95,0S1.8,0,1.72,0
					C1.65,0,1.57,0,1.5,0C1.42,0,1.34,0,1.27,0C1.19,0,1.12,0,1.04,0C1,0,0.96,0,0.93,0C0.89,0,0.85,0,0.81,0C0.77,0,0.74,0,0.7,0
					C0.68,0,0.66,0,0.64,0C0.62,0,0.6,0,0.58,0C0.56,0,0.55,0,0.53,0C0.51,0,0.49,0,0.47,0C0.46,0,0.45,0,0.44,0
					C0.43,0,0.42,0,0.41,0C0.4,0,0.39,0,0.38,0C0.37,0,0.36,0,0.36,0C0.35,0,0.35,0,0.35,0s0,0-0.01,0c0,0,0,0-0.01,0S0.32,0,0.32,0
					s0,0-0.01,0c0,0.01,0,0.01,0,0.01c-0.01,0-0.01,0-0.01,0c-0.01,0-0.01,0.01-0.01,0.01c-0.01,0-0.01,0.01-0.02,0.01L0.26,0.04
					C0.25,0.05,0.24,0.06,0.24,0.06C0.23,0.07,0.23,0.08,0.22,0.08c0,0.01-0.01,0.02-0.01,0.03C0.2,0.12,0.2,0.13,0.19,0.14
					C0.18,0.16,0.17,0.18,0.16,0.2C0.15,0.22,0.14,0.25,0.13,0.27C0.12,0.3,0.11,0.33,0.1,0.36s-0.02,0.06-0.02,0.1
					c-0.01,0.03-0.02,0.06-0.03,0.1C0.04,0.63,0.03,0.71,0.02,0.78c0,0.04-0.01,0.08-0.01,0.12C0.01,0.94,0,0.98,0,1.01
					c0,0.04,0,0.08,0,0.12c0,0.02,0,0.04,0,0.05C0,1.19,0,1.2,0,1.21s0,0.01,0,0.02c0,0,0,0,0,0.01s0,0.03,0,0.04
					C0,1.3,0,1.31,0,1.33c0,0.03,0,0.06,0,0.09c0,0.03,0,0.06,0,0.09S0,1.57,0,1.6c0,0.06,0,0.12,0,0.18C0,1.84,0,1.9,0,1.96
					C0,2.08,0,2.2,0,2.32c0,0.12,0,0.24,0,0.36C0,2.92,0,3.16,0,3.4s0,0.47,0,0.71c0,0.16,0,0.31,0,0.47c0,0.08,0,0.17,0,0.25
					c0,0.24,0,0.48,0,0.72C0,6.02,0,6.5,0,6.98c0,0.24,0,0.48,0,0.73c0,0.24,0,0.48,0,0.73c0,0.24,0,0.48,0,0.72
					c0,0.25,0,0.49,0,0.73C0,9.9,0,9.91,0,9.92s0,0.02,0,0.03c0,0.02,0,0.04,0,0.06"/>
				<path class="st1" d="M31.18,93.54c-0.19,0-0.39,0-0.58,0c-1.7,0-3.39,0-5.09,0c-1.8,0-3.61,0-5.41-0.01
					c-0.93-0.01-1.86-0.02-2.79-0.03c-0.48-0.01-0.96-0.02-1.44-0.02c-1.19-0.02-2.39-0.06-3.59-0.09
					c-2.38-0.07-4.75-0.16-7.13-0.28c-0.75-0.04-1.49-0.08-2.23-0.12c-0.37-0.02-0.74-0.05-1.11-0.07
					c-0.19-0.01-0.38-0.02-0.56-0.03c-0.16,0-0.31-0.01-0.46-0.04c-0.33-0.08-0.69-0.31-0.77-0.68C0,92.11,0,92.06,0,92
					s0-0.11,0-0.16c0-0.1,0-0.2,0-0.3c0-8.82,0-17.64,0-26.46c0-8.81,0-17.63,0-26.44c0-4.41,0-8.82,0-13.22c0-3.61,0-7.23,0-10.84
					c0-0.8,0-1.59,0-2.39"/>
			</g>
		</g>
	</g>
	<text transform="matrix(1 0 0 1 20.376 42.1147)" class="st2 st3">100</text>
</g>
</svg>
