<?xml version="1.0" encoding="UTF-8"?>
<svg id="_03_LINEA_FINA" data-name="03_LINEA FINA" xmlns="http://www.w3.org/2000/svg" viewBox="0 0 51.02 61.23">
  <defs>
    <style>
      .cls-1 {
        font-family: Inter18pt-Medium, 'Inter 18pt';
        font-size: 10px;
      }

      .cls-2 {
        fill: none;
        stroke: #404041;
        stroke-linecap: round;
        stroke-linejoin: round;
        stroke-width: .35px;
      }

      .cls-3 {
        fill: #f1f1f2;
      }
    </style>
  </defs>
  <g>
    <g>
      <path class="cls-3" d="M51.02,59.72s0,.05-.01,.08c-.01,.09-.04,.16-.07,.23,0,0-.01,.02-.01,.02-.01,.03-.03,.06-.06,.08,0,.01-.01,.03-.02,.04-.01,.02-.03,.03-.05,.05-.04,.05-.09,.09-.14,.12-.04,.03-.08,.06-.12,.08-.02,.01-.05,.02-.07,.04-.07,.03-.15,.05-.22,.07-.06,.02-.12,.02-.18,.03-.02,.01-.05,.01-.07,.01-.05,0-.09,0-.14,0-.07,0-.15,.01-.23,.01-.13,0-.26,0-.39,.02-1.23,.07-2.46,.14-3.7,.2-1.53,.08-3.05,.14-4.58,.2-.1,0-.2,0-.3,0-.24,.01-.49,.02-.73,.03-.72,.02-1.43,.03-2.14,.05-.37,.01-.74,.03-1.12,.03-.08,.01-.17,.01-.25,.01-.18,0-.37,0-.55,0-.36,.01-.72,.01-1.08,.02-.71,.01-1.42,.02-2.12,.03h-14.32c-.7-.01-1.41-.02-2.12-.03-.36,0-.72,0-1.08-.02-.18,0-.37,0-.55,0-.08,0-.17,0-.25-.01-.37,0-.75-.02-1.12-.03-.71-.02-1.42-.03-2.13-.05-.25-.01-.5-.02-.74-.03-.1,0-.2,0-.3,0-1.52-.06-3.05-.12-4.58-.2-1.24-.06-2.47-.13-3.7-.2-.13-.01-.26-.01-.39-.02-.08,0-.15-.01-.23-.01-.05,0-.09,0-.14,0-.02,0-.05,0-.07-.01-.06,0-.12,0-.18-.03-.06-.01-.11-.03-.17-.05-.02,0-.03-.02-.05-.02-.04-.02-.07-.04-.11-.06-.03-.02-.05-.04-.08-.06-.05-.03-.1-.07-.14-.12-.03-.03-.05-.06-.07-.09-.03-.02-.05-.05-.06-.08,0-.01-.01-.01-.01-.02-.04-.08-.07-.17-.07-.27t-.01-.02v-.15H0v-22.52H0V14.58s.01,.05,.01,.07,.01,.04,.01,.07c.01,.02,.01,.04,.02,.06,0,.02,.01,.05,.01,.07,.02,.04,.03,.09,.05,.13s.03,.09,.06,.13c.02,.04,.04,.08,.07,.12,.05,.08,.11,.16,.18,.23s.15,.13,.23,.18c.04,.03,.08,.05,.12,.08,.04,.02,.08,.04,.13,.06,.04,0,.08,.03,.12,.04,.05,0,.09,.02,.13,.03,.02,.01,.05,.01,.07,.01s.04,0,.06,0h2.99c.01,.51,.04,1.02,.13,1.53,.14,.78,.41,1.6,.73,2.32,.16,.37,.35,.72,.55,1.07,.1,.16,.2,.33,.31,.49,.04,.06,.08,.12,.12,.17,.04,.06,.08,.11,.13,.16,.08,.1,.17,.19,.26,.27h.01c.18,.17,.38,.29,.6,.39h.01c.11,.06,.22,.1,.34,.14t.02,0c.25,.09,.51,.16,.78,.22,.01,0,.03,0,.05,.02,.03,0,.07,0,.1,.02,.08,.02,.15,.04,.22,.06,2.95,.68,6.75,.78,9.73,.79h14.32c2.98-.01,6.78-.11,9.73-.79,.07-.02,.15-.04,.22-.06,.03-.01,.07-.01,.1-.02,.02-.01,.04-.01,.06-.02,.26-.06,.52-.13,.77-.22,.13-.04,.25-.09,.37-.15,.22-.1,.42-.22,.6-.38h.01c.1-.1,.19-.19,.27-.29,0,0,.02-.02,.02-.03,.04-.04,.07-.08,.1-.12h0c.04-.06,.08-.12,.12-.17,.11-.16,.21-.33,.31-.49,.2-.35,.39-.7,.55-1.07,.32-.72,.59-1.54,.73-2.32,.09-.51,.12-1.02,.13-1.53h2.99s.04,0,.06,0,.05,0,.07-.01c.04,0,.08-.02,.13-.03,.04-.01,.08-.03,.13-.04l.12-.06s.08-.05,.12-.08c.08-.05,.16-.11,.23-.18s.13-.15,.18-.23c.03-.04,.05-.08,.07-.12,.03-.04,.05-.09,.06-.13,.02-.04,.03-.09,.05-.13,0-.02,0-.05,0-.07,.01-.02,.01-.04,.02-.06,0-.03,.01-.05,.01-.07s0-.04,.01-.07v22.48h0v22.52h0v.14Z"/>
      <path class="cls-3" d="M51.02,14.55v.03s-.01,.05-.01,.07-.01,.04-.01,.07c-.01,.02-.01,.04-.02,.06,0,.02,0,.05,0,.07-.02,.04-.03,.09-.05,.13-.01,.04-.03,.09-.06,.13-.02,.04-.04,.08-.07,.12-.05,.08-.11,.16-.18,.23s-.15,.13-.23,.18c-.04,.03-.08,.05-.12,.08l-.12,.06c-.05,0-.09,.03-.13,.04-.05,0-.09,.02-.13,.03-.02,.01-.05,.01-.07,.01s-.04,0-.06,0h-2.99c.01-.3,.01-.6,.01-.91v-4.53c0-.12-.01-.24-.02-.37l-.03-.18c-.04-.17-.12-.33-.25-.47-.06-.06-.12-.12-.19-.17-.02-.02-.05-.03-.07-.05-.11-.07-.24-.13-.37-.17-.04,0-.08-.03-.12-.04v-2.03c0-.3-.12-.59-.31-.8s-.47-.34-.78-.34H6.39c-.31,0-.58,.13-.78,.34-.19,.21-.31,.5-.31,.8v2.03s-.08,.03-.12,.04c-.13,.04-.26,.1-.37,.17-.02,.02-.05,.03-.07,.05-.07,.05-.13,.11-.19,.17-.13,.14-.21,.3-.25,.47l-.03,.18h0c-.01,.13-.02,.25-.02,.37v4.53c0,.31,0,.61,.01,.91H1.27s-.04,0-.06,0-.05,0-.07-.01c-.04,0-.08-.02-.13-.03-.04-.01-.08-.03-.12-.04-.05-.02-.09-.04-.13-.06-.04-.03-.08-.05-.12-.08-.08-.05-.16-.11-.23-.18s-.13-.15-.18-.23c-.03-.04-.05-.08-.07-.12-.03-.04-.04-.09-.06-.13s-.03-.09-.05-.13c0-.02-.01-.05-.01-.07,0-.02,0-.04-.02-.06,0-.03-.01-.05-.01-.07s0-.04-.01-.07v-.08H0v-.03H0V1.24H0v-.22s.01-.08,.01-.12c.01-.04,.01-.08,.01-.11,.01-.08,.02-.16,.04-.23,0-.03,.01-.07,.02-.1s.01-.06,.02-.1c.01-.03,.02-.05,.03-.08s.02-.05,.03-.08l.03-.06s.01-.02,.02-.03c0-.01,.01-.01,.01-.02l.02-.02s.01-.02,.02-.02c0-.01,.01-.01,.01-.02,.01,0,.02-.01,.02-.01h.01s0,0,0,0h.01s.01-.01,.01-.01H50.71s.01,.01,.01,.02h0s.01,.01,.02,.01c0,0,.01,0,.01,.02,.01,0,.01,0,.02,.02l.02,.02s0,0,0,.02c.01,0,.01,.02,.02,.03l.03,.06s.02,.05,.03,.08,.02,.05,.03,.08c.01,.04,.01,.07,.02,.1s.02,.07,.02,.1c.02,.07,.03,.15,.04,.23,0,.03,0,.07,.01,.11,0,.04,0,.08,.01,.12v.2h0V14.46h0v.03h0v.06Z"/>
      <path class="cls-3" d="M51.01,59.8c-.01,.08-.03,.16-.07,.23,.03-.07,.06-.14,.07-.23Z"/>
      <path class="cls-3" d="M50.87,60.13s.05-.05,.06-.08c-.02,.03-.03,.05-.06,.08Z"/>
      <path class="cls-3" d="M50.8,60.22s-.04,.05-.07,.07c-.02,.02-.04,.04-.07,.05,.05-.03,.1-.07,.14-.12Z"/>
      <path class="cls-3" d="M50.07,60.56c.06,0,.12,0,.18-.03-.06,.02-.12,.03-.18,.03Z"/>
      <path class="cls-3" d="M46.77,10.62v4.34c0,.31,0,.61-.01,.91-.01,.51-.04,1.02-.13,1.53-.14,.78-.41,1.6-.73,2.32-.16,.37-.35,.72-.55,1.07-.1,.16-.2,.33-.31,.49-.04,.05-.08,.11-.12,.16h0c-.03,.05-.06,.09-.1,.13,0,0-.01,.02-.02,.03-.08,.1-.17,.19-.27,.28h-.01c-.18,.16-.38,.29-.6,.39-.12,.06-.24,.11-.37,.15-.25,.08-.52,.15-.77,.22-.02,0-.04,0-.06,.02-.03,0-.07,0-.1,.02-.07,.02-.15,.04-.22,.06-2.95,.68-6.75,.78-9.73,.79h-14.32c-2.98-.01-6.78-.11-9.73-.79-.07-.02-.14-.04-.22-.06-.03-.01-.07-.01-.1-.02-.02-.01-.04-.01-.05-.02-.26-.07-.53-.14-.78-.22t-.02,0c-.12-.04-.23-.08-.34-.13h-.01c-.22-.11-.42-.24-.6-.39h-.01c-.09-.09-.18-.18-.26-.28-.05-.05-.09-.1-.13-.16-.04-.05-.08-.11-.12-.17-.11-.16-.21-.33-.31-.49-.2-.35-.39-.7-.55-1.07-.32-.72-.59-1.54-.73-2.32-.09-.51-.12-1.02-.13-1.53-.01-.3-.01-.6-.01-.91v-4.53c0-.12,.01-.24,.02-.36h0c.01-.07,.02-.13,.03-.19,.04-.17,.12-.33,.25-.47,.06-.06,.12-.12,.19-.17,.02-.02,.05-.03,.07-.05,.11-.07,.24-.12,.37-.17,.04,0,.08-.03,.12-.04s.07-.02,.11-.03c.07-.02,.13-.04,.2-.05,.07-.02,.14-.04,.21-.05,.43-.08,.87-.12,1.28-.13,.49-.02,.98-.02,1.47-.02H42.45c.49,0,.98,0,1.47,.02,.41,0,.85,.05,1.28,.13,.07,.01,.14,.03,.21,.05,.07,.01,.13,.03,.2,.05,.04,0,.07,.02,.11,.03s.08,.03,.12,.04c.13,.05,.26,.1,.37,.17,.02,.02,.05,.03,.07,.05,.07,.05,.13,.11,.19,.17,.13,.14,.21,.3,.25,.47l.03,.18c.01,.13,.02,.25,.02,.37v.19Z"/>
      <path class="cls-3" d="M45.84,9.02c.13,.04,.26,.1,.37,.17-.11-.07-.24-.12-.37-.17Z"/>
      <path class="cls-3" d="M45.72,6.95v2.03s-.07-.03-.11-.04c-.07-.02-.13-.04-.2-.04h0v-2.75c.19,.21,.31,.5,.31,.8Z"/>
      <path class="cls-3" d="M45.72,8.98s-.07-.02-.11-.03c-.07-.02-.13-.04-.2-.05,.07,0,.13,.02,.2,.04,.04,.01,.07,.02,.11,.04Z"/>
      <path class="cls-3" d="M45.41,8.89h0c-.07-.01-.14-.03-.21-.04-.43-.08-.87-.12-1.28-.13-.49-.02-.98-.02-1.47-.02H8.57c-.49,0-.98,0-1.47,.02-.41,0-.85,.05-1.28,.13-.07,.01-.14,.03-.21,.05h0v-2.75c.2-.21,.47-.34,.78-.34H44.63c.31,0,.59,.13,.78,.34v2.74Z"/>
      <path class="cls-3" d="M43.92,22.27c.22-.1,.42-.23,.6-.38-.18,.16-.38,.28-.6,.38Z"/>
      <path class="cls-3" d="M42.78,22.64c.25-.07,.52-.14,.77-.22-.25,.09-.51,.16-.77,.22Z"/>
      <path class="cls-3" d="M7.47,22.42c.25,.08,.52,.15,.78,.22-.27-.06-.53-.13-.78-.22Z"/>
      <path class="cls-3" d="M7.1,22.27c-.22-.1-.42-.22-.6-.38,.18,.15,.38,.28,.6,.38Z"/>
      <path class="cls-3" d="M5.61,8.89h0c-.07,0-.13,.03-.2,.05-.04,.01-.07,.02-.11,.04v-2.03c0-.3,.12-.59,.31-.8v2.74Z"/>
      <path class="cls-3" d="M5.61,8.9c-.07,.01-.13,.03-.2,.05-.04,0-.07,.02-.11,.03,.04-.02,.07-.03,.11-.04,.07-.02,.13-.04,.2-.04Z"/>
      <path class="cls-3" d="M4.81,9.19c.11-.07,.24-.13,.37-.17-.13,.05-.26,.1-.37,.17Z"/>
      <path class="cls-3" d="M.77,60.53c.06,.02,.12,.02,.18,.03-.06,0-.12,0-.18-.03Z"/>
      <path class="cls-3" d="M.36,60.34s-.05-.03-.07-.05c-.03-.02-.05-.04-.07-.07,.04,.05,.09,.09,.14,.12Z"/>
      <path class="cls-3" d="M.09,60.05s.03,.06,.06,.08c-.03-.03-.04-.05-.06-.08Z"/>
      <path class="cls-3" d="M.01,59.76c0,.1,.03,.19,.07,.27-.04-.08-.07-.17-.07-.27Z"/>
    </g>
    <g>
      <polyline class="cls-2" points="18.35 8.7 25.51 8.7 32.67 8.7"/>
      <polyline class="cls-2" points="18.35 5.81 25.51 5.81 32.67 5.81"/>
      <polyline class="cls-2" points="18.35 0 25.51 0 32.67 0"/>
      <polyline class="cls-2" points="18.35 23.53 25.51 23.53 32.67 23.53"/>
      <polyline class="cls-2" points="18.35 61.2 25.51 61.2 32.67 61.2"/>
      <path class="cls-2" d="M18.35,5.81H6.39c-.31,0-.58,.13-.78,.34"/>
      <path class="cls-2" d="M5.3,8.98v-2.03c0-.3,.12-.59,.31-.8"/>
      <path class="cls-2" d="M5.3,8.98s.07-.03,.11-.04c.07-.02,.13-.04,.2-.04,.07-.02,.14-.04,.21-.05,.43-.08,.87-.12,1.28-.13,.49-.02,.98-.02,1.47-.02h9.78"/>
      <path class="cls-2" d="M4.81,9.19c.11-.07,.24-.13,.37-.17"/>
      <path class="cls-2" d="M7.1,22.27c-.22-.1-.42-.23-.6-.38"/>
      <path class="cls-2" d="M18.35,23.53c-2.98-.01-6.78-.11-9.73-.79-.07-.02-.14-.04-.22-.06-.03-.01-.07-.01-.1-.02-.02-.01-.04-.01-.05-.02-.26-.07-.53-.14-.78-.22"/>
      <path class="cls-2" d="M7.47,22.42c.25,.09,.51,.16,.78,.22"/>
      <path class="cls-2" d="M7.47,22.42s-.01,0-.02,0c-.12-.04-.23-.08-.34-.13h-.01"/>
      <path class="cls-2" d="M6.5,21.89c.18,.16,.38,.28,.6,.38"/>
      <path class="cls-2" d="M6.5,21.89h-.01c-.09-.09-.18-.18-.26-.28-.05-.05-.09-.1-.13-.16-.04-.05-.08-.11-.12-.17-.11-.16-.21-.33-.31-.49-.2-.35-.39-.7-.55-1.07-.32-.72-.59-1.54-.73-2.32-.09-.51-.12-1.02-.13-1.53"/>
      <path class="cls-2" d="M4.26,15.87c-.01-.3-.01-.6-.01-.91v-4.53c0-.12,.01-.24,.02-.36h0c.01-.07,.02-.13,.03-.19,.04-.17,.12-.33,.25-.47,.06-.06,.12-.12,.19-.17,.02-.02,.05-.03,.07-.05"/>
      <path class="cls-2" d="M5.18,9.02c-.13,.05-.26,.1-.37,.17"/>
      <path class="cls-2" d="M5.18,9.02s.08-.03,.12-.04"/>
      <path class="cls-2" d="M5.61,8.9c-.07,.01-.13,.03-.2,.05-.04,0-.07,.02-.11,.03"/>
      <path class="cls-2" d="M.77,60.53c.06,.02,.12,.02,.18,.03,.02,.01,.05,.01,.07,.01,.05,0,.09,0,.14,0,.08,0,.15,.01,.23,.01,.13,0,.26,0,.39,.02,1.23,.07,2.46,.14,3.7,.2,1.53,.08,3.06,.14,4.58,.2,.1,0,.2,0,.3,0,.24,.01,.49,.02,.74,.03,.71,.02,1.42,.03,2.13,.05,.37,.01,.75,.03,1.12,.03,.08,.01,.17,.01,.25,.01,.18,0,.37,0,.55,0,.36,.01,.72,.01,1.08,.02,.71,.01,1.42,.02,2.12,.03"/>
      <path class="cls-2" d="M.22,60.22s.04,.05,.07,.07c.02,.02,.04,.04,.07,.05"/>
      <path class="cls-2" d="M.09,60.05s.03,.06,.06,.08"/>
      <path class="cls-2" d="M.01,59.76c0,.1,.03,.19,.07,.27"/>
      <path class="cls-2" d="M0,14.58v22.48H0v22.52H0v.16s0,0,.01,.02"/>
      <path class="cls-2" d="M.08,60.03c-.04-.08-.07-.17-.07-.27"/>
      <path class="cls-2" d="M.08,60.03s.01,0,.01,.02"/>
      <path class="cls-2" d="M.15,60.13s-.04-.05-.06-.08"/>
      <path class="cls-2" d="M.15,60.13s.04,.06,.07,.09"/>
      <path class="cls-2" d="M.36,60.34c-.05-.03-.1-.07-.14-.12"/>
      <path class="cls-2" d="M.36,60.34s.05,.04,.08,.06c.04,.02,.07,.04,.11,.06,.02,0,.03,.01,.05,.02,.06,.02,.11,.04,.17,.05"/>
      <path class="cls-2" d="M.95,60.56c-.06,0-.12,0-.18-.03"/>
      <path class="cls-2" d="M4.26,15.87H1.27s-.04,0-.06,0-.05,0-.07-.01c-.04,0-.08-.02-.13-.03-.04-.01-.08-.03-.12-.04-.05-.02-.09-.04-.13-.06-.04-.03-.08-.05-.12-.08-.08-.05-.16-.11-.23-.18s-.13-.15-.18-.23c-.03-.04-.05-.08-.07-.12-.03-.04-.04-.09-.06-.13s-.03-.09-.05-.13c0-.02-.01-.05-.01-.07,0-.02,0-.04-.02-.06,0-.03-.01-.05-.01-.07s0-.04-.01-.07v-.08H0v-.03H0V1.24H0v-.22s.01-.08,.01-.12c.01-.04,.01-.08,.01-.11,.01-.08,.02-.16,.04-.23,0-.03,.01-.07,.02-.1s.01-.06,.02-.1c.01-.03,.02-.05,.03-.08s.02-.05,.03-.08l.03-.06s.01-.02,.02-.03c0-.01,.01-.01,.01-.02l.02-.02s.01-.02,.02-.02c0-.01,.01-.01,.01-.02,.01,0,.02-.01,.02-.01h.01s0,0,0,0h.01s.01-.01,.01-.01H18.35"/>
      <line class="cls-2" x1="5.61" y1="8.89" x2="5.61" y2="6.15"/>
      <path class="cls-2" d="M5.68,9.46l-.02,.02s-.05,.04-.07,.06c-.03,.03-.05,.05-.07,.08-.03,.02-.05,.05-.07,.08s-.04,.06-.07,.09l-.06,.12s-.05,.09-.07,.13l-.06,.15s-.02,.06-.03,.08c-.02,.06-.03,.11-.05,.17s-.03,.12-.05,.18c0,.07-.03,.14-.04,.2-.02,.1-.03,.19-.04,.29-.02,.1-.03,.19-.03,.29-.01,.09-.02,.19-.03,.29v.14c-.01,.05-.01,.09-.01,.14,0,.07-.01,.14-.01,.2,0,.08,0,.15,0,.21-.01,.1-.01,.19-.02,.28,0,.09-.01,.17-.01,.26-.01,.11-.02,.22-.02,.33-.02,.26-.04,.52-.05,.77,0,.17-.02,.34-.02,.5"/>
      <path class="cls-2" d="M45.72,8.98v-2.03c0-.3-.12-.59-.31-.8"/>
      <path class="cls-2" d="M32.67,5.81h11.96c.31,0,.59,.13,.78,.34"/>
      <path class="cls-2" d="M45.72,8.98s-.07-.03-.11-.04c-.07-.02-.13-.04-.2-.04-.07-.02-.14-.04-.21-.05-.43-.08-.87-.12-1.28-.13-.49-.02-.98-.02-1.47-.02h-9.78"/>
      <path class="cls-2" d="M46.21,9.19c-.11-.07-.24-.13-.37-.17"/>
      <path class="cls-2" d="M43.92,22.27c.22-.1,.42-.23,.6-.38"/>
      <path class="cls-2" d="M32.67,23.53c2.98-.01,6.78-.11,9.73-.79,.07-.02,.15-.04,.22-.06,.03-.01,.07-.01,.1-.02,.02-.01,.04-.01,.06-.02,.25-.07,.52-.14,.77-.22"/>
      <path class="cls-2" d="M43.55,22.42c-.25,.09-.51,.16-.77,.22"/>
      <path class="cls-2" d="M43.55,22.42c.13-.04,.25-.09,.37-.15"/>
      <path class="cls-2" d="M44.52,21.89c-.18,.16-.38,.28-.6,.38"/>
      <path class="cls-2" d="M44.52,21.89h.01c.1-.1,.19-.19,.27-.29,0,0,.02-.02,.02-.03,.04-.04,.07-.08,.1-.12h0c.04-.06,.08-.12,.12-.17,.11-.16,.21-.33,.31-.49,.2-.35,.39-.7,.55-1.07,.32-.72,.59-1.54,.73-2.32,.09-.51,.12-1.02,.13-1.53"/>
      <path class="cls-2" d="M46.76,15.87c.01-.3,.01-.6,.01-.91v-4.53c0-.12-.01-.24-.02-.37l-.03-.18c-.04-.17-.12-.33-.25-.47-.06-.06-.12-.12-.19-.17-.02-.02-.05-.03-.07-.05"/>
      <path class="cls-2" d="M45.84,9.02c.13,.05,.26,.1,.37,.17"/>
      <path class="cls-2" d="M45.84,9.02s-.08-.03-.12-.04"/>
      <path class="cls-2" d="M45.41,8.9c.07,.01,.13,.03,.2,.05,.04,0,.07,.02,.11,.03"/>
      <path class="cls-2" d="M50.25,60.53c-.06,.02-.12,.02-.18,.03-.02,.01-.05,.01-.07,.01-.05,0-.09,0-.14,0-.07,0-.15,.01-.23,.01-.13,0-.26,0-.39,.02-1.23,.07-2.46,.14-3.7,.2-1.53,.08-3.05,.14-4.58,.2-.1,0-.2,0-.3,0-.24,.01-.49,.02-.73,.03-.72,.02-1.43,.03-2.14,.05-.37,.01-.74,.03-1.12,.03-.08,.01-.17,.01-.25,.01-.18,0-.37,0-.55,0-.36,.01-.72,.01-1.08,.02-.71,.01-1.42,.02-2.12,.03"/>
      <path class="cls-2" d="M50.8,60.22s-.04,.05-.07,.07c-.02,.02-.04,.04-.07,.05"/>
      <path class="cls-2" d="M50.93,60.05s-.03,.06-.06,.08"/>
      <path class="cls-2" d="M51.01,59.8c-.01,.08-.03,.16-.07,.23"/>
      <path class="cls-2" d="M51.02,14.58v22.48h0v22.52h0v.14s0,.05-.01,.08"/>
      <path class="cls-2" d="M50.94,60.03c.03-.07,.06-.14,.07-.23"/>
      <path class="cls-2" d="M50.94,60.03s-.01,.02-.01,.02"/>
      <path class="cls-2" d="M50.87,60.13s.04-.05,.06-.08"/>
      <path class="cls-2" d="M50.87,60.13s-.01,.03-.02,.04c-.01,.02-.03,.03-.05,.05"/>
      <path class="cls-2" d="M50.66,60.34c.05-.03,.1-.07,.14-.12"/>
      <path class="cls-2" d="M50.66,60.34s-.08,.06-.12,.08c-.02,.01-.05,.02-.07,.04-.07,.03-.15,.05-.22,.07"/>
      <path class="cls-2" d="M50.07,60.56c.06,0,.12,0,.18-.03"/>
      <path class="cls-2" d="M46.77,15.87h2.98s.04,0,.06,0,.05,0,.07-.01c.04,0,.08-.02,.13-.03,.04-.01,.08-.03,.13-.04l.12-.06s.08-.05,.12-.08c.08-.05,.16-.11,.23-.18s.13-.15,.18-.23c.03-.04,.05-.08,.07-.12,.03-.04,.05-.09,.06-.13,.02-.04,.03-.09,.05-.13,0-.02,0-.05,0-.07,.01-.02,.01-.04,.02-.06,0-.03,.01-.05,.01-.07s0-.04,.01-.07v-.08h0v-.03h0V1.24h0v-.22s-.01-.08-.01-.12c-.01-.04-.01-.08-.01-.11-.01-.08-.02-.16-.04-.23,0-.03,0-.07-.02-.1s-.01-.06-.02-.1c-.01-.03-.02-.05-.03-.08s-.02-.05-.03-.08l-.03-.06s-.01-.02-.02-.03c0-.01,0-.01,0-.02l-.02-.02s-.01-.02-.02-.02c0-.01-.01-.01-.01-.02-.01,0-.02-.01-.02-.01h0s0,0-.01,0h-.02s0-.01-.01-.01h-18.01"/>
      <line class="cls-2" x1="45.41" y1="8.89" x2="45.41" y2="6.15"/>
      <path class="cls-2" d="M46.25,14.52c0-.16-.01-.33-.02-.5,0-.25-.03-.51-.05-.77,0-.11-.01-.22-.02-.33,0-.09-.01-.17-.01-.26,0-.09,0-.18-.02-.28,0-.06,0-.13,0-.21,0-.06,0-.13-.01-.2,0-.05,0-.09-.01-.14v-.14c-.01-.1-.02-.2-.03-.29,0-.1-.01-.19-.03-.29,0-.1-.02-.19-.04-.29-.01-.06-.03-.13-.04-.2-.02-.06-.03-.12-.05-.18-.01-.06-.03-.11-.05-.17-.01-.02-.02-.05-.03-.08l-.06-.15s-.04-.09-.07-.13l-.06-.12s-.05-.06-.07-.09-.04-.06-.07-.08c-.02-.03-.04-.05-.07-.08-.02-.02-.04-.04-.07-.06l-.02-.02"/>
    </g>
  </g>
  <text class="cls-1" transform="translate(19.14 42.11)"><tspan x="0" y="0">90</tspan></text>
</svg>