<?xml version="1.0" encoding="UTF-8"?>
<svg id="_03_LINEA_FINA" data-name="03_LINEA FINA" xmlns="http://www.w3.org/2000/svg" viewBox="0 0 58.96 61.23">
  <defs>
    <style>
      .cls-1 {
        font-family: Inter18pt-Medium, 'Inter 18pt';
        font-size: 10px;
      }

      .cls-2 {
        fill: none;
        stroke: #404041;
        stroke-linecap: round;
        stroke-linejoin: round;
        stroke-width: .35px;
      }

      .cls-3 {
        fill: #f1f1f2;
      }
    </style>
  </defs>
  <g>
    <g>
      <path class="cls-3" d="M58.96,59.72v.03s0,.02,0,.03c0,.05-.01,.1-.03,.15,0,.05-.03,.09-.06,.14,0,0-.01,0-.01,.02-.02,.03-.04,.06-.06,.08,0,.02-.03,.04-.05,.05-.04,.05-.09,.09-.14,.12-.04,.03-.08,.06-.12,.08-.02,0-.05,.02-.07,.04-.04,0-.08,.03-.12,.04-.06,.02-.11,.04-.17,.05s-.12,.02-.18,.02c-.05,0-.09,0-.13,0-.08,0-.16,.01-.24,.01-.13,0-.26,.02-.39,.02-1.23,.07-2.46,.14-3.7,.2-1.53,.08-3.05,.15-4.58,.2-.1,0-.2,0-.3,0-.24,.01-.49,.02-.73,.03-.72,.02-1.43,.04-2.14,.06-.37,0-.74,.02-1.12,.03h-.25c-.18,.01-.37,.01-.55,.01-.36,0-.72,.02-1.08,.02-.71,.02-1.42,.02-2.12,.03h-8.07c-.77,0-1.53,0-2.3-.02-.39,0-.78,0-1.17-.02-.2,0-.4,0-.59,0-.1,0-.2-.01-.3-.01-.65,0-1.3-.03-1.94-.05-.7-.02-1.4-.04-2.09-.06-.08,0-.17-.01-.25-.01-1.58-.05-3.16-.12-4.74-.2-1.29-.07-2.59-.14-3.88-.21-.13-.01-.26-.02-.4-.02-.11,0-.21-.01-.31-.02-.08-.01-.15-.03-.23-.05-.01,0-.03,0-.04,0-.02-.01-.03-.01-.05-.02-.06-.02-.11-.04-.17-.07h0s-.08-.06-.12-.09c-.1-.07-.18-.16-.24-.27,0,0-.02,0-.02-.02s0,0,0-.02c-.01-.02-.02-.05-.02-.07-.02-.03-.03-.06-.03-.1-.01-.03-.02-.06-.01-.1,0-.01,0-.02,0-.03h0V18.92c0-.74,.25-1.48,.74-2.05,.48-.57,1.17-.94,1.93-.99h1.59c.01,.52,.05,1.05,.14,1.57,.15,.81,.44,1.66,.78,2.41,.18,.39,.39,.78,.62,1.15,.06,.09,.12,.18,.18,.26,0,.02,0,.03,.02,.04,.06,.1,.13,.18,.2,.27,.07,.08,.14,.16,.22,.23,.06,.07,.15,.14,.24,.21h.01c.08,.07,.18,.13,.28,.18,0,0,.01,0,.01,.01,.1,.05,.2,.1,.3,.13,0,0,.01,0,.01,0,.1,.04,.2,.08,.31,.11,.03,0,.06,0,.08,.02,.19,.07,.39,.12,.58,.17,.02,0,.04,0,.06,0,.04,.01,.08,.02,.11,.03,.17,.04,.33,.08,.49,.11,3.06,.65,6.95,.74,10.03,.73h8.07c2.98-.01,6.78-.11,9.73-.79,.07-.02,.15-.04,.22-.05,.03-.01,.07-.02,.1-.03,.02,0,.04,0,.06,0,.26-.07,.53-.14,.79-.23,.19-.07,.36-.14,.52-.24,.16-.08,.31-.18,.44-.3,.1-.08,.18-.17,.27-.28,.09-.1,.16-.21,.24-.32,.11-.16,.21-.32,.31-.49,.2-.35,.39-.7,.55-1.07,.32-.71,.59-1.54,.73-2.31,.09-.51,.12-1.02,.13-1.53h2.93s.04-.01,.06-.01,.04,0,.06,0c.02,0,.05,0,.07-.01,.04,0,.08,0,.13-.03,.04-.01,.08-.02,.13-.04l.12-.06s.09-.05,.13-.07c.07-.06,.15-.12,.22-.19s.13-.14,.18-.22c.03-.04,.05-.09,.07-.13,.03-.04,.05-.08,.06-.13,.02-.04,.04-.09,.05-.13,0-.02,0-.04,0-.07,.01-.02,.01-.04,.02-.06,0-.02,.01-.05,.01-.07s0-.04,0-.06V59.69h0v.03Z"/>
      <path class="cls-3" d="M58.96,14.56v.03s0,.04,0,.06-.01,.05-.01,.07c0,.02,0,.04-.02,.06,0,.03,0,.05,0,.07-.01,.04-.03,.09-.05,.13-.01,.05-.03,.09-.06,.13-.02,.04-.04,.09-.07,.13-.05,.08-.11,.15-.18,.22s-.15,.13-.22,.19c-.04,.02-.09,.05-.13,.07l-.12,.06s-.09,.03-.13,.04c-.05,.02-.09,.03-.13,.03-.02,.01-.05,.01-.07,.01-.02,0-.04,0-.06,0s-.04,.01-.06,.01h-2.93c0-.31,0-.61,0-.92v-4.53c0-.12,0-.24-.02-.36-.03-.25-.1-.46-.28-.66-.06-.06-.12-.12-.19-.17s-.14-.09-.21-.12c-.11-.06-.23-.1-.35-.14v-2.03c0-.3-.11-.58-.31-.79-.19-.21-.46-.34-.78-.34H20c-.31,0-.59,.13-.78,.34s-.31,.49-.31,.79v2.03c-.22,.07-.44,.17-.62,.31-.22,.17-.33,.37-.38,.64-.03,.14-.04,.28-.05,.42v4.61c0,.31,0,.61,0,.92h-1.59c-.76,.05-1.45,.42-1.93,.99-.49,.57-.74,1.31-.74,2.05V1.25h0v-.02h0v-.21s0-.08,0-.12c.01-.03,.01-.07,.01-.11,0-.08,.02-.15,.04-.22,0-.04,.01-.07,.02-.11,.01-.03,.01-.06,.02-.09l.03-.09s.02-.05,.03-.07c.01-.03,.02-.05,.03-.07,0,0,0-.02,.02-.03,0,0,0-.01,0-.02,.01-.01,.02-.01,.02-.02l.02-.02h.01s.02-.02,.02-.03h.02s0,0,.01,0h.02s0-.01,0-.01H58.63s0,.01,0,.01h.02s0,0,0,0l.02,.02h.01s0,.02,.02,.03l.02,.02s0,.02,0,.02c.01,0,.01,.02,.02,.03,.01,.02,.02,.04,.03,.07,0,.02,.02,.04,.03,.07l.03,.09s0,.06,.02,.09c0,.04,.02,.07,.02,.11,.02,.07,.03,.14,.04,.22,0,.04,.01,.08,.01,.11,0,.04,0,.08,0,.12v.2h0v.02h0V14.46h0v.02h0v.03h0v.05Z"/>
      <path class="cls-3" d="M58.92,59.93s.03-.1,.03-.15c0,.05-.01,.1-.03,.15Z"/>
      <path class="cls-3" d="M58.86,60.07c.03-.05,.05-.09,.06-.14,0,.05-.03,.1-.06,.14Z"/>
      <path class="cls-3" d="M58.74,60.22s-.04,.05-.07,.07c-.02,.02-.04,.04-.07,.05,.05-.03,.1-.07,.14-.12Z"/>
      <path class="cls-3" d="M58.12,60.55c.06-.01,.11-.03,.17-.05-.06,.02-.11,.04-.17,.05Z"/>
      <path class="cls-3" d="M58.12,60.55s-.07,.02-.11,.02h-.07c.06,0,.12-.01,.18-.02Z"/>
      <path class="cls-3" d="M54.71,10.62v4.34c0,.31,0,.61,0,.92-.01,.51-.04,1.02-.13,1.53-.14,.77-.41,1.6-.73,2.31-.16,.37-.35,.72-.55,1.07-.1,.17-.2,.33-.31,.49-.08,.11-.15,.22-.24,.32-.09,.11-.17,.2-.27,.28-.13,.12-.28,.22-.44,.3-.16,.1-.33,.17-.52,.24-.26,.09-.53,.16-.79,.23-.02,0-.04,0-.06,0-.03,.01-.07,.02-.1,.03-.07,0-.15,.03-.22,.05-2.95,.68-6.75,.78-9.73,.79h-8.07c-3.08,0-6.97-.08-10.03-.73-.16-.03-.32-.07-.49-.11-.03-.01-.07-.02-.11-.03-.02,0-.04,0-.06-.02-.19-.05-.38-.1-.58-.16-.02-.01-.05-.01-.08-.02-.11-.03-.21-.07-.31-.11,0,0-.01,0-.01,0-.1-.03-.2-.08-.3-.13,0-.01-.01-.01-.01-.01-.1-.05-.2-.11-.28-.17h-.01c-.09-.07-.17-.14-.24-.22-.08-.07-.15-.15-.22-.23-.07-.09-.14-.17-.2-.27-.01,0-.02-.02-.02-.04-.06-.08-.12-.17-.18-.26-.23-.37-.44-.76-.62-1.15-.34-.75-.63-1.6-.78-2.41-.09-.52-.13-1.05-.14-1.57,0-.31,0-.61,0-.92v-4.61c0-.14,.02-.28,.05-.42,.05-.27,.16-.47,.38-.64,.18-.14,.4-.24,.62-.31,.1-.03,.21-.06,.31-.08,.05-.01,.09-.02,.13-.03,.64-.13,1.33-.16,1.98-.16,.38-.01,.76,0,1.14,0h27.92c.49,0,.98-.01,1.47,0,.48,.03,1,.07,1.49,.18,.02,0,.04,0,.06,.02,.05,0,.09,.02,.14,.03,.04,.01,.07,.02,.11,.03,.12,.04,.24,.08,.35,.14,.07,.03,.14,.07,.21,.12s.13,.11,.19,.17c.18,.2,.25,.41,.28,.66,.01,.12,.02,.24,.02,.36v.19Z"/>
      <path class="cls-3" d="M53.66,6.95v2.03s-.07-.02-.11-.03c-.05,0-.09-.02-.14-.03-.02-.01-.04-.02-.06-.02v-2.74c.2,.21,.31,.49,.31,.79Z"/>
      <path class="cls-3" d="M53.35,6.16v2.74c-.49-.11-1.01-.15-1.49-.18-.49-.02-.98,0-1.47,0H22.47c-.38,0-.76-.01-1.14,0-.65,0-1.34,.03-1.98,.16-.04,.01-.08,.02-.13,.03v-2.74c.19-.21,.47-.34,.78-.34H52.57c.32,0,.59,.13,.78,.34Z"/>
      <path class="cls-3" d="M21.91,22.66s-.04,0-.06,0c-.19-.05-.39-.1-.58-.17,.2,.06,.39,.11,.58,.16,.02,.01,.04,.01,.06,.02Z"/>
      <path class="cls-3" d="M20.03,21.81c.07,.08,.15,.15,.24,.21-.09-.07-.18-.14-.24-.21Z"/>
      <path class="cls-3" d="M19.22,6.16v2.74c-.1,.02-.21,.05-.31,.08v-2.03c0-.3,.12-.58,.31-.79Z"/>
      <path class="cls-3" d="M14.34,60.52c.08,.02,.15,.04,.23,.05-.08-.01-.16-.03-.23-.05Z"/>
      <path class="cls-3" d="M14.08,60.42c.06,.03,.11,.05,.17,.07-.06-.02-.11-.05-.17-.07Z"/>
      <path class="cls-3" d="M13.95,0h-.01s0,.01,0,.01h-.02s-.01,0-.01,0c0,.01-.01,.01-.02,.02h-.01s0,.02-.02,.03c0,0,0,0-.02,.02,0,0,0,.02,0,.02-.01,0-.01,.02-.02,.03-.01,.02-.02,.04-.03,.07,0,.02-.02,.04-.03,.07l-.03,.09s0,.06-.02,.09c0,.04-.02,.07-.02,.11-.02,.07-.03,.14-.04,.22,0,.04,0,.08-.01,.11,0,.04,0,.08,0,.12v.2h0v.02h0V58.3c0,.79-.64,1.42-1.42,1.42H7.09c-1.96,0-3.73-.79-5.01-2.07C.79,56.37,0,54.59,0,52.64V7.09C0,3.18,3.17,0,7.09,0h6.86Z"/>
      <path class="cls-3" d="M13.71,60.06c.06,.11,.14,.2,.24,.27-.1-.07-.19-.16-.24-.27Z"/>
      <path class="cls-3" d="M13.63,59.85s0,.07,.03,.1c-.02-.03-.03-.07-.03-.1Z"/>
      <path class="cls-3" d="M13.61,59.71h0s-1.42,0-1.42,0c.78,0,1.42-.63,1.42-1.42v1.41Z"/>
    </g>
    <g>
      <path class="cls-2" d="M19.29,9.47s0,.01-.02,.01c-.03,.02-.05,.04-.07,.07-.03,.02-.05,.04-.07,.07-.03,.03-.05,.05-.07,.08s-.05,.07-.07,.1-.04,.07-.06,.11c-.03,.04-.05,.09-.07,.13l-.06,.15-.03,.09s-.04,.1-.05,.16c-.02,.06-.03,.12-.05,.19,0,.06-.03,.13-.04,.2-.02,.09-.03,.19-.04,.28-.02,.1-.03,.2-.03,.29,0,.1-.02,.19-.03,.29v.14c-.01,.05-.01,.1-.01,.14,0,.07,0,.14,0,.21-.01,.07-.01,.14-.01,.21,0,.09,0,.18-.02,.27,0,.09,0,.18,0,.26-.01,.11-.02,.22-.02,.33-.02,.27-.04,.52-.05,.77-.01,.17-.02,.34-.02,.51"/>
      <path class="cls-2" d="M32.54,23.53h8.07"/>
      <path class="cls-2" d="M21.27,22.48c.2,.06,.39,.11,.58,.16,.02,.01,.04,.01,.06,.02"/>
      <path class="cls-2" d="M20.03,21.81c.07,.08,.15,.15,.24,.21"/>
      <path class="cls-2" d="M32.54,8.71h-10.07c-.38,0-.76-.01-1.14,0-.65,0-1.34,.03-1.98,.16-.04,.01-.08,.02-.13,.03"/>
      <path class="cls-2" d="M19.22,8.9c-.1,.02-.21,.05-.31,.08"/>
      <path class="cls-2" d="M18.91,8.98c-.22,.07-.44,.17-.62,.31-.22,.17-.33,.37-.38,.64-.03,.14-.04,.28-.05,.42v4.61c0,.31,0,.61,0,.92"/>
      <path class="cls-2" d="M17.87,15.88c.01,.52,.05,1.05,.14,1.57,.15,.81,.44,1.66,.78,2.41,.18,.39,.39,.78,.62,1.15,.06,.09,.12,.18,.18,.26,0,.02,0,.03,.02,.04,.06,.1,.13,.18,.2,.27,.07,.08,.14,.16,.22,.23"/>
      <path class="cls-2" d="M20.27,22.02c-.09-.07-.18-.14-.24-.21"/>
      <path class="cls-2" d="M20.27,22.02h.01c.08,.07,.18,.13,.28,.18,0,0,.01,0,.01,.01,.1,.05,.2,.1,.3,.13,0,0,.01,0,.01,0,.1,.04,.2,.08,.31,.11,.03,0,.06,0,.08,.02"/>
      <path class="cls-2" d="M21.91,22.66s-.04,0-.06,0c-.19-.05-.39-.1-.58-.17"/>
      <path class="cls-2" d="M21.91,22.66s.08,.02,.11,.03c.17,.04,.33,.08,.49,.11,3.06,.65,6.95,.74,10.03,.73"/>
      <path class="cls-2" d="M53.66,8.98v-2.03c0-.3-.11-.58-.31-.79"/>
      <path class="cls-2" d="M40.61,5.82h11.96c.32,0,.59,.13,.78,.34"/>
      <path class="cls-2" d="M40.61,23.53c2.98-.01,6.78-.11,9.73-.79,.07-.02,.15-.04,.22-.05,.03-.01,.07-.02,.1-.03,.02,0,.04,0,.06,0,.26-.07,.53-.14,.79-.23,.19-.07,.36-.14,.52-.24,.16-.08,.31-.18,.44-.3,.1-.08,.18-.17,.27-.28,.09-.1,.16-.21,.24-.32,.11-.16,.21-.32,.31-.49,.2-.35,.39-.7,.55-1.07,.32-.71,.59-1.54,.73-2.31,.09-.51,.12-1.02,.13-1.53"/>
      <path class="cls-2" d="M54.7,15.88c0-.31,0-.61,0-.92v-4.53c0-.12,0-.24-.02-.36-.03-.25-.1-.46-.28-.66-.06-.06-.12-.12-.19-.17s-.14-.09-.21-.12c-.11-.06-.23-.1-.35-.14"/>
      <path class="cls-2" d="M53.66,8.98s-.07-.02-.11-.03c-.05,0-.09-.02-.14-.03-.02-.01-.04-.02-.06-.02"/>
      <path class="cls-2" d="M53.35,8.9c-.49-.11-1.01-.15-1.49-.18-.49-.02-.98,0-1.47,0h-9.78"/>
      <path class="cls-2" d="M58.29,60.5c-.06,.02-.11,.04-.17,.05-.04,0-.07,.02-.11,.02h-.07c-.05,0-.09,0-.13,0-.08,0-.16,.01-.24,.01-.13,0-.26,.02-.39,.02-1.23,.07-2.46,.14-3.7,.2-1.53,.08-3.05,.15-4.58,.2-.1,0-.2,0-.3,0-.24,.01-.49,.02-.73,.03-.72,.02-1.43,.04-2.14,.06-.37,0-.74,.02-1.12,.03h-.25c-.18,.01-.37,.01-.55,.01-.36,0-.72,.02-1.08,.02-.71,.02-1.42,.02-2.12,.03"/>
      <path class="cls-2" d="M58.74,60.22s-.04,.05-.07,.07c-.02,.02-.04,.04-.07,.05"/>
      <path class="cls-2" d="M58.95,59.78s-.01,.1-.03,.15c0,.05-.03,.1-.06,.14"/>
      <path class="cls-2" d="M58.96,14.59V59.69h0v.06s0,.02,0,.03"/>
      <path class="cls-2" d="M58.86,60.07c.03-.05,.05-.09,.06-.14,.02-.05,.03-.1,.03-.15"/>
      <path class="cls-2" d="M58.86,60.07s-.01,0-.01,.02c-.02,.03-.04,.06-.06,.08,0,.02-.03,.04-.05,.05"/>
      <path class="cls-2" d="M58.6,60.34c.05-.03,.1-.07,.14-.12"/>
      <path class="cls-2" d="M58.6,60.34s-.08,.06-.12,.08c-.02,0-.05,.02-.07,.04-.04,0-.08,.03-.12,.04"/>
      <path class="cls-2" d="M57.94,60.57c.06,0,.12-.01,.18-.02s.11-.03,.17-.05"/>
      <path class="cls-2" d="M54.71,15.88h2.92s.04-.01,.06-.01,.04,0,.06,0c.02,0,.05,0,.07-.01,.04,0,.08,0,.13-.03,.04-.01,.08-.02,.13-.04l.12-.06s.09-.05,.13-.07c.07-.06,.15-.12,.22-.19s.13-.14,.18-.22c.03-.04,.05-.09,.07-.13,.03-.04,.05-.08,.06-.13,.02-.04,.04-.09,.05-.13,0-.02,0-.04,0-.07,.01-.02,.01-.04,.02-.06,0-.02,.01-.05,.01-.07s0-.04,0-.06v-.07h0v-.03h0v-.02h0V1.25h0v-.02h0v-.21s0-.08,0-.12c0-.03-.01-.07-.01-.11,0-.08-.02-.15-.04-.22,0-.04-.01-.07-.02-.11-.01-.03-.01-.06-.02-.09l-.03-.09s-.02-.05-.03-.07c-.01-.03-.02-.05-.03-.07,0,0,0-.02-.02-.03,0,0,0-.01,0-.02l-.02-.02-.02-.02h-.01s0-.02-.02-.03h-.02s0,0-.01,0h-.02s0-.01,0-.01h-18"/>
      <line class="cls-2" x1="53.35" y1="8.9" x2="53.35" y2="6.16"/>
      <path class="cls-2" d="M54.19,14.53c0-.17,0-.34-.02-.51,0-.25-.03-.5-.05-.77,0-.11,0-.22-.02-.33,0-.08,0-.17,0-.26-.01-.09-.01-.18-.02-.27,0-.07,0-.14-.01-.21,0-.07,0-.14,0-.21,0-.04,0-.09-.01-.14v-.14c0-.1-.02-.19-.03-.29,0-.09-.01-.19-.03-.29,0-.09-.02-.19-.04-.28,0-.07-.03-.14-.04-.2-.01-.07-.03-.13-.05-.19,0-.06-.03-.11-.05-.16l-.03-.09-.06-.15s-.04-.09-.07-.13c-.02-.04-.04-.08-.06-.11s-.05-.07-.07-.1-.04-.05-.07-.08c-.02-.03-.04-.05-.07-.07-.02-.03-.04-.05-.07-.07-.01,0-.01-.01-.02-.01"/>
      <path class="cls-2" d="M18.91,8.98v-2.03c0-.3,.12-.58,.31-.79s.47-.34,.78-.34h12.54"/>
      <path class="cls-2" d="M32.54,0H13.95"/>
      <path class="cls-2" d="M14.34,60.52c.08,.02,.15,.04,.23,.05,.1,0,.2,.02,.31,.02,.14,0,.27,0,.4,.02,1.29,.07,2.59,.14,3.88,.21,1.58,.08,3.16,.15,4.74,.2,.08,0,.17,.01,.25,.01,.69,.02,1.39,.04,2.09,.06,.64,.02,1.29,.04,1.94,.05,.1,0,.2,.01,.3,.01,.19,0,.39,0,.59,0,.39,.01,.78,.01,1.17,.02,.77,.01,1.53,.02,2.3,.03"/>
      <path class="cls-2" d="M14.08,60.42c.06,.02,.11,.05,.17,.07"/>
      <path class="cls-2" d="M13.71,60.06c.06,.11,.14,.2,.24,.27"/>
      <path class="cls-2" d="M13.63,59.85s0,.07,.03,.1"/>
      <path class="cls-2" d="M13.95,0h-.01s0,.01,0,.01h-.02s-.01,0-.01,0c0,.01-.01,.01-.02,.02h-.01s0,.02-.02,.03c0,0,0,0-.02,.02,0,0,0,.02,0,.02-.01,0-.01,.02-.02,.03-.01,.02-.02,.04-.03,.07,0,.02-.02,.04-.03,.07l-.03,.09s0,.06-.02,.09c0,.04-.02,.07-.02,.11-.02,.07-.03,.14-.04,.22,0,.04,0,.08-.01,.11,0,.04,0,.08,0,.12v.2h0v.02h0V18.92"/>
      <path class="cls-2" d="M13.61,18.92V58.3"/>
      <path class="cls-2" d="M13.61,58.3v1.41h0"/>
      <path class="cls-2" d="M13.61,59.72s0,.02,0,.03c0,.04,0,.07,.01,.1"/>
      <path class="cls-2" d="M13.66,59.95s-.03-.06-.03-.1"/>
      <path class="cls-2" d="M13.66,59.95s0,.05,.02,.07c0,.01,0,.01,0,.02s.01,.01,.02,.02"/>
      <path class="cls-2" d="M13.95,60.33c-.1-.07-.19-.16-.24-.27"/>
      <path class="cls-2" d="M13.95,60.33s.08,.05,.12,.08h0"/>
      <path class="cls-2" d="M14.25,60.49c-.06-.02-.11-.04-.17-.07"/>
      <path class="cls-2" d="M14.25,60.49s.03,.01,.05,.02c0,0,.03,0,.04,0"/>
      <path class="cls-2" d="M14.57,60.57c-.08-.01-.16-.03-.23-.05"/>
      <path class="cls-2" d="M17.86,15.88h-1.58c-.76,.05-1.45,.42-1.93,.99-.49,.57-.74,1.31-.74,2.05"/>
      <line class="cls-2" x1="19.22" y1="8.9" x2="19.22" y2="6.16"/>
      <path class="cls-2" d="M13.95,0H7.09C3.17,0,0,3.18,0,7.09V52.64c0,1.95,.79,3.73,2.08,5.01,1.28,1.28,3.05,2.07,5.01,2.07h5.1"/>
      <path class="cls-2" d="M13.61,58.3c0,.79-.64,1.42-1.42,1.42"/>
      <line class="cls-2" x1="13.61" y1="59.72" x2="12.19" y2="59.72"/>
      <line class="cls-2" x1="32.54" y1="61.21" x2="40.61" y2="61.2"/>
      <line class="cls-2" x1="32.54" y1="0" x2="40.61" y2="0"/>
      <line class="cls-2" x1="32.54" y1="5.82" x2="40.61" y2="5.82"/>
      <line class="cls-2" x1="32.54" y1="8.71" x2="40.61" y2="8.71"/>
    </g>
  </g>
  <text class="cls-1" transform="translate(29.23 42.11)"><tspan x="0" y="0">80</tspan></text>
</svg>