<?xml version="1.0" encoding="UTF-8"?>
<svg id="_03_LINEA_FINA" data-name="03_LINEA FINA" xmlns="http://www.w3.org/2000/svg" viewBox="0 0 58.96 61.23">
  <defs>
    <style>
      .cls-1 {
        font-family: Inter18pt-Medium, 'Inter 18pt';
        font-size: 10px;
      }

      .cls-2 {
        fill: none;
        stroke: #404041;
        stroke-linecap: round;
        stroke-linejoin: round;
        stroke-width: .35px;
      }

      .cls-3 {
        fill: #f1f1f2;
      }
    </style>
  </defs>
  <g>
    <g>
      <path class="cls-3" d="M58.96,7.09V52.64c0,3.91-3.17,7.08-7.09,7.08h-5.1c-.39,0-.75-.16-1-.41s-.42-.62-.42-1.01v-13.74c0-8.55,0-17.1,0-25.64V1.25h0v-.02h0v-.21s-.01-.08-.01-.12c0-.03-.01-.07-.01-.11-.01-.08-.02-.15-.03-.22,0-.04-.02-.07-.03-.11,0-.03-.01-.06-.02-.09l-.03-.09s-.02-.05-.03-.07c0-.03-.02-.05-.03-.07-.01,0-.01-.02-.02-.03,0,0-.01-.01-.01-.02l-.02-.02s0-.01-.02-.02h-.01s-.01-.02-.02-.03h-.03s0,0,0,0-.01-.01-.01-.01h6.86c1.96,0,3.73,.79,5.01,2.08,1.29,1.28,2.08,3.05,2.08,5.01Z"/>
      <path class="cls-3" d="M46.77,59.72h-1.42v-1.42c0,.39,.16,.75,.42,1.01s.61,.41,1,.41Z"/>
      <path class="cls-3" d="M45.35,59.65v.06h0s0,.06-.01,.08c0,.03,0,.06-.01,.09-.01,.04-.02,.08-.04,.12-.01,.01-.01,.03-.02,.04s-.02,.03-.02,.04l-.09,.12c-.05,.05-.1,.09-.15,.13-.04,.04-.09,.06-.13,.09-.06,.03-.11,.05-.17,.07-.04,.01-.07,.03-.11,.03-.02,.01-.04,.02-.05,.02-.15,.03-.31,.04-.47,.05-.14,0-.27,0-.4,.02-1.29,.07-2.58,.14-3.88,.21-.79,.04-1.58,.08-2.37,.11-.79,.04-1.58,.06-2.37,.09-.08,0-.17,.01-.25,.01-.69,.02-1.39,.04-2.09,.06-.59,.02-1.18,.04-1.78,.05h-.15c-.1,0-.2,.01-.3,.01-.2,0-.4,0-.6,0-.39,.01-.78,.01-1.17,.02-.77,.01-1.53,.02-2.3,.03h-8.07c-.7-.02-1.41-.02-2.12-.04-.36,0-.72-.01-1.08-.02-.18,0-.37,0-.55-.01h-.25c-.37,0-.75-.02-1.12-.03l-2.13-.06c-.25-.01-.5-.02-.74-.03-.1,0-.2,0-.29,0-1.53-.05-3.06-.12-4.59-.2-1.23-.06-2.47-.13-3.7-.2-.13,0-.26-.01-.38-.02-.08,0-.16-.01-.24-.01-.05,0-.09,0-.14,0-.06,0-.12-.01-.18-.02s-.11-.03-.17-.05c-.02,0-.05-.01-.07-.02s-.03-.02-.05-.02c-.04-.02-.07-.04-.11-.06-.03-.02-.05-.04-.08-.06-.05-.03-.1-.07-.14-.12-.04-.04-.08-.08-.11-.13t0-.02s-.04-.07-.05-.11c0-.01,0-.02,0-.03-.01,0-.01-.03-.01-.04-.02-.04-.03-.09-.03-.14v-.05H0V14.56s0,.02,.01,.03v.06s.01,.05,.01,.07c0,.02,0,.04,.02,.06,0,.03,0,.05,0,.07,.02,.04,.03,.09,.05,.13,.02,.05,.04,.09,.06,.13s.04,.09,.07,.13c.05,.08,.11,.15,.18,.22s.15,.13,.23,.19c.04,.02,.08,.05,.12,.07s.08,.04,.13,.06c.04,.02,.08,.03,.13,.04,.04,.02,.08,.03,.12,.03,.03,.01,.05,.01,.07,.01,.02,0,.04,0,.06,0s.04,.01,.06,.01h2.93c.01,.51,.04,1.02,.13,1.53,.14,.77,.41,1.6,.73,2.31,.16,.37,.35,.72,.55,1.07,.1,.17,.2,.33,.31,.49,.08,.12,.16,.23,.25,.33,.08,.1,.17,.19,.26,.27,0,0,0,0,.01,0,.09,.08,.18,.15,.28,.21,0,.01,.01,.01,.01,.01,.1,.06,.2,.12,.31,.17h0c.11,.05,.23,.09,.35,.14,.26,.09,.52,.16,.79,.23,.01,0,.03,0,.05,0,.03,.01,.07,.02,.1,.03,.08,0,.15,.03,.22,.05,2.95,.68,6.76,.78,9.73,.79h8.07c3.08,0,6.98-.08,10.03-.73,.16-.03,.33-.07,.49-.11,.04-.01,.07-.02,.11-.03,.02,0,.04,0,.06,0,.19-.05,.39-.1,.58-.17,.06-.02,.13-.04,.19-.06,.18-.06,.35-.12,.51-.21,.22-.12,.4-.25,.55-.4,.07-.07,.14-.15,.21-.23,.07-.09,.13-.17,.2-.27,0,0,.02-.03,.03-.04,.06-.08,.11-.17,.17-.26,.23-.38,.44-.76,.62-1.15,.35-.75,.64-1.6,.78-2.41,.09-.52,.13-1.05,.14-1.57h1.59c.66,.04,1.28,.33,1.74,.79,.07,.06,.13,.13,.19,.2,.49,.57,.74,1.31,.74,2.05,0,8.54,0,17.09,0,25.64v15.09Z"/>
      <path class="cls-3" d="M45.35,10.02v8.9c0-.74-.25-1.48-.74-2.05-.06-.07-.12-.14-.19-.2-.46-.46-1.08-.75-1.74-.79h-1.59c.01-.31,.01-.61,.01-.92v-4.61c0-.14-.01-.28-.04-.42-.04-.2-.12-.37-.24-.51-.05-.04-.1-.09-.15-.13-.18-.14-.4-.24-.62-.31v-2.03c0-.3-.11-.58-.31-.79-.19-.21-.46-.34-.77-.34H6.39c-.31,0-.58,.13-.78,.34-.19,.21-.31,.49-.31,.79v2.03c-.28,.08-.55,.21-.75,.43-.18,.2-.24,.4-.28,.66-.01,.12-.02,.24-.02,.36v4.53c0,.31,0,.61,.01,.92H1.33s-.04-.01-.06-.01-.04,0-.06,0c-.02,0-.04,0-.07-.01-.04,0-.08,0-.12-.03-.05-.01-.09-.02-.13-.04-.05-.02-.09-.04-.13-.06s-.08-.05-.12-.07c-.08-.06-.16-.12-.23-.19s-.13-.14-.18-.22c-.03-.04-.05-.09-.07-.13s-.04-.08-.06-.13c-.02-.04-.03-.09-.05-.13,0-.02,0-.04,0-.07-.01-.02-.01-.04-.02-.06,0-.02,0-.05-.01-.07v-.06s-.01-.02-.01-.03v-.04H0v-.03H0v-.02H0V1.25H0v-.02H0v-.1S0,1.06,.01,1.02v-.12s.01-.07,.01-.11c0-.08,.02-.15,.04-.22,0-.04,.01-.07,.02-.11,.01-.03,.02-.06,.02-.09l.03-.09s.02-.05,.03-.07c.01-.03,.02-.05,.03-.07,.01,0,.01-.02,.02-.03l.02-.02s.01-.01,.01-.02l.02-.02s.01-.01,.02-.01c0,0,.01,0,.01-.02h0s.01,0,.01,0h.03S.34,0,.35,0H45.01s0,.01,.01,.01h.04s.01,.02,.02,.03h.01s.02,.02,.02,.03l.02,.02s.01,.02,.01,.02c.01,0,.01,.02,.02,.03,.01,.02,.02,.04,.03,.07,.01,.02,.02,.04,.03,.07l.03,.09s.02,.06,.02,.09c0,.04,.02,.07,.03,.11,.01,.07,.02,.14,.03,.22,0,.04,.01,.08,.01,.11,0,.04,.01,.08,.01,.12v.2h0v.02h0V10.02Z"/>
      <path class="cls-3" d="M45.33,59.88s.01-.06,.01-.09c0,.03,0,.06-.01,.09Z"/>
      <path class="cls-3" d="M45.16,60.2l.09-.12-.09,.12Z"/>
      <path class="cls-3" d="M45.01,60.33s.1-.08,.15-.13c-.04,.05-.1,.09-.15,.13Z"/>
      <path class="cls-3" d="M44.71,60.49c.06-.02,.11-.04,.17-.07-.05,.03-.11,.05-.17,.07Z"/>
      <path class="cls-3" d="M44.71,60.49s-.03,.02-.04,.02c-.02,0-.05,0-.07,0,.04,0,.07-.02,.11-.03Z"/>
      <path class="cls-3" d="M41.1,10.58v4.38c0,.31,0,.61-.01,.92-.01,.52-.05,1.05-.14,1.57-.14,.81-.43,1.66-.78,2.41-.18,.39-.39,.77-.62,1.15-.06,.09-.11,.18-.17,.26,0,.01-.02,.03-.03,.04-.07,.1-.13,.18-.2,.27-.07,.08-.14,.16-.21,.23-.15,.15-.33,.28-.55,.4-.16,.09-.33,.15-.51,.21-.06,.02-.13,.04-.19,.06-.2,.06-.39,.11-.58,.16-.02,.01-.04,.01-.06,.02-.04,.01-.07,.02-.11,.03-.16,.04-.33,.08-.49,.11-3.05,.65-6.95,.74-10.03,.73h-8.07c-2.97-.01-6.78-.11-9.73-.79-.07-.02-.14-.04-.22-.05-.03-.01-.07-.02-.1-.03-.02,0-.04,0-.05,0-.27-.07-.53-.14-.79-.23-.12-.05-.24-.09-.35-.14h0c-.11-.05-.21-.11-.31-.17,0,0-.01,0-.01-.01-.1-.06-.19-.13-.28-.21-.01,0-.01,0-.01,0-.09-.08-.18-.17-.26-.27-.09-.1-.17-.21-.25-.33-.11-.16-.21-.32-.31-.49-.2-.35-.39-.7-.55-1.07-.32-.71-.59-1.54-.73-2.31-.09-.51-.12-1.02-.13-1.53-.01-.31-.01-.61-.01-.92v-4.53c0-.12,.01-.24,.02-.36,.04-.26,.1-.46,.28-.66,.2-.22,.47-.35,.75-.43,.04-.01,.07-.02,.11-.03,.07-.02,.13-.04,.2-.05,.49-.11,1.01-.15,1.49-.18,.49-.02,.98,0,1.47,0h27.92c.38,0,.76-.01,1.14,0,.65,0,1.34,.03,1.98,.16,.04,.01,.08,.02,.13,.03,.1,.02,.21,.05,.31,.08,.22,.07,.44,.17,.62,.31,.05,.04,.1,.09,.15,.13,.12,.14,.2,.31,.24,.51,.03,.14,.04,.28,.04,.42v.23Z"/>
      <path class="cls-3" d="M40.05,6.95v2.03c-.1-.03-.21-.06-.31-.08v-2.74c.2,.21,.31,.49,.31,.79Z"/>
      <path class="cls-3" d="M39.74,6.16v2.74c-.05-.01-.09-.02-.13-.03-.64-.13-1.33-.16-1.98-.16-.38-.01-.76,0-1.14,0H8.57c-.49,0-.98-.01-1.47,0-.48,.03-1,.07-1.49,.18v-2.74c.2-.21,.47-.34,.78-.34H38.97c.31,0,.58,.13,.77,.34Z"/>
      <path class="cls-3" d="M37.11,22.64c.19-.05,.38-.1,.58-.16-.19,.07-.39,.12-.58,.17-.02,0-.04,0-.06,0,.02,0,.04,0,.06-.02Z"/>
      <path class="cls-3" d="M5.61,6.16v2.74c-.07,0-.13,.03-.2,.05-.04,.01-.07,.02-.11,.03v-2.03c0-.3,.12-.58,.31-.79Z"/>
      <path class="cls-3" d="M1.02,60.57h-.07s-.07-.01-.11-.02c.06,0,.12,.02,.18,.02Z"/>
      <path class="cls-3" d="M.67,60.5c.06,.02,.11,.04,.17,.05-.06-.01-.11-.03-.17-.05Z"/>
      <path class="cls-3" d="M.36,60.34s-.05-.03-.07-.05-.05-.04-.07-.07c.04,.05,.09,.09,.14,.12Z"/>
      <path class="cls-3" d="M.05,59.96s.03,.07,.05,.11c-.02-.03-.04-.07-.05-.11Z"/>
    </g>
    <g>
      <path class="cls-2" d="M40.59,14.53l-.03-.51c-.01-.25-.03-.5-.04-.77l-.03-.33c0-.08-.01-.17-.01-.26-.01-.09-.01-.18-.02-.27,0-.07,0-.14,0-.21,0-.07,0-.14-.01-.21v-.14s0-.09,0-.14c-.01-.1-.02-.19-.02-.29-.01-.09-.02-.19-.03-.29-.02-.09-.03-.19-.05-.28-.01-.07-.02-.14-.04-.2-.01-.07-.03-.13-.05-.19-.01-.06-.03-.11-.05-.16l-.03-.09-.06-.15s-.04-.09-.07-.13c-.02-.04-.04-.08-.06-.11s-.05-.07-.07-.1-.04-.05-.07-.08c-.02-.03-.04-.05-.07-.07-.02-.03-.04-.05-.07-.07,0,0,0-.01-.02-.01"/>
      <path class="cls-2" d="M26.42,23.53h-8.07"/>
      <path class="cls-2" d="M37.69,22.48c-.2,.06-.39,.11-.58,.16-.02,.01-.04,.01-.06,.02"/>
      <path class="cls-2" d="M26.42,8.71h10.07c.38,0,.76-.01,1.14,0,.65,0,1.34,.03,1.98,.16,.04,.01,.08,.02,.13,.03"/>
      <path class="cls-2" d="M39.74,8.9c.1,.02,.21,.05,.31,.08"/>
      <path class="cls-2" d="M40.05,8.98c.22,.07,.44,.17,.62,.31,.05,.04,.1,.09,.15,.13,.12,.14,.2,.31,.24,.51,.03,.14,.04,.28,.04,.42v4.61c0,.31,0,.61-.01,.92"/>
      <path class="cls-2" d="M41.09,15.88c-.01,.52-.05,1.05-.14,1.57-.14,.81-.43,1.66-.78,2.41-.18,.39-.39,.77-.62,1.15-.06,.09-.11,.18-.17,.26,0,.01-.02,.03-.03,.04-.07,.1-.13,.18-.2,.27-.07,.08-.14,.16-.21,.23-.15,.15-.33,.28-.55,.4-.16,.09-.33,.15-.51,.21-.06,.02-.13,.04-.19,.06"/>
      <path class="cls-2" d="M37.05,22.66s.04,0,.06,0c.19-.05,.39-.1,.58-.17"/>
      <path class="cls-2" d="M37.05,22.66s-.07,.02-.11,.03c-.16,.04-.33,.08-.49,.11-3.05,.65-6.95,.74-10.03,.73"/>
      <path class="cls-2" d="M5.3,8.98v-2.03c0-.3,.12-.58,.31-.79,.2-.21,.47-.34,.78-.34h11.96"/>
      <path class="cls-2" d="M18.35,23.53c-2.97-.01-6.78-.11-9.73-.79-.07-.02-.14-.04-.22-.05-.03-.01-.07-.02-.1-.03-.02,0-.04,0-.05,0-.27-.07-.53-.14-.79-.23-.12-.05-.24-.09-.35-.14h0c-.11-.05-.21-.11-.31-.17,0,0-.01,0-.01-.01-.1-.06-.19-.13-.28-.21-.01,0-.01,0-.01,0-.09-.08-.18-.17-.26-.27-.09-.1-.17-.21-.25-.33-.11-.16-.21-.32-.31-.49-.2-.35-.39-.7-.55-1.07-.32-.71-.59-1.54-.73-2.31-.09-.51-.12-1.02-.13-1.53"/>
      <path class="cls-2" d="M4.26,15.88c-.01-.31-.01-.61-.01-.92v-4.53c0-.12,.01-.24,.02-.36,.04-.26,.1-.46,.28-.66,.2-.22,.47-.35,.75-.43"/>
      <path class="cls-2" d="M5.3,8.98s.07-.02,.11-.03c.07-.02,.13-.04,.2-.05"/>
      <path class="cls-2" d="M5.61,8.9c.49-.11,1.01-.15,1.49-.18,.49-.02,.98,0,1.47,0h9.78"/>
      <path class="cls-2" d="M.67,60.5c.06,.02,.11,.04,.17,.05,.04,0,.07,.02,.11,.02h.07s.09,0,.14,0c.08,0,.16,.01,.24,.01,.12,0,.25,.02,.38,.02,1.23,.07,2.47,.14,3.7,.2,1.53,.08,3.06,.15,4.59,.2,.09,0,.19,0,.29,0,.24,.01,.49,.02,.74,.03l2.13,.06c.37,0,.75,.02,1.12,.03h.25c.18,.01,.37,.01,.55,.01,.36,0,.72,.02,1.08,.02,.71,.02,1.42,.02,2.12,.03"/>
      <path class="cls-2" d="M.22,60.22s.05,.05,.07,.07,.04,.04,.07,.05"/>
      <path class="cls-2" d="M.05,59.96s.03,.08,.05,.11"/>
      <path class="cls-2" d="M0,14.56V59.69H0v.06c0,.05,.01,.1,.03,.14,0,.01,0,.03,.01,.04,0,.01,0,.02,0,.03"/>
      <path class="cls-2" d="M.1,60.07s-.04-.07-.05-.11"/>
      <path class="cls-2" d="M.1,60.07s0,0,0,.02c.03,.05,.07,.09,.11,.13"/>
      <path class="cls-2" d="M.36,60.34c-.05-.03-.1-.07-.14-.12"/>
      <path class="cls-2" d="M.36,60.34s.05,.04,.08,.06c.04,.02,.07,.04,.11,.06,.02,0,.03,0,.05,.02s.05,.02,.07,.02"/>
      <path class="cls-2" d="M1.02,60.57c-.06,0-.12-.01-.18-.02s-.11-.03-.17-.05"/>
      <path class="cls-2" d="M4.26,15.88H1.33s-.04-.01-.06-.01-.04,0-.06,0c-.02,0-.04,0-.07-.01-.04,0-.08,0-.12-.03-.05-.01-.09-.02-.13-.04-.05-.02-.09-.04-.13-.06s-.08-.05-.12-.07c-.08-.06-.16-.12-.23-.19s-.13-.14-.18-.22c-.03-.04-.05-.09-.07-.13s-.04-.08-.06-.13c-.02-.04-.03-.09-.05-.13,0-.02,0-.04,0-.07-.01-.02-.01-.04-.02-.06,0-.02,0-.05-.01-.07v-.06s-.01-.02-.01-.03v-.04H0v-.03H0v-.02H0V1.25H0v-.02H0v-.1S0,1.06,.01,1.02v-.12s.01-.07,.01-.11c0-.08,.02-.15,.04-.22,0-.04,.01-.07,.02-.11,.01-.03,.02-.06,.02-.09l.03-.09s.02-.05,.03-.07c.01-.03,.02-.05,.03-.07,.01,0,.01-.02,.02-.03l.02-.02s.01-.01,.01-.02l.02-.02s.01-.01,.02-.01c0,0,.01,0,.01-.02h0s.01,0,.01,0h.03S.34,0,.35,0H18.35"/>
      <line class="cls-2" x1="5.61" y1="8.9" x2="5.61" y2="6.16"/>
      <path class="cls-2" d="M5.68,9.47s-.01,.01-.02,.01c-.02,.02-.05,.04-.07,.07-.03,.02-.05,.04-.07,.07-.03,.03-.05,.05-.07,.08s-.04,.07-.06,.1c-.03,.03-.05,.07-.07,.11s-.05,.09-.07,.13l-.06,.15-.03,.09s-.03,.1-.05,.16-.03,.12-.05,.19c-.01,.06-.03,.13-.04,.2-.02,.09-.03,.19-.04,.28-.01,.1-.02,.2-.03,.29-.01,.1-.02,.19-.02,.29-.01,.05-.01,.09-.01,.14-.01,.05-.01,.1-.01,.14,0,.07-.01,.14-.01,.21s-.01,.14-.01,.21c-.01,.09-.01,.18-.02,.27,0,.09-.01,.18-.01,.26,0,.11-.02,.22-.02,.33-.02,.27-.04,.52-.05,.77-.01,.17-.02,.34-.02,.51"/>
      <path class="cls-2" d="M40.05,8.98v-2.03c0-.3-.11-.58-.31-.79"/>
      <path class="cls-2" d="M26.42,5.82h12.55c.31,0,.58,.13,.77,.34"/>
      <path class="cls-2" d="M26.42,0h18.59"/>
      <path class="cls-2" d="M44.88,60.42s-.11,.05-.17,.07c0,.01-.03,.02-.04,.02-.02,0-.05,0-.07,0-.02,.01-.04,.02-.05,.02-.15,.03-.31,.04-.47,.05-.14,0-.27,0-.4,.02-1.29,.07-2.58,.14-3.88,.21-.79,.04-1.58,.08-2.37,.11-.79,.04-1.58,.06-2.37,.09-.08,0-.17,.01-.25,.01-.69,.02-1.39,.04-2.09,.06-.59,.02-1.18,.04-1.78,.05h-.15c-.1,0-.2,.01-.3,.01-.2,0-.4,0-.6,0-.39,.01-.78,.01-1.17,.02-.77,.01-1.53,.02-2.3,.03"/>
      <path class="cls-2" d="M45.25,60.08l-.09,.12c-.05,.05-.1,.09-.15,.13"/>
      <path class="cls-2" d="M45.34,59.79s0,.06-.01,.09"/>
      <path class="cls-2" d="M45.35,18.92V1.25h0v-.02h0v-.21s-.01-.08-.01-.12c0-.03-.01-.07-.01-.11-.01-.08-.02-.15-.03-.22,0-.04-.02-.07-.03-.11,0-.03-.01-.06-.02-.09l-.03-.09s-.02-.05-.03-.07c0-.03-.02-.05-.03-.07-.01,0-.01-.02-.02-.03,0,0-.01-.01-.01-.02l-.02-.02s0-.01-.02-.02h-.01s-.01-.02-.02-.03h-.03s0,0,0,0-.01-.01-.01-.01"/>
      <path class="cls-2" d="M45.35,18.92c0,8.54,0,17.09,0,25.64v13.74"/>
      <path class="cls-2" d="M45.35,58.3v1.41h0"/>
      <path class="cls-2" d="M45.35,59.72s0,.05-.01,.07"/>
      <path class="cls-2" d="M45.33,59.88s.01-.06,.01-.09"/>
      <path class="cls-2" d="M45.33,59.88s-.02,.08-.04,.12c-.01,.01-.01,.03-.02,.04s-.02,.03-.02,.04"/>
      <path class="cls-2" d="M45.01,60.33s.11-.08,.15-.13l.09-.12"/>
      <path class="cls-2" d="M45.01,60.33s-.09,.06-.13,.09"/>
      <path class="cls-2" d="M44.6,60.52s.07-.02,.11-.03c.06-.02,.11-.04,.17-.07"/>
      <path class="cls-2" d="M45.35,18.92c0-.74-.25-1.48-.74-2.05-.06-.07-.12-.14-.19-.2-.46-.46-1.08-.75-1.74-.79h-1.58"/>
      <line class="cls-2" x1="39.74" y1="8.9" x2="39.74" y2="6.16"/>
      <path class="cls-2" d="M45.35,58.3c0,.39,.16,.75,.42,1.01s.61,.41,1,.41h5.1c3.92,0,7.09-3.17,7.09-7.08V7.09c0-1.96-.79-3.73-2.08-5.01C55.6,.79,53.83,0,51.87,0h-6.86"/>
      <line class="cls-2" x1="45.35" y1="59.72" x2="46.77" y2="59.72"/>
      <line class="cls-2" x1="26.42" y1="61.21" x2="18.35" y2="61.2"/>
      <line class="cls-2" x1="26.42" y1="0" x2="18.35" y2="0"/>
      <line class="cls-2" x1="26.42" y1="5.82" x2="18.35" y2="5.82"/>
      <line class="cls-2" x1="26.42" y1="8.71" x2="18.35" y2="8.71"/>
    </g>
  </g>
  <text class="cls-1" transform="translate(16.25 42.11)"><tspan x="0" y="0">80</tspan></text>
</svg>