<?xml version="1.0" encoding="UTF-8"?>
<svg id="_03_LINEA_FINA" data-name="03_LINEA FINA" xmlns="http://www.w3.org/2000/svg" viewBox="0 0 70.3 61.23">
  <defs>
    <style>
      .cls-1 {
        font-family: Inter18pt-Medium, 'Inter 18pt';
        font-size: 10px;
      }

      .cls-2 {
        fill: none;
        stroke: #404041;
        stroke-linecap: round;
        stroke-linejoin: round;
        stroke-width: .35px;
      }

      .cls-3 {
        fill: #f1f1f2;
      }
    </style>
  </defs>
  <g>
    <g>
      <path class="cls-3" d="M70.3,7.09V52.64c0,3.91-3.18,7.08-7.09,7.08h-5.1c-.79,0-1.42-.63-1.42-1.42V1.25h0v-.02h0v-.1s0-.07,0-.11v-.12s-.01-.07-.01-.11c-.01-.08-.02-.15-.04-.22,0-.04,0-.07-.02-.11,0-.03-.02-.06-.02-.09l-.03-.09s-.02-.05-.03-.07c-.01-.03-.02-.05-.03-.07-.01,0-.01-.02-.02-.03l-.02-.02s0-.01,0-.02l-.02-.02s-.01-.01-.02-.01c0,0-.01,0-.01-.02h-.01s-.01,0-.01,0h-.03c2.29-.01,4.57-.01,6.86-.01,3.91,0,7.09,3.18,7.09,7.09Z"/>
      <path class="cls-3" d="M58.11,59.72h-1.42v-1.42c0,.79,.63,1.42,1.42,1.42Z"/>
      <path class="cls-3" d="M56.69,59.46v.26c0,.08-.02,.16-.05,.25-.06,.15-.16,.26-.28,.36-.25,.18-.49,.23-.79,.25-.04,0-.09,0-.13,.01h-.12c-.16,0-.33,.02-.49,.03-.31,.02-.63,.03-.95,.05-1.26,.07-2.53,.14-3.79,.2-1.12,.05-2.24,.1-3.36,.14-.09,0-.18,0-.28,0h-.14c-.55,.02-1.1,.04-1.66,.05-.79,.03-1.59,.05-2.39,.07-.19,0-.38,.01-.58,.01-.34,0-.69,0-1.04,.02-2.96,.05-5.92,.06-8.88,.06h-6.25c-3.06,0-6.12-.01-9.19-.05-.35,0-.69-.02-1.04-.02-.18,0-.36,0-.53,0-.1-.01-.2-.01-.3-.01-.73-.02-1.45-.04-2.18-.06-.63-.02-1.26-.03-1.89-.06h-.14c-1.03-.04-2.06-.08-3.09-.13-1.28-.05-2.56-.12-3.83-.19-.61-.03-1.21-.07-1.81-.1-.08,0-.15,0-.23,0-.23-.02-.46-.02-.69-.12-.26-.11-.51-.32-.58-.62-.01-.05-.01-.1-.01-.15V14.59s.01,.04,.01,.06,0,.05,0,.07c.01,.02,.01,.04,.02,.06,0,.03,.01,.05,.01,.07,.02,.04,.03,.09,.05,.13,0,.05,.03,.09,.06,.13,.02,.04,.04,.09,.07,.13,.05,.08,.11,.15,.18,.22s.15,.13,.23,.19c.04,.02,.08,.05,.12,.07l.12,.06c.05,.02,.09,.03,.13,.04,.05,.02,.09,.03,.13,.03,.02,.01,.05,.01,.07,.01,.02,0,.04,0,.06,0s.04,.01,.06,.01h2.93c0,.31,.02,.61,.05,.91,.04,.42,.11,.82,.21,1.23,.27,1.05,.73,2.12,1.32,3.04,.04,.07,.09,.15,.14,.22,.01,0,.01,.02,.02,.03,.22,.31,.45,.59,.78,.79,.37,.24,.77,.36,1.19,.47,.1,.03,.21,.06,.31,.09,.04,0,.07,.01,.1,.02l.39,.09c.29,.07,.58,.12,.87,.17,.65,.12,1.31,.21,1.98,.28,2.13,.24,4.26,.3,6.4,.31h.5c1.97,0,3.94,0,5.91,0h7.83c1.97,0,3.94,0,5.92,0h.5c2.13-.01,4.26-.07,6.39-.31,.67-.07,1.33-.16,1.98-.28,.29-.05,.58-.1,.87-.17l.39-.09s.07-.02,.1-.02l.54-.15c.43-.13,.83-.28,1.19-.57,.22-.18,.39-.4,.55-.64,.01,0,.01-.01,.02-.02,.05-.07,.1-.15,.14-.22,.59-.92,1.05-1.99,1.31-3.05,.11-.4,.18-.8,.22-1.22,.03-.3,.04-.6,.05-.91h1.59c.76,.05,1.44,.42,1.93,.99s.74,1.31,.74,2.05V59.46Z"/>
      <path class="cls-3" d="M56.69,10.02v8.9c0-.74-.25-1.48-.74-2.05s-1.17-.94-1.93-.99h-1.59c0-.3,0-.61,0-.92v-4.43c0-.09,0-.18,0-.27-.01-.18-.03-.34-.09-.51-.15-.41-.49-.61-.87-.74-.03-.01-.05-.02-.08-.03v-2.03c0-.3-.12-.58-.31-.79-.2-.21-.47-.34-.78-.34H6.39c-.32,0-.59,.13-.78,.34-.2,.21-.31,.49-.31,.79v2.03s-.05,.02-.08,.03c-.38,.13-.73,.33-.88,.74-.06,.17-.07,.33-.08,.51-.01,.09-.01,.18-.01,.27-.01,1.48,0,2.95,0,4.43,0,.31,0,.62,.01,.92H1.33s-.04-.01-.06-.01-.04,0-.06,0c-.02,0-.05,0-.07-.01-.04,0-.08,0-.13-.03-.04-.01-.08-.02-.13-.04l-.12-.06s-.08-.05-.12-.07c-.08-.06-.16-.12-.23-.19s-.13-.14-.18-.22c-.03-.04-.05-.09-.07-.13-.03-.04-.05-.08-.06-.13-.02-.04-.03-.09-.05-.13,0-.02-.01-.04-.01-.07,0-.02,0-.04-.02-.06,0-.02,0-.05,0-.07s0-.04-.01-.06v-.07H0v-.03H0v-.02H0V1.25H0v-.02H0v-.21s.01-.08,.01-.12c0-.03,0-.07,0-.11,.01-.08,.02-.15,.04-.22,0-.04,.01-.07,.02-.11,.01-.03,.01-.06,.02-.09l.03-.09s.02-.05,.03-.07c.01-.03,.02-.05,.03-.07,.01,0,.01-.02,.02-.03,0,0,.01-.01,.01-.02,.01-.01,.02-.01,.02-.02l.02-.02h0s.02-.02,.02-.03h.02s0,0,.01,0h.02s.01-.01,.01-.01H56.35s0,.01,0,.01h.02s.01,0,.01,0h.01s.01,.01,.01,.02c.01,0,.02,.01,.02,.01l.02,.02s0,0,0,.02l.02,.02s.01,.02,.02,.03c.01,.02,.02,.04,.03,.07,0,.02,.02,.04,.03,.07l.03,.09s.01,.06,.02,.09c.01,.04,.02,.07,.02,.11,.02,.07,.03,.14,.04,.22,0,.04,0,.08,.01,.11v.12s0,.08,0,.11v.09h0v.02h0V10.02Z"/>
      <path class="cls-3" d="M52.44,10.53v4.43c0,.31,0,.62,0,.92-.01,.31-.02,.61-.05,.91-.04,.42-.11,.82-.22,1.22-.26,1.06-.72,2.13-1.31,3.05-.04,.07-.09,.15-.14,.22,0,0,0,.02-.02,.02-.16,.24-.33,.46-.55,.64-.36,.29-.76,.44-1.19,.57l-.54,.15s-.07,.01-.1,.02l-.39,.09c-.29,.07-.58,.12-.87,.17-.65,.12-1.31,.21-1.98,.28-2.13,.24-4.26,.3-6.39,.31h-.5c-1.98,0-3.95,0-5.92,0h-7.83c-1.97,0-3.94,0-5.91,0h-.5c-2.14-.01-4.27-.07-6.4-.31-.67-.07-1.33-.16-1.98-.28-.29-.05-.58-.1-.87-.17l-.39-.09s-.06-.02-.1-.02c-.1-.03-.21-.06-.31-.09-.42-.11-.82-.23-1.19-.47-.33-.2-.56-.48-.78-.79-.01,0-.01-.02-.02-.03-.05-.07-.1-.15-.14-.22-.59-.92-1.05-1.99-1.32-3.04-.1-.41-.17-.81-.21-1.23-.03-.3-.04-.6-.05-.91-.01-.3-.01-.61-.01-.92,0-1.48-.01-2.95,0-4.43,0-.09,0-.18,.01-.27,0-.18,.02-.34,.08-.51,.15-.41,.5-.61,.88-.74,.03-.01,.05-.02,.08-.03,.1-.03,.2-.06,.31-.08h0c.19-.05,.39-.08,.59-.11,.48-.06,.95-.08,1.43-.08,.51-.01,1.02,0,1.54,0H47.52c.51,0,1.03-.01,1.54,0,.48,0,.95,.02,1.43,.08,.2,.03,.4,.06,.59,.1h0c.11,.03,.21,.06,.31,.09,.03,0,.05,.02,.08,.03,.38,.13,.72,.33,.87,.74,.06,.17,.08,.33,.09,.51,0,.09,0,.18,0,.27Z"/>
      <path class="cls-3" d="M51.39,6.95v2.03c-.1-.03-.2-.06-.31-.08h0v-2.74c.19,.21,.31,.49,.31,.79Z"/>
      <path class="cls-3" d="M51.08,6.16v2.73c-.19-.04-.39-.07-.59-.1-.48-.06-.95-.08-1.43-.08-.51-.01-1.03,0-1.54,0H9.17c-.52,0-1.03-.01-1.54,0-.48,0-.95,.02-1.43,.08-.2,.03-.4,.06-.59,.1v-2.73c.19-.21,.46-.34,.78-.34H50.3c.31,0,.58,.13,.78,.34Z"/>
      <path class="cls-3" d="M5.61,6.16v2.73h0c-.11,.03-.21,.06-.31,.09v-2.03c0-.3,.11-.58,.31-.79Z"/>
    </g>
    <g>
      <path class="cls-2" d="M52.43,15.88h1.59c.76,.05,1.44,.42,1.93,.99s.74,1.31,.74,2.05"/>
      <path class="cls-2" d="M56.69,58.3c0,.79,.63,1.42,1.42,1.42h5.1c3.91,0,7.09-3.17,7.09-7.08V7.09C70.3,3.18,67.12,0,63.21,0h-6.86"/>
      <path class="cls-2" d="M31.18,61.23h-5.67c-3.06,0-6.12-.01-9.19-.05-.35,0-.69-.02-1.04-.02-.18,0-.36,0-.53,0-.1-.01-.2-.01-.3-.01-.73-.02-1.45-.04-2.18-.06-.63-.02-1.26-.03-1.89-.06h-.14c-1.03-.04-2.06-.08-3.09-.13-1.28-.05-2.56-.12-3.83-.19-.61-.03-1.21-.07-1.81-.1-.08,0-.15,0-.23,0-.23-.02-.46-.02-.69-.12-.26-.11-.51-.32-.58-.62-.01-.05-.01-.1-.01-.15V14.59"/>
      <path class="cls-2" d="M31.18,61.23h.58c2.96,0,5.92-.01,8.88-.06,.35-.01,.7-.01,1.04-.02,.2,0,.39-.01,.58-.01,.8-.02,1.6-.04,2.39-.07,.56-.01,1.11-.03,1.66-.05h.14c.1,0,.19,0,.28,0,1.12-.04,2.24-.09,3.36-.14,1.26-.06,2.53-.13,3.79-.2,.32-.02,.64-.03,.95-.05,.16,0,.33-.02,.49-.03h.12s.09-.01,.13-.01c.3-.02,.54-.07,.79-.25,.12-.1,.22-.21,.28-.36,.03-.09,.05-.17,.05-.25V1.25h0v-.02h0v-.1s0-.07,0-.11v-.12s-.01-.07-.01-.11c-.01-.08-.02-.15-.04-.22,0-.04,0-.07-.02-.11,0-.03-.02-.06-.02-.09l-.03-.09s-.02-.05-.03-.07c-.01-.03-.02-.05-.03-.07-.01,0-.01-.02-.02-.03l-.02-.02s0-.01,0-.02l-.02-.02s-.01-.01-.02-.01c0,0-.01,0-.01-.02h-.01s-.01,0-.01,0h-.03s0-.01-.01-.01H.33s-.01,.01-.01,.01h-.02s-.01,0-.01,0c0,.01,0,.01-.02,.02h0s-.01,.02-.02,.03c0,0-.01,0-.02,.02,0,0-.01,.02-.01,.02,0,0,0,.02-.02,.03,0,.02-.02,.04-.03,.07-.01,.02-.02,.04-.03,.07l-.03,.09s-.01,.06-.02,.09c-.01,.04-.02,.07-.02,.11-.02,.07-.03,.14-.04,.22,0,.04,0,.08,0,.11C.01,.94,.01,.98,0,1.02v.2H0v.02H0v3.35"/>
      <path class="cls-2" d="M5.61,8.9c-.11,.02-.21,.05-.31,.08-.03,0-.05,.02-.08,.03-.38,.13-.73,.33-.88,.74-.06,.17-.07,.33-.08,.51-.01,.09-.01,.18-.01,.27-.01,1.48,0,2.95,0,4.43,0,.31,0,.62,.01,.92,0,.31,.02,.61,.05,.91,.04,.42,.11,.82,.21,1.23,.27,1.05,.73,2.12,1.32,3.04,.04,.07,.09,.15,.14,.22,.01,0,.01,.02,.02,.03,.22,.31,.45,.59,.78,.79,.37,.24,.77,.36,1.19,.47,.1,.03,.21,.06,.31,.09,.04,0,.07,.01,.1,.02l.39,.09c.29,.07,.58,.12,.87,.17,.65,.12,1.31,.21,1.98,.28,2.13,.24,4.26,.3,6.4,.31h.5c1.97,0,3.94,0,5.91,0h7.83c1.97,0,3.94,0,5.92,0h.5c2.13-.01,4.26-.07,6.39-.31,.67-.07,1.33-.16,1.98-.28,.29-.05,.58-.1,.87-.17l.39-.09s.07-.02,.1-.02l.54-.15c.43-.13,.83-.28,1.19-.57,.22-.18,.39-.4,.55-.64,.01,0,.01-.01,.02-.02,.05-.07,.1-.15,.14-.22,.59-.92,1.05-1.99,1.31-3.05,.11-.4,.18-.8,.22-1.22,.03-.3,.04-.6,.05-.91,0-.3,0-.61,0-.92v-4.43c0-.09,0-.18,0-.27-.01-.18-.03-.34-.09-.51-.15-.41-.49-.61-.87-.74-.03-.01-.05-.02-.08-.03-.1-.03-.2-.06-.31-.08"/>
      <path class="cls-2" d="M51.08,8.89c-.19-.04-.39-.07-.59-.1-.48-.06-.95-.08-1.43-.08-.51-.01-1.03,0-1.54,0H9.17c-.52,0-1.03-.01-1.54,0-.48,0-.95,.02-1.43,.08-.2,.03-.4,.06-.59,.1"/>
      <path class="cls-2" d="M0,4.59V14.46H0v.02H0v.03H0v.08s.01,.04,.01,.06,0,.05,0,.07c.01,.02,.01,.04,.02,.06,0,.03,.01,.05,.01,.07,.02,.04,.03,.09,.05,.13,0,.05,.03,.09,.06,.13,.02,.04,.04,.09,.07,.13,.05,.08,.11,.15,.18,.22s.15,.13,.23,.19c.04,.02,.08,.05,.12,.07l.12,.06c.05,.02,.09,.03,.13,.04,.05,.02,.09,.03,.13,.03,.02,.01,.05,.01,.07,.01,.02,0,.04,0,.06,0s.04,.01,.06,.01h2.92"/>
      <polyline class="cls-2" points="5.61 6.16 5.61 8.89 5.61 8.9"/>
      <polyline class="cls-2" points="51.08 6.16 51.08 8.89 51.08 8.9"/>
      <path class="cls-2" d="M5.3,8.98v-2.03c0-.3,.11-.58,.31-.79,.19-.21,.46-.34,.78-.34H50.3c.31,0,.58,.13,.78,.34,.19,.21,.31,.49,.31,.79v2.03"/>
      <path class="cls-2" d="M51.01,9.47s0,.01,.02,.01c.02,.02,.05,.04,.07,.07,.03,.02,.05,.04,.07,.07,.03,.03,.05,.05,.07,.08s.04,.07,.06,.1c.03,.03,.05,.07,.07,.11s.05,.09,.07,.13l.06,.15,.03,.09s.03,.1,.05,.16,.03,.12,.05,.19c.01,.06,.03,.13,.04,.2,.02,.09,.03,.19,.04,.28,.01,.1,.02,.2,.03,.29,.01,.1,.02,.19,.02,.29,0,.05,0,.09,0,.14,.01,.05,.01,.1,.01,.14,0,.07,0,.14,0,.21s.01,.14,.01,.21c.01,.09,.01,.18,.02,.27,0,.09,.01,.18,.01,.26,.01,.11,.02,.22,.02,.33,.02,.27,.04,.52,.05,.77,.01,.17,.02,.34,.02,.51"/>
      <path class="cls-2" d="M5.68,9.47s-.01,.01-.02,.01c-.03,.02-.05,.04-.07,.07-.03,.02-.05,.04-.07,.07-.03,.03-.05,.05-.07,.08s-.05,.07-.07,.1-.04,.07-.06,.11c-.03,.04-.05,.09-.07,.13l-.06,.15-.03,.09s-.04,.1-.05,.16c-.02,.06-.03,.12-.05,.19-.01,.06-.03,.13-.04,.2-.02,.09-.03,.19-.04,.28-.02,.1-.03,.2-.03,.29-.01,.1-.02,.19-.03,.29v.14c-.01,.05-.01,.1-.01,.14-.01,.07-.01,.14-.01,.21-.01,.07-.01,.14-.01,.21-.01,.09-.01,.18-.02,.27,0,.09-.01,.18-.01,.26,0,.11-.02,.22-.02,.33-.02,.27-.04,.52-.05,.77,0,.17-.02,.34-.02,.51"/>
      <line class="cls-2" x1="58.11" y1="59.72" x2="56.69" y2="59.72"/>
    </g>
  </g>
  <text class="cls-1" transform="translate(18.96 42.11)"><tspan x="0" y="0">100</tspan></text>
</svg>