<?xml version="1.0" encoding="UTF-8"?>
<svg id="_03_LINEA_FINA" data-name="03_LINEA FINA" xmlns="http://www.w3.org/2000/svg" viewBox="0 0 62.36 61.23">
  <defs>
    <style>
      .cls-1 {
        font-family: Inter18pt-Medium, 'Inter 18pt';
        font-size: 10px;
      }

      .cls-2 {
        fill: none;
        stroke: #404041;
        stroke-linecap: round;
        stroke-linejoin: round;
        stroke-width: .35px;
      }

      .cls-3 {
        fill: #f1f1f2;
      }
    </style>
  </defs>
  <g>
    <g>
      <path class="cls-3" d="M62.36,59.72v.02s-.01,.11-.03,.15c0,0,0,0-.01,.02-.01,.04-.02,.08-.04,.12-.01,0-.01,.02-.01,.02-.02,.03-.04,.06-.06,.08,0,.01,0,.03-.02,.04l-.05,.05s-.09,.09-.14,.12c-.04,.03-.08,.06-.12,.08-.02,.01-.05,.02-.07,.04-.07,.03-.15,.05-.22,.07-.06,.02-.12,.02-.18,.03-.02,.01-.05,.01-.07,.01-.05,0-.1,0-.14,0-.08,0-.16,.01-.24,.01-.12,0-.25,0-.38,.02-1.23,.07-2.47,.14-3.7,.2-1.53,.08-3.06,.14-4.59,.2-.09,0-.19,0-.29,0-.25,.01-.49,.02-.74,.03-.71,.02-1.42,.03-2.13,.05-.37,.01-.75,.03-1.12,.03-.08,.01-.17,.01-.25,.01-.19,0-.37,0-.55,0-.36,.01-.72,.01-1.08,.02l-2.13,.03H18.35c-.7-.01-1.41-.02-2.12-.03-.36,0-.72,0-1.08-.02-.18,0-.37,0-.55,0-.08,0-.17,0-.25-.01-.38,0-.75-.02-1.12-.03-.71-.02-1.42-.03-2.14-.05-.24-.01-.49-.02-.73-.03-.1,0-.2,0-.3,0-1.53-.06-3.05-.12-4.58-.2-1.24-.06-2.47-.13-3.7-.2-.13-.01-.26-.01-.39-.02-.08,0-.16-.01-.24-.01h-.02s-.07,0-.11,0c-.02,0-.05,0-.07-.01-.06,0-.12,0-.18-.03-.06-.01-.11-.03-.17-.05-.02,0-.03-.02-.05-.02-.04-.02-.07-.04-.11-.06-.03-.02-.05-.04-.08-.06-.05-.03-.1-.07-.14-.12-.03-.03-.05-.06-.07-.09-.03-.02-.05-.05-.06-.08,0-.01-.01-.01-.01-.02-.04-.08-.07-.17-.07-.27t-.01-.02v-.15H0v-22.52H0V14.58s.01,.05,.01,.07,.01,.04,.01,.07c.01,.02,.01,.04,.02,.06,0,.02,.01,.05,.01,.07,.02,.04,.03,.09,.05,.13,.01,.04,.03,.09,.06,.13,.02,.04,.04,.08,.07,.12,.05,.08,.11,.16,.18,.23s.15,.13,.23,.18c.03,.03,.08,.05,.12,.08l.12,.06c.05,0,.09,.03,.13,.04,.05,0,.09,.02,.13,.03,.02,.01,.05,.01,.07,.01s.04,0,.06,0h2.99c.01,.51,.04,1.02,.13,1.53,.14,.78,.41,1.6,.73,2.32,.16,.37,.35,.72,.55,1.07,.1,.16,.2,.33,.31,.49,.04,.06,.08,.12,.12,.17,.04,.06,.08,.11,.13,.16,.08,.1,.17,.19,.26,.27h.01c.18,.17,.38,.29,.6,.39h.01c.11,.06,.22,.1,.34,.14t.02,0c.25,.09,.51,.16,.77,.22,.02,0,.04,0,.06,.02,.03,0,.07,0,.1,.02,.07,.02,.15,.04,.22,.06,2.95,.68,6.75,.78,9.73,.79h25.65c2.98-.01,6.79-.11,9.74-.79,.07-.02,.14-.04,.22-.06,.03-.01,.07-.01,.1-.02,.02-.01,.04-.01,.05-.02,.27-.06,.53-.13,.78-.22h0c.13-.05,.24-.09,.36-.15,.22-.1,.42-.22,.6-.38h0c.1-.1,.19-.19,.27-.29,0,0,0,0,0-.02,.08-.09,.16-.2,.22-.3,.11-.16,.22-.33,.32-.49,.2-.35,.38-.7,.55-1.07,.32-.72,.59-1.54,.73-2.32,.09-.51,.12-1.02,.13-1.53h2.99s.04,0,.06,0,.04,0,.07-.01l.12-.03c.05-.01,.09-.03,.13-.04,.05-.02,.09-.04,.13-.06,.04-.03,.08-.05,.12-.08,.08-.05,.16-.11,.23-.18s.13-.15,.18-.23c.03-.04,.05-.08,.07-.12s.04-.09,.06-.13,.03-.09,.05-.13c0-.02,.01-.05,.01-.07,.01-.02,.01-.04,.02-.06,0-.03,0-.05,.01-.07v-.07s.01-.02,.01-.03v22.51h0v22.52h0v.14Z"/>
      <path class="cls-3" d="M62.36,14.52v.03s0,.02-.01,.03v.07s-.01,.04-.01,.07c-.01,.02-.01,.04-.02,.06,0,.02-.01,.05-.01,.07-.02,.04-.03,.09-.05,.13s-.04,.09-.06,.13-.04,.08-.07,.12c-.05,.08-.11,.16-.18,.23s-.15,.13-.23,.18c-.04,.03-.08,.05-.12,.08-.04,.02-.08,.04-.13,.06-.04,0-.08,.03-.13,.04l-.12,.03s-.05,.01-.07,.01-.04,0-.06,0h-2.99c.01-.3,.01-.6,.01-.91v-4.53c0-.12-.01-.24-.02-.37-.01-.06-.02-.12-.04-.18-.04-.17-.11-.33-.24-.47-.06-.06-.12-.12-.19-.17-.13-.09-.28-.17-.44-.22-.04,0-.08-.03-.12-.04v-2.03c0-.3-.12-.59-.31-.8-.2-.21-.47-.34-.78-.34H6.39c-.31,0-.59,.13-.78,.34s-.31,.5-.31,.8v2.03s-.08,.03-.12,.04c-.13,.04-.26,.1-.37,.17-.02,.02-.05,.03-.07,.05-.07,.05-.13,.11-.19,.17-.13,.14-.21,.3-.25,.47l-.03,.18h0c-.01,.13-.02,.25-.02,.37v4.53c0,.31,0,.61,.01,.91H1.27s-.04,0-.06,0-.05,0-.07-.01c-.04,0-.08-.02-.13-.03-.04-.01-.08-.03-.13-.04l-.12-.06s-.09-.05-.12-.08c-.08-.05-.16-.11-.23-.18s-.13-.15-.18-.23c-.03-.04-.05-.08-.07-.12-.03-.04-.05-.09-.06-.13-.02-.04-.03-.09-.05-.13,0-.02-.01-.05-.01-.07,0-.02,0-.04-.02-.06,0-.03-.01-.05-.01-.07s0-.04-.01-.07v-.08H0v-.03H0V1.24H0v-.22s.01-.08,.01-.12,.01-.08,.01-.11c.01-.08,.02-.16,.04-.23,0-.03,.01-.07,.02-.1s.01-.06,.02-.1c.01-.03,.02-.05,.03-.08s.02-.05,.03-.08l.03-.06s.01-.02,.02-.03c0-.01,.01-.01,.01-.02l.02-.02s.01-.02,.02-.02c0-.01,.01-.01,.01-.02,.01,0,.01-.01,.02-.01h.01s0,0,0,0h.02S.33,0,.34,0H62.05s0,.01,0,.02h.02s.02,.02,.02,.03c.01,0,.01,0,.02,.02,0,0,.01,0,.01,.02l.02,.02s.01,.02,.02,.03l.03,.06s.02,.05,.03,.08,.02,.05,.03,.08c0,.04,.01,.07,.02,.1s0,.07,.02,.1c.02,.07,.03,.15,.03,.23,.01,.03,.01,.07,.02,.11v.12s.01,.07,.01,.11v.09h0V14.46h0v.03h0v.03Z"/>
      <path class="cls-3" d="M62.21,60.13s.04-.05,.06-.08c-.02,.03-.03,.05-.06,.08Z"/>
      <path class="cls-3" d="M62.14,60.22s-.05,.05-.07,.07-.04,.04-.07,.05c.05-.03,.1-.07,.14-.12Z"/>
      <path class="cls-3" d="M61.41,60.56c.06,0,.12,0,.18-.03-.06,.02-.12,.03-.18,.03Z"/>
      <path class="cls-3" d="M58.11,10.62v4.34c0,.31,0,.61-.01,.91-.01,.51-.04,1.02-.13,1.53-.14,.78-.41,1.6-.73,2.32-.17,.37-.35,.72-.55,1.07-.1,.16-.21,.33-.32,.49-.07,.1-.14,.21-.22,.3,0,.01,0,.01,0,.02-.08,.1-.17,.19-.27,.28h0c-.18,.16-.38,.29-.6,.39-.12,.06-.23,.1-.36,.14-.26,.09-.52,.16-.79,.23-.01,0-.03,0-.05,.02-.03,0-.07,0-.1,.02-.08,.02-.15,.04-.22,.06-2.95,.68-6.76,.78-9.74,.79H18.35c-2.98-.01-6.78-.11-9.73-.79-.07-.02-.15-.04-.22-.06-.03-.01-.07-.01-.1-.02-.02-.01-.04-.01-.06-.02-.25-.07-.52-.14-.77-.22t-.02,0c-.12-.04-.23-.08-.34-.13h-.01c-.22-.11-.42-.24-.6-.39h-.01c-.09-.09-.18-.18-.26-.28-.05-.05-.09-.1-.13-.16-.04-.05-.08-.11-.12-.17-.11-.16-.21-.33-.31-.49-.2-.35-.39-.7-.55-1.07-.32-.72-.59-1.54-.73-2.32-.09-.51-.12-1.02-.13-1.53-.01-.3-.01-.6-.01-.91v-4.53c0-.12,.01-.24,.02-.36h0c.01-.07,.02-.13,.03-.19,.04-.17,.12-.33,.25-.47,.06-.06,.12-.12,.19-.17,.02-.02,.05-.03,.07-.05,.11-.07,.24-.12,.37-.17,.04,0,.08-.03,.12-.04s.07-.02,.11-.03c.07-.02,.13-.04,.2-.05,.07-.02,.14-.04,.21-.05,.43-.08,.87-.12,1.28-.13,.49-.02,.98-.02,1.47-.02H53.79c.49,0,.98,0,1.47,.02,.41,0,.85,.05,1.28,.13,.07,.01,.14,.03,.21,.05,.07,.01,.13,.03,.2,.05,.04,0,.07,.02,.11,.03s.08,.03,.12,.04c.16,.06,.31,.13,.44,.22,.07,.05,.13,.11,.19,.17,.13,.14,.2,.3,.24,.47,.02,.06,.03,.12,.04,.18,.01,.13,.02,.25,.02,.37v.19Z"/>
      <path class="cls-3" d="M57.18,9.02c.16,.05,.31,.13,.44,.22-.13-.09-.28-.16-.44-.22Z"/>
      <path class="cls-3" d="M57.06,6.95v2.03s-.07-.03-.11-.04c-.07-.02-.13-.04-.2-.04h0v-2.75c.19,.21,.31,.5,.31,.8Z"/>
      <path class="cls-3" d="M57.06,8.98s-.07-.02-.11-.03c-.07-.02-.13-.04-.2-.05,.07,0,.13,.02,.2,.04,.04,.01,.07,.02,.11,.04Z"/>
      <path class="cls-3" d="M56.75,8.89h0c-.07-.01-.14-.03-.21-.04-.43-.08-.87-.12-1.28-.13-.49-.02-.98-.02-1.47-.02H8.57c-.49,0-.98,0-1.47,.02-.41,0-.85,.05-1.28,.13-.07,.01-.14,.03-.21,.05h0v-2.75c.19-.21,.47-.34,.78-.34H55.97c.31,0,.58,.13,.78,.34v2.74Z"/>
      <path class="cls-3" d="M56.15,21.58c.08-.09,.15-.2,.22-.3-.06,.1-.14,.21-.22,.3Z"/>
      <path class="cls-3" d="M55.26,22.27c.22-.1,.42-.23,.6-.38-.18,.16-.38,.28-.6,.38Z"/>
      <path class="cls-3" d="M54.9,22.41h0c-.25,.1-.51,.17-.78,.23,.27-.07,.53-.14,.79-.23Z"/>
      <path class="cls-3" d="M8.24,22.64c-.26-.06-.52-.13-.77-.22,.25,.08,.52,.15,.77,.22Z"/>
      <path class="cls-3" d="M7.1,22.27c-.22-.1-.42-.22-.6-.38,.18,.15,.38,.28,.6,.38Z"/>
      <path class="cls-3" d="M5.61,8.89h0c-.07,0-.13,.03-.2,.05-.04,.01-.07,.02-.11,.04v-2.03c0-.3,.12-.59,.31-.8v2.74Z"/>
      <path class="cls-3" d="M5.61,8.9c-.07,.01-.13,.03-.2,.05-.04,0-.07,.02-.11,.03,.04-.02,.07-.03,.11-.04,.07-.02,.13-.04,.2-.04Z"/>
      <path class="cls-3" d="M4.81,9.19c.11-.07,.24-.13,.37-.17-.13,.05-.26,.1-.37,.17Z"/>
      <path class="cls-3" d="M.77,60.53c.06,.02,.12,.02,.18,.03-.06,0-.12,0-.18-.03Z"/>
      <path class="cls-3" d="M.36,60.34s-.05-.03-.07-.05c-.03-.02-.05-.04-.07-.07,.04,.05,.09,.09,.14,.12Z"/>
      <path class="cls-3" d="M.09,60.05s.03,.06,.06,.08c-.03-.03-.04-.05-.06-.08Z"/>
      <path class="cls-3" d="M.01,59.76c0,.1,.03,.19,.07,.27-.04-.08-.07-.17-.07-.27Z"/>
    </g>
    <g>
      <line class="cls-2" x1="18.35" y1="23.53" x2="44" y2="23.53"/>
      <line class="cls-2" x1="56.75" y1="8.89" x2="56.75" y2="6.15"/>
      <line class="cls-2" x1="5.61" y1="8.89" x2="5.61" y2="6.15"/>
      <polyline class="cls-2" points="18.35 8.7 28.34 8.7 31.18 8.7 34.01 8.7 44 8.7"/>
      <line class="cls-2" x1="18.35" y1="5.81" x2="44" y2="5.81"/>
      <line class="cls-2" x1="18.35" y1="0" x2="44" y2="0"/>
      <path class="cls-2" d="M57.06,8.98v-2.03c0-.3-.12-.59-.31-.8"/>
      <path class="cls-2" d="M44,5.81h11.97c.31,0,.58,.13,.78,.34"/>
      <path class="cls-2" d="M57.06,8.98s-.07-.03-.11-.04c-.07-.02-.13-.04-.2-.04-.07-.02-.14-.04-.21-.05-.43-.08-.87-.12-1.28-.13-.49-.02-.98-.02-1.47-.02h-9.79"/>
      <path class="cls-2" d="M57.62,9.24c-.13-.09-.28-.17-.44-.22"/>
      <path class="cls-2" d="M56.15,21.58c.08-.09,.15-.2,.22-.3"/>
      <path class="cls-2" d="M55.26,22.27c.22-.1,.42-.23,.6-.38"/>
      <path class="cls-2" d="M44,23.53c2.98-.01,6.79-.11,9.74-.79,.07-.02,.14-.04,.22-.06,.03-.01,.07-.01,.1-.02,.02-.01,.04-.01,.05-.02,.27-.07,.53-.14,.79-.23"/>
      <path class="cls-2" d="M54.9,22.41h0c-.25,.1-.51,.17-.78,.23"/>
      <path class="cls-2" d="M54.9,22.41c.13-.04,.24-.08,.36-.14"/>
      <path class="cls-2" d="M55.86,21.89c-.18,.16-.38,.28-.6,.38"/>
      <path class="cls-2" d="M55.86,21.89h0c.1-.1,.19-.19,.27-.29,0,0,0,0,0-.02"/>
      <path class="cls-2" d="M56.37,21.28c-.06,.1-.14,.21-.22,.3"/>
      <path class="cls-2" d="M56.37,21.28c.11-.16,.22-.33,.32-.49,.2-.35,.38-.7,.55-1.07,.32-.72,.59-1.54,.73-2.32,.09-.51,.12-1.02,.13-1.53"/>
      <path class="cls-2" d="M58.1,15.87c.01-.3,.01-.6,.01-.91v-4.53c0-.12-.01-.24-.02-.37-.01-.06-.02-.12-.04-.18-.04-.17-.11-.33-.24-.47-.06-.06-.12-.12-.19-.17"/>
      <path class="cls-2" d="M57.18,9.02c.16,.06,.31,.13,.44,.22"/>
      <path class="cls-2" d="M57.18,9.02s-.08-.03-.12-.04"/>
      <path class="cls-2" d="M56.75,8.9c.07,.01,.13,.03,.2,.05,.04,0,.07,.02,.11,.03"/>
      <path class="cls-2" d="M61.59,60.53c-.06,.02-.12,.02-.18,.03"/>
      <path class="cls-2" d="M62.14,60.22s-.05,.05-.07,.07-.04,.04-.07,.05"/>
      <path class="cls-2" d="M62.27,60.05s-.04,.06-.06,.08"/>
      <path class="cls-2" d="M62.36,14.55v22.51h0v22.52h0v.16s-.01,.11-.03,.15c0,0,0,0-.01,.02-.01,.04-.02,.08-.04,.12-.01,0-.01,.02-.01,.02"/>
      <path class="cls-2" d="M62.21,60.13s.04-.05,.06-.08"/>
      <path class="cls-2" d="M62.21,60.13s0,.03-.02,.04l-.05,.05"/>
      <path class="cls-2" d="M62,60.34c.05-.03,.1-.07,.14-.12"/>
      <path class="cls-2" d="M62,60.34s-.08,.06-.12,.08c-.02,.01-.05,.02-.07,.04-.07,.03-.15,.05-.22,.07"/>
      <path class="cls-2" d="M61.41,60.56c.06,0,.12,0,.18-.03"/>
      <path class="cls-2" d="M58.1,15.87h2.99s.04,0,.06,0,.04,0,.07-.01l.12-.03c.05-.01,.09-.03,.13-.04,.05-.02,.09-.04,.13-.06,.04-.03,.08-.05,.12-.08,.08-.05,.16-.11,.23-.18s.13-.15,.18-.23c.03-.04,.05-.08,.07-.12s.04-.09,.06-.13,.03-.09,.05-.13c0-.02,.01-.05,.01-.07,.01-.02,.01-.04,.02-.06,0-.03,0-.05,.01-.07v-.07s.01-.02,.01-.03v-.05h0v-.03h0V1.24h0v-.11s0-.07-.01-.11v-.12s-.01-.08-.02-.11c0-.08-.01-.16-.03-.23-.01-.03-.01-.07-.02-.1s-.02-.06-.02-.1c-.01-.03-.02-.05-.03-.08s-.02-.05-.03-.08l-.03-.06s-.01-.02-.02-.03l-.02-.02s-.01-.02-.01-.02c0-.01,0-.02-.02-.02,0-.01-.01-.01-.02-.02h-.02s0-.02,0-.02h-.03s0-.01-.01-.01h-18.01"/>
      <path class="cls-2" d="M57.59,14.52c0-.16-.01-.33-.02-.5-.01-.25-.03-.51-.05-.77,0-.11-.01-.22-.02-.33,0-.09-.01-.17-.01-.26-.01-.09-.01-.18-.02-.28,0-.06-.01-.13-.01-.21,0-.06,0-.13,0-.2,0-.05-.01-.09-.01-.14s0-.1-.01-.14c0-.1-.01-.2-.02-.29-.01-.1-.02-.19-.03-.29s-.02-.19-.04-.29c-.01-.06-.03-.13-.04-.2-.02-.06-.03-.12-.05-.18s-.03-.11-.05-.17c-.01-.02-.02-.05-.03-.08l-.06-.15s-.05-.09-.07-.13-.04-.08-.07-.12l-.06-.09s-.05-.06-.07-.08c-.02-.03-.04-.05-.07-.08-.02-.02-.05-.04-.07-.06-.01,0-.02,0-.02-.02"/>
      <path class="cls-2" d="M5.3,8.98v-2.03c0-.3,.12-.59,.31-.8s.47-.34,.78-.34h11.96"/>
      <path class="cls-2" d="M5.3,8.98s.07-.03,.11-.04c.07-.02,.13-.04,.2-.04,.07-.02,.14-.04,.21-.05,.43-.08,.87-.12,1.28-.13,.49-.02,.98-.02,1.47-.02h9.78"/>
      <path class="cls-2" d="M4.81,9.19c.11-.07,.24-.13,.37-.17"/>
      <path class="cls-2" d="M7.1,22.27c-.22-.1-.42-.23-.6-.38"/>
      <path class="cls-2" d="M18.35,23.53c-2.98-.01-6.78-.11-9.73-.79-.07-.02-.15-.04-.22-.06-.03-.01-.07-.01-.1-.02-.02-.01-.04-.01-.06-.02-.25-.07-.52-.14-.77-.22"/>
      <path class="cls-2" d="M7.47,22.42c.25,.09,.51,.16,.77,.22"/>
      <path class="cls-2" d="M7.47,22.42s-.01,0-.02,0c-.12-.04-.23-.08-.34-.13h-.01"/>
      <path class="cls-2" d="M6.5,21.89c.18,.16,.38,.28,.6,.38"/>
      <path class="cls-2" d="M6.5,21.89h-.01c-.09-.09-.18-.18-.26-.28-.05-.05-.09-.1-.13-.16-.04-.05-.08-.11-.12-.17-.11-.16-.21-.33-.31-.49-.2-.35-.39-.7-.55-1.07-.32-.72-.59-1.54-.73-2.32-.09-.51-.12-1.02-.13-1.53"/>
      <path class="cls-2" d="M4.26,15.87c-.01-.3-.01-.6-.01-.91v-4.53c0-.12,.01-.24,.02-.36h0c.01-.07,.02-.13,.03-.19,.04-.17,.12-.33,.25-.47,.06-.06,.12-.12,.19-.17,.02-.02,.05-.03,.07-.05"/>
      <path class="cls-2" d="M5.18,9.02c-.13,.05-.26,.1-.37,.17"/>
      <path class="cls-2" d="M5.18,9.02s.08-.03,.12-.04"/>
      <path class="cls-2" d="M5.61,8.9c-.07,.01-.13,.03-.2,.05-.04,0-.07,.02-.11,.03"/>
      <path class="cls-2" d="M.77,60.53c.06,.02,.12,.02,.18,.03,.02,.01,.05,.01,.07,.01,.04,0,.07,0,.11,0h.02c.08,0,.16,.01,.24,.01,.13,0,.26,0,.39,.02,1.23,.07,2.46,.14,3.7,.2,1.53,.08,3.05,.14,4.58,.2,.1,0,.2,0,.3,0,.24,.01,.49,.02,.73,.03,.72,.02,1.43,.03,2.14,.05,.37,.01,.74,.03,1.12,.03,.08,.01,.17,.01,.25,.01,.18,0,.37,0,.55,0,.36,.01,.72,.01,1.08,.02,.71,.01,1.42,.02,2.12,.03h25.65l2.13-.03c.36,0,.72,0,1.08-.02,.18,0,.36,0,.55,0,.08,0,.17,0,.25-.01,.37,0,.75-.02,1.12-.03,.71-.02,1.42-.03,2.13-.05,.25-.01,.49-.02,.74-.03,.1,0,.2,0,.29,0,1.53-.06,3.06-.12,4.59-.2,1.23-.06,2.47-.13,3.7-.2,.13-.01,.26-.01,.38-.02,.08,0,.16-.01,.24-.01,.04,0,.09,0,.14,0,.02,0,.05,0,.07-.01"/>
      <path class="cls-2" d="M.22,60.22s.04,.05,.07,.07c.02,.02,.04,.04,.07,.05"/>
      <path class="cls-2" d="M.09,60.05s.03,.06,.06,.08"/>
      <path class="cls-2" d="M.01,59.76c0,.1,.03,.19,.07,.27"/>
      <path class="cls-2" d="M0,14.58v22.48H0v22.52H0v.16s0,0,.01,.02"/>
      <path class="cls-2" d="M.08,60.03c-.04-.08-.07-.17-.07-.27"/>
      <path class="cls-2" d="M.08,60.03s.01,0,.01,.02"/>
      <path class="cls-2" d="M.15,60.13s-.04-.05-.06-.08"/>
      <path class="cls-2" d="M.15,60.13s.04,.06,.07,.09"/>
      <path class="cls-2" d="M.36,60.34c-.05-.03-.1-.07-.14-.12"/>
      <path class="cls-2" d="M.36,60.34s.05,.04,.08,.06c.04,.02,.07,.04,.11,.06,.02,0,.03,.01,.05,.02,.06,.02,.11,.04,.17,.05"/>
      <path class="cls-2" d="M.95,60.56c-.06,0-.12,0-.18-.03"/>
      <path class="cls-2" d="M4.25,15.87H1.27s-.04,0-.06,0-.05,0-.07-.01c-.04,0-.08-.02-.13-.03-.04-.01-.08-.03-.13-.04l-.12-.06s-.09-.05-.12-.08c-.08-.05-.16-.11-.23-.18s-.13-.15-.18-.23c-.03-.04-.05-.08-.07-.12-.03-.04-.05-.09-.06-.13-.02-.04-.03-.09-.05-.13,0-.02-.01-.05-.01-.07,0-.02,0-.04-.02-.06,0-.03-.01-.05-.01-.07s0-.04-.01-.07v-.08H0v-.03H0V1.24H0v-.22s.01-.08,.01-.12,.01-.08,.01-.11c.01-.08,.02-.16,.04-.23,0-.03,.01-.07,.02-.1s.01-.06,.02-.1c.01-.03,.02-.05,.03-.08s.02-.05,.03-.08l.03-.06s.01-.02,.02-.03c0-.01,.01-.01,.01-.02l.02-.02s.01-.02,.02-.02c0-.01,.01-.01,.01-.02,.01,0,.01-.01,.02-.01h.01s0,0,0,0h.02S.33,0,.34,0H18.35"/>
      <path class="cls-2" d="M5.68,9.46l-.02,.02s-.05,.04-.07,.06c-.03,.03-.05,.05-.07,.08-.03,.02-.05,.05-.07,.08s-.05,.06-.07,.09l-.06,.12s-.05,.09-.07,.13l-.06,.15s-.02,.06-.03,.08c-.02,.06-.04,.11-.05,.17-.02,.06-.03,.12-.05,.18,0,.07-.03,.14-.04,.2-.02,.1-.03,.19-.04,.29-.02,.1-.03,.19-.03,.29-.01,.09-.02,.19-.03,.29v.14c-.01,.05-.01,.09-.01,.14-.01,.07-.01,.14-.01,.2,0,.08,0,.15,0,.21-.01,.1-.01,.19-.02,.28,0,.09,0,.17,0,.26-.01,.11-.02,.22-.02,.33-.02,.26-.04,.52-.05,.77,0,.17-.02,.34-.02,.5"/>
    </g>
  </g>
  <text class="cls-1" transform="translate(23.24 42.11)"><tspan x="0" y="0">110</tspan></text>
</svg>