<?xml version="1.0" encoding="UTF-8"?>
<svg id="_03_LINEA_FINA" data-name="03_LINEA FINA" xmlns="http://www.w3.org/2000/svg" viewBox="0 0 79.37 61.23">
  <defs>
    <style>
      .cls-1 {
        font-family: Inter18pt-Medium, 'Inter 18pt';
        font-size: 10px;
      }

      .cls-2 {
        fill: none;
        stroke: #404041;
        stroke-linecap: round;
        stroke-linejoin: round;
        stroke-width: .35px;
      }

      .cls-3 {
        fill: #f1f1f2;
      }
    </style>
  </defs>
  <g>
    <g>
      <path class="cls-3" d="M79.37,59.71v.03s-.01,.08-.03,.12t0,.02c-.01,.05-.03,.1-.06,.15,0,.03-.03,.06-.05,.09-.03,.03-.05,.07-.08,.1-.04,.04-.09,.08-.14,.12-.03,.03-.07,.05-.11,.07-.04,.03-.09,.05-.13,.06-.05,.03-.1,.05-.16,.06h0l-.18,.03c-.07,.01-.14,.01-.21,.01-.08,.01-.16,.01-.24,.02-.12,0-.25,.01-.38,.02-1.23,.07-2.47,.14-3.7,.2-1.53,.07-3.06,.14-4.59,.2-.09,0-.19,0-.29,.01-.24,.01-.49,.01-.74,.02-.71,.03-1.42,.04-2.13,.06-.37,.01-.75,.02-1.12,.03-.08,0-.17,0-.25,.01-.18,0-.37,0-.55,.01-.36,0-.72,.01-1.08,.02-.71,.01-1.42,.02-2.12,.03h-14.32c-.7-.01-1.41-.02-2.12-.03-.36,0-.72-.02-1.08-.02-.19-.01-.37-.01-.55-.01-.08-.01-.17-.01-.25-.01-.38,0-.75-.02-1.12-.03-.71-.02-1.42-.03-2.14-.06-.24-.01-.49-.01-.73-.02-.1-.01-.2-.01-.3-.01-1.53-.06-3.06-.13-4.58-.2-1.24-.06-2.47-.13-3.7-.2-.13-.01-.26-.02-.39-.02-.08,0-.16,0-.24-.02-.06,0-.13,0-.2-.01l-.18-.03c-.06-.02-.11-.03-.17-.06-.05-.02-.09-.04-.14-.06t-.02-.01l-.09-.06s-.04-.03-.06-.05l-.07-.07s-.07-.08-.1-.12c0-.01,0-.02,0-.02h0c-.03-.06-.06-.11-.07-.16-.02-.05-.03-.1-.03-.15,0-.01,0-.02,0-.03v-.02h0V28.77h0V14.58s0,.04,0,.07c0,.02,.01,.04,.01,.06s0,.05,0,.07c.01,.02,.02,.04,.02,.06,.01,.05,.03,.09,.05,.14,.01,.04,.03,.08,.06,.12,.02,.05,.04,.09,.07,.13,.05,.08,.11,.16,.18,.23s.14,.13,.22,.18c.04,.03,.09,.05,.13,.07l.12,.06c.05,.02,.09,.03,.13,.05,.05,0,.09,.02,.13,.03,.02,0,.04,.01,.07,.01,.02,0,.04,0,.06,0h3c0,.51,.03,1.02,.12,1.53,.14,.78,.41,1.6,.73,2.32,.16,.36,.34,.72,.55,1.06,.1,.17,.2,.34,.31,.5,.08,.11,.15,.21,.24,.32,.09,.1,.17,.19,.27,.28,.09,.08,.18,.15,.29,.21,0,.01,.01,.01,.01,.01,.1,.07,.2,.12,.31,.17h.01c.11,.05,.22,.1,.34,.14,.26,.09,.53,.16,.79,.23,.02,0,.04,.01,.06,.01,.03,.01,.07,.02,.1,.03,.07,.02,.15,.03,.22,.05,2.94,.68,6.75,.78,9.73,.79h14.32c2.97-.01,6.78-.11,9.73-.79,.07-.02,.14-.03,.22-.05,.03-.01,.07-.02,.1-.03,.02,0,.04-.01,.05-.01,.27-.07,.53-.14,.79-.23,.05-.02,.09-.03,.13-.05,.32-.11,.6-.27,.84-.48,.1-.09,.18-.18,.27-.28,.09-.11,.16-.21,.24-.32,.11-.16,.21-.33,.31-.5,.2-.34,.39-.7,.55-1.06,.32-.72,.59-1.54,.73-2.32,.09-.51,.12-1.02,.13-1.53h2.99s.04,0,.06,0,.04-.01,.07-.01l.12-.03s.09-.03,.13-.05c.05-.02,.09-.04,.13-.06s.08-.04,.12-.07c.08-.05,.16-.11,.23-.18s.13-.15,.18-.23c.03-.04,.05-.08,.07-.13l.06-.12c.02-.05,.03-.09,.05-.14,0-.02,.01-.04,.01-.06,.01-.02,.01-.05,.02-.07,0-.02,0-.04,0-.06v-.07s.01-.02,.01-.03v14.21h0v30.95Z"/>
      <path class="cls-3" d="M79.37,14.52v.03s0,.02-.01,.03v.07s0,.04,0,.06c-.01,.02-.01,.05-.02,.07,0,.02-.01,.04-.01,.06-.02,.05-.03,.09-.05,.14l-.06,.12c-.02,.05-.04,.09-.07,.13-.05,.08-.11,.16-.18,.23s-.15,.13-.23,.18c-.04,.03-.08,.05-.12,.07s-.08,.04-.13,.06c-.04,.02-.08,.03-.13,.05l-.12,.03s-.05,.01-.07,.01-.04,0-.06,0h-2.99c.01-.3,.01-.61,.01-.92v-4.52h0c0-.13-.01-.25-.02-.37-.02-.13-.04-.24-.09-.35-.04-.1-.1-.2-.19-.3h0c-.06-.07-.12-.12-.19-.17-.17-.12-.36-.2-.56-.26h0v-2.04c0-.3-.12-.58-.31-.79-.2-.21-.47-.34-.78-.34H34.74c-.32,0-.59,.13-.78,.34-.2,.21-.31,.49-.31,.79v2.03h0c-.12,.04-.24,.09-.35,.14-.11,.06-.21,.12-.3,.21-.04,.02-.07,.05-.1,.08h0l-.12,.15h0c-.03,.06-.05,.11-.08,.16-.04,.11-.06,.22-.08,.35-.01,.12-.02,.24-.02,.37v4.52c0,.3,0,.6,0,.9,0,.01,.01,.02,.01,.02h-3s-.04,0-.06,0c-.03,0-.05-.01-.07-.01-.04,0-.08-.02-.13-.03-.04-.02-.08-.03-.13-.05l-.12-.06s-.09-.04-.13-.07c-.08-.05-.15-.11-.22-.18s-.13-.15-.18-.23c-.03-.04-.05-.08-.07-.13-.03-.04-.05-.08-.06-.12-.02-.05-.04-.09-.05-.14,0-.02-.01-.04-.02-.06,0-.02,0-.05,0-.07s-.01-.04-.01-.06c0-.03,0-.05,0-.07v-.08h0v-.03h0v-.04h0V1.24h0v-.23s0-.07,0-.11,.01-.08,.01-.12c0-.07,.02-.15,.04-.22,0-.04,.01-.07,.02-.1,0-.04,0-.07,.02-.1s.02-.06,.03-.08c.01-.03,.02-.06,.03-.08l.03-.06s0-.02,.02-.03c0-.01,.01-.02,.01-.03,.01,0,.01,0,.02-.02,.01,0,.01,0,.02,0,0-.01,.01-.02,.01-.02,0,0,0-.01,.02-.01h.01s0,0,.01,0h.01s.01-.01,.01-.01h50.36s0,0,0,.01h.03s.01,.02,.01,.02c.01,0,.02,0,.02,.02,.01,0,.01,0,.02,0,0,.01,.01,.02,.01,.02,.01,.01,.02,.02,.02,.03,.01,0,.01,.02,.02,.03l.03,.06s.02,.05,.03,.08c.01,.02,.02,.05,.03,.08,0,.03,0,.06,.02,.1,0,.03,.02,.06,.02,.1,.02,.07,.03,.15,.04,.22,0,.04,0,.08,0,.12v.11s.01,.08,.01,.12v.1h0V14.42h0v.03h0v.04h0v.03Z"/>
      <path class="cls-3" d="M79.23,60.12s.04-.06,.05-.09c0,.03-.03,.06-.05,.09Z"/>
      <path class="cls-3" d="M79.15,60.22s.05-.07,.08-.1c-.02,.04-.05,.07-.08,.1Z"/>
      <path class="cls-3" d="M79.15,60.22s-.05,.05-.07,.07-.04,.04-.07,.05c.05-.04,.1-.08,.14-.12Z"/>
      <path class="cls-3" d="M78.77,60.47s.09-.03,.13-.06c-.04,.03-.09,.05-.13,.06Z"/>
      <path class="cls-3" d="M78.42,60.56l.18-.03c-.06,.02-.12,.03-.18,.03Z"/>
      <path class="cls-3" d="M78.42,60.56s-.05,.01-.07,.01h-.14c.07,0,.14,0,.21-.01Z"/>
      <path class="cls-3" d="M75.12,10.62v4.33c0,.31,0,.62-.01,.92,0,.51-.04,1.02-.13,1.53-.14,.78-.41,1.6-.73,2.32-.16,.36-.35,.72-.55,1.06-.1,.17-.2,.34-.31,.5-.08,.11-.15,.21-.24,.32-.09,.1-.17,.19-.27,.28-.24,.21-.52,.37-.84,.48-.04,.02-.08,.03-.13,.05-.26,.09-.52,.16-.79,.23-.01,0-.03,.01-.05,.01-.03,.01-.07,.02-.1,.03-.08,.02-.15,.03-.22,.05-2.95,.68-6.76,.78-9.73,.79h-14.32c-2.98-.01-6.79-.11-9.73-.79-.07-.02-.15-.03-.22-.05-.03-.01-.07-.02-.1-.03-.02,0-.04-.01-.06-.01-.26-.07-.53-.14-.79-.23-.12-.04-.23-.09-.34-.13h-.01c-.11-.06-.21-.11-.31-.18,0,0-.01,0-.01-.01-.1-.06-.2-.13-.29-.21-.1-.09-.18-.18-.27-.28-.09-.11-.16-.21-.24-.32-.11-.16-.21-.33-.31-.5-.21-.34-.39-.7-.55-1.06-.32-.72-.59-1.54-.73-2.32-.09-.51-.12-1.02-.12-1.53,0,0-.01,0-.01-.02,0-.3,0-.6,0-.9v-4.52c0-.13,0-.25,.02-.37,.02-.13,.04-.24,.08-.35,.03-.05,.05-.1,.08-.15h0c.04-.06,.08-.11,.12-.15,.03-.03,.06-.07,.1-.09,.09-.09,.19-.15,.3-.21,.11-.05,.23-.1,.35-.13,.04-.02,.07-.03,.11-.04,.07-.02,.13-.04,.2-.04,.49-.12,1.01-.16,1.49-.18,.49-.03,.98-.02,1.47-.02h33.88c.49,0,.98,0,1.47,.02,.48,.02,1,.06,1.49,.18,.07,0,.13,.02,.2,.04,.03,0,.07,.02,.1,.04h.01c.2,.06,.39,.14,.56,.26,.07,.05,.13,.11,.19,.17,.09,.1,.15,.2,.19,.3,.05,.11,.07,.22,.09,.35,0,.12,.02,.24,.02,.36h0v.2Z"/>
      <path class="cls-3" d="M74.82,9.4h0c-.06-.05-.12-.11-.19-.16,.07,.05,.13,.1,.19,.16Z"/>
      <path class="cls-3" d="M74.07,8.97h0s-.01,.01-.01,.01c-.03-.02-.07-.03-.1-.04-.07-.02-.13-.04-.2-.04h0v-2.75c.19,.21,.31,.49,.31,.79v2.03Z"/>
      <path class="cls-3" d="M73.76,8.89h0c-.49-.11-1.01-.15-1.49-.17-.49-.03-.98-.02-1.47-.02H36.92c-.49,0-.98,0-1.47,.02-.48,.02-1,.06-1.49,.18h0v-2.75c.19-.21,.46-.34,.78-.34h38.24c.31,0,.58,.13,.78,.34v2.74Z"/>
      <path class="cls-3" d="M34.84,21.88c.09,.08,.19,.15,.29,.21-.11-.06-.2-.13-.29-.21Z"/>
      <path class="cls-3" d="M33.96,8.89h0c-.07,.01-.13,.03-.2,.05-.04,0-.07,.02-.11,.04h0v-2.04c0-.3,.11-.58,.31-.79v2.74Z"/>
      <path class="cls-3" d="M33,9.32s-.07,.06-.1,.09h0s.06-.07,.1-.09Z"/>
      <path class="cls-3" d="M29.5,60.57h-.13s-.05,0-.07-.01c.07,.01,.14,.01,.2,.01Z"/>
      <path class="cls-3" d="M29.12,60.53l.18,.03c-.06,0-.12-.01-.18-.03Z"/>
      <path class="cls-3" d="M28.81,60.41c.05,.02,.09,.04,.14,.06-.05-.01-.1-.03-.14-.06Z"/>
      <path class="cls-3" d="M28.67,0h-.02s-.01,.02-.01,.02c-.01,0-.01,.01-.02,.01,0,0-.01,0-.01,.02,0,0,0,0-.02,0-.01,.01-.01,.02-.02,.02,0,.01-.01,.02-.01,.03-.01,0-.01,.02-.02,.03l-.03,.06s-.02,.05-.03,.08c-.01,.02-.02,.05-.03,.08s-.02,.06-.02,.1c-.01,.03-.02,.06-.02,.1-.02,.07-.03,.15-.04,.22,0,.04-.01,.08-.01,.12s0,.08,0,.11v.22h0V14.42h0v.03h0v.04h0v14.27h0v30.95h0c-.47,.01-.95,.01-1.42,.01H7.09C3.17,59.72,0,56.54,0,52.63V7.08C0,3.17,3.17,0,7.09,0H28.67Z"/>
      <path class="cls-3" d="M28.47,60.1s.06,.08,.1,.12c-.04-.04-.07-.07-.1-.12Z"/>
      <path class="cls-3" d="M28.39,59.92c.01,.05,.04,.1,.07,.15-.03-.04-.06-.09-.07-.15Z"/>
      <path class="cls-3" d="M28.36,59.77c0,.05,.01,.1,.03,.15-.02-.04-.03-.09-.03-.15Z"/>
    </g>
    <g>
      <path class="cls-2" d="M28.35,59.72H7.09C3.17,59.72,0,56.54,0,52.63V7.08C0,3.17,3.17,0,7.09,0H28.67"/>
      <polyline class="cls-2" points="46.7 8.7 53.86 8.7 61.02 8.7"/>
      <polyline class="cls-2" points="46.7 5.81 53.86 5.81 61.02 5.81"/>
      <polyline class="cls-2" points="46.7 0 53.86 0 61.02 0"/>
      <polyline class="cls-2" points="46.7 23.52 53.86 23.52 61.02 23.52"/>
      <polyline class="cls-2" points="46.7 61.2 53.86 61.2 61.02 61.2"/>
      <path class="cls-2" d="M46.7,5.81h-11.96c-.32,0-.59,.13-.78,.34"/>
      <path class="cls-2" d="M33.65,8.97v-2.03c0-.3,.11-.58,.31-.79"/>
      <path class="cls-2" d="M32.9,9.41h0s.06-.07,.1-.09"/>
      <path class="cls-2" d="M46.7,23.52c-2.98-.01-6.79-.11-9.73-.79-.07-.02-.15-.03-.22-.05-.03-.01-.07-.02-.1-.03-.02,0-.04-.01-.06-.01-.26-.07-.53-.14-.79-.23-.12-.04-.23-.09-.34-.13h-.01c-.11-.06-.21-.11-.31-.18,0,0-.01,0-.01-.01-.1-.06-.2-.13-.29-.21"/>
      <path class="cls-2" d="M34.84,21.88c.09,.08,.18,.15,.29,.21"/>
      <path class="cls-2" d="M34.84,21.88c-.1-.09-.18-.18-.27-.28-.09-.11-.16-.21-.24-.32-.11-.16-.21-.33-.31-.5-.21-.34-.39-.7-.55-1.06-.32-.72-.59-1.54-.73-2.32-.09-.51-.12-1.02-.12-1.53"/>
      <path class="cls-2" d="M32.62,15.87s-.01,0-.01-.02c0-.3,0-.6,0-.9v-4.52c0-.13,0-.25,.02-.37,.02-.13,.04-.24,.08-.35,.03-.05,.05-.1,.08-.15h0c.04-.06,.08-.11,.12-.15"/>
      <path class="cls-2" d="M33,9.32s-.07,.06-.1,.09"/>
      <path class="cls-2" d="M33,9.32c.09-.09,.19-.15,.3-.21,.11-.05,.23-.1,.35-.13"/>
      <path class="cls-2" d="M33.65,8.98s.07-.03,.11-.04c.07-.02,.13-.04,.2-.04"/>
      <path class="cls-2" d="M33.96,8.9c.49-.12,1.01-.16,1.49-.18,.49-.03,.98-.02,1.47-.02h9.78"/>
      <path class="cls-2" d="M46.7,0H29.28"/>
      <path class="cls-2" d="M29.28,0h-.61"/>
      <path class="cls-2" d="M29.12,60.53l.18,.03c.07,.01,.14,.01,.2,.01,.08,.01,.16,.01,.24,.02,.13,0,.26,.01,.39,.02,1.23,.07,2.46,.14,3.7,.2,1.52,.07,3.05,.14,4.58,.2,.1,0,.2,0,.3,.01,.24,.01,.49,.01,.73,.02,.72,.03,1.43,.04,2.14,.06,.37,.01,.74,.02,1.12,.03,.08,0,.17,0,.25,.01,.18,0,.36,0,.55,.01,.36,0,.72,.01,1.08,.02,.71,.01,1.42,.02,2.12,.03"/>
      <path class="cls-2" d="M28.81,60.41c.05,.02,.09,.04,.14,.06"/>
      <path class="cls-2" d="M28.47,60.1c.03,.05,.06,.08,.1,.12"/>
      <path class="cls-2" d="M28.36,59.77c0,.06,.01,.11,.03,.15,.01,.06,.04,.11,.07,.15"/>
      <path class="cls-2" d="M28.35,14.58v14.18h0v30.95h0"/>
      <path class="cls-2" d="M28.35,59.72v.02s0,.02,0,.03"/>
      <path class="cls-2" d="M28.46,60.07c-.03-.05-.06-.1-.07-.15-.02-.05-.03-.1-.03-.15"/>
      <path class="cls-2" d="M28.46,60.07h0s0,.02,0,.03"/>
      <path class="cls-2" d="M28.57,60.22s-.07-.08-.1-.12"/>
      <path class="cls-2" d="M28.57,60.22l.07,.07s.04,.03,.06,.05l.09,.06s0,0,.02,.01"/>
      <path class="cls-2" d="M28.95,60.47c-.05-.01-.1-.03-.14-.06"/>
      <path class="cls-2" d="M28.95,60.47c.06,.03,.11,.04,.17,.06"/>
      <path class="cls-2" d="M29.5,60.57h-.13s-.05,0-.07-.01c-.06,0-.12-.01-.18-.03"/>
      <path class="cls-2" d="M32.6,15.87h-2.98s-.04,0-.06,0c-.03,0-.05-.01-.07-.01-.04,0-.08-.02-.13-.03-.04-.02-.08-.03-.13-.05l-.12-.06s-.09-.04-.13-.07c-.08-.05-.15-.11-.22-.18s-.13-.15-.18-.23c-.03-.04-.05-.08-.07-.13-.03-.04-.05-.08-.06-.12-.02-.05-.04-.09-.05-.14,0-.02-.01-.04-.02-.06,0-.02,0-.05,0-.07s-.01-.04-.01-.06c0-.03,0-.05,0-.07v-.08h0v-.03h0v-.04h0V1.24h0v-.23s0-.07,0-.11,.01-.08,.01-.12c0-.07,.02-.15,.04-.22,0-.04,.01-.07,.02-.1,0-.04,0-.07,.02-.1s.02-.06,.03-.08c.01-.03,.02-.06,.03-.08l.03-.06s0-.02,.02-.03c0-.01,.01-.02,.01-.03,.01,0,.01,0,.02-.02,.01,0,.01,0,.02,0,0-.01,.01-.02,.01-.02,0,0,0-.01,.02-.01h.01s0,0,.01,0h.01"/>
      <line class="cls-2" x1="33.96" y1="8.89" x2="33.96" y2="6.15"/>
      <path class="cls-2" d="M34.03,9.46l-.02,.02s-.05,.04-.07,.06c-.03,.02-.05,.05-.07,.07-.03,.03-.05,.06-.07,.09s-.05,.06-.07,.09c-.02,.04-.04,.08-.06,.11-.03,.05-.05,.09-.07,.14l-.06,.15s-.02,.05-.03,.08c-.02,.05-.04,.11-.05,.16-.02,.07-.04,.13-.05,.19-.02,.07-.03,.13-.04,.2-.02,.1-.03,.19-.04,.29-.02,.09-.03,.19-.03,.28,0,.1-.02,.2-.03,.29,0,.05,0,.1-.01,.15v.14c-.01,.07-.01,.13-.01,.2-.01,.07-.01,.14-.01,.21-.01,.09-.01,.18-.02,.27,0,.09,0,.18,0,.27-.01,.11-.02,.22-.03,.32-.01,.27-.03,.53-.04,.78-.01,.17-.02,.34-.02,.5"/>
      <path class="cls-2" d="M74.07,8.97v-2.03c0-.3-.12-.58-.31-.79"/>
      <path class="cls-2" d="M61.02,5.81h11.96c.31,0,.58,.13,.78,.34"/>
      <path class="cls-2" d="M74.82,9.41h0c-.06-.07-.12-.12-.19-.17"/>
      <path class="cls-2" d="M61.02,23.52c2.97-.01,6.78-.11,9.73-.79,.07-.02,.14-.03,.22-.05,.03-.01,.07-.02,.1-.03,.02,0,.04-.01,.05-.01,.27-.07,.53-.14,.79-.23,.05-.02,.09-.03,.13-.05,.32-.11,.6-.27,.84-.48,.1-.09,.18-.18,.27-.28,.09-.11,.16-.21,.24-.32,.11-.16,.21-.33,.31-.5,.2-.34,.39-.7,.55-1.06,.32-.72,.59-1.54,.73-2.32,.09-.51,.12-1.02,.13-1.53"/>
      <path class="cls-2" d="M75.11,15.87c.01-.3,.01-.61,.01-.92v-4.52h0c0-.13-.01-.25-.02-.37-.02-.13-.04-.24-.09-.35-.04-.1-.1-.2-.19-.3"/>
      <path class="cls-2" d="M74.63,9.24c.07,.05,.13,.11,.19,.17"/>
      <path class="cls-2" d="M74.63,9.24c-.17-.12-.36-.2-.56-.26"/>
      <path class="cls-2" d="M74.07,8.98h-.01s-.07-.03-.1-.04c-.07-.02-.13-.04-.2-.04"/>
      <path class="cls-2" d="M73.76,8.9c-.49-.12-1.01-.16-1.49-.18-.49-.03-.98-.02-1.47-.02h-9.78"/>
      <path class="cls-2" d="M78.6,60.53l-.18,.03c-.07,.01-.14,.01-.21,.01-.08,.01-.16,.01-.24,.02-.12,0-.25,.01-.38,.02-1.23,.07-2.47,.14-3.7,.2-1.53,.07-3.06,.14-4.59,.2-.09,0-.19,0-.29,.01-.24,.01-.49,.01-.74,.02-.71,.03-1.42,.04-2.13,.06-.37,.01-.75,.02-1.12,.03-.08,0-.17,0-.25,.01-.18,0-.37,0-.55,.01-.36,0-.72,.01-1.08,.02-.71,.01-1.42,.02-2.12,.03"/>
      <path class="cls-2" d="M78.9,60.41s-.09,.05-.13,.06"/>
      <path class="cls-2" d="M79.28,60.03s-.03,.06-.05,.09c-.02,.04-.05,.07-.08,.1-.02,.03-.05,.05-.07,.07s-.04,.04-.07,.05"/>
      <path class="cls-2" d="M79.37,14.55v14.21h0v30.98s-.01,.08-.03,.12t0,.02c-.01,.05-.03,.1-.06,.15"/>
      <path class="cls-2" d="M79.01,60.34s.1-.08,.14-.12c.03-.03,.05-.07,.08-.1,.02-.03,.04-.06,.05-.09"/>
      <path class="cls-2" d="M79.01,60.34s-.07,.05-.11,.07"/>
      <path class="cls-2" d="M78.77,60.47s.09-.03,.13-.06"/>
      <path class="cls-2" d="M78.77,60.47c-.05,.03-.1,.05-.16,.06h0"/>
      <path class="cls-2" d="M78.21,60.57h.14s.05,0,.07-.01c.06,0,.12-.01,.18-.03"/>
      <path class="cls-2" d="M75.11,15.87h2.99s.04,0,.06,0,.04-.01,.07-.01l.12-.03s.09-.03,.13-.05c.05-.02,.09-.04,.13-.06s.08-.04,.12-.07c.08-.05,.16-.11,.23-.18s.13-.15,.18-.23c.03-.04,.05-.08,.07-.13l.06-.12c.02-.05,.03-.09,.05-.14,0-.02,.01-.04,.01-.06,.01-.02,.01-.05,.02-.07,0-.02,0-.04,0-.06v-.07s.01-.02,.01-.03v-.05h0v-.03h0v-.04h0V1.24h0v-.11s0-.08-.01-.12v-.11s0-.08,0-.12c-.01-.07-.02-.15-.04-.22,0-.04-.01-.07-.02-.1-.01-.04-.02-.07-.02-.1-.01-.03-.02-.06-.03-.08-.01-.03-.02-.06-.03-.08l-.03-.06s-.01-.02-.02-.03c0-.01-.01-.02-.02-.03,0,0-.01,0-.01-.02,0,0,0,0-.02,0,0-.01,0-.02-.02-.02h-.01s-.01-.02-.01-.02h-.02s0-.01,0-.01h-18.02"/>
      <line class="cls-2" x1="73.76" y1="8.89" x2="73.76" y2="6.15"/>
      <path class="cls-2" d="M74.6,14.52c0-.16-.01-.33-.02-.5-.01-.25-.03-.51-.05-.78,0-.1,0-.21-.02-.32,0-.09-.01-.18-.01-.27-.01-.09-.01-.18-.02-.27,0-.07-.01-.14-.01-.21s0-.13,0-.2c0-.05,0-.1-.01-.14,0-.05,0-.1-.01-.15,0-.09,0-.19-.02-.29-.01-.09-.02-.19-.03-.28-.01-.1-.02-.19-.04-.29-.01-.07-.03-.13-.04-.2-.02-.06-.03-.12-.05-.19-.02-.05-.03-.11-.05-.16-.01-.03-.02-.05-.03-.08l-.06-.15c-.02-.05-.05-.09-.07-.14-.02-.03-.04-.07-.07-.11l-.06-.09s-.05-.06-.07-.09c-.02-.02-.04-.05-.07-.07-.02-.02-.05-.04-.07-.06-.01-.01-.02-.01-.02-.02"/>
    </g>
  </g>
  <text class="cls-1" transform="translate(47.11 42.11)"><tspan x="0" y="0">90</tspan></text>
</svg>