<?xml version="1.0" encoding="UTF-8"?>
<svg id="_03_LINEA_FINA" data-name="03_LINEA FINA" xmlns="http://www.w3.org/2000/svg" viewBox="0 0 64.63 61.23">
  <defs>
    <style>
      .cls-1 {
        font-family: Inter18pt-Medium, 'Inter 18pt';
        font-size: 10px;
      }

      .cls-2 {
        fill: none;
        stroke: #404041;
        stroke-linecap: round;
        stroke-linejoin: round;
        stroke-width: .35px;
      }

      .cls-3 {
        fill: #f1f1f2;
      }
    </style>
  </defs>
  <g>
    <g>
      <path class="cls-3" d="M64.63,7.09V52.64c0,3.91-3.18,7.08-7.09,7.08h-5.1c-.39,0-.74-.16-1-.41-.26-.26-.42-.62-.42-1.01V1.25h0v-.02h0v-.21s-.01-.08-.01-.12c0-.03,0-.07,0-.11-.01-.08-.02-.15-.04-.22,0-.04-.01-.07-.02-.11-.01-.03-.01-.06-.02-.09l-.03-.09s-.02-.05-.03-.07c-.01-.03-.02-.05-.03-.07-.01,0-.01-.02-.02-.03,0,0-.01-.01-.01-.02-.01-.01-.02-.01-.02-.02l-.02-.02h0s-.02-.02-.02-.03h-.02s0,0-.01,0h-.02c2.29-.01,4.57-.01,6.86-.01,1.96,0,3.73,.79,5.02,2.08s2.07,3.05,2.07,5.01Z"/>
      <path class="cls-3" d="M52.44,59.72h-1.42v-1.42c0,.39,.16,.75,.42,1.01,.26,.25,.61,.41,1,.41Z"/>
      <path class="cls-3" d="M51.02,59.65v.06h0c0,.06-.01,.1-.02,.14,0,.04-.01,.07-.03,.1,0,.02-.01,.03-.01,.05-.01,.01-.01,.03-.02,.04,0,.01-.01,.01-.02,.02-.06,.11-.14,.2-.24,.27-.04,.04-.09,.06-.13,.09-.06,.03-.11,.05-.17,.07-.02,.01-.03,.01-.05,.02-.01,0-.03,0-.04,0-.08,.02-.15,.04-.23,.05-.1,0-.2,.02-.31,.02-.14,0-.27,0-.4,.02-1.3,.07-2.59,.14-3.88,.21-.79,.04-1.58,.08-2.37,.11-.79,.04-1.58,.06-2.37,.09-.08,0-.17,.01-.25,.01-.69,.02-1.39,.04-2.09,.06-.64,.02-1.29,.04-1.94,.05-.1,0-.2,.01-.3,.01-.19,0-.39,0-.59,0-.39,.01-.78,.01-1.17,.02-.77,.01-1.54,.02-2.3,.03h-13.74c-.7-.02-1.41-.02-2.12-.04-.36,0-.72-.01-1.08-.02-.18,0-.37,0-.55-.01h-.25c-.38,0-.75-.02-1.12-.03-.71-.02-1.42-.04-2.14-.06-.24-.01-.49-.02-.73-.03-.1,0-.2,0-.3,0-1.53-.05-3.05-.12-4.58-.2-1.24-.06-2.47-.13-3.7-.2-.13,0-.26-.01-.39-.02-.08,0-.16-.01-.23-.01-.05,0-.09,0-.14,0-.06,0-.12-.01-.18-.02s-.11-.03-.17-.05c-.02,0-.05-.01-.07-.02s-.03-.02-.05-.02c-.04-.02-.07-.04-.11-.06-.03-.02-.05-.04-.08-.06-.05-.03-.1-.07-.14-.12-.04-.04-.08-.08-.11-.13,0-.01-.01-.01-.01-.02-.03-.05-.05-.09-.06-.14-.02-.05-.03-.1-.03-.15,0-.01,0-.02,0-.03v-.05H0V14.59s0,.04,0,.06,.01,.05,.01,.07c0,.02,0,.04,.02,.06,0,.03,.01,.05,.01,.07,.02,.04,.03,.09,.05,.13,.01,.05,.03,.09,.06,.13,.02,.04,.04,.09,.07,.13,.05,.08,.11,.15,.18,.22s.15,.13,.23,.19c.04,.02,.08,.05,.12,.07l.12,.06c.05,.02,.09,.03,.13,.04,.05,.02,.09,.03,.13,.03,.02,.01,.05,.01,.07,.01,.02,0,.04,0,.06,0s.04,.01,.06,.01h2.93c.01,.51,.04,1.02,.13,1.53,.14,.77,.41,1.6,.73,2.31,.16,.37,.35,.72,.55,1.07,.1,.17,.2,.33,.31,.49,.08,.12,.16,.23,.25,.33,.08,.1,.17,.19,.26,.27,0,0,0,0,.01,0,.09,.08,.18,.15,.28,.21,0,.01,.01,.01,.01,.01,.1,.06,.2,.12,.31,.17h.01c.11,.05,.22,.1,.34,.14h.02c.25,.09,.52,.16,.77,.23,.02,0,.04,0,.06,0,.03,.01,.07,.02,.1,.03,.07,0,.15,.03,.22,.05,2.95,.68,6.75,.78,9.73,.79h13.74c3.08,0,6.97-.08,10.03-.73,.16-.03,.32-.07,.49-.11,.03-.01,.07-.02,.11-.03,.02,0,.04,0,.06,0,.19-.05,.39-.1,.58-.17,.06-.02,.13-.04,.19-.06,.18-.06,.35-.12,.51-.21,.11-.06,.21-.12,.3-.19s.18-.14,.24-.21c.09-.07,.16-.15,.22-.23,.07-.09,.14-.17,.2-.27,0,0,.02-.02,.02-.04,.06-.08,.12-.17,.18-.26,.23-.37,.44-.76,.62-1.15,.34-.75,.63-1.6,.78-2.41,.09-.52,.13-1.05,.14-1.57h1.59c.67,.04,1.28,.33,1.74,.79,.07,.06,.13,.13,.19,.2,.49,.57,.74,1.31,.74,2.05V59.65Z"/>
      <path class="cls-3" d="M51.02,10.02v8.9c0-.74-.25-1.48-.74-2.05-.06-.07-.12-.14-.19-.2-.46-.46-1.07-.75-1.74-.79h-1.59c.01-.31,.01-.61,.01-.92v-4.61s-.01-.11-.01-.16h0c0-.09-.01-.17-.03-.26-.04-.2-.11-.37-.23-.51-.05-.04-.09-.09-.15-.13-.18-.14-.4-.24-.62-.31v-2.03c0-.3-.12-.58-.31-.79-.2-.21-.47-.34-.78-.34H6.39c-.31,0-.58,.13-.78,.34-.19,.21-.31,.49-.31,.79v2.03c-.12,.04-.24,.08-.35,.14-.15,.07-.29,.17-.4,.29-.18,.2-.25,.4-.28,.66-.01,.12-.02,.24-.02,.36v4.53c0,.31,0,.61,0,.92H1.33s-.04-.01-.06-.01-.04,0-.06,0c-.02,0-.05,0-.07-.01-.04,0-.08,0-.13-.03-.04-.01-.08-.02-.13-.04l-.12-.06s-.08-.05-.12-.07c-.08-.06-.16-.12-.23-.19s-.13-.14-.18-.22c-.03-.04-.05-.09-.07-.13-.03-.04-.05-.08-.06-.13-.02-.04-.03-.09-.05-.13,0-.02-.01-.04-.01-.07-.01-.02-.01-.04-.02-.06,0-.02-.01-.05-.01-.07s0-.04,0-.06V1.25H0v-.02H0v-.21s0-.08,0-.12c.01-.03,.01-.07,.01-.11,0-.08,.02-.15,.04-.22,0-.04,.01-.07,.02-.11,.01-.03,.01-.06,.02-.09l.03-.09s.02-.05,.03-.07c.01-.03,.02-.05,.03-.07,0,0,0-.02,.02-.03,0,0,.01-.01,.01-.02,.01-.01,.02-.01,.02-.02l.02-.02h.01s.02-.02,.02-.03h.02s0,0,.01,0h.02s0-.01,0-.01H50.69s0,.01,0,.01h.02s.01,0,.01,0c0,.01,.01,.01,.02,.02h0s.01,.02,.02,.03c0,0,.01,0,.02,.02,0,0,.01,.02,.01,.02,.01,0,.01,.02,.02,.03,.01,.02,.02,.04,.03,.07,0,.02,.02,.04,.03,.07l.03,.09s0,.06,.02,.09c0,.04,.02,.07,.02,.11,.02,.07,.03,.14,.04,.22,0,.04,0,.08,0,.11,0,.04,0,.08,.01,.12v.2h0v.02h0V10.02Z"/>
      <path class="cls-3" d="M50.97,59.95s.03-.06,.03-.1c0,.03-.01,.07-.03,.1Z"/>
      <path class="cls-3" d="M50.68,60.33c.1-.07,.18-.16,.24-.27-.05,.11-.14,.2-.24,.27Z"/>
      <path class="cls-3" d="M50.38,60.49c.06-.02,.11-.04,.17-.07-.06,.02-.11,.05-.17,.07Z"/>
      <path class="cls-3" d="M50.06,60.57c.08-.01,.15-.03,.23-.05-.07,.02-.15,.04-.23,.05Z"/>
      <path class="cls-3" d="M46.77,10.58v4.38c0,.31,0,.61-.01,.92,0,.52-.05,1.05-.14,1.57-.15,.81-.44,1.66-.78,2.41-.18,.39-.39,.78-.62,1.15-.06,.09-.12,.18-.18,.26,0,.02-.01,.03-.02,.04-.06,.1-.13,.18-.2,.27-.06,.08-.13,.16-.22,.23-.07,.08-.15,.15-.24,.21-.09,.07-.19,.13-.3,.19-.16,.09-.33,.15-.51,.21-.06,.02-.13,.04-.19,.06-.2,.06-.39,.11-.58,.16-.02,.01-.04,.01-.06,.02-.04,.01-.08,.02-.11,.03-.17,.04-.33,.08-.49,.11-3.06,.65-6.95,.74-10.03,.73h-13.74c-2.98-.01-6.78-.11-9.73-.79-.07-.02-.15-.04-.22-.05-.03-.01-.07-.02-.1-.03-.02,0-.04,0-.06,0-.25-.07-.52-.14-.77-.23-.13-.04-.24-.09-.36-.14h-.01c-.11-.05-.21-.11-.31-.17,0,0-.01,0-.01-.01-.1-.06-.19-.13-.28-.21-.01,0-.01,0-.01,0-.09-.08-.18-.17-.26-.27-.09-.1-.17-.21-.25-.33-.11-.16-.21-.32-.31-.49-.2-.35-.39-.7-.55-1.07-.32-.71-.59-1.54-.73-2.31-.09-.51-.12-1.02-.13-1.53,0-.31,0-.61,0-.92v-4.53c0-.12,0-.24,.02-.36,.03-.26,.1-.46,.28-.66,.11-.12,.25-.22,.4-.29,.11-.06,.23-.1,.35-.14,.04-.01,.07-.02,.11-.03,.07-.02,.13-.04,.2-.05,.49-.11,1.01-.15,1.49-.18,.49-.02,.98,0,1.47,0H42.16c.38,0,.76-.01,1.14,0,.65,0,1.34,.03,1.98,.16,.04,.01,.08,.02,.13,.03,.1,.02,.21,.05,.31,.08,.22,.07,.44,.17,.62,.31,.06,.04,.1,.09,.15,.13,.12,.14,.19,.31,.23,.51,.02,.09,.03,.17,.03,.26h0s.01,.11,.01,.16v.23Z"/>
      <path class="cls-3" d="M45.72,6.95v2.03c-.1-.03-.21-.06-.31-.08v-2.74c.19,.21,.31,.49,.31,.79Z"/>
      <path class="cls-3" d="M45.41,6.16v2.74c-.05-.01-.09-.02-.13-.03-.64-.13-1.33-.16-1.98-.16-.38-.01-.76,0-1.14,0H8.57c-.49,0-.98-.01-1.47,0-.48,.03-1,.07-1.49,.18v-2.74c.2-.21,.47-.34,.78-.34H44.63c.31,0,.58,.13,.78,.34Z"/>
      <path class="cls-3" d="M44.36,22.02c.09-.06,.17-.13,.24-.21-.06,.07-.15,.14-.24,.21Z"/>
      <path class="cls-3" d="M42.78,22.64c.19-.05,.38-.1,.58-.16-.19,.07-.39,.12-.58,.17-.02,0-.04,0-.06,0,.02,0,.04,0,.06-.02Z"/>
      <path class="cls-3" d="M7.47,22.42h-.02c-.12-.04-.23-.09-.34-.14,.12,.05,.23,.1,.36,.14Z"/>
      <path class="cls-3" d="M5.61,6.16v2.74c-.07,0-.13,.03-.2,.05-.04,.01-.07,.02-.11,.03v-2.03c0-.3,.12-.58,.31-.79Z"/>
      <path class="cls-3" d="M1.02,60.57h-.07s-.07-.01-.11-.02c.06,0,.12,.02,.18,.02Z"/>
      <path class="cls-3" d="M.67,60.5c.06,.02,.11,.04,.17,.05-.06-.01-.11-.03-.17-.05Z"/>
      <path class="cls-3" d="M.36,60.34s-.05-.03-.07-.05c-.03-.02-.05-.04-.07-.07,.04,.05,.09,.09,.14,.12Z"/>
      <path class="cls-3" d="M.04,59.93c.01,.05,.03,.09,.06,.14-.03-.04-.05-.09-.06-.14Z"/>
      <path class="cls-3" d="M.01,59.78s.01,.1,.03,.15c-.02-.05-.03-.1-.03-.15Z"/>
    </g>
    <g>
      <line class="cls-2" x1="32.09" y1="61.21" x2="18.35" y2="61.2"/>
      <line class="cls-2" x1="32.09" y1="23.53" x2="18.35" y2="23.53"/>
      <line class="cls-2" x1="32.09" y1="8.71" x2="18.35" y2="8.71"/>
      <line class="cls-2" x1="32.09" y1="5.82" x2="18.35" y2="5.82"/>
      <line class="cls-2" x1="32.09" y1="0" x2="18.35" y2="0"/>
      <line class="cls-2" x1="51.02" y1="59.72" x2="52.44" y2="59.72"/>
      <path class="cls-2" d="M46.25,14.53c0-.17-.01-.34-.02-.51-.01-.25-.03-.5-.05-.77,0-.11,0-.22-.02-.33,0-.08-.01-.17-.01-.26-.01-.09-.01-.18-.02-.27,0-.07,0-.14-.01-.21,0-.07,0-.14,0-.21,0-.04,0-.09-.01-.14v-.14c0-.1-.02-.19-.03-.29,0-.09-.01-.19-.03-.29-.01-.09-.02-.19-.04-.28-.01-.07-.03-.14-.04-.2-.02-.07-.03-.13-.05-.19-.01-.06-.03-.11-.05-.16l-.03-.09-.06-.15s-.05-.09-.07-.13-.04-.08-.06-.11c-.03-.03-.05-.07-.07-.1s-.04-.05-.07-.08c-.02-.03-.04-.05-.07-.07-.02-.03-.05-.05-.07-.07-.01,0-.01-.01-.02-.01"/>
      <line class="cls-2" x1="45.41" y1="8.9" x2="45.41" y2="6.16"/>
      <path class="cls-2" d="M46.76,15.88h1.59c.67,.04,1.28,.33,1.74,.79,.07,.06,.13,.13,.19,.2,.49,.57,.74,1.31,.74,2.05"/>
      <path class="cls-2" d="M50.29,60.52c-.08,.02-.15,.04-.23,.05-.1,0-.2,.02-.31,.02-.14,0-.27,0-.4,.02-1.3,.07-2.59,.14-3.88,.21-.79,.04-1.58,.08-2.37,.11-.79,.04-1.58,.06-2.37,.09-.08,0-.17,.01-.25,.01-.69,.02-1.39,.04-2.09,.06-.64,.02-1.29,.04-1.94,.05-.1,0-.2,.01-.3,.01-.19,0-.39,0-.59,0-.39,.01-.78,.01-1.17,.02-.77,.01-1.54,.02-2.3,.03"/>
      <path class="cls-2" d="M50.55,60.42c-.06,.02-.11,.05-.17,.07"/>
      <path class="cls-2" d="M50.92,60.06c-.06,.11-.14,.2-.24,.27"/>
      <path class="cls-2" d="M51,59.85s-.01,.07-.03,.1"/>
      <path class="cls-2" d="M51.02,18.92V58.3"/>
      <path class="cls-2" d="M51.02,58.3v1.41h0"/>
      <path class="cls-2" d="M51.02,59.72c0,.05-.01,.09-.02,.13"/>
      <path class="cls-2" d="M50.97,59.95s.03-.06,.03-.1"/>
      <path class="cls-2" d="M50.97,59.95s-.01,.03-.01,.05c-.01,.01-.01,.03-.02,.04,0,.01-.01,.01-.02,.02"/>
      <path class="cls-2" d="M50.68,60.33c.1-.07,.19-.16,.24-.27"/>
      <path class="cls-2" d="M50.68,60.33s-.09,.06-.13,.09"/>
      <path class="cls-2" d="M50.38,60.49c.06-.02,.11-.04,.17-.07"/>
      <path class="cls-2" d="M50.38,60.49s-.03,.01-.05,.02c-.01,0-.03,0-.04,0"/>
      <path class="cls-2" d="M50.06,60.57c.08-.01,.16-.03,.23-.05"/>
      <path class="cls-2" d="M50.68,0h.01s0,.01,0,.01h.02s.01,0,.01,0c0,.01,.01,.01,.02,.02h0s.01,.02,.02,.03c0,0,.01,0,.02,.02,0,0,.01,.02,.01,.02,.01,0,.01,.02,.02,.03,.01,.02,.02,.04,.03,.07,0,.02,.02,.04,.03,.07l.03,.09s0,.06,.02,.09c0,.04,.02,.07,.02,.11,.02,.07,.03,.14,.04,.22,0,.04,0,.08,0,.11,0,.04,0,.08,.01,.12v.2h0v.02h0V18.92"/>
      <path class="cls-2" d="M44.36,22.02c.09-.07,.18-.14,.24-.21"/>
      <path class="cls-2" d="M32.09,23.53c3.08,0,6.97-.08,10.03-.73,.16-.03,.32-.07,.49-.11,.03-.01,.07-.02,.11-.03,.02,0,.04,0,.06,0,.19-.05,.39-.1,.58-.17"/>
      <path class="cls-2" d="M43.36,22.48c-.2,.06-.39,.11-.58,.16-.02,.01-.04,.01-.06,.02"/>
      <path class="cls-2" d="M43.36,22.48c.06-.02,.13-.04,.19-.06,.18-.06,.35-.12,.51-.21,.11-.06,.21-.12,.3-.19"/>
      <path class="cls-2" d="M44.6,21.81c-.07,.08-.15,.15-.24,.21"/>
      <path class="cls-2" d="M44.6,21.81c.09-.07,.16-.15,.22-.23,.07-.09,.14-.17,.2-.27,0,0,.02-.02,.02-.04,.06-.08,.12-.17,.18-.26,.23-.37,.44-.76,.62-1.15,.34-.75,.63-1.6,.78-2.41,.09-.52,.13-1.05,.14-1.57"/>
      <path class="cls-2" d="M46.76,15.88c.01-.31,.01-.61,.01-.92v-4.61s-.01-.11-.01-.16h0c0-.09-.01-.17-.03-.26-.04-.2-.11-.37-.23-.51-.05-.04-.09-.09-.15-.13-.18-.14-.4-.24-.62-.31"/>
      <path class="cls-2" d="M45.72,8.98c-.1-.03-.21-.06-.31-.08"/>
      <path class="cls-2" d="M45.41,8.9c-.05-.01-.09-.02-.13-.03-.64-.13-1.33-.16-1.98-.16-.38-.01-.76,0-1.14,0h-10.07"/>
      <path class="cls-2" d="M32.09,5.82h12.54c.31,0,.58,.13,.78,.34,.19,.21,.31,.49,.31,.79v2.03"/>
      <path class="cls-2" d="M5.68,9.47s0,.01-.02,.01c-.03,.02-.05,.04-.07,.07-.03,.02-.05,.04-.07,.07-.03,.03-.05,.05-.07,.08s-.05,.07-.07,.1-.04,.07-.06,.11c-.03,.04-.05,.09-.07,.13l-.06,.15-.03,.09s-.04,.1-.05,.16c-.02,.06-.03,.12-.05,.19-.01,.06-.03,.13-.04,.2-.02,.09-.03,.19-.04,.28-.02,.1-.03,.2-.03,.29,0,.1-.02,.19-.03,.29v.14c-.01,.05-.01,.1-.01,.14-.01,.07-.01,.14-.01,.21-.01,.07-.01,.14-.01,.21-.01,.09-.01,.18-.02,.27,0,.09,0,.18,0,.26-.01,.11-.02,.22-.02,.33-.02,.27-.04,.52-.05,.77-.01,.17-.02,.34-.02,.51"/>
      <line class="cls-2" x1="5.61" y1="8.9" x2="5.61" y2="6.16"/>
      <path class="cls-2" d="M4.25,15.88H1.33s-.04-.01-.06-.01-.04,0-.06,0c-.02,0-.05,0-.07-.01-.04,0-.08,0-.13-.03-.04-.01-.08-.02-.13-.04l-.12-.06s-.08-.05-.12-.07c-.08-.06-.16-.12-.23-.19s-.13-.14-.18-.22c-.03-.04-.05-.09-.07-.13-.03-.04-.05-.08-.06-.13-.02-.04-.03-.09-.05-.13,0-.02-.01-.04-.01-.07-.01-.02-.01-.04-.02-.06,0-.02-.01-.05-.01-.07s0-.04,0-.06"/>
      <path class="cls-2" d="M.67,60.5c.06,.02,.11,.04,.17,.05,.04,0,.07,.02,.11,.02h.07c.05,0,.09,0,.14,0,.07,0,.15,.01,.23,.01,.13,0,.26,.02,.39,.02,1.23,.07,2.46,.14,3.7,.2,1.53,.08,3.05,.15,4.58,.2,.1,0,.2,0,.3,0,.24,.01,.49,.02,.73,.03,.72,.02,1.43,.04,2.14,.06,.37,0,.74,.02,1.12,.03h.25c.18,.01,.37,.01,.55,.01,.36,0,.72,.02,1.08,.02,.71,.02,1.42,.02,2.12,.03"/>
      <path class="cls-2" d="M.22,60.22s.04,.05,.07,.07c.02,.02,.04,.04,.07,.05"/>
      <path class="cls-2" d="M.01,59.78s.01,.1,.03,.15c.01,.05,.03,.1,.06,.14"/>
      <path class="cls-2" d="M0,14.59V59.69H0v.06s0,.02,0,.03"/>
      <path class="cls-2" d="M.1,60.07c-.03-.05-.05-.09-.06-.14-.02-.05-.03-.1-.03-.15"/>
      <path class="cls-2" d="M.1,60.07s.01,0,.01,.02c.03,.05,.07,.09,.11,.13"/>
      <path class="cls-2" d="M.36,60.34c-.05-.03-.1-.07-.14-.12"/>
      <path class="cls-2" d="M.36,60.34s.05,.04,.08,.06c.04,.02,.07,.04,.11,.06,.02,0,.03,0,.05,.02s.05,.02,.07,.02"/>
      <path class="cls-2" d="M1.02,60.57c-.06,0-.12-.01-.18-.02s-.11-.03-.17-.05"/>
      <path class="cls-2" d="M0,14.59V1.25H0v-.02H0v-.21s0-.08,0-.12c.01-.03,.01-.07,.01-.11,0-.08,.02-.15,.04-.22,0-.04,.01-.07,.02-.11,.01-.03,.01-.06,.02-.09l.03-.09s.02-.05,.03-.07c.01-.03,.02-.05,.03-.07,0,0,0-.02,.02-.03,0,0,.01-.01,.01-.02,.01-.01,.02-.01,.02-.02l.02-.02h.01s.02-.02,.02-.03h.02s0,0,.01,0h.02s0-.01,0-.01H18.35"/>
      <path class="cls-2" d="M18.35,23.53c-2.98-.01-6.78-.11-9.73-.79-.07-.02-.15-.04-.22-.05-.03-.01-.07-.02-.1-.03-.02,0-.04,0-.06,0-.25-.07-.52-.14-.77-.23h-.02c-.12-.04-.23-.09-.34-.14"/>
      <path class="cls-2" d="M7.11,22.28c.12,.05,.23,.1,.36,.14"/>
      <path class="cls-2" d="M7.11,22.28h-.01c-.11-.05-.21-.11-.31-.17,0,0-.01,0-.01-.01-.1-.06-.19-.13-.28-.21-.01,0-.01,0-.01,0-.09-.08-.18-.17-.26-.27-.09-.1-.17-.21-.25-.33-.11-.16-.21-.32-.31-.49-.2-.35-.39-.7-.55-1.07-.32-.71-.59-1.54-.73-2.31-.09-.51-.12-1.02-.13-1.53"/>
      <path class="cls-2" d="M4.26,15.88c0-.31,0-.61,0-.92v-4.53c0-.12,0-.24,.02-.36,.03-.26,.1-.46,.28-.66,.11-.12,.25-.22,.4-.29,.11-.06,.23-.1,.35-.14"/>
      <path class="cls-2" d="M5.3,8.98s.07-.02,.11-.03c.07-.02,.13-.04,.2-.05"/>
      <path class="cls-2" d="M5.61,8.9c.49-.11,1.01-.15,1.49-.18,.49-.02,.98,0,1.47,0h9.78"/>
      <path class="cls-2" d="M18.35,5.82H6.39c-.31,0-.58,.13-.78,.34"/>
      <path class="cls-2" d="M5.3,8.98v-2.03c0-.3,.12-.58,.31-.79"/>
      <path class="cls-2" d="M51.02,58.3c0,.39,.16,.75,.42,1.01,.26,.25,.61,.41,1,.41"/>
      <path class="cls-2" d="M32.09,0h25.45c1.96,0,3.73,.79,5.02,2.08s2.07,3.05,2.07,5.01V52.64c0,3.91-3.18,7.08-7.09,7.08h-5.1"/>
    </g>
  </g>
  <text class="cls-1" transform="translate(19.41 42.11)"><tspan x="0" y="0">90</tspan></text>
</svg>