<?xml version="1.0" encoding="UTF-8"?>
<svg id="_03_LINEA_FINA" data-name="03_LINEA FINA" xmlns="http://www.w3.org/2000/svg" viewBox="0 0 75.97 61.23">
  <defs>
    <style>
      .cls-1 {
        font-family: Inter18pt-Medium, 'Inter 18pt';
        font-size: 10px;
      }

      .cls-2 {
        fill: none;
        stroke: #404041;
        stroke-linecap: round;
        stroke-linejoin: round;
        stroke-width: .35px;
      }

      .cls-3 {
        fill: #f1f1f2;
      }
    </style>
  </defs>
  <g>
    <g>
      <path class="cls-3" d="M13.6,58.4V18.9c0-.73,.26-1.47,.75-2.03,.48-.57,1.17-.94,1.92-.99h1.6c0,.3,.02,.61,.05,.91,.04,.42,.11,.82,.21,1.22,.27,1.06,.72,2.13,1.31,3.05,.05,.07,.1,.15,.15,.22,0,0,0,.02,0,.02,.16,.24,.34,.46,.56,.64,.36,.29,.75,.44,1.18,.57,.18,.05,.36,.1,.55,.15,.03,0,.06,.01,.09,.02,.13,.03,.27,.06,.4,.09,.29,.07,.57,.12,.86,.17,.66,.12,1.32,.21,1.98,.28,2.13,.24,4.26,.3,6.4,.31h.5c1.97,0,3.94,0,5.91,0h13.51c1.97,0,3.94,0,5.91,0h.5c2.14-.01,4.27-.07,6.4-.31,.66-.07,1.32-.16,1.98-.28,.29-.05,.57-.1,.86-.17,.13-.03,.26-.06,.4-.09,.03,0,.06-.02,.09-.02,.11-.03,.21-.06,.32-.09,.41-.11,.81-.23,1.18-.47,.34-.2,.57-.48,.79-.79,0,0,.01-.02,.01-.03,.05-.07,.1-.15,.15-.22,.59-.92,1.04-1.99,1.31-3.04,.1-.41,.17-.81,.22-1.23,.03-.3,.04-.61,.04-.91h2.93s.04-.01,.06-.01c.03,0,.05,0,.07,0,.02,0,.04,0,.06-.01,.04,0,.09,0,.13-.03,.04-.01,.09-.02,.13-.04s.09-.04,.13-.06,.08-.05,.12-.07c.08-.06,.16-.12,.22-.19,.07-.07,.13-.14,.19-.22,.02-.04,.05-.09,.07-.13s.04-.08,.06-.13c.01-.04,.03-.09,.04-.13,.01-.02,.01-.04,.02-.07,0-.02,.01-.04,.01-.06,0-.02,0-.05,0-.07,.01-.02,.01-.04,.01-.06v-.03s0-.03,0-.04V59.7c0,.05,0,.1-.02,.15-.06,.3-.31,.51-.57,.62-.23,.1-.46,.1-.7,.12-.07,0-.15,0-.22,0-.61,.03-1.21,.07-1.81,.1-1.28,.07-2.56,.14-3.83,.19-1.03,.05-2.06,.09-3.1,.13h-.14c-.63,.03-1.26,.04-1.89,.06-.72,.02-1.45,.04-2.17,.06-.1,0-.2,0-.3,.01-.18,0-.36,0-.53,0-.35,0-.7,.01-1.05,.02-3.06,.04-6.12,.05-9.18,.05h-11.92c-2.97,0-5.92-.01-8.88-.06-.35-.01-.7-.01-1.05-.02-.19,0-.38-.01-.58-.01-.79-.02-1.59-.04-2.39-.07-.55-.01-1.1-.03-1.66-.05h-.14c-.09,0-.18,0-.28,0-1.12-.04-2.23-.09-3.35-.14-1.27-.06-2.53-.13-3.8-.2-.31-.02-.63-.03-.95-.05l-.48-.03h-.12c-.05-.01-.09-.01-.14-.01-.29-.02-.54-.07-.78-.25-.13-.1-.22-.21-.28-.36-.04-.09-.05-.17-.05-.25-.01-.09-.01-.18-.01-.26v-1.06Z"/>
      <path class="cls-3" d="M75.97,14.51h0s0,.03,0,.05v.03s0,.04-.01,.06c0,.02,0,.05,0,.07,0,.02-.01,.04-.01,.06,0,.03,0,.05-.02,.07,0,.04-.03,.09-.04,.13-.02,.05-.04,.09-.06,.13s-.05,.09-.07,.13c-.06,.08-.12,.15-.19,.22-.06,.07-.14,.13-.22,.19-.04,.02-.08,.05-.12,.07s-.09,.04-.13,.06-.09,.03-.13,.04c-.04,.02-.09,.03-.13,.03-.02,.01-.04,.01-.06,.01-.02,0-.04,0-.07,0-.02,0-.04,.01-.06,.01h-2.93c.01-.31,.01-.61,.01-.92,0-1.48,0-2.95,0-4.43v-.27c-.01-.18-.03-.34-.09-.51-.15-.41-.5-.61-.88-.74-.03-.01-.05-.02-.08-.03v-2.03c0-.3-.12-.58-.31-.79s-.46-.34-.77-.34H19.99c-.31,0-.58,.13-.77,.34-.2,.21-.31,.49-.31,.79v2.03s-.05,.02-.08,.03c-.38,.13-.73,.33-.88,.74-.06,.17-.08,.33-.09,.51v.27c-.01,1.48,0,2.95,0,4.43,0,.31,0,.61,0,.92h-1.6c-.75,.05-1.44,.42-1.92,.99-.49,.56-.75,1.3-.75,2.03,0-2.96,.01-5.92,.01-8.88v-.06s-.01-.02-.01-.03V1.25h0v-.02h0v-.04s.01-.04,.01-.06v-.11s0-.08,0-.12c0-.03,.01-.07,.01-.11,0-.08,.02-.15,.03-.22,.01-.04,.02-.07,.02-.11l.03-.09,.03-.09s.02-.05,.03-.07c0-.03,.02-.05,.03-.07,0,0,0-.02,0-.03,.01,0,.02-.01,.02-.02l.02-.02s.01-.01,.01-.02c0,0,.02-.01,.02-.01l.02-.02h.02s0,0,0,0h.03s.02-.01,.03-.01h61.64s0,.01,0,.01h.02s0,0,.01,0c0,.01,.02,.01,.02,.02,0,0,0,.01,.02,.01,0,0,0,0,0,.02,.01,0,.02,0,.02,.02,.01,0,.01,.02,.02,.02,0,0,.01,.02,.01,.03,0,.02,.02,.04,.03,.07,0,.02,.02,.04,.03,.07l.03,.09,.03,.09s.01,.07,.02,.11c.01,.07,.02,.14,.03,.22,0,.04,0,.08,0,.11,.01,.04,.01,.08,.01,.12s0,.08,0,.11v.09h0v.02h0V14.46h0v.02h0v.03Z"/>
      <path class="cls-3" d="M70.35,8.89c.1,.03,.21,.06,.31,.09,.03,0,.05,.02,.08,.03,.38,.13,.73,.33,.88,.74,.06,.17,.08,.33,.09,.51v.27c0,1.48,0,2.95,0,4.43,0,.31,0,.61-.01,.92,0,.3,0,.61-.04,.91-.05,.42-.12,.82-.22,1.23-.27,1.05-.72,2.12-1.31,3.04-.05,.07-.1,.15-.15,.22,0,0-.01,.02-.01,.03-.22,.31-.45,.59-.79,.79-.37,.24-.77,.36-1.18,.47-.11,.03-.21,.06-.32,.09-.03,0-.06,.01-.09,.02-.14,.03-.27,.06-.4,.09-.29,.07-.57,.12-.86,.17-.66,.12-1.32,.21-1.98,.28-2.13,.24-4.26,.3-6.4,.31h-.5c-1.97,0-3.94,0-5.91,0h-13.51c-1.97,0-3.94,0-5.91,0h-.5c-2.14-.01-4.27-.07-6.4-.31-.66-.07-1.32-.16-1.98-.28-.29-.05-.57-.1-.86-.17-.13-.03-.27-.06-.4-.09-.03,0-.06-.02-.09-.02-.19-.05-.37-.1-.55-.15-.43-.13-.82-.28-1.18-.57-.22-.18-.4-.4-.56-.64,0,0,0-.01,0-.02-.05-.07-.1-.15-.15-.22-.59-.92-1.04-1.99-1.31-3.05-.1-.4-.17-.8-.21-1.22-.03-.3-.05-.61-.05-.91,0-.31,0-.61,0-.92,0-1.48-.01-2.95,0-4.43v-.27c0-.18,.03-.34,.09-.51,.15-.41,.5-.61,.88-.74,.03-.01,.05-.02,.08-.03,.1-.03,.2-.06,.31-.08h0c.19-.05,.39-.08,.59-.11,.47-.06,.95-.08,1.43-.08,.51-.01,1.02,0,1.54,0h44.02c.51,0,1.02-.01,1.54,0,.47,0,.95,.02,1.42,.08,.2,.03,.4,.06,.59,.1Z"/>
      <path class="cls-3" d="M70.66,6.95v2.03c-.1-.03-.21-.06-.31-.09v-2.73c.19,.21,.31,.49,.31,.79Z"/>
      <path class="cls-3" d="M70.35,6.16v2.73c-.19-.04-.39-.07-.59-.1-.47-.06-.95-.08-1.42-.08-.52-.01-1.03,0-1.54,0H22.78c-.52,0-1.03-.01-1.54,0-.48,0-.96,.02-1.43,.08-.2,.03-.4,.06-.59,.1v-2.73c.19-.21,.46-.34,.77-.34h49.59c.31,0,.58,.13,.77,.34Z"/>
      <path class="cls-3" d="M19.22,6.16v2.73h0c-.11,.03-.21,.06-.31,.09v-2.03c0-.3,.11-.58,.31-.79Z"/>
      <path class="cls-3" d="M13.95,0h0s0,.01-.01,.01h-.03s-.01,.02-.02,.03c0,0-.01,.01-.02,.01,0,0-.01,0-.01,.02l-.02,.02s0,.02-.02,.02c0,0,0,.02,0,.03-.01,.02-.02,.04-.03,.07-.01,.02-.02,.04-.03,.07l-.03,.09-.03,.09s0,.07-.02,.11c0,.07-.02,.14-.03,.22,0,.04-.01,.08-.01,.11,0,.04,0,.08,0,.12v.11s0,.04-.01,.06v.03h0v.02h0V9.93s0,.02,.01,.03v.06c0,2.96-.01,5.92-.01,8.88V58.4c-.05,.74-.66,1.32-1.41,1.32H7.09C3.17,59.72,0,56.55,0,52.64V7.09C0,3.18,3.17,0,7.08,0h6.87Z"/>
      <path class="cls-3" d="M13.6,59.46c0,.08,0,.17,.01,.26h-1.42c.75,0,1.36-.58,1.41-1.32v1.06Z"/>
    </g>
    <g>
      <path class="cls-2" d="M17.86,15.88h-1.59c-.75,.05-1.44,.42-1.92,.99-.49,.56-.75,1.3-.75,2.03"/>
      <path class="cls-2" d="M70.66,8.98v-2.03c0-.3-.12-.58-.31-.79s-.46-.34-.77-.34H19.99c-.31,0-.58,.13-.77,.34-.2,.21-.31,.49-.31,.79v2.03"/>
      <path class="cls-2" d="M13.61,58.3s0,.07-.01,.1c-.05,.74-.66,1.32-1.41,1.32H7.09C3.17,59.72,0,56.55,0,52.64V7.09C0,3.18,3.17,0,7.08,0h6.87"/>
      <path class="cls-2" d="M39.12,61.23h11.34c3.06,0,6.12-.01,9.18-.05,.35,0,.7-.02,1.05-.02,.17,0,.35,0,.53,0,.1-.01,.2-.01,.3-.01,.72-.02,1.45-.04,2.17-.06,.63-.02,1.26-.03,1.89-.06h.14c1.04-.04,2.07-.08,3.1-.13,1.27-.05,2.55-.12,3.83-.19,.6-.03,1.2-.07,1.81-.1,.07,0,.15,0,.22,0,.24-.02,.47-.02,.7-.12,.26-.11,.51-.32,.57-.62,.01-.05,.02-.1,.02-.15V14.52"/>
      <path class="cls-2" d="M39.12,61.23h-.58c-2.97,0-5.92-.01-8.88-.06-.35-.01-.7-.01-1.05-.02-.19,0-.38-.01-.58-.01-.79-.02-1.59-.04-2.39-.07-.55-.01-1.1-.03-1.66-.05h-.14c-.09,0-.18,0-.28,0-1.12-.04-2.23-.09-3.35-.14-1.27-.06-2.53-.13-3.8-.2-.31-.02-.63-.03-.95-.05l-.48-.03h-.12c-.05-.01-.09-.01-.14-.01-.29-.02-.54-.07-.78-.25-.13-.1-.22-.21-.28-.36-.04-.09-.05-.17-.05-.25-.01-.09-.01-.18-.01-.26V18.9c0-2.96,.01-5.92,.01-8.88v-.06s-.01-.02-.01-.03V1.25h0v-.02h0v-.04s.01-.04,.01-.06v-.11s0-.08,0-.12c0-.03,.01-.07,.01-.11,0-.08,.02-.15,.03-.22,.01-.04,.02-.07,.02-.11l.03-.09,.03-.09s.02-.05,.03-.07c0-.03,.02-.05,.03-.07,0,0,0-.02,0-.03,.01,0,.02-.01,.02-.02l.02-.02s.01-.01,.01-.02c0,0,.02-.01,.02-.01l.02-.02h.02s0,0,0,0h.03s.02-.01,.03-.01h61.64s0,.01,0,.01h.02s0,0,.01,0c0,.01,.02,.01,.02,.02,0,0,0,.01,.02,.01,0,0,0,0,0,.02,.01,0,.02,0,.02,.02,.01,0,.01,.02,.02,.02,0,0,.01,.02,.01,.03,0,.02,.02,.04,.03,.07,0,.02,.02,.04,.03,.07l.03,.09,.03,.09s.01,.07,.02,.11c.01,.07,.02,.14,.03,.22,0,.04,0,.08,0,.11,.01,.04,.01,.08,.01,.12s0,.08,0,.11v.09h0v.02h0v3.35"/>
      <path class="cls-2" d="M19.22,8.89c.19-.04,.39-.07,.59-.1,.47-.06,.95-.08,1.43-.08,.51-.01,1.02,0,1.54,0h44.02c.51,0,1.02-.01,1.54,0,.47,0,.95,.02,1.42,.08,.2,.03,.4,.06,.59,.1,.1,.03,.21,.06,.31,.09,.03,0,.05,.02,.08,.03,.38,.13,.73,.33,.88,.74,.06,.17,.08,.33,.09,.51v.27c0,1.48,0,2.95,0,4.43,0,.31,0,.61-.01,.92,0,.3,0,.61-.04,.91-.05,.42-.12,.82-.22,1.23-.27,1.05-.72,2.12-1.31,3.04-.05,.07-.1,.15-.15,.22,0,0-.01,.02-.01,.03-.22,.31-.45,.59-.79,.79-.37,.24-.77,.36-1.18,.47-.11,.03-.21,.06-.32,.09-.03,0-.06,.01-.09,.02-.14,.03-.27,.06-.4,.09-.29,.07-.57,.12-.86,.17-.66,.12-1.32,.21-1.98,.28-2.13,.24-4.26,.3-6.4,.31h-.5c-1.97,0-3.94,0-5.91,0h-13.51c-1.97,0-3.94,0-5.91,0h-.5c-2.14-.01-4.27-.07-6.4-.31-.66-.07-1.32-.16-1.98-.28-.29-.05-.57-.1-.86-.17-.13-.03-.27-.06-.4-.09-.03,0-.06-.02-.09-.02-.19-.05-.37-.1-.55-.15-.43-.13-.82-.28-1.18-.57-.22-.18-.4-.4-.56-.64,0,0,0-.01,0-.02-.05-.07-.1-.15-.15-.22-.59-.92-1.04-1.99-1.31-3.05-.1-.4-.17-.8-.21-1.22-.03-.3-.05-.61-.05-.91,0-.31,0-.61,0-.92,0-1.48-.01-2.95,0-4.43v-.27c0-.18,.03-.34,.09-.51,.15-.41,.5-.61,.88-.74,.03-.01,.05-.02,.08-.03,.1-.03,.2-.06,.31-.08"/>
      <polyline class="cls-2" points="19.22 6.16 19.22 8.89 19.22 8.9"/>
      <path class="cls-2" d="M19.29,9.47s-.02,.01-.02,.01c-.03,.02-.05,.04-.08,.07l-.07,.07s-.04,.05-.06,.08c-.03,.03-.05,.07-.07,.1s-.04,.07-.06,.11c-.03,.04-.05,.09-.07,.13l-.06,.15-.03,.09s-.04,.1-.05,.16c-.02,.06-.04,.12-.05,.19-.02,.06-.03,.13-.04,.2-.02,.09-.04,.19-.05,.28,0,.1-.02,.2-.03,.29-.01,.1-.01,.19-.02,.29,0,.05,0,.09,0,.14,0,.05,0,.1-.01,.14,0,.07,0,.14,0,.21,0,.07,0,.14-.01,.21,0,.09,0,.18,0,.27-.01,.09-.01,.18-.02,.26,0,.11-.01,.22-.02,.33-.02,.27-.03,.52-.04,.77l-.03,.51"/>
      <line class="cls-2" x1="12.19" y1="59.72" x2="13.61" y2="59.72"/>
      <path class="cls-2" d="M75.97,4.59V14.46h0v.02h0v.03h0s0,.03,0,.05v.03s0,.04-.01,.06c0,.02,0,.05,0,.07,0,.02-.01,.04-.01,.06,0,.03,0,.05-.02,.07,0,.04-.03,.09-.04,.13-.02,.05-.04,.09-.06,.13s-.05,.09-.07,.13c-.06,.08-.12,.15-.19,.22-.06,.07-.14,.13-.22,.19-.04,.02-.08,.05-.12,.07s-.09,.04-.13,.06-.09,.03-.13,.04c-.04,.02-.09,.03-.13,.03-.02,.01-.04,.01-.06,.01-.02,0-.04,0-.07,0-.02,0-.04,.01-.06,.01h-2.92"/>
      <polyline class="cls-2" points="70.35 6.16 70.35 8.89 70.35 8.9"/>
      <path class="cls-2" d="M70.28,9.47s.02,.01,.03,.01l.07,.07s.05,.04,.07,.07,.04,.05,.07,.08c.02,.03,.04,.07,.06,.1s.05,.07,.07,.11,.04,.09,.06,.13c.03,.05,.05,.1,.06,.15,.02,.03,.02,.06,.03,.09,.02,.05,.04,.1,.06,.16,0,.06,.03,.12,.04,.19,.02,.06,.03,.13,.04,.2,.02,.09,.04,.19,.05,.28,.01,.1,.02,.2,.03,.29,0,.1,0,.19,.02,.29,0,.05,.01,.09,.01,.14s0,.1,0,.14c0,.07,0,.14,.01,.21,0,.07,0,.14,0,.21,0,.09,.01,.18,.01,.27,0,.09,0,.18,.02,.26,0,.11,0,.22,.02,.33,.02,.27,.03,.52,.05,.77,0,.17,.01,.34,.02,.51"/>
    </g>
  </g>
  <text class="cls-1" transform="translate(36.33 42.11)"><tspan x="0" y="0">110</tspan></text>
</svg>