<?xml version="1.0" encoding="UTF-8"?>
<svg id="_03_LINEA_FINA" data-name="03_LINEA FINA" xmlns="http://www.w3.org/2000/svg" viewBox="0 0 75.97 61.23">
  <defs>
    <style>
      .cls-1 {
        font-family: Inter18pt-Medium, 'Inter 18pt';
        font-size: 10px;
      }

      .cls-2 {
        fill: none;
        stroke: #404041;
        stroke-linecap: round;
        stroke-linejoin: round;
        stroke-width: .35px;
      }

      .cls-3 {
        fill: #f1f1f2;
      }
    </style>
  </defs>
  <g>
    <g>
      <path class="cls-3" d="M75.97,7.09V52.64c0,3.91-3.17,7.08-7.08,7.08h-5.11c-.78,0-1.41-.63-1.41-1.42V1.25h0v-.02h0v-.1s0-.07,0-.11,0-.08-.01-.12c0-.03,0-.07-.01-.11-.01-.08-.02-.15-.03-.22-.01-.04-.02-.07-.02-.11l-.03-.09-.03-.09s-.01-.05-.03-.07c0-.03-.02-.05-.03-.07,0,0-.01-.02-.01-.03-.01,0-.01-.01-.02-.02,0-.01-.01-.01-.02-.02,0-.01,0-.01,0-.02-.01,0-.01-.01-.02-.01,0,0-.01,0-.02-.02t-.01,0h-.03c2.29-.01,4.57-.01,6.86-.01,3.91,0,7.08,3.18,7.08,7.09Z"/>
      <path class="cls-3" d="M63.78,59.72h-1.41v-1.42c0,.79,.63,1.42,1.41,1.42Z"/>
      <path class="cls-3" d="M62.37,59.46v.26c0,.08-.02,.16-.05,.25-.07,.15-.16,.26-.29,.36-.24,.18-.49,.23-.78,.25-.05,0-.09,0-.14,.01h-.11c-.17,0-.33,.02-.49,.03-.32,.02-.63,.03-.95,.05-1.27,.07-2.53,.14-3.8,.2-1.11,.05-2.23,.1-3.35,.14-.09,0-.19,0-.28,0h-.14c-.56,.02-1.11,.04-1.66,.05-.8,.03-1.6,.05-2.39,.07-.2,0-.39,.01-.58,.01-.35,0-.7,0-1.05,.02-2.96,.05-5.92,.06-8.88,.06h-11.91c-3.07,0-6.13-.01-9.19-.05-.35,0-.7-.02-1.05-.02-.17,0-.35,0-.53,0-.1-.01-.19-.01-.29-.01-.73-.02-1.46-.04-2.18-.06-.63-.02-1.26-.03-1.89-.06h-.14c-1.03-.04-2.07-.08-3.1-.13-1.27-.05-2.55-.12-3.82-.19-.61-.03-1.21-.07-1.82-.1-.07,0-.14,0-.22,0-.24-.02-.47-.02-.7-.12-.26-.11-.51-.32-.57-.62,0-.05,0-.1-.02-.15V14.48H0v.03H0v.08s0,.04,0,.06c0,.02,0,.05,.01,.07,0,.02,0,.04,0,.06,.01,.03,.01,.05,.02,.07,.01,.04,.03,.09,.04,.13,.02,.05,.04,.09,.06,.13s.05,.09,.08,.13c.05,.08,.11,.15,.18,.22s.14,.13,.22,.19c.04,.02,.08,.05,.12,.07,.05,.02,.09,.04,.13,.06s.09,.03,.13,.04c.04,.02,.09,.03,.13,.03,.02,.01,.04,.01,.06,.01,.02,0,.05,0,.07,0s.04,.01,.06,.01h2.93c0,.3,.02,.61,.05,.91,.04,.42,.11,.82,.21,1.23,.27,1.05,.73,2.12,1.31,3.04,.05,.07,.1,.15,.15,.22,0,0,.01,.02,.02,.03,.21,.31,.45,.59,.78,.79,.37,.24,.77,.36,1.19,.47,.1,.03,.21,.06,.31,.09,.03,0,.06,.01,.1,.02l.39,.09c.29,.07,.58,.12,.86,.17,.66,.12,1.32,.21,1.98,.28,2.13,.24,4.26,.3,6.4,.31h.5c1.97,0,3.94,0,5.91,0h13.51c1.97,0,3.94,0,5.91,0h.5c2.14-.01,4.27-.07,6.4-.31,.66-.07,1.32-.16,1.98-.28,.29-.05,.58-.1,.86-.17,.13-.03,.27-.06,.4-.09,.03,0,.06-.02,.09-.02,.19-.05,.37-.1,.55-.15,.43-.13,.83-.28,1.18-.57,.23-.18,.4-.4,.56-.64l.02-.02c.05-.07,.09-.15,.14-.22,.59-.92,1.04-1.99,1.31-3.05,.1-.4,.17-.8,.22-1.22,.03-.3,.04-.6,.05-.91h1.59c.75,.05,1.44,.42,1.93,.99,.48,.57,.74,1.31,.74,2.05V59.46Z"/>
      <path class="cls-3" d="M0,9.93V1.25H0v-.02H0s.01-.03,.01-.04v-.17s0-.08,0-.12c0-.03,.01-.07,.01-.11,0-.08,.02-.15,.03-.22,.01-.04,.02-.07,.02-.11l.03-.09,.03-.09s.02-.05,.03-.07c.01-.03,.02-.05,.03-.07,0,0,0-.02,0-.03,.01,0,.02-.01,.02-.02l.02-.02s.01-.01,.01-.02c0,0,.02-.01,.02-.01l.02-.02h.02s.01,0,.01,0h.03s.02-.01,.03-.01H62.03s.01,.01,.01,.01h.02s0,0,.01,0c.01,.01,.02,.01,.02,.02,.01,0,.01,.01,.02,.01,0,0,0,0,0,.02,.01,0,.02,0,.02,.02,.01,0,.01,.02,.02,.02,0,0,.01,.02,.01,.03,.01,.02,.02,.04,.03,.07,.02,.02,.03,.04,.03,.07l.03,.09,.03,.09s.01,.07,.02,.11c.01,.07,.02,.14,.03,.22,.01,.04,.01,.08,.01,.11,.01,.04,.01,.08,.01,.12s0,.08,0,.11v.09h0v.02h0V18.92c0-.74-.26-1.48-.74-2.05-.49-.57-1.18-.94-1.93-.99h-1.59c0-.3,0-.61,0-.92,0-1.48,0-2.95,0-4.43v-.27c-.01-.18-.03-.34-.09-.51-.15-.41-.5-.61-.88-.74-.03-.01-.05-.02-.08-.03v-2.03c0-.3-.12-.58-.31-.79s-.46-.34-.77-.34H6.39c-.31,0-.58,.13-.77,.34-.2,.21-.31,.49-.31,.79v2.03s-.05,.02-.08,.03c-.38,.13-.73,.33-.88,.74-.06,.17-.08,.33-.09,.51v.27c-.01,1.48,0,2.95,0,4.43,0,.31,0,.61,0,.92H1.34s-.04-.01-.06-.01-.05,0-.07,0c-.02,0-.04,0-.06-.01-.04,0-.09,0-.13-.03-.04-.01-.09-.02-.13-.04s-.08-.04-.13-.06c-.04-.02-.08-.05-.12-.07-.08-.06-.15-.12-.22-.19s-.13-.14-.18-.22c-.03-.04-.06-.09-.08-.13s-.04-.08-.06-.13c-.01-.04-.03-.09-.04-.13-.01-.02-.01-.04-.02-.07,0-.02,0-.04,0-.06-.01-.02-.01-.05-.01-.07,0-.02,0-.04,0-.06v-.07H0v-.03H0v-.02H0v-4.54Z"/>
      <path class="cls-3" d="M56.75,8.89c.1,.03,.21,.06,.31,.09,.03,0,.05,.02,.08,.03,.38,.13,.73,.33,.88,.74,.06,.17,.08,.33,.09,.51v.27c0,1.48,0,2.95,0,4.43,0,.31,0,.62,0,.92-.01,.31-.02,.61-.05,.91-.05,.42-.12,.82-.22,1.22-.27,1.06-.72,2.13-1.31,3.05-.05,.07-.09,.15-.14,.22l-.02,.02c-.16,.24-.33,.46-.56,.64-.35,.29-.75,.44-1.18,.57-.18,.05-.36,.1-.55,.15-.03,0-.06,.01-.09,.02-.13,.03-.27,.06-.4,.09-.28,.07-.57,.12-.86,.17-.66,.12-1.32,.21-1.98,.28-2.13,.24-4.26,.3-6.4,.31h-.5c-1.97,0-3.94,0-5.91,0h-13.51c-1.97,0-3.94,0-5.91,0h-.5c-2.14-.01-4.27-.07-6.4-.31-.66-.07-1.32-.16-1.98-.28-.28-.05-.57-.1-.86-.17l-.39-.09s-.07-.02-.1-.02c-.1-.03-.21-.06-.31-.09-.42-.11-.82-.23-1.19-.47-.33-.2-.57-.48-.78-.79-.01,0-.02-.02-.02-.03-.05-.07-.1-.15-.15-.22-.58-.92-1.04-1.99-1.31-3.04-.1-.41-.17-.81-.21-1.23-.03-.3-.05-.61-.05-.91,0-.31,0-.61,0-.92,0-1.48-.01-2.95,0-4.43v-.27c0-.18,.03-.34,.09-.51,.15-.41,.5-.61,.88-.74,.03-.01,.05-.02,.08-.03,.1-.03,.21-.06,.31-.09,.19-.04,.39-.07,.59-.1,.47-.06,.95-.08,1.42-.08,.52-.01,1.03,0,1.55,0H53.2c.51,0,1.02-.01,1.54,0,.47,0,.95,.02,1.42,.08,.2,.03,.4,.06,.59,.1Z"/>
      <path class="cls-3" d="M57.06,6.95v2.03c-.1-.03-.21-.06-.31-.09v-2.73c.19,.21,.31,.49,.31,.79Z"/>
      <path class="cls-3" d="M56.75,6.16v2.73c-.19-.04-.39-.07-.59-.1-.47-.06-.95-.08-1.42-.08-.52-.01-1.03,0-1.54,0H9.18c-.52,0-1.03-.01-1.55,0-.47,0-.95,.02-1.42,.08-.2,.03-.4,.06-.59,.1v-2.73c.19-.21,.46-.34,.77-.34H55.98c.31,0,.58,.13,.77,.34Z"/>
      <path class="cls-3" d="M5.62,6.16v2.73c-.1,.03-.21,.06-.31,.09v-2.03c0-.3,.11-.58,.31-.79Z"/>
    </g>
    <g>
      <path class="cls-2" d="M58.11,15.88h1.59c.75,.05,1.44,.42,1.93,.99,.48,.57,.74,1.31,.74,2.05"/>
      <path class="cls-2" d="M5.31,8.98v-2.03c0-.3,.11-.58,.31-.79,.19-.21,.46-.34,.77-.34H55.98c.31,0,.58,.13,.77,.34s.31,.49,.31,.79v2.03"/>
      <path class="cls-2" d="M62.37,58.3c0,.79,.63,1.42,1.41,1.42h5.11c3.91,0,7.08-3.17,7.08-7.08V7.09C75.97,3.18,72.8,0,68.89,0h-6.86"/>
      <path class="cls-2" d="M36.86,61.23h-11.34c-3.07,0-6.13-.01-9.19-.05-.35,0-.7-.02-1.05-.02-.17,0-.35,0-.53,0-.1-.01-.19-.01-.29-.01-.73-.02-1.46-.04-2.18-.06-.63-.02-1.26-.03-1.89-.06h-.14c-1.03-.04-2.07-.08-3.1-.13-1.27-.05-2.55-.12-3.82-.19-.61-.03-1.21-.07-1.82-.1-.07,0-.14,0-.22,0-.24-.02-.47-.02-.7-.12-.26-.11-.51-.32-.57-.62,0-.05,0-.1-.02-.15V14.48"/>
      <path class="cls-2" d="M0,9.93s.01,.02,.01,.03v.06"/>
      <path class="cls-2" d="M36.86,61.23h.57c2.96,0,5.92-.01,8.88-.06,.35-.01,.7-.01,1.05-.02,.19,0,.38-.01,.58-.01,.79-.02,1.59-.04,2.39-.07,.55-.01,1.1-.03,1.66-.05h.14c.09,0,.19,0,.28,0,1.12-.04,2.24-.09,3.35-.14,1.27-.06,2.53-.13,3.8-.2,.32-.02,.63-.03,.95-.05,.16,0,.32-.02,.49-.03h.11s.09-.01,.14-.01c.29-.02,.54-.07,.78-.25,.13-.1,.22-.21,.29-.36,.03-.09,.04-.17,.05-.25V1.25h0v-.02h0v-.1s0-.07,0-.11,0-.08-.01-.12c0-.03,0-.07-.01-.11-.01-.08-.02-.15-.03-.22-.01-.04-.02-.07-.02-.11l-.03-.09-.03-.09s-.01-.05-.03-.07c0-.03-.02-.05-.03-.07,0,0-.01-.02-.01-.03-.01,0-.01-.01-.02-.02,0-.01-.01-.01-.02-.02,0-.01,0-.01,0-.02-.01,0-.01-.01-.02-.01,0,0-.01,0-.02-.02t-.01,0h-.05s-.02-.01-.03-.01H.34s0,.01-.01,.01h-.03s-.01,.02-.02,.03c0,0-.01,.01-.02,.01,0,0-.01,0-.01,.02l-.02,.02s-.01,.02-.02,.02c0,0,0,.02,0,.03-.01,.02-.02,.04-.03,.07-.01,.02-.02,.04-.03,.07l-.03,.09-.03,.09s-.01,.07-.02,.11c-.01,.07-.02,.14-.03,.22,0,.04-.01,.08-.01,.11,0,.04,0,.08,0,.12v.17s-.01,.02-.01,.03H0v.02H0v3.35"/>
      <path class="cls-2" d="M4.27,15.88c0,.3,.02,.61,.05,.91,.04,.42,.11,.82,.21,1.23,.27,1.05,.73,2.12,1.31,3.04,.05,.07,.1,.15,.15,.22,0,0,.01,.02,.02,.03,.21,.31,.45,.59,.78,.79,.37,.24,.77,.36,1.19,.47,.1,.03,.21,.06,.31,.09,.03,0,.06,.01,.1,.02l.39,.09c.29,.07,.58,.12,.86,.17,.66,.12,1.32,.21,1.98,.28,2.13,.24,4.26,.3,6.4,.31h.5c1.97,0,3.94,0,5.91,0h13.51c1.97,0,3.94,0,5.91,0h.5c2.14-.01,4.27-.07,6.4-.31,.66-.07,1.32-.16,1.98-.28,.29-.05,.58-.1,.86-.17,.13-.03,.27-.06,.4-.09,.03,0,.06-.02,.09-.02,.19-.05,.37-.1,.55-.15,.43-.13,.83-.28,1.18-.57,.23-.18,.4-.4,.56-.64l.02-.02c.05-.07,.09-.15,.14-.22,.59-.92,1.04-1.99,1.31-3.05,.1-.4,.17-.8,.22-1.22,.03-.3,.04-.6,.05-.91,0-.3,0-.61,0-.92,0-1.48,0-2.95,0-4.43v-.27c-.01-.18-.03-.34-.09-.51-.15-.41-.5-.61-.88-.74-.03-.01-.05-.02-.08-.03-.1-.03-.21-.06-.31-.09-.19-.04-.39-.07-.59-.1-.47-.06-.95-.08-1.42-.08-.52-.01-1.03,0-1.54,0H9.18c-.52,0-1.03-.01-1.55,0-.47,0-.95,.02-1.42,.08-.2,.03-.4,.06-.59,.1-.1,.03-.21,.06-.31,.09-.03,0-.05,.02-.08,.03-.38,.13-.73,.33-.88,.74-.06,.17-.08,.33-.09,.51v.27c-.01,1.48,0,2.95,0,4.43,0,.31,0,.61,0,.92Z"/>
      <polyline class="cls-2" points="56.75 6.16 56.75 8.89 56.75 8.9"/>
      <path class="cls-2" d="M56.68,9.47s.02,.01,.03,.01l.07,.07s.05,.04,.07,.07,.04,.05,.07,.08c.02,.03,.04,.07,.06,.1s.05,.07,.07,.11,.04,.09,.06,.13c.03,.05,.05,.1,.07,.15,.01,.03,.02,.06,.02,.09,.02,.05,.04,.1,.06,.16,.01,.06,.03,.12,.04,.19,.02,.06,.03,.13,.05,.2,.01,.09,.03,.19,.04,.28,.01,.1,.02,.2,.03,.29,.01,.1,.01,.19,.02,.29,0,.05,0,.09,0,.14s0,.1,.01,.14c0,.07,0,.14,.01,.21,0,.07,0,.14,.01,.21,0,.09,.01,.18,.01,.27,.01,.09,.01,.18,.02,.26,.01,.11,.01,.22,.02,.33,.02,.27,.03,.52,.05,.77,0,.17,.01,.34,.02,.51"/>
      <line class="cls-2" x1="63.78" y1="59.72" x2="62.37" y2="59.72"/>
      <path class="cls-2" d="M0,4.59V14.46H0v.02H0v.03H0v.08s0,.04,0,.06c0,.02,0,.05,.01,.07,0,.02,0,.04,0,.06,.01,.03,.01,.05,.02,.07,.01,.04,.03,.09,.04,.13,.02,.05,.04,.09,.06,.13s.05,.09,.08,.13c.05,.08,.11,.15,.18,.22s.14,.13,.22,.19c.04,.02,.08,.05,.12,.07,.05,.02,.09,.04,.13,.06s.09,.03,.13,.04c.04,.02,.09,.03,.13,.03,.02,.01,.04,.01,.06,.01,.02,0,.05,0,.07,0s.04,.01,.06,.01h2.92"/>
      <polyline class="cls-2" points="5.62 6.16 5.62 8.89 5.62 8.9"/>
      <path class="cls-2" d="M5.69,9.47s-.02,.01-.02,.01c-.03,.02-.05,.04-.08,.07l-.07,.07s-.04,.05-.06,.08c-.03,.03-.05,.07-.07,.1s-.04,.07-.06,.11c-.03,.04-.05,.09-.07,.13l-.06,.15-.03,.09s-.04,.1-.05,.16c-.02,.06-.04,.12-.05,.19-.02,.06-.03,.13-.04,.2-.02,.09-.03,.19-.05,.28-.01,.1-.02,.2-.03,.29-.01,.1-.01,.19-.02,.29,0,.05,0,.09-.01,.14v.14c-.01,.07-.01,.14-.02,.21,0,.07,0,.14-.01,.21,0,.09-.01,.18-.01,.27,0,.09,0,.18-.02,.26,0,.11,0,.22-.02,.33-.01,.27-.03,.52-.04,.77l-.03,.51"/>
    </g>
  </g>
  <text class="cls-1" transform="translate(23.59 42.11)"><tspan x="0" y="0">110</tspan></text>
</svg>