<?xml version="1.0" encoding="UTF-8"?>
<svg id="_03_LINEA_FINA" data-name="03_LINEA FINA" xmlns="http://www.w3.org/2000/svg" viewBox="0 0 56.69 61.23">
  <defs>
    <style>
      .cls-1 {
        font-family: Inter18pt-Medium, 'Inter 18pt';
        font-size: 10px;
      }

      .cls-2 {
        fill: none;
        stroke: #404041;
        stroke-linecap: round;
        stroke-linejoin: round;
        stroke-width: .35px;
      }

      .cls-3 {
        fill: #f1f1f2;
      }
    </style>
  </defs>
  <g>
    <g>
      <path class="cls-3" d="M56.69,59.72v.02s-.01,.11-.03,.15c0,0,0,.02-.01,.03-.01,.04-.02,.08-.05,.11,0,.04-.04,.08-.06,.11s-.05,.06-.07,.08c-.04,.05-.09,.09-.14,.12-.04,.03-.08,.06-.12,.08-.02,.01-.05,.02-.07,.04-.07,.03-.15,.05-.22,.07-.06,.02-.12,.02-.18,.03-.02,.01-.05,.01-.07,.01-.04,0-.08,0-.12,0h-.02c-.08,0-.16,.01-.24,.01-.13,0-.25,0-.38,.02-1.24,.07-2.47,.14-3.7,.2-1.53,.08-3.06,.14-4.59,.2-.1,0-.19,0-.29,0-.25,.01-.49,.02-.74,.03-.71,.02-1.42,.03-2.13,.05-.38,.01-.75,.03-1.12,.03-.09,.01-.17,.01-.25,.01-.19,0-.37,0-.55,0-.36,.01-.72,.01-1.09,.02-.7,.01-1.41,.02-2.12,.03H18.35c-.71-.01-1.41-.02-2.12-.03-.36,0-.72,0-1.08-.02-.19,0-.37,0-.55,0-.09,0-.17,0-.25-.01-.38,0-.75-.02-1.12-.03-.71-.02-1.43-.03-2.14-.05-.24-.01-.49-.02-.73-.03-.1,0-.2,0-.3,0-1.53-.06-3.06-.12-4.59-.2-1.23-.06-2.46-.13-3.69-.2-.13-.01-.26-.01-.39-.02-.08,0-.16-.01-.24-.01h-.02s-.08,0-.11,0c-.02,0-.05,0-.07-.01-.06,0-.12,0-.18-.03-.06-.01-.11-.03-.17-.05-.02,0-.04-.02-.05-.02-.03-.02-.05-.03-.08-.04-.04-.03-.08-.05-.12-.08-.02-.02-.03-.03-.05-.04-.03-.02-.06-.05-.09-.08-.01-.02-.02-.03-.03-.04,0,0,0-.01-.02-.02-.03-.03-.05-.07-.07-.11t-.01-.02c-.04-.08-.07-.17-.07-.27t-.01-.02v-.15H0v-22.52H0V14.58s.01,.05,.01,.07,0,.04,0,.07c0,.02,.01,.04,.01,.06,0,.02,0,.05,.02,.07,.01,.04,.03,.09,.05,.13,.01,.04,.03,.09,.05,.13,.03,.04,.05,.08,.08,.12,.05,.08,.11,.16,.18,.23s.14,.13,.22,.18c.04,.03,.08,.05,.13,.08l.12,.06c.05,0,.09,.03,.13,.04s.09,.02,.13,.03c.02,.01,.04,.01,.06,.01,.03,0,.05,0,.07,0h2.99c0,.51,.04,1.02,.13,1.53,.14,.78,.41,1.6,.73,2.32,.16,.37,.34,.72,.55,1.07,.1,.16,.2,.33,.31,.49,.08,.11,.15,.22,.24,.32,.08,.1,.17,.19,.27,.28,.18,.16,.38,.29,.61,.39h.01c.11,.06,.22,.1,.34,.14h.01c.26,.1,.52,.17,.78,.23,.02,0,.04,0,.05,.02,.04,0,.08,0,.11,.02,.07,.02,.14,.04,.22,.06,2.94,.68,6.75,.78,9.73,.79h19.98c2.98-.01,6.79-.11,9.74-.79l.21-.06s.07-.01,.11-.02c.02-.01,.03-.01,.05-.02,.26-.06,.52-.13,.78-.22h.01c.13-.05,.24-.09,.36-.15,.22-.1,.42-.22,.6-.38h0c.1-.1,.18-.19,.27-.29,0,0,.01,0,.01-.02,.08-.09,.16-.2,.22-.3,.11-.16,.22-.33,.32-.49,.2-.35,.38-.7,.55-1.07,.32-.72,.59-1.54,.72-2.32,.09-.51,.13-1.02,.14-1.53h2.99s.04,0,.06,0,.04,0,.06-.01c.05,0,.09-.02,.13-.03,.05-.01,.09-.03,.13-.04,.04-.02,.09-.04,.13-.06,.04-.03,.08-.05,.12-.08,.08-.05,.16-.11,.23-.18,.06-.07,.13-.15,.18-.23,.02-.04,.05-.08,.07-.12s.04-.09,.06-.13,.03-.09,.04-.13c.01-.02,.02-.05,.02-.07,.01-.02,.01-.04,.02-.06,0-.03,0-.05,0-.07v-.07s0-.02,.01-.03v22.51h0v22.52h0v.14Z"/>
      <path class="cls-3" d="M51.08,6.16c-.19-.21-.47-.35-.78-.35H6.38c-.31,0-.58,.13-.77,.34s-.31,.5-.31,.8v2.03s-.03,.01-.05,.02c-.06,.01-.11,.03-.17,.06-.12,.04-.24,.11-.35,.18-.06,.05-.13,.11-.18,.17-.13,.14-.21,.3-.25,.47l-.03,.18h0c0,.13-.02,.25-.02,.37v4.53c0,.31,0,.61,.01,.91H1.27s-.04,0-.07,0c-.02,0-.04,0-.06-.01-.04,0-.09-.02-.13-.03s-.08-.03-.13-.04l-.12-.06c-.05-.03-.09-.05-.13-.08-.08-.05-.15-.11-.22-.18s-.13-.15-.18-.23c-.03-.04-.05-.08-.08-.12-.02-.04-.04-.09-.05-.13-.02-.04-.04-.09-.05-.13-.01-.02-.01-.05-.02-.07,0-.02-.01-.04-.01-.06,0-.03,0-.05,0-.07s-.01-.04-.01-.07V1.24H0v-.22s.01-.08,.01-.12,0-.08,0-.11c.01-.08,.02-.16,.03-.23,.01-.03,.02-.07,.03-.1,0-.03,.01-.06,.02-.1,.01-.03,.02-.05,.03-.08s.02-.05,.03-.08l.03-.06s0-.02,.02-.03c0-.01,.01-.01,.01-.02,.01-.01,.01-.02,.02-.02,0-.01,.01-.02,.02-.02,0-.01,0-.01,0-.02,.01,0,.01-.01,.02-.01h.01s0,0,.01,0h.01S.32,0,.33,0H56.37s.01,.01,.01,.01c0,0,.01,0,.01,0h.02s.01,.02,.02,.03l.02,.02s.01,0,.01,.02l.02,.02s.01,.02,.02,.03l.03,.06s.02,.05,.03,.08,.02,.05,.02,.08c.01,.04,.02,.07,.03,.1s0,.07,.02,.1c.01,.07,.02,.15,.03,.23,.01,.03,.01,.07,.01,.11,0,.04,0,.08,0,.12s.01,.07,.01,.11v.09h0V14.55s-.01,.02-.01,.03v.07s0,.04,0,.07c-.01,.02-.01,.04-.02,.06,0,.02-.01,.05-.02,.07-.01,.04-.02,.09-.04,.13s-.04,.09-.06,.13-.05,.08-.07,.12c-.05,.08-.12,.16-.18,.23-.07,.07-.15,.13-.23,.18-.04,.03-.08,.05-.12,.08-.04,.02-.09,.04-.13,.06-.04,0-.08,.03-.13,.04-.04,0-.08,.02-.13,.03-.02,.01-.04,.01-.06,.01s-.04,0-.06,0h-2.99c.01-.3,.01-.6,.01-.91v-4.53c0-.06-.01-.12-.01-.18,0-.06,0-.12-.02-.19l-.03-.18c-.04-.17-.1-.33-.24-.47-.06-.06-.12-.12-.19-.17-.14-.09-.29-.17-.44-.22-.04,0-.08-.03-.13-.04h0v-2.03c0-.3-.11-.58-.3-.79Z"/>
      <path class="cls-3" d="M52.44,10.62v4.34c0,.31,0,.61-.01,.91,0,.51-.05,1.02-.14,1.53-.13,.78-.4,1.6-.72,2.32-.17,.37-.35,.72-.55,1.07-.1,.16-.21,.33-.32,.49-.07,.1-.14,.21-.22,.3,0,.01-.01,.01-.01,.02-.09,.1-.17,.19-.27,.28h0c-.18,.16-.38,.29-.6,.39-.12,.06-.23,.1-.36,.14-.26,.09-.52,.16-.79,.23-.02,0-.03,0-.05,.02-.04,0-.07,0-.11,.02l-.21,.06c-2.95,.68-6.76,.78-9.74,.79H18.35c-2.98-.01-6.79-.11-9.73-.79-.08-.02-.15-.04-.22-.06-.03-.01-.07-.01-.11-.02,0-.01-.03-.01-.05-.02-.26-.07-.53-.14-.79-.23-.12-.04-.23-.08-.34-.13h-.01c-.22-.11-.43-.24-.61-.4-.1-.09-.19-.18-.27-.28-.09-.1-.16-.21-.24-.32-.11-.16-.21-.33-.31-.49-.21-.35-.39-.7-.55-1.07-.32-.72-.59-1.54-.73-2.32-.09-.51-.12-1.02-.13-1.53-.01-.3-.01-.6-.01-.91v-4.53c0-.12,.01-.24,.02-.36h0c.01-.07,.02-.13,.03-.19,.04-.17,.12-.33,.25-.47,.05-.06,.12-.12,.18-.17,.11-.07,.23-.14,.35-.18,.06-.03,.11-.05,.17-.06,.02,0,.03-.02,.05-.02,.03,0,.07-.02,.1-.03l.12-.03s.06-.02,.09-.02c.04-.02,.07-.02,.11-.03,.45-.1,.93-.13,1.38-.15,.49-.02,.98-.02,1.47-.02H48.12c.49,0,.98,0,1.46,.02,.42,0,.86,.05,1.29,.13,.07,.01,.14,.03,.21,.05,.07,.01,.13,.03,.2,.05,.03,0,.07,.02,.1,.03,.05,.01,.09,.03,.13,.04,.16,.06,.31,.13,.44,.22,.07,.05,.13,.11,.19,.17,.14,.14,.2,.3,.24,.47l.03,.18c.01,.07,.01,.13,.02,.19,0,.06,.01,.12,.01,.18v.19Z"/>
      <path class="cls-3" d="M51.38,6.95v2.02s-.07-.02-.1-.03c-.07-.02-.13-.04-.2-.04h0v-2.74c.19,.21,.3,.49,.3,.79Z"/>
      <path class="cls-3" d="M51.08,8.89h0c-.07-.01-.14-.03-.21-.04-.43-.08-.87-.12-1.29-.13-.48-.02-.97-.02-1.46-.02H8.57c-.49,0-.98,0-1.47,.02-.45,.02-.93,.05-1.38,.15-.04,.01-.07,.01-.11,.03h0v-2.75c.19-.21,.46-.34,.77-.34H50.3c.31,0,.59,.14,.78,.35v2.73Z"/>
      <path class="cls-3" d="M5.61,8.89h0l-.09,.03s-.07,.01-.11,.02h-.01s-.07,.03-.1,.04v-2.03c0-.3,.12-.59,.31-.8v2.74Z"/>
    </g>
    <g>
      <polyline class="cls-2" points="38.33 23.53 28.34 23.53 18.35 23.53"/>
      <polyline class="cls-2" points="38.33 0 28.34 0 18.35 0"/>
      <polyline class="cls-2" points="38.33 5.81 28.34 5.81 18.35 5.81"/>
      <path class="cls-2" d="M51.92,14.52c-.01-.16-.01-.33-.02-.5-.02-.25-.03-.51-.05-.77,0-.11,0-.22-.02-.33-.01-.09-.01-.17-.02-.26,0-.09-.01-.18-.01-.28,0-.06-.01-.13-.01-.21,0-.06,0-.13,0-.2,0-.05-.01-.09-.01-.14s0-.1,0-.14c0-.1-.01-.2-.02-.29-.01-.1-.02-.19-.03-.29s-.03-.19-.04-.29c-.02-.06-.03-.13-.04-.2-.02-.06-.03-.12-.05-.18s-.04-.11-.05-.17c-.01-.02-.02-.05-.03-.08-.02-.05-.04-.1-.07-.15-.02-.04-.04-.09-.06-.13s-.04-.08-.07-.12l-.06-.09s-.05-.06-.07-.08c-.02-.03-.05-.05-.07-.08-.02-.02-.05-.04-.07-.06-.01,0-.02,0-.02-.02"/>
      <line class="cls-2" x1="51.08" y1="8.89" x2="51.08" y2="6.16"/>
      <line class="cls-2" x1="51.08" y1="6.15" x2="51.08" y2="6.16"/>
      <path class="cls-2" d="M52.43,15.87h2.99s.04,0,.06,0,.04,0,.06-.01c.05,0,.09-.02,.13-.03,.05-.01,.09-.03,.13-.04,.04-.02,.09-.04,.13-.06,.04-.03,.08-.05,.12-.08,.08-.05,.16-.11,.23-.18,.06-.07,.13-.15,.18-.23,.02-.04,.05-.08,.07-.12s.04-.09,.06-.13,.03-.09,.04-.13c.01-.02,.02-.05,.02-.07,.01-.02,.01-.04,.02-.06,0-.03,0-.05,0-.07v-.07s0-.02,.01-.03"/>
      <path class="cls-2" d="M51.38,8.97v-2.02c0-.3-.11-.58-.3-.79"/>
      <path class="cls-2" d="M38.33,5.81h11.97c.31,0,.59,.14,.78,.35"/>
      <path class="cls-2" d="M5.68,9.46s-.02,.01-.02,.02c-.03,.02-.05,.04-.07,.06-.03,.03-.05,.05-.07,.08-.03,.02-.05,.05-.07,.08-.03,.03-.05,.06-.07,.09l-.06,.12s-.05,.09-.07,.13l-.06,.15s-.02,.06-.03,.08c-.02,.06-.04,.11-.05,.17-.02,.06-.04,.12-.05,.18-.02,.07-.03,.14-.04,.2-.02,.1-.03,.19-.05,.29-.01,.1-.02,.19-.03,.29,0,.09-.01,.19-.02,.29,0,.04,0,.09-.01,.14v.14c-.01,.07-.01,.14-.01,.2-.01,.08-.01,.15-.01,.21-.01,.1-.01,.19-.02,.28,0,.09,0,.17-.02,.26,0,.11,0,.22-.02,.33-.01,.26-.03,.52-.04,.77,0,.17-.02,.34-.03,.5"/>
      <line class="cls-2" x1="5.61" y1="8.89" x2="5.61" y2="6.15"/>
      <path class="cls-2" d="M4.25,15.87H1.27s-.04,0-.07,0c-.02,0-.04,0-.06-.01-.04,0-.09-.02-.13-.03s-.08-.03-.13-.04l-.12-.06c-.05-.03-.09-.05-.13-.08-.08-.05-.15-.11-.22-.18s-.13-.15-.18-.23c-.03-.04-.05-.08-.08-.12-.02-.04-.04-.09-.05-.13-.02-.04-.04-.09-.05-.13-.01-.02-.01-.05-.02-.07,0-.02-.01-.04-.01-.06,0-.03,0-.05,0-.07s-.01-.04-.01-.07"/>
      <path class="cls-2" d="M18.35,5.81H6.38c-.31,0-.58,.13-.77,.34"/>
      <path class="cls-2" d="M5.3,8.98v-2.03c0-.3,.12-.59,.31-.8"/>
      <path class="cls-2" d="M55.92,60.53c-.06,.02-.12,.02-.18,.03"/>
      <path class="cls-2" d="M56.47,60.22s-.05,.05-.07,.07-.04,.04-.07,.05"/>
      <path class="cls-2" d="M56.6,60.03s-.04,.08-.06,.11"/>
      <path class="cls-2" d="M56.69,14.55V1.24h0v-.11s-.01-.07-.01-.11,0-.08,0-.12c0-.04,0-.08-.01-.11-.01-.08-.02-.16-.03-.23-.01-.03-.01-.07-.02-.1s-.02-.06-.03-.1c0-.03-.01-.05-.02-.08s-.02-.05-.03-.08l-.03-.06s-.02-.02-.02-.03l-.02-.02s-.01-.02-.01-.02l-.02-.02-.02-.02h-.02s-.01-.02-.01-.02h-.03s0-.01,0-.01h-18.01"/>
      <path class="cls-2" d="M56.69,14.55v22.51h0v22.52h0v.16s-.01,.11-.03,.15c0,0,0,.02-.01,.03-.01,.04-.02,.08-.05,.11"/>
      <path class="cls-2" d="M56.54,60.14s.05-.07,.06-.11"/>
      <path class="cls-2" d="M56.54,60.14s-.05,.06-.07,.08"/>
      <path class="cls-2" d="M56.33,60.34s.1-.07,.14-.12"/>
      <path class="cls-2" d="M56.33,60.34s-.08,.06-.12,.08c-.02,.01-.05,.02-.07,.04-.07,.03-.15,.05-.22,.07"/>
      <path class="cls-2" d="M55.74,60.56c.06,0,.12,0,.18-.03"/>
      <path class="cls-2" d="M55.74,60.56s-.05,.01-.07,.01c-.04,0-.08,0-.12,0h-.02c-.08,0-.16,.01-.24,.01-.13,0-.25,0-.38,.02-1.24,.07-2.47,.14-3.7,.2-1.53,.08-3.06,.14-4.59,.2-.1,0-.19,0-.29,0-.25,.01-.49,.02-.74,.03-.71,.02-1.42,.03-2.13,.05-.38,.01-.75,.03-1.12,.03-.09,.01-.17,.01-.25,.01-.19,0-.37,0-.55,0-.36,.01-.72,.01-1.09,.02-.7,.01-1.41,.02-2.12,.03"/>
      <path class="cls-2" d="M18.35,61.2h19.98"/>
      <path class="cls-2" d="M.77,60.53c.06,.02,.12,.02,.18,.03"/>
      <path class="cls-2" d="M.09,60.05s.04,.08,.07,.11"/>
      <path class="cls-2" d="M.01,59.76c0,.1,.03,.19,.07,.27"/>
      <path class="cls-2" d="M18.35,0H.33s-.01,.01-.01,.01h-.01s-.01,0-.01,0h-.01s0,.01-.02,.01c0,0,0,0,0,.02-.01,0-.02,0-.02,.02-.01,0-.01,0-.02,.02,0,0-.01,0-.01,.02-.01,0-.02,.02-.02,.03l-.03,.06s-.02,.05-.03,.08-.02,.05-.03,.08c0,.04-.02,.07-.02,.1-.01,.03-.02,.07-.03,.1-.01,.07-.02,.15-.03,.23,0,.03,0,.07,0,.11s-.01,.08-.01,.12v.2H0V14.58"/>
      <path class="cls-2" d="M0,14.58v22.48H0v22.52H0v.16s0,0,.01,.02"/>
      <path class="cls-2" d="M.08,60.03c-.04-.08-.07-.17-.07-.27"/>
      <path class="cls-2" d="M.08,60.03s0,0,.01,.02"/>
      <path class="cls-2" d="M.16,60.16s-.05-.07-.07-.11"/>
      <path class="cls-2" d="M.16,60.16s.01,.02,.02,.02c.01,0,.02,.02,.03,.04,.03,.03,.06,.06,.09,.08,.02,0,.03,.02,.05,.04,.04,.03,.08,.05,.12,.08,.03,.01,.05,.02,.08,.04,.01,0,.03,.01,.05,.02,.06,.02,.11,.04,.17,.05"/>
      <path class="cls-2" d="M.95,60.56c-.06,0-.12,0-.18-.03"/>
      <path class="cls-2" d="M.95,60.56s.05,.01,.07,.01c.03,0,.07,0,.11,0h.02c.08,0,.16,.01,.24,.01,.13,0,.26,0,.39,.02,1.23,.07,2.46,.14,3.69,.2,1.53,.08,3.06,.14,4.59,.2,.1,0,.2,0,.3,0,.24,.01,.49,.02,.73,.03,.71,.02,1.43,.03,2.14,.05,.37,.01,.74,.03,1.12,.03,.08,.01,.16,.01,.25,.01,.18,0,.36,0,.55,0,.36,.01,.72,.01,1.08,.02,.71,.01,1.41,.02,2.12,.03"/>
      <path class="cls-2" d="M51.38,8.98h0s-.07-.03-.1-.04c-.07-.02-.13-.04-.2-.04"/>
      <path class="cls-2" d="M51.95,9.24c-.14-.09-.29-.17-.44-.22"/>
      <path class="cls-2" d="M50.48,21.58c.08-.09,.15-.2,.22-.3"/>
      <path class="cls-2" d="M49.59,22.27c.22-.1,.42-.23,.6-.38"/>
      <path class="cls-2" d="M38.33,23.53c2.98-.01,6.79-.11,9.74-.79l.21-.06s.07-.01,.11-.02c.02-.01,.03-.01,.05-.02,.27-.07,.53-.14,.79-.23"/>
      <path class="cls-2" d="M49.23,22.41h-.01c-.26,.1-.52,.17-.78,.23"/>
      <path class="cls-2" d="M49.23,22.41c.13-.04,.24-.08,.36-.14"/>
      <path class="cls-2" d="M50.19,21.89c-.18,.16-.38,.28-.6,.38"/>
      <path class="cls-2" d="M50.19,21.89h0c.1-.1,.18-.19,.27-.29,0,0,.01,0,.01-.02"/>
      <path class="cls-2" d="M50.7,21.28c-.06,.1-.14,.21-.22,.3"/>
      <path class="cls-2" d="M50.7,21.28c.11-.16,.22-.33,.32-.49,.2-.35,.38-.7,.55-1.07,.32-.72,.59-1.54,.72-2.32,.09-.51,.13-1.02,.14-1.53"/>
      <path class="cls-2" d="M52.43,15.87c.01-.3,.01-.6,.01-.91v-4.53c0-.06-.01-.12-.01-.18,0-.06,0-.12-.02-.19l-.03-.18c-.04-.17-.1-.33-.24-.47-.06-.06-.12-.12-.19-.17"/>
      <path class="cls-2" d="M51.51,9.02c.16,.06,.31,.13,.44,.22"/>
      <path class="cls-2" d="M51.51,9.02s-.08-.03-.13-.04"/>
      <path class="cls-2" d="M51.08,8.9c.07,.01,.13,.03,.2,.05,.03,0,.07,.02,.1,.03"/>
      <path class="cls-2" d="M51.08,8.9c-.07-.02-.14-.04-.21-.05-.43-.08-.87-.12-1.29-.13-.48-.02-.97-.02-1.46-.02h-9.79"/>
      <path class="cls-2" d="M18.35,8.7h19.98"/>
      <path class="cls-2" d="M5.4,8.95h.01s.07-.03,.11-.03"/>
      <path class="cls-2" d="M7.1,22.27c-.22-.1-.43-.23-.61-.39"/>
      <path class="cls-2" d="M18.35,23.53c-2.98-.01-6.79-.11-9.73-.79-.08-.02-.15-.04-.22-.06-.03-.01-.07-.01-.11-.02,0-.01-.03-.01-.05-.02-.26-.07-.53-.14-.79-.23"/>
      <path class="cls-2" d="M7.45,22.41h.01c.26,.1,.52,.17,.78,.23"/>
      <path class="cls-2" d="M7.45,22.41c-.12-.04-.23-.08-.34-.13h-.01"/>
      <path class="cls-2" d="M6.49,21.88c.18,.16,.38,.29,.61,.39"/>
      <path class="cls-2" d="M6.49,21.88c-.1-.09-.19-.18-.27-.28-.09-.1-.16-.21-.24-.32-.11-.16-.21-.33-.31-.49-.21-.35-.39-.7-.55-1.07-.32-.72-.59-1.54-.73-2.32-.09-.51-.12-1.02-.13-1.53"/>
      <path class="cls-2" d="M4.26,15.87c-.01-.3-.01-.6-.01-.91v-4.53c0-.12,.01-.24,.02-.36h0c.01-.07,.02-.13,.03-.19,.04-.17,.12-.33,.25-.47,.05-.06,.12-.12,.18-.17,.11-.07,.23-.14,.35-.18,.06-.03,.11-.05,.17-.06,.02,0,.03-.02,.05-.02"/>
      <path class="cls-2" d="M5.3,8.98s.07-.02,.1-.03"/>
      <path class="cls-2" d="M5.52,8.92l-.12,.03"/>
      <path class="cls-2" d="M5.52,8.92s.06-.02,.09-.02"/>
      <path class="cls-2" d="M5.61,8.9s.07-.02,.11-.03c.45-.1,.93-.13,1.38-.15,.49-.02,.98-.02,1.47-.02h9.78"/>
    </g>
  </g>
  <text class="cls-1" transform="translate(20.21 42.11)"><tspan x="0" y="0">100</tspan></text>
</svg>