<?xml version="1.0" encoding="UTF-8"?>
<svg id="_03_LINEA_FINA" data-name="03_LINEA FINA" xmlns="http://www.w3.org/2000/svg" viewBox="0 0 90.71 61.23">
  <defs>
    <style>
      .cls-1 {
        font-family: Inter18pt-Medium, 'Inter 18pt';
        font-size: 10px;
      }

      .cls-2 {
        fill: none;
        stroke: #404041;
        stroke-linecap: round;
        stroke-linejoin: round;
        stroke-width: .35px;
      }

      .cls-3 {
        fill: #f1f1f2;
      }
    </style>
  </defs>
  <g>
    <g>
      <path class="cls-3" d="M90.71,7.08V52.63c0,3.91-3.18,7.09-7.09,7.09h-21.26V28.77h0V14.5h0v-.03h0v-.04h0V1.24h0v-.11s0-.08-.01-.12v-.11s-.01-.08-.02-.12c0-.07-.02-.15-.03-.22-.01-.04-.01-.07-.02-.1-.01-.04-.02-.07-.03-.1,0-.03,0-.06-.02-.08-.01-.03-.02-.06-.03-.08l-.03-.06s0-.02-.02-.03-.01-.02-.02-.03c0,0-.01,0-.01-.02-.01,0-.01,0-.02,0-.01-.01-.01-.02-.02-.02h0s-.01-.02-.01-.02h-.02s0-.01-.01-.01h21.59c3.91,0,7.09,3.17,7.09,7.08Z"/>
      <path class="cls-3" d="M62.36,59.72v.02s-.01,.08-.03,.12t0,.02c0,.05-.03,.1-.06,.15-.01,.03-.03,.06-.05,.09-.03,.03-.05,.07-.08,.1-.04,.04-.09,.08-.14,.12-.03,.03-.07,.05-.11,.07-.04,.03-.09,.05-.13,.06-.05,.03-.1,.05-.16,.06h-.01l-.18,.03c-.07,.01-.14,.01-.21,.01-.08,.01-.16,.01-.24,.02-.13,0-.25,.01-.38,.02-1.23,.07-2.47,.14-3.7,.2-1.53,.07-3.06,.14-4.59,.2-.09,0-.19,0-.29,.01-.25,.01-.49,.01-.74,.02-.71,.03-1.42,.04-2.13,.06-.37,.01-.75,.02-1.12,.03-.08,0-.17,0-.25,.01-.19,0-.37,0-.55,.01-.36,0-.72,.01-1.08,.02l-2.13,.03H18.35c-.7-.01-1.41-.02-2.12-.03-.36,0-.72-.02-1.08-.02-.18-.01-.37-.01-.55-.01-.08-.01-.17-.01-.25-.01-.38,0-.75-.02-1.12-.03-.71-.02-1.42-.03-2.14-.06-.24-.01-.49-.01-.73-.02-.1-.01-.2-.01-.3-.01-1.53-.06-3.05-.13-4.58-.2-1.24-.06-2.47-.13-3.7-.2-.13-.01-.26-.02-.39-.02-.08,0-.16,0-.24-.02-.06,0-.13,0-.2-.01l-.18-.03c-.06-.02-.11-.03-.17-.06-.05-.02-.09-.04-.14-.06t-.02-.01l-.09-.06s-.04-.03-.06-.05l-.07-.07s-.07-.08-.1-.12c0-.01,0-.02-.01-.02H.11c-.03-.06-.06-.11-.07-.16-.02-.05-.03-.1-.03-.15-.01-.01-.01-.02-.01-.03V28.77H0V14.58s.01,.04,.01,.07c0,.02,.01,.04,.01,.06,.01,.02,.01,.05,.01,.07,.01,.02,.02,.04,.02,.06,.01,.05,.03,.09,.05,.14,.01,.04,.03,.08,.06,.12,.02,.05,.04,.09,.07,.13,.05,.08,.11,.16,.18,.23s.14,.13,.22,.18c.04,.03,.09,.05,.13,.07l.12,.06s.09,.03,.13,.05c.05,0,.09,.02,.13,.03,.02,0,.04,.01,.07,.01,.02,0,.04,0,.06,0h3c0,.51,.03,1.02,.12,1.53,.14,.78,.41,1.6,.73,2.32,.16,.36,.34,.72,.55,1.06,.1,.17,.2,.34,.31,.5,.08,.11,.15,.21,.24,.32,.09,.1,.17,.19,.27,.28,.09,.08,.18,.15,.29,.21,0,.01,.01,.01,.01,.01,.1,.07,.2,.12,.31,.17h.01c.11,.05,.22,.1,.34,.14,.26,.09,.53,.16,.79,.23,.02,0,.04,.01,.06,.01,.03,.01,.07,.02,.1,.03,.07,.02,.15,.03,.22,.05,.37,.08,.75,.16,1.14,.23s.79,.13,1.2,.18h.01c.41,.06,.82,.1,1.24,.14s.84,.07,1.26,.1c.84,.05,1.69,.09,2.52,.11,.82,.02,1.62,.03,2.36,.03h25.65c2.98-.01,6.79-.11,9.74-.79,.07-.02,.14-.03,.22-.05,.03-.01,.07-.02,.1-.03,.02,0,.04-.01,.05-.01,.27-.07,.53-.14,.79-.23,.05-.02,.09-.03,.13-.05,.32-.11,.6-.27,.84-.48,.1-.09,.18-.18,.27-.28,.08-.11,.16-.21,.23-.32,.11-.16,.22-.33,.32-.5,.2-.34,.38-.7,.55-1.06,.32-.72,.59-1.54,.73-2.32,.09-.51,.12-1.02,.13-1.53h2.99s.04,0,.06,0,.04-.01,.06-.01c.05,0,.09-.02,.13-.03,.05-.02,.09-.03,.13-.05,.05-.02,.09-.04,.13-.06s.08-.04,.12-.07c.08-.05,.16-.11,.23-.18,.06-.07,.13-.15,.18-.23,.03-.04,.05-.08,.07-.13l.06-.12c.02-.05,.03-.09,.04-.14,.01-.02,.02-.04,.02-.06,0-.02,0-.05,.02-.07,0-.02,0-.04,.01-.06v-.07s.01-.02,.01-.03v14.21h0v30.95h0Z"/>
      <path class="cls-3" d="M62.36,14.52v.03s-.01,.02-.01,.03v.07s-.01,.04-.01,.06c-.01,.02-.01,.05-.02,.07,0,.02-.01,.04-.02,.06-.01,.05-.02,.09-.04,.14l-.06,.12c-.02,.05-.04,.09-.07,.13-.05,.08-.12,.16-.18,.23-.07,.07-.15,.13-.23,.18-.04,.03-.08,.05-.12,.07s-.08,.04-.13,.06c-.04,.02-.08,.03-.13,.05-.04,0-.08,.02-.13,.03-.02,0-.04,.01-.06,.01s-.04,0-.06,0h-2.99c.01-.3,.01-.61,.01-.92v-4.52h0c-.01-.13-.01-.25-.02-.37-.02-.13-.04-.24-.09-.35-.04-.1-.1-.2-.19-.3h0c-.06-.07-.12-.12-.19-.17-.17-.12-.36-.2-.56-.26h0v-2.04c0-.3-.12-.58-.31-.79-.2-.21-.47-.34-.78-.34H6.39c-.32,0-.59,.13-.78,.34-.2,.21-.31,.49-.31,.79v2.03h0c-.12,.04-.24,.09-.35,.14-.11,.06-.21,.12-.3,.21-.04,.02-.07,.05-.1,.08h0l-.12,.15h0c-.03,.06-.05,.11-.08,.16-.04,.11-.06,.22-.08,.35-.01,.12-.02,.24-.02,.37v4.52c0,.3,0,.6,.01,.9,0,.01,.01,.02,.01,.02H1.27s-.04,0-.06,0c-.03,0-.05-.01-.07-.01-.04,0-.08-.02-.13-.03-.04-.02-.08-.03-.13-.05l-.12-.06s-.09-.04-.13-.07c-.08-.05-.15-.11-.22-.18s-.13-.15-.18-.23c-.03-.04-.05-.08-.07-.13-.03-.04-.05-.08-.06-.12-.02-.05-.04-.09-.05-.14,0-.02-.01-.04-.02-.06,0-.02,0-.05-.01-.07,0-.02-.01-.04-.01-.06,0-.03-.01-.05-.01-.07v-.08H0v-.03H0v-.04H0V1.24H0v-.23s.01-.07,.01-.11,.01-.08,.01-.12c.01-.07,.02-.15,.04-.22,0-.04,.01-.07,.02-.1,.01-.04,.01-.07,.02-.1s.02-.06,.03-.08c.01-.03,.02-.06,.03-.08l.03-.06s.01-.02,.02-.03c0-.01,.01-.02,.01-.03,.01,0,.01,0,.02-.02,0,0,0,0,.02,0,0-.01,.01-.02,.01-.02,.01,0,.01-.01,.02-.01h.01s0,0,.01,0h.01s0-.01,0-.01H62.03s.01,0,.01,.01h.02s0,0,.01,0h0s.01,.02,.02,.03c.01,0,.01,0,.02,0,0,.01,.01,.02,.01,.02,.01,.01,.01,.02,.02,.03s.01,.02,.02,.03l.03,.06s.02,.05,.03,.08c.01,.02,.02,.05,.02,.08,.01,.03,.02,.06,.03,.1,.01,.03,.01,.06,.02,.1,.01,.07,.03,.15,.03,.22,.01,.04,.01,.08,.02,.12v.11s.01,.08,.01,.12v.1h0V14.42h0v.03h0v.04h0v.03Z"/>
      <path class="cls-3" d="M62.22,60.12s.04-.06,.05-.09c-.01,.03-.03,.06-.05,.09Z"/>
      <path class="cls-3" d="M62.14,60.22s.05-.07,.08-.1c-.02,.04-.05,.07-.08,.1Z"/>
      <path class="cls-3" d="M62.14,60.22s-.05,.05-.07,.07-.04,.04-.07,.05c.05-.04,.1-.08,.14-.12Z"/>
      <path class="cls-3" d="M61.76,60.47s.09-.03,.13-.06c-.04,.03-.09,.05-.13,.06Z"/>
      <path class="cls-3" d="M61.41,60.56l.18-.03c-.06,.02-.12,.03-.18,.03Z"/>
      <path class="cls-3" d="M61.41,60.56s-.05,.01-.07,.01h-.14c.07,0,.14,0,.21-.01Z"/>
      <path class="cls-3" d="M58.11,10.62v4.33c0,.31,0,.62-.01,.92-.01,.51-.04,1.02-.13,1.53-.14,.78-.41,1.6-.73,2.32-.17,.36-.35,.72-.55,1.06-.1,.17-.21,.34-.32,.5-.07,.11-.15,.21-.23,.32-.09,.1-.17,.19-.27,.28-.24,.21-.52,.37-.84,.48-.04,.02-.08,.03-.13,.05-.26,.09-.52,.16-.79,.23-.01,0-.03,.01-.05,.01-.03,.01-.07,.02-.1,.03-.08,.02-.15,.03-.22,.05-2.95,.68-6.76,.78-9.74,.79H18.35c-.74,0-1.54-.01-2.36-.03s-1.67-.06-2.52-.11c-.42-.03-.84-.06-1.26-.1s-.84-.09-1.24-.14h-.01c-.41-.05-.81-.11-1.2-.18s-.77-.15-1.14-.23c-.07-.02-.15-.03-.22-.05-.03-.01-.07-.02-.1-.03-.02,0-.04-.01-.06-.01-.26-.07-.53-.14-.79-.23-.12-.04-.23-.09-.34-.13h-.01c-.11-.06-.21-.11-.31-.18,0,0-.01,0-.01-.01-.1-.06-.2-.13-.29-.21-.1-.09-.18-.18-.27-.28-.09-.11-.16-.21-.24-.32-.11-.16-.21-.33-.31-.5-.21-.34-.39-.7-.55-1.06-.32-.72-.59-1.54-.73-2.32-.09-.51-.12-1.02-.12-1.53,0,0-.01,0-.01-.02-.01-.3-.01-.6-.01-.9v-4.52c0-.13,.01-.25,.02-.37,.02-.13,.04-.24,.08-.35,.03-.05,.05-.1,.08-.15h0c.04-.06,.08-.11,.12-.15,.03-.03,.06-.07,.1-.09,.09-.09,.19-.15,.3-.21,.11-.05,.23-.1,.35-.13,.04-.02,.07-.03,.11-.04,.07-.02,.13-.04,.2-.04,.49-.12,1.01-.16,1.49-.18,.49-.03,.98-.02,1.47-.02H53.79c.49,0,.98,0,1.47,.02,.48,.02,1,.06,1.49,.18,.07,0,.13,.02,.2,.04,.03,0,.07,.02,.1,.04h.01c.2,.06,.39,.14,.56,.26,.07,.05,.13,.11,.19,.17,.09,.1,.15,.2,.19,.3,.05,.11,.07,.22,.09,.35,.01,.12,.01,.24,.02,.36h0v.2Z"/>
      <path class="cls-3" d="M57.81,9.4h0c-.06-.05-.12-.11-.19-.16,.07,.05,.13,.1,.19,.16Z"/>
      <path class="cls-3" d="M57.06,8.97h0s-.01,.01-.01,.01c-.03-.02-.07-.03-.1-.04-.07-.02-.13-.04-.2-.04h0v-2.75c.19,.21,.31,.49,.31,.79v2.03Z"/>
      <path class="cls-3" d="M56.75,8.89h0c-.49-.11-1.01-.15-1.49-.17-.49-.03-.98-.02-1.47-.02H8.57c-.49,0-.98,0-1.47,.02-.48,.02-1,.06-1.49,.18h0v-2.75c.19-.21,.46-.34,.78-.34H55.97c.31,0,.58,.13,.78,.34v2.74Z"/>
      <path class="cls-3" d="M13.47,23.38c.85,.05,1.7,.09,2.52,.11-.83-.02-1.68-.06-2.52-.11Z"/>
      <path class="cls-3" d="M10.97,23.14c.4,.05,.82,.1,1.24,.14-.42-.04-.83-.08-1.24-.14Z"/>
      <path class="cls-3" d="M9.76,22.96c.39,.07,.79,.13,1.2,.18-.41-.05-.81-.11-1.2-.18Z"/>
      <path class="cls-3" d="M8.62,22.73c.37,.08,.75,.16,1.14,.23-.39-.07-.77-.15-1.14-.23Z"/>
      <path class="cls-3" d="M6.49,21.88c.09,.08,.19,.15,.29,.21-.11-.06-.2-.13-.29-.21Z"/>
      <path class="cls-3" d="M5.61,8.89h0c-.07,.01-.13,.03-.2,.05-.04,0-.07,.02-.11,.04h0v-2.04c0-.3,.11-.58,.31-.79v2.74Z"/>
      <path class="cls-3" d="M4.65,9.32s-.07,.06-.1,.09h0s.06-.07,.1-.09Z"/>
      <path class="cls-3" d="M1.15,60.57h-.13s-.05,0-.07-.01c.07,.01,.14,.01,.2,.01Z"/>
      <path class="cls-3" d="M.77,60.53l.18,.03c-.06,0-.12-.01-.18-.03Z"/>
      <path class="cls-3" d="M.46,60.41s.09,.04,.14,.06c-.05-.01-.1-.03-.14-.06Z"/>
      <path class="cls-3" d="M.12,60.1s.06,.08,.1,.12c-.04-.04-.07-.07-.1-.12Z"/>
      <path class="cls-3" d="M.04,59.92c.01,.05,.04,.1,.07,.15-.03-.04-.06-.09-.07-.15Z"/>
      <path class="cls-3" d="M.01,59.77c0,.05,.01,.1,.03,.15-.02-.04-.03-.09-.03-.15Z"/>
    </g>
    <g>
      <line class="cls-2" x1="44" y1="23.52" x2="18.35" y2="23.52"/>
      <line class="cls-2" x1="5.61" y1="8.89" x2="5.61" y2="6.15"/>
      <line class="cls-2" x1="56.75" y1="8.89" x2="56.75" y2="6.15"/>
      <polyline class="cls-2" points="44 8.7 34.01 8.7 31.18 8.7 28.34 8.7 18.35 8.7"/>
      <line class="cls-2" x1="44" y1="5.81" x2="18.35" y2="5.81"/>
      <line class="cls-2" x1="44" y1="0" x2="18.35" y2="0"/>
      <path class="cls-2" d="M5.3,8.97v-2.03c0-.3,.11-.58,.31-.79,.19-.21,.46-.34,.78-.34h11.96"/>
      <path class="cls-2" d="M4.55,9.41h0s.06-.07,.1-.09"/>
      <path class="cls-2" d="M6.78,22.09c-.1-.06-.2-.13-.29-.21"/>
      <path class="cls-2" d="M10.96,23.14c-.41-.05-.81-.11-1.2-.18s-.77-.15-1.14-.23"/>
      <path class="cls-2" d="M12.21,23.28c-.42-.04-.83-.08-1.24-.14"/>
      <path class="cls-2" d="M18.35,23.52c-.74,0-1.54-.01-2.36-.03-.83-.02-1.68-.06-2.52-.11"/>
      <path class="cls-2" d="M13.47,23.38c.85,.05,1.7,.09,2.52,.11"/>
      <path class="cls-2" d="M13.47,23.38c-.42-.03-.84-.06-1.26-.1"/>
      <path class="cls-2" d="M10.97,23.14c.4,.05,.82,.1,1.24,.14"/>
      <path class="cls-2" d="M10.97,23.14h-.01"/>
      <path class="cls-2" d="M8.62,22.73c.37,.08,.75,.16,1.14,.23s.79,.13,1.2,.18"/>
      <path class="cls-2" d="M8.62,22.73c-.07-.02-.15-.03-.22-.05-.03-.01-.07-.02-.1-.03-.02,0-.04-.01-.06-.01-.26-.07-.53-.14-.79-.23-.12-.04-.23-.09-.34-.13h-.01c-.11-.06-.21-.11-.31-.18,0,0-.01,0-.01-.01"/>
      <path class="cls-2" d="M6.49,21.88c.09,.08,.18,.15,.29,.21"/>
      <path class="cls-2" d="M6.49,21.88c-.1-.09-.18-.18-.27-.28-.09-.11-.16-.21-.24-.32-.11-.16-.21-.33-.31-.5-.21-.34-.39-.7-.55-1.06-.32-.72-.59-1.54-.73-2.32-.09-.51-.12-1.02-.12-1.53"/>
      <path class="cls-2" d="M4.27,15.87s-.01,0-.01-.02c-.01-.3-.01-.6-.01-.9v-4.52c0-.13,.01-.25,.02-.37,.02-.13,.04-.24,.08-.35,.03-.05,.05-.1,.08-.15h0c.04-.06,.08-.11,.12-.15"/>
      <path class="cls-2" d="M4.65,9.32s-.07,.06-.1,.09"/>
      <path class="cls-2" d="M4.65,9.32c.09-.09,.19-.15,.3-.21,.11-.05,.23-.1,.35-.13"/>
      <path class="cls-2" d="M5.3,8.98s.07-.03,.11-.04c.07-.02,.13-.04,.2-.04"/>
      <path class="cls-2" d="M5.61,8.9c.49-.12,1.01-.16,1.49-.18,.49-.03,.98-.02,1.47-.02h9.78"/>
      <path class="cls-2" d="M.77,60.53l.18,.03c.07,.01,.14,.01,.2,.01"/>
      <path class="cls-2" d="M.46,60.41s.09,.04,.14,.06"/>
      <path class="cls-2" d="M.12,60.1c.03,.05,.06,.08,.1,.12"/>
      <path class="cls-2" d="M.01,59.77c0,.06,.01,.11,.03,.15,.01,.06,.04,.11,.07,.15"/>
      <path class="cls-2" d="M0,14.58v14.18H0v30.98s0,.02,.01,.03"/>
      <path class="cls-2" d="M.11,60.07c-.03-.05-.06-.1-.07-.15-.02-.05-.03-.1-.03-.15"/>
      <path class="cls-2" d="M.11,60.07H.11s.01,.02,.01,.03"/>
      <path class="cls-2" d="M.22,60.22s-.07-.08-.1-.12"/>
      <path class="cls-2" d="M.22,60.22l.07,.07s.04,.03,.06,.05l.09,.06s.01,0,.02,.01"/>
      <path class="cls-2" d="M.6,60.47s-.1-.03-.14-.06"/>
      <path class="cls-2" d="M.6,60.47c.06,.03,.11,.04,.17,.06"/>
      <path class="cls-2" d="M1.15,60.57h-.13s-.05,0-.07-.01c-.06,0-.12-.01-.18-.03"/>
      <path class="cls-2" d="M4.25,15.87H1.27s-.04,0-.06,0c-.03,0-.05-.01-.07-.01-.04,0-.08-.02-.13-.03-.04-.02-.08-.03-.13-.05l-.12-.06s-.09-.04-.13-.07c-.08-.05-.15-.11-.22-.18s-.13-.15-.18-.23c-.03-.04-.05-.08-.07-.13-.03-.04-.05-.08-.06-.12-.02-.05-.04-.09-.05-.14,0-.02-.01-.04-.02-.06,0-.02,0-.05-.01-.07,0-.02-.01-.04-.01-.06,0-.03-.01-.05-.01-.07v-.08H0v-.03H0v-.04H0V1.24H0v-.23s.01-.07,.01-.11,.01-.08,.01-.12c.01-.07,.02-.15,.04-.22,0-.04,.01-.07,.02-.1,.01-.04,.01-.07,.02-.1s.02-.06,.03-.08c.01-.03,.02-.06,.03-.08l.03-.06s.01-.02,.02-.03c0-.01,.01-.02,.01-.03,.01,0,.01,0,.02-.02,0,0,0,0,.02,0,0-.01,.01-.02,.01-.02,.01,0,.01-.01,.02-.01h.01s0,0,.01,0h.01s0-.01,0-.01H18.35"/>
      <path class="cls-2" d="M5.68,9.46l-.02,.02s-.05,.04-.07,.06c-.03,.02-.05,.05-.07,.07-.03,.03-.05,.06-.07,.09s-.05,.06-.07,.09c-.02,.04-.04,.08-.06,.11-.03,.05-.05,.09-.07,.14l-.06,.15s-.02,.05-.03,.08c-.02,.05-.04,.11-.05,.16-.02,.07-.04,.13-.05,.19-.02,.07-.03,.13-.04,.2-.02,.1-.03,.19-.04,.29-.02,.09-.03,.19-.03,.28-.01,.1-.02,.2-.03,.29v.15s0,.09,0,.14c-.01,.07-.01,.13-.01,.2-.01,.07-.01,.14-.01,.21-.01,.09-.01,.18-.02,.27,0,.09-.01,.18-.01,.27-.01,.11-.02,.22-.02,.32-.02,.27-.04,.53-.05,.78-.01,.17-.02,.34-.02,.5"/>
      <path class="cls-2" d="M57.06,8.97v-2.03c0-.3-.12-.58-.31-.79"/>
      <path class="cls-2" d="M44,5.81h11.97c.31,0,.58,.13,.78,.34"/>
      <path class="cls-2" d="M57.81,9.41h0c-.06-.07-.12-.12-.19-.17"/>
      <path class="cls-2" d="M44,23.52c2.98-.01,6.79-.11,9.74-.79,.07-.02,.14-.03,.22-.05,.03-.01,.07-.02,.1-.03,.02,0,.04-.01,.05-.01,.27-.07,.53-.14,.79-.23,.05-.02,.09-.03,.13-.05,.32-.11,.6-.27,.84-.48,.1-.09,.18-.18,.27-.28,.08-.11,.16-.21,.23-.32,.11-.16,.22-.33,.32-.5,.2-.34,.38-.7,.55-1.06,.32-.72,.59-1.54,.73-2.32,.09-.51,.12-1.02,.13-1.53"/>
      <path class="cls-2" d="M58.1,15.87c.01-.3,.01-.61,.01-.92v-4.52h0c-.01-.13-.01-.25-.02-.37-.02-.13-.04-.24-.09-.35-.04-.1-.1-.2-.19-.3"/>
      <path class="cls-2" d="M57.62,9.24c.07,.05,.13,.11,.19,.17"/>
      <path class="cls-2" d="M57.62,9.24c-.17-.12-.36-.2-.56-.26"/>
      <path class="cls-2" d="M57.06,8.98h-.01s-.07-.03-.1-.04c-.07-.02-.13-.04-.2-.04"/>
      <path class="cls-2" d="M56.75,8.9c-.49-.12-1.01-.16-1.49-.18-.49-.03-.98-.02-1.47-.02h-9.79"/>
      <path class="cls-2" d="M44,0h17.43"/>
      <path class="cls-2" d="M61.59,60.53l-.18,.03c-.07,.01-.14,.01-.21,.01-.08,.01-.16,.01-.24,.02-.13,0-.25,.01-.38,.02-1.23,.07-2.47,.14-3.7,.2-1.53,.07-3.06,.14-4.59,.2-.09,0-.19,0-.29,.01-.25,.01-.49,.01-.74,.02-.71,.03-1.42,.04-2.13,.06-.37,.01-.75,.02-1.12,.03-.08,0-.17,0-.25,.01-.19,0-.37,0-.55,.01-.36,0-.72,.01-1.08,.02l-2.13,.03H18.35c-.7-.01-1.41-.02-2.12-.03-.36,0-.72-.02-1.08-.02-.18-.01-.37-.01-.55-.01-.08-.01-.17-.01-.25-.01-.38,0-.75-.02-1.12-.03-.71-.02-1.42-.03-2.14-.06-.24-.01-.49-.01-.73-.02-.1-.01-.2-.01-.3-.01-1.53-.06-3.05-.13-4.58-.2-1.24-.06-2.47-.13-3.7-.2-.13-.01-.26-.02-.39-.02-.08,0-.16,0-.24-.02"/>
      <path class="cls-2" d="M61.89,60.41s-.09,.05-.13,.06"/>
      <path class="cls-2" d="M62.27,60.03s-.03,.06-.05,.09c-.02,.04-.05,.07-.08,.1-.02,.03-.05,.05-.07,.07s-.04,.04-.07,.05"/>
      <path class="cls-2" d="M62.36,14.55v14.21h0v30.95h0"/>
      <path class="cls-2" d="M62.36,59.72v.02s-.01,.08-.03,.12t0,.02c0,.05-.03,.1-.06,.15"/>
      <path class="cls-2" d="M62,60.34c.05-.04,.1-.08,.14-.12,.03-.03,.05-.07,.08-.1,.02-.03,.04-.06,.05-.09"/>
      <path class="cls-2" d="M62,60.34s-.07,.05-.11,.07"/>
      <path class="cls-2" d="M61.76,60.47s.09-.03,.13-.06"/>
      <path class="cls-2" d="M61.76,60.47s-.1,.05-.16,.06h-.01"/>
      <path class="cls-2" d="M61.2,60.57h.14s.05,0,.07-.01c.06,0,.12-.01,.18-.03"/>
      <path class="cls-2" d="M58.1,15.87h2.99s.04,0,.06,0,.04-.01,.06-.01c.05,0,.09-.02,.13-.03,.05-.02,.09-.03,.13-.05,.05-.02,.09-.04,.13-.06s.08-.04,.12-.07c.08-.05,.16-.11,.23-.18,.06-.07,.13-.15,.18-.23,.03-.04,.05-.08,.07-.13l.06-.12c.02-.05,.03-.09,.04-.14,.01-.02,.02-.04,.02-.06,0-.02,0-.05,.02-.07,0-.02,0-.04,.01-.06v-.07s.01-.02,.01-.03v-.05h0v-.03h0v-.04h0V1.24h0v-.11s0-.08-.01-.12v-.11s-.01-.08-.02-.12c0-.07-.02-.15-.03-.22-.01-.04-.01-.07-.02-.1-.01-.04-.02-.07-.03-.1,0-.03,0-.06-.02-.08-.01-.03-.02-.06-.03-.08l-.03-.06s0-.02-.02-.03-.01-.02-.02-.03c0,0-.01,0-.01-.02-.01,0-.01,0-.02,0-.01-.01-.01-.02-.02-.02h0s-.01-.02-.01-.02h-.02s0-.01-.01-.01"/>
      <path class="cls-2" d="M57.59,14.52c-.01-.16-.01-.33-.02-.5-.02-.25-.03-.51-.05-.78-.01-.1-.01-.21-.02-.32,0-.09,0-.18-.02-.27,0-.09-.01-.18-.01-.27,0-.07-.01-.14-.01-.21s-.01-.13-.01-.2c0-.05-.01-.1-.01-.14,0-.05,0-.1-.01-.15,0-.09-.01-.19-.02-.29-.01-.09-.02-.19-.03-.28-.01-.1-.02-.19-.04-.29-.01-.07-.03-.13-.04-.2-.02-.06-.03-.12-.05-.19-.02-.05-.03-.11-.05-.16-.01-.03-.02-.05-.03-.08l-.06-.15c-.03-.05-.05-.09-.07-.14-.02-.03-.04-.07-.07-.11l-.06-.09s-.05-.06-.07-.09l-.07-.07s-.05-.04-.07-.06c-.01-.01-.02-.01-.02-.02"/>
      <path class="cls-2" d="M62.36,59.72h21.26c3.91,0,7.09-3.18,7.09-7.09V7.08C90.71,3.17,87.53,0,83.62,0h-22.19"/>
    </g>
  </g>
  <text class="cls-1" transform="translate(25.25 42.11)"><tspan x="0" y="0">110</tspan></text>
</svg>