<?xml version="1.0" encoding="UTF-8"?>
<svg id="_03_LINEA_FINA" data-name="03_LINEA FINA" xmlns="http://www.w3.org/2000/svg" viewBox="0 0 85.04 61.23">
  <defs>
    <style>
      .cls-1 {
        font-family: Inter18pt-Medium, 'Inter 18pt';
        font-size: 10px;
      }

      .cls-2 {
        fill: none;
        stroke: #404041;
        stroke-linecap: round;
        stroke-linejoin: round;
        stroke-width: .35px;
      }

      .cls-3 {
        fill: #f1f1f2;
      }
    </style>
  </defs>
  <g>
    <g>
      <path class="cls-3" d="M85.04,59.71v.03s0,.02-.01,.03c0,.05-.01,.1-.03,.15-.01,.05-.04,.1-.07,.15,0,.01,0,.02,0,.03-.03,.04-.07,.08-.1,.12-.04,.04-.09,.08-.14,.12-.03,.03-.07,.05-.11,.07-.04,.03-.09,.05-.13,.06-.05,.03-.1,.05-.16,.06h-.01l-.18,.03c-.07,.01-.14,.01-.21,.01-.08,.01-.16,.01-.23,.02-.13,0-.26,.01-.39,.02-1.23,.07-2.46,.14-3.7,.2-1.53,.07-3.06,.14-4.59,.2-.09,0-.19,0-.29,.01-.24,.01-.49,.01-.74,.02-.71,.03-1.42,.04-2.13,.06-.37,.01-.75,.02-1.12,.03-.08,0-.17,0-.25,.01-.18,0-.37,0-.55,.01-.36,0-.72,.01-1.08,.02-.71,.01-1.42,.02-2.12,.03h-19.99c-.7-.01-1.41-.02-2.12-.03-.36,0-.72-.02-1.08-.02-.18-.01-.37-.01-.55-.01-.08-.01-.17-.01-.25-.01-.37,0-.75-.02-1.12-.03-.71-.02-1.42-.03-2.13-.06-.25-.01-.5-.01-.74-.02-.1-.01-.2-.01-.29-.01-1.53-.06-3.06-.13-4.59-.2-1.23-.06-2.47-.13-3.7-.2-.13-.01-.26-.02-.39-.02-.07,0-.15,0-.23-.02-.07,0-.14,0-.21-.01l-.18-.03c-.06-.02-.11-.03-.17-.06-.04-.01-.09-.03-.13-.06,0,0-.02-.01-.03-.01-.03-.02-.05-.04-.08-.06-.05-.04-.1-.08-.14-.12-.03-.04-.07-.08-.1-.12,0-.01,0-.02-.01-.02h0c-.03-.06-.06-.11-.07-.16-.02-.05-.03-.1-.03-.15-.01-.01-.01-.02-.01-.03v-.02h0V28.77h0V14.58s.01,.04,.01,.07c0,.02,.01,.04,.01,.06,.01,.02,.01,.05,.02,.07,0,.02,.01,.04,.01,.06,.02,.05,.03,.09,.05,.14,.02,.04,.03,.08,.06,.12,.02,.05,.04,.09,.07,.13,.05,.08,.11,.16,.18,.23s.15,.13,.23,.18c.04,.03,.08,.05,.12,.07s.08,.04,.13,.06c.04,.02,.08,.03,.12,.05,.05,0,.09,.02,.13,.03,.02,0,.05,.01,.07,.01s.04,0,.06,0h3c0,.51,.03,1.02,.12,1.53,.14,.78,.41,1.6,.73,2.32,.16,.36,.35,.72,.55,1.06,.1,.17,.2,.34,.31,.5,.08,.11,.16,.22,.25,.33,.08,.1,.17,.19,.26,.27h0c.09,.08,.18,.15,.28,.21,0,.01,.01,.01,.01,.01,.1,.07,.2,.12,.31,.17h.01s.1,.05,.15,.07c.06,.02,.12,.05,.19,.07h.02c.25,.09,.52,.16,.78,.23,.01,0,.03,.01,.05,.01,.03,.01,.07,.02,.1,.03,.08,.02,.15,.03,.22,.05,2.95,.68,6.76,.78,9.73,.79h19.99c.37,0,.75-.01,1.15-.01s.8-.01,1.21-.02c.2-.01,.41-.01,.62-.02,.61-.02,1.24-.05,1.86-.09,.43-.03,.87-.06,1.3-.1,.42-.04,.83-.09,1.24-.14s.82-.11,1.21-.18,.77-.15,1.14-.23c.07-.02,.14-.03,.22-.05,.03-.01,.07-.02,.1-.03,.02,0,.04-.01,.05-.01,.26-.07,.53-.14,.78-.23h.02c.07-.02,.13-.05,.19-.07,.29-.12,.55-.26,.77-.46,.1-.09,.18-.18,.27-.28,.09-.11,.16-.21,.24-.32,.11-.16,.21-.33,.31-.5,.2-.34,.39-.7,.55-1.06,.32-.72,.59-1.54,.73-2.32,.09-.51,.12-1.02,.13-1.53h2.99s.04,0,.06,0,.05-.01,.07-.01c.04,0,.08-.02,.13-.03,.04-.02,.08-.03,.12-.05,.05-.02,.09-.04,.13-.06s.08-.04,.12-.07c.08-.05,.16-.11,.23-.18s.13-.15,.18-.23c.03-.04,.05-.08,.07-.13,.03-.04,.04-.08,.06-.12,.02-.05,.03-.09,.05-.14,0-.02,.01-.04,.01-.06,0-.02,0-.05,.02-.07,0-.02,.01-.04,.01-.06,0-.03,0-.05,.01-.07v14.18h0v30.95Z"/>
      <path class="cls-3" d="M85.04,12.19v2.39s-.01,.04-.01,.07c0,.02-.01,.04-.01,.06-.01,.02-.01,.05-.02,.07,0,.02-.01,.04-.01,.06-.02,.05-.03,.09-.05,.14-.02,.04-.03,.08-.06,.12-.02,.05-.04,.09-.07,.13-.05,.08-.11,.16-.18,.23s-.15,.13-.23,.18c-.04,.03-.08,.05-.12,.07s-.08,.04-.13,.06c-.04,.02-.08,.03-.12,.05-.05,0-.09,.02-.13,.03-.02,0-.05,.01-.07,.01s-.04,0-.06,0h-2.99c.01-.3,.01-.61,.01-.92v-4.52h0c0-.13-.01-.25-.02-.37-.02-.13-.04-.24-.08-.35-.05-.1-.11-.2-.2-.3h0c-.06-.07-.12-.12-.19-.17-.17-.12-.36-.2-.56-.26h0v-2.04c0-.3-.12-.58-.31-.79-.2-.21-.47-.34-.78-.34H34.74c-.31,0-.58,.13-.78,.34-.19,.21-.31,.49-.31,.79v2.03h0c-.2,.07-.39,.15-.56,.27-.07,.05-.13,.1-.19,.16h0l-.12,.15h0c-.03,.06-.05,.11-.08,.16-.04,.11-.07,.22-.08,.35-.01,.12-.02,.24-.02,.37v4.52c0,.31,0,.62,.01,.92h-2.99s-.04,0-.06,0-.05-.01-.07-.01c-.04,0-.08-.02-.13-.03-.04-.02-.08-.03-.12-.05-.05-.02-.09-.04-.13-.06s-.08-.04-.12-.07c-.08-.05-.16-.11-.23-.18s-.13-.15-.18-.23c-.03-.04-.05-.08-.07-.13-.03-.04-.04-.08-.06-.12-.02-.05-.03-.09-.05-.14,0-.02-.01-.04-.01-.06-.01-.02-.01-.05-.02-.07,0-.02-.01-.04-.01-.06,0-.03,0-.05-.01-.07V1.24h0v-.23s.01-.07,.01-.11c.01-.04,.01-.08,.01-.12,.01-.07,.02-.15,.04-.22,0-.04,.01-.07,.02-.1,.01-.04,.01-.07,.02-.1s.02-.06,.03-.08c0-.03,.02-.06,.03-.08l.03-.06s.01-.02,.02-.03c0-.01,0-.02,0-.03,.01,0,.02,0,.02-.02,.01,0,.01,0,.02,0,0-.01,.01-.02,.01-.02,.01,0,.02-.01,.02-.01h.01s0,0,0,0h.01c.2-.01,.41-.01,.61-.01h55.45s0,.01,0,.01h.01s0,.02,.02,.02c0,0,.01,0,.01,.02,.01,0,.01,0,.02,0,0,.01,.01,.02,.02,.02,0,.01,.01,.02,.01,.03,.01,0,.01,.02,.02,.03l.03,.06s.02,.05,.03,.08c.01,.02,.02,.05,.03,.08s.01,.06,.02,.1c.01,.03,.02,.06,.02,.1,.02,.07,.03,.15,.04,.22,0,.04,0,.08,.01,.12,0,.04,0,.08,.01,.11v.22h0V12.19Z"/>
      <path class="cls-3" d="M85,59.92s.03-.1,.03-.15c0,.06-.01,.11-.03,.15Z"/>
      <path class="cls-3" d="M84.93,60.07c.03-.05,.06-.1,.07-.15-.01,.06-.04,.11-.07,.15Z"/>
      <path class="cls-3" d="M84.82,60.22s.07-.08,.1-.12c-.03,.05-.06,.08-.1,.12Z"/>
      <path class="cls-3" d="M84.82,60.22s-.04,.05-.07,.07c-.02,.02-.04,.04-.07,.05,.05-.04,.1-.08,.14-.12Z"/>
      <path class="cls-3" d="M84.44,60.47s.09-.03,.13-.06c-.04,.03-.09,.05-.13,.06Z"/>
      <path class="cls-3" d="M84.09,60.56l.18-.03c-.06,.02-.12,.03-.18,.03Z"/>
      <path class="cls-3" d="M84.09,60.56s-.05,.01-.07,.01h-.14c.07,0,.14,0,.21-.01Z"/>
      <path class="cls-3" d="M80.79,10.62v4.33c0,.31,0,.62-.01,.92-.01,.51-.04,1.02-.13,1.53-.14,.78-.41,1.6-.73,2.32-.16,.36-.35,.72-.55,1.06-.1,.17-.2,.34-.31,.5-.08,.11-.15,.21-.24,.32-.09,.1-.17,.19-.27,.28-.22,.2-.48,.34-.77,.46-.07,.02-.14,.05-.21,.07-.25,.09-.52,.16-.78,.23-.01,0-.03,.01-.05,.01-.03,.01-.07,.02-.1,.03-.08,.02-.15,.03-.22,.05-.37,.08-.75,.16-1.14,.23s-.8,.13-1.21,.18c-.4,.05-.82,.1-1.24,.14-.43,.04-.87,.07-1.3,.1-.63,.04-1.25,.07-1.86,.09-.21,.01-.42,.01-.62,.02-.41,0-.81,.02-1.21,.02s-.78,.01-1.15,.01h-19.99c-2.97-.01-6.78-.11-9.73-.79-.07-.02-.14-.03-.22-.05-.03-.01-.07-.02-.1-.03-.02,0-.04-.01-.05-.01-.26-.07-.53-.14-.78-.23-.07-.02-.14-.05-.21-.07l-.15-.06h-.01c-.11-.06-.21-.11-.31-.18,0,0-.01,0-.01-.01-.1-.06-.19-.13-.28-.2h0c-.09-.09-.18-.18-.26-.28-.09-.11-.17-.22-.25-.33-.11-.16-.21-.33-.31-.5-.2-.34-.39-.7-.55-1.06-.32-.72-.59-1.54-.73-2.32-.09-.51-.12-1.02-.12-1.53h-.01c-.01-.3-.01-.61-.01-.92v-4.52c0-.13,.01-.25,.02-.37,.01-.13,.04-.24,.08-.35,.03-.05,.05-.1,.08-.15h0c.04-.06,.08-.11,.12-.15,.06-.06,.12-.12,.19-.17,.17-.12,.36-.2,.56-.26,.04-.02,.07-.03,.11-.04,.07-.02,.13-.04,.2-.04,.49-.12,1.01-.16,1.49-.18,.49-.03,.98-.02,1.47-.02h39.55c.49,0,.98,0,1.47,.02,.48,.02,1,.06,1.49,.18,.07,0,.13,.02,.2,.04,.03,0,.07,.02,.1,.04h0c.2,.06,.39,.14,.56,.26,.07,.05,.13,.11,.19,.17,.09,.1,.15,.2,.2,.3,.04,.11,.06,.22,.08,.35,.01,.12,.02,.24,.02,.36h0v.2Z"/>
      <path class="cls-3" d="M80.49,9.4h0c-.06-.05-.12-.11-.19-.16,.07,.05,.13,.1,.19,.16Z"/>
      <path class="cls-3" d="M79.74,8.97h0s0,.01,0,.01c-.03-.02-.07-.03-.1-.04-.07-.02-.13-.04-.2-.04h0v-2.75c.19,.21,.31,.49,.31,.79v2.03Z"/>
      <path class="cls-3" d="M79.43,8.89h0c-.49-.11-1.01-.15-1.49-.17-.49-.03-.98-.02-1.47-.02H36.92c-.49,0-.98,0-1.47,.02-.48,.02-1,.06-1.49,.18h0v-2.75c.2-.21,.47-.34,.78-.34h43.91c.31,0,.58,.13,.78,.34v2.74Z"/>
      <path class="cls-3" d="M77.78,22.34c-.06,.02-.12,.05-.19,.07h-.02c.07-.02,.14-.05,.21-.07Z"/>
      <path class="cls-3" d="M75.28,22.96c.39-.07,.77-.15,1.14-.23-.37,.08-.75,.16-1.14,.23Z"/>
      <path class="cls-3" d="M74.07,23.14c.41-.05,.82-.11,1.21-.18-.39,.07-.8,.13-1.21,.18Z"/>
      <path class="cls-3" d="M72.83,23.28c.42-.04,.84-.09,1.24-.14-.41,.05-.82,.1-1.24,.14Z"/>
      <path class="cls-3" d="M69.67,23.47c.61-.02,1.23-.05,1.86-.09-.62,.04-1.25,.07-1.86,.09Z"/>
      <path class="cls-3" d="M35.82,22.41h-.02c-.07-.02-.13-.05-.19-.07,.07,.02,.14,.05,.21,.07Z"/>
      <path class="cls-3" d="M33.96,8.89h0c-.07,.01-.13,.03-.2,.05-.04,0-.07,.02-.11,.04h0v-2.04c0-.3,.12-.58,.31-.79v2.74Z"/>
      <path class="cls-3" d="M33.09,9.24c-.07,.05-.13,.11-.19,.17h0c.06-.07,.12-.12,.19-.17Z"/>
      <path class="cls-3" d="M29.51,60.57h-.14s-.05,0-.07-.01c.07,.01,.14,.01,.21,.01Z"/>
      <path class="cls-3" d="M29.12,60.53l.18,.03c-.06,0-.12-.01-.18-.03Z"/>
      <path class="cls-3" d="M28.82,60.41s.09,.05,.13,.06c-.04-.01-.09-.03-.13-.06Z"/>
      <path class="cls-3" d="M28.71,60.34s-.05-.03-.07-.05c-.03-.02-.05-.04-.07-.07,.04,.04,.09,.08,.14,.12Z"/>
      <path class="cls-3" d="M28.67,0h-.01s0,.01,0,.01h-.01s-.01,.02-.02,.02c0,0-.01,0-.01,.02-.01,0-.01,0-.02,0,0,.01,0,.02-.02,.02,0,.01,0,.02,0,.03-.01,0-.01,.02-.02,.03l-.03,.06s-.02,.05-.03,.08c-.01,.02-.02,.05-.03,.08s-.01,.06-.02,.1c0,.03-.02,.06-.02,.1-.02,.07-.03,.15-.04,.22,0,.04,0,.08-.01,.12,0,.04,0,.08-.01,.11v.22h0V28.76h0v30.95h0c-.47,.01-.95,.01-1.42,.01H7.09C3.18,59.72,0,56.54,0,52.63V7.08C0,3.17,3.17,0,7.09,0H28.67Z"/>
      <path class="cls-3" d="M28.47,60.1s.07,.08,.1,.12c-.04-.04-.07-.07-.1-.12Z"/>
      <path class="cls-3" d="M28.39,59.92c.01,.05,.04,.1,.07,.15-.03-.04-.06-.09-.07-.15Z"/>
      <path class="cls-3" d="M28.36,59.77c0,.05,.01,.1,.03,.15-.02-.04-.03-.09-.03-.15Z"/>
    </g>
    <g>
      <polyline class="cls-2" points="66.69 23.52 56.7 23.52 46.7 23.52"/>
      <polyline class="cls-2" points="66.69 0 56.7 0 46.7 0"/>
      <polyline class="cls-2" points="66.69 5.81 56.7 5.81 46.7 5.81"/>
      <path class="cls-2" d="M80.27,14.52c0-.16-.01-.33-.02-.5-.01-.25-.03-.51-.05-.78,0-.1-.01-.21-.02-.32,0-.09,0-.18,0-.27-.01-.09-.01-.18-.02-.27,0-.07,0-.14-.01-.21,0-.07-.01-.13-.01-.2,0-.05,0-.1-.01-.14,0-.05,0-.1-.01-.15,0-.09-.01-.19-.02-.29,0-.09-.01-.19-.03-.28-.01-.1-.02-.19-.04-.29-.01-.07-.03-.13-.04-.2-.02-.06-.03-.12-.05-.19-.02-.05-.03-.11-.05-.16-.01-.03-.02-.05-.03-.08l-.06-.15c-.02-.05-.05-.09-.07-.14-.02-.03-.04-.07-.06-.11-.03-.03-.05-.06-.07-.09s-.04-.06-.07-.09c-.02-.02-.04-.05-.07-.07-.02-.02-.05-.04-.07-.06l-.02-.02"/>
      <line class="cls-2" x1="79.43" y1="8.89" x2="79.43" y2="6.15"/>
      <path class="cls-2" d="M80.78,15.87h2.99s.04,0,.06,0,.05-.01,.07-.01c.04,0,.08-.02,.13-.03,.04-.02,.08-.03,.12-.05,.05-.02,.09-.04,.13-.06s.08-.04,.12-.07c.08-.05,.16-.11,.23-.18s.13-.15,.18-.23c.03-.04,.05-.08,.07-.13,.03-.04,.04-.08,.06-.12,.02-.05,.03-.09,.05-.14,0-.02,.01-.04,.01-.06,0-.02,0-.05,.02-.07,0-.02,.01-.04,.01-.06,0-.03,0-.05,.01-.07"/>
      <path class="cls-2" d="M79.74,8.97v-2.03c0-.3-.12-.58-.31-.79"/>
      <path class="cls-2" d="M66.69,5.81h11.96c.31,0,.58,.13,.78,.34"/>
      <path class="cls-2" d="M34.03,9.46l-.02,.02s-.05,.04-.07,.06c-.03,.02-.05,.05-.07,.07-.03,.03-.05,.06-.07,.09s-.04,.06-.07,.09c-.02,.04-.04,.08-.06,.11-.02,.05-.05,.09-.07,.14l-.06,.15s-.02,.05-.03,.08c-.02,.05-.03,.11-.05,.16-.02,.07-.03,.13-.05,.19,0,.07-.03,.13-.04,.2-.02,.1-.03,.19-.04,.29-.02,.09-.03,.19-.03,.28-.01,.1-.02,.2-.02,.29-.01,.05-.01,.1-.01,.15-.01,.04-.01,.09-.01,.14,0,.07,0,.13,0,.2s-.01,.14-.01,.21c0,.09,0,.18-.02,.27,0,.09-.01,.18-.01,.27-.01,.11-.02,.22-.02,.32-.02,.27-.04,.53-.05,.78-.01,.17-.02,.34-.02,.5"/>
      <line class="cls-2" x1="33.96" y1="8.89" x2="33.96" y2="6.15"/>
      <path class="cls-2" d="M32.61,15.87h-2.99s-.04,0-.06,0-.05-.01-.07-.01c-.04,0-.08-.02-.13-.03-.04-.02-.08-.03-.12-.05-.05-.02-.09-.04-.13-.06s-.08-.04-.12-.07c-.08-.05-.16-.11-.23-.18s-.13-.15-.18-.23c-.03-.04-.05-.08-.07-.13-.03-.04-.04-.08-.06-.12-.02-.05-.03-.09-.05-.14,0-.02-.01-.04-.01-.06-.01-.02-.01-.05-.02-.07,0-.02-.01-.04-.01-.06,0-.03,0-.05-.01-.07"/>
      <path class="cls-2" d="M46.7,0H29.28"/>
      <path class="cls-2" d="M46.7,5.81h-11.96c-.31,0-.58,.13-.78,.34"/>
      <path class="cls-2" d="M33.65,8.97v-2.03c0-.3,.12-.58,.31-.79"/>
      <path class="cls-2" d="M84.27,60.53l-.18,.03c-.07,.01-.14,.01-.21,.01"/>
      <path class="cls-2" d="M84.57,60.41s-.09,.05-.13,.06"/>
      <path class="cls-2" d="M84.92,60.1c-.03,.05-.06,.08-.1,.12-.02,.03-.04,.05-.07,.07-.02,.02-.04,.04-.07,.05"/>
      <path class="cls-2" d="M85.03,59.77c0,.06-.01,.11-.03,.15-.01,.06-.04,.11-.07,.15"/>
      <path class="cls-2" d="M85.04,14.58V1.24h0v-.23s-.01-.07-.01-.11c-.01-.04-.01-.08-.01-.12-.01-.07-.02-.15-.04-.22,0-.04-.01-.07-.02-.1-.01-.04-.01-.07-.02-.1s-.02-.06-.03-.08c0-.03-.02-.06-.03-.08l-.03-.06s0-.02-.02-.03c0-.01-.01-.02-.01-.03,0,0-.02,0-.02-.02-.01,0-.01,0-.02,0,0-.01-.01-.02-.01-.02-.01,0-.02-.01-.02-.01h-.01s0,0,0,0h-.02s0-.01-.01-.01h-18.01"/>
      <path class="cls-2" d="M85.04,14.58v14.18h0v30.98s0,.02-.01,.03"/>
      <path class="cls-2" d="M84.93,60.07c.03-.05,.06-.1,.07-.15,.02-.05,.03-.1,.03-.15"/>
      <path class="cls-2" d="M84.93,60.07s0,.02,0,.03"/>
      <path class="cls-2" d="M84.68,60.34c.05-.04,.1-.08,.14-.12,.03-.04,.07-.08,.1-.12"/>
      <path class="cls-2" d="M84.68,60.34s-.07,.05-.11,.07"/>
      <path class="cls-2" d="M84.44,60.47s.09-.03,.13-.06"/>
      <path class="cls-2" d="M84.44,60.47s-.1,.05-.16,.06h-.01"/>
      <path class="cls-2" d="M83.88,60.57h.14s.05,0,.07-.01c.06,0,.12-.01,.18-.03"/>
      <path class="cls-2" d="M83.88,60.57c-.08,.01-.16,.01-.23,.02-.13,0-.26,.01-.39,.02-1.23,.07-2.46,.14-3.7,.2-1.53,.07-3.06,.14-4.59,.2-.09,0-.19,0-.29,.01-.24,.01-.49,.01-.74,.02-.71,.03-1.42,.04-2.13,.06-.37,.01-.75,.02-1.12,.03-.08,0-.17,0-.25,.01-.18,0-.37,0-.55,.01-.36,0-.72,.01-1.08,.02-.71,.01-1.42,.02-2.12,.03"/>
      <path class="cls-2" d="M46.7,61.2h19.99"/>
      <path class="cls-2" d="M29.12,60.53l.18,.03c.07,.01,.14,.01,.21,.01"/>
      <path class="cls-2" d="M28.82,60.41s.09,.05,.13,.06"/>
      <path class="cls-2" d="M28.47,60.1c.03,.05,.06,.08,.1,.12,.02,.03,.04,.05,.07,.07,.02,.02,.04,.04,.07,.05"/>
      <path class="cls-2" d="M28.36,59.77c0,.06,.01,.11,.03,.15,.01,.06,.04,.11,.07,.15"/>
      <path class="cls-2" d="M28.67,0h-.01s0,.01,0,.01h-.01s-.01,.02-.02,.02c0,0-.01,0-.01,.02-.01,0-.01,0-.02,0,0,.01,0,.02-.02,.02,0,.01,0,.02,0,.03-.01,0-.01,.02-.02,.03l-.03,.06s-.02,.05-.03,.08c-.01,.02-.02,.05-.03,.08s-.01,.06-.02,.1c0,.03-.02,.06-.02,.1-.02,.07-.03,.15-.04,.22,0,.04,0,.08-.01,.12,0,.04,0,.08-.01,.11v.22h0V14.58"/>
      <path class="cls-2" d="M28.35,14.58v14.18h0v30.95h0"/>
      <path class="cls-2" d="M28.35,59.72v.02s0,.02,.01,.03"/>
      <path class="cls-2" d="M28.46,60.07c-.03-.05-.06-.1-.07-.15-.02-.05-.03-.1-.03-.15"/>
      <path class="cls-2" d="M28.46,60.07h0s.01,.02,.01,.03"/>
      <path class="cls-2" d="M28.71,60.34c-.05-.04-.1-.08-.14-.12-.03-.04-.07-.08-.1-.12"/>
      <path class="cls-2" d="M28.71,60.34s.05,.04,.08,.06c.01,0,.02,.01,.03,.01"/>
      <path class="cls-2" d="M28.95,60.47s-.09-.03-.13-.06"/>
      <path class="cls-2" d="M28.95,60.47c.06,.03,.11,.04,.17,.06"/>
      <path class="cls-2" d="M29.51,60.57h-.14s-.05,0-.07-.01c-.06,0-.12-.01-.18-.03"/>
      <path class="cls-2" d="M29.51,60.57c.08,.01,.16,.01,.23,.02,.13,0,.26,.01,.39,.02,1.23,.07,2.47,.14,3.7,.2,1.53,.07,3.06,.14,4.59,.2,.09,0,.19,0,.29,.01,.24,.01,.49,.01,.74,.02,.71,.03,1.42,.04,2.13,.06,.37,.01,.75,.02,1.12,.03,.08,0,.17,0,.25,.01,.18,0,.37,0,.55,.01,.36,0,.72,.01,1.08,.02,.71,.01,1.42,.02,2.12,.03"/>
      <path class="cls-2" d="M80.49,9.41h0c-.06-.07-.12-.12-.19-.17"/>
      <path class="cls-2" d="M77.57,22.41h.02c.07-.02,.13-.05,.19-.07"/>
      <path class="cls-2" d="M72.83,23.28c.42-.04,.83-.09,1.24-.14s.82-.11,1.21-.18,.77-.15,1.14-.23"/>
      <path class="cls-2" d="M66.69,23.52c.37,0,.75-.01,1.15-.01s.8-.01,1.21-.02c.2-.01,.41-.01,.62-.02,.61-.02,1.24-.05,1.86-.09"/>
      <path class="cls-2" d="M71.53,23.38c-.63,.04-1.25,.07-1.86,.09"/>
      <path class="cls-2" d="M71.53,23.38c.43-.03,.87-.06,1.3-.1"/>
      <path class="cls-2" d="M76.42,22.73c-.37,.08-.75,.16-1.14,.23s-.8,.13-1.21,.18c-.4,.05-.82,.1-1.24,.14"/>
      <path class="cls-2" d="M76.42,22.73c.07-.02,.14-.03,.22-.05,.03-.01,.07-.02,.1-.03,.02,0,.04-.01,.05-.01,.26-.07,.53-.14,.78-.23"/>
      <path class="cls-2" d="M77.78,22.34c-.07,.02-.14,.05-.21,.07"/>
      <path class="cls-2" d="M77.78,22.34c.29-.12,.55-.26,.77-.46,.1-.09,.18-.18,.27-.28,.09-.11,.16-.21,.24-.32,.11-.16,.21-.33,.31-.5,.2-.34,.39-.7,.55-1.06,.32-.72,.59-1.54,.73-2.32,.09-.51,.12-1.02,.13-1.53"/>
      <path class="cls-2" d="M80.78,15.87c.01-.3,.01-.61,.01-.92v-4.52h0c0-.13-.01-.25-.02-.37-.02-.13-.04-.24-.08-.35-.05-.1-.11-.2-.2-.3"/>
      <path class="cls-2" d="M80.3,9.24c.07,.05,.13,.11,.19,.17"/>
      <path class="cls-2" d="M80.3,9.24c-.17-.12-.36-.2-.56-.26"/>
      <path class="cls-2" d="M79.74,8.98h0s-.07-.03-.1-.04c-.07-.02-.13-.04-.2-.04"/>
      <path class="cls-2" d="M79.43,8.9c-.49-.12-1.01-.16-1.49-.18-.49-.03-.98-.02-1.47-.02h-9.78"/>
      <path class="cls-2" d="M46.7,8.7h19.99"/>
      <path class="cls-2" d="M32.9,9.41h0c.06-.07,.12-.12,.19-.17"/>
      <path class="cls-2" d="M46.7,23.52c-2.97-.01-6.78-.11-9.73-.79-.07-.02-.14-.03-.22-.05-.03-.01-.07-.02-.1-.03-.02,0-.04-.01-.05-.01-.26-.07-.53-.14-.78-.23h-.02c-.07-.02-.13-.05-.19-.07"/>
      <path class="cls-2" d="M35.61,22.34c.07,.02,.14,.05,.21,.07"/>
      <path class="cls-2" d="M35.61,22.34l-.15-.06h-.01c-.11-.06-.21-.11-.31-.18,0,0-.01,0-.01-.01-.1-.06-.19-.13-.28-.2h0c-.09-.09-.18-.18-.26-.28-.09-.11-.17-.22-.25-.33-.11-.16-.21-.33-.31-.5-.2-.34-.39-.7-.55-1.06-.32-.72-.59-1.54-.73-2.32-.09-.51-.12-1.02-.12-1.53h-.01"/>
      <path class="cls-2" d="M32.61,15.87c-.01-.3-.01-.61-.01-.92v-4.52c0-.13,.01-.25,.02-.37,.01-.13,.04-.24,.08-.35,.03-.05,.05-.1,.08-.15h0c.04-.06,.08-.11,.12-.15"/>
      <path class="cls-2" d="M33.09,9.24c-.07,.05-.13,.11-.19,.17"/>
      <path class="cls-2" d="M33.09,9.24c.17-.12,.36-.2,.56-.26"/>
      <path class="cls-2" d="M33.65,8.98s.07-.03,.11-.04c.07-.02,.13-.04,.2-.04"/>
      <path class="cls-2" d="M33.96,8.9c.49-.12,1.01-.16,1.49-.18,.49-.03,.98-.02,1.47-.02h9.78"/>
      <path class="cls-2" d="M28.35,59.72H7.09C3.18,59.72,0,56.54,0,52.63V7.08C0,3.17,3.17,0,7.09,0H29.28"/>
    </g>
  </g>
  <text class="cls-1" transform="translate(48.49 42.11)"><tspan x="0" y="0">100</tspan></text>
</svg>