<?xml version="1.0" encoding="UTF-8"?>
<svg id="_03_LINEA_FINA" data-name="03_LINEA FINA" xmlns="http://www.w3.org/2000/svg" viewBox="0 0 79.37 61.23">
  <defs>
    <style>
      .cls-1 {
        font-family: Inter18pt-Medium, 'Inter 18pt';
        font-size: 10px;
      }

      .cls-2 {
        fill: none;
        stroke: #404041;
        stroke-linecap: round;
        stroke-linejoin: round;
        stroke-width: .35px;
      }

      .cls-3 {
        fill: #f1f1f2;
      }
    </style>
  </defs>
  <g>
    <g>
      <path class="cls-3" d="M79.37,7.08V52.63c0,3.91-3.17,7.09-7.09,7.09h-21.26V28.77h0V14.5h0v-.03h0v-.04h0V1.24h0v-.23s-.01-.07-.01-.11-.01-.08-.01-.12c-.01-.07-.02-.15-.03-.22-.01-.04-.02-.07-.03-.1,0-.04-.01-.07-.02-.1s-.02-.06-.03-.08c-.01-.03-.02-.06-.03-.08l-.03-.06s-.01-.02-.02-.03c0-.01-.01-.02-.01-.03-.01,0-.01,0-.02-.02,0,0-.01,0-.02,0,0-.01-.01-.02-.01-.02-.01,0-.01-.01-.02-.01,0,0,0,0-.01,0h-.02c7.2-.01,14.39-.01,21.58-.01,3.92,0,7.09,3.17,7.09,7.08Z"/>
      <path class="cls-3" d="M51.02,59.72v.02c0,.05-.01,.1-.02,.14-.01,0-.01,.01-.01,.01l-.03,.09s-.03,.07-.04,.09c-.02,.03-.05,.07-.07,.1v.02s-.08,.06-.11,.09h0s-.01,.02-.01,.02c-.01,.01-.03,.03-.05,.04l-.09,.06s-.01,0-.02,.01c-.05,.02-.09,.04-.14,.06-.05,.03-.1,.05-.16,.06h-.01l-.18,.03c-.07,.01-.13,.01-.2,.01-.08,.01-.16,.01-.24,.02-.13,0-.26,.01-.39,.02-1.23,.07-2.46,.14-3.7,.2-1.52,.07-3.05,.14-4.58,.2-.1,0-.2,0-.3,.01-.24,.01-.49,.01-.73,.02-.71,.03-1.43,.04-2.14,.06-.37,.01-.74,.02-1.12,.03-.08,0-.16,0-.25,.01-.18,0-.36,0-.55,.01-.36,0-.72,.01-1.08,.02-.71,.01-1.41,.02-2.12,.03h-14.31l-2.13-.03c-.36,0-.72-.02-1.08-.02-.18-.01-.36-.01-.55-.01-.08-.01-.17-.01-.25-.01-.37,0-.75-.02-1.12-.03-.71-.02-1.42-.03-2.13-.06-.25-.01-.49-.01-.74-.02-.1-.01-.2-.01-.29-.01-1.53-.06-3.06-.13-4.59-.2-1.23-.06-2.47-.13-3.7-.2-.13-.01-.25-.02-.38-.02-.08,0-.16,0-.24-.02-.07,0-.14,0-.21-.01l-.18-.03c-.06-.02-.11-.03-.17-.06-.04-.01-.09-.03-.13-.06-.01,0-.02-.01-.03-.01-.03-.02-.05-.04-.08-.06-.05-.04-.1-.08-.14-.12-.03-.03-.05-.07-.08-.1-.02-.03-.04-.06-.05-.09-.03-.04-.05-.1-.06-.15-.02-.04-.03-.09-.03-.14V28.77H0V14.55s.01,.02,.01,.03v.07s.01,.04,.01,.06c.01,.02,.01,.05,.02,.07,0,.02,.01,.04,.01,.06,.02,.05,.03,.09,.05,.14l.06,.12c.02,.05,.04,.09,.07,.13,.05,.08,.11,.16,.18,.23s.15,.13,.23,.18c.04,.03,.08,.05,.12,.07s.08,.04,.13,.06c.04,.02,.08,.03,.13,.05,.04,0,.08,.02,.13,.03,.02,0,.04,.01,.06,.01s.04,0,.06,0h3c0,.51,.03,1.02,.12,1.53,.14,.78,.41,1.6,.73,2.32,.17,.36,.35,.72,.55,1.06,.1,.17,.21,.34,.32,.5,.07,.11,.15,.22,.24,.33,.08,.1,.17,.19,.26,.27h.01c.09,.08,.18,.15,.28,.21,0,.01,.01,.01,.01,.01,.1,.07,.2,.12,.31,.17,.01,0,.01,.01,.01,.01,.11,.04,.23,.09,.35,.13,.26,.09,.52,.16,.79,.23,.01,0,.03,.01,.05,.01,.03,.01,.07,.02,.1,.03,.08,.02,.15,.03,.22,.05,2.95,.68,6.76,.78,9.74,.79h14.31c2.98-.01,6.79-.11,9.73-.79,.07-.02,.15-.03,.22-.05,.03-.01,.07-.02,.11-.03,0,0,.03-.01,.05-.01,.26-.07,.53-.14,.79-.23,.05-.02,.09-.03,.13-.05,.2-.07,.38-.16,.54-.27,.11-.06,.2-.13,.29-.21,.1-.08,.19-.17,.27-.27h0c.08-.12,.16-.22,.24-.33,.11-.16,.21-.33,.31-.5,.21-.34,.39-.7,.55-1.06,.32-.72,.59-1.54,.73-2.32,.09-.51,.12-1.02,.12-1.53h3s.04,0,.07,0c.02,0,.04-.01,.06-.01,.04,0,.08-.02,.13-.03,.04-.02,.08-.03,.13-.05l.12-.06c.05-.02,.09-.04,.13-.07,.08-.05,.15-.11,.22-.18s.13-.15,.18-.23c.03-.04,.05-.08,.08-.13,.02-.04,.04-.08,.05-.12,.02-.05,.04-.09,.05-.14,.01-.02,.01-.04,.02-.06,0-.02,.01-.05,.01-.07s.01-.04,.01-.06c0-.03,.01-.05,.01-.07v14.18h0v30.95h0Z"/>
      <path class="cls-3" d="M51.02,14.55v.03s-.01,.04-.01,.07c0,.02-.01,.04-.01,.06s-.01,.05-.01,.07c0,.02,0,.04-.02,.06-.01,.05-.03,.09-.05,.14-.01,.04-.03,.08-.05,.12-.03,.05-.05,.09-.08,.13-.05,.08-.11,.16-.18,.23s-.14,.13-.22,.18c-.04,.03-.08,.05-.13,.07l-.12,.06c-.05,.02-.09,.03-.13,.05-.05,0-.09,.02-.13,.03-.02,0-.04,.01-.06,.01-.03,0-.05,0-.07,0h-3c.02-.3,.02-.61,.02-.92v-4.52h0c0-.13-.01-.25-.02-.37-.02-.13-.04-.24-.08-.35-.05-.1-.11-.2-.2-.3h0c-.06-.07-.12-.12-.18-.17-.14-.1-.29-.17-.45-.22-.04-.02-.08-.04-.12-.05v-2.03c0-.3-.11-.58-.31-.79-.19-.21-.46-.34-.77-.34H6.39c-.31,0-.58,.13-.78,.34-.19,.21-.31,.49-.31,.79v2.03h0c-.2,.07-.39,.15-.56,.27-.07,.05-.13,.1-.19,.16h0s-.08,.1-.11,.15c-.01,0,0,0,0,0-.04,.05-.06,.1-.08,.15-.05,.11-.07,.22-.09,.35-.01,.12-.02,.24-.02,.37v4.52c0,.31,0,.62,.01,.92H1.27s-.04,0-.06,0-.04-.01-.06-.01c-.05,0-.09-.02-.13-.03-.05-.02-.09-.03-.13-.05-.05-.02-.09-.04-.13-.06s-.08-.04-.12-.07c-.08-.05-.16-.11-.23-.18s-.13-.15-.18-.23c-.03-.04-.05-.08-.07-.13l-.06-.12c-.02-.05-.03-.09-.05-.14,0-.02-.01-.04-.01-.06-.01-.02-.01-.05-.02-.07,0-.02,0-.04-.01-.06v-.07s-.01-.02-.01-.03v-.05H0v-.03H0v-.04H0V1.24H0v-.11S0,1.05,0,1.01v-.11s.01-.08,.02-.12c0-.07,.02-.15,.03-.22,0-.04,0-.07,.02-.1,.01-.04,.02-.07,.03-.1,0-.03,.01-.06,.02-.08,.01-.03,.02-.06,.03-.08l.03-.06s.01-.02,.02-.03,.01-.02,.02-.03c0,0,0,0,0-.02,.01,0,.01,0,.02,0,.01-.01,.01-.02,.02-.02h.01s.01-.02,.01-.02h.02S.32,0,.33,0H50.72s.01,.02,.01,.02c0,0,0,.01,.02,.01,0,0,.01,0,.01,.02,.01,0,.02,0,.02,0,.01,.01,.01,.02,.02,.02,0,.01,.01,.02,.01,.03,0,0,0,.02,.02,.03l.03,.06s.02,.05,.03,.08c.01,.02,.02,.05,.03,.08s.02,.06,.02,.1c.01,.03,.02,.06,.03,.1,.01,.07,.02,.15,.03,.22,0,.04,.01,.08,.01,.12s.01,.08,.01,.11v.22h0V14.42h0v.03h0v.04h0v.06Z"/>
      <path class="cls-3" d="M46.77,10.62v4.33c0,.31,0,.62-.02,.92,0,.51-.03,1.02-.12,1.53-.14,.78-.41,1.6-.73,2.32-.16,.36-.34,.72-.55,1.06-.1,.17-.2,.34-.31,.5-.08,.11-.16,.21-.24,.32h0c-.08,.11-.17,.2-.27,.28-.09,.08-.19,.15-.29,.21-.16,.11-.34,.2-.54,.27-.04,.02-.08,.03-.13,.05-.26,.09-.53,.16-.79,.23-.02,0-.04,.01-.05,.01-.04,.01-.08,.02-.11,.03-.07,.02-.15,.03-.22,.05-2.94,.68-6.75,.78-9.73,.79h-14.31c-2.98-.01-6.79-.11-9.74-.79-.07-.02-.14-.03-.22-.05-.03-.01-.07-.02-.1-.03-.02,0-.04-.01-.05-.01-.27-.07-.53-.14-.79-.23-.12-.04-.24-.09-.35-.13,0,0,0-.01-.01-.01-.11-.05-.21-.1-.31-.17,0,0-.01,0-.01-.01-.1-.06-.19-.13-.28-.2h-.01c-.09-.09-.18-.18-.26-.28-.09-.11-.17-.22-.24-.33-.11-.16-.22-.33-.32-.5-.2-.34-.38-.7-.55-1.06-.32-.72-.59-1.54-.73-2.32-.09-.51-.12-1.02-.12-1.53h-.01c-.01-.3-.01-.61-.01-.92v-4.52c0-.13,.01-.25,.02-.37,.02-.13,.04-.24,.09-.35,.02-.05,.04-.1,.08-.15,0,0-.01,0,0,0,.03-.05,.07-.1,.11-.14,.06-.06,.12-.12,.19-.17,.17-.12,.36-.2,.56-.26,.04-.02,.07-.03,.11-.04,.07-.02,.13-.04,.2-.04,.49-.12,1.01-.16,1.49-.18,.49-.03,.98-.02,1.47-.02H42.45c.49,0,.98,0,1.47,.02,.41,.01,.85,.05,1.28,.13,.08,.01,.17,.03,.26,.06t.02,0s.05,.01,.07,.02c.02,0,.04,0,.06,.01h.01c.07,.02,.15,.05,.22,.08,.16,.05,.31,.12,.45,.22,.06,.05,.12,.11,.18,.17,.09,.1,.15,.2,.2,.3,.04,.11,.06,.22,.08,.35,.01,.12,.02,.24,.02,.36h0v.2Z"/>
      <path class="cls-3" d="M45.72,6.94v2.03s-.07-.02-.1-.03h-.01s-.04-.01-.06-.01c-.02,0-.05-.02-.07-.02t-.02,0s-.03-.02-.05-.02v-2.74c.2,.21,.31,.49,.31,.79Z"/>
      <path class="cls-3" d="M45.41,6.15v2.74c-.07-.02-.14-.03-.21-.04-.43-.08-.87-.12-1.28-.13-.49-.03-.98-.02-1.47-.02H8.57c-.49,0-.98,0-1.47,.02-.48,.02-1,.06-1.49,.18h0v-2.75c.2-.21,.47-.34,.78-.34H44.64c.31,0,.58,.13,.77,.34Z"/>
    </g>
    <g>
      <path class="cls-2" d="M51.02,59.72h21.26c3.92,0,7.09-3.18,7.09-7.09V7.08C79.37,3.17,76.2,0,72.28,0h-21.58"/>
      <polyline class="cls-2" points="32.67 8.7 25.51 8.7 18.36 8.7"/>
      <polyline class="cls-2" points="32.67 5.81 25.51 5.81 18.36 5.81"/>
      <polyline class="cls-2" points="32.67 0 25.51 0 18.36 0"/>
      <polyline class="cls-2" points="32.67 23.52 25.51 23.52 18.36 23.52"/>
      <polyline class="cls-2" points="32.67 61.2 25.51 61.2 18.36 61.2"/>
      <path class="cls-2" d="M32.67,5.81h11.97c.31,0,.58,.13,.77,.34,.2,.21,.31,.49,.31,.79v2.03"/>
      <path class="cls-2" d="M45.46,8.91c-.09-.03-.18-.05-.26-.06-.43-.08-.87-.12-1.28-.13-.49-.03-.98-.02-1.47-.02h-9.78"/>
      <path class="cls-2" d="M45.84,9.02c-.07-.03-.15-.06-.22-.08"/>
      <path class="cls-2" d="M46.47,9.41h0c-.06-.07-.12-.12-.18-.17"/>
      <path class="cls-2" d="M32.67,23.52c2.98-.01,6.79-.11,9.73-.79,.07-.02,.15-.03,.22-.05,.03-.01,.07-.02,.11-.03,0,0,.03-.01,.05-.01,.26-.07,.53-.14,.79-.23,.05-.02,.09-.03,.13-.05,.2-.07,.38-.16,.54-.27,.1-.06,.2-.13,.29-.21"/>
      <path class="cls-2" d="M44.53,21.88c-.09,.08-.18,.15-.29,.21"/>
      <path class="cls-2" d="M44.53,21.88c.1-.08,.19-.17,.27-.27h0c.08-.12,.16-.22,.24-.33,.11-.16,.21-.33,.31-.5,.21-.34,.39-.7,.55-1.06,.32-.72,.59-1.54,.73-2.32,.09-.51,.12-1.02,.12-1.53"/>
      <path class="cls-2" d="M46.75,15.87c.02-.3,.02-.61,.02-.92v-4.52h0c0-.13-.01-.25-.02-.37-.02-.13-.04-.24-.08-.35-.05-.1-.11-.2-.2-.3"/>
      <path class="cls-2" d="M46.29,9.24c.06,.05,.12,.11,.18,.17"/>
      <path class="cls-2" d="M46.29,9.24c-.14-.1-.29-.17-.45-.22"/>
      <path class="cls-2" d="M45.62,8.94s.07,.02,.1,.03c.04,.01,.08,.03,.12,.05"/>
      <path class="cls-2" d="M45.62,8.94h-.01s-.04-.01-.06-.01c-.02,0-.05-.02-.07-.02t-.02,0"/>
      <path class="cls-2" d="M45.2,8.85c.07,.01,.14,.02,.21,.04,.02,0,.04,.01,.05,.02"/>
      <path class="cls-2" d="M32.67,0h17.42"/>
      <path class="cls-2" d="M50.09,0h.61"/>
      <path class="cls-2" d="M50.25,60.53l-.18,.03c-.07,.01-.13,.01-.2,.01-.08,.01-.16,.01-.24,.02-.13,0-.26,.01-.39,.02-1.23,.07-2.46,.14-3.7,.2-1.52,.07-3.05,.14-4.58,.2-.1,0-.2,0-.3,.01-.24,.01-.49,.01-.73,.02-.71,.03-1.43,.04-2.14,.06-.37,.01-.74,.02-1.12,.03-.08,0-.16,0-.25,.01-.18,0-.36,0-.55,.01-.36,0-.72,.01-1.08,.02-.71,.01-1.41,.02-2.12,.03"/>
      <path class="cls-2" d="M50.56,60.41c-.05,.02-.09,.04-.14,.06"/>
      <path class="cls-2" d="M51.02,14.58v14.18h0v30.95h0"/>
      <path class="cls-2" d="M51.02,59.72v.02c0,.05-.01,.1-.02,.14-.01,0-.01,.01-.01,.01l-.03,.09s-.03,.07-.04,.09c-.02,.03-.05,.07-.07,.1v.02s-.08,.06-.11,.09h0s-.01,.02-.01,.02c-.01,.01-.03,.03-.05,.04l-.09,.06s-.01,0-.02,.01"/>
      <path class="cls-2" d="M50.42,60.47c.05-.01,.1-.03,.14-.06"/>
      <path class="cls-2" d="M50.42,60.47s-.1,.05-.16,.06h-.01"/>
      <path class="cls-2" d="M49.87,60.57h.13s.05,0,.07-.01c.06,0,.12-.01,.18-.03"/>
      <path class="cls-2" d="M46.77,15.87h2.98s.04,0,.07,0c.02,0,.04-.01,.06-.01,.04,0,.08-.02,.13-.03,.04-.02,.08-.03,.13-.05l.12-.06c.05-.02,.09-.04,.13-.07,.08-.05,.15-.11,.22-.18s.13-.15,.18-.23c.03-.04,.05-.08,.08-.13,.02-.04,.04-.08,.05-.12,.02-.05,.04-.09,.05-.14,.01-.02,.01-.04,.02-.06,0-.02,.01-.05,.01-.07s.01-.04,.01-.06c0-.03,.01-.05,.01-.07v-.08h0v-.03h0v-.04h0V1.24h0v-.23s-.01-.07-.01-.11-.01-.08-.01-.12c-.01-.07-.02-.15-.03-.22-.01-.04-.02-.07-.03-.1,0-.04-.01-.07-.02-.1s-.02-.06-.03-.08c-.01-.03-.02-.06-.03-.08l-.03-.06s-.01-.02-.02-.03c0-.01-.01-.02-.01-.03-.01,0-.01,0-.02-.02,0,0-.01,0-.02,0,0-.01-.01-.02-.01-.02-.01,0-.01-.01-.02-.01,0,0,0,0-.01,0h-.02"/>
      <line class="cls-2" x1="45.41" y1="8.89" x2="45.41" y2="6.15"/>
      <path class="cls-2" d="M46.26,14.52c-.01-.16-.02-.33-.03-.5-.01-.25-.03-.51-.04-.78-.01-.1-.02-.21-.03-.32,0-.09,0-.18,0-.27-.01-.09-.01-.18-.02-.27,0-.07,0-.14-.01-.21,0-.07,0-.13-.01-.2v-.14s-.01-.1-.01-.15c-.01-.09-.02-.19-.02-.29-.01-.09-.02-.19-.03-.28-.02-.1-.03-.19-.05-.29-.01-.07-.02-.13-.04-.2-.01-.06-.03-.12-.05-.19,0-.05-.03-.11-.05-.16-.01-.03-.02-.05-.03-.08l-.06-.15c-.02-.05-.04-.09-.07-.14-.02-.03-.04-.07-.06-.11-.02-.03-.04-.06-.07-.09-.02-.03-.04-.06-.07-.09-.02-.02-.04-.05-.07-.07-.02-.02-.04-.04-.07-.06,0-.01-.01-.01-.02-.02"/>
      <path class="cls-2" d="M5.3,8.97v-2.03c0-.3,.12-.58,.31-.79,.2-.21,.47-.34,.78-.34h11.97"/>
      <path class="cls-2" d="M4.55,9.41h0c.06-.07,.12-.12,.19-.17"/>
      <path class="cls-2" d="M18.36,23.52c-2.98-.01-6.79-.11-9.74-.79-.07-.02-.14-.03-.22-.05-.03-.01-.07-.02-.1-.03-.02,0-.04-.01-.05-.01-.27-.07-.53-.14-.79-.23-.12-.04-.24-.09-.35-.13,0,0,0-.01-.01-.01-.11-.05-.21-.1-.31-.17,0,0-.01,0-.01-.01-.1-.06-.19-.13-.28-.2h-.01c-.09-.09-.18-.18-.26-.28-.09-.11-.17-.22-.24-.33-.11-.16-.22-.33-.32-.5-.2-.34-.38-.7-.55-1.06-.32-.72-.59-1.54-.73-2.32-.09-.51-.12-1.02-.12-1.53h-.01"/>
      <path class="cls-2" d="M4.26,15.87c-.01-.3-.01-.61-.01-.92v-4.52c0-.13,.01-.25,.02-.37,.02-.13,.04-.24,.09-.35,.02-.05,.04-.1,.08-.15,0,0-.01,0,0,0,.03-.05,.07-.1,.11-.14"/>
      <path class="cls-2" d="M4.74,9.24c-.07,.05-.13,.11-.19,.17"/>
      <path class="cls-2" d="M4.74,9.24c.17-.12,.36-.2,.56-.26"/>
      <path class="cls-2" d="M5.3,8.98s.07-.03,.11-.04c.07-.02,.13-.04,.2-.04"/>
      <path class="cls-2" d="M5.61,8.9c.49-.12,1.01-.16,1.49-.18,.49-.03,.98-.02,1.47-.02h9.79"/>
      <path class="cls-2" d="M.77,60.53l.18,.03c.07,.01,.14,.01,.21,.01,.08,.01,.16,.01,.24,.02,.13,0,.25,.01,.38,.02,1.23,.07,2.47,.14,3.7,.2,1.53,.07,3.06,.14,4.59,.2,.09,0,.19,0,.29,.01,.25,.01,.49,.01,.74,.02,.71,.03,1.42,.04,2.13,.06,.37,.01,.75,.02,1.12,.03,.08,0,.17,0,.25,.01,.19,0,.37,0,.55,.01,.36,0,.72,.01,1.08,.02l2.13,.03"/>
      <path class="cls-2" d="M.47,60.41s.09,.05,.13,.06"/>
      <path class="cls-2" d="M.09,60.03s.03,.06,.05,.09c.02,.04,.05,.07,.08,.1,.02,.03,.05,.05,.07,.07s.04,.04,.07,.05"/>
      <path class="cls-2" d="M0,14.55v14.21H0v30.98c0,.05,.01,.1,.03,.14,.01,.05,.03,.11,.06,.15"/>
      <path class="cls-2" d="M.36,60.34s-.1-.08-.14-.12c-.03-.03-.05-.07-.08-.1-.02-.03-.04-.06-.05-.09"/>
      <path class="cls-2" d="M.36,60.34s.05,.04,.08,.06c.01,0,.02,.01,.03,.01"/>
      <path class="cls-2" d="M.6,60.47s-.09-.03-.13-.06"/>
      <path class="cls-2" d="M.6,60.47c.06,.03,.11,.04,.17,.06"/>
      <path class="cls-2" d="M1.16,60.57h-.14s-.05,0-.07-.01c-.06,0-.12-.01-.18-.03"/>
      <path class="cls-2" d="M4.26,15.87H1.27s-.04,0-.06,0-.04-.01-.06-.01c-.05,0-.09-.02-.13-.03-.05-.02-.09-.03-.13-.05-.05-.02-.09-.04-.13-.06s-.08-.04-.12-.07c-.08-.05-.16-.11-.23-.18s-.13-.15-.18-.23c-.03-.04-.05-.08-.07-.13l-.06-.12c-.02-.05-.03-.09-.05-.14,0-.02-.01-.04-.01-.06-.01-.02-.01-.05-.02-.07,0-.02,0-.04-.01-.06v-.07s-.01-.02-.01-.03v-.05H0v-.03H0v-.04H0V1.24H0v-.11S0,1.05,0,1.01v-.11s.01-.08,.02-.12c0-.07,.02-.15,.03-.22,0-.04,0-.07,.02-.1,.01-.04,.02-.07,.03-.1,0-.03,.01-.06,.02-.08,.01-.03,.02-.06,.03-.08l.03-.06s.01-.02,.02-.03,.01-.02,.02-.03c0,0,0,0,0-.02,.01,0,.01,0,.02,0,.01-.01,.01-.02,.02-.02h.01s.01-.02,.01-.02h.02S.32,0,.33,0H18.36"/>
      <line class="cls-2" x1="5.61" y1="8.89" x2="5.61" y2="6.15"/>
      <path class="cls-2" d="M5.68,9.46s-.01,0-.02,.02c-.02,.02-.05,.04-.07,.06l-.07,.07s-.05,.06-.07,.09l-.06,.09s-.05,.08-.07,.11c-.02,.05-.04,.09-.07,.14l-.06,.15s-.02,.05-.03,.08c-.02,.05-.03,.11-.05,.16-.02,.07-.03,.13-.05,.19-.01,.07-.03,.13-.04,.2-.02,.1-.03,.19-.04,.29-.01,.09-.02,.19-.03,.28-.01,.1-.02,.2-.02,.29-.01,.05-.01,.1-.01,.15,0,.04-.01,.09-.01,.14,0,.07,0,.13,0,.2s-.01,.14-.01,.21c0,.09-.01,.18-.01,.27-.01,.09-.02,.18-.02,.27-.01,.11-.02,.22-.02,.32-.02,.27-.03,.53-.05,.78-.01,.17-.01,.34-.02,.5"/>
    </g>
  </g>
  <text class="cls-1" transform="translate(19.15 42.11)"><tspan x="0" y="0">90</tspan></text>
</svg>