<?xml version="1.0" encoding="UTF-8"?>
<svg id="_03_LINEA_FINA" data-name="03_LINEA FINA" xmlns="http://www.w3.org/2000/svg" viewBox="0 0 73.7 61.23">
  <defs>
    <style>
      .cls-1 {
        font-family: Inter18pt-Medium, 'Inter 18pt';
        font-size: 10px;
      }

      .cls-2 {
        fill: none;
        stroke: #404041;
        stroke-linecap: round;
        stroke-linejoin: round;
        stroke-width: .35px;
      }

      .cls-3 {
        fill: #f1f1f2;
      }
    </style>
  </defs>
  <g>
    <g>
      <path class="cls-3" d="M73.7,7.08V52.63c0,3.91-3.17,7.09-7.08,7.09h-21.27s.01-.02,.01-.03V28.77h0V1.24h0v-.06s-.01-.03-.01-.05v-.12s0-.07,0-.11c0-.04-.01-.08-.01-.12-.01-.07-.02-.15-.03-.22-.01-.04-.02-.07-.02-.1-.01-.04-.02-.07-.03-.1s-.02-.06-.03-.08c-.01-.03-.02-.06-.03-.08l-.03-.06s-.01-.02-.01-.03c-.01-.01-.01-.02-.02-.03-.01,0-.01,0-.02-.02h-.01s0-.03-.02-.03-.01-.01-.02-.01c0,0,0,0-.01,0h-.01s-.01-.01-.01-.01h21.59c3.91,0,7.08,3.17,7.08,7.08Z"/>
      <path class="cls-3" d="M45.36,59.58v.11s0,.02-.01,.02h0v.03c0,.05,0,.1-.02,.14h-.01c-.01,.06-.02,.11-.05,.15-.02,.05-.05,.1-.09,.14,0,.01-.02,.03-.04,.05s-.04,.04-.07,.06h-.01s-.01,.02-.02,.03-.03,.02-.04,.03c-.01,0-.01,.01-.02,.01-.04,.03-.07,.05-.11,.07-.09,.05-.17,.08-.27,.11h-.02l-.18,.03c-.06,.01-.13,.01-.2,.01-.08,.01-.16,.01-.24,.02-.13,0-.26,.01-.39,.02-1.23,.07-2.46,.14-3.69,.2-1.53,.07-3.06,.14-4.59,.2-.1,0-.2,0-.29,.01-.25,.01-.5,.01-.74,.02-.71,.03-1.42,.04-2.14,.06l-1.11,.03c-.09,0-.17,0-.26,.01-.18,0-.36,0-.54,.01-.37,0-.73,.01-1.09,.02-.71,.01-1.41,.02-2.12,.03h-8.64c-.71-.01-1.42-.02-2.12-.03-.37,0-.73-.02-1.09-.02-.18-.01-.36-.01-.55-.01-.08-.01-.16-.01-.25-.01-.37,0-.74-.02-1.12-.03-.71-.02-1.42-.03-2.13-.06-.25-.01-.49-.01-.74-.02-.1-.01-.19-.01-.29-.01-1.53-.06-3.06-.13-4.59-.2-1.23-.06-2.46-.13-3.7-.2-.13-.01-.25-.02-.38-.02-.08,0-.16,0-.24-.02-.07,0-.14,0-.21-.01l-.18-.03c-.06-.02-.11-.03-.17-.06-.04-.01-.09-.03-.13-.06-.01,0-.02-.01-.03-.01-.03-.02-.05-.04-.08-.06-.05-.04-.1-.08-.14-.12-.03-.03-.05-.07-.08-.1-.02-.03-.04-.06-.05-.09-.03-.04-.05-.1-.06-.15-.02-.04-.03-.09-.03-.14V28.77H0V14.55s.01,.02,.01,.03v.07s0,.04,.02,.06c0,.02,0,.05,.01,.07,0,.02,.01,.04,.02,.06,.01,.05,.02,.09,.04,.14l.06,.12c.02,.05,.05,.09,.07,.13,.05,.08,.12,.16,.18,.23,.07,.07,.15,.13,.23,.18,.04,.03,.08,.05,.12,.07s.09,.04,.13,.06,.08,.03,.13,.05c.04,0,.08,.02,.13,.03,.02,0,.04,.01,.06,.01s.04,0,.06,0h3c0,.51,.04,1.02,.13,1.53,.13,.78,.4,1.6,.72,2.32,.17,.36,.35,.72,.55,1.06,.1,.17,.21,.34,.32,.5,.07,.11,.15,.22,.24,.33,.08,.1,.17,.19,.26,.27h.01c.09,.08,.18,.15,.28,.21,0,.01,.01,.01,.01,.01,.1,.07,.2,.12,.31,.17,.01,0,.01,.01,.01,.01,.11,.04,.23,.09,.35,.13,.26,.09,.52,.16,.79,.23,.02,0,.03,.01,.05,.01,.04,.01,.07,.02,.11,.03,.07,.02,.14,.03,.21,.05,2.95,.68,6.76,.78,9.74,.79h8.64c2.98-.01,6.79-.11,9.73-.79,.08-.02,.15-.03,.22-.05,.04-.01,.07-.02,.11-.03,.01,0,.03-.01,.05-.01,.26-.07,.53-.14,.79-.23,.07-.02,.14-.05,.21-.08,.05-.02,.1-.04,.14-.06l.06-.03c.21-.09,.39-.21,.56-.36,.1-.09,.18-.18,.27-.28,.02-.03,.04-.05,.06-.08,.06-.08,.11-.16,.17-.24,.11-.16,.21-.33,.31-.5,.21-.34,.39-.7,.55-1.06,.32-.72,.6-1.54,.73-2.32,.09-.51,.12-1.02,.12-1.53h3s.05,0,.07,0,.04-.01,.06-.01c.04,0,.09-.02,.13-.03,.04-.02,.09-.03,.13-.05s.08-.04,.13-.06c.04-.02,.08-.04,.12-.07,.08-.05,.15-.11,.22-.18s.13-.15,.19-.23c.02-.04,.05-.08,.07-.13l.06-.12c0-.05,.03-.09,.04-.14,.01-.02,.01-.04,.02-.06,0-.02,.01-.05,.01-.07,.01-.02,.01-.04,.01-.06,0-.03,0-.05,0-.07v-.08s.01-.01,.01-.01v14.27h0v30.82Z"/>
      <path class="cls-3" d="M5.61,6.16c-.19,.21-.3,.48-.3,.78v2.03c-.19,.06-.4,.15-.57,.27-.07,.05-.13,.1-.19,.16h0s-.08,.1-.11,.15h0c-.04,.06-.06,.11-.08,.16-.04,.11-.07,.22-.08,.35-.01,.06-.01,.12-.02,.18,0,.06-.01,.13-.01,.19v4.52c0,.31,0,.62,.01,.92H1.27s-.04,0-.06,0-.04-.01-.06-.01c-.05,0-.09-.02-.13-.03-.05-.02-.09-.03-.13-.05s-.09-.04-.13-.06-.08-.04-.12-.07c-.08-.05-.16-.11-.23-.18-.06-.07-.13-.15-.18-.23-.02-.04-.05-.08-.07-.13l-.06-.12c-.02-.05-.03-.09-.04-.14-.01-.02-.02-.04-.02-.06-.01-.02-.01-.05-.01-.07-.01-.02-.01-.04-.02-.06v-.07s0-.02-.01-.03V1.24H0v-.11s.01-.08,.01-.12C0,.98,0,.94,.02,.9c0-.04,0-.08,.01-.12,.01-.07,.02-.15,.03-.22,.01-.04,.01-.07,.02-.1,.01-.04,.02-.07,.03-.1,0-.03,.01-.06,.02-.08,.01-.03,.02-.06,.03-.08l.03-.06s.02-.02,.02-.03c.01-.01,.01-.02,.02-.03,0,0,.01,0,.01-.02,.01,0,.02,0,.02,0,0-.01,0-.02,.02-.02h.01s.01-.02,.01-.02h.02S.32,0,.33,0H45.03s.01,0,.01,.01h.01s.01,0,.01,0c.01,0,.01,.01,.02,.01s.01,0,.02,.02h.01s.01,.03,.02,.03c.01,.01,.01,.02,.02,.03,0,0,.01,.02,.01,.03l.03,.06s.02,.05,.03,.08c.01,.02,.02,.05,.03,.08s.02,.06,.03,.1c0,.03,.01,.06,.02,.1,.01,.07,.02,.15,.03,.22,0,.04,.01,.08,.01,.12,0,.04,0,.08,0,.11v.12s.01,.04,.01,.05v.05h0V14.49s0,.01-.01,.01v.08s0,.04,0,.07c0,.02,0,.04-.01,.06,0,.02-.01,.05-.01,.07-.01,.02-.01,.04-.02,.06-.01,.05-.03,.09-.04,.14l-.06,.12c-.02,.05-.05,.09-.07,.13-.06,.08-.12,.16-.19,.23s-.14,.13-.22,.18c-.04,.03-.08,.05-.12,.07-.05,.02-.09,.04-.13,.06s-.09,.03-.13,.05c-.04,0-.09,.02-.13,.03-.02,0-.04,.01-.06,.01s-.05,0-.07,0h-3c.02-.3,.02-.61,.02-.92v-4.52h0c0-.07,0-.13,0-.19,0-.06,0-.12-.01-.18-.01-.13-.04-.24-.08-.35-.04-.09-.09-.18-.17-.27,0-.01-.01-.02-.02-.03h-.01c-.05-.07-.11-.12-.18-.17-.17-.12-.38-.21-.57-.27v-2.03c0-.3-.12-.58-.31-.79s-.46-.34-.77-.34H6.39c-.31,0-.59,.14-.78,.35Z"/>
      <path class="cls-3" d="M45.36,59.69s0,.02-.01,.03h0s.01-.02,.01-.03Z"/>
      <path class="cls-3" d="M45.18,60.17s.07-.09,.09-.14c-.02,.05-.05,.1-.09,.14Z"/>
      <path class="cls-3" d="M44.87,60.42s.07-.04,.11-.07c-.04,.03-.07,.05-.11,.07Z"/>
      <path class="cls-3" d="M44.4,60.56l.18-.03c-.05,.02-.11,.03-.18,.03Z"/>
      <path class="cls-3" d="M44.4,60.56s-.04,.01-.06,.01h-.14c.07,0,.14,0,.2-.01Z"/>
      <path class="cls-3" d="M41.1,10.62v4.33c0,.31,0,.62-.02,.92,0,.51-.03,1.02-.12,1.53-.13,.78-.41,1.6-.73,2.32-.16,.36-.34,.72-.55,1.06-.1,.17-.2,.34-.31,.5-.06,.08-.11,.16-.17,.24-.02,.03-.04,.05-.06,.08-.09,.1-.17,.19-.27,.28-.17,.15-.35,.27-.56,.36l-.06,.03s-.09,.04-.14,.06c-.07,.03-.14,.06-.21,.08-.26,.09-.53,.16-.79,.23-.02,0-.04,.01-.05,.01-.04,.01-.07,.02-.11,.03-.07,.02-.14,.03-.22,.05-2.94,.68-6.75,.78-9.73,.79h-8.64c-2.98-.01-6.79-.11-9.74-.79-.07-.02-.14-.03-.21-.05-.04-.01-.07-.02-.11-.03-.02,0-.03-.01-.05-.01-.27-.07-.53-.14-.79-.23-.12-.04-.24-.09-.35-.13,0,0,0-.01-.01-.01-.11-.05-.21-.1-.31-.17,0,0-.01,0-.01-.01-.1-.06-.19-.13-.28-.2h-.01c-.09-.09-.18-.18-.26-.28-.09-.11-.17-.22-.24-.33-.11-.16-.22-.33-.32-.5-.2-.34-.38-.7-.55-1.06-.32-.72-.59-1.54-.72-2.32-.09-.51-.13-1.02-.13-1.53h0c-.01-.3-.01-.61-.01-.92v-4.52c0-.06,.01-.13,.01-.19,0-.06,0-.12,.02-.18,.01-.13,.04-.24,.08-.35,.02-.05,.04-.1,.08-.15h0c.03-.06,.07-.11,.11-.15,.06-.06,.12-.12,.19-.17,.17-.12,.38-.21,.57-.27,.03,0,.07-.02,.1-.03,.07-.02,.13-.04,.2-.04,.49-.12,1.01-.16,1.5-.18,.48-.03,.97-.02,1.46-.02h28.21c.49,0,.98,0,1.47,.02,.49,.02,1,.06,1.49,.17,.02,0,.03,0,.05,.02,.05,0,.11,.02,.16,.03,.03,0,.07,.02,.1,.03,.19,.06,.4,.15,.57,.27,.07,.05,.13,.1,.18,.16h.01s.02,.03,.02,.04c.08,.09,.13,.18,.17,.27,.04,.11,.07,.22,.08,.35,.01,.06,.01,.12,.01,.18,0,.06,0,.12,0,.18h0v.2Z"/>
      <path class="cls-3" d="M40.05,6.94v2.03s-.07-.02-.1-.03c-.05-.01-.11-.03-.16-.03-.02-.02-.03-.02-.05-.02v-2.74c.19,.21,.31,.49,.31,.79Z"/>
      <path class="cls-3" d="M39.74,6.15v2.74c-.49-.11-1-.15-1.49-.17-.49-.03-.98-.02-1.47-.02H8.57c-.49,0-.98,0-1.46,.02-.49,.02-1.01,.06-1.5,.18h0v-2.74c.19-.21,.47-.35,.78-.35H38.97c.31,0,.58,.13,.77,.34Z"/>
      <path class="cls-3" d="M5.61,8.89h0c-.07,.01-.13,.03-.2,.05-.03,0-.07,.02-.1,.03v-2.03c0-.3,.11-.57,.3-.78v2.73Z"/>
      <path class="cls-3" d="M4.74,9.24c-.07,.05-.13,.11-.19,.17h0c.06-.07,.12-.12,.19-.17Z"/>
      <path class="cls-3" d="M1.16,60.57h-.14s-.05,0-.07-.01c.07,.01,.14,.01,.21,.01Z"/>
      <path class="cls-3" d="M.77,60.53l.18,.03c-.06,0-.12-.01-.18-.03Z"/>
      <path class="cls-3" d="M.47,60.41s.09,.05,.13,.06c-.04-.01-.09-.03-.13-.06Z"/>
      <path class="cls-3" d="M.36,60.34s-.05-.03-.07-.05-.05-.04-.07-.07c.04,.04,.09,.08,.14,.12Z"/>
      <path class="cls-3" d="M.14,60.12s.05,.07,.08,.1c-.03-.03-.06-.06-.08-.1Z"/>
      <path class="cls-3" d="M.09,60.03s.03,.06,.05,.09c-.02-.03-.04-.06-.05-.09Z"/>
    </g>
    <g>
      <polyline class="cls-2" points="18.36 5.81 22.68 5.81 27 5.81"/>
      <polyline class="cls-2" points="18.36 0 22.68 0 27 0"/>
      <polyline class="cls-2" points="18.36 23.52 22.68 23.52 27 23.52"/>
      <path class="cls-2" d="M5.31,8.97v-2.03c0-.3,.11-.57,.3-.78s.47-.35,.78-.35h11.97"/>
      <path class="cls-2" d="M4.26,15.87H1.27s-.04,0-.06,0-.04-.01-.06-.01c-.05,0-.09-.02-.13-.03-.05-.02-.09-.03-.13-.05s-.09-.04-.13-.06-.08-.04-.12-.07c-.08-.05-.16-.11-.23-.18-.06-.07-.13-.15-.18-.23-.02-.04-.05-.08-.07-.13l-.06-.12c-.02-.05-.03-.09-.04-.14-.01-.02-.02-.04-.02-.06-.01-.02-.01-.05-.01-.07-.01-.02-.01-.04-.02-.06v-.07s0-.02-.01-.03"/>
      <line class="cls-2" x1="5.61" y1="8.89" x2="5.61" y2="6.16"/>
      <line class="cls-2" x1="5.61" y1="6.15" x2="5.61" y2="6.16"/>
      <path class="cls-2" d="M5.68,9.46s0,0-.02,.02c-.02,.02-.05,.04-.07,.06l-.07,.07s-.05,.06-.07,.09l-.06,.09s-.05,.08-.07,.11c-.02,.05-.04,.09-.06,.14-.03,.05-.05,.1-.07,.15-.01,.03-.02,.05-.03,.08-.01,.05-.03,.11-.05,.16-.02,.07-.03,.13-.05,.19-.01,.07-.02,.13-.04,.2,0,.1-.03,.19-.04,.29-.01,.09-.02,.19-.03,.28-.01,.1-.02,.2-.02,.29,0,.05,0,.1,0,.15,0,.04-.01,.09-.01,.14,0,.07-.01,.13-.01,.2s-.01,.14-.01,.21c0,.09-.01,.18-.01,.27-.01,.09-.01,.18-.02,.27-.01,.11-.01,.22-.02,.32-.02,.27-.03,.53-.05,.78-.01,.17-.01,.34-.02,.5"/>
      <path class="cls-2" d="M40.05,8.97v-2.03c0-.3-.12-.58-.31-.79"/>
      <path class="cls-2" d="M27,5.81h11.97c.31,0,.58,.13,.77,.34"/>
      <path class="cls-2" d="M27,0h17.43"/>
      <path class="cls-2" d="M45.36,9.95s-.01,.04-.01,.06"/>
      <path class="cls-2" d="M41.1,15.87h2.98s.05,0,.07,0,.04-.01,.06-.01c.04,0,.09-.02,.13-.03,.04-.02,.09-.03,.13-.05s.08-.04,.13-.06c.04-.02,.08-.04,.12-.07,.08-.05,.15-.11,.22-.18s.13-.15,.19-.23c.02-.04,.05-.08,.07-.13l.06-.12c0-.05,.03-.09,.04-.14,.01-.02,.01-.04,.02-.06,0-.02,.01-.05,.01-.07,.01-.02,.01-.04,.01-.06,0-.03,0-.05,0-.07v-.08s.01-.01,.01-.01"/>
      <path class="cls-2" d="M45.36,9.95V1.24h0v-.06s-.01-.03-.01-.05v-.12s0-.07,0-.11c0-.04-.01-.08-.01-.12-.01-.07-.02-.15-.03-.22-.01-.04-.02-.07-.02-.1-.01-.04-.02-.07-.03-.1s-.02-.06-.03-.08c-.01-.03-.02-.06-.03-.08l-.03-.06s-.01-.02-.01-.03c-.01-.01-.01-.02-.02-.03-.01,0-.01,0-.02-.02h-.01s0-.03-.02-.03-.01-.01-.02-.01c0,0,0,0-.01,0h-.01s-.01-.01-.01-.01"/>
      <line class="cls-2" x1="39.74" y1="8.89" x2="39.74" y2="6.15"/>
      <path class="cls-2" d="M40.59,14.52c-.01-.16-.02-.33-.03-.5-.01-.25-.02-.51-.04-.78,0-.1-.02-.21-.02-.32-.01-.09-.01-.18-.02-.27,0-.09-.01-.18-.01-.27-.01-.07-.01-.14-.01-.21-.01-.07-.01-.13-.01-.2-.01-.05-.01-.1-.01-.14,0-.05-.01-.1-.01-.15,0-.09,0-.19-.02-.29-.01-.09-.02-.19-.03-.28-.01-.1-.03-.19-.05-.29-.01-.07-.02-.13-.04-.2-.01-.06-.03-.12-.05-.19-.01-.05-.03-.11-.05-.16-.01-.03-.02-.05-.03-.08l-.06-.15c-.02-.05-.04-.09-.07-.14-.02-.03-.04-.07-.06-.11-.02-.03-.04-.06-.07-.09l-.06-.09s-.05-.05-.07-.07c-.03-.02-.05-.04-.08-.06,0-.01-.01-.01-.02-.02"/>
      <path class="cls-2" d="M4.55,9.41h0c.06-.07,.12-.12,.19-.17"/>
      <path class="cls-2" d="M18.36,23.52c-2.98-.01-6.79-.11-9.74-.79-.07-.02-.14-.03-.21-.05-.04-.01-.07-.02-.11-.03-.02,0-.03-.01-.05-.01-.27-.07-.53-.14-.79-.23-.12-.04-.24-.09-.35-.13,0,0,0-.01-.01-.01-.11-.05-.21-.1-.31-.17,0,0-.01,0-.01-.01-.1-.06-.19-.13-.28-.2h-.01c-.09-.09-.18-.18-.26-.28-.09-.11-.17-.22-.24-.33-.11-.16-.22-.33-.32-.5-.2-.34-.38-.7-.55-1.06-.32-.72-.59-1.54-.72-2.32-.09-.51-.13-1.02-.13-1.53h0"/>
      <path class="cls-2" d="M4.26,15.87c-.01-.3-.01-.61-.01-.92v-4.52c0-.06,.01-.13,.01-.19,0-.06,0-.12,.02-.18,.01-.13,.04-.24,.08-.35,.02-.05,.04-.1,.08-.15h0c.03-.06,.07-.11,.11-.15"/>
      <path class="cls-2" d="M4.74,9.24c-.07,.05-.13,.11-.19,.17"/>
      <path class="cls-2" d="M4.74,9.24c.17-.12,.38-.21,.57-.27"/>
      <path class="cls-2" d="M5.31,8.97s.07-.02,.1-.03c.07-.02,.13-.04,.2-.04"/>
      <path class="cls-2" d="M5.61,8.9c.49-.12,1.01-.16,1.5-.18,.48-.03,.97-.02,1.46-.02h9.79"/>
      <path class="cls-2" d="M27,8.7h-8.64"/>
      <path class="cls-2" d="M27,23.52c2.98-.01,6.79-.11,9.73-.79,.08-.02,.15-.03,.22-.05,.04-.01,.07-.02,.11-.03,.01,0,.03-.01,.05-.01,.26-.07,.53-.14,.79-.23,.07-.02,.14-.05,.21-.08,.05-.02,.1-.04,.14-.06l.06-.03c.21-.09,.39-.21,.56-.36,.1-.09,.18-.18,.27-.28,.02-.03,.04-.05,.06-.08,.06-.08,.11-.16,.17-.24,.11-.16,.21-.33,.31-.5,.21-.34,.39-.7,.55-1.06,.32-.72,.6-1.54,.73-2.32,.09-.51,.12-1.02,.12-1.53"/>
      <path class="cls-2" d="M41.08,15.87c.02-.3,.02-.61,.02-.92v-4.52h0c0-.07,0-.13,0-.19,0-.06,0-.12-.01-.18-.01-.13-.04-.24-.08-.35-.04-.09-.09-.18-.17-.27,0-.01-.01-.02-.02-.03h-.01c-.05-.07-.11-.12-.18-.17-.17-.12-.38-.21-.57-.27"/>
      <path class="cls-2" d="M40.05,8.97s-.07-.02-.1-.03c-.05-.01-.11-.03-.16-.03-.02-.02-.03-.02-.05-.02"/>
      <path class="cls-2" d="M39.74,8.89c-.49-.11-1-.15-1.49-.17-.49-.03-.98-.02-1.47-.02h-9.78"/>
      <path class="cls-2" d="M.77,60.53l.18,.03c.07,.01,.14,.01,.21,.01"/>
      <path class="cls-2" d="M.47,60.41s.09,.05,.13,.06"/>
      <path class="cls-2" d="M.09,60.03s.03,.06,.05,.09c.02,.04,.05,.07,.08,.1,.02,.03,.05,.05,.07,.07s.04,.04,.07,.05"/>
      <path class="cls-2" d="M18.36,0H.33s-.01,0-.01,.01h-.02s0,0-.01,0h-.01s-.01,.02-.02,.03c0,0-.01,0-.02,0,0,.01-.01,.02-.01,.02-.01,.01-.01,.02-.02,.03,0,0-.01,.02-.02,.03l-.03,.06s-.02,.05-.03,.08c-.01,.02-.02,.05-.02,.08-.01,.03-.02,.06-.03,.1-.01,.03-.01,.06-.02,.1-.01,.07-.02,.15-.03,.22-.01,.04-.01,.08-.01,.12,0,.04,0,.08,0,.11,0,.04-.01,.08-.01,.12v.1H0V14.55"/>
      <path class="cls-2" d="M0,14.55v14.21H0v30.98c0,.05,.01,.1,.03,.14,.01,.05,.03,.11,.06,.15"/>
      <path class="cls-2" d="M.36,60.34s-.1-.08-.14-.12c-.03-.03-.05-.07-.08-.1-.02-.03-.04-.06-.05-.09"/>
      <path class="cls-2" d="M.36,60.34s.05,.04,.08,.06c.01,0,.02,.01,.03,.01"/>
      <path class="cls-2" d="M.6,60.47s-.09-.03-.13-.06"/>
      <path class="cls-2" d="M.6,60.47c.06,.03,.11,.04,.17,.06"/>
      <path class="cls-2" d="M1.16,60.57h-.14s-.05,0-.07-.01c-.06,0-.12-.01-.18-.03"/>
      <path class="cls-2" d="M1.16,60.57c.08,.01,.16,.01,.24,.02,.13,0,.25,.01,.38,.02,1.24,.07,2.47,.14,3.7,.2,1.53,.07,3.06,.14,4.59,.2,.1,0,.19,0,.29,.01,.25,.01,.49,.01,.74,.02,.71,.03,1.42,.04,2.13,.06,.38,.01,.75,.02,1.12,.03,.09,0,.17,0,.25,.01,.19,0,.37,0,.55,.01,.36,0,.72,.01,1.09,.02,.7,.01,1.41,.02,2.12,.03"/>
      <path class="cls-2" d="M27,61.2h-8.64"/>
      <path class="cls-2" d="M44.58,60.53l-.18,.03c-.06,.01-.13,.01-.2,.01"/>
      <path class="cls-2" d="M44.98,60.35s-.07,.05-.11,.07"/>
      <path class="cls-2" d="M45.27,60.03c-.02,.05-.05,.1-.09,.14"/>
      <path class="cls-2" d="M45.36,59.69s0,.02-.01,.02h0"/>
      <path class="cls-2" d="M45.36,9.95v4.54"/>
      <path class="cls-2" d="M45.36,14.49v14.27h0v30.93"/>
      <path class="cls-2" d="M45.35,59.72s.01-.02,.01-.03"/>
      <path class="cls-2" d="M45.35,59.72v.02c0,.05,0,.1-.02,.14h-.01c-.01,.06-.02,.11-.05,.15"/>
      <path class="cls-2" d="M45.18,60.17s.07-.09,.09-.14"/>
      <path class="cls-2" d="M45.18,60.17s-.02,.03-.04,.05-.04,.04-.07,.06h-.01s-.01,.02-.02,.03-.03,.02-.04,.03c-.01,0-.01,.01-.02,.01"/>
      <path class="cls-2" d="M44.87,60.42s.07-.04,.11-.07"/>
      <path class="cls-2" d="M44.87,60.42c-.09,.05-.17,.08-.27,.11h-.02"/>
      <path class="cls-2" d="M44.2,60.57h.14s.04,0,.06-.01c.07,0,.13-.01,.18-.03"/>
      <path class="cls-2" d="M44.2,60.57c-.08,.01-.16,.01-.24,.02-.13,0-.26,.01-.39,.02-1.23,.07-2.46,.14-3.69,.2-1.53,.07-3.06,.14-4.59,.2-.1,0-.2,0-.29,.01-.25,.01-.5,.01-.74,.02-.71,.03-1.42,.04-2.14,.06l-1.11,.03c-.09,0-.17,0-.26,.01-.18,0-.36,0-.54,.01-.37,0-.73,.01-1.09,.02-.71,.01-1.41,.02-2.12,.03"/>
      <path class="cls-2" d="M45.35,59.72h21.27c3.91,0,7.08-3.18,7.08-7.09V7.08C73.7,3.17,70.53,0,66.62,0h-22.19"/>
    </g>
  </g>
  <text class="cls-1" transform="translate(15.62 42.11)"><tspan x="0" y="0">80</tspan></text>
</svg>