<?xml version="1.0" encoding="UTF-8"?>
<svg id="_03_LINEA_FINA" data-name="03_LINEA FINA" xmlns="http://www.w3.org/2000/svg" viewBox="0 0 64.63 61.23">
  <defs>
    <style>
      .cls-1 {
        font-family: Inter18pt-Medium, 'Inter 18pt';
        font-size: 10px;
      }

      .cls-2 {
        fill: none;
        stroke: #404041;
        stroke-linecap: round;
        stroke-linejoin: round;
        stroke-width: .35px;
      }

      .cls-3 {
        fill: #f1f1f2;
      }
    </style>
  </defs>
  <g>
    <g>
      <path class="cls-3" d="M64.63,59.72v.03c0,.05-.01,.1-.02,.14-.01,0-.01,.01-.01,.01l-.03,.09s-.02,.06-.04,.08c-.02,.03-.04,.07-.07,.1h-.01s-.06,.08-.1,.11h0s-.01,.02-.01,.02c0,0-.03,.03-.05,.04l-.09,.06s-.02,0-.03,.02c-.02,0-.05,.02-.08,.04-.04,0-.08,.03-.12,.04-.06,.02-.11,.04-.17,.05s-.12,.02-.18,.02c-.05,0-.09,0-.13,0-.08,0-.16,.01-.24,.01-.13,0-.26,.02-.39,.02-1.23,.07-2.46,.14-3.7,.2-1.52,.08-3.05,.15-4.58,.2-.1,0-.2,0-.3,0-.24,.01-.49,.02-.73,.03-.71,.02-1.43,.04-2.14,.06-.37,0-.74,.02-1.12,.03h-.25c-.18,.01-.36,.01-.55,.01-.36,0-.72,.02-1.08,.02-.71,.02-1.41,.02-2.12,.03h-13.74c-.76,0-1.53,0-2.29-.02-.4,0-.79,0-1.18-.02-.2,0-.39,0-.59,0-.1,0-.2-.01-.3-.01-.65,0-1.29-.03-1.94-.05-.78-.02-1.55-.04-2.33-.07-1.59-.05-3.17-.12-4.75-.2-1.29-.07-2.58-.14-3.88-.21-.13-.01-.26-.02-.4-.02-.1,0-.19-.01-.29-.02-.08-.01-.17-.03-.25-.05-.01,0-.03,0-.04,0-.02-.01-.03-.01-.05-.02-.06-.02-.12-.05-.17-.08-.04-.02-.09-.05-.12-.08-.06-.04-.11-.08-.15-.13s-.08-.1-.11-.16c-.03-.05-.05-.11-.07-.16-.01-.05-.02-.1-.02-.16h0V18.92c0-.74,.26-1.48,.74-2.05,.49-.57,1.17-.94,1.93-.99h1.59c.01,.52,.05,1.05,.14,1.57,.15,.81,.44,1.66,.78,2.41,.19,.39,.39,.77,.62,1.15,.06,.09,.12,.18,.18,.26,0,.01,0,.03,.02,.04,.07,.1,.13,.18,.2,.27,.07,.08,.14,.16,.21,.23h.01c.07,.08,.15,.14,.24,.21h.01c.09,.07,.18,.13,.28,.18,0,0,.01,0,.01,.01,.1,.05,.2,.1,.3,.13,0,0,.01,0,.01,0,.1,.04,.21,.08,.31,.11,.04,0,.07,.02,.1,.03,.19,.06,.38,.11,.56,.16,.02,0,.04,0,.06,0l.12,.03c.16,.04,.32,.08,.48,.11,3.06,.65,6.95,.74,10.03,.73h13.74c2.98-.01,6.79-.11,9.73-.79,.07-.02,.15-.04,.22-.05,.03-.01,.07-.02,.1-.03,.02,0,.04,0,.06,0,.26-.07,.53-.14,.79-.23,.19-.07,.36-.14,.52-.24,.05-.02,.1-.05,.15-.08,.11-.06,.2-.14,.29-.22,.1-.08,.19-.17,.27-.27h0c.08-.11,.16-.21,.24-.33,.11-.16,.21-.32,.31-.49,.21-.35,.39-.7,.55-1.07,.32-.71,.59-1.54,.73-2.31,.09-.51,.12-1.02,.13-1.53h2.93s.04-.01,.06-.01,.04,0,.06,0c.03,0,.05,0,.07-.01,.04,0,.08,0,.13-.03,.04-.01,.08-.02,.13-.04l.12-.06c.05-.02,.09-.05,.13-.07,.08-.06,.15-.12,.22-.19s.13-.14,.18-.22c.03-.04,.05-.09,.08-.13,.02-.04,.04-.08,.05-.13,.02-.04,.04-.09,.05-.13,.01-.02,.01-.04,.02-.07,0-.02,.01-.04,.01-.06s0-.05,0-.07,.01-.04,.01-.06V59.69h0v.03Z"/>
      <path class="cls-3" d="M64.63,12.19v2.4s-.01,.04-.01,.06,0,.05,0,.07-.01,.04-.01,.06c0,.03,0,.05-.02,.07,0,.04-.03,.09-.05,.13-.01,.05-.03,.09-.05,.13-.03,.04-.05,.09-.08,.13-.05,.08-.11,.15-.18,.22s-.14,.13-.22,.19c-.04,.02-.08,.05-.13,.07l-.12,.06c-.05,.02-.09,.03-.13,.04-.05,.02-.09,.03-.13,.03-.02,.01-.04,.01-.07,.01-.02,0-.04,0-.06,0s-.04,.01-.06,.01h-2.93c.01-.31,.01-.61,.01-.92v-4.53c0-.12-.01-.24-.02-.36-.03-.25-.1-.46-.28-.66-.19-.22-.47-.35-.75-.43v-2.03c0-.3-.11-.58-.31-.79-.19-.21-.46-.34-.77-.34H20c-.31,0-.58,.13-.78,.34-.19,.21-.31,.49-.31,.79v2.03c-.22,.07-.44,.17-.62,.31-.22,.17-.33,.37-.38,.64-.03,.14-.04,.28-.05,.42v4.61c0,.31,0,.61,0,.92h-1.59c-.76,.05-1.44,.42-1.93,.99-.48,.57-.74,1.31-.74,2.05V1.25h0v-.02h0v-.1s0-.07,0-.11v-.12s.01-.07,.02-.11c0-.08,.01-.15,.03-.22,0-.04,0-.07,.02-.11,0-.03,.02-.06,.02-.09l.03-.09s.02-.05,.03-.07c.01-.03,.02-.05,.03-.07,0,0,0-.02,.02-.03,0,0,0-.01,.02-.02,0-.01,0-.01,0-.02l.02-.02s.01-.01,.02-.01c0,0,.01,0,.01-.02h0s.01,0,.01,0h.03c.08-.01,.17-.01,.25-.01h50.09s0,.01,.01,.01h.04s0,.02,.02,.03h0s.02,.02,.02,.03l.02,.02s.01,.02,.01,.02c0,0,0,.02,.02,.03,0,.02,.02,.04,.03,.07,0,.02,.02,.04,.03,.07l.03,.09s.02,.06,.02,.09c0,.04,.02,.07,.03,.11,.01,.07,.02,.14,.03,.22,0,.04,0,.08,0,.11,0,.04,.01,.08,.01,.12v.2h0v.02h0V12.19Z"/>
      <path class="cls-3" d="M63.79,60.55c.06-.01,.11-.03,.17-.05-.06,.02-.11,.04-.17,.05Z"/>
      <path class="cls-3" d="M63.79,60.55s-.07,.02-.11,.02h-.07c.06,0,.12-.01,.18-.02Z"/>
      <path class="cls-3" d="M60.38,10.62v4.34c0,.31,0,.61-.01,.92,0,.51-.04,1.02-.13,1.53-.14,.77-.41,1.6-.73,2.31-.16,.37-.34,.72-.55,1.07-.1,.17-.2,.33-.31,.49-.08,.12-.16,.22-.24,.32h0c-.08,.11-.17,.2-.27,.28-.09,.08-.19,.16-.29,.22-.05,.03-.1,.06-.15,.08-.16,.1-.33,.17-.52,.24-.26,.09-.53,.16-.79,.23-.02,0-.04,0-.06,0-.03,.01-.07,.02-.1,.03-.07,0-.15,.03-.22,.05-2.94,.68-6.75,.78-9.73,.79h-13.74c-3.08,0-6.97-.08-10.03-.73-.16-.03-.32-.07-.48-.11l-.12-.03s-.04,0-.06-.02c-.18-.05-.37-.1-.56-.15-.03,0-.06-.02-.1-.03-.1-.03-.21-.07-.31-.11,0,0-.01,0-.01,0-.1-.03-.2-.08-.3-.13,0-.01-.01-.01-.01-.01-.1-.05-.19-.11-.28-.17h-.01c-.09-.08-.17-.14-.24-.21h-.01l-.21-.24c-.07-.09-.13-.17-.2-.27-.01,0-.01-.03-.02-.04-.06-.08-.12-.17-.18-.26-.23-.38-.43-.76-.62-1.15-.34-.75-.63-1.6-.78-2.41-.09-.52-.13-1.05-.14-1.57,0-.31,0-.61,0-.92v-4.61c0-.14,.02-.28,.05-.42,.05-.27,.16-.47,.38-.64,.18-.14,.4-.24,.62-.31,.1-.03,.21-.06,.31-.08,.05-.01,.09-.02,.13-.03,.65-.13,1.34-.16,1.99-.16,.37-.01,.75,0,1.13,0H56.06c.49,0,.98-.01,1.47,0,.48,.03,1,.07,1.49,.18,.02,0,.04,0,.06,.02,.05,0,.09,.02,.14,.03,.04,.01,.07,.02,.11,.03,.28,.08,.56,.21,.75,.43,.18,.2,.25,.41,.28,.66,0,.12,.02,.24,.02,.36v.19Z"/>
      <path class="cls-3" d="M59.33,6.95v2.03s-.07-.02-.11-.03c-.05,0-.09-.02-.14-.03-.02-.01-.04-.02-.06-.02v-2.74c.2,.21,.31,.49,.31,.79Z"/>
      <path class="cls-3" d="M59.02,6.16v2.74c-.49-.11-1.01-.15-1.49-.18-.49-.02-.98,0-1.47,0H22.47c-.38,0-.76-.01-1.13,0-.65,0-1.34,.03-1.99,.16-.04,.01-.08,.02-.13,.03v-2.74c.2-.21,.47-.34,.78-.34H58.25c.31,0,.58,.13,.77,.34Z"/>
      <path class="cls-3" d="M57.85,22.1c.1-.06,.2-.14,.29-.22-.09,.08-.18,.16-.29,.22Z"/>
      <path class="cls-3" d="M21.91,22.66s-.04,0-.06,0c-.18-.05-.37-.1-.56-.16,.19,.05,.38,.1,.56,.15,.02,.01,.04,.01,.06,.02Z"/>
      <path class="cls-3" d="M19.22,6.16v2.74c-.1,.02-.21,.05-.31,.08v-2.03c0-.3,.12-.58,.31-.79Z"/>
      <path class="cls-3" d="M14.34,60.52c.08,.02,.17,.04,.25,.05-.08-.01-.17-.03-.25-.05Z"/>
      <path class="cls-3" d="M14.08,60.41c.05,.03,.11,.06,.17,.08-.06-.02-.12-.05-.17-.08Z"/>
      <path class="cls-3" d="M13.81,60.2c.04,.05,.09,.09,.15,.13-.05-.03-.11-.07-.15-.13Z"/>
      <path class="cls-3" d="M13.95,0h0s0,.01,0,.01h-.02s-.01,0-.01,0h0s-.01,.01-.01,.02c0,0-.02,.01-.02,.01l-.02,.02s0,0,0,.02c-.01,0-.01,.02-.02,.02-.01,0-.01,.02-.02,.03-.01,.02-.02,.04-.03,.07,0,.02-.02,.04-.03,.07l-.03,.09s-.01,.06-.02,.09c-.01,.04-.01,.07-.02,.11-.02,.07-.03,.14-.03,.22,0,.04,0,.08-.02,.11v.12s0,.08,0,.11v.09h0v.02h0V58.3c0,.79-.63,1.42-1.42,1.42H7.09c-1.95,0-3.73-.79-5.01-2.07S0,54.59,0,52.64V7.09C0,3.18,3.18,0,7.09,0h6.86Z"/>
      <path class="cls-3" d="M13.7,60.04c.03,.06,.07,.11,.11,.16-.05-.04-.09-.1-.11-.16Z"/>
      <path class="cls-3" d="M13.63,59.88s.04,.11,.07,.16c-.02,0-.02-.03-.03-.04-.02-.04-.03-.08-.04-.12Z"/>
      <path class="cls-3" d="M13.61,59.72c0,.06,0,.11,.02,.16-.01-.05-.02-.1-.02-.16Z"/>
      <path class="cls-3" d="M13.61,59.71h0s-1.42,0-1.42,0c.79,0,1.42-.63,1.42-1.42v1.41Z"/>
    </g>
    <g>
      <line class="cls-2" x1="32.54" y1="61.21" x2="46.28" y2="61.2"/>
      <line class="cls-2" x1="32.54" y1="23.53" x2="46.28" y2="23.53"/>
      <line class="cls-2" x1="32.54" y1="8.71" x2="46.28" y2="8.71"/>
      <line class="cls-2" x1="32.54" y1="5.82" x2="46.28" y2="5.82"/>
      <line class="cls-2" x1="32.54" y1="0" x2="46.28" y2="0"/>
      <line class="cls-2" x1="13.61" y1="59.72" x2="12.19" y2="59.72"/>
      <path class="cls-2" d="M19.29,9.47s0,.01-.02,.01c-.02,.02-.05,.04-.07,.07-.03,.02-.05,.04-.07,.07s-.05,.05-.07,.08-.04,.07-.06,.1c-.03,.03-.05,.07-.07,.11s-.05,.09-.07,.13l-.06,.15-.03,.09s-.03,.1-.05,.16-.03,.12-.05,.19c-.01,.06-.03,.13-.04,.2-.02,.09-.03,.19-.04,.28-.01,.1-.02,.2-.03,.29,0,.1-.02,.19-.02,.29,0,.05,0,.09,0,.14s-.01,.1-.01,.14c0,.07,0,.14,0,.21s-.01,.14-.01,.21c0,.09,0,.18-.02,.27,0,.09,0,.18,0,.26-.01,.11-.02,.22-.02,.33-.02,.27-.04,.52-.05,.77-.01,.17-.02,.34-.02,.51"/>
      <line class="cls-2" x1="19.22" y1="8.9" x2="19.22" y2="6.16"/>
      <path class="cls-2" d="M13.61,18.92c0-.74,.26-1.48,.74-2.05,.49-.57,1.17-.94,1.93-.99h1.59"/>
      <path class="cls-2" d="M14.34,60.52c.08,.02,.17,.04,.25,.05,.1,0,.19,.02,.29,.02,.14,0,.27,0,.4,.02,1.3,.07,2.59,.14,3.88,.21,1.58,.08,3.16,.15,4.75,.2,.78,.03,1.55,.05,2.33,.07,.65,.02,1.29,.04,1.94,.05,.1,0,.2,.01,.3,.01,.2,0,.39,0,.59,0,.39,.01,.78,.01,1.18,.02,.76,.01,1.53,.02,2.29,.03"/>
      <path class="cls-2" d="M14.08,60.41c.05,.03,.11,.06,.17,.08"/>
      <path class="cls-2" d="M13.61,59.72c0,.06,0,.11,.02,.16,.02,.05,.04,.11,.07,.16,.03,.06,.07,.11,.11,.16s.09,.09,.15,.13"/>
      <path class="cls-2" d="M13.61,18.92V58.3"/>
      <path class="cls-2" d="M13.61,58.3v1.41h0"/>
      <path class="cls-2" d="M13.96,60.33c-.05-.03-.11-.07-.15-.13-.05-.04-.09-.1-.11-.16-.02,0-.02-.03-.03-.04-.02-.04-.03-.08-.04-.12-.01-.05-.02-.1-.02-.16"/>
      <path class="cls-2" d="M13.96,60.33s.08,.06,.12,.08"/>
      <path class="cls-2" d="M14.25,60.49c-.06-.02-.12-.05-.17-.08"/>
      <path class="cls-2" d="M14.25,60.49s.03,.01,.05,.02c0,0,.03,0,.04,0"/>
      <path class="cls-2" d="M14.59,60.57c-.08-.01-.17-.03-.25-.05"/>
      <path class="cls-2" d="M13.61,18.92V1.25h0v-.02h0v-.1s0-.07,0-.11v-.12s.01-.07,.02-.11c0-.08,.01-.15,.03-.22,0-.04,0-.07,.02-.11,0-.03,.02-.06,.02-.09l.03-.09s.02-.05,.03-.07c.01-.03,.02-.05,.03-.07,0,0,0-.02,.02-.03,0,0,0-.01,.02-.02,0-.01,0-.01,0-.02l.02-.02s.01-.01,.02-.01c0,0,.01,0,.01-.02h0s.01,0,.01,0h.03"/>
      <path class="cls-2" d="M32.54,23.53c-3.08,0-6.97-.08-10.03-.73-.16-.03-.32-.07-.48-.11l-.12-.03s-.04,0-.06,0c-.18-.05-.37-.1-.56-.16"/>
      <path class="cls-2" d="M21.29,22.49c.19,.05,.38,.1,.56,.15,.02,.01,.04,.01,.06,.02"/>
      <path class="cls-2" d="M21.29,22.49s-.06-.02-.1-.03c-.1-.03-.21-.07-.31-.11,0,0-.01,0-.01,0-.1-.03-.2-.08-.3-.13,0-.01-.01-.01-.01-.01-.1-.05-.19-.11-.28-.17h-.01c-.09-.08-.17-.14-.24-.21h-.01l-.21-.24c-.07-.09-.13-.17-.2-.27-.01,0-.01-.03-.02-.04-.06-.08-.12-.17-.18-.26-.23-.38-.43-.76-.62-1.15-.34-.75-.63-1.6-.78-2.41-.09-.52-.13-1.05-.14-1.57"/>
      <path class="cls-2" d="M17.87,15.88c0-.31,0-.61,0-.92v-4.61c0-.14,.02-.28,.05-.42,.05-.27,.16-.47,.38-.64,.18-.14,.4-.24,.62-.31"/>
      <path class="cls-2" d="M18.91,8.98c.1-.03,.21-.06,.31-.08"/>
      <path class="cls-2" d="M19.22,8.9s.09-.02,.13-.03c.65-.13,1.34-.16,1.99-.16,.37-.01,.75,0,1.13,0h10.07"/>
      <path class="cls-2" d="M32.54,5.82h-12.54c-.31,0-.58,.13-.78,.34"/>
      <path class="cls-2" d="M18.91,8.98v-2.03c0-.3,.12-.58,.31-.79"/>
      <path class="cls-2" d="M59.86,14.53c0-.17-.01-.34-.02-.51-.01-.25-.03-.5-.04-.77l-.03-.33c0-.08,0-.17,0-.26-.01-.09-.01-.18-.02-.27,0-.07,0-.14-.01-.21,0-.07,0-.14,0-.21v-.14s-.01-.09-.01-.14c-.01-.1-.02-.19-.02-.29-.01-.09-.02-.19-.03-.29-.02-.09-.03-.19-.05-.28-.01-.07-.02-.14-.04-.2-.01-.07-.03-.13-.05-.19,0-.06-.03-.11-.05-.16l-.03-.09-.06-.15s-.04-.09-.07-.13c-.02-.04-.04-.08-.06-.11s-.05-.07-.07-.1-.04-.05-.07-.08c-.02-.03-.04-.05-.07-.07-.02-.03-.04-.05-.07-.07-.01,0-.01-.01-.02-.01"/>
      <line class="cls-2" x1="59.02" y1="8.9" x2="59.02" y2="6.16"/>
      <path class="cls-2" d="M60.38,15.88h2.92s.04-.01,.06-.01,.04,0,.06,0c.03,0,.05,0,.07-.01,.04,0,.08,0,.13-.03,.04-.01,.08-.02,.13-.04l.12-.06c.05-.02,.09-.05,.13-.07,.08-.06,.15-.12,.22-.19s.13-.14,.18-.22c.03-.04,.05-.09,.08-.13,.02-.04,.04-.08,.05-.13,.02-.04,.04-.09,.05-.13,.01-.02,.01-.04,.02-.07,0-.02,.01-.04,.01-.06s0-.05,0-.07,.01-.04,.01-.06"/>
      <path class="cls-2" d="M63.96,60.5c-.06,.02-.11,.04-.17,.05-.04,0-.07,.02-.11,.02h-.07c-.05,0-.09,0-.13,0-.08,0-.16,.01-.24,.01-.13,0-.26,.02-.39,.02-1.23,.07-2.46,.14-3.7,.2-1.52,.08-3.05,.15-4.58,.2-.1,0-.2,0-.3,0-.24,.01-.49,.02-.73,.03-.71,.02-1.43,.04-2.14,.06-.37,0-.74,.02-1.12,.03h-.25c-.18,.01-.36,.01-.55,.01-.36,0-.72,.02-1.08,.02-.71,.02-1.41,.02-2.12,.03"/>
      <path class="cls-2" d="M64.63,14.59V59.69h0v.06c0,.05-.01,.1-.02,.14-.01,0-.01,.01-.01,.01l-.03,.09s-.02,.06-.04,.08c-.02,.03-.04,.07-.07,.1h-.01s-.06,.08-.1,.11h0s-.01,.02-.01,.02c0,0-.03,.03-.05,.04l-.09,.06s-.02,0-.03,.02c-.02,0-.05,.02-.08,.04-.04,0-.08,.03-.12,.04"/>
      <path class="cls-2" d="M63.61,60.57c.06,0,.12-.01,.18-.02s.11-.03,.17-.05"/>
      <path class="cls-2" d="M46.28,0h18.01s0,.01,.01,.01h.04s0,.02,.02,.03h0s.02,.02,.02,.03l.02,.02s.01,.02,.01,.02c0,0,0,.02,.02,.03,0,.02,.02,.04,.03,.07,0,.02,.02,.04,.03,.07l.03,.09s.02,.06,.02,.09c0,.04,.02,.07,.03,.11,.01,.07,.02,.14,.03,.22,0,.04,0,.08,0,.11,0,.04,.01,.08,.01,.12v.2h0v.02h0V14.59"/>
      <path class="cls-2" d="M46.28,23.53c2.98-.01,6.79-.11,9.73-.79,.07-.02,.15-.04,.22-.05,.03-.01,.07-.02,.1-.03,.02,0,.04,0,.06,0,.26-.07,.53-.14,.79-.23,.19-.07,.36-.14,.52-.24,.05-.02,.1-.05,.15-.08,.1-.06,.2-.14,.29-.22"/>
      <path class="cls-2" d="M58.14,21.88c-.09,.08-.18,.16-.29,.22"/>
      <path class="cls-2" d="M58.14,21.88c.1-.08,.19-.17,.27-.27h0c.08-.11,.16-.21,.24-.33,.11-.16,.21-.32,.31-.49,.21-.35,.39-.7,.55-1.07,.32-.71,.59-1.54,.73-2.31,.09-.51,.12-1.02,.13-1.53"/>
      <path class="cls-2" d="M60.37,15.88c.01-.31,.01-.61,.01-.92v-4.53c0-.12-.01-.24-.02-.36-.03-.25-.1-.46-.28-.66-.19-.22-.47-.35-.75-.43"/>
      <path class="cls-2" d="M59.33,8.98s-.07-.02-.11-.03c-.05,0-.09-.02-.14-.03-.02-.01-.04-.02-.06-.02"/>
      <path class="cls-2" d="M59.02,8.9c-.49-.11-1.01-.15-1.49-.18-.49-.02-.98,0-1.47,0h-9.78"/>
      <path class="cls-2" d="M46.28,5.82h11.97c.31,0,.58,.13,.77,.34,.2,.21,.31,.49,.31,.79v2.03"/>
      <path class="cls-2" d="M13.61,58.3c0,.79-.63,1.42-1.42,1.42"/>
      <path class="cls-2" d="M32.54,0H7.09C3.18,0,0,3.18,0,7.09V52.64c0,1.95,.8,3.73,2.08,5.01s3.06,2.07,5.01,2.07h5.1"/>
    </g>
  </g>
  <text class="cls-1" transform="translate(31.78 42.11)"><tspan x="0" y="0">90</tspan></text>
</svg>