<?xml version="1.0" encoding="UTF-8"?>
<svg id="_03_LINEA_FINA" data-name="03_LINEA FINA" xmlns="http://www.w3.org/2000/svg" viewBox="0 0 91.04 61.23">
  <defs>
    <style>
      .cls-1 {
        font-family: Inter18pt-Medium, 'Inter 18pt';
        font-size: 10px;
      }

      .cls-2 {
        fill: none;
        stroke: #404041;
        stroke-linecap: round;
        stroke-linejoin: round;
        stroke-width: .35px;
      }

      .cls-3 {
        fill: #f1f1f2;
      }
    </style>
  </defs>
  <g>
    <g>
      <path class="cls-3" d="M90.71,59.71v.03c0,.05-.01,.1-.02,.14-.01,0-.01,.01-.01,.01l-.03,.09s-.03,.07-.04,.09c-.02,.03-.05,.07-.07,.1v.02c-.05,.03-.08,.06-.11,.09h-.01s0,.02,0,.02c-.01,.01-.03,.03-.05,.04l-.09,.06s-.01,0-.02,.01c-.05,.02-.09,.04-.14,.06-.05,.03-.1,.05-.16,.06h-.01l-.18,.03c-.07,.01-.14,.01-.2,.01-.08,.01-.16,.01-.24,.02-.13,0-.26,.01-.39,.02-1.23,.07-2.46,.14-3.7,.2-1.52,.07-3.05,.14-4.58,.2-.1,0-.2,0-.3,.01-.24,.01-.49,.01-.73,.02-.71,.03-1.43,.04-2.14,.06-.37,.01-.74,.02-1.12,.03-.08,0-.16,0-.25,.01-.18,0-.36,0-.55,.01-.36,0-.72,.01-1.08,.02-.71,.01-1.41,.02-2.12,.03h-25.65c-.71-.01-1.42-.02-2.12-.03-.37,0-.73-.02-1.09-.02-.18-.01-.36-.01-.55-.01-.08-.01-.16-.01-.25-.01-.37,0-.74-.02-1.12-.03-.71-.02-1.42-.03-2.13-.06-.25-.01-.49-.01-.74-.02-.1-.01-.19-.01-.29-.01-1.53-.06-3.06-.13-4.59-.2-1.23-.06-2.46-.13-3.7-.2-.13-.01-.25-.02-.38-.02-.08,0-.16,0-.24-.02-.07,0-.14,0-.21-.01l-.18-.03c-.06-.02-.11-.03-.17-.06-.04-.01-.09-.03-.13-.06-.01,0-.02-.01-.03-.01-.03-.02-.05-.04-.08-.06-.05-.04-.1-.08-.14-.12-.03-.03-.05-.07-.08-.1-.02-.03-.04-.06-.05-.09-.03-.04-.05-.1-.06-.15-.02-.04-.03-.09-.03-.14v-.02h0V28.77h0V14.55s.01,.02,.01,.03v.07s.01,.04,.02,.06c0,.02,0,.05,.01,.07,0,.02,0,.04,.02,.06,0,.05,.02,.09,.04,.14l.06,.12c.02,.05,.05,.09,.07,.13,.05,.08,.12,.16,.18,.23,.07,.07,.15,.13,.23,.18,.04,.03,.08,.05,.12,.07s.09,.04,.13,.06,.08,.03,.13,.05c.04,0,.08,.02,.13,.03,.02,0,.04,.01,.06,.01s.04,0,.06,0h3c0,.51,.04,1.02,.13,1.53,.13,.78,.4,1.6,.72,2.32,.17,.36,.35,.72,.55,1.06,.1,.17,.21,.34,.32,.5,.07,.11,.15,.22,.24,.33,.08,.1,.17,.19,.26,.27h.01c.09,.08,.18,.15,.28,.21,0,.01,.01,.01,.01,.01,.1,.07,.2,.12,.31,.17,.01,0,.01,.01,.01,.01,.11,.04,.23,.09,.35,.13,.26,.09,.52,.16,.79,.23,.02,0,.03,.01,.05,.01,.04,.01,.07,.02,.11,.03,.07,.02,.14,.03,.21,.05,2.95,.68,6.76,.78,9.74,.79h25.65c2.98-.01,6.79-.11,9.73-.79,.07-.02,.15-.03,.22-.05,.03-.01,.07-.02,.1-.03,.02,0,.04-.01,.06-.01,.26-.07,.53-.14,.79-.23,.05-.02,.09-.03,.13-.05,.2-.07,.38-.16,.54-.27,.11-.06,.2-.13,.29-.21,.1-.08,.19-.17,.27-.27h0c.08-.12,.16-.22,.24-.33,.11-.16,.21-.33,.31-.5,.21-.34,.39-.7,.55-1.06,.32-.72,.59-1.54,.73-2.32,.09-.51,.12-1.02,.12-1.53h3s.04,0,.06,0c.03,0,.05-.01,.07-.01,.04,0,.08-.02,.13-.03,.04-.02,.08-.03,.13-.05l.12-.06s.09-.04,.13-.07c.08-.05,.15-.11,.22-.18s.13-.15,.18-.23c.03-.04,.05-.08,.08-.13,.02-.04,.04-.08,.05-.12,.02-.05,.04-.09,.05-.14,0-.02,0-.04,.02-.06,0-.02,.01-.05,.01-.07s.01-.04,.01-.06c0-.03,.01-.05,.01-.07v14.18h0v30.95Z"/>
      <path class="cls-3" d="M33.96,6.16c-.19,.21-.3,.48-.3,.78v2.03c-.19,.06-.4,.15-.57,.27-.07,.05-.13,.1-.19,.16h0s-.08,.1-.11,.15h0c-.04,.06-.06,.11-.08,.16-.04,.11-.07,.22-.08,.35-.01,.06-.01,.12-.02,.18,0,.06-.01,.13-.01,.19v4.52c0,.31,0,.62,.01,.92h-2.99s-.04,0-.06,0-.04-.01-.06-.01c-.05,0-.09-.02-.13-.03-.05-.02-.09-.03-.13-.05s-.09-.04-.13-.06-.08-.04-.12-.07c-.08-.05-.16-.11-.23-.18-.06-.07-.13-.15-.18-.23-.02-.04-.05-.08-.07-.13l-.06-.12c-.02-.05-.03-.09-.04-.14-.01-.02-.02-.04-.02-.06-.01-.02-.01-.05-.01-.07-.01-.02-.01-.04-.02-.06v-.07s0-.02-.01-.03v-.05h0v-.03h0v-.04h0V1.24h0v-.11s.01-.08,.01-.12c0-.03,0-.07,.01-.11,0-.04,0-.08,.01-.12,.01-.07,.02-.15,.03-.22,0-.04,0-.07,.02-.1,.01-.04,.02-.07,.03-.1s.01-.06,.02-.08c.01-.03,.02-.06,.03-.08l.03-.06s.02-.02,.02-.03c.01-.01,.01-.02,.02-.03,0,0,.01,0,.01-.02,.01,0,.02,0,.02,0,.01-.01,.01-.02,.02-.02h.01s0-.02,0-.02h.02s0-.01,.01-.01h61.73s0,.02,0,.02c.01,0,.01,.01,.02,.01,0,0,.01,0,.01,.02,.01,0,.02,0,.02,0,0,.01,0,.02,.02,.02,0,.01,0,.02,0,.03,.01,0,.01,.02,.02,.03l.03,.06s.02,.05,.03,.08c.01,.02,.02,.05,.03,.08s.02,.06,.02,.1c.01,.03,.02,.06,.03,.1,0,.07,.02,.15,.03,.22,0,.04,.01,.08,.01,.12s.01,.08,.01,.11v.22h0V14.42h0v.03h0v.04h0v.09s-.01,.04-.01,.07c0,.02-.01,.04-.01,.06s-.01,.05-.01,.07c-.01,.02-.01,.04-.02,.06-.01,.05-.03,.09-.05,.14-.01,.04-.03,.08-.05,.12-.03,.05-.05,.09-.08,.13-.05,.08-.11,.16-.18,.23s-.14,.13-.22,.18c-.04,.03-.08,.05-.13,.07l-.12,.06s-.09,.03-.13,.05c-.05,0-.09,.02-.13,.03-.02,0-.04,.01-.07,.01-.02,0-.04,0-.06,0h-3c.02-.3,.02-.61,.02-.92v-4.52h0c0-.13-.01-.25-.02-.37-.02-.13-.04-.24-.08-.35-.05-.1-.11-.2-.2-.3h0c-.06-.07-.12-.12-.18-.17-.14-.1-.29-.17-.45-.22-.02,0-.03-.02-.05-.02-.02-.01-.05-.02-.07-.03v-2.03c0-.3-.11-.58-.31-.79-.19-.21-.46-.34-.77-.34H34.74c-.31,0-.59,.14-.78,.35Z"/>
      <path class="cls-3" d="M90.11,60.47c.05-.02,.09-.04,.14-.06-.04,.03-.09,.05-.14,.06Z"/>
      <path class="cls-3" d="M89.76,60.56l.18-.03c-.06,.02-.12,.03-.18,.03Z"/>
      <path class="cls-3" d="M89.76,60.56s-.05,.01-.07,.01h-.13c.06,0,.13,0,.2-.01Z"/>
      <path class="cls-3" d="M86.46,10.62v4.33c0,.31,0,.62-.02,.92,0,.51-.03,1.02-.12,1.53-.14,.78-.41,1.6-.73,2.32-.16,.36-.34,.72-.55,1.06-.1,.17-.2,.34-.31,.5-.08,.11-.16,.21-.24,.32h0c-.08,.11-.17,.2-.27,.28-.09,.08-.19,.15-.29,.21-.16,.11-.34,.2-.54,.27-.04,.02-.08,.03-.13,.05-.26,.09-.53,.16-.79,.23-.02,0-.04,.01-.06,.01-.03,.01-.07,.02-.1,.03-.07,.02-.15,.03-.22,.05-2.94,.68-6.75,.78-9.73,.79h-25.65c-2.98-.01-6.79-.11-9.74-.79-.07-.02-.14-.03-.21-.05-.04-.01-.07-.02-.11-.03-.02,0-.03-.01-.05-.01-.27-.07-.53-.14-.79-.23-.12-.04-.24-.09-.35-.13,0,0,0-.01-.01-.01-.11-.05-.21-.1-.31-.17,0,0-.01,0-.01-.01-.1-.06-.19-.13-.28-.2h-.01c-.09-.09-.18-.18-.26-.28-.09-.11-.17-.22-.24-.33-.11-.16-.22-.33-.32-.5-.2-.34-.38-.7-.55-1.06-.32-.72-.59-1.54-.72-2.32-.09-.51-.13-1.02-.13-1.53h-.01c-.01-.3-.01-.61-.01-.92v-4.52c0-.06,.01-.13,.01-.19,.01-.06,.01-.12,.02-.18,.01-.13,.04-.24,.08-.35,.02-.05,.04-.1,.08-.15h0c.03-.06,.07-.11,.11-.15,.06-.06,.12-.12,.19-.17,.17-.12,.38-.21,.57-.27,.03,0,.07-.02,.1-.03,.07-.02,.13-.04,.2-.04,.49-.12,1.01-.16,1.5-.18,.48-.03,.97-.02,1.46-.02h45.22c.49,0,.98,0,1.47,.02,.41,.01,.85,.05,1.28,.13,.07,.01,.14,.02,.21,.05,.02-.01,.04,0,.05,0t.02,0s.05,.01,.07,.02c.02,0,.04,0,.06,.01h0c.06,.02,.12,.04,.17,.06,.02,0,.03,.01,.05,.02,.16,.05,.31,.12,.45,.22,.06,.05,.12,.11,.18,.17,.09,.1,.15,.2,.2,.3,.04,.11,.06,.22,.08,.35,.01,.12,.02,.24,.02,.36h0v.2Z"/>
      <path class="cls-3" d="M86.16,9.4h0c-.06-.05-.12-.11-.18-.16,.06,.05,.12,.1,.18,.16Z"/>
      <path class="cls-3" d="M85.48,9c-.05-.02-.11-.04-.17-.06,.03,0,.07,.02,.1,.03,.02,.01,.05,.02,.07,.03Z"/>
      <path class="cls-3" d="M85.41,6.94v2.03s-.07-.02-.1-.03h0s-.04-.01-.06-.01c-.02,0-.05-.02-.07-.02t-.02,0s-.03-.02-.05,0h0v-2.75c.2,.21,.31,.49,.31,.79Z"/>
      <path class="cls-3" d="M85.1,6.15v2.74c-.07-.02-.14-.03-.21-.04-.43-.08-.87-.12-1.28-.13-.49-.03-.98-.02-1.47-.02H36.92c-.49,0-.98,0-1.46,.02-.49,.02-1.01,.06-1.5,.18h0v-2.74c.19-.21,.47-.35,.78-.35h49.59c.31,0,.58,.13,.77,.34Z"/>
      <path class="cls-3" d="M85.1,8.89h0c-.07-.02-.14-.03-.21-.04,.07,.01,.14,.02,.21,.04Z"/>
      <path class="cls-3" d="M83.93,22.09c.1-.06,.2-.13,.29-.21-.09,.08-.18,.15-.29,.21Z"/>
      <path class="cls-3" d="M33.96,8.89h0c-.07,.01-.13,.03-.2,.05-.03,0-.07,.02-.1,.03v-2.03c0-.3,.11-.57,.3-.78v2.73Z"/>
      <path class="cls-3" d="M33.09,9.24c-.07,.05-.13,.11-.19,.17h0c.06-.07,.12-.12,.19-.17Z"/>
      <path class="cls-3" d="M29.51,60.57h-.14s-.05,0-.07-.01c.07,.01,.14,.01,.21,.01Z"/>
      <path class="cls-3" d="M29.12,60.53l.18,.03c-.06,0-.12-.01-.18-.03Z"/>
      <path class="cls-3" d="M28.82,60.41s.09,.05,.13,.06c-.04-.01-.09-.03-.13-.06Z"/>
      <path class="cls-3" d="M28.71,60.34s-.05-.03-.07-.05-.05-.04-.07-.07c.04,.04,.09,.08,.14,.12Z"/>
      <path class="cls-3" d="M28.68,0s-.01,0-.01,.01h-.02s0,0,0,0h-.01s-.01,.02-.02,.03c0,0-.01,0-.02,0,0,.01-.01,.02-.01,.02,0,.01,0,.02-.02,.03,0,0,0,.02-.02,.03l-.03,.06s-.02,.05-.03,.08c0,.02,0,.05-.02,.08s-.02,.06-.03,.1c-.01,.03-.01,.06-.02,.1-.01,.07-.02,.15-.03,.22-.01,.04-.01,.08-.01,.12-.01,.04-.01,.08-.01,.11,0,.04-.01,.08-.01,.12v.1h0V14.42h0v.03h0v.04h0v14.27h0v30.95h0c-.47,.01-.94,.01-1.42,.01H7.09C3.18,59.72,0,56.54,0,52.63,0,37.45,0,22.27,0,7.08,0,3.17,3.18,0,7.09,0H28.68Z"/>
      <path class="cls-3" d="M28.49,60.12s.05,.07,.08,.1c-.03-.03-.06-.06-.08-.1Z"/>
      <path class="cls-3" d="M28.44,60.03s.03,.06,.05,.09c-.02-.03-.04-.06-.05-.09Z"/>
    </g>
    <g>
      <line class="cls-2" x1="46.71" y1="23.52" x2="72.36" y2="23.52"/>
      <line class="cls-2" x1="85.1" y1="8.89" x2="85.1" y2="6.15"/>
      <line class="cls-2" x1="33.96" y1="8.89" x2="33.96" y2="6.16"/>
      <line class="cls-2" x1="33.96" y1="6.15" x2="33.96" y2="6.16"/>
      <polyline class="cls-2" points="46.71 8.7 56.7 8.7 59.53 8.7 62.37 8.7 72.36 8.7"/>
      <line class="cls-2" x1="46.71" y1="5.81" x2="72.36" y2="5.81"/>
      <line class="cls-2" x1="46.71" y1="0" x2="72.36" y2="0"/>
      <path class="cls-2" d="M85.41,8.97v-2.03c0-.3-.11-.58-.31-.79"/>
      <path class="cls-2" d="M72.36,5.81h11.97c.31,0,.58,.13,.77,.34"/>
      <path class="cls-2" d="M85.1,8.9c-.07-.03-.14-.04-.21-.05-.43-.08-.87-.12-1.28-.13-.49-.03-.98-.02-1.47-.02h-9.78"/>
      <path class="cls-2" d="M85.48,9c-.05-.02-.11-.04-.17-.06"/>
      <path class="cls-2" d="M86.16,9.41h0c-.06-.07-.12-.12-.18-.17"/>
      <path class="cls-2" d="M72.36,23.52c2.98-.01,6.79-.11,9.73-.79,.07-.02,.15-.03,.22-.05,.03-.01,.07-.02,.1-.03,.02,0,.04-.01,.06-.01,.26-.07,.53-.14,.79-.23,.05-.02,.09-.03,.13-.05,.2-.07,.38-.16,.54-.27,.1-.06,.2-.13,.29-.21"/>
      <path class="cls-2" d="M84.22,21.88c-.09,.08-.18,.15-.29,.21"/>
      <path class="cls-2" d="M84.22,21.88c.1-.08,.19-.17,.27-.27h0c.08-.12,.16-.22,.24-.33,.11-.16,.21-.33,.31-.5,.21-.34,.39-.7,.55-1.06,.32-.72,.59-1.54,.73-2.32,.09-.51,.12-1.02,.12-1.53"/>
      <path class="cls-2" d="M86.44,15.87c.02-.3,.02-.61,.02-.92v-4.52h0c0-.13-.01-.25-.02-.37-.02-.13-.04-.24-.08-.35-.05-.1-.11-.2-.2-.3"/>
      <path class="cls-2" d="M85.98,9.24c.06,.05,.12,.11,.18,.17"/>
      <path class="cls-2" d="M85.98,9.24c-.14-.1-.29-.17-.45-.22-.02,0-.03-.02-.05-.02"/>
      <path class="cls-2" d="M85.31,8.94s.07,.02,.1,.03c.02,.01,.05,.02,.07,.03"/>
      <path class="cls-2" d="M85.31,8.94h0s-.04-.01-.06-.01c-.02,0-.05-.02-.07-.02t-.02,0s-.03-.02-.05,0"/>
      <path class="cls-2" d="M84.89,8.85c.07,.01,.14,.02,.21,.04h0"/>
      <path class="cls-2" d="M89.94,60.53l-.18,.03c-.07,.01-.14,.01-.2,.01"/>
      <path class="cls-2" d="M90.25,60.41s-.09,.04-.14,.06"/>
      <path class="cls-2" d="M90.71,14.58v14.18h0v30.98c0,.05-.01,.1-.02,.14-.01,0-.01,.01-.01,.01l-.03,.09s-.03,.07-.04,.09c-.02,.03-.05,.07-.07,.1v.02c-.05,.03-.08,.06-.11,.09h-.01s0,.02,0,.02c-.01,.01-.03,.03-.05,.04l-.09,.06s-.01,0-.02,.01"/>
      <path class="cls-2" d="M90.11,60.47c.05-.01,.1-.03,.14-.06"/>
      <path class="cls-2" d="M90.11,60.47c-.05,.03-.1,.05-.16,.06h-.01"/>
      <path class="cls-2" d="M89.56,60.57h.13s.05,0,.07-.01c.06,0,.12-.01,.18-.03"/>
      <path class="cls-2" d="M86.46,15.87h2.98s.04,0,.06,0c.03,0,.05-.01,.07-.01,.04,0,.08-.02,.13-.03,.04-.02,.08-.03,.13-.05l.12-.06s.09-.04,.13-.07c.08-.05,.15-.11,.22-.18s.13-.15,.18-.23c.03-.04,.05-.08,.08-.13,.02-.04,.04-.08,.05-.12,.02-.05,.04-.09,.05-.14,0-.02,0-.04,.02-.06,0-.02,.01-.05,.01-.07s.01-.04,.01-.06c0-.03,.01-.05,.01-.07v-.08h0v-.03h0v-.04h0V1.24h0v-.23s-.01-.07-.01-.11-.01-.08-.01-.12c-.01-.07-.02-.15-.03-.22-.01-.04-.02-.07-.03-.1,0-.04-.01-.07-.02-.1s-.02-.06-.03-.08c0-.03-.02-.06-.03-.08l-.03-.06s-.01-.02-.02-.03c0-.01,0-.02,0-.03-.01,0-.01,0-.02-.02,0,0-.01,0-.02,0,0-.01-.01-.02-.01-.02-.01,0-.01-.01-.02-.01,0,0,0,0,0,0h-.02s0-.01-.01-.01h-18.02"/>
      <path class="cls-2" d="M85.94,14.52c0-.16-.01-.33-.02-.5,0-.25-.03-.51-.04-.78-.01-.1-.02-.21-.03-.32,0-.09-.01-.18-.01-.27-.01-.09-.01-.18-.02-.27,0-.07,0-.14-.01-.21,0-.07,0-.13,0-.2v-.14s-.01-.1-.01-.15c-.01-.09-.02-.19-.02-.29-.01-.09-.02-.19-.03-.28-.02-.1-.03-.19-.05-.29-.01-.07-.02-.13-.04-.2,0-.06-.03-.12-.05-.19-.01-.05-.03-.11-.05-.16-.01-.03-.02-.05-.03-.08l-.06-.15c-.02-.05-.04-.09-.07-.14-.02-.03-.04-.07-.06-.11-.02-.03-.05-.06-.07-.09s-.04-.06-.07-.09c-.02-.02-.04-.05-.07-.07-.02-.02-.04-.04-.07-.06l-.02-.02"/>
      <path class="cls-2" d="M33.66,8.97v-2.03c0-.3,.11-.57,.3-.78s.47-.35,.78-.35h11.97"/>
      <path class="cls-2" d="M32.9,9.41h0c.06-.07,.12-.12,.19-.17"/>
      <path class="cls-2" d="M46.71,23.52c-2.98-.01-6.79-.11-9.74-.79-.07-.02-.14-.03-.21-.05-.04-.01-.07-.02-.11-.03-.02,0-.03-.01-.05-.01-.27-.07-.53-.14-.79-.23-.12-.04-.24-.09-.35-.13,0,0,0-.01-.01-.01-.11-.05-.21-.1-.31-.17,0,0-.01,0-.01-.01-.1-.06-.19-.13-.28-.2h-.01c-.09-.09-.18-.18-.26-.28-.09-.11-.17-.22-.24-.33-.11-.16-.22-.33-.32-.5-.2-.34-.38-.7-.55-1.06-.32-.72-.59-1.54-.72-2.32-.09-.51-.13-1.02-.13-1.53h-.01"/>
      <path class="cls-2" d="M32.61,15.87c-.01-.3-.01-.61-.01-.92v-4.52c0-.06,.01-.13,.01-.19,.01-.06,.01-.12,.02-.18,.01-.13,.04-.24,.08-.35,.02-.05,.04-.1,.08-.15h0c.03-.06,.07-.11,.11-.15"/>
      <path class="cls-2" d="M33.09,9.24c-.07,.05-.13,.11-.19,.17"/>
      <path class="cls-2" d="M33.09,9.24c.17-.12,.38-.21,.57-.27"/>
      <path class="cls-2" d="M33.66,8.97s.07-.02,.1-.03c.07-.02,.13-.04,.2-.04"/>
      <path class="cls-2" d="M33.96,8.9c.49-.12,1.01-.16,1.5-.18,.48-.03,.97-.02,1.46-.02h9.79"/>
      <path class="cls-2" d="M46.71,0H29.28"/>
      <path class="cls-2" d="M29.12,60.53l.18,.03c.07,.01,.14,.01,.21,.01,.08,.01,.16,.01,.24,.02,.13,0,.25,.01,.38,.02,1.24,.07,2.47,.14,3.7,.2,1.53,.07,3.06,.14,4.59,.2,.1,0,.19,0,.29,.01,.25,.01,.49,.01,.74,.02,.71,.03,1.42,.04,2.13,.06,.38,.01,.75,.02,1.12,.03,.09,0,.17,0,.25,.01,.19,0,.37,0,.55,.01,.36,0,.72,.01,1.09,.02,.7,.01,1.41,.02,2.12,.03h25.65c.71-.01,1.41-.02,2.12-.03,.36,0,.72-.02,1.08-.02,.19-.01,.37-.01,.55-.01,.09-.01,.17-.01,.25-.01,.38,0,.75-.02,1.12-.03,.71-.02,1.43-.03,2.14-.06,.24-.01,.49-.01,.73-.02,.1-.01,.2-.01,.3-.01,1.53-.06,3.06-.13,4.58-.2,1.24-.06,2.47-.13,3.7-.2,.13-.01,.26-.02,.39-.02,.08,0,.16,0,.24-.02"/>
      <path class="cls-2" d="M28.82,60.41s.09,.05,.13,.06"/>
      <path class="cls-2" d="M28.44,60.03s.03,.06,.05,.09c.02,.04,.05,.07,.08,.1,.02,.03,.05,.05,.07,.07s.04,.04,.07,.05"/>
      <path class="cls-2" d="M28.35,14.55v14.21h0v30.95h0"/>
      <path class="cls-2" d="M28.35,59.72v.02c0,.05,.01,.1,.03,.14,.01,.05,.03,.11,.06,.15"/>
      <path class="cls-2" d="M28.71,60.34c-.05-.04-.1-.08-.14-.12-.03-.03-.05-.07-.08-.1-.02-.03-.04-.06-.05-.09"/>
      <path class="cls-2" d="M28.71,60.34s.05,.04,.08,.06c.01,0,.02,.01,.03,.01"/>
      <path class="cls-2" d="M28.95,60.47s-.09-.03-.13-.06"/>
      <path class="cls-2" d="M28.95,60.47c.06,.03,.11,.04,.17,.06"/>
      <path class="cls-2" d="M29.51,60.57h-.14s-.05,0-.07-.01c-.06,0-.12-.01-.18-.03"/>
      <path class="cls-2" d="M32.61,15.87h-2.99s-.04,0-.06,0-.04-.01-.06-.01c-.05,0-.09-.02-.13-.03-.05-.02-.09-.03-.13-.05s-.09-.04-.13-.06-.08-.04-.12-.07c-.08-.05-.16-.11-.23-.18-.06-.07-.13-.15-.18-.23-.02-.04-.05-.08-.07-.13l-.06-.12c-.02-.05-.03-.09-.04-.14-.01-.02-.02-.04-.02-.06-.01-.02-.01-.05-.01-.07-.01-.02-.01-.04-.02-.06v-.07s0-.02-.01-.03v-.05h0v-.03h0v-.04h0V1.24h0v-.11s.01-.08,.01-.12c0-.03,0-.07,.01-.11,0-.04,0-.08,.01-.12,.01-.07,.02-.15,.03-.22,0-.04,0-.07,.02-.1,.01-.04,.02-.07,.03-.1s.01-.06,.02-.08c.01-.03,.02-.06,.03-.08l.03-.06s.02-.02,.02-.03c.01-.01,.01-.02,.02-.03,0,0,.01,0,.01-.02,.01,0,.02,0,.02,0,.01-.01,.01-.02,.02-.02h.01s0-.02,0-.02h.02s0-.01,.01-.01"/>
      <path class="cls-2" d="M34.03,9.46s-.01,0-.02,.02c-.02,.02-.05,.04-.07,.06l-.07,.07s-.05,.06-.07,.09l-.06,.09s-.05,.08-.07,.11c-.02,.05-.04,.09-.06,.14-.03,.05-.05,.1-.07,.15-.01,.03-.02,.05-.03,.08-.01,.05-.03,.11-.05,.16-.02,.07-.03,.13-.05,.19-.01,.07-.02,.13-.04,.2-.01,.1-.03,.19-.04,.29,0,.09-.02,.19-.03,.28-.01,.1-.02,.2-.02,.29-.01,.05-.01,.1-.01,.15,0,.04-.01,.09-.01,.14,0,.07-.01,.13-.01,.2s0,.14,0,.21c0,.09-.01,.18-.01,.27,0,.09,0,.18-.02,.27-.01,.11-.01,.22-.02,.32-.02,.27-.03,.53-.05,.78-.01,.17-.01,.34-.02,.5"/>
      <path class="cls-2" d="M28.35,59.72H7.09C3.18,59.72,0,56.54,0,52.63,0,37.45,0,22.27,0,7.08,0,3.17,3.18,0,7.09,0H29.28"/>
    </g>
  </g>
  <text class="cls-1" transform="translate(52.78 42.11)"><tspan x="0" y="0">110</tspan></text>
</svg>