<?xml version="1.0" encoding="UTF-8"?>
<svg id="_03_LINEA_FINA" data-name="03_LINEA FINA" xmlns="http://www.w3.org/2000/svg" viewBox="0 0 70.3 61.23">
  <defs>
    <style>
      .cls-1 {
        font-family: Inter18pt-Medium, 'Inter 18pt';
        font-size: 10px;
      }

      .cls-2 {
        fill: none;
        stroke: #404041;
        stroke-linecap: round;
        stroke-linejoin: round;
        stroke-width: .35px;
      }

      .cls-3 {
        fill: #f1f1f2;
      }
    </style>
  </defs>
  <g>
    <g>
      <path class="cls-3" d="M70.3,59.63v.07c0,.05,0,.1,0,.15-.07,.3-.31,.51-.57,.62-.23,.1-.46,.1-.7,.12-.08,0-.15,0-.23,0-.6,.03-1.2,.07-1.81,.1-1.27,.07-2.55,.14-3.82,.19-1.04,.05-2.07,.09-3.1,.13h-.14c-.63,.03-1.26,.04-1.89,.06-.73,.02-1.45,.04-2.18,.06-.1,0-.2,0-.3,.01-.17,0-.35,0-.53,0-.34,0-.69,.01-1.04,.02-3.06,.04-6.13,.05-9.19,.05h-6.24c-2.96,0-5.92-.01-8.89-.06-.35-.01-.69-.01-1.04-.02-.19,0-.39-.01-.58-.01-.8-.02-1.59-.04-2.39-.07-.55-.01-1.11-.03-1.66-.05h-.14c-.09,0-.19,0-.28,0-1.12-.04-2.24-.09-3.36-.14-1.26-.06-2.53-.13-3.79-.2-.32-.02-.63-.03-.95-.05-.16,0-.33-.02-.49-.03h-.11c-.05-.01-.1-.01-.14-.01-.29-.02-.54-.07-.78-.25-.13-.1-.23-.21-.29-.36-.03-.09-.05-.17-.05-.25V18.92c0-.74,.26-1.48,.74-2.05,.49-.57,1.17-.94,1.93-.99h1.59c.01,.31,.02,.61,.05,.91,.04,.42,.11,.82,.22,1.22,.26,1.06,.72,2.13,1.31,3.05,.04,.07,.09,.15,.14,.22,.01,0,.01,.02,.02,.02,.16,.24,.33,.46,.56,.64,.35,.29,.75,.44,1.18,.57l.54,.15s.07,.01,.1,.02c.13,.03,.26,.06,.4,.09,.28,.07,.57,.12,.86,.17,.66,.12,1.32,.21,1.98,.28,2.13,.24,4.26,.3,6.4,.31h.5c1.97,0,3.94,0,5.91,0h7.83c1.98,0,3.95,0,5.92,0h.5c2.13-.01,4.26-.07,6.4-.31,.66-.07,1.32-.16,1.97-.28,.29-.05,.58-.1,.87-.17l.39-.09s.07-.02,.1-.02c.1-.03,.21-.06,.31-.09,.42-.11,.82-.23,1.19-.47,.33-.2,.57-.48,.78-.79,.01,0,.01-.02,.02-.03,.05-.07,.1-.15,.15-.22,.58-.92,1.04-1.99,1.31-3.04,.1-.41,.17-.81,.21-1.23,.03-.3,.04-.6,.05-.91h2.93s.04-.01,.06-.01,.04,0,.07,0c.02,0,.04,0,.06-.01,.04,0,.08,0,.13-.03,.04-.01,.08-.02,.13-.04l.12-.06s.09-.05,.13-.07c.08-.06,.15-.12,.22-.19s.13-.14,.18-.22c.03-.04,.05-.09,.08-.13,.02-.04,.04-.08,.05-.13,.02-.04,.04-.09,.05-.13,0-.02,0-.04,.02-.07,0-.02,0-.04,0-.06s.01-.05,.01-.07,0-.04,0-.06V59.63Z"/>
      <path class="cls-3" d="M70.3,14.56v.03s0,.04,0,.06-.01,.05-.01,.07,0,.04,0,.06c-.01,.03-.01,.05-.02,.07-.01,.04-.03,.09-.05,.13,0,.05-.03,.09-.05,.13-.03,.04-.05,.09-.08,.13-.05,.08-.11,.15-.18,.22s-.14,.13-.22,.19c-.04,.02-.08,.05-.13,.07l-.12,.06c-.05,.02-.09,.03-.13,.04-.05,.02-.09,.03-.13,.03-.02,.01-.04,.01-.06,.01-.03,0-.05,0-.07,0s-.04,.01-.06,.01h-2.93c0-.3,0-.61,0-.92,0-1.48,.01-2.95,0-4.43v-.27c0-.18-.03-.34-.09-.51-.15-.41-.5-.61-.88-.74-.03-.01-.05-.02-.08-.03v-2.03c0-.3-.12-.58-.31-.79s-.46-.34-.77-.34H20c-.31,0-.58,.13-.78,.34-.19,.21-.31,.49-.31,.79v2.03h0s-.05,.02-.07,.03c-.38,.13-.73,.33-.88,.74-.06,.17-.08,.33-.09,.51-.01,.09-.01,.18-.01,.27v4.43c0,.31,0,.62,.01,.92h-1.59c-.76,.05-1.44,.42-1.93,.99-.48,.57-.74,1.31-.74,2.05V1.25h0v-.02h0v-.1s0-.07,.01-.11v-.12s.01-.07,.02-.11c0-.08,.02-.15,.03-.22,0-.04,0-.07,.02-.11l.03-.09s.01-.06,.02-.09,.02-.05,.03-.07c0-.03,.02-.05,.03-.07,.01,0,.02-.02,.02-.03,.01,0,.01-.01,.02-.02,0-.01,.01-.01,.01-.02l.02-.02s.01-.01,.02-.01c0,0,.01,0,.01-.02h0s.01,0,.01,0h.03s.01-.01,.01-.01h56s0,.01,0,.01h.04s.01,.02,.02,.03h.01s.02,.02,.02,.03l.02,.02s0,.02,0,.02c.01,0,.01,.02,.02,.03,.01,.02,.02,.04,.03,.07,.01,.02,.02,.04,.03,.07l.03,.09s.02,.06,.02,.09c.01,.04,.02,.07,.03,.11,0,.07,.02,.14,.03,.22,0,.04,.01,.08,.01,.11,0,.04,0,.08,0,.12v.2h0v.02h0V14.46h0v.02h0v.03h0v.05Z"/>
      <path class="cls-3" d="M66.05,10.53c.01,1.48,0,2.95,0,4.43,0,.31,0,.62,0,.92-.01,.31-.02,.61-.05,.91-.04,.42-.11,.82-.21,1.23-.27,1.05-.73,2.12-1.31,3.04-.05,.07-.1,.15-.15,.22,0,0,0,.02-.02,.03-.21,.31-.45,.59-.78,.79-.37,.24-.77,.36-1.19,.47-.1,.03-.21,.06-.31,.09-.03,0-.07,.01-.1,.02l-.39,.09c-.29,.07-.58,.12-.87,.17-.65,.12-1.31,.21-1.97,.28-2.14,.24-4.27,.3-6.4,.31h-.5c-1.97,0-3.94,0-5.92,0h-7.83c-1.97,0-3.94,0-5.91,0h-.5c-2.14-.01-4.27-.07-6.4-.31-.66-.07-1.32-.16-1.98-.28-.29-.05-.58-.1-.86-.17-.14-.03-.27-.06-.4-.09-.03,0-.06-.02-.1-.02l-.54-.15c-.43-.13-.83-.28-1.18-.57-.23-.18-.4-.4-.56-.64,0,0,0-.01-.02-.02-.05-.07-.1-.15-.14-.22-.59-.92-1.05-1.99-1.31-3.05-.11-.4-.18-.8-.22-1.22-.03-.3-.04-.6-.05-.91-.01-.3-.01-.61-.01-.92v-4.43c0-.09,0-.18,.01-.27,.01-.18,.03-.34,.09-.51,.15-.41,.5-.61,.88-.74,.02-.01,.05-.02,.07-.02,.1-.04,.21-.07,.31-.09,.2-.05,.39-.08,.6-.11,.47-.06,.94-.08,1.42-.08,.52-.01,1.03,0,1.54,0H61.13c.52,0,1.03-.01,1.54,0,.48,0,.96,.02,1.43,.08,.2,.03,.4,.06,.59,.1h0c.11,.03,.21,.06,.31,.09,.03,0,.05,.02,.08,.03,.38,.13,.73,.33,.88,.74,.06,.17,.08,.33,.09,.51v.27Z"/>
      <path class="cls-3" d="M65,6.95v2.03c-.1-.03-.2-.06-.31-.08h0v-2.74c.19,.21,.31,.49,.31,.79Z"/>
      <path class="cls-3" d="M64.69,6.16v2.73c-.19-.04-.39-.07-.59-.1-.47-.06-.95-.08-1.43-.08-.51-.01-1.02,0-1.54,0H22.78c-.51,0-1.02-.01-1.54,0-.48,0-.95,.02-1.42,.08-.21,.03-.4,.06-.6,.11v-2.74c.2-.21,.47-.34,.78-.34H63.92c.31,0,.58,.13,.77,.34Z"/>
      <path class="cls-3" d="M19.22,6.16v2.74c-.1,.02-.21,.05-.31,.09h0v-2.04c0-.3,.12-.58,.31-.79Z"/>
      <path class="cls-3" d="M13.95,0h0s0,.01,0,.01h-.02s-.01,0-.01,0h0s-.01,.01-.01,.02c0,0,0,.01-.02,.01l-.02,.02s-.01,0-.01,.02c0,0,0,.02-.02,.02,0,0,0,.02-.02,.03,0,.02-.02,.04-.03,.07-.01,.02-.02,.04-.03,.07s-.02,.06-.02,.09l-.03,.09s-.01,.07-.02,.11c-.01,.07-.03,.14-.03,.22,0,.04,0,.08-.02,.11v.12s-.01,.08-.01,.11v.09h0v.02h0V58.3c0,.79-.63,1.42-1.42,1.42H7.09C3.18,59.72,0,56.55,0,52.64,0,37.45,0,22.27,0,7.09,0,3.18,3.18,0,7.09,0h6.86Z"/>
      <path class="cls-3" d="M13.61,59.46v.26h-1.42c.79,0,1.42-.63,1.42-1.42v1.16Z"/>
    </g>
    <g>
      <path class="cls-2" d="M17.87,15.88h-1.59c-.76,.05-1.44,.42-1.93,.99-.48,.57-.74,1.31-.74,2.05"/>
      <path class="cls-2" d="M13.61,58.3c0,.79-.63,1.42-1.42,1.42H7.09C3.18,59.72,0,56.55,0,52.64,0,37.45,0,22.27,0,7.09,0,3.18,3.18,0,7.09,0h6.86"/>
      <path class="cls-2" d="M39.12,61.23h5.67c3.06,0,6.13-.01,9.19-.05,.35,0,.7-.02,1.04-.02,.18,0,.36,0,.53,0,.1-.01,.2-.01,.3-.01,.73-.02,1.45-.04,2.18-.06,.63-.02,1.26-.03,1.89-.06h.14c1.03-.04,2.06-.08,3.1-.13,1.27-.05,2.55-.12,3.82-.19,.61-.03,1.21-.07,1.81-.1,.08,0,.15,0,.23,0,.24-.02,.47-.02,.7-.12,.26-.11,.5-.32,.57-.62,0-.05,0-.1,0-.15V14.59"/>
      <path class="cls-2" d="M39.12,61.23h-.57c-2.96,0-5.92-.01-8.89-.06-.35-.01-.69-.01-1.04-.02-.19,0-.39-.01-.58-.01-.8-.02-1.59-.04-2.39-.07-.55-.01-1.11-.03-1.66-.05h-.14c-.09,0-.19,0-.28,0-1.12-.04-2.24-.09-3.36-.14-1.26-.06-2.53-.13-3.79-.2-.32-.02-.63-.03-.95-.05-.16,0-.33-.02-.49-.03h-.11c-.05-.01-.1-.01-.14-.01-.29-.02-.54-.07-.78-.25-.13-.1-.23-.21-.29-.36-.03-.09-.05-.17-.05-.25V1.25h0v-.02h0v-.1s0-.07,.01-.11v-.12s.01-.07,.02-.11c0-.08,.02-.15,.03-.22,0-.04,0-.07,.02-.11l.03-.09s.01-.06,.02-.09,.02-.05,.03-.07c0-.03,.02-.05,.03-.07,.01,0,.02-.02,.02-.03,.01,0,.01-.01,.02-.02,0-.01,.01-.01,.01-.02l.02-.02s.01-.01,.02-.01c0,0,.01,0,.01-.02h0s.01,0,.01,0h.03s.01-.01,.01-.01h56s0,.01,0,.01h.04s.01,.02,.02,.03h.01s.02,.02,.02,.03l.02,.02s0,.02,0,.02c.01,0,.01,.02,.02,.03,.01,.02,.02,.04,.03,.07,.01,.02,.02,.04,.03,.07l.03,.09s.02,.06,.02,.09c.01,.04,.02,.07,.03,.11,0,.07,.02,.14,.03,.22,0,.04,.01,.08,.01,.11,0,.04,0,.08,0,.12v.2h0v.02h0v3.35"/>
      <path class="cls-2" d="M64.69,8.9c.11,.02,.21,.05,.31,.08,.03,0,.05,.02,.08,.03,.38,.13,.73,.33,.88,.74,.06,.17,.08,.33,.09,.51v.27c.01,1.48,0,2.95,0,4.43,0,.31,0,.62,0,.92-.01,.31-.02,.61-.05,.91-.04,.42-.11,.82-.21,1.23-.27,1.05-.73,2.12-1.31,3.04-.05,.07-.1,.15-.15,.22,0,0,0,.02-.02,.03-.21,.31-.45,.59-.78,.79-.37,.24-.77,.36-1.19,.47-.1,.03-.21,.06-.31,.09-.03,0-.07,.01-.1,.02l-.39,.09c-.29,.07-.58,.12-.87,.17-.65,.12-1.31,.21-1.97,.28-2.14,.24-4.27,.3-6.4,.31h-.5c-1.97,0-3.94,0-5.92,0h-7.83c-1.97,0-3.94,0-5.91,0h-.5c-2.14-.01-4.27-.07-6.4-.31-.66-.07-1.32-.16-1.98-.28-.29-.05-.58-.1-.86-.17-.14-.03-.27-.06-.4-.09-.03,0-.06-.02-.1-.02l-.54-.15c-.43-.13-.83-.28-1.18-.57-.23-.18-.4-.4-.56-.64,0,0,0-.01-.02-.02-.05-.07-.1-.15-.14-.22-.59-.92-1.05-1.99-1.31-3.05-.11-.4-.18-.8-.22-1.22-.03-.3-.04-.6-.05-.91-.01-.3-.01-.61-.01-.92v-4.43c0-.09,0-.18,.01-.27,.01-.18,.03-.34,.09-.51,.15-.41,.5-.61,.88-.74,.02-.01,.05-.02,.07-.02,.1-.04,.21-.07,.31-.09,.2-.05,.39-.08,.6-.11,.47-.06,.94-.08,1.42-.08,.52-.01,1.03,0,1.54,0H61.13c.52,0,1.03-.01,1.54,0,.48,0,.96,.02,1.43,.08,.2,.03,.4,.06,.59,.1"/>
      <path class="cls-2" d="M70.3,4.59V14.46h0v.02h0v.03h0v.08s0,.04,0,.06-.01,.05-.01,.07,0,.04,0,.06c-.01,.03-.01,.05-.02,.07-.01,.04-.03,.09-.05,.13,0,.05-.03,.09-.05,.13-.03,.04-.05,.09-.08,.13-.05,.08-.11,.15-.18,.22s-.14,.13-.22,.19c-.04,.02-.08,.05-.13,.07l-.12,.06c-.05,.02-.09,.03-.13,.04-.05,.02-.09,.03-.13,.03-.02,.01-.04,.01-.06,.01-.03,0-.05,0-.07,0s-.04,.01-.06,.01h-2.92"/>
      <polyline class="cls-2" points="64.69 6.16 64.69 8.89 64.69 8.9"/>
      <line class="cls-2" x1="19.22" y1="6.16" x2="19.22" y2="8.9"/>
      <path class="cls-2" d="M65,8.98v-2.03c0-.3-.12-.58-.31-.79s-.46-.34-.77-.34H20c-.31,0-.58,.13-.78,.34-.19,.21-.31,.49-.31,.79v2.03"/>
      <path class="cls-2" d="M19.29,9.47s-.01,.01-.02,.01c-.02,.02-.05,.04-.07,.07-.02,.02-.05,.04-.07,.07s-.05,.05-.07,.08-.04,.07-.06,.1c-.03,.03-.05,.07-.07,.11s-.04,.09-.07,.13l-.06,.15-.03,.09s-.03,.1-.05,.16-.03,.12-.05,.19c-.01,.06-.03,.13-.04,.2-.01,.09-.03,.19-.04,.28,0,.1-.02,.2-.03,.29-.01,.1-.02,.19-.02,.29-.01,.05-.01,.09-.01,.14s0,.1,0,.14c0,.07-.01,.14-.01,.21s0,.14,0,.21c0,.09-.01,.18-.01,.27,0,.09,0,.18-.02,.26,0,.11,0,.22-.02,.33-.02,.27-.03,.52-.05,.77-.01,.17-.01,.34-.02,.51"/>
      <path class="cls-2" d="M64.62,9.47s.02,.01,.02,.01c.03,.02,.05,.04,.07,.07,.03,.02,.05,.04,.07,.07,.03,.03,.05,.05,.07,.08,.03,.03,.05,.07,.07,.1s.04,.07,.06,.11c.03,.04,.05,.09,.07,.13l.06,.15,.03,.09s.04,.1,.05,.16c.02,.06,.04,.12,.05,.19,.02,.06,.03,.13,.04,.2,.02,.09,.03,.19,.05,.28,0,.1,.02,.2,.03,.29,0,.1,.01,.19,.02,.29,0,.05,0,.09,0,.14v.14c.01,.07,.01,.14,.01,.21,0,.07,0,.14,0,.21,.01,.09,.01,.18,.02,.27,0,.09,.01,.18,.01,.26l.03,.33c.01,.27,.03,.52,.04,.77l.03,.51"/>
      <line class="cls-2" x1="12.19" y1="59.72" x2="13.61" y2="59.72"/>
    </g>
  </g>
  <text class="cls-1" transform="translate(31.72 42.11)"><tspan x="0" y="0">100</tspan></text>
</svg>