<?xml version="1.0" encoding="UTF-8"?>
<svg id="_03_LINEA_FINA" data-name="03_LINEA FINA" xmlns="http://www.w3.org/2000/svg" viewBox="0 0 85.04 61.23">
  <defs>
    <style>
      .cls-1 {
        font-family: Inter18pt-Medium, 'Inter 18pt';
        font-size: 10px;
      }

      .cls-2 {
        fill: none;
        stroke: #404041;
        stroke-linecap: round;
        stroke-linejoin: round;
        stroke-width: .35px;
      }

      .cls-3 {
        fill: #f1f1f2;
      }
    </style>
  </defs>
  <g>
    <g>
      <path class="cls-3" d="M85.04,7.08V52.63c0,3.91-3.17,7.09-7.09,7.09h-21.26V28.77h0V1.24h0v-.23s-.01-.07-.01-.11-.01-.08-.01-.12c-.01-.07-.02-.15-.04-.22,0-.04-.01-.07-.02-.1,0-.04,0-.07-.02-.1s-.02-.06-.03-.08c-.01-.03-.02-.06-.03-.08l-.03-.06s-.01-.02-.02-.03c0-.01-.01-.02-.01-.03-.01,0-.01,0-.02-.02,0,0,0,0-.02,0,0-.01-.01-.02-.01-.02-.01,0-.01-.01-.02-.01h0s0,0-.01,0h-.01c7.2-.01,14.39-.01,21.58-.01,3.92,0,7.09,3.17,7.09,7.08Z"/>
      <path class="cls-3" d="M56.69,59.72v.02s0,.02-.01,.03c0,.05-.01,.1-.03,.15,0,.05-.04,.1-.07,.15,0,.01-.01,.02-.01,.03-.03,.04-.07,.08-.1,.12-.04,.04-.09,.08-.14,.12-.03,.03-.07,.05-.11,.07-.04,.03-.09,.05-.13,.06-.05,.03-.1,.05-.16,.06h-.01l-.18,.03c-.07,.01-.14,.01-.2,.01-.08,.01-.16,.01-.24,.02-.13,0-.26,.01-.39,.02-1.23,.07-2.46,.14-3.7,.2-1.53,.07-3.05,.14-4.58,.2-.1,0-.2,0-.3,.01-.24,.01-.49,.01-.73,.02-.72,.03-1.43,.04-2.14,.06-.37,.01-.74,.02-1.12,.03-.08,0-.17,0-.25,.01-.18,0-.37,0-.55,.01-.36,0-.72,.01-1.08,.02-.71,.01-1.42,.02-2.12,.03H18.35c-.7-.01-1.41-.02-2.12-.03-.36,0-.72-.02-1.08-.02-.18-.01-.37-.01-.55-.01-.08-.01-.17-.01-.25-.01-.37,0-.75-.02-1.12-.03-.71-.02-1.42-.03-2.13-.06-.25-.01-.5-.01-.74-.02-.1-.01-.2-.01-.29-.01-1.53-.06-3.06-.13-4.59-.2-1.23-.06-2.47-.13-3.7-.2-.13-.01-.26-.02-.38-.02-.08,0-.16,0-.24-.02-.07,0-.14,0-.21-.01l-.18-.03c-.06-.02-.11-.03-.17-.06-.04-.01-.09-.03-.13-.06-.01,0-.02-.01-.03-.01-.03-.02-.05-.04-.08-.06-.05-.04-.1-.08-.14-.12-.03-.03-.05-.07-.08-.1-.02-.03-.04-.06-.05-.09-.03-.04-.05-.1-.06-.15-.02-.04-.03-.09-.03-.14V28.77H0V14.55s0,.02,.01,.03v.07s.01,.04,.01,.06c0,.02,0,.05,.02,.07,0,.02,.01,.04,.01,.06,.02,.05,.03,.09,.05,.14l.06,.12c.02,.05,.04,.09,.07,.13,.05,.08,.11,.16,.18,.23s.15,.13,.23,.18c.04,.03,.08,.05,.12,.07s.08,.04,.13,.06c.04,.02,.08,.03,.13,.05l.12,.03s.05,.01,.07,.01,.04,0,.06,0h3c0,.51,.03,1.02,.12,1.53,.14,.78,.41,1.6,.73,2.32,.16,.36,.35,.72,.55,1.06,.1,.17,.2,.34,.31,.5,.08,.11,.16,.22,.25,.33,.08,.1,.17,.19,.26,.27h.01c.09,.08,.18,.15,.28,.21,0,.01,.01,.01,.01,.01,.1,.07,.2,.12,.31,.17,0,0,0,.01,0,.01,.11,.04,.23,.09,.35,.13,.26,.09,.52,.16,.79,.23,.01,0,.03,.01,.05,.01,.03,.01,.07,.02,.1,.03,.08,.02,.15,.03,.22,.05,2.95,.68,6.76,.78,9.73,.79h19.99c2.98-.01,6.78-.11,9.73-.79,.07-.02,.15-.03,.22-.05,.03-.01,.07-.02,.1-.03,.02,0,.04-.01,.06-.01,.26-.07,.53-.14,.79-.23,.05-.02,.09-.03,.13-.05,.32-.12,.59-.27,.83-.48,.1-.09,.19-.18,.27-.28,.09-.11,.16-.21,.24-.32,.11-.16,.21-.33,.31-.5,.2-.34,.39-.7,.55-1.06,.32-.72,.59-1.54,.73-2.32,.09-.51,.12-1.02,.12-1.53h3s.04,0,.06,0,.05-.01,.07-.01c.04,0,.08-.02,.13-.03,.04-.02,.08-.03,.13-.05l.12-.06s.09-.04,.13-.07c.07-.05,.15-.11,.22-.18s.13-.15,.18-.23c.03-.04,.05-.08,.07-.13,.03-.04,.05-.08,.06-.12,.02-.05,.04-.09,.05-.14,0-.02,0-.04,0-.06,.01-.02,.01-.05,.02-.07,0-.02,.01-.04,.01-.06,0-.03,0-.05,.01-.07v14.18h0v30.95h0Z"/>
      <path class="cls-3" d="M56.69,12.19v2.39s-.01,.04-.01,.07c0,.02-.01,.04-.01,.06-.01,.02-.01,.05-.02,.07,0,.02,0,.04,0,.06-.01,.05-.03,.09-.05,.14-.01,.04-.03,.08-.06,.12-.02,.05-.04,.09-.07,.13-.05,.08-.11,.16-.18,.23s-.15,.13-.22,.18c-.04,.03-.09,.05-.13,.07l-.12,.06c-.05,.02-.09,.03-.13,.05-.05,0-.09,.02-.13,.03-.02,0-.05,.01-.07,.01s-.04,0-.06,0h-3c.02-.3,.02-.61,.02-.92v-4.52h0c0-.13-.01-.25-.02-.37-.01-.13-.04-.24-.08-.35-.05-.1-.11-.2-.2-.3h0s-.06-.07-.1-.09l-.08-.08h-.01c-.07-.05-.14-.09-.21-.13-.11-.05-.23-.1-.35-.13h0v-2.04c0-.3-.12-.58-.31-.79s-.47-.34-.78-.34H6.39c-.31,0-.58,.13-.78,.34-.19,.21-.31,.49-.31,.79v2.03h0c-.2,.07-.39,.15-.56,.27-.07,.05-.13,.1-.19,.16h0s-.08,.1-.11,.15c-.01,0,0,0,0,0-.04,.05-.06,.1-.08,.15-.05,.11-.07,.22-.09,.35-.01,.12-.02,.24-.02,.37v4.52c0,.31,0,.62,.01,.92H1.27s-.04,0-.06,0-.04-.01-.07-.01l-.12-.03c-.05-.02-.09-.03-.13-.05-.05-.02-.09-.04-.13-.06s-.08-.04-.12-.07c-.08-.05-.16-.11-.23-.18s-.13-.15-.18-.23c-.03-.04-.05-.08-.07-.13l-.06-.12c-.02-.05-.03-.09-.05-.14,0-.02-.01-.04-.01-.06-.01-.02-.01-.05-.02-.07,0-.02,0-.04-.01-.06v-.07s-.01-.02-.01-.03V1.24H0v-.11S0,1.05,.01,1.01v-.11s.01-.08,.01-.12c0-.07,.02-.15,.04-.22,0-.04,0-.07,.02-.1,.01-.04,.02-.07,.02-.1,0-.03,.02-.06,.03-.08,.01-.03,.02-.06,.03-.08l.03-.06s0-.02,.02-.03c0-.01,.01-.02,.02-.03,0,0,0,0,0-.02,.01,0,.01,0,.02,0,0-.01,.01-.02,.02-.02h.01s.01-.02,.01-.02h.02S.32,0,.33,0H56.39s0,.02,0,.02c.01,0,.01,.01,.02,.01,0,0,.01,0,.01,.02,.01,0,.01,0,.02,0,.01,.01,.01,.02,.02,.02,0,.01,.01,.02,.01,.03,0,0,0,.02,.02,.03l.03,.06s.02,.05,.03,.08c0,.02,.02,.05,.03,.08s.01,.06,.02,.1c.01,.03,.02,.06,.02,.1,.02,.07,.03,.15,.04,.22,0,.04,.01,.08,.01,.12s0,.08,.01,.11v.22h0V12.19Z"/>
      <path class="cls-3" d="M56.65,59.92s.03-.1,.03-.15c0,.06-.01,.11-.03,.15Z"/>
      <path class="cls-3" d="M56.58,60.07c.03-.05,.06-.1,.07-.15,0,.06-.04,.11-.07,.15Z"/>
      <path class="cls-3" d="M56.47,60.22s.07-.08,.1-.12c-.03,.05-.06,.08-.1,.12Z"/>
      <path class="cls-3" d="M56.47,60.22s-.04,.05-.07,.07c-.02,.02-.04,.04-.07,.05,.05-.04,.1-.08,.14-.12Z"/>
      <path class="cls-3" d="M56.09,60.47s.09-.03,.13-.06c-.04,.03-.09,.05-.13,.06Z"/>
      <path class="cls-3" d="M55.74,60.56l.18-.03c-.06,.02-.12,.03-.18,.03Z"/>
      <path class="cls-3" d="M55.74,60.56s-.05,.01-.07,.01h-.13c.06,0,.13,0,.2-.01Z"/>
      <path class="cls-3" d="M52.44,10.62v4.33c0,.31,0,.62-.02,.92,0,.51-.03,1.02-.12,1.53-.14,.78-.41,1.6-.73,2.32-.16,.36-.35,.72-.55,1.06-.1,.17-.2,.34-.31,.5-.08,.11-.15,.21-.24,.32-.08,.1-.17,.19-.27,.28-.24,.21-.51,.36-.83,.48-.04,.02-.08,.03-.13,.05-.26,.09-.53,.16-.79,.23-.02,0-.04,.01-.06,.01-.03,.01-.07,.02-.1,.03-.07,.02-.15,.03-.22,.05-2.95,.68-6.75,.78-9.73,.79H18.35c-2.97-.01-6.78-.11-9.73-.79-.07-.02-.14-.03-.22-.05-.03-.01-.07-.02-.1-.03-.02,0-.04-.01-.05-.01-.27-.07-.53-.14-.79-.23-.12-.04-.24-.09-.35-.13,0,0,0-.01,0-.01-.11-.05-.21-.1-.31-.17,0,0-.01,0-.01-.01-.1-.06-.19-.13-.28-.2h-.01c-.09-.09-.18-.18-.26-.28-.09-.11-.17-.22-.25-.33-.11-.16-.21-.33-.31-.5-.2-.34-.39-.7-.55-1.06-.32-.72-.59-1.54-.73-2.32-.09-.51-.12-1.02-.12-1.53h-.01c-.01-.3-.01-.61-.01-.92v-4.52c0-.13,.01-.25,.02-.37,.02-.13,.04-.24,.09-.35,.02-.05,.04-.1,.08-.15,0,0-.01,0,0,0,.03-.05,.07-.1,.11-.14,.06-.06,.12-.12,.19-.17,.17-.12,.36-.2,.56-.26,.04-.02,.07-.03,.11-.04,.07-.02,.13-.04,.2-.04,.49-.12,1.01-.16,1.49-.18,.49-.03,.98-.02,1.47-.02H48.12c.49,0,.98,0,1.47,.02,.48,.02,1,.06,1.49,.18,.07,0,.13,.02,.2,.04,.03,0,.07,.02,.1,.04h.01c.12,.03,.24,.08,.35,.13,.07,.04,.14,.08,.21,.13h.01l.08,.08s.07,.06,.1,.09c.09,.1,.15,.2,.2,.3,.04,.11,.07,.22,.08,.35,.01,.12,.02,.24,.02,.36h0v.2Z"/>
      <path class="cls-3" d="M52.14,9.4h0s-.06-.06-.1-.08c.04,.02,.07,.05,.1,.08Z"/>
      <path class="cls-3" d="M51.39,8.97h0s-.01,.01-.01,.01c-.03-.02-.07-.03-.1-.04-.07-.02-.13-.04-.2-.04h0v-2.75c.19,.21,.31,.49,.31,.79v2.03Z"/>
      <path class="cls-3" d="M51.08,8.89h0c-.49-.11-1.01-.15-1.49-.17-.49-.03-.98-.02-1.47-.02H8.57c-.49,0-.98,0-1.47,.02-.48,.02-1,.06-1.49,.18h0v-2.75c.2-.21,.47-.34,.78-.34H50.3c.31,0,.59,.13,.78,.34v2.74Z"/>
      <path class="cls-3" d="M5.61,8.89h0c-.07,.01-.13,.03-.2,.05-.04,0-.07,.02-.11,.04h0v-2.04c0-.3,.12-.58,.31-.79v2.74Z"/>
      <path class="cls-3" d="M4.74,9.24c-.07,.05-.13,.11-.19,.17h0c.06-.07,.12-.12,.19-.17Z"/>
      <path class="cls-3" d="M1.16,60.57h-.14s-.05,0-.07-.01c.07,.01,.14,.01,.21,.01Z"/>
      <path class="cls-3" d="M.77,60.53l.18,.03c-.06,0-.12-.01-.18-.03Z"/>
      <path class="cls-3" d="M.47,60.41s.09,.05,.13,.06c-.04-.01-.09-.03-.13-.06Z"/>
      <path class="cls-3" d="M.36,60.34s-.05-.03-.07-.05-.05-.04-.07-.07c.04,.04,.09,.08,.14,.12Z"/>
      <path class="cls-3" d="M.14,60.12s.05,.07,.08,.1c-.03-.03-.06-.06-.08-.1Z"/>
      <path class="cls-3" d="M.09,60.03s.03,.06,.05,.09c-.02-.03-.04-.06-.05-.09Z"/>
    </g>
    <g>
      <polyline class="cls-2" points="18.35 23.52 28.35 23.52 38.34 23.52"/>
      <polyline class="cls-2" points="18.35 0 28.35 0 38.34 0"/>
      <polyline class="cls-2" points="18.35 5.81 28.35 5.81 38.34 5.81"/>
      <path class="cls-2" d="M5.68,9.46s-.01,0-.02,.02c-.02,.02-.05,.04-.07,.06-.03,.02-.05,.05-.07,.07-.02,.03-.05,.06-.07,.09l-.06,.09s-.05,.08-.07,.11c-.02,.05-.05,.09-.07,.14l-.06,.15s-.02,.05-.03,.08c-.02,.05-.03,.11-.05,.16-.02,.07-.03,.13-.05,.19-.01,.07-.03,.13-.04,.2-.02,.1-.03,.19-.04,.29-.01,.09-.02,.19-.03,.28,0,.1-.02,.2-.02,.29-.01,.05-.01,.1-.01,.15-.01,.04-.01,.09-.01,.14,0,.07-.01,.13-.01,.2s0,.14,0,.21c-.01,.09-.01,.18-.02,.27,0,.09-.01,.18-.01,.27,0,.11-.02,.22-.02,.32-.02,.27-.04,.53-.05,.78-.01,.17-.02,.34-.02,.5"/>
      <line class="cls-2" x1="5.61" y1="8.89" x2="5.61" y2="6.15"/>
      <path class="cls-2" d="M4.26,15.87H1.27s-.04,0-.06,0-.04-.01-.07-.01l-.12-.03c-.05-.02-.09-.03-.13-.05-.05-.02-.09-.04-.13-.06s-.08-.04-.12-.07c-.08-.05-.16-.11-.23-.18s-.13-.15-.18-.23c-.03-.04-.05-.08-.07-.13l-.06-.12c-.02-.05-.03-.09-.05-.14,0-.02-.01-.04-.01-.06-.01-.02-.01-.05-.02-.07,0-.02,0-.04-.01-.06v-.07s-.01-.02-.01-.03"/>
      <path class="cls-2" d="M5.3,8.97v-2.03c0-.3,.12-.58,.31-.79,.2-.21,.47-.34,.78-.34h11.96"/>
      <path class="cls-2" d="M51.92,14.52c0-.16-.01-.33-.02-.5,0-.25-.03-.51-.05-.78,0-.1-.01-.21-.02-.32,0-.09-.01-.18-.01-.27,0-.09,0-.18-.02-.27,0-.07,0-.14-.01-.21,0-.07,0-.13-.01-.2,0-.05,0-.1,0-.14v-.15c-.01-.09-.02-.19-.03-.29,0-.09,0-.19-.03-.28-.01-.1-.02-.19-.04-.29-.01-.07-.03-.13-.04-.2-.02-.06-.03-.12-.05-.19-.01-.05-.03-.11-.05-.16,0-.03-.02-.05-.03-.08l-.06-.15c-.02-.05-.04-.09-.07-.14-.02-.03-.04-.07-.06-.11-.02-.03-.05-.06-.07-.09s-.04-.06-.07-.09c-.02-.02-.04-.05-.07-.07-.02-.02-.04-.04-.07-.06l-.02-.02"/>
      <line class="cls-2" x1="51.08" y1="8.89" x2="51.08" y2="6.15"/>
      <path class="cls-2" d="M52.44,15.87h2.98s.04,0,.06,0,.05-.01,.07-.01c.04,0,.08-.02,.13-.03,.04-.02,.08-.03,.13-.05l.12-.06s.09-.04,.13-.07c.07-.05,.15-.11,.22-.18s.13-.15,.18-.23c.03-.04,.05-.08,.07-.13,.03-.04,.05-.08,.06-.12,.02-.05,.04-.09,.05-.14,0-.02,0-.04,0-.06,.01-.02,.01-.05,.02-.07,0-.02,.01-.04,.01-.06,0-.03,0-.05,.01-.07"/>
      <path class="cls-2" d="M38.34,0h17.42"/>
      <path class="cls-2" d="M38.34,5.81h11.96c.31,0,.59,.13,.78,.34s.31,.49,.31,.79v2.03"/>
      <path class="cls-2" d="M.77,60.53l.18,.03c.07,.01,.14,.01,.21,.01"/>
      <path class="cls-2" d="M.47,60.41s.09,.05,.13,.06"/>
      <path class="cls-2" d="M.09,60.03s.03,.06,.05,.09c.02,.04,.05,.07,.08,.1,.02,.03,.05,.05,.07,.07s.04,.04,.07,.05"/>
      <path class="cls-2" d="M18.35,0H.33s-.01,0-.01,.01h-.03s-.01,.02-.01,.02c0,0-.02,0-.02,.02-.01,0-.01,0-.02,0,0,.01,0,.02,0,.02-.01,.01-.02,.02-.02,.03-.01,0-.01,.02-.02,.03l-.03,.06s-.02,.05-.03,.08c-.01,.02-.02,.05-.03,.08,0,.03-.01,.06-.02,.1-.01,.03-.02,.06-.02,.1-.02,.07-.03,.15-.04,.22C.02,.82,.02,.86,.01,.9v.11S0,1.09,0,1.13v.1H0V14.55"/>
      <path class="cls-2" d="M0,14.55v14.21H0v30.98c0,.05,.01,.1,.03,.14,.01,.05,.03,.11,.06,.15"/>
      <path class="cls-2" d="M.36,60.34s-.1-.08-.14-.12c-.03-.03-.05-.07-.08-.1-.02-.03-.04-.06-.05-.09"/>
      <path class="cls-2" d="M.36,60.34s.05,.04,.08,.06c0,0,.02,.01,.03,.01"/>
      <path class="cls-2" d="M.6,60.47s-.09-.03-.13-.06"/>
      <path class="cls-2" d="M.6,60.47c.06,.03,.11,.04,.17,.06"/>
      <path class="cls-2" d="M1.16,60.57h-.14s-.05,0-.07-.01c-.06,0-.12-.01-.18-.03"/>
      <path class="cls-2" d="M1.16,60.57c.08,.01,.16,.01,.24,.02,.12,0,.25,.01,.38,.02,1.23,.07,2.47,.14,3.7,.2,1.53,.07,3.06,.14,4.59,.2,.09,0,.19,0,.29,.01,.24,.01,.49,.01,.74,.02,.71,.03,1.42,.04,2.13,.06,.37,.01,.75,.02,1.12,.03,.08,0,.17,0,.25,.01,.18,0,.37,0,.55,.01,.36,0,.72,.01,1.08,.02,.71,.01,1.42,.02,2.12,.03"/>
      <path class="cls-2" d="M38.34,61.2H18.35"/>
      <path class="cls-2" d="M55.92,60.53l-.18,.03c-.07,.01-.14,.01-.2,.01"/>
      <path class="cls-2" d="M56.22,60.41s-.09,.05-.13,.06"/>
      <path class="cls-2" d="M56.57,60.1c-.03,.05-.06,.08-.1,.12-.02,.03-.04,.05-.07,.07-.02,.02-.04,.04-.07,.05"/>
      <path class="cls-2" d="M56.68,59.77c0,.06-.01,.11-.03,.15,0,.06-.04,.11-.07,.15"/>
      <path class="cls-2" d="M56.37,0h.02s0,.02,0,.02c.01,0,.01,.01,.02,.01,0,0,.01,0,.01,.02,.01,0,.01,0,.02,0,.01,.01,.01,.02,.02,.02,0,.01,.01,.02,.01,.03,0,0,0,.02,.02,.03l.03,.06s.02,.05,.03,.08c0,.02,.02,.05,.03,.08s.01,.06,.02,.1c.01,.03,.02,.06,.02,.1,.02,.07,.03,.15,.04,.22,0,.04,.01,.08,.01,.12s0,.08,.01,.11v.22h0V14.58"/>
      <path class="cls-2" d="M56.69,14.58v14.18h0v30.95h0"/>
      <path class="cls-2" d="M56.69,59.72v.02s0,.02-.01,.03"/>
      <path class="cls-2" d="M56.58,60.07c.03-.05,.06-.1,.07-.15,.02-.05,.03-.1,.03-.15"/>
      <path class="cls-2" d="M56.58,60.07s-.01,.02-.01,.03"/>
      <path class="cls-2" d="M56.33,60.34c.05-.04,.1-.08,.14-.12,.03-.04,.07-.08,.1-.12"/>
      <path class="cls-2" d="M56.33,60.34s-.07,.05-.11,.07"/>
      <path class="cls-2" d="M56.09,60.47s.09-.03,.13-.06"/>
      <path class="cls-2" d="M56.09,60.47c-.05,.03-.1,.05-.16,.06h-.01"/>
      <path class="cls-2" d="M55.54,60.57h.13s.05,0,.07-.01c.06,0,.12-.01,.18-.03"/>
      <path class="cls-2" d="M55.54,60.57c-.08,.01-.16,.01-.24,.02-.13,0-.26,.01-.39,.02-1.23,.07-2.46,.14-3.7,.2-1.53,.07-3.05,.14-4.58,.2-.1,0-.2,0-.3,.01-.24,.01-.49,.01-.73,.02-.72,.03-1.43,.04-2.14,.06-.37,.01-.74,.02-1.12,.03-.08,0-.17,0-.25,.01-.18,0-.37,0-.55,.01-.36,0-.72,.01-1.08,.02-.71,.01-1.42,.02-2.12,.03"/>
      <path class="cls-2" d="M4.55,9.41h0c.06-.07,.12-.12,.19-.17"/>
      <path class="cls-2" d="M18.35,23.52c-2.97-.01-6.78-.11-9.73-.79-.07-.02-.14-.03-.22-.05-.03-.01-.07-.02-.1-.03-.02,0-.04-.01-.05-.01-.27-.07-.53-.14-.79-.23-.12-.04-.24-.09-.35-.13,0,0,0-.01,0-.01-.11-.05-.21-.1-.31-.17,0,0-.01,0-.01-.01-.1-.06-.19-.13-.28-.2h-.01c-.09-.09-.18-.18-.26-.28-.09-.11-.17-.22-.25-.33-.11-.16-.21-.33-.31-.5-.2-.34-.39-.7-.55-1.06-.32-.72-.59-1.54-.73-2.32-.09-.51-.12-1.02-.12-1.53h-.01"/>
      <path class="cls-2" d="M4.26,15.87c-.01-.3-.01-.61-.01-.92v-4.52c0-.13,.01-.25,.02-.37,.02-.13,.04-.24,.09-.35,.02-.05,.04-.1,.08-.15,0,0-.01,0,0,0,.03-.05,.07-.1,.11-.14"/>
      <path class="cls-2" d="M4.74,9.24c-.07,.05-.13,.11-.19,.17"/>
      <path class="cls-2" d="M4.74,9.24c.17-.12,.36-.2,.56-.26"/>
      <path class="cls-2" d="M5.3,8.98s.07-.03,.11-.04c.07-.02,.13-.04,.2-.04"/>
      <path class="cls-2" d="M5.61,8.9c.49-.12,1.01-.16,1.49-.18,.49-.03,.98-.02,1.47-.02h9.78"/>
      <path class="cls-2" d="M38.34,8.7H18.35"/>
      <path class="cls-2" d="M52.14,9.41h0s-.06-.07-.1-.09"/>
      <path class="cls-2" d="M38.34,23.52c2.98-.01,6.78-.11,9.73-.79,.07-.02,.15-.03,.22-.05,.03-.01,.07-.02,.1-.03,.02,0,.04-.01,.06-.01,.26-.07,.53-.14,.79-.23,.05-.02,.09-.03,.13-.05,.32-.12,.59-.27,.83-.48,.1-.09,.19-.18,.27-.28,.09-.11,.16-.21,.24-.32,.11-.16,.21-.33,.31-.5,.2-.34,.39-.7,.55-1.06,.32-.72,.59-1.54,.73-2.32,.09-.51,.12-1.02,.12-1.53"/>
      <path class="cls-2" d="M52.42,15.87c.02-.3,.02-.61,.02-.92v-4.52h0c0-.13-.01-.25-.02-.37-.01-.13-.04-.24-.08-.35-.05-.1-.11-.2-.2-.3"/>
      <path class="cls-2" d="M52.04,9.32s.07,.06,.1,.09"/>
      <path class="cls-2" d="M52.04,9.32l-.08-.08h-.01c-.07-.05-.14-.09-.21-.13-.11-.05-.23-.1-.35-.13"/>
      <path class="cls-2" d="M51.39,8.98h-.01s-.07-.03-.1-.04c-.07-.02-.13-.04-.2-.04"/>
      <path class="cls-2" d="M51.08,8.9c-.49-.12-1.01-.16-1.49-.18-.49-.03-.98-.02-1.47-.02h-9.78"/>
      <path class="cls-2" d="M56.69,59.72h21.26c3.92,0,7.09-3.18,7.09-7.09V7.08C85.04,3.17,81.87,0,77.95,0h-22.19"/>
    </g>
  </g>
  <text class="cls-1" transform="translate(19.04 42.11)"><tspan x="0" y="0">100</tspan></text>
</svg>