<?xml version="1.0" encoding="UTF-8"?>
<svg id="_03_LINEA_FINA" data-name="03_LINEA FINA" xmlns="http://www.w3.org/2000/svg" viewBox="0 0 34.02 61.23">
  <defs>
    <style>
      .cls-1 {
        font-family: Inter18pt-Medium, 'Inter 18pt';
        font-size: 10px;
      }

      .cls-2 {
        fill: none;
        stroke: #404041;
        stroke-linecap: round;
        stroke-linejoin: round;
        stroke-width: .35px;
      }

      .cls-3 {
        fill: #f1f1f2;
      }
    </style>
  </defs>
  <g>
    <path class="cls-3" d="M34.02,59.53v.15c0,.06-.01,.11-.02,.17-.07,.36-.43,.6-.75,.68-.15,.04-.3,.04-.45,.05-.09,.01-.18,.01-.26,.02-.18,.01-.35,.02-.53,.03-.33,.02-.67,.04-1,.06l-1.86,.12c-.76,.05-1.52,.1-2.28,.14-.22,.01-.44,.03-.66,.04-.85,.05-1.71,.08-2.56,.13-1.83,.09-3.67,.11-5.5,.11h-2.52c-1.76,0-3.51-.02-5.26-.11-.86-.05-1.71-.08-2.56-.13-.22-.01-.44-.03-.66-.04-.76-.04-1.52-.09-2.28-.14l-1.86-.12c-.33-.02-.67-.04-1-.06-.18-.01-.35-.02-.53-.03-.08-.01-.17-.01-.26-.02-.15-.01-.3-.01-.45-.05-.33-.08-.68-.32-.75-.68-.01-.06-.02-.11-.02-.17V1.54c0-.05,.01-.1,.02-.16,.07-.36,.42-.61,.75-.69,.15-.03,.3-.04,.45-.04,.09-.01,.18-.01,.26-.02,.18-.01,.35-.02,.53-.03,.33-.02,.67-.04,1-.06l1.86-.12c.76-.05,1.52-.1,2.28-.14,.22-.01,.44-.03,.66-.04,.85-.05,1.7-.09,2.56-.13C12.12,.02,13.87,0,15.63,0h2.52C19.98,0,21.82,.02,23.65,.11c.85,.04,1.71,.08,2.56,.13,.22,.01,.44,.03,.66,.04,.76,.04,1.52,.09,2.28,.14l1.86,.12c.33,.02,.67,.04,1,.06,.18,.01,.35,.02,.53,.03,.08,.01,.17,.01,.26,.02,.15,0,.3,.01,.45,.04,.32,.08,.68,.33,.75,.69,.01,.06,.02,.11,.02,.16V59.53Z"/>
    <g>
      <path class="cls-2" d="M34.02,29.23v2.77"/>
      <line class="cls-2" x1="0" y1="29.23" x2="0" y2="32"/>
      <path class="cls-2" d="M15.63,0C13.87,0,12.12,.02,10.37,.11c-.86,.04-1.71,.08-2.56,.13-.22,.01-.44,.03-.66,.04-.76,.04-1.52,.09-2.28,.14l-1.86,.12c-.33,.02-.67,.04-1,.06-.18,.01-.35,.02-.53,.03-.08,.01-.17,.01-.26,.02-.15,0-.3,.01-.45,.04C.44,.77,.09,1.02,.02,1.38c-.01,.06-.02,.11-.02,.16V29.23"/>
      <path class="cls-2" d="M18.15,0C19.98,0,21.82,.02,23.65,.11c.85,.04,1.71,.08,2.56,.13,.22,.01,.44,.03,.66,.04,.76,.04,1.52,.09,2.28,.14l1.86,.12c.33,.02,.67,.04,1,.06,.18,.01,.35,.02,.53,.03,.08,.01,.17,.01,.26,.02,.15,0,.3,.01,.45,.04,.32,.08,.68,.33,.75,.69,.01,.06,.02,.11,.02,.16V29.23"/>
      <path class="cls-2" d="M16.1,0h2.05"/>
      <path class="cls-2" d="M15.87,0h-.24"/>
      <path class="cls-2" d="M15.87,0h.23"/>
      <path class="cls-2" d="M15.63,61.23c-1.76,0-3.51-.02-5.26-.11-.86-.05-1.71-.08-2.56-.13-.22-.01-.44-.03-.66-.04-.76-.04-1.52-.09-2.28-.14l-1.86-.12c-.33-.02-.67-.04-1-.06-.18-.01-.35-.02-.53-.03-.08-.01-.17-.01-.26-.02-.15-.01-.3-.01-.45-.05-.33-.08-.68-.32-.75-.68-.01-.06-.02-.11-.02-.17V32"/>
      <path class="cls-2" d="M18.15,61.23c1.83,0,3.67-.02,5.5-.11,.85-.05,1.71-.08,2.56-.13,.22-.01,.44-.03,.66-.04,.76-.04,1.52-.09,2.28-.14l1.86-.12c.33-.02,.67-.04,1-.06,.18-.01,.35-.02,.53-.03,.08-.01,.17-.01,.26-.02,.15-.01,.3-.01,.45-.05,.32-.08,.68-.32,.75-.68,.01-.06,.02-.11,.02-.17V32"/>
      <path class="cls-2" d="M16.1,61.23h2.05"/>
      <path class="cls-2" d="M15.87,61.23h-.24"/>
      <path class="cls-2" d="M15.87,61.23h.23"/>
    </g>
  </g>
  <text class="cls-1" transform="translate(11.42 42.11)"><tspan x="0" y="0">60</tspan></text>
</svg>