<?xml version="1.0" encoding="UTF-8"?>
<svg id="_03_LINEA_FINA" data-name="03_LINEA FINA" xmlns="http://www.w3.org/2000/svg" viewBox="0 0 61.23 61.23">
  <defs>
    <style>
      .cls-1 {
        font-family: Inter18pt-Medium, 'Inter 18pt';
        font-size: 10px;
      }

      .cls-2 {
        fill: none;
        stroke: #404041;
        stroke-linecap: round;
        stroke-linejoin: round;
        stroke-width: .35px;
      }

      .cls-3 {
        fill: #f1f1f2;
      }
    </style>
  </defs>
  <g>
    <g>
      <path class="cls-3" d="M61.23,60.88h0s0,0-.01,0h0v.02h0s0,.01-.01,.01h0v.02l-.02,.02h-.01s0,.02-.02,.03l-.02,.02s-.02,.01-.03,.01c0,0-.01,0-.02,.02-.02,0-.04,.02-.07,.03-.02,.01-.05,.02-.07,.03l-.09,.03s-.06,0-.09,.02c-.04,0-.07,.02-.11,.02-.07,.02-.14,.03-.22,.04-.04,0-.08,0-.11,0-.04,0-.08,0-.12,.01h-13.57s-.04-.01-.06-.01-.05,0-.07,0c-.02-.01-.04-.01-.06-.01-.03,0-.05-.02-.07-.02-.04,0-.09-.03-.13-.05-.05-.01-.09-.03-.13-.06-.04-.02-.09-.04-.13-.07-.08-.05-.15-.11-.22-.18s-.13-.14-.19-.22c-.02-.04-.05-.09-.07-.13l-.06-.12c-.02-.05-.03-.09-.04-.13-.02-.05-.03-.09-.03-.13-.01-.02-.01-.04-.01-.07-.01-.02-.01-.04-.01-.06s-.01-.04-.01-.06v-.05h0v-.02h0v-3.99h.12c.5,0,1,0,1.5-.03,.49-.02,.99-.04,1.49-.14,.49-.11,.99-.31,1.29-.67,.3-.37,.41-.91,.44-1.42s-.02-1-.05-1.49c-.04-.5-.07-1-.1-1.5l-.06-1.5c-.03-.49-.05-.99-.07-3.24-.01-2.24-.03-6.23-.02-8.47,0-2.25,.03-2.74,.05-3.24l.06-1.5c.02-.5,.04-1,.08-1.5,.03-.49,.08-.99,.1-1.49,.03-.5,.03-1-.08-1.49-.12-.49-.35-.98-.74-1.26-.38-.27-.92-.34-1.43-.39s-1-.07-1.5-.09c-.36-.01-.72-.01-1.08-.01v-7.7c0-.78-.32-1.49-.83-2L60.39,.83c.51,.52,.83,1.22,.83,2.01V35.72c.01,.58,.01,1.1,.01,1.59v23.56h0Z"/>
      <path class="cls-3" d="M60.39,.83l-15.87,15.88c-.51-.51-1.22-.83-2-.83h-6.15c0-.35-.01-.69-.02-1.04-.01-.5-.03-.99-.14-1.49s-.3-.99-.67-1.3c-.37-.3-.91-.4-1.42-.43s-1,.01-1.49,.05c-.5,.04-1,.07-1.5,.09-.5,.03-1,.05-1.49,.07-.5,.02-1,.04-3.25,.06-2.24,.02-6.23,.03-8.47,.03-2.24-.01-2.74-.03-3.24-.05-.5-.03-1-.05-1.5-.07s-1-.04-1.49-.07c-.5-.03-1-.08-1.5-.11-.5-.02-.99-.03-1.49,.09-.49,.11-.98,.35-1.25,.73-.28,.39-.35,.92-.4,1.44-.04,.51-.07,.99-.09,1.49-.01,.17-.01,.34-.01,.51H1.33s-.04-.01-.06-.01h-.06s-.05-.01-.07-.02c-.04,0-.08-.01-.13-.03-.04,0-.08-.02-.12-.04-.05-.02-.09-.04-.13-.06s-.08-.05-.12-.07c-.08-.06-.16-.12-.23-.19s-.13-.14-.18-.22c-.03-.04-.05-.09-.07-.13s-.04-.08-.06-.13c-.02-.04-.03-.09-.05-.13,0-.02-.01-.04-.01-.07-.01-.02-.01-.04-.02-.06,0-.02-.01-.05-.01-.07s0-.04,0-.06v-.07H0v-.03H0v-.02H0v-.02H0V1.25H0v-.02H0v-.21s0-.08,0-.11c0-.04,.01-.08,.01-.12,.01-.08,.02-.15,.04-.22,0-.04,.01-.07,.02-.11,0-.03,0-.06,.02-.09l.03-.09s.02-.05,.03-.07c0-.03,.02-.05,.03-.07,.01,0,.01-.02,.02-.02,0-.01,.01-.02,.01-.03l.02-.02,.02-.02h.01s.01-.02,.02-.03h.02s0-.01,.01-.01h.02s0,0,.01,0H58.39c.79,0,1.49,.32,2,.83Z"/>
      <path class="cls-3" d="M50.1,28.16c.11,.49,.11,.99,.08,1.49-.02,.5-.07,1-.1,1.49-.04,.5-.06,1-.08,1.5l-.06,1.5c-.02,.5-.05,.99-.05,3.24-.01,2.24,.01,6.23,.02,8.47,.02,2.25,.04,2.75,.07,3.24l.06,1.5c.03,.5,.06,1,.1,1.5,.03,.49,.08,.98,.05,1.49s-.14,1.05-.44,1.42c-.3,.36-.8,.56-1.29,.67-.5,.1-1,.12-1.49,.14-.5,.02-1,.03-1.5,.03h-.12c-.46,0-.92,0-1.38-.02-.49-.02-.98-.05-1.49-.06-.52-.02-1.08-.02-1.43-.3s-.51-.84-.62-1.35c-.1-.52-.16-.99-.19-1.48s-.03-1-.03-1.5-.01-1-.01-1.5c-.01-.5-.01-1-.02-1.5,0-.49,0-.99-.02-1.49,0-.5-.01-1-.02-1.5l-.03-1.5c-.01-.5-.01-1-.02-1.49v-.12l.11-.11c.38-.35,.74-.68,1.1-1.01,.36-.34,.72-.69,1.08-1.04,.35-.36,.7-.72,1.04-1.08,.34-.37,.67-.73,.95-1.16,.27-.43,.49-.91,.44-1.39-.05-.47-.35-.92-.69-1.31-.34-.38-.72-.7-1.1-1.02-.37-.32-.75-.65-1.12-.99-.37-.33-.74-.67-1.1-1.01-.16-.15-.32-.3-.59-.55,0-.4,.01-.8,.02-1.19,.01-.5,.03-.99,.1-1.5,.06-.51,.17-1.04,.44-1.42,.27-.39,.7-.63,1.17-.73,.48-.11,.99-.07,1.5-.06,.51,0,1-.03,1.5-.04,.14-.01,.27-.01,.41-.01,.36,0,.72,0,1.08,.01,.5,.02,.99,.04,1.5,.09s1.05,.12,1.43,.39c.39,.28,.62,.77,.74,1.26Z"/>
      <path class="cls-3" d="M46.64,61.23H1.42C.63,61.23,0,60.6,0,59.82V14.59s0,.04,0,.06,.01,.05,.01,.07c.01,.02,.01,.04,.02,.06,0,.03,.01,.05,.01,.07,.02,.04,.03,.09,.05,.13,.02,.05,.04,.09,.06,.13s.04,.09,.07,.13c.05,.08,.11,.15,.18,.22s.15,.13,.23,.19c.04,.02,.08,.05,.12,.07s.08,.04,.13,.06c.04,.02,.08,.03,.12,.04,.05,.02,.09,.03,.13,.03,.02,0,.05,0,.07,.02h.06s.04,.01,.06,.01H6.95c0,.33,0,.66,.01,.99,.01,.5,.04,.99,.04,1.49-.01,.51-.05,1.03,.06,1.5,.1,.47,.34,.9,.73,1.17s.92,.38,1.42,.45c.51,.06,1,.08,1.5,.1,.49,0,.99,0,1.49,.02,.51,0,1,0,1.5,0,.5,.01,1,.01,1.5,.02,.5,0,1,0,1.5,.02,.5,0,1,0,1.49,.02,.31,0,.62,0,.92,.02-.23,.39-.35,.85-.27,1.28,.08,.46,.38,.92,.69,1.32,.32,.41,.65,.77,.99,1.13s.69,.72,1.04,1.07c.35,.36,.7,.72,1.05,1.07,.35,.36,.7,.71,1.05,1.07s.7,.72,1.04,1.07l1.05,1.08c.34,.36,.69,.72,1.04,1.08,.34,.36,.69,.71,1.04,1.07l1.06,1.06c.36,.35,.72,.69,1.08,1.04s.72,.69,1.07,1.04c.36,.35,.72,.69,1.08,1.04s.71,.7,1.07,1.05,.71,.7,1.07,1.05c.36,.34,.72,.69,1.07,1.04s.71,.72,1.08,1.04c.37,.33,.74,.62,1.18,.91s.95,.58,1.4,.52c.4-.05,.76-.37,1.1-.69v.12c.01,.49,.01,.99,.02,1.49l.03,1.5c.01,.5,.02,1,.02,1.5,.01,.5,.02,1,.02,1.49,.01,.5,.01,1,.02,1.5,0,.5,.01,1,.01,1.5s0,1.01,.03,1.5,.09,.96,.19,1.48c.11,.51,.27,1.07,.62,1.35s.91,.28,1.43,.3c.51,.01,1,.04,1.49,.06,.46,.01,.92,.02,1.38,.02v3.98h0v.02h0v.06s.01,.04,.01,.06,0,.04,.01,.06c0,.03,0,.05,.01,.07,0,.04,.01,.08,.03,.13,.01,.04,.02,.08,.04,.13l.06,.12s.05,.09,.07,.13c.06,.08,.12,.15,.19,.22s.14,.13,.22,.18c.04,.03,.09,.05,.13,.07,.04,.03,.08,.05,.13,.06,.04,.02,.09,.04,.13,.05,.02,0,.04,.01,.07,.02,.02,0,.04,0,.06,.01,.02,0,.05,0,.07,0s.04,0,.06,.01Z"/>
      <path class="cls-3" d="M45.35,18.71v7.7c-.14,0-.27,0-.41,.01-.5,0-.99,.04-1.5,.04-.51-.01-1.02-.05-1.5,.06-.47,.1-.9,.34-1.17,.73-.27,.38-.38,.91-.44,1.42-.07,.51-.09,1-.1,1.5-.01,.39-.02,.79-.02,1.19-.34-.32-.85-.81-1.75-1.7-1.6-1.57-4.43-4.38-6.01-5.97-1.25-1.25-1.72-1.75-2.04-2.08h.01c.42,0,.83-.02,1.25-.02,.5,0,1.01,0,1.5-.03,.49-.02,.96-.08,1.48-.19,.51-.11,1.07-.26,1.35-.61,.28-.36,.28-.91,.3-1.43,.01-.52,.04-1,.06-1.5,.01-.49,.02-.99,.02-1.49,0-.16,0-.31-.01-.46h6.15c.78,0,1.49,.32,2,.83s.83,1.22,.83,2Z"/>
      <path class="cls-3" d="M44.81,36.24c.05,.48-.17,.96-.44,1.39-.28,.43-.61,.79-.95,1.16-.34,.36-.69,.72-1.04,1.08-.36,.35-.72,.7-1.08,1.04-.36,.33-.72,.66-1.1,1.01l-.11,.11c-.34,.32-.7,.64-1.1,.69-.45,.06-.96-.23-1.4-.52s-.81-.58-1.18-.91c-.37-.32-.72-.68-1.08-1.04s-.71-.7-1.07-1.04c-.36-.35-.71-.7-1.07-1.05s-.71-.7-1.07-1.05-.72-.69-1.08-1.04c-.35-.35-.71-.69-1.07-1.04s-.72-.69-1.08-1.04l-1.06-1.06c-.35-.36-.7-.71-1.04-1.07-.35-.36-.7-.72-1.04-1.08l-1.05-1.08c-.34-.35-.69-.71-1.04-1.07s-.7-.71-1.05-1.07c-.35-.35-.7-.71-1.05-1.07-.35-.35-.7-.71-1.04-1.07s-.67-.72-.99-1.13c-.31-.4-.61-.86-.69-1.32-.08-.43,.04-.89,.27-1.28,.01-.02,.03-.05,.04-.07,.26-.4,.66-.74,1.02-1.1,.36-.35,.68-.72,1.03-1.08,.34-.36,.7-.72,1.06-1.06s.72-.66,1.12-.99c.39-.33,.82-.66,1.29-.74,.47-.07,.98,.11,1.41,.37,.43,.27,.78,.62,1.11,.99,.34,.37,.66,.76,.98,1.14,.33,.37,.67,.74,1.01,1.11,.34,.36,.68,.73,1.01,1.1,.07,.08,.14,.16,.22,.25,.32,.33,.79,.83,2.04,2.08,1.58,1.59,4.41,4.4,6.01,5.97,.9,.89,1.41,1.38,1.75,1.7,.27,.25,.43,.4,.59,.55,.36,.34,.73,.68,1.1,1.01,.37,.34,.75,.67,1.12,.99,.38,.32,.76,.64,1.1,1.02,.34,.39,.64,.84,.69,1.31Z"/>
      <path class="cls-3" d="M36.37,15.88c.01,.15,.01,.3,.01,.46,0,.5-.01,1-.02,1.49-.02,.5-.05,.98-.06,1.5-.02,.52-.02,1.07-.3,1.43-.28,.35-.84,.5-1.35,.61-.52,.11-.99,.17-1.48,.19-.49,.03-1,.03-1.5,.03-.42,0-.83,.01-1.25,.01h-.01c-.08-.08-.15-.16-.22-.24-.33-.37-.67-.74-1.01-1.1-.34-.37-.68-.74-1.01-1.11-.32-.38-.64-.77-.98-1.14-.33-.37-.68-.72-1.11-.99-.43-.26-.94-.44-1.41-.37-.47,.08-.9,.41-1.29,.74-.4,.33-.76,.65-1.12,.99s-.72,.7-1.06,1.06c-.35,.36-.67,.73-1.03,1.08-.36,.36-.76,.7-1.02,1.1-.01,.02-.03,.05-.04,.07-.3-.01-.61-.01-.92-.02-.49-.01-.99-.02-1.49-.02-.5-.01-1-.02-1.5-.02-.5-.01-1-.01-1.5-.02-.5,0-.99,0-1.5,0-.5-.01-1-.01-1.49-.02-.5-.02-.99-.04-1.5-.1-.5-.07-1.03-.18-1.42-.45s-.63-.7-.73-1.17c-.11-.47-.07-.99-.06-1.5,0-.5-.03-.99-.04-1.49-.01-.33-.01-.66-.01-.99,0-.17,0-.34,.01-.51,.02-.5,.05-.98,.09-1.49,.05-.52,.12-1.05,.4-1.44,.27-.38,.76-.62,1.25-.73,.5-.12,.99-.11,1.49-.09,.5,.03,1,.08,1.5,.11,.49,.03,.99,.05,1.49,.07s1,.04,1.5,.07c.5,.02,1,.04,3.24,.05,2.24,0,6.23-.01,8.47-.03,2.25-.02,2.75-.04,3.25-.06,.49-.02,.99-.04,1.49-.07,.5-.02,1-.05,1.5-.09,.49-.04,.98-.08,1.49-.05s1.05,.13,1.42,.43c.37,.31,.56,.8,.67,1.3s.13,.99,.14,1.49c.01,.35,.02,.69,.02,1.04Z"/>
    </g>
    <g>
      <line class="cls-2" x1="45.35" y1="55.84" x2="45.35" y2="58.06"/>
      <line class="cls-2" x1="45.35" y1="18.71" x2="45.35" y2="26.41"/>
      <line class="cls-2" x1="36.38" y1="15.88" x2="42.52" y2="15.88"/>
      <line class="cls-2" x1="3.17" y1="15.88" x2="6.95" y2="15.88"/>
      <line class="cls-2" x1="44.52" y1="16.71" x2="60.39" y2=".83"/>
      <path class="cls-2" d="M0,59.82c0,.78,.63,1.41,1.42,1.41"/>
      <line class="cls-2" x1="46.64" y1="61.23" x2="1.42" y2="61.23"/>
      <line class="cls-2" x1="0" y1="14.59" x2="0" y2="59.82"/>
      <path class="cls-2" d="M42.52,15.88c.78,0,1.49,.32,2,.83s.83,1.22,.83,2"/>
      <path class="cls-2" d="M58.39,0c.79,0,1.49,.32,2,.83,.51,.52,.83,1.22,.83,2.01"/>
      <line class="cls-2" x1="61.22" y1="2.84" x2="61.23" y2="35.72"/>
      <line class="cls-2" x1="25.51" y1="0" x2="58.39" y2="0"/>
      <path class="cls-2" d="M51.21,61.23h-4.57s-.04-.01-.06-.01-.05,0-.07,0c-.02-.01-.04-.01-.06-.01-.03,0-.05-.02-.07-.02-.04,0-.09-.03-.13-.05-.05-.01-.09-.03-.13-.06-.04-.02-.09-.04-.13-.07-.08-.05-.15-.11-.22-.18s-.13-.14-.19-.22c-.02-.04-.05-.09-.07-.13l-.06-.12c-.02-.05-.03-.09-.04-.13-.02-.05-.03-.09-.03-.13-.01-.02-.01-.04-.01-.07-.01-.02-.01-.04-.01-.06s-.01-.04-.01-.06v-.05h0v-.02h0v-1.77"/>
      <path class="cls-2" d="M51.21,61.23h9s.08-.01,.12-.01c.03,0,.07,0,.11,0,.08-.01,.15-.02,.22-.04,.04,0,.07-.01,.11-.02,.03-.01,.06-.01,.09-.02l.09-.03s.05-.02,.07-.03c.03,0,.05-.02,.07-.03,.01-.01,.02-.01,.02-.02,.01,0,.02-.01,.03-.01l.02-.02,.02-.02h.01s.01-.02,.02-.03h0v-.02h.01v-.02h.01v-.02h0v-25.16"/>
      <path class="cls-2" d="M0,2.32V1.25H0v-.02H0v-.21s0-.08,0-.11c0-.04,.01-.08,.01-.12,.01-.08,.02-.15,.04-.22,0-.04,.01-.07,.02-.11,0-.03,0-.06,.02-.09l.03-.09s.02-.05,.03-.07c0-.03,.02-.05,.03-.07,.01,0,.01-.02,.02-.02,0-.01,.01-.02,.01-.03l.02-.02,.02-.02h.01s.01-.02,.02-.03h.02s0-.01,.01-.01h.02s0,0,.01,0H25.51"/>
      <path class="cls-2" d="M0,2.32V14.44H0v.02H0v.02H0v.03H0v.08s0,.04,0,.06,.01,.05,.01,.07c.01,.02,.01,.04,.02,.06,0,.03,.01,.05,.01,.07,.02,.04,.03,.09,.05,.13,.02,.05,.04,.09,.06,.13s.04,.09,.07,.13c.05,.08,.11,.15,.18,.22s.15,.13,.23,.19c.04,.02,.08,.05,.12,.07s.08,.04,.13,.06c.04,.02,.08,.03,.12,.04,.05,.02,.09,.03,.13,.03,.02,0,.05,0,.07,.02h.06s.04,.01,.06,.01h1.84"/>
      <path class="cls-2" d="M40.21,31.36c.27,.25,.43,.4,.59,.55,.36,.34,.73,.68,1.1,1.01,.37,.34,.75,.67,1.12,.99,.38,.32,.76,.64,1.1,1.02,.34,.39,.64,.84,.69,1.31,.05,.48-.17,.96-.44,1.39-.28,.43-.61,.79-.95,1.16-.34,.36-.69,.72-1.04,1.08-.36,.35-.72,.7-1.08,1.04-.36,.33-.72,.66-1.1,1.01l-.11,.11c-.34,.32-.7,.64-1.1,.69-.45,.06-.96-.23-1.4-.52s-.81-.58-1.18-.91c-.37-.32-.72-.68-1.08-1.04s-.71-.7-1.07-1.04c-.36-.35-.71-.7-1.07-1.05s-.71-.7-1.07-1.05-.72-.69-1.08-1.04c-.35-.35-.71-.69-1.07-1.04s-.72-.69-1.08-1.04l-1.06-1.06c-.35-.36-.7-.71-1.04-1.07-.35-.36-.7-.72-1.04-1.08l-1.05-1.08c-.34-.35-.69-.71-1.04-1.07s-.7-.71-1.05-1.07c-.35-.35-.7-.71-1.05-1.07-.35-.35-.7-.71-1.04-1.07s-.67-.72-.99-1.13c-.31-.4-.61-.86-.69-1.32-.08-.43,.04-.89,.27-1.28,.01-.02,.03-.05,.04-.07,.26-.4,.66-.74,1.02-1.1,.36-.35,.68-.72,1.03-1.08,.34-.36,.7-.72,1.06-1.06s.72-.66,1.12-.99c.39-.33,.82-.66,1.29-.74,.47-.07,.98,.11,1.41,.37,.43,.27,.78,.62,1.11,.99,.34,.37,.66,.76,.98,1.14,.33,.37,.67,.74,1.01,1.11,.34,.36,.68,.73,1.01,1.1,.07,.08,.14,.16,.22,.25,.32,.33,.79,.83,2.04,2.08,1.58,1.59,4.41,4.4,6.01,5.97,.9,.89,1.41,1.38,1.75,1.7Z"/>
      <path class="cls-2" d="M19.11,21.69c-.3-.01-.61-.01-.92-.02-.49-.01-.99-.02-1.49-.02-.5-.01-1-.02-1.5-.02-.5-.01-1-.01-1.5-.02-.5,0-.99,0-1.5,0-.5-.01-1-.01-1.49-.02-.5-.02-.99-.04-1.5-.1-.5-.07-1.03-.18-1.42-.45s-.63-.7-.73-1.17c-.11-.47-.07-.99-.06-1.5,0-.5-.03-.99-.04-1.49-.01-.33-.01-.66-.01-.99,0-.17,0-.34,.01-.51,.02-.5,.05-.98,.09-1.49,.05-.52,.12-1.05,.4-1.44,.27-.38,.76-.62,1.25-.73,.5-.12,.99-.11,1.49-.09,.5,.03,1,.08,1.5,.11,.49,.03,.99,.05,1.49,.07s1,.04,1.5,.07c.5,.02,1,.04,3.24,.05,2.24,0,6.23-.01,8.47-.03,2.25-.02,2.75-.04,3.25-.06,.49-.02,.99-.04,1.49-.07,.5-.02,1-.05,1.5-.09,.49-.04,.98-.08,1.49-.05s1.05,.13,1.42,.43c.37,.31,.56,.8,.67,1.3s.13,.99,.14,1.49c.01,.35,.02,.69,.02,1.04,.01,.15,.01,.3,.01,.46,0,.5-.01,1-.02,1.49-.02,.5-.05,.98-.06,1.5-.02,.52-.02,1.07-.3,1.43-.28,.35-.84,.5-1.35,.61-.52,.11-.99,.17-1.48,.19-.49,.03-1,.03-1.5,.03-.42,0-.83,.01-1.25,.01"/>
      <path class="cls-2" d="M40.21,31.36c0-.4,.01-.8,.02-1.19,.01-.5,.03-.99,.1-1.5,.06-.51,.17-1.04,.44-1.42,.27-.39,.7-.63,1.17-.73,.48-.11,.99-.07,1.5-.06,.51,0,1-.03,1.5-.04,.14-.01,.27-.01,.41-.01,.36,0,.72,0,1.08,.01,.5,.02,.99,.04,1.5,.09s1.05,.12,1.43,.39c.39,.28,.62,.77,.74,1.26,.11,.49,.11,.99,.08,1.49-.02,.5-.07,1-.1,1.49-.04,.5-.06,1-.08,1.5l-.06,1.5c-.02,.5-.05,.99-.05,3.24-.01,2.24,.01,6.23,.02,8.47,.02,2.25,.04,2.75,.07,3.24l.06,1.5c.03,.5,.06,1,.1,1.5,.03,.49,.08,.98,.05,1.49s-.14,1.05-.44,1.42c-.3,.36-.8,.56-1.29,.67-.5,.1-1,.12-1.49,.14-.5,.02-1,.03-1.5,.03h-.12c-.46,0-.92,0-1.38-.02-.49-.02-.98-.05-1.49-.06-.52-.02-1.08-.02-1.43-.3s-.51-.84-.62-1.35c-.1-.52-.16-.99-.19-1.48s-.03-1-.03-1.5-.01-1-.01-1.5c-.01-.5-.01-1-.02-1.5,0-.49,0-.99-.02-1.49,0-.5-.01-1-.02-1.5l-.03-1.5c-.01-.5-.01-1-.02-1.49v-.12"/>
    </g>
  </g>
  <text class="cls-1" transform="translate(10.22 42.11)"><tspan x="0" y="0">RC</tspan></text>
</svg>