<?xml version="1.0" encoding="UTF-8"?>
<svg id="_03_LINEA_FINA" data-name="03_LINEA FINA" xmlns="http://www.w3.org/2000/svg" viewBox="0 0 85.04 61.23">
  <defs>
    <style>
      .cls-1 {
        font-family: Inter18pt-Medium, 'Inter 18pt';
        font-size: 10px;
      }

      .cls-2 {
        fill: none;
        stroke: #404041;
        stroke-linecap: round;
        stroke-linejoin: round;
        stroke-width: .35px;
      }

      .cls-3 {
        fill: #f1f1f2;
      }
    </style>
  </defs>
  <g>
    <g>
      <path class="cls-3" d="M85.04,7.09V54.12c0,3.91-3.18,7.09-7.09,7.09H28.34c-3.33,0-6.66,0-9.99,0-.7,0-1.41-.01-2.12-.03-.36,0-.72,0-1.08,0-.19-.01-.37-.01-.55-.02h-.25c-.38-.01-.75-.02-1.12-.03-.71-.02-1.42-.04-2.14-.06-.24,0-.49-.02-.73-.03-.1,0-.2,0-.3-.01-1.53-.05-3.06-.12-4.58-.2-1.24-.06-2.47-.13-3.7-.19l-.39-.03c-.08,0-.16,0-.24,0-.04,0-.08,0-.13-.01-.06,0-.12-.01-.18-.02l-.12-.03s-.03-.01-.05-.01c-.07-.03-.14-.06-.2-.09-.04-.03-.08-.05-.12-.08-.02-.02-.04-.03-.06-.05-.07-.06-.13-.13-.18-.2,0,0,0,0,0-.02-.03-.05-.05-.09-.06-.14-.02-.05-.03-.1-.03-.15-.01-.01-.01-.02-.01-.03v-.05H0v-.94H0V14.59s.01,.04,.01,.06c0,.03,.01,.05,.01,.07s0,.04,0,.07c.01,.02,.02,.04,.02,.06,.01,.05,.03,.09,.05,.13,0,.05,.03,.09,.05,.13,.03,.04,.05,.09,.08,.13,.05,.08,.11,.15,.18,.22s.14,.13,.22,.19c.04,.02,.08,.05,.13,.07l.12,.06c.05,.02,.09,.03,.13,.04,.05,.02,.09,.03,.13,.03,.02,.01,.04,.01,.07,.02h.06s.04,0,.06,0h2.94c0,.51,.03,1.02,.12,1.53,.14,.77,.41,1.6,.73,2.32,.16,.36,.34,.71,.55,1.06,.1,.17,.2,.33,.31,.5,.08,.1,.15,.21,.24,.31s.17,.2,.27,.28c.09,.08,.18,.16,.29,.22,0,.01,.01,.01,.01,.01,.1,.06,.2,.12,.31,.17h0c.11,.05,.22,.09,.34,.14,.26,.09,.53,.16,.79,.23,.02,0,.04,.01,.06,.01,.03,0,.07,.02,.1,.03,.07,.01,.15,.03,.22,.05,2.94,.68,6.75,.78,9.73,.79h19.98c2.98-.01,6.79-.11,9.74-.79,.07-.02,.14-.04,.22-.05,.03-.01,.07-.02,.1-.03,.02,0,.04-.01,.05-.01,.27-.07,.53-.14,.79-.23,.19-.07,.37-.14,.53-.24,.16-.08,.31-.18,.44-.3,.1-.08,.19-.18,.27-.28s.16-.21,.23-.31c.11-.17,.22-.33,.32-.5,.2-.35,.38-.7,.55-1.06,.32-.72,.59-1.55,.73-2.32,.09-.51,.12-1.02,.13-1.53h2.93s.04,0,.06,0h.06s.04-.01,.06-.02c.05,0,.09-.01,.13-.03,.05-.01,.09-.02,.13-.04,.05-.02,.09-.04,.13-.06s.08-.05,.12-.07c.08-.06,.16-.12,.23-.19s.13-.14,.18-.22c.03-.04,.05-.09,.07-.13s.04-.08,.06-.13c.02-.04,.03-.08,.05-.13,0-.02,0-.04,0-.06,.01-.03,.01-.05,.02-.07,0-.02,0-.04,.01-.07v-.06s0-.02,0-.03v-.04h0v-.03h0v-.02h0V1.25h0v-.02h0v-.09s0-.08,0-.12v-.11s-.01-.08-.02-.12c0-.08-.02-.15-.03-.22-.01-.04-.01-.07-.02-.11l-.03-.09s-.01-.06-.02-.09c-.01-.02-.02-.05-.03-.07,0-.03-.02-.05-.03-.07-.01-.01-.01-.02-.02-.02,0-.01,0-.02-.02-.03,0,0-.01,0-.01-.02l-.02-.02s-.01,0-.02,0c0-.01-.01-.01-.01-.01h0s-.01-.01-.01-.01c0-.01-.01-.01-.01-.01h-.03c7.21,0,14.4,0,21.61,0,3.91,0,7.09,3.18,7.09,7.09Z"/>
      <path class="cls-3" d="M56.69,14.52v.04s0,.02,0,.03v.06s-.01,.05-.01,.07c-.01,.02-.01,.04-.02,.07,0,.02,0,.04,0,.06-.02,.05-.03,.09-.05,.13-.02,.05-.04,.09-.06,.13s-.04,.09-.07,.13c-.05,.08-.11,.15-.18,.22s-.15,.13-.23,.19c-.04,.02-.08,.05-.12,.07s-.08,.04-.13,.06c-.04,.02-.08,.03-.13,.04-.04,.02-.08,.03-.13,.03-.02,.01-.04,.01-.06,.02h-.06s-.04,0-.06,0h-2.93c0-.3,0-.61,0-.92v-4.33h0v-.2c0-.12,0-.24-.02-.36-.04-.25-.1-.46-.28-.66-.2-.22-.47-.34-.75-.43v-2.03c0-.3-.12-.58-.31-.79-.2-.21-.47-.34-.78-.34H6.38c-.31,0-.58,.13-.77,.34-.2,.21-.31,.49-.31,.79v2.03c-.28,.09-.56,.21-.75,.43-.18,.2-.25,.41-.28,.66-.01,.12-.02,.24-.02,.36v.19h0v4.34c0,.3,0,.6,.01,.9,0,.01,.01,.02,.01,.02H1.33s-.04,0-.06,0h-.06s-.05-.01-.07-.02c-.04,0-.08-.01-.13-.03-.04-.01-.08-.02-.13-.04l-.12-.06c-.05-.02-.09-.05-.13-.07-.08-.06-.15-.12-.22-.19s-.13-.14-.18-.22c-.03-.04-.05-.09-.08-.13-.02-.04-.04-.08-.05-.13-.02-.04-.04-.08-.05-.13,0-.02-.01-.04-.02-.06,0-.03,0-.05,0-.07s-.01-.04-.01-.07c0-.02-.01-.04-.01-.06v-.07H0v-.03H0v-.02H0V1.25H0v-.02H0v-.21s.01-.08,.01-.11c0-.04,.01-.08,.01-.12,0-.08,.02-.15,.04-.22,0-.04,0-.07,.02-.11,0-.03,.01-.06,.02-.09l.03-.09s.02-.05,.03-.07c.01-.03,.02-.05,.03-.07,.01-.01,.01-.02,.02-.02,0-.01,.01-.02,.01-.03l.02-.02,.02-.02h.01s0-.02,.02-.02c0-.01,.01-.01,.01-.01h.02s.01-.01,.01-.01h.02s0,0,0,0H56.35s0,0,0,0h.01s.01,0,.01,.01h.02s.01,.01,.01,.02c.01,0,.01,0,.02,0l.02,.02s.01,.01,.01,.02c.01,.01,.01,.02,.02,.03,.01,0,.01,0,.02,.02,.01,.02,.02,.04,.03,.07,.01,.02,.02,.05,.03,.07,0,.03,.02,.06,.02,.09l.03,.09s.01,.07,.02,.11c.01,.07,.03,.14,.03,.22,.01,.04,.01,.08,.02,.12v.11s0,.08,0,.12v.08h0v.02h0V14.46h0v.02h0v.03h0Z"/>
      <path class="cls-3" d="M52.44,10.63v4.33c0,.31,0,.62,0,.92-.01,.51-.04,1.02-.13,1.53-.14,.77-.41,1.6-.73,2.32-.17,.36-.35,.71-.55,1.06-.1,.17-.21,.33-.32,.5-.07,.1-.15,.21-.23,.31s-.17,.2-.27,.28c-.13,.12-.28,.22-.44,.3-.16,.1-.34,.17-.53,.24-.26,.09-.52,.16-.79,.23,0,0-.03,.01-.05,.01-.03,0-.07,.02-.1,.03-.08,.01-.15,.03-.22,.05-2.95,.68-6.76,.78-9.74,.79H18.35c-2.98-.01-6.79-.11-9.73-.79-.07-.02-.15-.04-.22-.05-.03-.01-.07-.02-.1-.03-.02,0-.04-.01-.06-.01-.26-.07-.53-.14-.79-.23-.12-.05-.23-.09-.34-.14h0c-.11-.05-.21-.11-.31-.17,0,0-.01,0-.01-.01-.1-.06-.2-.14-.29-.22-.1-.08-.18-.18-.27-.28s-.16-.21-.24-.31c-.11-.17-.21-.33-.31-.5-.21-.35-.39-.7-.55-1.06-.32-.72-.59-1.55-.73-2.32-.09-.51-.12-1.02-.12-1.53,0,0-.01,0-.01-.02-.01-.3-.01-.6-.01-.9v-4.33h0v-.2c0-.12,.01-.24,.02-.36,.03-.25,.1-.46,.28-.66,.19-.22,.47-.34,.75-.43,.04-.01,.07-.02,.11-.03,.05-.01,.1-.03,.15-.03,.09-.03,.18-.05,.26-.06,.42-.08,.86-.12,1.28-.14,.49-.02,.98-.01,1.47-.01H48.12c.49,0,.98,0,1.47,.01,.48,.03,1,.07,1.49,.19,.07,0,.13,.02,.2,.04,.04,0,.07,.02,.11,.03,.28,.09,.55,.21,.75,.43,.18,.2,.24,.41,.28,.66,.01,.12,.02,.24,.02,.36v.19h0Z"/>
      <path class="cls-3" d="M51.39,6.95v2.03s-.07-.02-.11-.03c-.07-.02-.13-.04-.2-.04h0v-2.75c.19,.21,.31,.49,.31,.79Z"/>
      <path class="cls-3" d="M51.08,8.9h0c-.49-.11-1.01-.15-1.49-.18-.49-.02-.98-.01-1.47-.01H8.57c-.49,0-.98,0-1.47,.01-.42,.02-.86,.06-1.28,.14-.07,.01-.14,.02-.21,.04v-2.74c.19-.21,.46-.34,.77-.34H50.3c.31,0,.58,.13,.78,.34v2.74Z"/>
      <path class="cls-3" d="M6.49,21.88c.09,.08,.19,.16,.29,.22-.11-.06-.2-.14-.29-.22Z"/>
      <path class="cls-3" d="M5.82,8.86c-.08,.01-.17,.03-.26,.06,0,0,.03-.02,.05-.02,.07-.02,.14-.03,.21-.04Z"/>
      <path class="cls-3" d="M5.61,8.9s-.04,.01-.05,.02c-.05,0-.1,.02-.15,.03-.04,0-.07,.02-.11,.03v-2.03c0-.3,.11-.58,.31-.79v2.74Z"/>
      <path class="cls-3" d="M1.02,60.57h-.07s-.07-.01-.11-.02c.06,.01,.12,.02,.18,.02Z"/>
      <path class="cls-3" d="M.72,60.52l.12,.03-.12-.03Z"/>
      <path class="cls-3" d="M.04,59.93c.01,.05,.03,.09,.06,.14-.03-.04-.05-.09-.06-.14Z"/>
      <path class="cls-3" d="M.01,59.78c0,.05,.01,.1,.03,.15-.02-.05-.03-.1-.03-.15Z"/>
    </g>
    <g>
      <line class="cls-2" x1="56.69" y1="61.21" x2="28.34" y2="61.21"/>
      <path class="cls-2" d="M56.69,61.21h21.26c3.91,0,7.09-3.18,7.09-7.09V7.09C85.04,3.18,81.86,0,77.95,0h-21.61"/>
      <path class="cls-2" d="M.72,60.52l.12,.03s.07,.02,.11,.02h.07"/>
      <path class="cls-2" d="M.01,59.78c0,.05,.01,.1,.03,.15,.01,.05,.03,.1,.06,.14"/>
      <path class="cls-2" d="M0,14.59V58.75H0v.94H0v.06s0,.02,.01,.03"/>
      <path class="cls-2" d="M.1,60.07c-.03-.05-.05-.09-.06-.14-.02-.05-.03-.1-.03-.15"/>
      <path class="cls-2" d="M.1,60.07s0,.01,0,.02c.05,.07,.11,.14,.18,.2,.02,.02,.04,.03,.06,.05,.04,.03,.08,.05,.12,.08,.06,.03,.13,.06,.2,.09,.02,0,.03,.01,.05,.01"/>
      <path class="cls-2" d="M1.02,60.57c-.06,0-.12-.01-.18-.02l-.12-.03"/>
      <path class="cls-2" d="M1.02,60.57s.09,.01,.13,.01c.08,0,.16,0,.24,0l.39,.03c1.23,.06,2.46,.13,3.7,.19,1.52,.08,3.05,.15,4.58,.2,.1,.01,.2,.01,.3,.01,.24,.01,.49,.02,.73,.03,.72,.02,1.43,.04,2.14,.06,.37,.01,.74,.02,1.12,.03h.25c.18,.01,.36,.01,.55,.02,.36,0,.72,0,1.08,0,.71,.02,1.42,.03,2.12,.03"/>
      <path class="cls-2" d="M28.34,61.21c-3.33,0-6.66,0-9.99,0"/>
      <path class="cls-2" d="M5.56,8.92c.09-.03,.18-.05,.26-.06"/>
      <path class="cls-2" d="M18.35,23.53c-2.98-.01-6.79-.11-9.73-.79-.07-.02-.15-.04-.22-.05-.03-.01-.07-.02-.1-.03-.02,0-.04-.01-.06-.01-.26-.07-.53-.14-.79-.23-.12-.05-.23-.09-.34-.14h0c-.11-.05-.21-.11-.31-.17,0,0-.01,0-.01-.01-.1-.06-.2-.14-.29-.22"/>
      <path class="cls-2" d="M6.49,21.88c.09,.08,.18,.16,.29,.22"/>
      <path class="cls-2" d="M6.49,21.88c-.1-.08-.18-.18-.27-.28s-.16-.21-.24-.31c-.11-.17-.21-.33-.31-.5-.21-.35-.39-.7-.55-1.06-.32-.72-.59-1.55-.73-2.32-.09-.51-.12-1.02-.12-1.53"/>
      <path class="cls-2" d="M4.27,15.88s-.01,0-.01-.02c-.01-.3-.01-.6-.01-.9v-4.33h0v-.2c0-.12,.01-.24,.02-.36,.03-.25,.1-.46,.28-.66,.19-.22,.47-.34,.75-.43"/>
      <path class="cls-2" d="M5.3,8.98s.07-.02,.11-.03c.05-.01,.1-.03,.15-.03"/>
      <path class="cls-2" d="M5.82,8.86c-.07,.01-.14,.02-.21,.04-.02,0-.04,.01-.05,.02"/>
      <path class="cls-2" d="M5.82,8.86c.42-.08,.86-.12,1.28-.14,.49-.02,.98-.01,1.47-.01h9.78"/>
      <path class="cls-2" d="M38.33,8.71H18.35"/>
      <path class="cls-2" d="M38.33,23.53c2.98-.01,6.79-.11,9.74-.79,.07-.02,.14-.04,.22-.05,.03-.01,.07-.02,.1-.03,.02,0,.04-.01,.05-.01,.27-.07,.53-.14,.79-.23,.19-.07,.37-.14,.53-.24,.16-.08,.31-.18,.44-.3,.1-.08,.19-.18,.27-.28s.16-.21,.23-.31c.11-.17,.22-.33,.32-.5,.2-.35,.38-.7,.55-1.06,.32-.72,.59-1.55,.73-2.32,.09-.51,.12-1.02,.13-1.53"/>
      <path class="cls-2" d="M52.43,15.88c0-.3,0-.61,0-.92v-4.33h0v-.2c0-.12,0-.24-.02-.36-.04-.25-.1-.46-.28-.66-.2-.22-.47-.34-.75-.43"/>
      <path class="cls-2" d="M51.39,8.98s-.07-.02-.11-.03c-.07-.02-.13-.04-.2-.04"/>
      <path class="cls-2" d="M51.08,8.91c-.49-.12-1.01-.16-1.49-.19-.49-.02-.98-.01-1.47-.01h-9.79"/>
      <path class="cls-2" d="M38.33,5.82h11.97c.31,0,.58,.13,.78,.34,.19,.21,.31,.49,.31,.79v2.03"/>
      <path class="cls-2" d="M38.33,0h17.43"/>
      <path class="cls-2" d="M55.76,0h.58"/>
      <path class="cls-2" d="M52.43,15.88h2.93s.04,0,.06,0h.06s.04-.01,.06-.02c.05,0,.09-.01,.13-.03,.05-.01,.09-.02,.13-.04,.05-.02,.09-.04,.13-.06s.08-.05,.12-.07c.08-.06,.16-.12,.23-.19s.13-.14,.18-.22c.03-.04,.05-.09,.07-.13s.04-.08,.06-.13c.02-.04,.03-.08,.05-.13,0-.02,0-.04,0-.06,.01-.03,.01-.05,.02-.07,0-.02,0-.04,.01-.07v-.06s0-.02,0-.03v-.04h0v-.03h0v-.02h0V1.25h0v-.02h0v-.09s0-.08,0-.12v-.11s-.01-.08-.02-.12c0-.08-.02-.15-.03-.22-.01-.04-.01-.07-.02-.11l-.03-.09s-.01-.06-.02-.09c-.01-.02-.02-.05-.03-.07,0-.03-.02-.05-.03-.07-.01-.01-.01-.02-.02-.02,0-.01,0-.02-.02-.03,0,0-.01,0-.01-.02l-.02-.02s-.01,0-.02,0c0-.01-.01-.01-.01-.01h0s-.01-.01-.01-.01c0-.01-.01-.01-.01-.01h-.03"/>
      <line class="cls-2" x1="51.08" y1="8.9" x2="51.08" y2="6.16"/>
      <path class="cls-2" d="M51.92,14.53c-.01-.17-.01-.33-.02-.51-.02-.25-.03-.5-.05-.77,0-.11-.01-.22-.02-.33,0-.08-.01-.17-.02-.26,0-.09-.01-.18-.01-.27,0-.07-.01-.14-.01-.21s-.01-.14-.01-.21c0-.04,0-.09,0-.14,0-.04,0-.09-.01-.14,0-.1-.01-.19-.02-.29-.01-.09-.02-.19-.03-.29-.01-.09-.02-.19-.04-.28-.01-.07-.03-.14-.04-.2-.02-.06-.03-.13-.05-.19-.02-.05-.03-.11-.05-.16,0-.03-.02-.06-.03-.08-.02-.05-.04-.11-.06-.15-.03-.05-.05-.1-.07-.14s-.04-.07-.07-.11c-.02-.03-.04-.07-.06-.1-.02-.02-.05-.05-.07-.08l-.07-.07-.07-.07s-.02-.01-.02-.01"/>
      <path class="cls-2" d="M5.3,8.98v-2.03c0-.3,.11-.58,.31-.79,.19-.21,.46-.34,.77-.34h11.97"/>
      <path class="cls-2" d="M4.25,15.88H1.33s-.04,0-.06,0h-.06s-.05-.01-.07-.02c-.04,0-.08-.01-.13-.03-.04-.01-.08-.02-.13-.04l-.12-.06c-.05-.02-.09-.05-.13-.07-.08-.06-.15-.12-.22-.19s-.13-.14-.18-.22c-.03-.04-.05-.09-.08-.13-.02-.04-.04-.08-.05-.13-.02-.04-.04-.08-.05-.13,0-.02-.01-.04-.02-.06,0-.03,0-.05,0-.07s-.01-.04-.01-.07c0-.02-.01-.04-.01-.06v-.07H0v-.03H0v-.02H0V1.25H0v-.02H0v-.21s.01-.08,.01-.11c0-.04,.01-.08,.01-.12,0-.08,.02-.15,.04-.22,0-.04,0-.07,.02-.11,0-.03,.01-.06,.02-.09l.03-.09s.02-.05,.03-.07c.01-.03,.02-.05,.03-.07,.01-.01,.01-.02,.02-.02,0-.01,.01-.02,.01-.03l.02-.02,.02-.02h.01s0-.02,.02-.02c0-.01,.01-.01,.01-.01h.02s.01-.01,.01-.01h.02s0,0,0,0H18.35"/>
      <line class="cls-2" x1="5.61" y1="8.9" x2="5.61" y2="6.16"/>
      <path class="cls-2" d="M5.68,9.47s-.01,.01-.02,.01c-.03,.02-.05,.05-.07,.07-.03,.02-.05,.05-.07,.07-.03,.03-.05,.06-.07,.08-.02,.03-.05,.07-.07,.1-.02,.04-.04,.07-.06,.11-.03,.04-.05,.09-.07,.14-.02,.04-.04,.1-.06,.15,0,.02-.02,.05-.03,.08-.02,.05-.04,.11-.05,.16-.02,.06-.04,.13-.05,.19-.02,.06-.03,.13-.04,.2-.02,.09-.03,.19-.04,.28-.02,.1-.03,.2-.04,.29,0,.1,0,.19-.02,.29,0,.05,0,.1-.01,.14v.14c-.01,.07-.01,.14-.01,.21,0,.07,0,.14,0,.21-.01,.09-.01,.18-.02,.27,0,.09-.01,.18-.01,.26l-.03,.33c-.01,.27-.03,.52-.04,.77-.01,.18-.02,.34-.02,.51"/>
      <polyline class="cls-2" points="18.35 5.82 28.34 5.82 38.33 5.82"/>
      <polyline class="cls-2" points="18.35 0 28.34 0 38.33 0"/>
      <polyline class="cls-2" points="18.35 23.53 28.34 23.53 38.33 23.53"/>
    </g>
  </g>
  <text class="cls-1" transform="translate(20.17 42.18)"><tspan x="0" y="0">100</tspan></text>
</svg>