<?xml version="1.0" encoding="UTF-8"?>
<svg id="_03_LINEA_FINA" data-name="03_LINEA FINA" xmlns="http://www.w3.org/2000/svg" viewBox="0 0 90.71 61.23">
  <defs>
    <style>
      .cls-1 {
        font-family: Inter18pt-Medium, 'Inter 18pt';
        font-size: 10px;
      }

      .cls-2 {
        fill: none;
        stroke: #404041;
        stroke-linecap: round;
        stroke-linejoin: round;
        stroke-width: .35px;
      }

      .cls-3 {
        fill: #f1f1f2;
      }
    </style>
  </defs>
  <g>
    <g>
      <path class="cls-3" d="M90.71,59.72v.03s0,.1-.02,.14c-.01,0-.01,.01-.01,.01l-.03,.09s-.02,.06-.04,.08c-.02,.03-.04,.07-.07,.1h0c-.03,.05-.06,.08-.1,.11h-.01s0,.02,0,.02c-.01,.01-.03,.03-.05,.04l-.09,.06s-.02,.01-.03,.02l-.12,.06h-.02s-.07,.03-.1,.04c-.04,.01-.08,.02-.13,.03-.06,.01-.12,.02-.18,.02-.05,.01-.09,.01-.13,.01-.08,0-.16,0-.24,0l-.39,.03c-1.23,.06-2.46,.13-3.7,.19-1.52,.08-3.05,.15-4.58,.2-.1,.01-.2,.01-.3,.01-.24,.01-.49,.02-.73,.03-.71,.02-1.43,.04-2.14,.06-.37,.01-.74,.02-1.12,.03h-.25c-.18,.01-.36,.01-.55,.02-.36,0-.72,0-1.08,0-.71,.02-1.41,.03-2.12,.03h-9.99s-2.84,0-2.84,0h-2.83l-28.35,.05H7.09C3.18,61.26,0,58.09,0,54.17,0,38.48,0,22.78,0,7.09,0,3.18,3.18,0,7.09,0H28.7s-.01,0-.01,0h-.02s0,0,0,.01h-.02s-.01,.01-.01,.02c0,0,0,0-.02,0,0,.01-.01,.01-.02,.02,0,.01-.01,.01-.01,.02,0,.01,0,.02-.02,.03l-.02,.02s-.02,.04-.03,.07c-.01,.02-.02,.05-.03,.07-.01,.03-.01,.06-.02,.09l-.03,.09s-.01,.07-.02,.11c-.01,.07-.02,.14-.03,.22,0,.04,0,.08,0,.12-.01,.03-.01,.07-.01,.11s-.01,.08-.01,.12v.08h0v.02h0V14.46h0v.02h0v.03h0v.05s.01,.02,.01,.03v.06s.01,.05,.02,.07c0,.02,0,.04,.01,.07,0,.02,.01,.04,.02,.06,0,.05,.02,.09,.04,.13,.02,.05,.04,.09,.06,.13s.05,.09,.07,.13c.05,.08,.12,.15,.18,.22,.07,.07,.15,.13,.23,.19,.04,.02,.08,.05,.12,.07s.09,.04,.13,.06,.08,.03,.13,.04c.04,.02,.08,.03,.13,.03,.02,.01,.04,.01,.06,.02h.06s.04,0,.07,0h2.93c0,.51,.04,1.02,.13,1.53,.13,.77,.4,1.6,.72,2.32,.17,.36,.35,.71,.55,1.06,.1,.17,.21,.33,.32,.5,.07,.11,.15,.22,.24,.32,.08,.1,.17,.19,.26,.27,0,0,0,.01,.01,.01,.09,.08,.18,.15,.28,.21,0,.01,.01,.01,.01,.01,.1,.06,.2,.12,.31,.17h0c.11,.05,.23,.09,.35,.14,.26,.09,.52,.16,.79,.23,.02,0,.03,.01,.05,.01,.04,0,.07,.02,.11,.03,.07,.01,.14,.03,.21,.05,2.95,.68,6.76,.78,9.74,.79h25.65c2.98-.01,6.79-.11,9.73-.79,.07-.02,.15-.04,.22-.05,.03-.01,.07-.02,.1-.03,.02,0,.04-.01,.06-.01,.26-.07,.53-.14,.79-.23,.19-.07,.36-.14,.52-.24,.05-.02,.1-.05,.15-.08,.11-.06,.2-.14,.29-.22,.1-.08,.19-.17,.27-.27h0c.09-.11,.16-.21,.24-.32,.11-.17,.21-.33,.31-.5,.21-.35,.39-.7,.55-1.06,.32-.72,.59-1.55,.73-2.32,.09-.51,.12-1.02,.12-1.53h2.94s.04,0,.06,0h.06s.05-.01,.07-.02c.04,0,.08-.01,.13-.03,.04-.01,.08-.02,.13-.04l.12-.06s.09-.05,.13-.07c.08-.06,.15-.12,.22-.19s.13-.14,.18-.22c.03-.04,.05-.09,.08-.13,.02-.04,.04-.08,.05-.13,.02-.04,.04-.08,.05-.13,0-.02,0-.04,.02-.06,0-.03,.01-.05,.01-.07s.01-.04,.01-.07c0-.02,0-.04,0-.06V58.75h0v.94h0v.03Z"/>
      <path class="cls-3" d="M33.96,6.17c-.19,.21-.3,.48-.3,.78v2.03c-.27,.09-.56,.21-.76,.43-.17,.2-.24,.41-.27,.66-.02,.12-.02,.24-.03,.36v.19h0v4.34c0,.31,0,.62,.01,.92h-2.92s-.05,0-.07,0h-.06s-.04-.01-.06-.02c-.05,0-.09-.01-.13-.03-.05-.01-.09-.02-.13-.04s-.09-.04-.13-.06-.08-.05-.12-.07c-.08-.06-.16-.12-.23-.19-.06-.07-.13-.14-.18-.22-.02-.04-.05-.09-.07-.13s-.04-.08-.06-.13c-.02-.04-.03-.08-.04-.13-.01-.02-.02-.04-.02-.06-.01-.03-.01-.05-.01-.07,0-.02,0-.04-.02-.07v-.06s0-.02-.01-.03v-.04h0v-.03h0v-.02h0V1.25h0v-.02h0v-.09s.01-.08,.01-.12,0-.08,.01-.11c0-.04,0-.08,0-.12,.01-.08,.02-.15,.03-.22,0-.04,0-.07,.02-.11l.03-.09s.01-.06,.02-.09c.01-.02,.02-.05,.03-.07,.01-.03,.02-.05,.03-.07l.02-.02s.01-.02,.02-.03c0,0,.01,0,.01-.02,.01-.01,.02-.01,.02-.02,.01,0,.01,0,.02,0,0-.01,.01-.01,.01-.01h.02s0-.02,0-.02h.03s0,0,0,0h61.66s0,0,0,0h.03s0,.01,0,.02t.02,.01h.01s.02,.02,.02,.03l.02,.02s0,.02,0,.03c.01,0,.01,0,.02,.02,.01,.02,.02,.04,.03,.07,.01,.02,.02,.05,.03,.07l.03,.09s.02,.06,.02,.09c.01,.04,.02,.07,.03,.11,0,.07,.02,.14,.03,.22,0,.04,.01,.08,.01,.12,0,.03,0,.07,0,.11v.2h0v.02h0V14.59s0,.04,0,.06c0,.03-.01,.05-.01,.07s-.01,.04-.01,.07c-.01,.02-.01,.04-.02,.06-.01,.05-.03,.09-.05,.13-.01,.05-.03,.09-.05,.13-.03,.04-.05,.09-.08,.13-.05,.08-.11,.15-.18,.22s-.14,.13-.22,.19c-.04,.02-.08,.05-.13,.07l-.12,.06s-.09,.03-.13,.04c-.05,.02-.09,.03-.13,.03-.02,.01-.04,.01-.07,.02h-.06s-.04,0-.06,0h-2.94c.02-.3,.02-.61,.02-.92v-4.33h0v-.2c0-.12,0-.24-.02-.36-.03-.25-.1-.46-.28-.66-.19-.22-.47-.34-.75-.43v-2.03c0-.3-.11-.58-.31-.79-.19-.21-.46-.34-.77-.34H34.74c-.31,0-.59,.14-.78,.35Z"/>
      <path class="cls-3" d="M89.87,60.55s.09-.02,.13-.03c-.04,.01-.09,.02-.13,.03Z"/>
      <path class="cls-3" d="M89.87,60.55s-.07,.02-.11,.02h-.07c.06,0,.12-.01,.18-.02Z"/>
      <path class="cls-3" d="M86.46,10.63v4.33c0,.31,0,.62-.02,.92,0,.51-.03,1.02-.12,1.53-.14,.77-.41,1.6-.73,2.32-.16,.36-.34,.71-.55,1.06-.1,.17-.2,.33-.31,.5-.08,.11-.15,.21-.24,.31h0c-.08,.11-.17,.2-.27,.28-.09,.08-.19,.16-.29,.22-.05,.03-.1,.06-.15,.08-.16,.1-.33,.17-.52,.24-.26,.09-.53,.16-.79,.23-.02,0-.04,.01-.06,.01-.03,0-.07,.02-.1,.03-.07,.01-.15,.03-.22,.05-2.94,.68-6.75,.78-9.73,.79h-25.65c-2.98-.01-6.79-.11-9.74-.79-.07-.02-.14-.04-.21-.05-.04-.01-.07-.02-.11-.03-.02,0-.03-.01-.05-.01-.27-.07-.53-.14-.79-.23-.12-.05-.24-.09-.35-.14h0c-.11-.05-.21-.11-.31-.17,0,0-.01,0-.01-.01-.1-.06-.19-.13-.28-.21-.01,0-.01-.01-.01-.01-.09-.08-.18-.17-.26-.27-.09-.1-.17-.21-.24-.32-.11-.17-.22-.33-.32-.5-.2-.35-.38-.7-.55-1.06-.32-.72-.59-1.55-.72-2.32-.09-.51-.13-1.02-.13-1.53h-.01c-.01-.3-.01-.61-.01-.92v-4.33h0v-.2c.01-.12,.01-.24,.03-.36,.03-.25,.1-.46,.27-.66,.2-.22,.49-.34,.76-.43,.03-.01,.07-.02,.1-.03,.07-.02,.13-.04,.2-.04,.49-.12,1.01-.16,1.5-.19,.24-.01,.48-.01,.73-.01h45.95c.49,0,.98,0,1.47,.01,.41,.02,.85,.06,1.28,.14,.07,.01,.14,.02,.21,.05,.02-.01,.04,0,.05,0t.02,0s.05,.01,.07,.02c.02,0,.04,0,.06,.01,.04,0,.07,.02,.11,.03,.28,.09,.56,.21,.75,.43,.18,.2,.25,.41,.28,.66,.01,.12,.02,.24,.02,.36v.19h0Z"/>
      <path class="cls-3" d="M85.41,6.95v2.03s-.07-.02-.11-.03c-.02-.01-.04-.01-.06-.01-.02-.01-.05-.02-.07-.02t-.02,0s-.03-.02-.05,0h0v-2.75c.2,.21,.31,.49,.31,.79Z"/>
      <path class="cls-3" d="M85.1,6.16v2.74c-.07-.02-.14-.03-.21-.04-.43-.08-.87-.12-1.28-.14-.49-.02-.98-.01-1.47-.01H36.19c-.25,0-.49,0-.73,.01-.49,.03-1.01,.07-1.5,.19h0v-2.74c.19-.21,.47-.35,.78-.35h49.59c.31,0,.58,.13,.77,.34Z"/>
      <path class="cls-3" d="M85.1,8.9h0c-.07-.02-.14-.03-.21-.04,.07,.01,.14,.02,.21,.04Z"/>
      <path class="cls-3" d="M83.93,22.1c.1-.06,.2-.14,.29-.22-.09,.08-.18,.16-.29,.22Z"/>
      <path class="cls-3" d="M33.96,8.9h0c-.07,.01-.13,.03-.2,.05-.03,0-.07,.02-.1,.03v-2.03c0-.3,.11-.57,.3-.78v2.73Z"/>
    </g>
    <g>
      <path class="cls-2" d="M28.35,61.26H7.09C3.18,61.26,0,58.09,0,54.17,0,38.48,0,22.78,0,7.09,0,3.18,3.18,0,7.09,0H28.7"/>
      <path class="cls-2" d="M34.03,9.47s-.01,.01-.02,.01l-.07,.07-.07,.07s-.05,.06-.07,.08c-.02,.03-.04,.07-.06,.1-.03,.04-.05,.07-.07,.11s-.04,.09-.06,.14c-.03,.04-.05,.1-.07,.15,0,.02-.02,.05-.03,.08-.01,.05-.03,.11-.05,.16-.02,.06-.03,.13-.05,.19-.01,.06-.02,.13-.04,.2-.01,.09-.03,.19-.04,.28,0,.1-.02,.2-.03,.29-.01,.1-.02,.19-.02,.29-.01,.05-.01,.1-.01,.14,0,.05-.01,.1-.01,.14,0,.07-.01,.14-.01,.21s0,.14,0,.21c0,.09-.01,.18-.01,.27-.01,.09-.01,.18-.02,.26,0,.11,0,.22-.02,.33-.02,.27-.03,.52-.05,.77-.01,.18-.01,.34-.02,.51"/>
      <path class="cls-2" d="M46.71,0H29.28"/>
      <path class="cls-2" d="M29.28,0h-.58"/>
      <path class="cls-2" d="M28.7,0h0s-.01,0-.01,0h-.02s0,0,0,.01h-.02s-.01,.01-.01,.02c0,0,0,0-.02,0,0,.01-.01,.01-.02,.02,0,.01-.01,.01-.01,.02,0,.01,0,.02-.02,.03l-.02,.02s-.02,.04-.03,.07c-.01,.02-.02,.05-.03,.07-.01,.03-.01,.06-.02,.09l-.03,.09s-.01,.07-.02,.11c-.01,.07-.02,.14-.03,.22,0,.04,0,.08,0,.12-.01,.03-.01,.07-.01,.11s-.01,.08-.01,.12v.08h0v.02h0V14.46h0v.02h0v.03h0v.05s.01,.02,.01,.03v.06s.01,.05,.02,.07c0,.02,0,.04,.01,.07,0,.02,.01,.04,.02,.06,0,.05,.02,.09,.04,.13,.02,.05,.04,.09,.06,.13s.05,.09,.07,.13c.05,.08,.12,.15,.18,.22,.07,.07,.15,.13,.23,.19,.04,.02,.08,.05,.12,.07s.09,.04,.13,.06,.08,.03,.13,.04c.04,.02,.08,.03,.13,.03,.02,.01,.04,.01,.06,.02h.06s.04,0,.07,0h2.92"/>
      <path class="cls-2" d="M46.71,23.53c-2.98-.01-6.79-.11-9.74-.79-.07-.02-.14-.04-.21-.05-.04-.01-.07-.02-.11-.03-.02,0-.03-.01-.05-.01-.27-.07-.53-.14-.79-.23-.12-.05-.24-.09-.35-.14h0c-.11-.05-.21-.11-.31-.17,0,0-.01,0-.01-.01-.1-.06-.19-.13-.28-.21-.01,0-.01-.01-.01-.01-.09-.08-.18-.17-.26-.27-.09-.1-.17-.21-.24-.32-.11-.17-.22-.33-.32-.5-.2-.35-.38-.7-.55-1.06-.32-.72-.59-1.55-.72-2.32-.09-.51-.13-1.02-.13-1.53h-.01"/>
      <path class="cls-2" d="M32.61,15.88c-.01-.3-.01-.61-.01-.92v-4.33h0v-.2c.01-.12,.01-.24,.03-.36,.03-.25,.1-.46,.27-.66,.2-.22,.49-.34,.76-.43"/>
      <path class="cls-2" d="M33.66,8.98s.07-.02,.1-.03c.07-.02,.13-.04,.2-.04"/>
      <path class="cls-2" d="M33.96,8.91c.49-.12,1.01-.16,1.5-.19,.24-.01,.48-.01,.73-.01h10.52"/>
      <path class="cls-2" d="M33.66,8.98v-2.03c0-.3,.11-.57,.3-.78s.47-.35,.78-.35h11.97"/>
      <path class="cls-2" d="M85.94,14.53c0-.17-.01-.33-.02-.51,0-.25-.03-.5-.04-.77l-.03-.33c0-.08-.01-.17-.01-.26-.01-.09-.01-.18-.02-.27,0-.07,0-.14-.01-.21,0-.07,0-.14-.01-.21v-.14s-.01-.09-.01-.14c0-.1-.02-.19-.02-.29-.01-.09-.02-.19-.03-.29-.02-.09-.03-.19-.05-.28-.01-.07-.02-.14-.04-.2-.01-.06-.03-.13-.05-.19-.01-.05-.03-.11-.05-.16-.01-.03-.02-.06-.03-.08-.02-.05-.04-.11-.06-.15-.02-.05-.04-.1-.07-.14-.02-.04-.04-.07-.06-.11-.02-.03-.05-.07-.07-.1-.02-.02-.04-.05-.07-.08-.02-.02-.04-.05-.07-.07-.02-.02-.04-.05-.07-.07-.01,0-.01-.01-.02-.01"/>
      <path class="cls-2" d="M86.46,15.88h2.92s.04,0,.06,0h.06s.05-.01,.07-.02c.04,0,.08-.01,.13-.03,.04-.01,.08-.02,.13-.04l.12-.06s.09-.05,.13-.07c.08-.06,.15-.12,.22-.19s.13-.14,.18-.22c.03-.04,.05-.09,.08-.13,.02-.04,.04-.08,.05-.13,.02-.04,.04-.08,.05-.13,0-.02,0-.04,.02-.06,0-.03,.01-.05,.01-.07s.01-.04,.01-.07c0-.02,0-.04,0-.06"/>
      <path class="cls-2" d="M90,60.52s-.09,.02-.13,.03-.07,.02-.11,.02h-.07"/>
      <path class="cls-2" d="M90.71,14.59V58.75h0v.94h0v.06s0,.1-.02,.14c-.01,0-.01,.01-.01,.01l-.03,.09s-.02,.06-.04,.08c-.02,.03-.04,.07-.07,.1h0c-.03,.05-.06,.08-.1,.11h-.01s0,.02,0,.02c-.01,.01-.03,.03-.05,.04l-.09,.06s-.02,.01-.03,.02l-.12,.06h-.02s-.07,.03-.1,.04"/>
      <path class="cls-2" d="M28.35,61.26l28.35-.05h15.66c.71,0,1.41-.02,2.12-.04,.36,0,.72,0,1.08,0,.19-.01,.37-.01,.55-.02h.25c.38-.01,.75-.02,1.12-.03,.71-.02,1.43-.04,2.14-.06,.24,0,.49-.02,.73-.03,.1,0,.2,0,.3-.01,1.53-.05,3.06-.12,4.58-.2,1.24-.06,2.47-.13,3.7-.19l.39-.03c.08,0,.16,0,.24,0,.04,0,.08,0,.13-.01,.06,0,.12-.01,.18-.02,.05,0,.09-.02,.13-.03"/>
      <path class="cls-2" d="M72.36,0h18.01s0,0,0,0h.03s0,.01,0,.02t.02,.01h.01s.02,.02,.02,.03l.02,.02s0,.02,0,.03c.01,0,.01,0,.02,.02,.01,.02,.02,.04,.03,.07,.01,.02,.02,.05,.03,.07l.03,.09s.02,.06,.02,.09c.01,.04,.02,.07,.03,.11,0,.07,.02,.14,.03,.22,0,.04,.01,.08,.01,.12,0,.03,0,.07,0,.11v.2h0v.02h0V14.59"/>
      <path class="cls-2" d="M85.1,8.91c-.07-.03-.14-.04-.21-.05-.43-.08-.87-.12-1.28-.14-.49-.02-.98-.01-1.47-.01h-9.78"/>
      <path class="cls-2" d="M72.36,23.53c2.98-.01,6.79-.11,9.73-.79,.07-.02,.15-.04,.22-.05,.03-.01,.07-.02,.1-.03,.02,0,.04-.01,.06-.01,.26-.07,.53-.14,.79-.23,.19-.07,.36-.14,.52-.24,.05-.02,.1-.05,.15-.08,.1-.06,.2-.14,.29-.22"/>
      <path class="cls-2" d="M84.22,21.88c-.09,.08-.18,.16-.29,.22"/>
      <path class="cls-2" d="M84.22,21.88c.1-.08,.19-.17,.27-.27h0c.09-.11,.16-.21,.24-.32,.11-.17,.21-.33,.31-.5,.21-.35,.39-.7,.55-1.06,.32-.72,.59-1.55,.73-2.32,.09-.51,.12-1.02,.12-1.53"/>
      <path class="cls-2" d="M86.44,15.88c.02-.3,.02-.61,.02-.92v-4.33h0v-.2c0-.12,0-.24-.02-.36-.03-.25-.1-.46-.28-.66-.19-.22-.47-.34-.75-.43"/>
      <path class="cls-2" d="M85.41,8.98s-.07-.02-.11-.03c-.02-.01-.04-.01-.06-.01-.02-.01-.05-.02-.07-.02t-.02,0s-.03-.02-.05,0"/>
      <path class="cls-2" d="M84.89,8.86c.07,.01,.14,.02,.21,.04h0"/>
      <path class="cls-2" d="M85.41,8.98v-2.03c0-.3-.11-.58-.31-.79"/>
      <path class="cls-2" d="M72.36,5.82h11.97c.31,0,.58,.13,.77,.34"/>
      <line class="cls-2" x1="46.71" y1="0" x2="72.36" y2="0"/>
      <line class="cls-2" x1="46.71" y1="5.82" x2="72.36" y2="5.82"/>
      <polyline class="cls-2" points="46.71 8.71 56.7 8.71 59.53 8.71 62.37 8.71 72.36 8.71"/>
      <line class="cls-2" x1="33.96" y1="8.9" x2="33.96" y2="6.17"/>
      <line class="cls-2" x1="33.96" y1="6.16" x2="33.96" y2="6.17"/>
      <line class="cls-2" x1="85.1" y1="8.9" x2="85.1" y2="6.16"/>
      <line class="cls-2" x1="46.71" y1="23.53" x2="72.36" y2="23.53"/>
    </g>
  </g>
  <text class="cls-1" transform="translate(50.35 42.18)"><tspan x="0" y="0">110</tspan></text>
</svg>