<?xml version="1.0" encoding="UTF-8"?>
<svg id="_03_LINEA_FINA" data-name="03_LINEA FINA" xmlns="http://www.w3.org/2000/svg" viewBox="0 0 79.37 61.23">
  <defs>
    <style>
      .cls-1 {
        font-family: Inter18pt-Medium, 'Inter 18pt';
        font-size: 10px;
      }

      .cls-2 {
        fill: none;
        stroke: #404041;
        stroke-linecap: round;
        stroke-linejoin: round;
        stroke-width: .35px;
      }

      .cls-3 {
        fill: #f1f1f2;
      }
    </style>
  </defs>
  <g>
    <g>
      <path class="cls-3" d="M79.37,59.72v.03s-.01,.08-.03,.12t0,.02c0,.05-.03,.1-.06,.15-.01,.03-.04,.07-.06,.1s-.05,.06-.07,.08c-.04,.05-.09,.08-.14,.12-.04,.03-.08,.06-.12,.08s-.07,.04-.11,.06h-.02s-.07,.03-.1,.04c-.04,.01-.09,.02-.13,.03-.06,.01-.12,.02-.18,.02-.05,.01-.09,.01-.14,.01-.08,0-.16,0-.24,0-.12,.01-.25,.02-.38,.03-1.23,.06-2.47,.13-3.7,.19-1.53,.08-3.06,.15-4.59,.2-.09,.01-.19,.01-.29,.01-.24,.01-.49,.02-.74,.03l-2.13,.06c-.37,.01-.75,.02-1.12,.03h-.25c-.18,.01-.37,.01-.55,.02-.36,0-.72,0-1.08,0-.71,.02-1.42,.03-2.12,.03h-7.16s-7.16,0-7.16,0H7.09C3.17,61.2,0,58.03,0,54.12V7.09C0,3.18,3.17,0,7.09,0H28.69s0,0-.01,0h-.03s-.01,.01-.01,.02t-.02,.01h-.01s-.01,.02-.02,.03l-.02,.02s-.01,.02-.01,.03c-.01,0-.01,0-.02,.02-.01,.02-.02,.04-.03,.07,0,.02-.02,.05-.03,.07l-.03,.09s-.02,.06-.02,.09c-.01,.04-.02,.07-.02,.11-.02,.07-.03,.14-.04,.22,0,.04-.01,.08-.01,.12,0,.03,0,.07-.01,.11v.2h0v.02h0V14.46h0v.02h0v.03h0v.08s.01,.04,.01,.06c0,.03,.01,.05,.01,.07s0,.04,0,.07c.01,.02,.02,.04,.02,.06,.01,.05,.03,.09,.05,.13,.01,.05,.03,.09,.06,.13,.02,.04,.04,.09,.07,.13,.05,.08,.11,.15,.18,.22s.14,.13,.22,.19c.04,.02,.09,.05,.13,.07l.12,.06c.05,.02,.09,.03,.13,.04,.05,.02,.09,.03,.13,.03,.02,.01,.04,.01,.07,.02h.06s.04,0,.06,0h2.94c0,.51,.03,1.02,.12,1.53,.14,.77,.41,1.6,.73,2.32,.16,.36,.34,.71,.55,1.06,.1,.17,.2,.33,.31,.5,.08,.1,.15,.21,.24,.31s.17,.2,.27,.28c.09,.08,.18,.16,.29,.22,0,.01,.01,.01,.01,.01,.1,.06,.2,.12,.31,.17h.01c.11,.05,.22,.09,.34,.14,.26,.09,.53,.16,.79,.23,.02,0,.04,.01,.06,.01,.03,0,.07,.02,.1,.03,.07,.01,.15,.03,.22,.05,2.94,.68,6.75,.78,9.73,.79h14.32c2.97-.01,6.78-.11,9.73-.79,.07-.02,.14-.04,.22-.05,.03-.01,.07-.02,.1-.03,.02,0,.04-.01,.05-.01,.27-.07,.53-.14,.79-.23,.19-.07,.37-.14,.53-.24,.16-.08,.31-.18,.44-.3,.1-.08,.18-.18,.27-.28,.02-.02,.04-.04,.05-.07,.07-.07,.13-.16,.19-.24,.11-.17,.21-.33,.31-.5,.2-.35,.39-.7,.55-1.06,.32-.72,.59-1.55,.73-2.32,.09-.51,.12-1.02,.13-1.53h2.93s.04,0,.06,0h.06s.04-.01,.07-.02c.04,0,.08-.01,.12-.03,.05-.01,.09-.02,.13-.04,.05-.02,.09-.04,.13-.06s.08-.05,.12-.07c.08-.06,.16-.12,.23-.19s.13-.14,.18-.22c.03-.04,.05-.09,.07-.13s.04-.08,.06-.13c.02-.04,.03-.08,.05-.13,0-.02,.01-.04,.01-.06,0-.03,0-.05,.02-.07,0-.02,0-.04,.01-.07v-.06s.01-.02,.01-.03V58.75h0v.94h0v.03Z"/>
      <path class="cls-3" d="M79.37,12.19v2.37s0,.02-.01,.03v.06s-.01,.05-.01,.07c-.01,.02-.01,.04-.02,.07,0,.02-.01,.04-.01,.06-.02,.05-.03,.09-.05,.13-.02,.05-.04,.09-.06,.13s-.04,.09-.07,.13c-.05,.08-.11,.15-.18,.22s-.15,.13-.23,.19c-.04,.02-.08,.05-.12,.07s-.08,.04-.13,.06c-.04,.02-.08,.03-.13,.04-.04,.02-.08,.03-.12,.03-.03,.01-.05,.01-.07,.02h-.06s-.04,0-.06,0h-2.93c.01-.3,.01-.61,.01-.92v-4.33h0v-.2c0-.12-.01-.24-.02-.36-.04-.25-.1-.46-.28-.66-.2-.22-.47-.34-.75-.43v-2.03c0-.3-.12-.58-.31-.79-.2-.21-.47-.34-.78-.34H34.74c-.32,0-.59,.13-.78,.34-.2,.21-.31,.49-.31,.79v2.03c-.12,.04-.24,.08-.35,.14-.15,.07-.28,.16-.4,.29-.18,.2-.25,.41-.28,.66-.01,.12-.02,.24-.02,.36v.19h0v4.34c0,.3,0,.6,.01,.9,0,.01,.01,.02,.01,.02h-2.94s-.04,0-.06,0h-.06s-.05-.01-.07-.02c-.04,0-.08-.01-.13-.03-.04-.01-.08-.02-.13-.04l-.12-.06s-.09-.05-.13-.07c-.08-.06-.15-.12-.22-.19s-.13-.14-.18-.22c-.03-.04-.05-.09-.07-.13-.03-.04-.05-.08-.06-.13-.02-.04-.04-.08-.05-.13,0-.02-.01-.04-.02-.06,0-.03,0-.05,0-.07s-.01-.04-.01-.07c0-.02-.01-.04-.01-.06v-.07h0v-.03h0v-.02h0V1.25h0v-.02h0v-.21s.01-.08,.01-.11c0-.04,.01-.08,.01-.12,0-.08,.02-.15,.04-.22,0-.04,0-.07,.02-.11,0-.03,.01-.06,.02-.09l.03-.09s.02-.05,.03-.07c.01-.03,.02-.05,.03-.07,0-.01,0-.02,.02-.02,0-.01,.01-.02,.01-.03l.02-.02,.02-.02h.01s0-.02,.02-.02c0-.01,.01-.01,.01-.01h.02s.01-.01,.01-.01h.02s0,0,.01,0h50.32s.01,0,.01,0h0s.01,0,.01,.01h.01s.01,0,.01,.01c0,0,0,0,0,.01,.01,0,.02,0,.02,0l.02,.02s.01,.01,.01,.02c.01,.01,.02,.02,.02,.03,0,0,0,0,.02,.02,.01,.02,.02,.04,.03,.07,0,.02,.02,.05,.03,.07l.03,.09s.01,.06,.02,.09c0,.04,.02,.07,.02,.11,.02,.07,.03,.14,.04,.22,0,.04,0,.08,.01,.12v.11s.01,.08,.01,.12v.08h0v.02h0V12.19Z"/>
      <path class="cls-3" d="M79.22,60.14s.05-.07,.06-.1c-.01,.03-.04,.07-.06,.1Z"/>
      <path class="cls-3" d="M79.15,60.22s-.05,.05-.07,.07-.04,.04-.07,.05c.05-.04,.1-.07,.14-.12Z"/>
      <path class="cls-3" d="M78.53,60.55s.09-.02,.13-.03c-.04,.01-.09,.02-.13,.03Z"/>
      <path class="cls-3" d="M78.53,60.55s-.07,.02-.11,.02h-.07c.06,0,.12-.01,.18-.02Z"/>
      <path class="cls-3" d="M75.12,10.63v4.33c0,.31,0,.62-.01,.92-.01,.51-.04,1.02-.13,1.53-.14,.77-.41,1.6-.73,2.32-.16,.36-.35,.71-.55,1.06-.1,.17-.2,.33-.31,.5-.06,.08-.12,.17-.19,.24-.01,.03-.03,.05-.05,.07-.09,.1-.17,.2-.27,.28-.13,.12-.28,.22-.44,.3-.16,.1-.34,.17-.53,.24-.26,.09-.52,.16-.79,.23-.01,0-.03,.01-.05,.01-.03,0-.07,.02-.1,.03-.08,.01-.15,.03-.22,.05-2.95,.68-6.76,.78-9.73,.79h-14.32c-2.98-.01-6.79-.11-9.73-.79-.07-.02-.15-.04-.22-.05-.03-.01-.07-.02-.1-.03-.02,0-.04-.01-.06-.01-.26-.07-.53-.14-.79-.23-.12-.05-.23-.09-.34-.14h-.01c-.11-.05-.21-.11-.31-.17,0,0-.01,0-.01-.01-.1-.06-.2-.14-.29-.22-.1-.08-.18-.18-.27-.28s-.16-.21-.24-.31c-.11-.17-.21-.33-.31-.5-.21-.35-.39-.7-.55-1.06-.32-.72-.59-1.55-.73-2.32-.09-.51-.12-1.02-.12-1.53,0,0-.01,0-.01-.02-.01-.3-.01-.6-.01-.9v-4.33h0v-.2c0-.12,.01-.24,.02-.36,.03-.25,.1-.46,.28-.66,.12-.13,.25-.22,.4-.29,.11-.06,.23-.1,.35-.14,.04-.01,.07-.02,.11-.03,.07-.02,.13-.04,.2-.04,.49-.12,1.01-.16,1.49-.19,.49-.02,.98-.01,1.47-.01h33.88c.49,0,.98,0,1.47,.01,.48,.03,1,.07,1.49,.19,.07,0,.13,.02,.2,.04,.04,0,.07,.02,.11,.03,.28,.09,.55,.21,.75,.43,.18,.2,.24,.41,.28,.66,.01,.12,.02,.24,.02,.36v.19h0Z"/>
      <path class="cls-3" d="M74.07,6.95v2.03s-.07-.02-.11-.03c-.07-.02-.13-.04-.2-.04h0v-2.75c.19,.21,.31,.49,.31,.79Z"/>
      <path class="cls-3" d="M73.76,8.9h0c-.49-.11-1.01-.15-1.49-.18-.49-.02-.98-.01-1.47-.01H36.92c-.49,0-.98,0-1.47,.01-.48,.03-1,.07-1.49,.19h0v-2.75c.19-.21,.46-.34,.78-.34h38.24c.31,0,.58,.13,.78,.34v2.74Z"/>
      <path class="cls-3" d="M34.84,21.88c.09,.08,.19,.16,.29,.22-.11-.06-.2-.14-.29-.22Z"/>
      <path class="cls-3" d="M33.96,8.9h0c-.07,.01-.13,.03-.2,.05-.04,0-.07,.02-.11,.03v-2.03c0-.3,.11-.58,.31-.79v2.74Z"/>
    </g>
    <g>
      <line class="cls-2" x1="46.7" y1="61.2" x2="28.35" y2="61.2"/>
      <path class="cls-2" d="M28.35,61.2H7.09C3.17,61.2,0,58.03,0,54.12V7.09C0,3.18,3.17,0,7.09,0H28.69"/>
      <path class="cls-2" d="M74.6,14.53c0-.17-.01-.33-.02-.51-.01-.25-.03-.5-.05-.77,0-.11-.01-.22-.02-.33,0-.08,0-.17,0-.26-.01-.09-.01-.18-.02-.27,0-.07-.01-.14-.01-.21s0-.14,0-.21c0-.04,0-.09-.01-.14,0-.04,0-.09-.01-.14,0-.1-.01-.19-.02-.29,0-.09-.02-.19-.03-.29-.01-.09-.02-.19-.04-.28-.01-.07-.03-.14-.04-.2-.02-.06-.03-.13-.05-.19-.02-.05-.03-.11-.05-.16-.01-.03-.02-.06-.03-.08-.02-.05-.04-.11-.06-.15-.02-.05-.05-.1-.07-.14s-.04-.07-.07-.11c-.02-.03-.04-.07-.06-.1-.02-.02-.05-.05-.07-.08-.02-.02-.04-.05-.07-.07l-.07-.07s-.02-.01-.02-.01"/>
      <line class="cls-2" x1="73.76" y1="8.9" x2="73.76" y2="6.16"/>
      <path class="cls-2" d="M75.11,15.88h2.93s.04,0,.06,0h.06s.04-.01,.07-.02c.04,0,.08-.01,.12-.03,.05-.01,.09-.02,.13-.04,.05-.02,.09-.04,.13-.06s.08-.05,.12-.07c.08-.06,.16-.12,.23-.19s.13-.14,.18-.22c.03-.04,.05-.09,.07-.13s.04-.08,.06-.13c.02-.04,.03-.08,.05-.13,0-.02,.01-.04,.01-.06,0-.03,0-.05,.02-.07,0-.02,0-.04,.01-.07v-.06s.01-.02,.01-.03"/>
      <path class="cls-2" d="M78.66,60.52s-.09,.02-.13,.03-.07,.02-.11,.02h-.07c-.05,.01-.09,.01-.14,.01-.08,0-.16,0-.24,0-.12,.01-.25,.02-.38,.03-1.23,.06-2.47,.13-3.7,.19-1.53,.08-3.06,.15-4.59,.2-.09,.01-.19,.01-.29,.01-.24,.01-.49,.02-.74,.03l-2.13,.06c-.37,.01-.75,.02-1.12,.03h-.25c-.18,.01-.37,.01-.55,.02-.36,0-.72,0-1.08,0-.71,.02-1.42,.03-2.12,.03"/>
      <path class="cls-2" d="M79.15,60.22s-.05,.05-.07,.07-.04,.04-.07,.05"/>
      <path class="cls-2" d="M79.28,60.04s-.04,.07-.06,.1"/>
      <path class="cls-2" d="M79.37,14.56V58.75h0v.94h0v.06s-.01,.08-.03,.12t0,.02c0,.05-.03,.1-.06,.15"/>
      <path class="cls-2" d="M79.22,60.14s.05-.07,.06-.1"/>
      <path class="cls-2" d="M79.22,60.14s-.05,.06-.07,.08"/>
      <path class="cls-2" d="M79.01,60.34c.05-.04,.1-.07,.14-.12"/>
      <path class="cls-2" d="M79.01,60.34s-.08,.06-.12,.08-.07,.04-.11,.06h-.02s-.07,.03-.1,.04"/>
      <path class="cls-2" d="M78.35,60.57c.06,0,.12-.01,.18-.02,.04,0,.09-.02,.13-.03"/>
      <path class="cls-2" d="M61.02,0h18.01s.01,0,.01,0h0s.01,0,.01,.01h.01s.01,0,.01,.01c0,0,0,0,0,.01,.01,0,.02,0,.02,0l.02,.02s.01,.01,.01,.02c.01,.01,.02,.02,.02,.03,0,0,0,0,.02,.02,.01,.02,.02,.04,.03,.07,0,.02,.02,.05,.03,.07l.03,.09s.01,.06,.02,.09c0,.04,.02,.07,.02,.11,.02,.07,.03,.14,.04,.22,0,.04,0,.08,.01,.12v.11s.01,.08,.01,.12v.08h0v.02h0V14.56"/>
      <path class="cls-2" d="M61.02,23.53c2.97-.01,6.78-.11,9.73-.79,.07-.02,.14-.04,.22-.05,.03-.01,.07-.02,.1-.03,.02,0,.04-.01,.05-.01,.27-.07,.53-.14,.79-.23,.19-.07,.37-.14,.53-.24,.16-.08,.31-.18,.44-.3,.1-.08,.18-.18,.27-.28,.02-.02,.04-.04,.05-.07,.07-.07,.13-.16,.19-.24,.11-.17,.21-.33,.31-.5,.2-.35,.39-.7,.55-1.06,.32-.72,.59-1.55,.73-2.32,.09-.51,.12-1.02,.13-1.53"/>
      <path class="cls-2" d="M75.11,15.88c.01-.3,.01-.61,.01-.92v-4.33h0v-.2c0-.12-.01-.24-.02-.36-.04-.25-.1-.46-.28-.66-.2-.22-.47-.34-.75-.43"/>
      <path class="cls-2" d="M74.07,8.98s-.07-.02-.11-.03c-.07-.02-.13-.04-.2-.04"/>
      <path class="cls-2" d="M73.76,8.91c-.49-.12-1.01-.16-1.49-.19-.49-.02-.98-.01-1.47-.01h-9.78"/>
      <path class="cls-2" d="M74.07,8.98v-2.03c0-.3-.12-.58-.31-.79"/>
      <path class="cls-2" d="M61.02,5.82h11.96c.31,0,.58,.13,.78,.34"/>
      <path class="cls-2" d="M34.03,9.47s-.01,.01-.02,.01c-.03,.02-.05,.05-.07,.07-.03,.02-.05,.05-.07,.07-.03,.03-.05,.06-.07,.08-.02,.03-.05,.07-.07,.1-.02,.04-.04,.07-.06,.11-.03,.04-.05,.09-.07,.14-.02,.04-.04,.1-.06,.15-.01,.02-.02,.05-.03,.08-.02,.05-.04,.11-.05,.16-.02,.06-.04,.13-.05,.19-.02,.06-.03,.13-.04,.2-.02,.09-.03,.19-.04,.28-.02,.1-.03,.2-.03,.29,0,.1-.02,.19-.03,.29,0,.05,0,.1-.01,.14v.14c0,.07,0,.14,0,.21-.01,.07-.01,.14-.01,.21-.01,.09-.01,.18-.02,.27,0,.09,0,.18,0,.26l-.03,.33c-.01,.27-.03,.52-.04,.77-.01,.18-.02,.34-.02,.51"/>
      <line class="cls-2" x1="33.96" y1="8.9" x2="33.96" y2="6.16"/>
      <path class="cls-2" d="M46.7,0H29.28"/>
      <path class="cls-2" d="M29.28,0h-.59"/>
      <path class="cls-2" d="M28.69,0h0s0,0-.01,0h-.03s-.01,.01-.01,.02t-.02,.01h-.01s-.01,.02-.02,.03l-.02,.02s-.01,.02-.01,.03c-.01,0-.01,0-.02,.02-.01,.02-.02,.04-.03,.07,0,.02-.02,.05-.03,.07l-.03,.09s-.02,.06-.02,.09c-.01,.04-.02,.07-.02,.11-.02,.07-.03,.14-.04,.22,0,.04-.01,.08-.01,.12,0,.03,0,.07-.01,.11v.2h0v.02h0V14.46h0v.02h0v.03h0v.08s.01,.04,.01,.06c0,.03,.01,.05,.01,.07s0,.04,0,.07c.01,.02,.02,.04,.02,.06,.01,.05,.03,.09,.05,.13,.01,.05,.03,.09,.06,.13,.02,.04,.04,.09,.07,.13,.05,.08,.11,.15,.18,.22s.14,.13,.22,.19c.04,.02,.09,.05,.13,.07l.12,.06c.05,.02,.09,.03,.13,.04,.05,.02,.09,.03,.13,.03,.02,.01,.04,.01,.07,.02h.06s.04,0,.06,0h2.92"/>
      <path class="cls-2" d="M46.7,23.53c-2.98-.01-6.79-.11-9.73-.79-.07-.02-.15-.04-.22-.05-.03-.01-.07-.02-.1-.03-.02,0-.04-.01-.06-.01-.26-.07-.53-.14-.79-.23-.12-.05-.23-.09-.34-.14h-.01c-.11-.05-.21-.11-.31-.17,0,0-.01,0-.01-.01-.1-.06-.2-.14-.29-.22"/>
      <path class="cls-2" d="M34.84,21.88c.09,.08,.18,.16,.29,.22"/>
      <path class="cls-2" d="M34.84,21.88c-.1-.08-.18-.18-.27-.28s-.16-.21-.24-.31c-.11-.17-.21-.33-.31-.5-.21-.35-.39-.7-.55-1.06-.32-.72-.59-1.55-.73-2.32-.09-.51-.12-1.02-.12-1.53"/>
      <path class="cls-2" d="M32.62,15.88s-.01,0-.01-.02c-.01-.3-.01-.6-.01-.9v-4.33h0v-.2c0-.12,.01-.24,.02-.36,.03-.25,.1-.46,.28-.66,.12-.13,.25-.22,.4-.29,.11-.06,.23-.1,.35-.14"/>
      <path class="cls-2" d="M33.65,8.98s.07-.02,.11-.03c.07-.02,.13-.04,.2-.04"/>
      <path class="cls-2" d="M33.96,8.91c.49-.12,1.01-.16,1.49-.19,.49-.02,.98-.01,1.47-.01h9.78"/>
      <path class="cls-2" d="M46.7,5.82h-11.96c-.32,0-.59,.13-.78,.34"/>
      <path class="cls-2" d="M33.65,8.98v-2.03c0-.3,.11-.58,.31-.79"/>
      <polyline class="cls-2" points="46.7 61.2 53.86 61.21 61.02 61.2"/>
      <polyline class="cls-2" points="46.7 23.53 53.86 23.53 61.02 23.53"/>
      <polyline class="cls-2" points="46.7 0 53.86 0 61.02 0"/>
      <polyline class="cls-2" points="46.7 5.82 53.86 5.82 61.02 5.82"/>
      <polyline class="cls-2" points="46.7 8.71 53.86 8.71 61.02 8.71"/>
    </g>
  </g>
  <text class="cls-1" transform="translate(45.88 42.18)"><tspan x="0" y="0">90</tspan></text>
</svg>