<?xml version="1.0" encoding="UTF-8"?>
<svg id="_03_LINEA_FINA" data-name="03_LINEA FINA" xmlns="http://www.w3.org/2000/svg" viewBox="0 0 79.37 61.23">
  <defs>
    <style>
      .cls-1 {
        font-family: Inter18pt-Medium, 'Inter 18pt';
        font-size: 10px;
      }

      .cls-2 {
        fill: none;
        stroke: #404041;
        stroke-linecap: round;
        stroke-linejoin: round;
        stroke-width: .35px;
      }

      .cls-3 {
        fill: #f1f1f2;
      }
    </style>
  </defs>
  <g>
    <g>
      <path class="cls-3" d="M79.37,7.09V54.12c0,3.91-3.18,7.08-7.09,7.08H25.51s-7.16,0-7.16,0c-.7,0-1.41-.01-2.12-.03-.36,0-.72,0-1.08,0-.18-.01-.37-.01-.55-.02h-.25c-.38-.01-.75-.02-1.12-.03-.71-.02-1.42-.04-2.14-.06-.24,0-.49-.02-.73-.03-.1,0-.2,0-.3-.01-1.53-.05-3.05-.12-4.58-.2-1.24-.06-2.47-.13-3.7-.19l-.39-.03c-.08,0-.16,0-.24,0-.04,0-.08,0-.13-.01-.06,0-.12-.01-.18-.02l-.12-.03s-.03-.01-.05-.01c-.08-.03-.16-.07-.23-.11-.03-.02-.05-.04-.08-.06-.05-.04-.1-.07-.14-.12-.04-.04-.08-.08-.11-.13,0,0,0,0,0-.02-.03-.05-.05-.09-.06-.14-.02-.05-.03-.1-.03-.15-.01-.01-.01-.02-.01-.03v-.05H0v-.94H0V14.59s.01,.04,.01,.06c0,.03,.01,.05,.01,.07,0,.02,0,.04,.02,.07,0,.02,.01,.04,.01,.06,.01,.05,.03,.09,.05,.13,0,.05,.03,.09,.06,.13,.02,.04,.04,.09,.07,.13,.05,.08,.11,.15,.18,.22s.15,.13,.22,.19c.04,.02,.09,.05,.13,.07l.12,.06c.05,.02,.09,.03,.13,.04,.05,.02,.09,.03,.13,.03,.02,.01,.05,.01,.07,.02h.06s.04,0,.06,0h2.94c0,.51,.03,1.02,.12,1.53,.14,.77,.41,1.6,.73,2.32,.16,.36,.35,.71,.55,1.06,.1,.17,.2,.33,.31,.5l.12,.15c.04,.06,.08,.12,.13,.17,.08,.1,.17,.19,.26,.27,0,0,0,.01,.01,.01,.09,.08,.18,.15,.28,.21,0,.01,.01,.01,.01,.01,.1,.06,.2,.12,.31,.17h0c.11,.05,.22,.09,.34,.14,.26,.09,.53,.16,.79,.23,.02,0,.04,.01,.06,.01,.03,0,.07,.02,.1,.03,.07,.01,.15,.03,.22,.05,2.95,.68,6.75,.78,9.73,.79h14.32c2.97-.01,6.78-.11,9.73-.79,.07-.02,.14-.04,.22-.05,.03-.01,.07-.02,.1-.03,.02,0,.04-.01,.05-.01,.26-.07,.53-.14,.78-.23h.02c.12-.04,.23-.09,.34-.14,.06-.03,.13-.06,.18-.1,.16-.08,.31-.18,.44-.3,.1-.08,.18-.18,.27-.28,.02-.02,.04-.04,.05-.07,.07-.07,.13-.16,.19-.24,.11-.17,.21-.33,.31-.5,.2-.35,.39-.7,.55-1.06,.32-.72,.59-1.55,.73-2.32,.09-.51,.12-1.02,.13-1.53h2.93s.04,0,.06,0h.06s.05-.01,.07-.02c.04,0,.08-.01,.13-.03,.04-.01,.08-.02,.12-.04,.05-.02,.09-.04,.13-.06s.08-.05,.12-.07c.08-.06,.16-.12,.23-.19s.13-.14,.18-.22c.03-.04,.05-.09,.07-.13,.03-.04,.04-.08,.06-.13,.02-.04,.03-.08,.05-.13,0-.02,.01-.04,.01-.06,.01-.03,.01-.05,.02-.07,0-.02,.01-.04,.01-.07,0-.02,0-.04,.01-.06v-.07h0v-.03h0v-.02h0V1.25h0v-.02h0v-.21s-.01-.08-.01-.11c-.01-.04-.01-.08-.01-.12-.01-.08-.02-.15-.04-.22,0-.04-.01-.07-.02-.11,0-.03,0-.06-.02-.09l-.03-.09s-.02-.05-.03-.07c0-.03-.02-.05-.03-.07-.01-.01-.01-.02-.02-.02,0-.01-.01-.02-.01-.03-.01,0-.02,0-.02-.02l-.02-.02h-.01s-.02-.02-.02-.02c0-.01-.01-.01-.01-.01h-.01s0-.01-.01-.01h-.02s-.01,0-.01,0h21.61c3.92,0,7.09,3.18,7.09,7.09Z"/>
      <path class="cls-3" d="M51.02,14.56v.03s-.01,.04-.01,.06c0,.03-.01,.05-.01,.07-.01,.02-.01,.04-.02,.07,0,.02-.01,.04-.01,.06-.02,.05-.03,.09-.05,.13-.02,.05-.03,.09-.06,.13-.02,.04-.04,.09-.07,.13-.05,.08-.11,.15-.18,.22s-.15,.13-.23,.19c-.04,.02-.08,.05-.12,.07s-.08,.04-.13,.06c-.04,.02-.08,.03-.12,.04-.05,.02-.09,.03-.13,.03-.02,.01-.05,.01-.07,.02h-.06s-.04,0-.06,0h-2.93c.01-.3,.01-.61,.01-.92v-4.33h0v-.2c0-.12-.01-.24-.02-.36-.03-.25-.1-.46-.28-.66-.2-.22-.47-.34-.75-.43v-2.03c0-.3-.12-.58-.31-.79-.2-.21-.47-.34-.78-.34H6.39c-.32,0-.59,.13-.78,.34-.2,.21-.31,.49-.31,.79v2.03c-.12,.04-.24,.08-.35,.14-.15,.07-.28,.16-.4,.29-.18,.2-.25,.41-.28,.66-.01,.12-.02,.24-.02,.36v.19h0v4.34c0,.3,0,.6,.01,.9,0,.01,.01,.02,.01,.02H1.33s-.04,0-.06,0h-.06s-.05-.01-.07-.02c-.04,0-.08-.01-.13-.03-.04-.01-.08-.02-.13-.04l-.12-.06s-.09-.05-.13-.07c-.07-.06-.15-.12-.22-.19s-.13-.14-.18-.22c-.03-.04-.05-.09-.07-.13-.03-.04-.05-.08-.06-.13-.02-.04-.04-.08-.05-.13,0-.02-.01-.04-.01-.06-.01-.03-.01-.05-.02-.07,0-.02-.01-.04-.01-.07,0-.02,0-.04-.01-.06V1.25H0v-.02H0v-.21s.01-.08,.01-.11c0-.04,.01-.08,.01-.12,0-.08,.02-.15,.04-.22,0-.04,.01-.07,.02-.11,.01-.03,.01-.06,.02-.09l.03-.09s.02-.05,.03-.07c.01-.03,.02-.05,.03-.07,.01-.01,.01-.02,.02-.02,0-.01,.01-.02,.01-.03l.02-.02,.02-.02h.01s0-.02,.02-.02c0-.01,.01-.01,.01-.01h.01s0-.01,.01-.01h.04s.01,0,.02,0H50.67s0,0,.01,0h.02s.01,0,.01,.01h.01s.01,0,.01,.01c0,0,.01,0,.02,.01h.01s.01,.02,.02,.03c0,.01,.01,.01,.02,.02,0,.01,.01,.02,.01,.03,.01,0,.01,0,.02,.02,.01,.02,.02,.04,.03,.07,.01,.02,.02,.05,.03,.07l.03,.09s.01,.06,.02,.09c.01,.04,.02,.07,.02,.11,.02,.07,.03,.14,.04,.22,0,.04,0,.08,.01,.12,0,.03,0,.07,.01,.11v.2h0v.02h0V14.46h0v.02h0v.03h0v.05Z"/>
      <path class="cls-3" d="M46.77,10.63v4.33c0,.31,0,.62-.01,.92-.01,.51-.04,1.02-.13,1.53-.14,.77-.41,1.6-.73,2.32-.16,.36-.35,.71-.55,1.06-.1,.17-.2,.33-.31,.5-.06,.08-.12,.17-.19,.24-.01,.03-.03,.05-.05,.07-.09,.1-.17,.2-.27,.28-.13,.12-.28,.22-.44,.3-.05,.04-.12,.07-.18,.1-.12,.05-.24,.1-.36,.14-.25,.09-.52,.16-.78,.23-.01,0-.03,.01-.05,.01-.03,0-.07,.02-.1,.03-.08,.01-.15,.03-.22,.05-2.95,.68-6.76,.78-9.73,.79h-14.32c-2.98-.01-6.78-.11-9.73-.79-.07-.02-.15-.04-.22-.05-.03-.01-.07-.02-.1-.03-.02,0-.04-.01-.06-.01-.26-.07-.53-.14-.79-.23-.12-.05-.23-.09-.34-.14h0c-.11-.05-.21-.11-.31-.17,0,0-.01,0-.01-.01-.1-.06-.19-.13-.28-.21-.01,0-.01-.01-.01-.01-.09-.08-.18-.17-.26-.27-.05-.05-.09-.11-.13-.17l-.12-.15c-.11-.17-.21-.33-.31-.5-.2-.35-.39-.7-.55-1.06-.32-.72-.59-1.55-.73-2.32-.09-.51-.12-1.02-.12-1.53,0,0-.01,0-.01-.02-.01-.3-.01-.6-.01-.9v-4.33h0v-.2c0-.12,.01-.24,.02-.36,.03-.25,.1-.46,.28-.66,.12-.13,.25-.22,.4-.29,.11-.06,.23-.1,.35-.14,.04-.01,.07-.02,.11-.03,.07-.02,.13-.04,.2-.04,.49-.12,1.01-.16,1.49-.19,.49-.02,.98-.01,1.47-.01H42.45c.49,0,.98,0,1.47,.01,.48,.03,1,.07,1.49,.19,.07,0,.13,.02,.2,.04,.04,0,.07,.02,.11,.03,.28,.09,.55,.21,.75,.43,.18,.2,.25,.41,.28,.66,.01,.12,.02,.24,.02,.36v.19h0Z"/>
      <path class="cls-3" d="M45.72,6.95v2.03s-.07-.02-.11-.03c-.07-.02-.13-.04-.2-.04h0v-2.75c.19,.21,.31,.49,.31,.79Z"/>
      <path class="cls-3" d="M45.41,8.9h0c-.49-.11-1.01-.15-1.49-.18-.49-.02-.98-.01-1.47-.01H8.57c-.49,0-.98,0-1.47,.01-.48,.03-1,.07-1.49,.19h0v-2.75c.19-.21,.46-.34,.78-.34H44.63c.31,0,.58,.13,.78,.34v2.74Z"/>
      <path class="cls-3" d="M43.91,22.28c-.11,.05-.22,.1-.34,.14h-.02c.12-.04,.24-.09,.36-.14Z"/>
      <path class="cls-3" d="M5.61,8.9h0c-.07,.01-.13,.03-.2,.05-.04,0-.07,.02-.11,.03v-2.03c0-.3,.11-.58,.31-.79v2.74Z"/>
      <path class="cls-3" d="M1.02,60.57h-.07s-.07-.01-.11-.02c.06,.01,.12,.02,.18,.02Z"/>
      <path class="cls-3" d="M.72,60.52l.12,.03-.12-.03Z"/>
      <path class="cls-3" d="M.36,60.34s-.05-.03-.07-.05c-.03-.02-.05-.04-.07-.07,.04,.05,.09,.08,.14,.12Z"/>
      <path class="cls-3" d="M.04,59.93c.01,.05,.03,.09,.06,.14-.03-.04-.05-.09-.06-.14Z"/>
      <path class="cls-3" d="M.01,59.78c0,.05,.01,.1,.03,.15-.02-.05-.03-.1-.03-.15Z"/>
    </g>
    <g>
      <line class="cls-2" x1="32.67" y1="61.2" x2="51.02" y2="61.2"/>
      <path class="cls-2" d="M51.02,61.2h21.26c3.91,0,7.09-3.17,7.09-7.08V7.09C79.37,3.18,76.2,0,72.28,0h-21.61"/>
      <path class="cls-2" d="M5.68,9.47s-.01,.01-.02,.01c-.03,.02-.05,.05-.07,.07-.03,.02-.05,.05-.07,.07-.03,.03-.05,.06-.07,.08-.02,.03-.05,.07-.07,.1-.02,.04-.04,.07-.06,.11-.03,.04-.05,.09-.07,.14-.02,.04-.04,.1-.06,.15,0,.02-.02,.05-.03,.08-.02,.05-.04,.11-.05,.16-.02,.06-.04,.13-.05,.19s-.03,.13-.04,.2c-.02,.09-.03,.19-.04,.28-.02,.1-.03,.2-.03,.29-.01,.1-.02,.19-.03,.29v.14s-.01,.1-.01,.14c-.01,.07-.01,.14-.01,.21-.01,.07-.01,.14-.01,.21-.01,.09-.01,.18-.02,.27,0,.09-.01,.18-.01,.26,0,.11-.02,.22-.02,.33-.02,.27-.04,.52-.05,.77-.01,.18-.02,.34-.02,.51"/>
      <line class="cls-2" x1="5.61" y1="8.9" x2="5.61" y2="6.16"/>
      <path class="cls-2" d="M4.25,15.88H1.33s-.04,0-.06,0h-.06s-.05-.01-.07-.02c-.04,0-.08-.01-.13-.03-.04-.01-.08-.02-.13-.04l-.12-.06s-.09-.05-.13-.07c-.07-.06-.15-.12-.22-.19s-.13-.14-.18-.22c-.03-.04-.05-.09-.07-.13-.03-.04-.05-.08-.06-.13-.02-.04-.04-.08-.05-.13,0-.02-.01-.04-.01-.06-.01-.03-.01-.05-.02-.07,0-.02-.01-.04-.01-.07,0-.02,0-.04-.01-.06"/>
      <path class="cls-2" d="M.72,60.52l.12,.03s.07,.02,.11,.02h.07s.09,.01,.13,.01c.08,0,.16,0,.24,0l.39,.03c1.23,.06,2.46,.13,3.7,.19,1.53,.08,3.05,.15,4.58,.2,.1,.01,.2,.01,.3,.01,.24,.01,.49,.02,.73,.03,.72,.02,1.43,.04,2.14,.06,.37,.01,.74,.02,1.12,.03h.25c.18,.01,.37,.01,.55,.02,.36,0,.72,0,1.08,0,.71,.02,1.42,.03,2.12,.03"/>
      <path class="cls-2" d="M.22,60.22s.04,.05,.07,.07c.02,.02,.04,.04,.07,.05"/>
      <path class="cls-2" d="M.01,59.78c0,.05,.01,.1,.03,.15,.01,.05,.03,.1,.06,.14"/>
      <path class="cls-2" d="M0,14.59V58.75H0v.94H0v.06s0,.02,.01,.03"/>
      <path class="cls-2" d="M.1,60.07c-.03-.05-.05-.09-.06-.14-.02-.05-.03-.1-.03-.15"/>
      <path class="cls-2" d="M.1,60.07s0,.01,0,.02c.03,.05,.07,.09,.11,.13"/>
      <path class="cls-2" d="M.36,60.34s-.1-.07-.14-.12"/>
      <path class="cls-2" d="M.36,60.34s.05,.04,.08,.06c.07,.04,.15,.08,.23,.11,.02,0,.03,.01,.05,.01"/>
      <path class="cls-2" d="M1.02,60.57c-.06,0-.12-.01-.18-.02l-.12-.03"/>
      <path class="cls-2" d="M0,14.59V1.25H0v-.02H0v-.21s.01-.08,.01-.11c0-.04,.01-.08,.01-.12,0-.08,.02-.15,.04-.22,0-.04,.01-.07,.02-.11,.01-.03,.01-.06,.02-.09l.03-.09s.02-.05,.03-.07c.01-.03,.02-.05,.03-.07,.01-.01,.01-.02,.02-.02,0-.01,.01-.02,.01-.03l.02-.02,.02-.02h.01s0-.02,.02-.02c0-.01,.01-.01,.01-.01h.01s0-.01,.01-.01h.04s.01,0,.02,0H18.35"/>
      <path class="cls-2" d="M18.35,23.53c-2.98-.01-6.78-.11-9.73-.79-.07-.02-.15-.04-.22-.05-.03-.01-.07-.02-.1-.03-.02,0-.04-.01-.06-.01-.26-.07-.53-.14-.79-.23-.12-.05-.23-.09-.34-.14h0c-.11-.05-.21-.11-.31-.17,0,0-.01,0-.01-.01-.1-.06-.19-.13-.28-.21-.01,0-.01-.01-.01-.01-.09-.08-.18-.17-.26-.27-.05-.05-.09-.11-.13-.17l-.12-.15c-.11-.17-.21-.33-.31-.5-.2-.35-.39-.7-.55-1.06-.32-.72-.59-1.55-.73-2.32-.09-.51-.12-1.02-.12-1.53"/>
      <path class="cls-2" d="M4.27,15.88s-.01,0-.01-.02c-.01-.3-.01-.6-.01-.9v-4.33h0v-.2c0-.12,.01-.24,.02-.36,.03-.25,.1-.46,.28-.66,.12-.13,.25-.22,.4-.29,.11-.06,.23-.1,.35-.14"/>
      <path class="cls-2" d="M5.3,8.98s.07-.02,.11-.03c.07-.02,.13-.04,.2-.04"/>
      <path class="cls-2" d="M5.61,8.91c.49-.12,1.01-.16,1.49-.19,.49-.02,.98-.01,1.47-.01h9.78"/>
      <path class="cls-2" d="M5.3,8.98v-2.03c0-.3,.11-.58,.31-.79,.19-.21,.46-.34,.78-.34h11.96"/>
      <path class="cls-2" d="M46.25,14.53c0-.17-.01-.33-.02-.51-.01-.25-.03-.5-.05-.77,0-.11-.01-.22-.02-.33,0-.08-.01-.17-.01-.26-.01-.09-.01-.18-.02-.27,0-.07-.01-.14-.01-.21s-.01-.14-.01-.21c0-.04,0-.09,0-.14,0-.04,0-.09-.01-.14,0-.1-.01-.19-.02-.29-.01-.09-.01-.19-.03-.29-.01-.09-.02-.19-.04-.28-.01-.07-.03-.14-.04-.2-.02-.06-.03-.13-.05-.19-.02-.05-.03-.11-.05-.16,0-.03-.02-.06-.03-.08-.02-.05-.04-.11-.06-.15-.02-.05-.05-.1-.07-.14s-.04-.07-.07-.11c-.02-.03-.04-.07-.06-.1-.02-.02-.04-.05-.07-.08-.02-.02-.04-.05-.07-.07l-.07-.07s0-.01-.02-.01"/>
      <line class="cls-2" x1="45.41" y1="8.9" x2="45.41" y2="6.16"/>
      <path class="cls-2" d="M32.67,0h17.42"/>
      <path class="cls-2" d="M50.09,0h.58"/>
      <path class="cls-2" d="M50.67,0s0,0,.01,0h.02s.01,0,.01,.01h.01s.01,0,.01,.01c0,0,.01,0,.02,.01h.01s.01,.02,.02,.03c0,.01,.01,.01,.02,.02,0,.01,.01,.02,.01,.03,.01,0,.01,0,.02,.02,.01,.02,.02,.04,.03,.07,.01,.02,.02,.05,.03,.07l.03,.09s.01,.06,.02,.09c.01,.04,.02,.07,.02,.11,.02,.07,.03,.14,.04,.22,0,.04,0,.08,.01,.12,0,.03,0,.07,.01,.11v.2h0v.02h0V14.46h0v.02h0v.03h0v.08s-.01,.04-.01,.06c0,.03-.01,.05-.01,.07-.01,.02-.01,.04-.02,.07,0,.02-.01,.04-.01,.06-.02,.05-.03,.09-.05,.13-.02,.05-.03,.09-.06,.13-.02,.04-.04,.09-.07,.13-.05,.08-.11,.15-.18,.22s-.15,.13-.23,.19c-.04,.02-.08,.05-.12,.07s-.08,.04-.13,.06c-.04,.02-.08,.03-.12,.04-.05,.02-.09,.03-.13,.03-.02,.01-.05,.01-.07,.02h-.06s-.04,0-.06,0h-2.93"/>
      <path class="cls-2" d="M32.67,23.53c2.97-.01,6.78-.11,9.73-.79,.07-.02,.14-.04,.22-.05,.03-.01,.07-.02,.1-.03,.02,0,.04-.01,.05-.01,.26-.07,.53-.14,.78-.23h.02c.12-.04,.23-.09,.34-.14"/>
      <path class="cls-2" d="M43.91,22.28c-.12,.05-.24,.1-.36,.14"/>
      <path class="cls-2" d="M43.91,22.28c.06-.03,.13-.06,.18-.1,.16-.08,.31-.18,.44-.3,.1-.08,.18-.18,.27-.28,.02-.02,.04-.04,.05-.07,.07-.07,.13-.16,.19-.24,.11-.17,.21-.33,.31-.5,.2-.35,.39-.7,.55-1.06,.32-.72,.59-1.55,.73-2.32,.09-.51,.12-1.02,.13-1.53"/>
      <path class="cls-2" d="M46.76,15.88c.01-.3,.01-.61,.01-.92v-4.33h0v-.2c0-.12-.01-.24-.02-.36-.03-.25-.1-.46-.28-.66-.2-.22-.47-.34-.75-.43"/>
      <path class="cls-2" d="M45.72,8.98s-.07-.02-.11-.03c-.07-.02-.13-.04-.2-.04"/>
      <path class="cls-2" d="M45.41,8.91c-.49-.12-1.01-.16-1.49-.19-.49-.02-.98-.01-1.47-.01h-9.78"/>
      <path class="cls-2" d="M32.67,5.82h11.96c.31,0,.58,.13,.78,.34,.19,.21,.31,.49,.31,.79v2.03"/>
      <polyline class="cls-2" points="32.67 61.2 25.51 61.21 18.35 61.2"/>
      <polyline class="cls-2" points="32.67 23.53 25.51 23.53 18.35 23.53"/>
      <polyline class="cls-2" points="32.67 0 25.51 0 18.35 0"/>
      <polyline class="cls-2" points="32.67 5.82 25.51 5.82 18.35 5.82"/>
      <polyline class="cls-2" points="32.67 8.71 25.51 8.71 18.35 8.71"/>
    </g>
  </g>
  <text class="cls-1" transform="translate(18.36 42.18)"><tspan x="0" y="0">90</tspan></text>
</svg>