<?xml version="1.0" encoding="UTF-8"?>
<svg id="_03_LINEA_FINA" data-name="03_LINEA FINA" xmlns="http://www.w3.org/2000/svg" viewBox="0 0 85.04 61.23">
  <defs>
    <style>
      .cls-1 {
        font-family: Inter18pt-Medium, 'Inter 18pt';
        font-size: 10px;
      }

      .cls-2 {
        fill: none;
        stroke: #404041;
        stroke-linecap: round;
        stroke-linejoin: round;
        stroke-width: .35px;
      }

      .cls-3 {
        fill: #f1f1f2;
      }
    </style>
  </defs>
  <g>
    <g>
      <path class="cls-3" d="M85.04,59.72v.03s0,.02-.01,.03c0,.05-.01,.1-.03,.15-.01,.05-.03,.09-.06,.14,0,.01-.01,.01-.01,.02-.02,.03-.04,.06-.06,.08-.01,.02-.03,.04-.05,.05-.04,.05-.09,.08-.14,.12-.04,.03-.08,.06-.12,.08s-.07,.04-.11,.06h-.02s-.07,.03-.1,.04c-.04,.01-.09,.02-.13,.03-.06,.01-.12,.02-.18,.02-.05,.01-.09,.01-.14,.01-.08,0-.16,0-.23,0l-.39,.03c-1.23,.06-2.46,.13-3.7,.19-1.53,.08-3.06,.15-4.59,.2-.09,.01-.19,.01-.29,.01-.24,.01-.49,.02-.74,.03l-2.13,.06c-.37,.01-.75,.02-1.12,.03h-.25c-.18,.01-.37,.01-.55,.02-.36,0-.72,0-1.08,0-.71,.02-1.42,.03-2.12,.03-3.33,0-6.66,0-9.99,0H7.09C3.18,61.21,0,58.03,0,54.12V7.09C0,3.18,3.17,0,7.09,0H28.7s0,0-.01,0h-.02s-.01,0-.01,.01h0s-.01,0-.01,.01c0,0-.01,0-.02,.01h-.01s-.01,.02-.02,.03c0,.01,0,.01-.02,.02,0,.01,0,.02,0,.03-.01,0-.01,0-.02,.02-.01,.02-.02,.04-.03,.07,0,.02-.02,.05-.03,.07l-.03,.09s-.01,.06-.02,.09c0,.04-.02,.07-.02,.11-.02,.07-.03,.14-.04,.22,0,.04,0,.08-.01,.12,0,.03,0,.07-.01,.11v.2h0v.02h0V14.46h0v.02h0v.03h0v.08s.01,.04,.01,.06c0,.03,.01,.05,.01,.07,.01,.02,.01,.04,.02,.07,0,.02,.01,.04,.01,.06,.02,.05,.03,.09,.05,.13,.02,.05,.03,.09,.06,.13,.02,.04,.04,.09,.07,.13,.05,.08,.11,.15,.18,.22s.15,.13,.23,.19c.04,.02,.08,.05,.12,.07s.08,.04,.13,.06c.04,.02,.08,.03,.12,.04,.05,.02,.09,.03,.13,.03,.02,.01,.05,.01,.07,.02h.06s.04,0,.06,0h2.94c0,.51,.03,1.02,.12,1.53,.14,.77,.41,1.6,.73,2.32,.16,.36,.35,.71,.55,1.06,.1,.17,.2,.33,.31,.5l.12,.15c.04,.06,.08,.12,.13,.17,.08,.1,.17,.19,.26,.27,0,0,0,.01,0,.01,.09,.08,.18,.15,.28,.21,0,.01,.01,.01,.01,.01,.1,.06,.2,.12,.31,.17h.01c.11,.05,.22,.1,.34,.14h.02c.25,.09,.52,.16,.78,.23,.01,0,.03,.01,.05,.01,.03,0,.07,.02,.1,.03,.08,.01,.15,.03,.22,.05,2.95,.68,6.76,.78,9.73,.79h19.99c.37,0,.75-.01,1.15-.01s.8-.01,1.21-.02c.2-.01,.41-.01,.62-.02,.61-.02,1.24-.05,1.86-.09,.43-.03,.87-.06,1.3-.1,.42-.04,.83-.09,1.24-.14s.82-.11,1.21-.18,.77-.15,1.14-.23c.07-.02,.14-.04,.22-.05,.03-.01,.07-.02,.1-.03,.02,0,.04-.01,.05-.01,.26-.07,.53-.14,.78-.23h.02c.12-.04,.23-.09,.34-.14,.06-.03,.13-.06,.18-.1,.16-.08,.31-.18,.44-.3,.1-.08,.18-.18,.27-.28,.02-.02,.04-.04,.05-.07,.07-.07,.13-.16,.19-.24,.11-.17,.21-.33,.31-.5,.2-.35,.39-.7,.55-1.06,.32-.72,.59-1.55,.73-2.32,.09-.51,.12-1.02,.13-1.53h2.93s.04,0,.06,0h.06s.05-.01,.07-.02c.04,0,.08-.01,.13-.03,.04-.01,.08-.02,.12-.04,.05-.02,.09-.04,.13-.06s.08-.05,.12-.07c.08-.06,.16-.12,.23-.19s.13-.14,.18-.22c.03-.04,.05-.09,.07-.13,.03-.04,.04-.08,.06-.13,.02-.04,.03-.08,.05-.13,0-.02,.01-.04,.01-.06,0-.03,0-.05,.02-.07,0-.02,.01-.04,.01-.07,0-.02,0-.04,.01-.06V58.75h0v.94h0v.03Z"/>
      <path class="cls-3" d="M85.04,14.56v.03s-.01,.04-.01,.06c0,.03-.01,.05-.01,.07-.01,.02-.01,.04-.02,.07,0,.02-.01,.04-.01,.06-.02,.05-.03,.09-.05,.13-.02,.05-.03,.09-.06,.13-.02,.04-.04,.09-.07,.13-.05,.08-.11,.15-.18,.22s-.15,.13-.23,.19c-.04,.02-.08,.05-.12,.07s-.08,.04-.13,.06c-.04,.02-.08,.03-.12,.04-.05,.02-.09,.03-.13,.03-.02,.01-.05,.01-.07,.02h-.06s-.04,0-.06,0h-2.93c.01-.3,.01-.61,.01-.92v-4.33h0v-.2c0-.12-.01-.24-.02-.36-.03-.25-.1-.46-.28-.66-.2-.22-.47-.34-.75-.43v-2.03c0-.3-.12-.58-.31-.79-.2-.21-.47-.34-.78-.34H34.74c-.31,0-.58,.13-.78,.34-.19,.21-.31,.49-.31,.79v2.03c-.28,.09-.55,.21-.75,.43-.18,.2-.25,.41-.28,.66-.01,.12-.02,.24-.02,.36v.19h0v4.34c0,.31,0,.62,.01,.92h-2.93s-.04,0-.06,0h-.06s-.05-.01-.07-.02c-.04,0-.08-.01-.13-.03-.04-.01-.08-.02-.12-.04-.05-.02-.09-.04-.13-.06s-.08-.05-.12-.07c-.08-.06-.16-.12-.23-.19s-.13-.14-.18-.22c-.03-.04-.05-.09-.07-.13-.03-.04-.04-.08-.06-.13-.02-.04-.03-.08-.05-.13,0-.02-.01-.04-.01-.06-.01-.03-.01-.05-.02-.07,0-.02-.01-.04-.01-.07,0-.02,0-.04-.01-.06v-.07h0v-.03h0v-.02h0V1.25h0v-.02h0v-.21s.01-.08,.01-.11c.01-.04,.01-.08,.01-.12,.01-.08,.02-.15,.04-.22,0-.04,.01-.07,.02-.11,.01-.03,.01-.06,.02-.09l.03-.09s.02-.05,.03-.07c.01-.03,.02-.05,.03-.07,.01-.01,.01-.02,.02-.02,0-.01,0-.02,0-.03,.01,0,.02,0,.02-.02l.02-.02h.01s.02-.02,.02-.02c0-.01,.01-.01,.01-.01h0s0-.01,.01-.01h.02s.01,0,.01,0h55.99s.01,0,.01,0h.02s.01,0,.01,.01h0s.01,0,.01,.01c0,0,0,0,.02,.01h.01s.01,.02,.02,.03c0,.01,.01,.01,.02,.02,0,.01,.01,.02,.01,.03,.01,0,.01,0,.02,.02,.01,.02,.02,.04,.03,.07,.01,.02,.02,.05,.03,.07l.03,.09s.01,.06,.02,.09c.01,.04,.02,.07,.02,.11,.02,.07,.03,.14,.04,.22,0,.04,0,.08,.01,.12,0,.03,0,.07,.01,.11v.2h0v.02h0V14.46h0v.02h0v.03h0v.05Z"/>
      <path class="cls-3" d="M85,59.93c.02-.05,.03-.1,.03-.15,0,.05-.01,.1-.03,.15Z"/>
      <path class="cls-3" d="M84.94,60.07c.03-.05,.05-.09,.06-.14-.01,.05-.03,.1-.06,.14Z"/>
      <path class="cls-3" d="M84.82,60.22s-.04,.05-.07,.07c-.02,.02-.04,.04-.07,.05,.05-.04,.1-.07,.14-.12Z"/>
      <path class="cls-3" d="M84.2,60.55s.09-.02,.13-.03c-.04,.01-.09,.02-.13,.03Z"/>
      <path class="cls-3" d="M84.2,60.55s-.07,.02-.11,.02h-.07c.06,0,.12-.01,.18-.02Z"/>
      <path class="cls-3" d="M80.79,10.63v4.33c0,.31,0,.62-.01,.92-.01,.51-.04,1.02-.13,1.53-.14,.77-.41,1.6-.73,2.32-.16,.36-.35,.71-.55,1.06-.1,.17-.2,.33-.31,.5-.06,.08-.12,.17-.19,.24-.01,.03-.03,.05-.05,.07-.09,.1-.17,.2-.27,.28-.13,.12-.28,.22-.44,.3-.05,.04-.12,.07-.18,.1-.12,.05-.24,.1-.36,.14-.25,.09-.52,.16-.78,.23-.01,0-.03,.01-.05,.01-.03,0-.07,.02-.1,.03-.08,.01-.15,.03-.22,.05-.37,.08-.75,.16-1.14,.23s-.8,.13-1.21,.18c-.4,.05-.82,.1-1.24,.14-.43,.04-.87,.07-1.3,.1-.63,.04-1.25,.07-1.86,.09-.21,.01-.42,.01-.62,.02-.41,0-.81,.02-1.21,.02s-.78,.01-1.15,.01h-19.99c-2.97-.01-6.78-.11-9.73-.79-.07-.02-.14-.04-.22-.05-.03-.01-.07-.02-.1-.03-.02,0-.04-.01-.05-.01-.26-.07-.53-.14-.78-.23-.13-.04-.24-.09-.36-.14h-.01c-.11-.05-.21-.11-.31-.17,0,0-.01,0-.01-.01-.1-.06-.19-.13-.28-.21,0,0,0-.01,0-.01-.09-.08-.18-.17-.26-.27-.05-.05-.09-.11-.13-.17l-.12-.15c-.11-.17-.21-.33-.31-.5-.2-.35-.39-.7-.55-1.06-.32-.72-.59-1.55-.73-2.32-.09-.51-.12-1.02-.12-1.53h-.01c-.01-.3-.01-.61-.01-.92v-4.33h0v-.2c0-.12,.01-.24,.02-.36,.03-.25,.1-.46,.28-.66,.2-.22,.47-.34,.75-.43,.04-.01,.07-.02,.11-.03,.07-.02,.13-.04,.2-.04,.49-.12,1.01-.16,1.49-.19,.49-.02,.98-.01,1.47-.01h39.55c.49,0,.98,0,1.47,.01,.48,.03,1,.07,1.49,.19,.07,0,.13,.02,.2,.04,.04,0,.07,.02,.11,.03,.28,.09,.55,.21,.75,.43,.18,.2,.25,.41,.28,.66,.01,.12,.02,.24,.02,.36v.19h0Z"/>
      <path class="cls-3" d="M79.74,6.95v2.03s-.07-.02-.11-.03c-.07-.02-.13-.04-.2-.04h0v-2.75c.19,.21,.31,.49,.31,.79Z"/>
      <path class="cls-3" d="M79.43,8.9h0c-.49-.11-1.01-.15-1.49-.18-.49-.02-.98-.01-1.47-.01H36.92c-.49,0-.98,0-1.47,.01-.48,.03-1,.07-1.49,.19h0v-2.75c.2-.21,.47-.34,.78-.34h43.91c.31,0,.58,.13,.78,.34v2.74Z"/>
      <path class="cls-3" d="M77.93,22.28c-.11,.05-.22,.1-.34,.14h-.02c.12-.04,.24-.09,.36-.14Z"/>
      <path class="cls-3" d="M75.28,22.97c.39-.07,.77-.15,1.14-.23-.37,.08-.75,.16-1.14,.23Z"/>
      <path class="cls-3" d="M74.07,23.15c.41-.05,.82-.11,1.21-.18-.39,.07-.8,.13-1.21,.18Z"/>
      <path class="cls-3" d="M72.83,23.29c.42-.04,.84-.09,1.24-.14-.41,.05-.82,.1-1.24,.14Z"/>
      <path class="cls-3" d="M69.67,23.48c.61-.02,1.23-.05,1.86-.09-.62,.04-1.25,.07-1.86,.09Z"/>
      <path class="cls-3" d="M35.82,22.42h-.02c-.12-.04-.23-.09-.34-.14,.12,.05,.23,.1,.36,.14Z"/>
      <path class="cls-3" d="M33.96,8.9h0c-.07,.01-.13,.03-.2,.05-.04,0-.07,.02-.11,.03v-2.03c0-.3,.12-.58,.31-.79v2.74Z"/>
    </g>
    <g>
      <line class="cls-2" x1="28.35" y1="61.21" x2="56.7" y2="61.21"/>
      <path class="cls-2" d="M28.35,61.21H7.09C3.18,61.21,0,58.03,0,54.12V7.09C0,3.18,3.17,0,7.09,0H28.7"/>
      <path class="cls-2" d="M84.33,60.52s-.09,.02-.13,.03-.07,.02-.11,.02h-.07"/>
      <path class="cls-2" d="M84.82,60.22s-.04,.05-.07,.07c-.02,.02-.04,.04-.07,.05"/>
      <path class="cls-2" d="M85.03,59.78c0,.05-.01,.1-.03,.15-.01,.05-.03,.1-.06,.14"/>
      <path class="cls-2" d="M85.04,14.59V58.75h0v.94h0v.06s0,.02-.01,.03"/>
      <path class="cls-2" d="M84.94,60.07c.03-.05,.05-.09,.06-.14,.02-.05,.03-.1,.03-.15"/>
      <path class="cls-2" d="M84.94,60.07s-.01,.01-.01,.02c-.02,.03-.04,.06-.06,.08-.01,.02-.03,.04-.05,.05"/>
      <path class="cls-2" d="M84.68,60.34c.05-.04,.1-.07,.14-.12"/>
      <path class="cls-2" d="M84.68,60.34s-.08,.06-.12,.08-.07,.04-.11,.06h-.02s-.07,.03-.1,.04"/>
      <path class="cls-2" d="M84.02,60.57c.06,0,.12-.01,.18-.02,.04,0,.09-.02,.13-.03"/>
      <path class="cls-2" d="M84.02,60.57s-.09,.01-.14,.01c-.08,0-.16,0-.23,0l-.39,.03c-1.23,.06-2.46,.13-3.7,.19-1.53,.08-3.06,.15-4.59,.2-.09,.01-.19,.01-.29,.01-.24,.01-.49,.02-.74,.03l-2.13,.06c-.37,.01-.75,.02-1.12,.03h-.25c-.18,.01-.37,.01-.55,.02-.36,0-.72,0-1.08,0-.71,.02-1.42,.03-2.12,.03"/>
      <path class="cls-2" d="M56.7,61.21c3.33,0,6.66,0,9.99,0"/>
      <path class="cls-2" d="M77.57,22.42h.02c.12-.04,.23-.09,.34-.14"/>
      <path class="cls-2" d="M72.83,23.29c.42-.04,.83-.09,1.24-.14s.82-.11,1.21-.18,.77-.15,1.14-.23"/>
      <path class="cls-2" d="M66.69,23.53c.37,0,.75-.01,1.15-.01s.8-.01,1.21-.02c.2-.01,.41-.01,.62-.02,.61-.02,1.24-.05,1.86-.09"/>
      <path class="cls-2" d="M71.53,23.39c-.63,.04-1.25,.07-1.86,.09"/>
      <path class="cls-2" d="M71.53,23.39c.43-.03,.87-.06,1.3-.1"/>
      <path class="cls-2" d="M76.42,22.74c-.37,.08-.75,.16-1.14,.23s-.8,.13-1.21,.18c-.4,.05-.82,.1-1.24,.14"/>
      <path class="cls-2" d="M76.42,22.74c.07-.02,.14-.04,.22-.05,.03-.01,.07-.02,.1-.03,.02,0,.04-.01,.05-.01,.26-.07,.53-.14,.78-.23"/>
      <path class="cls-2" d="M77.93,22.28c-.12,.05-.24,.1-.36,.14"/>
      <path class="cls-2" d="M77.93,22.28c.06-.03,.13-.06,.18-.1,.16-.08,.31-.18,.44-.3,.1-.08,.18-.18,.27-.28,.02-.02,.04-.04,.05-.07,.07-.07,.13-.16,.19-.24,.11-.17,.21-.33,.31-.5,.2-.35,.39-.7,.55-1.06,.32-.72,.59-1.55,.73-2.32,.09-.51,.12-1.02,.13-1.53"/>
      <path class="cls-2" d="M80.78,15.88c.01-.3,.01-.61,.01-.92v-4.33h0v-.2c0-.12-.01-.24-.02-.36-.03-.25-.1-.46-.28-.66-.2-.22-.47-.34-.75-.43"/>
      <path class="cls-2" d="M79.74,8.98s-.07-.02-.11-.03c-.07-.02-.13-.04-.2-.04"/>
      <path class="cls-2" d="M79.43,8.91c-.49-.12-1.01-.16-1.49-.19-.49-.02-.98-.01-1.47-.01h-9.78"/>
      <path class="cls-2" d="M46.7,8.71h19.99"/>
      <path class="cls-2" d="M46.7,23.53c-2.97-.01-6.78-.11-9.73-.79-.07-.02-.14-.04-.22-.05-.03-.01-.07-.02-.1-.03-.02,0-.04-.01-.05-.01-.26-.07-.53-.14-.78-.23h-.02c-.12-.04-.23-.09-.34-.14"/>
      <path class="cls-2" d="M35.46,22.28c.12,.05,.23,.1,.36,.14"/>
      <path class="cls-2" d="M35.46,22.28h-.01c-.11-.05-.21-.11-.31-.17,0,0-.01,0-.01-.01-.1-.06-.19-.13-.28-.21,0,0,0-.01,0-.01-.09-.08-.18-.17-.26-.27-.05-.05-.09-.11-.13-.17l-.12-.15c-.11-.17-.21-.33-.31-.5-.2-.35-.39-.7-.55-1.06-.32-.72-.59-1.55-.73-2.32-.09-.51-.12-1.02-.12-1.53h-.01"/>
      <path class="cls-2" d="M32.61,15.88c-.01-.3-.01-.61-.01-.92v-4.33h0v-.2c0-.12,.01-.24,.02-.36,.03-.25,.1-.46,.28-.66,.2-.22,.47-.34,.75-.43"/>
      <path class="cls-2" d="M33.65,8.98s.07-.02,.11-.03c.07-.02,.13-.04,.2-.04"/>
      <path class="cls-2" d="M33.96,8.91c.49-.12,1.01-.16,1.49-.19,.49-.02,.98-.01,1.47-.01h9.78"/>
      <path class="cls-2" d="M46.7,5.82h-11.96c-.31,0-.58,.13-.78,.34"/>
      <path class="cls-2" d="M33.65,8.98v-2.03c0-.3,.12-.58,.31-.79"/>
      <path class="cls-2" d="M46.7,0H29.28"/>
      <path class="cls-2" d="M29.28,0h-.58"/>
      <path class="cls-2" d="M28.7,0s0,0-.01,0h-.02s-.01,0-.01,.01h0s-.01,0-.01,.01c0,0-.01,0-.02,.01h-.01s-.01,.02-.02,.03c0,.01,0,.01-.02,.02,0,.01,0,.02,0,.03-.01,0-.01,0-.02,.02-.01,.02-.02,.04-.03,.07,0,.02-.02,.05-.03,.07l-.03,.09s-.01,.06-.02,.09c0,.04-.02,.07-.02,.11-.02,.07-.03,.14-.04,.22,0,.04,0,.08-.01,.12,0,.03,0,.07-.01,.11v.2h0v.02h0V14.46h0v.02h0v.03h0v.08s.01,.04,.01,.06c0,.03,.01,.05,.01,.07,.01,.02,.01,.04,.02,.07,0,.02,.01,.04,.01,.06,.02,.05,.03,.09,.05,.13,.02,.05,.03,.09,.06,.13,.02,.04,.04,.09,.07,.13,.05,.08,.11,.15,.18,.22s.15,.13,.23,.19c.04,.02,.08,.05,.12,.07s.08,.04,.13,.06c.04,.02,.08,.03,.12,.04,.05,.02,.09,.03,.13,.03,.02,.01,.05,.01,.07,.02h.06s.04,0,.06,0h2.93"/>
      <line class="cls-2" x1="33.96" y1="8.9" x2="33.96" y2="6.16"/>
      <path class="cls-2" d="M34.03,9.47s-.01,.01-.02,.01l-.07,.07s-.05,.05-.07,.07c-.03,.03-.05,.06-.07,.08-.02,.03-.04,.07-.07,.1-.02,.04-.04,.07-.06,.11s-.05,.09-.07,.14c-.02,.04-.04,.1-.06,.15-.01,.02-.02,.05-.03,.08-.02,.05-.03,.11-.05,.16-.02,.06-.03,.13-.05,.19,0,.06-.03,.13-.04,.2-.02,.09-.03,.19-.04,.28-.02,.1-.03,.2-.03,.29-.01,.1-.02,.19-.02,.29-.01,.05-.01,.1-.01,.14-.01,.05-.01,.1-.01,.14,0,.07,0,.14,0,.21s-.01,.14-.01,.21c0,.09,0,.18-.02,.27,0,.09-.01,.18-.01,.26-.01,.11-.02,.22-.02,.33-.02,.27-.04,.52-.05,.77-.01,.18-.02,.34-.02,.51"/>
      <path class="cls-2" d="M79.74,8.98v-2.03c0-.3-.12-.58-.31-.79"/>
      <path class="cls-2" d="M66.69,5.82h11.96c.31,0,.58,.13,.78,.34"/>
      <path class="cls-2" d="M80.78,15.88h2.93s.04,0,.06,0h.06s.05-.01,.07-.02c.04,0,.08-.01,.13-.03,.04-.01,.08-.02,.12-.04,.05-.02,.09-.04,.13-.06s.08-.05,.12-.07c.08-.06,.16-.12,.23-.19s.13-.14,.18-.22c.03-.04,.05-.09,.07-.13,.03-.04,.04-.08,.06-.13,.02-.04,.03-.08,.05-.13,0-.02,.01-.04,.01-.06,0-.03,0-.05,.02-.07,0-.02,.01-.04,.01-.07,0-.02,0-.04,.01-.06v-.07h0v-.03h0v-.02h0V1.25h0v-.02h0v-.21s-.01-.08-.01-.11c-.01-.04-.01-.08-.01-.12-.01-.08-.02-.15-.04-.22,0-.04-.01-.07-.02-.11-.01-.03-.01-.06-.02-.09l-.03-.09s-.02-.05-.03-.07c-.01-.03-.02-.05-.03-.07,0-.01,0-.02-.02-.02,0-.01-.01-.02-.01-.03,0,0-.02,0-.02-.02l-.02-.02h-.01s-.02-.02-.02-.02c0-.01-.01-.01-.01-.01h0s0-.01-.01-.01h-.02s-.01,0-.01,0h-18"/>
      <line class="cls-2" x1="79.43" y1="8.9" x2="79.43" y2="6.16"/>
      <path class="cls-2" d="M80.27,14.53c0-.17-.01-.33-.02-.51-.01-.25-.03-.5-.05-.77,0-.11-.01-.22-.02-.33,0-.08,0-.17,0-.26-.01-.09-.01-.18-.02-.27,0-.07,0-.14-.01-.21,0-.07-.01-.14-.01-.21,0-.04,0-.09-.01-.14,0-.04,0-.09-.01-.14,0-.1-.01-.19-.02-.29,0-.09-.01-.19-.03-.29-.01-.09-.02-.19-.04-.28-.01-.07-.03-.14-.04-.2-.02-.06-.03-.13-.05-.19-.02-.05-.03-.11-.05-.16-.01-.03-.02-.06-.03-.08-.02-.05-.04-.11-.06-.15-.02-.05-.05-.1-.07-.14s-.04-.07-.06-.11c-.03-.03-.05-.07-.07-.1-.02-.02-.04-.05-.07-.08-.02-.02-.04-.05-.07-.07l-.07-.07s-.01-.01-.02-.01"/>
      <polyline class="cls-2" points="66.69 5.82 56.7 5.82 46.7 5.82"/>
      <polyline class="cls-2" points="66.69 0 56.7 0 46.7 0"/>
      <polyline class="cls-2" points="66.69 23.53 56.7 23.53 46.7 23.53"/>
    </g>
  </g>
  <text class="cls-1" transform="translate(47.13 42.18)"><tspan x="0" y="0">100</tspan></text>
</svg>