<?xml version="1.0" encoding="UTF-8"?>
<svg id="_03_LINEA_FINA" data-name="03_LINEA FINA" xmlns="http://www.w3.org/2000/svg" viewBox="0 0 90.71 61.23">
  <defs>
    <style>
      .cls-1 {
        font-family: Inter18pt-Medium, 'Inter 18pt';
        font-size: 10px;
      }

      .cls-2 {
        fill: none;
        stroke: #404041;
        stroke-linecap: round;
        stroke-linejoin: round;
        stroke-width: .35px;
      }

      .cls-3 {
        fill: #f1f1f2;
      }
    </style>
  </defs>
  <g>
    <g>
      <path class="cls-3" d="M90.71,7.09V54.17c0,3.92-3.17,7.09-7.08,7.09h-21.26l-28.35-.05h-15.66c-.71,0-1.41-.02-2.12-.04-.36,0-.72,0-1.08,0-.19-.01-.37-.01-.55-.02h-.26l-1.11-.03c-.72-.02-1.43-.04-2.14-.06-.24,0-.49-.02-.74-.03-.09,0-.19,0-.29-.01-1.53-.05-3.06-.12-4.59-.2-1.23-.06-2.46-.13-3.69-.19l-.39-.03c-.08,0-.16,0-.24,0-.05,0-.09,0-.13-.01-.06,0-.12-.01-.18-.02l-.12-.03s-.03-.01-.05-.01c-.07-.03-.14-.06-.2-.09-.04-.03-.08-.05-.12-.08-.02-.02-.03-.03-.05-.04-.03-.02-.06-.05-.09-.08-.02-.02-.03-.03-.04-.05-.03-.04-.06-.08-.09-.13l-.06-.15s-.02-.09-.02-.14v-.03s0-.01,0-.02H0v-.94H0V14.48s0,.01,0,.01v.02H0v.08s0,.04,.01,.06c0,.03,0,.05,.01,.07,0,.02,.01,.04,.01,.07,0,.02,0,.04,.02,.06,.01,.05,.03,.09,.04,.13,.02,.05,.04,.09,.06,.13s.05,.09,.08,.13c.05,.08,.11,.15,.18,.22s.14,.13,.22,.19c.04,.02,.08,.05,.12,.07,.05,.02,.09,.04,.13,.06s.09,.03,.13,.04c.04,.02,.09,.03,.13,.03,.02,.01,.04,.01,.06,.02h.07s.04,0,.06,0h2.94c0,.51,.03,1.02,.12,1.53,.13,.77,.41,1.6,.73,2.32,.16,.36,.34,.71,.55,1.06,.1,.17,.2,.33,.31,.5,.08,.11,.16,.22,.24,.32s.17,.19,.26,.27c0,0,0,.01,.01,.01,.09,.08,.18,.15,.28,.21,.03,.02,.06,.04,.1,.06,.18,.11,.37,.19,.58,.26,.26,.09,.53,.16,.79,.23,.02,0,.04,.01,.05,.01,.04,0,.07,.02,.11,.03,.07,.01,.14,.03,.22,.05,2.94,.68,6.75,.78,9.73,.79h25.65c2.98-.01,6.79-.11,9.74-.79,.07-.02,.14-.04,.21-.05,.04-.01,.07-.02,.11-.03,.02,0,.03-.01,.05-.01,.27-.07,.53-.14,.79-.23,.21-.07,.4-.15,.58-.26,.14-.08,.27-.17,.39-.28,.1-.08,.18-.18,.27-.28,.08-.1,.16-.21,.23-.31,.11-.17,.22-.33,.32-.5,.2-.35,.38-.7,.54-1.06,.33-.72,.6-1.55,.73-2.32,.09-.51,.12-1.02,.13-1.53h2.93s.04,0,.07,0h.06s.04-.01,.06-.02c.04,0,.09-.01,.13-.03,.04-.01,.09-.02,.13-.04s.09-.04,.13-.06,.08-.05,.12-.07c.08-.06,.16-.12,.22-.19,.07-.07,.13-.14,.19-.22,.02-.04,.05-.09,.07-.13s.04-.08,.06-.13c.01-.04,.03-.08,.04-.13,.01-.02,.01-.04,.02-.06,0-.03,0-.05,0-.07,.01-.02,.01-.04,.01-.07,.01-.02,.01-.04,.01-.06v-.03s.01-.02,.01-.04h0v-.03h0v-.02h0V1.25h0v-.02h0v-.09s-.01-.08-.01-.12,0-.08-.01-.11c0-.04,0-.08-.01-.12,0-.08-.02-.15-.03-.22-.01-.04-.02-.07-.02-.11l-.03-.09-.03-.09s-.01-.05-.03-.07c-.01-.03-.02-.05-.03-.07,0-.01,0-.02,0-.02-.01-.01-.01-.02-.02-.03,0,0-.01,0-.02-.02,0-.01-.01-.01-.01-.02-.01,0-.01,0-.02,0,0-.01,0-.01-.02-.01h-.01V0h-.04c7.2,0,14.4,0,21.61,0,3.91,0,7.08,3.18,7.08,7.09Z"/>
      <path class="cls-3" d="M0,9.93V1.25H0v-.02H0s0-.03,0-.04v-.17s.01-.08,.01-.11c0-.04,.01-.08,.01-.12,.01-.08,.02-.15,.03-.22,.01-.04,.02-.07,.02-.11l.03-.09,.03-.09s.02-.05,.03-.07c.01-.03,.02-.05,.03-.07,0-.01,.01-.02,.01-.02,0-.01,.02-.02,.02-.03l.02-.02s0-.01,0-.02c.01,0,.02,0,.02,0t.02-.01s0-.01,.01-.01h.01s.01-.01,.01-.01h.03s.02,0,.03,0H62.02s0,0,.01,0h.03s0,.01,.01,.01h0s.02,.01,.02,.02c.01,0,.01,0,.02,0,0,.01,.01,.01,.01,.02,0,.01,.02,.01,.02,.02,.01,.01,.01,.02,.02,.03,0,0,0,0,0,.02,.01,.02,.02,.04,.03,.07,.02,.02,.02,.05,.03,.07l.03,.09,.03,.09s0,.07,.02,.11c.01,.07,.02,.14,.03,.22,.01,.04,.01,.08,.01,.12,.01,.03,.01,.07,.01,.11s0,.08,.01,.12v.08h0v.02h0V14.46h0v.02h0v.03h0s-.01,.04-.01,.05v.03s0,.04-.01,.06c0,.03,0,.05-.01,.07,0,.02,0,.04,0,.07-.01,.02-.01,.04-.02,.06-.01,.05-.03,.09-.04,.13-.02,.05-.04,.09-.06,.13s-.05,.09-.07,.13c-.06,.08-.12,.15-.19,.22-.06,.07-.14,.13-.22,.19-.04,.02-.08,.05-.12,.07s-.09,.04-.13,.06-.09,.03-.13,.04c-.04,.02-.09,.03-.13,.03-.02,.01-.04,.01-.06,.02h-.06s-.05,0-.07,0h-2.93c.01-.21,.01-.42,.01-.63v-4.62h0v-.2c0-.12,0-.24-.02-.36-.03-.25-.1-.46-.27-.66-.2-.22-.49-.34-.76-.43v-2.03c0-.3-.12-.58-.31-.79s-.46-.34-.77-.34H6.39c-.31,0-.58,.13-.77,.34-.2,.21-.31,.49-.31,.79v2.03c-.27,.09-.55,.21-.75,.43-.18,.2-.25,.41-.28,.66-.02,.12-.02,.24-.02,.36v.19h0v4.34c0,.3,0,.6,.01,.9,0,.01,.01,.02,.01,.02H1.34s-.04,0-.06,0h-.07s-.04-.01-.06-.02c-.04,0-.09-.01-.13-.03-.04-.01-.09-.02-.13-.04s-.08-.04-.13-.06c-.04-.02-.08-.05-.12-.07-.08-.06-.15-.12-.22-.19s-.13-.14-.18-.22c-.03-.04-.06-.09-.08-.13s-.04-.08-.06-.13c-.01-.04-.03-.08-.04-.13-.01-.02-.01-.04-.02-.06,0-.03-.01-.05-.01-.07-.01-.02-.01-.04-.01-.07-.01-.02-.01-.04-.01-.06v-.07H0v-.03s0-.01,0-.01v-4.55Z"/>
      <path class="cls-3" d="M58.11,14.96v.29c0,.21,0,.42-.01,.63-.01,.51-.04,1.02-.13,1.53-.13,.77-.4,1.6-.73,2.32-.16,.36-.34,.71-.54,1.06-.1,.17-.21,.33-.32,.5-.07,.1-.15,.21-.23,.31-.09,.1-.17,.2-.27,.28-.12,.11-.25,.2-.39,.28-.18,.1-.37,.18-.58,.26-.26,.09-.52,.16-.79,.23-.02,0-.03,.01-.05,.01-.04,0-.07,.02-.11,.03-.07,.01-.14,.03-.21,.05-2.95,.68-6.76,.78-9.74,.79H18.36c-2.98-.01-6.79-.11-9.73-.79-.08-.02-.15-.04-.22-.05-.04-.01-.07-.02-.11-.03,0,0-.03-.01-.05-.01-.26-.07-.53-.14-.79-.23-.21-.08-.4-.16-.58-.26-.04-.02-.07-.04-.1-.06-.1-.06-.19-.13-.28-.21-.01,0-.01-.01-.01-.01-.09-.08-.18-.17-.26-.27s-.16-.21-.24-.32c-.11-.17-.21-.33-.31-.5-.21-.35-.39-.7-.55-1.06-.32-.72-.6-1.55-.73-2.32-.09-.51-.12-1.02-.12-1.53,0,0-.01,0-.01-.02-.01-.3-.01-.6-.01-.9v-4.33h0v-.2c0-.12,0-.24,.02-.36,.03-.25,.1-.46,.28-.66,.2-.22,.48-.34,.75-.43,.03-.01,.07-.02,.1-.03,.07-.02,.14-.04,.21-.05,.49-.11,1-.15,1.49-.18,.49-.02,.98-.01,1.47-.01H53.8c.48,0,.97,0,1.46,.01,.49,.03,1.01,.07,1.49,.18,.02,0,.03,0,.05,.02,.05,0,.11,.02,.16,.03,.03,0,.07,.02,.1,.03,.27,.09,.56,.21,.76,.43,.17,.2,.24,.41,.27,.66,.02,.12,.02,.24,.02,.36v.19h0v4.34Z"/>
      <path class="cls-3" d="M57.06,6.95v2.03s-.07-.02-.1-.03c-.05-.01-.11-.03-.16-.03-.02-.02-.03-.02-.05-.02v-2.74c.19,.21,.31,.49,.31,.79Z"/>
      <path class="cls-3" d="M56.75,6.16v2.74c-.48-.11-1-.15-1.49-.18-.49-.02-.98-.01-1.46-.01H8.58c-.49,0-.98,0-1.47,.01-.49,.03-1,.07-1.49,.18v-2.74c.19-.21,.46-.34,.77-.34H55.98c.31,0,.58,.13,.77,.34Z"/>
      <path class="cls-3" d="M55.49,22.16c-.18,.11-.37,.19-.58,.26,.21-.08,.4-.16,.58-.26Z"/>
      <path class="cls-3" d="M6.88,22.16c.18,.1,.37,.18,.58,.26-.21-.07-.4-.15-.58-.26Z"/>
      <path class="cls-3" d="M5.62,8.9c-.07,.01-.14,.03-.21,.05-.03,0-.07,.02-.1,.03v-2.03c0-.3,.11-.58,.31-.79v2.74Z"/>
      <path class="cls-3" d="M1.03,60.57h-.07s-.07-.01-.11-.02c.06,.01,.12,.02,.18,.02Z"/>
      <path class="cls-3" d="M.73,60.52l.12,.03-.12-.03Z"/>
      <path class="cls-3" d="M.09,60.04s.06,.09,.09,.13c-.04-.04-.07-.08-.09-.13Z"/>
      <path class="cls-3" d="M0,59.72v.03s0-.04,0-.05t0,.02Z"/>
    </g>
    <g>
      <path class="cls-2" d="M62.37,61.26h21.26c3.91,0,7.08-3.17,7.08-7.09V7.09C90.71,3.18,87.54,0,83.63,0h-21.61"/>
      <path class="cls-2" d="M57.6,14.53c-.01-.17-.02-.33-.02-.51-.02-.25-.03-.5-.05-.77-.01-.11-.02-.22-.02-.33,0-.08,0-.17-.02-.26,0-.09-.01-.18-.01-.27-.01-.07-.01-.14-.01-.21,0-.07,0-.14,0-.21-.01-.04-.01-.09-.01-.14,0-.04-.01-.09-.01-.14-.01-.1-.01-.19-.02-.29,0-.09-.02-.19-.03-.29-.01-.09-.03-.19-.05-.28,0-.07-.02-.14-.04-.2,0-.06-.03-.13-.04-.19-.02-.05-.04-.11-.06-.16-.01-.03-.01-.06-.02-.08-.02-.05-.04-.11-.07-.15-.02-.05-.04-.1-.06-.14s-.05-.07-.07-.11c-.02-.03-.04-.07-.06-.1-.03-.02-.05-.05-.07-.08l-.07-.07s-.05-.05-.07-.07c-.01,0-.02-.01-.03-.01"/>
      <path class="cls-2" d="M44.01,0h17.43"/>
      <path class="cls-2" d="M61.44,0h.58"/>
      <path class="cls-2" d="M62.02,0h0s0,0,.01,0h.03s0,.01,.01,.01h0s.02,.01,.02,.02c.01,0,.01,0,.02,0,0,.01,.01,.01,.01,.02,0,.01,.02,.01,.02,.02,.01,.01,.01,.02,.02,.03,0,0,0,0,0,.02,.01,.02,.02,.04,.03,.07,.02,.02,.02,.05,.03,.07l.03,.09,.03,.09s0,.07,.02,.11c.01,.07,.02,.14,.03,.22,.01,.04,.01,.08,.01,.12,.01,.03,.01,.07,.01,.11s0,.08,.01,.12v.08h0v.02h0V14.46h0v.02h0v.03h0s-.01,.04-.01,.05v.03s0,.04-.01,.06c0,.03,0,.05-.01,.07,0,.02,0,.04,0,.07-.01,.02-.01,.04-.02,.06-.01,.05-.03,.09-.04,.13-.02,.05-.04,.09-.06,.13s-.05,.09-.07,.13c-.06,.08-.12,.15-.19,.22-.06,.07-.14,.13-.22,.19-.04,.02-.08,.05-.12,.07s-.09,.04-.13,.06-.09,.03-.13,.04c-.04,.02-.09,.03-.13,.03-.02,.01-.04,.01-.06,.02h-.06s-.05,0-.07,0h-2.92"/>
      <path class="cls-2" d="M44.01,23.53c2.98-.01,6.79-.11,9.74-.79,.07-.02,.14-.04,.21-.05,.04-.01,.07-.02,.11-.03,.02,0,.03-.01,.05-.01,.27-.07,.53-.14,.79-.23,.21-.07,.4-.15,.58-.26"/>
      <path class="cls-2" d="M55.49,22.16c-.18,.1-.37,.18-.58,.26"/>
      <path class="cls-2" d="M55.49,22.16c.14-.08,.27-.17,.39-.28,.1-.08,.18-.18,.27-.28,.08-.1,.16-.21,.23-.31,.11-.17,.22-.33,.32-.5,.2-.35,.38-.7,.54-1.06,.33-.72,.6-1.55,.73-2.32,.09-.51,.12-1.02,.13-1.53"/>
      <path class="cls-2" d="M58.1,15.88c.01-.21,.01-.42,.01-.63v-4.62h0v-.2c0-.12,0-.24-.02-.36-.03-.25-.1-.46-.27-.66-.2-.22-.49-.34-.76-.43"/>
      <path class="cls-2" d="M57.06,8.98s-.07-.02-.1-.03c-.05-.01-.11-.03-.16-.03-.02-.02-.03-.02-.05-.02"/>
      <path class="cls-2" d="M56.75,8.9c-.48-.11-1-.15-1.49-.18-.49-.02-.98-.01-1.46-.01h-9.79"/>
      <path class="cls-2" d="M57.06,8.98v-2.03c0-.3-.12-.58-.31-.79"/>
      <path class="cls-2" d="M44.01,5.82h11.97c.31,0,.58,.13,.77,.34"/>
      <path class="cls-2" d="M5.69,9.47s-.02,.01-.02,.01c-.03,.02-.05,.05-.08,.07-.02,.02-.04,.05-.07,.07-.02,.03-.04,.06-.06,.08-.03,.03-.05,.07-.07,.1-.02,.04-.04,.07-.06,.11-.03,.04-.05,.09-.07,.14-.02,.04-.04,.1-.06,.15-.01,.02-.02,.05-.03,.08-.02,.05-.04,.11-.05,.16-.02,.06-.04,.13-.05,.19-.02,.06-.03,.13-.04,.2-.02,.09-.03,.19-.05,.28-.01,.1-.02,.2-.03,.29-.01,.1-.01,.19-.02,.29,0,.05,0,.1-.01,.14v.14c0,.07,0,.14-.02,.21,0,.07,0,.14-.01,.21,0,.09-.01,.18-.01,.27,0,.09,0,.18-.02,.26,0,.11-.01,.22-.02,.33-.02,.27-.03,.52-.04,.77,0,.18-.02,.34-.03,.51"/>
      <path class="cls-2" d="M4.26,15.88H1.34s-.04,0-.06,0h-.07s-.04-.01-.06-.02c-.04,0-.09-.01-.13-.03-.04-.01-.09-.02-.13-.04s-.08-.04-.13-.06c-.04-.02-.08-.05-.12-.07-.08-.06-.15-.12-.22-.19s-.13-.14-.18-.22c-.03-.04-.06-.09-.08-.13s-.04-.08-.06-.13c-.01-.04-.03-.08-.04-.13-.01-.02-.01-.04-.02-.06,0-.03-.01-.05-.01-.07-.01-.02-.01-.04-.01-.07-.01-.02-.01-.04-.01-.06v-.07H0v-.03s0-.01,0-.01"/>
      <path class="cls-2" d="M.73,60.52l.12,.03s.07,.02,.11,.02h.07s.08,.01,.13,.01c.08,0,.16,0,.24,0l.39,.03c1.23,.06,2.46,.13,3.69,.19,1.53,.08,3.06,.15,4.59,.2,.1,.01,.2,.01,.29,.01,.25,.01,.5,.02,.74,.03,.71,.02,1.42,.04,2.14,.06l1.11,.03h.26c.18,.01,.36,.01,.55,.02,.36,0,.72,0,1.08,0,.71,.02,1.41,.03,2.12,.03h9.99s2.84,0,2.84,0h2.83l28.35,.05"/>
      <path class="cls-2" d="M.09,60.04s.06,.09,.09,.13"/>
      <path class="cls-2" d="M0,59.7s0,0,0,.02v.03"/>
      <path class="cls-2" d="M0,9.93v4.55"/>
      <path class="cls-2" d="M0,14.48V58.75H0v.94H0"/>
      <path class="cls-2" d="M0,59.75s0-.04,0-.05"/>
      <path class="cls-2" d="M0,59.75s.01,.1,.02,.14l.06,.15"/>
      <path class="cls-2" d="M.18,60.17s-.07-.08-.09-.13"/>
      <path class="cls-2" d="M.18,60.17s.02,.03,.04,.05c.03,.03,.06,.06,.09,.08,.02,.01,.03,.02,.05,.04,.04,.03,.08,.05,.12,.08,.06,.03,.13,.06,.2,.09,.02,0,.03,.01,.05,.01"/>
      <path class="cls-2" d="M1.03,60.57c-.06,0-.12-.01-.18-.02l-.12-.03"/>
      <path class="cls-2" d="M18.36,0H.35s-.01,0-.01,0h-.03s-.01,.01-.01,.02t-.02,.01s-.01,0-.02,0c0,.01,0,.01,0,.02l-.02,.02s-.01,.02-.02,.03c0,0-.01,0-.01,.02-.01,.02-.02,.04-.03,.07,0,.02-.02,.05-.03,.07l-.03,.09-.03,.09s-.01,.07-.02,.11c-.01,.07-.02,.14-.03,.22,0,.04-.01,.08-.01,.12,0,.03-.01,.07-.01,.11v.17s0,.02,0,.03H0v.02H0V9.93s0,.02,0,.03v.06"/>
      <path class="cls-2" d="M18.36,23.53c-2.98-.01-6.79-.11-9.73-.79-.08-.02-.15-.04-.22-.05-.04-.01-.07-.02-.11-.03,0,0-.03-.01-.05-.01-.26-.07-.53-.14-.79-.23-.21-.07-.4-.15-.58-.26"/>
      <path class="cls-2" d="M6.88,22.16c.18,.1,.37,.18,.58,.26"/>
      <path class="cls-2" d="M6.88,22.16s-.07-.04-.1-.06c-.1-.06-.19-.13-.28-.21-.01,0-.01-.01-.01-.01-.09-.08-.18-.17-.26-.27s-.16-.21-.24-.32c-.11-.17-.21-.33-.31-.5-.21-.35-.39-.7-.55-1.06-.32-.72-.6-1.55-.73-2.32-.09-.51-.12-1.02-.12-1.53"/>
      <path class="cls-2" d="M4.28,15.88s-.01,0-.01-.02c-.01-.3-.01-.6-.01-.9v-4.33h0v-.2c0-.12,0-.24,.02-.36,.03-.25,.1-.46,.28-.66,.2-.22,.48-.34,.75-.43"/>
      <path class="cls-2" d="M5.31,8.98s.07-.02,.1-.03c.07-.02,.14-.04,.21-.05"/>
      <path class="cls-2" d="M5.62,8.9c.49-.11,1-.15,1.49-.18,.49-.02,.98-.01,1.47-.01h9.78"/>
      <path class="cls-2" d="M5.31,8.98v-2.03c0-.3,.11-.58,.31-.79,.19-.21,.46-.34,.77-.34h11.97"/>
      <line class="cls-2" x1="44.01" y1="0" x2="18.36" y2="0"/>
      <line class="cls-2" x1="44.01" y1="5.82" x2="18.36" y2="5.82"/>
      <polyline class="cls-2" points="44.01 8.71 34.02 8.71 31.19 8.71 28.35 8.71 18.36 8.71"/>
      <line class="cls-2" x1="56.75" y1="8.9" x2="56.75" y2="6.16"/>
      <line class="cls-2" x1="5.62" y1="8.9" x2="5.62" y2="6.16"/>
      <line class="cls-2" x1="44.01" y1="23.53" x2="18.36" y2="23.53"/>
    </g>
  </g>
  <text class="cls-1" transform="translate(24.1 42.18)"><tspan x="0" y="0">110</tspan></text>
</svg>